G04 #@! TF.FileFunction,Legend,Top*
%FSLAX46Y46*%
G04 Gerber Fmt 4.6, Leading zero omitted, Abs format (unit mm)*
G04 Created by KiCad (PCBNEW 4.0.7) date 01/27/20 16:21:50*
%MOMM*%
%LPD*%
G01*
G04 APERTURE LIST*
%ADD10C,0.100000*%
%ADD11C,0.200000*%
%ADD12C,0.150000*%
%ADD13C,0.120000*%
G04 APERTURE END LIST*
D10*
X154540000Y-107289523D02*
X154501905Y-107365714D01*
X154501905Y-107479999D01*
X154540000Y-107594285D01*
X154616190Y-107670476D01*
X154692381Y-107708571D01*
X154844762Y-107746666D01*
X154959048Y-107746666D01*
X155111429Y-107708571D01*
X155187619Y-107670476D01*
X155263810Y-107594285D01*
X155301905Y-107479999D01*
X155301905Y-107403809D01*
X155263810Y-107289523D01*
X155225714Y-107251428D01*
X154959048Y-107251428D01*
X154959048Y-107403809D01*
X155301905Y-106908571D02*
X154501905Y-106908571D01*
X155301905Y-106451428D01*
X154501905Y-106451428D01*
X155301905Y-106070476D02*
X154501905Y-106070476D01*
X154501905Y-105880000D01*
X154540000Y-105765714D01*
X154616190Y-105689523D01*
X154692381Y-105651428D01*
X154844762Y-105613333D01*
X154959048Y-105613333D01*
X155111429Y-105651428D01*
X155187619Y-105689523D01*
X155263810Y-105765714D01*
X155301905Y-105880000D01*
X155301905Y-106070476D01*
X151961905Y-107746667D02*
X152761905Y-107480000D01*
X151961905Y-107213333D01*
X152685714Y-106489524D02*
X152723810Y-106527619D01*
X152761905Y-106641905D01*
X152761905Y-106718095D01*
X152723810Y-106832381D01*
X152647619Y-106908572D01*
X152571429Y-106946667D01*
X152419048Y-106984762D01*
X152304762Y-106984762D01*
X152152381Y-106946667D01*
X152076190Y-106908572D01*
X152000000Y-106832381D01*
X151961905Y-106718095D01*
X151961905Y-106641905D01*
X152000000Y-106527619D01*
X152038095Y-106489524D01*
X152685714Y-105689524D02*
X152723810Y-105727619D01*
X152761905Y-105841905D01*
X152761905Y-105918095D01*
X152723810Y-106032381D01*
X152647619Y-106108572D01*
X152571429Y-106146667D01*
X152419048Y-106184762D01*
X152304762Y-106184762D01*
X152152381Y-106146667D01*
X152076190Y-106108572D01*
X152000000Y-106032381D01*
X151961905Y-105918095D01*
X151961905Y-105841905D01*
X152000000Y-105727619D01*
X152038095Y-105689524D01*
X150221905Y-107880000D02*
X149421905Y-107880000D01*
X149421905Y-107575238D01*
X149460000Y-107499047D01*
X149498095Y-107460952D01*
X149574286Y-107422857D01*
X149688571Y-107422857D01*
X149764762Y-107460952D01*
X149802857Y-107499047D01*
X149840952Y-107575238D01*
X149840952Y-107880000D01*
X150221905Y-107080000D02*
X149421905Y-107080000D01*
X149802857Y-107080000D02*
X149802857Y-106622857D01*
X150221905Y-106622857D02*
X149421905Y-106622857D01*
X150221905Y-106241905D02*
X149421905Y-106241905D01*
X149498095Y-105899048D02*
X149460000Y-105860953D01*
X149421905Y-105784762D01*
X149421905Y-105594286D01*
X149460000Y-105518096D01*
X149498095Y-105480000D01*
X149574286Y-105441905D01*
X149650476Y-105441905D01*
X149764762Y-105480000D01*
X150221905Y-105937143D01*
X150221905Y-105441905D01*
X147681905Y-107118095D02*
X147300952Y-107384762D01*
X147681905Y-107575238D02*
X146881905Y-107575238D01*
X146881905Y-107270476D01*
X146920000Y-107194285D01*
X146958095Y-107156190D01*
X147034286Y-107118095D01*
X147148571Y-107118095D01*
X147224762Y-107156190D01*
X147262857Y-107194285D01*
X147300952Y-107270476D01*
X147300952Y-107575238D01*
X147643810Y-106813333D02*
X147681905Y-106699047D01*
X147681905Y-106508571D01*
X147643810Y-106432381D01*
X147605714Y-106394285D01*
X147529524Y-106356190D01*
X147453333Y-106356190D01*
X147377143Y-106394285D01*
X147339048Y-106432381D01*
X147300952Y-106508571D01*
X147262857Y-106660952D01*
X147224762Y-106737143D01*
X147186667Y-106775238D01*
X147110476Y-106813333D01*
X147034286Y-106813333D01*
X146958095Y-106775238D01*
X146920000Y-106737143D01*
X146881905Y-106660952D01*
X146881905Y-106470476D01*
X146920000Y-106356190D01*
X146881905Y-106127619D02*
X146881905Y-105670476D01*
X147681905Y-105899047D02*
X146881905Y-105899047D01*
X146744000Y-107765714D02*
X146744000Y-105594285D01*
X145141905Y-107880000D02*
X144341905Y-107880000D01*
X144341905Y-107575238D01*
X144380000Y-107499047D01*
X144418095Y-107460952D01*
X144494286Y-107422857D01*
X144608571Y-107422857D01*
X144684762Y-107460952D01*
X144722857Y-107499047D01*
X144760952Y-107575238D01*
X144760952Y-107880000D01*
X145141905Y-107080000D02*
X144341905Y-107080000D01*
X144722857Y-107080000D02*
X144722857Y-106622857D01*
X145141905Y-106622857D02*
X144341905Y-106622857D01*
X145141905Y-106241905D02*
X144341905Y-106241905D01*
X144341905Y-105708572D02*
X144341905Y-105632381D01*
X144380000Y-105556191D01*
X144418095Y-105518096D01*
X144494286Y-105480000D01*
X144646667Y-105441905D01*
X144837143Y-105441905D01*
X144989524Y-105480000D01*
X145065714Y-105518096D01*
X145103810Y-105556191D01*
X145141905Y-105632381D01*
X145141905Y-105708572D01*
X145103810Y-105784762D01*
X145065714Y-105822858D01*
X144989524Y-105860953D01*
X144837143Y-105899048D01*
X144646667Y-105899048D01*
X144494286Y-105860953D01*
X144418095Y-105822858D01*
X144380000Y-105784762D01*
X144341905Y-105708572D01*
X142601905Y-107499047D02*
X141801905Y-107499047D01*
X142601905Y-106660952D02*
X142220952Y-106927619D01*
X142601905Y-107118095D02*
X141801905Y-107118095D01*
X141801905Y-106813333D01*
X141840000Y-106737142D01*
X141878095Y-106699047D01*
X141954286Y-106660952D01*
X142068571Y-106660952D01*
X142144762Y-106699047D01*
X142182857Y-106737142D01*
X142220952Y-106813333D01*
X142220952Y-107118095D01*
X142678095Y-105784761D02*
X142640000Y-105860952D01*
X142563810Y-105937142D01*
X142449524Y-106051428D01*
X142411429Y-106127619D01*
X142411429Y-106203809D01*
X142601905Y-106165714D02*
X142563810Y-106241904D01*
X142487619Y-106318095D01*
X142335238Y-106356190D01*
X142068571Y-106356190D01*
X141916190Y-106318095D01*
X141840000Y-106241904D01*
X141801905Y-106165714D01*
X141801905Y-106013333D01*
X141840000Y-105937142D01*
X141916190Y-105860952D01*
X142068571Y-105822857D01*
X142335238Y-105822857D01*
X142487619Y-105860952D01*
X142563810Y-105937142D01*
X142601905Y-106013333D01*
X142601905Y-106165714D01*
X141664000Y-107689523D02*
X141664000Y-105670476D01*
X140061905Y-107556190D02*
X139261905Y-107556190D01*
X140061905Y-107099047D01*
X139261905Y-107099047D01*
X140061905Y-106718095D02*
X139261905Y-106718095D01*
X139833333Y-106451428D01*
X139261905Y-106184761D01*
X140061905Y-106184761D01*
X140061905Y-105803809D02*
X139261905Y-105803809D01*
X139124000Y-107746666D02*
X139124000Y-105613333D01*
X137521905Y-107308571D02*
X137140952Y-107575238D01*
X137521905Y-107765714D02*
X136721905Y-107765714D01*
X136721905Y-107460952D01*
X136760000Y-107384761D01*
X136798095Y-107346666D01*
X136874286Y-107308571D01*
X136988571Y-107308571D01*
X137064762Y-107346666D01*
X137102857Y-107384761D01*
X137140952Y-107460952D01*
X137140952Y-107765714D01*
X136683810Y-106394285D02*
X137712381Y-107080000D01*
X136721905Y-106203809D02*
X137521905Y-106013333D01*
X136950476Y-105860952D01*
X137521905Y-105708571D01*
X136721905Y-105518095D01*
X136584000Y-106318095D02*
X136584000Y-105403809D01*
X134981905Y-107175238D02*
X134600952Y-107441905D01*
X134981905Y-107632381D02*
X134181905Y-107632381D01*
X134181905Y-107327619D01*
X134220000Y-107251428D01*
X134258095Y-107213333D01*
X134334286Y-107175238D01*
X134448571Y-107175238D01*
X134524762Y-107213333D01*
X134562857Y-107251428D01*
X134600952Y-107327619D01*
X134600952Y-107632381D01*
X134981905Y-106832381D02*
X134181905Y-106832381D01*
X134181905Y-106641905D01*
X134220000Y-106527619D01*
X134296190Y-106451428D01*
X134372381Y-106413333D01*
X134524762Y-106375238D01*
X134639048Y-106375238D01*
X134791429Y-106413333D01*
X134867619Y-106451428D01*
X134943810Y-106527619D01*
X134981905Y-106641905D01*
X134981905Y-106832381D01*
X134600952Y-105880000D02*
X134981905Y-105880000D01*
X134181905Y-106146667D02*
X134600952Y-105880000D01*
X134181905Y-105613333D01*
D11*
X196215000Y-103505000D02*
X196215000Y-95250000D01*
X195580000Y-95250000D02*
X195580000Y-103505000D01*
X194945000Y-103505000D02*
X194945000Y-95250000D01*
X196215000Y-109855000D02*
X196215000Y-118110000D01*
X195580000Y-118110000D02*
X195580000Y-109855000D01*
X194945000Y-109855000D02*
X194945000Y-118110000D01*
D10*
X195713333Y-107632381D02*
X195713333Y-107251429D01*
X195941905Y-107708572D02*
X195141905Y-107441905D01*
X195941905Y-107175238D01*
X195941905Y-106489524D02*
X195941905Y-106946667D01*
X195941905Y-106718096D02*
X195141905Y-106718096D01*
X195256190Y-106794286D01*
X195332381Y-106870477D01*
X195370476Y-106946667D01*
X195141905Y-105765714D02*
X195141905Y-106146667D01*
X195522857Y-106184762D01*
X195484762Y-106146667D01*
X195446667Y-106070476D01*
X195446667Y-105880000D01*
X195484762Y-105803810D01*
X195522857Y-105765714D01*
X195599048Y-105727619D01*
X195789524Y-105727619D01*
X195865714Y-105765714D01*
X195903810Y-105803810D01*
X195941905Y-105880000D01*
X195941905Y-106070476D01*
X195903810Y-106146667D01*
X195865714Y-106184762D01*
X193173333Y-107632381D02*
X193173333Y-107251429D01*
X193401905Y-107708572D02*
X192601905Y-107441905D01*
X193401905Y-107175238D01*
X193401905Y-106489524D02*
X193401905Y-106946667D01*
X193401905Y-106718096D02*
X192601905Y-106718096D01*
X192716190Y-106794286D01*
X192792381Y-106870477D01*
X192830476Y-106946667D01*
X192868571Y-105803810D02*
X193401905Y-105803810D01*
X192563810Y-105994286D02*
X193135238Y-106184762D01*
X193135238Y-105689524D01*
X190633333Y-107632381D02*
X190633333Y-107251429D01*
X190861905Y-107708572D02*
X190061905Y-107441905D01*
X190861905Y-107175238D01*
X190861905Y-106489524D02*
X190861905Y-106946667D01*
X190861905Y-106718096D02*
X190061905Y-106718096D01*
X190176190Y-106794286D01*
X190252381Y-106870477D01*
X190290476Y-106946667D01*
X190061905Y-106222857D02*
X190061905Y-105727619D01*
X190366667Y-105994286D01*
X190366667Y-105880000D01*
X190404762Y-105803810D01*
X190442857Y-105765714D01*
X190519048Y-105727619D01*
X190709524Y-105727619D01*
X190785714Y-105765714D01*
X190823810Y-105803810D01*
X190861905Y-105880000D01*
X190861905Y-106108572D01*
X190823810Y-106184762D01*
X190785714Y-106222857D01*
X188093333Y-107632381D02*
X188093333Y-107251429D01*
X188321905Y-107708572D02*
X187521905Y-107441905D01*
X188321905Y-107175238D01*
X188321905Y-106489524D02*
X188321905Y-106946667D01*
X188321905Y-106718096D02*
X187521905Y-106718096D01*
X187636190Y-106794286D01*
X187712381Y-106870477D01*
X187750476Y-106946667D01*
X187598095Y-106184762D02*
X187560000Y-106146667D01*
X187521905Y-106070476D01*
X187521905Y-105880000D01*
X187560000Y-105803810D01*
X187598095Y-105765714D01*
X187674286Y-105727619D01*
X187750476Y-105727619D01*
X187864762Y-105765714D01*
X188321905Y-106222857D01*
X188321905Y-105727619D01*
X185553333Y-107632381D02*
X185553333Y-107251429D01*
X185781905Y-107708572D02*
X184981905Y-107441905D01*
X185781905Y-107175238D01*
X185781905Y-106489524D02*
X185781905Y-106946667D01*
X185781905Y-106718096D02*
X184981905Y-106718096D01*
X185096190Y-106794286D01*
X185172381Y-106870477D01*
X185210476Y-106946667D01*
X185781905Y-105727619D02*
X185781905Y-106184762D01*
X185781905Y-105956191D02*
X184981905Y-105956191D01*
X185096190Y-106032381D01*
X185172381Y-106108572D01*
X185210476Y-106184762D01*
X183013333Y-107632381D02*
X183013333Y-107251429D01*
X183241905Y-107708572D02*
X182441905Y-107441905D01*
X183241905Y-107175238D01*
X183241905Y-106489524D02*
X183241905Y-106946667D01*
X183241905Y-106718096D02*
X182441905Y-106718096D01*
X182556190Y-106794286D01*
X182632381Y-106870477D01*
X182670476Y-106946667D01*
X182441905Y-105994286D02*
X182441905Y-105918095D01*
X182480000Y-105841905D01*
X182518095Y-105803810D01*
X182594286Y-105765714D01*
X182746667Y-105727619D01*
X182937143Y-105727619D01*
X183089524Y-105765714D01*
X183165714Y-105803810D01*
X183203810Y-105841905D01*
X183241905Y-105918095D01*
X183241905Y-105994286D01*
X183203810Y-106070476D01*
X183165714Y-106108572D01*
X183089524Y-106146667D01*
X182937143Y-106184762D01*
X182746667Y-106184762D01*
X182594286Y-106146667D01*
X182518095Y-106108572D01*
X182480000Y-106070476D01*
X182441905Y-105994286D01*
X180473333Y-107251428D02*
X180473333Y-106870476D01*
X180701905Y-107327619D02*
X179901905Y-107060952D01*
X180701905Y-106794285D01*
X180701905Y-106489524D02*
X180701905Y-106337143D01*
X180663810Y-106260952D01*
X180625714Y-106222857D01*
X180511429Y-106146666D01*
X180359048Y-106108571D01*
X180054286Y-106108571D01*
X179978095Y-106146666D01*
X179940000Y-106184762D01*
X179901905Y-106260952D01*
X179901905Y-106413333D01*
X179940000Y-106489524D01*
X179978095Y-106527619D01*
X180054286Y-106565714D01*
X180244762Y-106565714D01*
X180320952Y-106527619D01*
X180359048Y-106489524D01*
X180397143Y-106413333D01*
X180397143Y-106260952D01*
X180359048Y-106184762D01*
X180320952Y-106146666D01*
X180244762Y-106108571D01*
X177933333Y-107251428D02*
X177933333Y-106870476D01*
X178161905Y-107327619D02*
X177361905Y-107060952D01*
X178161905Y-106794285D01*
X177704762Y-106413333D02*
X177666667Y-106489524D01*
X177628571Y-106527619D01*
X177552381Y-106565714D01*
X177514286Y-106565714D01*
X177438095Y-106527619D01*
X177400000Y-106489524D01*
X177361905Y-106413333D01*
X177361905Y-106260952D01*
X177400000Y-106184762D01*
X177438095Y-106146666D01*
X177514286Y-106108571D01*
X177552381Y-106108571D01*
X177628571Y-106146666D01*
X177666667Y-106184762D01*
X177704762Y-106260952D01*
X177704762Y-106413333D01*
X177742857Y-106489524D01*
X177780952Y-106527619D01*
X177857143Y-106565714D01*
X178009524Y-106565714D01*
X178085714Y-106527619D01*
X178123810Y-106489524D01*
X178161905Y-106413333D01*
X178161905Y-106260952D01*
X178123810Y-106184762D01*
X178085714Y-106146666D01*
X178009524Y-106108571D01*
X177857143Y-106108571D01*
X177780952Y-106146666D01*
X177742857Y-106184762D01*
X177704762Y-106260952D01*
X175393333Y-107251428D02*
X175393333Y-106870476D01*
X175621905Y-107327619D02*
X174821905Y-107060952D01*
X175621905Y-106794285D01*
X174821905Y-106603809D02*
X174821905Y-106070476D01*
X175621905Y-106413333D01*
X172853333Y-107251428D02*
X172853333Y-106870476D01*
X173081905Y-107327619D02*
X172281905Y-107060952D01*
X173081905Y-106794285D01*
X172281905Y-106184762D02*
X172281905Y-106337143D01*
X172320000Y-106413333D01*
X172358095Y-106451428D01*
X172472381Y-106527619D01*
X172624762Y-106565714D01*
X172929524Y-106565714D01*
X173005714Y-106527619D01*
X173043810Y-106489524D01*
X173081905Y-106413333D01*
X173081905Y-106260952D01*
X173043810Y-106184762D01*
X173005714Y-106146666D01*
X172929524Y-106108571D01*
X172739048Y-106108571D01*
X172662857Y-106146666D01*
X172624762Y-106184762D01*
X172586667Y-106260952D01*
X172586667Y-106413333D01*
X172624762Y-106489524D01*
X172662857Y-106527619D01*
X172739048Y-106565714D01*
X170313333Y-107251428D02*
X170313333Y-106870476D01*
X170541905Y-107327619D02*
X169741905Y-107060952D01*
X170541905Y-106794285D01*
X169741905Y-106146666D02*
X169741905Y-106527619D01*
X170122857Y-106565714D01*
X170084762Y-106527619D01*
X170046667Y-106451428D01*
X170046667Y-106260952D01*
X170084762Y-106184762D01*
X170122857Y-106146666D01*
X170199048Y-106108571D01*
X170389524Y-106108571D01*
X170465714Y-106146666D01*
X170503810Y-106184762D01*
X170541905Y-106260952D01*
X170541905Y-106451428D01*
X170503810Y-106527619D01*
X170465714Y-106565714D01*
X167773333Y-107251428D02*
X167773333Y-106870476D01*
X168001905Y-107327619D02*
X167201905Y-107060952D01*
X168001905Y-106794285D01*
X167468571Y-106184762D02*
X168001905Y-106184762D01*
X167163810Y-106375238D02*
X167735238Y-106565714D01*
X167735238Y-106070476D01*
X165233333Y-107251428D02*
X165233333Y-106870476D01*
X165461905Y-107327619D02*
X164661905Y-107060952D01*
X165461905Y-106794285D01*
X164661905Y-106603809D02*
X164661905Y-106108571D01*
X164966667Y-106375238D01*
X164966667Y-106260952D01*
X165004762Y-106184762D01*
X165042857Y-106146666D01*
X165119048Y-106108571D01*
X165309524Y-106108571D01*
X165385714Y-106146666D01*
X165423810Y-106184762D01*
X165461905Y-106260952D01*
X165461905Y-106489524D01*
X165423810Y-106565714D01*
X165385714Y-106603809D01*
X162693333Y-107251428D02*
X162693333Y-106870476D01*
X162921905Y-107327619D02*
X162121905Y-107060952D01*
X162921905Y-106794285D01*
X162198095Y-106565714D02*
X162160000Y-106527619D01*
X162121905Y-106451428D01*
X162121905Y-106260952D01*
X162160000Y-106184762D01*
X162198095Y-106146666D01*
X162274286Y-106108571D01*
X162350476Y-106108571D01*
X162464762Y-106146666D01*
X162921905Y-106603809D01*
X162921905Y-106108571D01*
X160153333Y-107251428D02*
X160153333Y-106870476D01*
X160381905Y-107327619D02*
X159581905Y-107060952D01*
X160381905Y-106794285D01*
X160381905Y-106108571D02*
X160381905Y-106565714D01*
X160381905Y-106337143D02*
X159581905Y-106337143D01*
X159696190Y-106413333D01*
X159772381Y-106489524D01*
X159810476Y-106565714D01*
X157613333Y-107251428D02*
X157613333Y-106870476D01*
X157841905Y-107327619D02*
X157041905Y-107060952D01*
X157841905Y-106794285D01*
X157041905Y-106375238D02*
X157041905Y-106299047D01*
X157080000Y-106222857D01*
X157118095Y-106184762D01*
X157194286Y-106146666D01*
X157346667Y-106108571D01*
X157537143Y-106108571D01*
X157689524Y-106146666D01*
X157765714Y-106184762D01*
X157803810Y-106222857D01*
X157841905Y-106299047D01*
X157841905Y-106375238D01*
X157803810Y-106451428D01*
X157765714Y-106489524D01*
X157689524Y-106527619D01*
X157537143Y-106565714D01*
X157346667Y-106565714D01*
X157194286Y-106527619D01*
X157118095Y-106489524D01*
X157080000Y-106451428D01*
X157041905Y-106375238D01*
X129901905Y-107270476D02*
X129101905Y-107270476D01*
X129101905Y-107080000D01*
X129140000Y-106965714D01*
X129216190Y-106889523D01*
X129292381Y-106851428D01*
X129444762Y-106813333D01*
X129559048Y-106813333D01*
X129711429Y-106851428D01*
X129787619Y-106889523D01*
X129863810Y-106965714D01*
X129901905Y-107080000D01*
X129901905Y-107270476D01*
X129101905Y-106318095D02*
X129101905Y-106241904D01*
X129140000Y-106165714D01*
X129178095Y-106127619D01*
X129254286Y-106089523D01*
X129406667Y-106051428D01*
X129597143Y-106051428D01*
X129749524Y-106089523D01*
X129825714Y-106127619D01*
X129863810Y-106165714D01*
X129901905Y-106241904D01*
X129901905Y-106318095D01*
X129863810Y-106394285D01*
X129825714Y-106432381D01*
X129749524Y-106470476D01*
X129597143Y-106508571D01*
X129406667Y-106508571D01*
X129254286Y-106470476D01*
X129178095Y-106432381D01*
X129140000Y-106394285D01*
X129101905Y-106318095D01*
X127361905Y-107270476D02*
X126561905Y-107270476D01*
X126561905Y-107080000D01*
X126600000Y-106965714D01*
X126676190Y-106889523D01*
X126752381Y-106851428D01*
X126904762Y-106813333D01*
X127019048Y-106813333D01*
X127171429Y-106851428D01*
X127247619Y-106889523D01*
X127323810Y-106965714D01*
X127361905Y-107080000D01*
X127361905Y-107270476D01*
X127361905Y-106051428D02*
X127361905Y-106508571D01*
X127361905Y-106280000D02*
X126561905Y-106280000D01*
X126676190Y-106356190D01*
X126752381Y-106432381D01*
X126790476Y-106508571D01*
X124821905Y-107270476D02*
X124021905Y-107270476D01*
X124021905Y-107080000D01*
X124060000Y-106965714D01*
X124136190Y-106889523D01*
X124212381Y-106851428D01*
X124364762Y-106813333D01*
X124479048Y-106813333D01*
X124631429Y-106851428D01*
X124707619Y-106889523D01*
X124783810Y-106965714D01*
X124821905Y-107080000D01*
X124821905Y-107270476D01*
X124098095Y-106508571D02*
X124060000Y-106470476D01*
X124021905Y-106394285D01*
X124021905Y-106203809D01*
X124060000Y-106127619D01*
X124098095Y-106089523D01*
X124174286Y-106051428D01*
X124250476Y-106051428D01*
X124364762Y-106089523D01*
X124821905Y-106546666D01*
X124821905Y-106051428D01*
X122281905Y-107270476D02*
X121481905Y-107270476D01*
X121481905Y-107080000D01*
X121520000Y-106965714D01*
X121596190Y-106889523D01*
X121672381Y-106851428D01*
X121824762Y-106813333D01*
X121939048Y-106813333D01*
X122091429Y-106851428D01*
X122167619Y-106889523D01*
X122243810Y-106965714D01*
X122281905Y-107080000D01*
X122281905Y-107270476D01*
X121481905Y-106546666D02*
X121481905Y-106051428D01*
X121786667Y-106318095D01*
X121786667Y-106203809D01*
X121824762Y-106127619D01*
X121862857Y-106089523D01*
X121939048Y-106051428D01*
X122129524Y-106051428D01*
X122205714Y-106089523D01*
X122243810Y-106127619D01*
X122281905Y-106203809D01*
X122281905Y-106432381D01*
X122243810Y-106508571D01*
X122205714Y-106546666D01*
X119741905Y-107270476D02*
X118941905Y-107270476D01*
X118941905Y-107080000D01*
X118980000Y-106965714D01*
X119056190Y-106889523D01*
X119132381Y-106851428D01*
X119284762Y-106813333D01*
X119399048Y-106813333D01*
X119551429Y-106851428D01*
X119627619Y-106889523D01*
X119703810Y-106965714D01*
X119741905Y-107080000D01*
X119741905Y-107270476D01*
X119208571Y-106127619D02*
X119741905Y-106127619D01*
X118903810Y-106318095D02*
X119475238Y-106508571D01*
X119475238Y-106013333D01*
X117201905Y-107270476D02*
X116401905Y-107270476D01*
X116401905Y-107080000D01*
X116440000Y-106965714D01*
X116516190Y-106889523D01*
X116592381Y-106851428D01*
X116744762Y-106813333D01*
X116859048Y-106813333D01*
X117011429Y-106851428D01*
X117087619Y-106889523D01*
X117163810Y-106965714D01*
X117201905Y-107080000D01*
X117201905Y-107270476D01*
X116401905Y-106089523D02*
X116401905Y-106470476D01*
X116782857Y-106508571D01*
X116744762Y-106470476D01*
X116706667Y-106394285D01*
X116706667Y-106203809D01*
X116744762Y-106127619D01*
X116782857Y-106089523D01*
X116859048Y-106051428D01*
X117049524Y-106051428D01*
X117125714Y-106089523D01*
X117163810Y-106127619D01*
X117201905Y-106203809D01*
X117201905Y-106394285D01*
X117163810Y-106470476D01*
X117125714Y-106508571D01*
X114661905Y-107270476D02*
X113861905Y-107270476D01*
X113861905Y-107080000D01*
X113900000Y-106965714D01*
X113976190Y-106889523D01*
X114052381Y-106851428D01*
X114204762Y-106813333D01*
X114319048Y-106813333D01*
X114471429Y-106851428D01*
X114547619Y-106889523D01*
X114623810Y-106965714D01*
X114661905Y-107080000D01*
X114661905Y-107270476D01*
X113861905Y-106127619D02*
X113861905Y-106280000D01*
X113900000Y-106356190D01*
X113938095Y-106394285D01*
X114052381Y-106470476D01*
X114204762Y-106508571D01*
X114509524Y-106508571D01*
X114585714Y-106470476D01*
X114623810Y-106432381D01*
X114661905Y-106356190D01*
X114661905Y-106203809D01*
X114623810Y-106127619D01*
X114585714Y-106089523D01*
X114509524Y-106051428D01*
X114319048Y-106051428D01*
X114242857Y-106089523D01*
X114204762Y-106127619D01*
X114166667Y-106203809D01*
X114166667Y-106356190D01*
X114204762Y-106432381D01*
X114242857Y-106470476D01*
X114319048Y-106508571D01*
X112121905Y-107270476D02*
X111321905Y-107270476D01*
X111321905Y-107080000D01*
X111360000Y-106965714D01*
X111436190Y-106889523D01*
X111512381Y-106851428D01*
X111664762Y-106813333D01*
X111779048Y-106813333D01*
X111931429Y-106851428D01*
X112007619Y-106889523D01*
X112083810Y-106965714D01*
X112121905Y-107080000D01*
X112121905Y-107270476D01*
X111321905Y-106546666D02*
X111321905Y-106013333D01*
X112121905Y-106356190D01*
X109581905Y-107670476D02*
X108781905Y-107670476D01*
X108781905Y-107480000D01*
X108820000Y-107365714D01*
X108896190Y-107289523D01*
X108972381Y-107251428D01*
X109124762Y-107213333D01*
X109239048Y-107213333D01*
X109391429Y-107251428D01*
X109467619Y-107289523D01*
X109543810Y-107365714D01*
X109581905Y-107480000D01*
X109581905Y-107670476D01*
X109162857Y-106870476D02*
X109162857Y-106603809D01*
X109581905Y-106489523D02*
X109581905Y-106870476D01*
X108781905Y-106870476D01*
X108781905Y-106489523D01*
X109581905Y-106146666D02*
X108781905Y-106146666D01*
X109581905Y-105689523D01*
X108781905Y-105689523D01*
X107041905Y-107270476D02*
X106241905Y-107270476D01*
X107041905Y-106813333D02*
X106584762Y-107156190D01*
X106241905Y-106813333D02*
X106699048Y-107270476D01*
X106241905Y-106318095D02*
X106241905Y-106241904D01*
X106280000Y-106165714D01*
X106318095Y-106127619D01*
X106394286Y-106089523D01*
X106546667Y-106051428D01*
X106737143Y-106051428D01*
X106889524Y-106089523D01*
X106965714Y-106127619D01*
X107003810Y-106165714D01*
X107041905Y-106241904D01*
X107041905Y-106318095D01*
X107003810Y-106394285D01*
X106965714Y-106432381D01*
X106889524Y-106470476D01*
X106737143Y-106508571D01*
X106546667Y-106508571D01*
X106394286Y-106470476D01*
X106318095Y-106432381D01*
X106280000Y-106394285D01*
X106241905Y-106318095D01*
X104501905Y-107270476D02*
X103701905Y-107270476D01*
X104501905Y-106813333D02*
X104044762Y-107156190D01*
X103701905Y-106813333D02*
X104159048Y-107270476D01*
X103701905Y-106546666D02*
X103701905Y-106013333D01*
X104501905Y-106356190D01*
X101961905Y-107480000D02*
X101161905Y-107480000D01*
X101161905Y-106946667D02*
X101161905Y-106794286D01*
X101200000Y-106718095D01*
X101276190Y-106641905D01*
X101428571Y-106603810D01*
X101695238Y-106603810D01*
X101847619Y-106641905D01*
X101923810Y-106718095D01*
X101961905Y-106794286D01*
X101961905Y-106946667D01*
X101923810Y-107022857D01*
X101847619Y-107099048D01*
X101695238Y-107137143D01*
X101428571Y-107137143D01*
X101276190Y-107099048D01*
X101200000Y-107022857D01*
X101161905Y-106946667D01*
X101161905Y-106337143D02*
X101161905Y-105841905D01*
X101466667Y-106108572D01*
X101466667Y-105994286D01*
X101504762Y-105918096D01*
X101542857Y-105880000D01*
X101619048Y-105841905D01*
X101809524Y-105841905D01*
X101885714Y-105880000D01*
X101923810Y-105918096D01*
X101961905Y-105994286D01*
X101961905Y-106222858D01*
X101923810Y-106299048D01*
X101885714Y-106337143D01*
X132403810Y-108070476D02*
X132441905Y-107956190D01*
X132441905Y-107765714D01*
X132403810Y-107689524D01*
X132365714Y-107651428D01*
X132289524Y-107613333D01*
X132213333Y-107613333D01*
X132137143Y-107651428D01*
X132099048Y-107689524D01*
X132060952Y-107765714D01*
X132022857Y-107918095D01*
X131984762Y-107994286D01*
X131946667Y-108032381D01*
X131870476Y-108070476D01*
X131794286Y-108070476D01*
X131718095Y-108032381D01*
X131680000Y-107994286D01*
X131641905Y-107918095D01*
X131641905Y-107727619D01*
X131680000Y-107613333D01*
X132060952Y-107118095D02*
X132441905Y-107118095D01*
X131641905Y-107384762D02*
X132060952Y-107118095D01*
X131641905Y-106851428D01*
X132441905Y-106584762D02*
X131641905Y-106584762D01*
X132441905Y-106127619D01*
X131641905Y-106127619D01*
X132365714Y-105289524D02*
X132403810Y-105327619D01*
X132441905Y-105441905D01*
X132441905Y-105518095D01*
X132403810Y-105632381D01*
X132327619Y-105708572D01*
X132251429Y-105746667D01*
X132099048Y-105784762D01*
X131984762Y-105784762D01*
X131832381Y-105746667D01*
X131756190Y-105708572D01*
X131680000Y-105632381D01*
X131641905Y-105518095D01*
X131641905Y-105441905D01*
X131680000Y-105327619D01*
X131718095Y-105289524D01*
D12*
X141915238Y-99480714D02*
X141915238Y-100290238D01*
X141867619Y-100385476D01*
X141820000Y-100433095D01*
X141724761Y-100480714D01*
X141581904Y-100480714D01*
X141486666Y-100433095D01*
X141915238Y-100099762D02*
X141820000Y-100147381D01*
X141629523Y-100147381D01*
X141534285Y-100099762D01*
X141486666Y-100052143D01*
X141439047Y-99956905D01*
X141439047Y-99671190D01*
X141486666Y-99575952D01*
X141534285Y-99528333D01*
X141629523Y-99480714D01*
X141820000Y-99480714D01*
X141915238Y-99528333D01*
X142391428Y-100147381D02*
X142391428Y-99480714D01*
X142391428Y-99147381D02*
X142343809Y-99195000D01*
X142391428Y-99242619D01*
X142439047Y-99195000D01*
X142391428Y-99147381D01*
X142391428Y-99242619D01*
X142724761Y-99480714D02*
X143105713Y-99480714D01*
X142867618Y-99147381D02*
X142867618Y-100004524D01*
X142915237Y-100099762D01*
X143010475Y-100147381D01*
X143105713Y-100147381D01*
X143439047Y-100147381D02*
X143439047Y-99147381D01*
X143867619Y-100147381D02*
X143867619Y-99623571D01*
X143820000Y-99528333D01*
X143724762Y-99480714D01*
X143581904Y-99480714D01*
X143486666Y-99528333D01*
X143439047Y-99575952D01*
X144772381Y-99480714D02*
X144772381Y-100147381D01*
X144343809Y-99480714D02*
X144343809Y-100004524D01*
X144391428Y-100099762D01*
X144486666Y-100147381D01*
X144629524Y-100147381D01*
X144724762Y-100099762D01*
X144772381Y-100052143D01*
X145248571Y-100147381D02*
X145248571Y-99147381D01*
X145248571Y-99528333D02*
X145343809Y-99480714D01*
X145534286Y-99480714D01*
X145629524Y-99528333D01*
X145677143Y-99575952D01*
X145724762Y-99671190D01*
X145724762Y-99956905D01*
X145677143Y-100052143D01*
X145629524Y-100099762D01*
X145534286Y-100147381D01*
X145343809Y-100147381D01*
X145248571Y-100099762D01*
X146153333Y-100052143D02*
X146200952Y-100099762D01*
X146153333Y-100147381D01*
X146105714Y-100099762D01*
X146153333Y-100052143D01*
X146153333Y-100147381D01*
X147058095Y-100099762D02*
X146962857Y-100147381D01*
X146772380Y-100147381D01*
X146677142Y-100099762D01*
X146629523Y-100052143D01*
X146581904Y-99956905D01*
X146581904Y-99671190D01*
X146629523Y-99575952D01*
X146677142Y-99528333D01*
X146772380Y-99480714D01*
X146962857Y-99480714D01*
X147058095Y-99528333D01*
X147629523Y-100147381D02*
X147534285Y-100099762D01*
X147486666Y-100052143D01*
X147439047Y-99956905D01*
X147439047Y-99671190D01*
X147486666Y-99575952D01*
X147534285Y-99528333D01*
X147629523Y-99480714D01*
X147772381Y-99480714D01*
X147867619Y-99528333D01*
X147915238Y-99575952D01*
X147962857Y-99671190D01*
X147962857Y-99956905D01*
X147915238Y-100052143D01*
X147867619Y-100099762D01*
X147772381Y-100147381D01*
X147629523Y-100147381D01*
X148391428Y-100147381D02*
X148391428Y-99480714D01*
X148391428Y-99575952D02*
X148439047Y-99528333D01*
X148534285Y-99480714D01*
X148677143Y-99480714D01*
X148772381Y-99528333D01*
X148820000Y-99623571D01*
X148820000Y-100147381D01*
X148820000Y-99623571D02*
X148867619Y-99528333D01*
X148962857Y-99480714D01*
X149105714Y-99480714D01*
X149200952Y-99528333D01*
X149248571Y-99623571D01*
X149248571Y-100147381D01*
X150439047Y-99099762D02*
X149581904Y-100385476D01*
X150629523Y-99480714D02*
X151010475Y-99480714D01*
X150772380Y-99147381D02*
X150772380Y-100004524D01*
X150819999Y-100099762D01*
X150915237Y-100147381D01*
X151010475Y-100147381D01*
X151724762Y-100099762D02*
X151629524Y-100147381D01*
X151439047Y-100147381D01*
X151343809Y-100099762D01*
X151296190Y-100004524D01*
X151296190Y-99623571D01*
X151343809Y-99528333D01*
X151439047Y-99480714D01*
X151629524Y-99480714D01*
X151724762Y-99528333D01*
X151772381Y-99623571D01*
X151772381Y-99718810D01*
X151296190Y-99814048D01*
X152200952Y-100147381D02*
X152200952Y-99147381D01*
X152200952Y-99528333D02*
X152296190Y-99480714D01*
X152486667Y-99480714D01*
X152581905Y-99528333D01*
X152629524Y-99575952D01*
X152677143Y-99671190D01*
X152677143Y-99956905D01*
X152629524Y-100052143D01*
X152581905Y-100099762D01*
X152486667Y-100147381D01*
X152296190Y-100147381D01*
X152200952Y-100099762D01*
X153248571Y-100147381D02*
X153153333Y-100099762D01*
X153105714Y-100004524D01*
X153105714Y-99147381D01*
X140105714Y-97718571D02*
X140248571Y-97766190D01*
X140296190Y-97813810D01*
X140343809Y-97909048D01*
X140343809Y-98051905D01*
X140296190Y-98147143D01*
X140248571Y-98194762D01*
X140153333Y-98242381D01*
X139772380Y-98242381D01*
X139772380Y-97242381D01*
X140105714Y-97242381D01*
X140200952Y-97290000D01*
X140248571Y-97337619D01*
X140296190Y-97432857D01*
X140296190Y-97528095D01*
X140248571Y-97623333D01*
X140200952Y-97670952D01*
X140105714Y-97718571D01*
X139772380Y-97718571D01*
X141200952Y-98242381D02*
X141200952Y-97718571D01*
X141153333Y-97623333D01*
X141058095Y-97575714D01*
X140867618Y-97575714D01*
X140772380Y-97623333D01*
X141200952Y-98194762D02*
X141105714Y-98242381D01*
X140867618Y-98242381D01*
X140772380Y-98194762D01*
X140724761Y-98099524D01*
X140724761Y-98004286D01*
X140772380Y-97909048D01*
X140867618Y-97861429D01*
X141105714Y-97861429D01*
X141200952Y-97813810D01*
X142105714Y-98194762D02*
X142010476Y-98242381D01*
X141819999Y-98242381D01*
X141724761Y-98194762D01*
X141677142Y-98147143D01*
X141629523Y-98051905D01*
X141629523Y-97766190D01*
X141677142Y-97670952D01*
X141724761Y-97623333D01*
X141819999Y-97575714D01*
X142010476Y-97575714D01*
X142105714Y-97623333D01*
X142534285Y-98242381D02*
X142534285Y-97242381D01*
X142629523Y-97861429D02*
X142915238Y-98242381D01*
X142915238Y-97575714D02*
X142534285Y-97956667D01*
X143343809Y-97575714D02*
X143343809Y-98575714D01*
X143343809Y-97623333D02*
X143439047Y-97575714D01*
X143629524Y-97575714D01*
X143724762Y-97623333D01*
X143772381Y-97670952D01*
X143820000Y-97766190D01*
X143820000Y-98051905D01*
X143772381Y-98147143D01*
X143724762Y-98194762D01*
X143629524Y-98242381D01*
X143439047Y-98242381D01*
X143343809Y-98194762D01*
X144391428Y-98242381D02*
X144296190Y-98194762D01*
X144248571Y-98099524D01*
X144248571Y-97242381D01*
X145200953Y-98242381D02*
X145200953Y-97718571D01*
X145153334Y-97623333D01*
X145058096Y-97575714D01*
X144867619Y-97575714D01*
X144772381Y-97623333D01*
X145200953Y-98194762D02*
X145105715Y-98242381D01*
X144867619Y-98242381D01*
X144772381Y-98194762D01*
X144724762Y-98099524D01*
X144724762Y-98004286D01*
X144772381Y-97909048D01*
X144867619Y-97861429D01*
X145105715Y-97861429D01*
X145200953Y-97813810D01*
X145677143Y-97575714D02*
X145677143Y-98242381D01*
X145677143Y-97670952D02*
X145724762Y-97623333D01*
X145820000Y-97575714D01*
X145962858Y-97575714D01*
X146058096Y-97623333D01*
X146105715Y-97718571D01*
X146105715Y-98242381D01*
X146962858Y-98194762D02*
X146867620Y-98242381D01*
X146677143Y-98242381D01*
X146581905Y-98194762D01*
X146534286Y-98099524D01*
X146534286Y-97718571D01*
X146581905Y-97623333D01*
X146677143Y-97575714D01*
X146867620Y-97575714D01*
X146962858Y-97623333D01*
X147010477Y-97718571D01*
X147010477Y-97813810D01*
X146534286Y-97909048D01*
X148200953Y-97718571D02*
X148534287Y-97718571D01*
X148677144Y-98242381D02*
X148200953Y-98242381D01*
X148200953Y-97242381D01*
X148677144Y-97242381D01*
X149010477Y-98242381D02*
X149534287Y-97575714D01*
X149010477Y-97575714D02*
X149534287Y-98242381D01*
X149772382Y-97575714D02*
X150153334Y-97575714D01*
X149915239Y-97242381D02*
X149915239Y-98099524D01*
X149962858Y-98194762D01*
X150058096Y-98242381D01*
X150153334Y-98242381D01*
X150867621Y-98194762D02*
X150772383Y-98242381D01*
X150581906Y-98242381D01*
X150486668Y-98194762D01*
X150439049Y-98099524D01*
X150439049Y-97718571D01*
X150486668Y-97623333D01*
X150581906Y-97575714D01*
X150772383Y-97575714D01*
X150867621Y-97623333D01*
X150915240Y-97718571D01*
X150915240Y-97813810D01*
X150439049Y-97909048D01*
X151343811Y-97575714D02*
X151343811Y-98242381D01*
X151343811Y-97670952D02*
X151391430Y-97623333D01*
X151486668Y-97575714D01*
X151629526Y-97575714D01*
X151724764Y-97623333D01*
X151772383Y-97718571D01*
X151772383Y-98242381D01*
X152200954Y-98194762D02*
X152296192Y-98242381D01*
X152486668Y-98242381D01*
X152581907Y-98194762D01*
X152629526Y-98099524D01*
X152629526Y-98051905D01*
X152581907Y-97956667D01*
X152486668Y-97909048D01*
X152343811Y-97909048D01*
X152248573Y-97861429D01*
X152200954Y-97766190D01*
X152200954Y-97718571D01*
X152248573Y-97623333D01*
X152343811Y-97575714D01*
X152486668Y-97575714D01*
X152581907Y-97623333D01*
X153058097Y-98242381D02*
X153058097Y-97575714D01*
X153058097Y-97242381D02*
X153010478Y-97290000D01*
X153058097Y-97337619D01*
X153105716Y-97290000D01*
X153058097Y-97242381D01*
X153058097Y-97337619D01*
X153677144Y-98242381D02*
X153581906Y-98194762D01*
X153534287Y-98147143D01*
X153486668Y-98051905D01*
X153486668Y-97766190D01*
X153534287Y-97670952D01*
X153581906Y-97623333D01*
X153677144Y-97575714D01*
X153820002Y-97575714D01*
X153915240Y-97623333D01*
X153962859Y-97670952D01*
X154010478Y-97766190D01*
X154010478Y-98051905D01*
X153962859Y-98147143D01*
X153915240Y-98194762D01*
X153820002Y-98242381D01*
X153677144Y-98242381D01*
X154439049Y-97575714D02*
X154439049Y-98242381D01*
X154439049Y-97670952D02*
X154486668Y-97623333D01*
X154581906Y-97575714D01*
X154724764Y-97575714D01*
X154820002Y-97623333D01*
X154867621Y-97718571D01*
X154867621Y-98242381D01*
D13*
X103886000Y-98960000D02*
G75*
G03X103886000Y-98960000I-2286000J0D01*
G01*
X195326000Y-98960000D02*
G75*
G03X195326000Y-98960000I-2286000J0D01*
G01*
X195326000Y-114300000D02*
G75*
G03X195326000Y-114300000I-2286000J0D01*
G01*
X103886000Y-114300000D02*
G75*
G03X103886000Y-114300000I-2286000J0D01*
G01*
M02*
