M48
;DRILL file {KiCad 4.0.7} date 01/27/20 16:21:52
;FORMAT={2:4/ absolute / inch / suppress leading zeros}
FMAT,2
INCH,TZ
T1C0.031
T2C0.039
T3C0.120
%
G90
G05
M72
T1
X57031Y-44500
X59000Y-44500
T2
X39000Y-40961
X39000Y-43000
X40000Y-40961
X40000Y-43000
X41000Y-40961
X41000Y-43000
X42000Y-40961
X42000Y-43000
X43000Y-40961
X43000Y-43000
X44000Y-40961
X44000Y-43000
X45000Y-40961
X45000Y-43000
X46000Y-40961
X46000Y-43000
X47000Y-40961
X47000Y-43000
X48000Y-40961
X48000Y-43000
X49000Y-40961
X49000Y-43000
X50000Y-40961
X50000Y-43000
X51000Y-40961
X51000Y-43000
X52000Y-40961
X52000Y-43000
X53000Y-40961
X53000Y-43000
X54000Y-40961
X54000Y-43000
X55000Y-40961
X55000Y-43000
X56000Y-40961
X56000Y-43000
X57000Y-40961
X57000Y-43000
X58000Y-40961
X58000Y-43000
X59000Y-40961
X59000Y-43000
X60000Y-40961
X60000Y-43000
X61000Y-40961
X61000Y-43000
X62000Y-40961
X62000Y-43000
X63000Y-40961
X63000Y-43000
X64000Y-40961
X64000Y-43000
X65000Y-40961
X65000Y-43000
X66000Y-40961
X66000Y-43000
X67000Y-40961
X67000Y-43000
X68000Y-40961
X68000Y-43000
X69000Y-40961
X69000Y-43000
X70000Y-40961
X70000Y-43000
X71000Y-40961
X71000Y-43000
X72000Y-40961
X72000Y-43000
X73000Y-40961
X73000Y-43000
X74000Y-40961
X74000Y-43000
X75000Y-40961
X75000Y-43000
X76000Y-40961
X76000Y-43000
X77000Y-40961
X77000Y-43000
T3
X40000Y-38961
X40000Y-45000
X76000Y-38961
X76000Y-45000
T0
M30
