G04 #@! TF.FileFunction,Copper,L1,Top,Signal*
%FSLAX46Y46*%
G04 Gerber Fmt 4.6, Leading zero omitted, Abs format (unit mm)*
G04 Created by KiCad (PCBNEW 4.0.7) date 12/29/19 23:23:20*
%MOMM*%
%LPD*%
G01*
G04 APERTURE LIST*
%ADD10C,0.100000*%
%ADD11C,1.600000*%
%ADD12O,1.600000X1.600000*%
%ADD13C,2.000000*%
%ADD14R,1.700000X1.700000*%
%ADD15O,1.700000X1.700000*%
%ADD16R,2.500000X3.500000*%
%ADD17O,3.500000X1.750000*%
%ADD18C,1.524000*%
%ADD19C,1.520000*%
%ADD20R,1.520000X1.520000*%
%ADD21C,0.600000*%
%ADD22C,0.250000*%
G04 APERTURE END LIST*
D10*
D11*
X151130000Y-86360000D03*
X151130000Y-91360000D03*
X156210000Y-86360000D03*
X156210000Y-91360000D03*
X133350000Y-132715000D03*
D12*
X133350000Y-122555000D03*
D11*
X135255000Y-86360000D03*
D12*
X145415000Y-86360000D03*
D13*
X106680000Y-141025000D03*
X106680000Y-136525000D03*
X113180000Y-141025000D03*
X113180000Y-136525000D03*
X118110000Y-141025000D03*
X118110000Y-136525000D03*
X124610000Y-141025000D03*
X124610000Y-136525000D03*
D11*
X120650000Y-132715000D03*
D12*
X120650000Y-122555000D03*
D11*
X124460000Y-132715000D03*
D12*
X124460000Y-122555000D03*
D11*
X121920000Y-86360000D03*
D12*
X132080000Y-86360000D03*
D11*
X119380000Y-90170000D03*
D12*
X129540000Y-90170000D03*
D11*
X116840000Y-93980000D03*
D12*
X127000000Y-93980000D03*
D11*
X114300000Y-97790000D03*
D12*
X124460000Y-97790000D03*
D11*
X111760000Y-101600000D03*
D12*
X121920000Y-101600000D03*
D11*
X109220000Y-105410000D03*
D12*
X119380000Y-105410000D03*
D11*
X106680000Y-109220000D03*
D12*
X116840000Y-109220000D03*
D11*
X104140000Y-113030000D03*
D12*
X114300000Y-113030000D03*
D11*
X101600000Y-116840000D03*
D12*
X111760000Y-116840000D03*
D11*
X129540000Y-132715000D03*
D12*
X129540000Y-122555000D03*
D11*
X132715000Y-90170000D03*
D12*
X142875000Y-90170000D03*
D11*
X130175000Y-93980000D03*
D12*
X140335000Y-93980000D03*
D11*
X127635000Y-97790000D03*
D12*
X137795000Y-97790000D03*
D11*
X125095000Y-101600000D03*
D12*
X135255000Y-101600000D03*
D11*
X122555000Y-105410000D03*
D12*
X132715000Y-105410000D03*
D11*
X120015000Y-109220000D03*
D12*
X130175000Y-109220000D03*
D11*
X117475000Y-113030000D03*
D12*
X127635000Y-113030000D03*
D11*
X166370000Y-132715000D03*
D12*
X166370000Y-122555000D03*
D11*
X170180000Y-132715000D03*
D12*
X170180000Y-122555000D03*
D11*
X175260000Y-132715000D03*
D12*
X175260000Y-122555000D03*
D11*
X179070000Y-132715000D03*
D12*
X179070000Y-122555000D03*
D13*
X129540000Y-141025000D03*
X129540000Y-136525000D03*
X136040000Y-141025000D03*
X136040000Y-136525000D03*
X140970000Y-141025000D03*
X140970000Y-136525000D03*
X147470000Y-141025000D03*
X147470000Y-136525000D03*
X152400000Y-141025000D03*
X152400000Y-136525000D03*
X158900000Y-141025000D03*
X158900000Y-136525000D03*
X163830000Y-141025000D03*
X163830000Y-136525000D03*
X170330000Y-141025000D03*
X170330000Y-136525000D03*
X175260000Y-141025000D03*
X175260000Y-136525000D03*
X181760000Y-141025000D03*
X181760000Y-136525000D03*
X186690000Y-141025000D03*
X186690000Y-136525000D03*
X193190000Y-141025000D03*
X193190000Y-136525000D03*
D14*
X104140000Y-80010000D03*
D15*
X106680000Y-80010000D03*
X109220000Y-80010000D03*
X111760000Y-80010000D03*
X114300000Y-80010000D03*
X116840000Y-80010000D03*
X119380000Y-80010000D03*
X121920000Y-80010000D03*
X124460000Y-80010000D03*
X127000000Y-80010000D03*
D14*
X198120000Y-145415000D03*
D15*
X195580000Y-145415000D03*
X193040000Y-145415000D03*
X190500000Y-145415000D03*
X187960000Y-145415000D03*
X185420000Y-145415000D03*
X182880000Y-145415000D03*
X180340000Y-145415000D03*
X177800000Y-145415000D03*
X175260000Y-145415000D03*
X172720000Y-145415000D03*
X170180000Y-145415000D03*
X167640000Y-145415000D03*
X165100000Y-145415000D03*
X162560000Y-145415000D03*
X160020000Y-145415000D03*
X157480000Y-145415000D03*
X154940000Y-145415000D03*
X152400000Y-145415000D03*
X149860000Y-145415000D03*
X147320000Y-145415000D03*
X144780000Y-145415000D03*
X142240000Y-145415000D03*
X139700000Y-145415000D03*
X137160000Y-145415000D03*
X134620000Y-145415000D03*
X132080000Y-145415000D03*
X129540000Y-145415000D03*
X127000000Y-145415000D03*
X124460000Y-145415000D03*
X121920000Y-145415000D03*
X119380000Y-145415000D03*
X116840000Y-145415000D03*
X114300000Y-145415000D03*
X111760000Y-145415000D03*
X109220000Y-145415000D03*
X106680000Y-145415000D03*
X104140000Y-145415000D03*
X101600000Y-145415000D03*
D14*
X132080000Y-80010000D03*
D15*
X134620000Y-80010000D03*
X137160000Y-80010000D03*
X139700000Y-80010000D03*
X142240000Y-80010000D03*
X144780000Y-80010000D03*
X147320000Y-80010000D03*
X149860000Y-80010000D03*
X152400000Y-80010000D03*
X154940000Y-80010000D03*
D16*
X195271000Y-95885000D03*
D17*
X190265000Y-100885000D03*
X190265000Y-90885000D03*
X190265000Y-98385000D03*
X190265000Y-93385000D03*
D14*
X178435000Y-109855000D03*
D15*
X178435000Y-107315000D03*
D11*
X179070000Y-114935000D03*
D12*
X168910000Y-114935000D03*
D18*
X152360000Y-117602000D03*
X147360000Y-117475000D03*
X154860000Y-117602000D03*
X144860000Y-117475000D03*
X142360000Y-117475000D03*
X157360000Y-117602000D03*
D19*
X170180000Y-108585000D03*
X170180000Y-111125000D03*
D20*
X170180000Y-106045000D03*
D21*
X161925000Y-122555000D03*
X149225000Y-86360000D03*
X165100000Y-111125000D03*
X161925000Y-111125000D03*
X161290000Y-110490000D03*
X165100000Y-109855000D03*
D22*
X149860000Y-123825000D02*
X149860000Y-138430000D01*
X149860000Y-123190000D02*
X149860000Y-123825000D01*
X150495000Y-139065000D02*
X151130000Y-139065000D01*
X149860000Y-138430000D02*
X150495000Y-139065000D01*
X149860000Y-123190000D02*
X150495000Y-122555000D01*
X150495000Y-122555000D02*
X151130000Y-122555000D01*
X149860000Y-123190000D02*
X149225000Y-122555000D01*
X133350000Y-122555000D02*
X149225000Y-122555000D01*
X178435000Y-109855000D02*
X173355000Y-109855000D01*
X172720000Y-121920000D02*
X172085000Y-122555000D01*
X172720000Y-110490000D02*
X172720000Y-121920000D01*
X173355000Y-109855000D02*
X172720000Y-110490000D01*
X154940000Y-145415000D02*
X154940000Y-139700000D01*
X154940000Y-139700000D02*
X154305000Y-139065000D01*
X154305000Y-139065000D02*
X151130000Y-139065000D01*
X151130000Y-122555000D02*
X161925000Y-122555000D01*
X175260000Y-122555000D02*
X179070000Y-122555000D01*
X170180000Y-122555000D02*
X172085000Y-122555000D01*
X172085000Y-122555000D02*
X175260000Y-122555000D01*
X166370000Y-122555000D02*
X170180000Y-122555000D01*
X129540000Y-122555000D02*
X133350000Y-122555000D01*
X124460000Y-122555000D02*
X129540000Y-122555000D01*
X120650000Y-122555000D02*
X124460000Y-122555000D01*
X127635000Y-97790000D02*
X131445000Y-97790000D01*
X131445000Y-97790000D02*
X135255000Y-101600000D01*
X124460000Y-97790000D02*
X127635000Y-97790000D01*
X125095000Y-101600000D02*
X128905000Y-101600000D01*
X128905000Y-101600000D02*
X132715000Y-105410000D01*
X121920000Y-101600000D02*
X125095000Y-101600000D01*
X156210000Y-86360000D02*
X154940000Y-86360000D01*
X154940000Y-86360000D02*
X151130000Y-86360000D01*
X151130000Y-86360000D02*
X149225000Y-86360000D01*
X104140000Y-113030000D02*
X104140000Y-80010000D01*
X106680000Y-80010000D02*
X106680000Y-109220000D01*
X109220000Y-105410000D02*
X109220000Y-80010000D01*
X111760000Y-80010000D02*
X111760000Y-101600000D01*
X114300000Y-97790000D02*
X114300000Y-80010000D01*
X116840000Y-80010000D02*
X116840000Y-93980000D01*
X119380000Y-80010000D02*
X119380000Y-90170000D01*
X121920000Y-86360000D02*
X121920000Y-80010000D01*
X108585000Y-111125000D02*
X108585000Y-130810000D01*
X108585000Y-130810000D02*
X109220000Y-131445000D01*
X120650000Y-132715000D02*
X120650000Y-132080000D01*
X120650000Y-132080000D02*
X120015000Y-131445000D01*
X120015000Y-131445000D02*
X109220000Y-131445000D01*
X108585000Y-108585000D02*
X108585000Y-111125000D01*
X132080000Y-81280000D02*
X131445000Y-81915000D01*
X131445000Y-81915000D02*
X124460000Y-81915000D01*
X124460000Y-81915000D02*
X123825000Y-82550000D01*
X123825000Y-82550000D02*
X123825000Y-88265000D01*
X123825000Y-88265000D02*
X118745000Y-93345000D01*
X118745000Y-93345000D02*
X118745000Y-95885000D01*
X118745000Y-95885000D02*
X113665000Y-100965000D01*
X113665000Y-100965000D02*
X113665000Y-103505000D01*
X113665000Y-103505000D02*
X108585000Y-108585000D01*
X132080000Y-81280000D02*
X132080000Y-80010000D01*
X120650000Y-132715000D02*
X114300000Y-132715000D01*
X113180000Y-133835000D02*
X113180000Y-133985000D01*
X113180000Y-133985000D02*
X113180000Y-136525000D01*
X114300000Y-132715000D02*
X113180000Y-133835000D01*
X106680000Y-136525000D02*
X113180000Y-136525000D01*
X109855000Y-130810000D02*
X109220000Y-130175000D01*
X109220000Y-130175000D02*
X109220000Y-111760000D01*
X109855000Y-108585000D02*
X109220000Y-109220000D01*
X114300000Y-104140000D02*
X109855000Y-108585000D01*
X119380000Y-93980000D02*
X119380000Y-96520000D01*
X134620000Y-80010000D02*
X134620000Y-81915000D01*
X124460000Y-83185000D02*
X124460000Y-88900000D01*
X125095000Y-82550000D02*
X124460000Y-83185000D01*
X133985000Y-82550000D02*
X125095000Y-82550000D01*
X134620000Y-81915000D02*
X133985000Y-82550000D01*
X119380000Y-93980000D02*
X124460000Y-88900000D01*
X119380000Y-96520000D02*
X114300000Y-101600000D01*
X114300000Y-101600000D02*
X114300000Y-104140000D01*
X109220000Y-109220000D02*
X109220000Y-111760000D01*
X124460000Y-131445000D02*
X124460000Y-132715000D01*
X123825000Y-130810000D02*
X124460000Y-131445000D01*
X109855000Y-130810000D02*
X123825000Y-130810000D01*
X124460000Y-132715000D02*
X124460000Y-136375000D01*
X124460000Y-136375000D02*
X124610000Y-136525000D01*
X118110000Y-136525000D02*
X124610000Y-136525000D01*
X109855000Y-112395000D02*
X109855000Y-129540000D01*
X109855000Y-129540000D02*
X110490000Y-130175000D01*
X115570000Y-130175000D02*
X128905000Y-130175000D01*
X110490000Y-130175000D02*
X115570000Y-130175000D01*
X111125000Y-108585000D02*
X109855000Y-109855000D01*
X114935000Y-104775000D02*
X111125000Y-108585000D01*
X120015000Y-94615000D02*
X120015000Y-97155000D01*
X125095000Y-89535000D02*
X120015000Y-94615000D01*
X137160000Y-80010000D02*
X137160000Y-82550000D01*
X125095000Y-83820000D02*
X125095000Y-87630000D01*
X125730000Y-83185000D02*
X125095000Y-83820000D01*
X136525000Y-83185000D02*
X125730000Y-83185000D01*
X137160000Y-82550000D02*
X136525000Y-83185000D01*
X125095000Y-87630000D02*
X125095000Y-89535000D01*
X120015000Y-97155000D02*
X114935000Y-102235000D01*
X114935000Y-102235000D02*
X114935000Y-104775000D01*
X109855000Y-109855000D02*
X109855000Y-112395000D01*
X129540000Y-130810000D02*
X129540000Y-132715000D01*
X128905000Y-130175000D02*
X129540000Y-130810000D01*
X129540000Y-132715000D02*
X129540000Y-136525000D01*
X129540000Y-136525000D02*
X136040000Y-136525000D01*
X110490000Y-121285000D02*
X110490000Y-128905000D01*
X110490000Y-113030000D02*
X110490000Y-121285000D01*
X110490000Y-128905000D02*
X111125000Y-129540000D01*
X110490000Y-110490000D02*
X110490000Y-113030000D01*
X115570000Y-102870000D02*
X115570000Y-105410000D01*
X120650000Y-97790000D02*
X115570000Y-102870000D01*
X125730000Y-86995000D02*
X125730000Y-90170000D01*
X139700000Y-83185000D02*
X139065000Y-83820000D01*
X139065000Y-83820000D02*
X126365000Y-83820000D01*
X126365000Y-83820000D02*
X125730000Y-84455000D01*
X125730000Y-84455000D02*
X125730000Y-86995000D01*
X139700000Y-80010000D02*
X139700000Y-83185000D01*
X125730000Y-90170000D02*
X120650000Y-95250000D01*
X120650000Y-95250000D02*
X120650000Y-97790000D01*
X115570000Y-105410000D02*
X111760000Y-109220000D01*
X111760000Y-109220000D02*
X110490000Y-110490000D01*
X133350000Y-130175000D02*
X133350000Y-132715000D01*
X132715000Y-129540000D02*
X133350000Y-130175000D01*
X111125000Y-129540000D02*
X132715000Y-129540000D01*
X133350000Y-132715000D02*
X139700000Y-132715000D01*
X140970000Y-133985000D02*
X140970000Y-136525000D01*
X139700000Y-132715000D02*
X140970000Y-133985000D01*
X140970000Y-136525000D02*
X147470000Y-136525000D01*
X158115000Y-96520000D02*
X161925000Y-96520000D01*
X166370000Y-127000000D02*
X165735000Y-126365000D01*
X166370000Y-132715000D02*
X166370000Y-127000000D01*
X146685000Y-95885000D02*
X147320000Y-96520000D01*
X147320000Y-96520000D02*
X157480000Y-96520000D01*
X157480000Y-96520000D02*
X158115000Y-96520000D01*
X142240000Y-83185000D02*
X142240000Y-80010000D01*
X146685000Y-84455000D02*
X146685000Y-88900000D01*
X146050000Y-83820000D02*
X146685000Y-84455000D01*
X142875000Y-83820000D02*
X146050000Y-83820000D01*
X142240000Y-83185000D02*
X142875000Y-83820000D01*
X146685000Y-88900000D02*
X146685000Y-95885000D01*
X163195000Y-126365000D02*
X165735000Y-126365000D01*
X162560000Y-125730000D02*
X163195000Y-126365000D01*
X162560000Y-97155000D02*
X162560000Y-125730000D01*
X161925000Y-96520000D02*
X162560000Y-97155000D01*
X166370000Y-132715000D02*
X160020000Y-132715000D01*
X158900000Y-133835000D02*
X158900000Y-136525000D01*
X160020000Y-132715000D02*
X158900000Y-133835000D01*
X152400000Y-136525000D02*
X158900000Y-136525000D01*
X156210000Y-95885000D02*
X162560000Y-95885000D01*
X170180000Y-126365000D02*
X169545000Y-125730000D01*
X169545000Y-125730000D02*
X164465000Y-125730000D01*
X170180000Y-132715000D02*
X170180000Y-126365000D01*
X147320000Y-95250000D02*
X147955000Y-95885000D01*
X147955000Y-95885000D02*
X156210000Y-95885000D01*
X144780000Y-82550000D02*
X144780000Y-80010000D01*
X147320000Y-83820000D02*
X147320000Y-88265000D01*
X146685000Y-83185000D02*
X147320000Y-83820000D01*
X145415000Y-83185000D02*
X146685000Y-83185000D01*
X144780000Y-82550000D02*
X145415000Y-83185000D01*
X147320000Y-88265000D02*
X147320000Y-95250000D01*
X163830000Y-125730000D02*
X164465000Y-125730000D01*
X163195000Y-125095000D02*
X163830000Y-125730000D01*
X163195000Y-96520000D02*
X163195000Y-125095000D01*
X162560000Y-95885000D02*
X163195000Y-96520000D01*
X170330000Y-136525000D02*
X170330000Y-132865000D01*
X170330000Y-132865000D02*
X170180000Y-132715000D01*
X163830000Y-136525000D02*
X170330000Y-136525000D01*
X147955000Y-88265000D02*
X147955000Y-94615000D01*
X147320000Y-82550000D02*
X147955000Y-83185000D01*
X147955000Y-83185000D02*
X147955000Y-88265000D01*
X147320000Y-80010000D02*
X147320000Y-82550000D01*
X175260000Y-125730000D02*
X174625000Y-125095000D01*
X174625000Y-125095000D02*
X164465000Y-125095000D01*
X175260000Y-125730000D02*
X175260000Y-132715000D01*
X163830000Y-124460000D02*
X164465000Y-125095000D01*
X163830000Y-95885000D02*
X163830000Y-124460000D01*
X163195000Y-95250000D02*
X163830000Y-95885000D01*
X148590000Y-95250000D02*
X163195000Y-95250000D01*
X147955000Y-94615000D02*
X148590000Y-95250000D01*
X175260000Y-132715000D02*
X175260000Y-136525000D01*
X175260000Y-136525000D02*
X181760000Y-136525000D01*
X148590000Y-83185000D02*
X149860000Y-81915000D01*
X165100000Y-124460000D02*
X164465000Y-123825000D01*
X164465000Y-123825000D02*
X164465000Y-95250000D01*
X164465000Y-95250000D02*
X163830000Y-94615000D01*
X163830000Y-94615000D02*
X149225000Y-94615000D01*
X149225000Y-94615000D02*
X148590000Y-93980000D01*
X148590000Y-93980000D02*
X148590000Y-83185000D01*
X179070000Y-132715000D02*
X179070000Y-125095000D01*
X178435000Y-124460000D02*
X165735000Y-124460000D01*
X179070000Y-125095000D02*
X178435000Y-124460000D01*
X165735000Y-124460000D02*
X165100000Y-124460000D01*
X149860000Y-81915000D02*
X149860000Y-80010000D01*
X179070000Y-132715000D02*
X185420000Y-132715000D01*
X186690000Y-133985000D02*
X186690000Y-136525000D01*
X185420000Y-132715000D02*
X186690000Y-133985000D01*
X186690000Y-136525000D02*
X193190000Y-136525000D01*
X135255000Y-86360000D02*
X139065000Y-86360000D01*
X139065000Y-86360000D02*
X142875000Y-90170000D01*
X132080000Y-86360000D02*
X135255000Y-86360000D01*
X132715000Y-90170000D02*
X136525000Y-90170000D01*
X136525000Y-90170000D02*
X140335000Y-93980000D01*
X129540000Y-90170000D02*
X132715000Y-90170000D01*
X130175000Y-93980000D02*
X133985000Y-93980000D01*
X133985000Y-93980000D02*
X137795000Y-97790000D01*
X127000000Y-93980000D02*
X130175000Y-93980000D01*
X122555000Y-105410000D02*
X126365000Y-105410000D01*
X126365000Y-105410000D02*
X130175000Y-109220000D01*
X119380000Y-105410000D02*
X122555000Y-105410000D01*
X120015000Y-109220000D02*
X123825000Y-109220000D01*
X123825000Y-109220000D02*
X127635000Y-113030000D01*
X116840000Y-109220000D02*
X120015000Y-109220000D01*
X111760000Y-116840000D02*
X113030000Y-116840000D01*
X114300000Y-115570000D02*
X114300000Y-113030000D01*
X113030000Y-116840000D02*
X114300000Y-115570000D01*
X114300000Y-113030000D02*
X117475000Y-113030000D01*
X154860000Y-115015000D02*
X154860000Y-111840000D01*
X165100000Y-111125000D02*
X165735000Y-111125000D01*
X155575000Y-111125000D02*
X161925000Y-111125000D01*
X154860000Y-111840000D02*
X155575000Y-111125000D01*
X154860000Y-117602000D02*
X154860000Y-115015000D01*
X170180000Y-111125000D02*
X165735000Y-111125000D01*
X154860000Y-117602000D02*
X157360000Y-117602000D01*
X152360000Y-117602000D02*
X154860000Y-117602000D01*
X178435000Y-107315000D02*
X175895000Y-107315000D01*
X144780000Y-111125000D02*
X144780000Y-117395000D01*
X145415000Y-110490000D02*
X144780000Y-111125000D01*
X161290000Y-110490000D02*
X145415000Y-110490000D01*
X165100000Y-107950000D02*
X165100000Y-109855000D01*
X165735000Y-107315000D02*
X165100000Y-107950000D01*
X175895000Y-107315000D02*
X165735000Y-107315000D01*
X144780000Y-117395000D02*
X144860000Y-117475000D01*
X144860000Y-117475000D02*
X147360000Y-117475000D01*
X142360000Y-117475000D02*
X144860000Y-117475000D01*
X170180000Y-108585000D02*
X170815000Y-108585000D01*
X170815000Y-108585000D02*
X171450000Y-109220000D01*
X171450000Y-109220000D02*
X171450000Y-114300000D01*
X171450000Y-114300000D02*
X170815000Y-114935000D01*
X170815000Y-114935000D02*
X168910000Y-114935000D01*
X159385000Y-89535000D02*
X156845000Y-89535000D01*
X159385000Y-89535000D02*
X186690000Y-89535000D01*
X187325000Y-90170000D02*
X186690000Y-89535000D01*
X156210000Y-90170000D02*
X156210000Y-91360000D01*
X156845000Y-89535000D02*
X156210000Y-90170000D01*
X187325000Y-100330000D02*
X187960000Y-100965000D01*
X187960000Y-100965000D02*
X190185000Y-100965000D01*
X190185000Y-100965000D02*
X190265000Y-100885000D01*
X187325000Y-90170000D02*
X187960000Y-90805000D01*
X187960000Y-90805000D02*
X190185000Y-90805000D01*
X190185000Y-90805000D02*
X190265000Y-90885000D01*
X187325000Y-90170000D02*
X187325000Y-91440000D01*
X186690000Y-114935000D02*
X187325000Y-114300000D01*
X187325000Y-114300000D02*
X187325000Y-100330000D01*
X187325000Y-100330000D02*
X187325000Y-91440000D01*
X186690000Y-114935000D02*
X179070000Y-114935000D01*
M02*
