G04 #@! TF.FileFunction,Legend,Top*
%FSLAX46Y46*%
G04 Gerber Fmt 4.6, Leading zero omitted, Abs format (unit mm)*
G04 Created by KiCad (PCBNEW 4.0.7) date 12/29/19 23:23:20*
%MOMM*%
%LPD*%
G01*
G04 APERTURE LIST*
%ADD10C,0.100000*%
%ADD11C,0.200000*%
%ADD12C,0.150000*%
%ADD13C,0.300000*%
%ADD14C,0.120000*%
G04 APERTURE END LIST*
D10*
D11*
X198755000Y-89535000D02*
X198755000Y-80010000D01*
X198120000Y-80010000D02*
X198120000Y-89535000D01*
X197485000Y-89535000D02*
X197485000Y-80010000D01*
X198755000Y-106680000D02*
X198755000Y-102235000D01*
X198120000Y-102235000D02*
X198120000Y-106680000D01*
X197485000Y-106680000D02*
X197485000Y-102235000D01*
X198755000Y-110490000D02*
X198755000Y-106680000D01*
X198120000Y-106680000D02*
X198120000Y-110490000D01*
X197485000Y-110490000D02*
X197485000Y-106680000D01*
X198755000Y-146685000D02*
X198755000Y-147320000D01*
X198120000Y-146685000D02*
X198120000Y-147320000D01*
X197485000Y-146685000D02*
X197485000Y-147320000D01*
X198755000Y-115570000D02*
X198755000Y-144145000D01*
X198120000Y-144145000D02*
X198120000Y-115570000D01*
X197485000Y-115570000D02*
X197485000Y-144145000D01*
X198755000Y-80010000D02*
X198755000Y-78105000D01*
X198120000Y-80010000D02*
X198120000Y-78105000D01*
X197485000Y-80010000D02*
X197485000Y-78105000D01*
D12*
X178110238Y-81065714D02*
X178110238Y-81875238D01*
X178062619Y-81970476D01*
X178015000Y-82018095D01*
X177919761Y-82065714D01*
X177776904Y-82065714D01*
X177681666Y-82018095D01*
X178110238Y-81684762D02*
X178015000Y-81732381D01*
X177824523Y-81732381D01*
X177729285Y-81684762D01*
X177681666Y-81637143D01*
X177634047Y-81541905D01*
X177634047Y-81256190D01*
X177681666Y-81160952D01*
X177729285Y-81113333D01*
X177824523Y-81065714D01*
X178015000Y-81065714D01*
X178110238Y-81113333D01*
X178586428Y-81732381D02*
X178586428Y-81065714D01*
X178586428Y-80732381D02*
X178538809Y-80780000D01*
X178586428Y-80827619D01*
X178634047Y-80780000D01*
X178586428Y-80732381D01*
X178586428Y-80827619D01*
X178919761Y-81065714D02*
X179300713Y-81065714D01*
X179062618Y-80732381D02*
X179062618Y-81589524D01*
X179110237Y-81684762D01*
X179205475Y-81732381D01*
X179300713Y-81732381D01*
X179634047Y-81732381D02*
X179634047Y-80732381D01*
X180062619Y-81732381D02*
X180062619Y-81208571D01*
X180015000Y-81113333D01*
X179919762Y-81065714D01*
X179776904Y-81065714D01*
X179681666Y-81113333D01*
X179634047Y-81160952D01*
X180967381Y-81065714D02*
X180967381Y-81732381D01*
X180538809Y-81065714D02*
X180538809Y-81589524D01*
X180586428Y-81684762D01*
X180681666Y-81732381D01*
X180824524Y-81732381D01*
X180919762Y-81684762D01*
X180967381Y-81637143D01*
X181443571Y-81732381D02*
X181443571Y-80732381D01*
X181443571Y-81113333D02*
X181538809Y-81065714D01*
X181729286Y-81065714D01*
X181824524Y-81113333D01*
X181872143Y-81160952D01*
X181919762Y-81256190D01*
X181919762Y-81541905D01*
X181872143Y-81637143D01*
X181824524Y-81684762D01*
X181729286Y-81732381D01*
X181538809Y-81732381D01*
X181443571Y-81684762D01*
X182348333Y-81637143D02*
X182395952Y-81684762D01*
X182348333Y-81732381D01*
X182300714Y-81684762D01*
X182348333Y-81637143D01*
X182348333Y-81732381D01*
X183253095Y-81684762D02*
X183157857Y-81732381D01*
X182967380Y-81732381D01*
X182872142Y-81684762D01*
X182824523Y-81637143D01*
X182776904Y-81541905D01*
X182776904Y-81256190D01*
X182824523Y-81160952D01*
X182872142Y-81113333D01*
X182967380Y-81065714D01*
X183157857Y-81065714D01*
X183253095Y-81113333D01*
X183824523Y-81732381D02*
X183729285Y-81684762D01*
X183681666Y-81637143D01*
X183634047Y-81541905D01*
X183634047Y-81256190D01*
X183681666Y-81160952D01*
X183729285Y-81113333D01*
X183824523Y-81065714D01*
X183967381Y-81065714D01*
X184062619Y-81113333D01*
X184110238Y-81160952D01*
X184157857Y-81256190D01*
X184157857Y-81541905D01*
X184110238Y-81637143D01*
X184062619Y-81684762D01*
X183967381Y-81732381D01*
X183824523Y-81732381D01*
X184586428Y-81732381D02*
X184586428Y-81065714D01*
X184586428Y-81160952D02*
X184634047Y-81113333D01*
X184729285Y-81065714D01*
X184872143Y-81065714D01*
X184967381Y-81113333D01*
X185015000Y-81208571D01*
X185015000Y-81732381D01*
X185015000Y-81208571D02*
X185062619Y-81113333D01*
X185157857Y-81065714D01*
X185300714Y-81065714D01*
X185395952Y-81113333D01*
X185443571Y-81208571D01*
X185443571Y-81732381D01*
X186634047Y-80684762D02*
X185776904Y-81970476D01*
X186824523Y-81065714D02*
X187205475Y-81065714D01*
X186967380Y-80732381D02*
X186967380Y-81589524D01*
X187014999Y-81684762D01*
X187110237Y-81732381D01*
X187205475Y-81732381D01*
X187919762Y-81684762D02*
X187824524Y-81732381D01*
X187634047Y-81732381D01*
X187538809Y-81684762D01*
X187491190Y-81589524D01*
X187491190Y-81208571D01*
X187538809Y-81113333D01*
X187634047Y-81065714D01*
X187824524Y-81065714D01*
X187919762Y-81113333D01*
X187967381Y-81208571D01*
X187967381Y-81303810D01*
X187491190Y-81399048D01*
X188395952Y-81732381D02*
X188395952Y-80732381D01*
X188395952Y-81113333D02*
X188491190Y-81065714D01*
X188681667Y-81065714D01*
X188776905Y-81113333D01*
X188824524Y-81160952D01*
X188872143Y-81256190D01*
X188872143Y-81541905D01*
X188824524Y-81637143D01*
X188776905Y-81684762D01*
X188681667Y-81732381D01*
X188491190Y-81732381D01*
X188395952Y-81684762D01*
X189443571Y-81732381D02*
X189348333Y-81684762D01*
X189300714Y-81589524D01*
X189300714Y-80732381D01*
X178562618Y-79827381D02*
X178562618Y-78827381D01*
X178943571Y-78827381D01*
X179038809Y-78875000D01*
X179086428Y-78922619D01*
X179134047Y-79017857D01*
X179134047Y-79160714D01*
X179086428Y-79255952D01*
X179038809Y-79303571D01*
X178943571Y-79351190D01*
X178562618Y-79351190D01*
X179562618Y-79827381D02*
X179562618Y-79160714D01*
X179562618Y-79351190D02*
X179610237Y-79255952D01*
X179657856Y-79208333D01*
X179753094Y-79160714D01*
X179848333Y-79160714D01*
X180324523Y-79827381D02*
X180229285Y-79779762D01*
X180181666Y-79732143D01*
X180134047Y-79636905D01*
X180134047Y-79351190D01*
X180181666Y-79255952D01*
X180229285Y-79208333D01*
X180324523Y-79160714D01*
X180467381Y-79160714D01*
X180562619Y-79208333D01*
X180610238Y-79255952D01*
X180657857Y-79351190D01*
X180657857Y-79636905D01*
X180610238Y-79732143D01*
X180562619Y-79779762D01*
X180467381Y-79827381D01*
X180324523Y-79827381D01*
X181086428Y-79160714D02*
X181086428Y-80017857D01*
X181038809Y-80113095D01*
X180943571Y-80160714D01*
X180895952Y-80160714D01*
X181086428Y-78827381D02*
X181038809Y-78875000D01*
X181086428Y-78922619D01*
X181134047Y-78875000D01*
X181086428Y-78827381D01*
X181086428Y-78922619D01*
X181943571Y-79779762D02*
X181848333Y-79827381D01*
X181657856Y-79827381D01*
X181562618Y-79779762D01*
X181514999Y-79684524D01*
X181514999Y-79303571D01*
X181562618Y-79208333D01*
X181657856Y-79160714D01*
X181848333Y-79160714D01*
X181943571Y-79208333D01*
X181991190Y-79303571D01*
X181991190Y-79398810D01*
X181514999Y-79494048D01*
X182848333Y-79779762D02*
X182753095Y-79827381D01*
X182562618Y-79827381D01*
X182467380Y-79779762D01*
X182419761Y-79732143D01*
X182372142Y-79636905D01*
X182372142Y-79351190D01*
X182419761Y-79255952D01*
X182467380Y-79208333D01*
X182562618Y-79160714D01*
X182753095Y-79160714D01*
X182848333Y-79208333D01*
X183134047Y-79160714D02*
X183514999Y-79160714D01*
X183276904Y-78827381D02*
X183276904Y-79684524D01*
X183324523Y-79779762D01*
X183419761Y-79827381D01*
X183514999Y-79827381D01*
X184943572Y-79303571D02*
X185086429Y-79351190D01*
X185134048Y-79398810D01*
X185181667Y-79494048D01*
X185181667Y-79636905D01*
X185134048Y-79732143D01*
X185086429Y-79779762D01*
X184991191Y-79827381D01*
X184610238Y-79827381D01*
X184610238Y-78827381D01*
X184943572Y-78827381D01*
X185038810Y-78875000D01*
X185086429Y-78922619D01*
X185134048Y-79017857D01*
X185134048Y-79113095D01*
X185086429Y-79208333D01*
X185038810Y-79255952D01*
X184943572Y-79303571D01*
X184610238Y-79303571D01*
X185753095Y-79827381D02*
X185657857Y-79779762D01*
X185610238Y-79732143D01*
X185562619Y-79636905D01*
X185562619Y-79351190D01*
X185610238Y-79255952D01*
X185657857Y-79208333D01*
X185753095Y-79160714D01*
X185895953Y-79160714D01*
X185991191Y-79208333D01*
X186038810Y-79255952D01*
X186086429Y-79351190D01*
X186086429Y-79636905D01*
X186038810Y-79732143D01*
X185991191Y-79779762D01*
X185895953Y-79827381D01*
X185753095Y-79827381D01*
X186943572Y-79827381D02*
X186943572Y-79303571D01*
X186895953Y-79208333D01*
X186800715Y-79160714D01*
X186610238Y-79160714D01*
X186515000Y-79208333D01*
X186943572Y-79779762D02*
X186848334Y-79827381D01*
X186610238Y-79827381D01*
X186515000Y-79779762D01*
X186467381Y-79684524D01*
X186467381Y-79589286D01*
X186515000Y-79494048D01*
X186610238Y-79446429D01*
X186848334Y-79446429D01*
X186943572Y-79398810D01*
X187419762Y-79827381D02*
X187419762Y-79160714D01*
X187419762Y-79351190D02*
X187467381Y-79255952D01*
X187515000Y-79208333D01*
X187610238Y-79160714D01*
X187705477Y-79160714D01*
X188467382Y-79827381D02*
X188467382Y-78827381D01*
X188467382Y-79779762D02*
X188372144Y-79827381D01*
X188181667Y-79827381D01*
X188086429Y-79779762D01*
X188038810Y-79732143D01*
X187991191Y-79636905D01*
X187991191Y-79351190D01*
X188038810Y-79255952D01*
X188086429Y-79208333D01*
X188181667Y-79160714D01*
X188372144Y-79160714D01*
X188467382Y-79208333D01*
D13*
X161568572Y-80545714D02*
X161497143Y-80617143D01*
X161282857Y-80688571D01*
X161140000Y-80688571D01*
X160925715Y-80617143D01*
X160782857Y-80474286D01*
X160711429Y-80331429D01*
X160640000Y-80045714D01*
X160640000Y-79831429D01*
X160711429Y-79545714D01*
X160782857Y-79402857D01*
X160925715Y-79260000D01*
X161140000Y-79188571D01*
X161282857Y-79188571D01*
X161497143Y-79260000D01*
X161568572Y-79331429D01*
X162425715Y-80688571D02*
X162282857Y-80617143D01*
X162211429Y-80545714D01*
X162140000Y-80402857D01*
X162140000Y-79974286D01*
X162211429Y-79831429D01*
X162282857Y-79760000D01*
X162425715Y-79688571D01*
X162640000Y-79688571D01*
X162782857Y-79760000D01*
X162854286Y-79831429D01*
X162925715Y-79974286D01*
X162925715Y-80402857D01*
X162854286Y-80545714D01*
X162782857Y-80617143D01*
X162640000Y-80688571D01*
X162425715Y-80688571D01*
X163425715Y-79688571D02*
X163782858Y-80688571D01*
X164140000Y-79688571D01*
X164925715Y-80688571D02*
X164782857Y-80617143D01*
X164711429Y-80545714D01*
X164640000Y-80402857D01*
X164640000Y-79974286D01*
X164711429Y-79831429D01*
X164782857Y-79760000D01*
X164925715Y-79688571D01*
X165140000Y-79688571D01*
X165282857Y-79760000D01*
X165354286Y-79831429D01*
X165425715Y-79974286D01*
X165425715Y-80402857D01*
X165354286Y-80545714D01*
X165282857Y-80617143D01*
X165140000Y-80688571D01*
X164925715Y-80688571D01*
X165925715Y-80688571D02*
X166711429Y-79688571D01*
X165925715Y-79688571D02*
X166711429Y-80688571D01*
X168354286Y-80617143D02*
X168568572Y-80688571D01*
X168925715Y-80688571D01*
X169068572Y-80617143D01*
X169140001Y-80545714D01*
X169211429Y-80402857D01*
X169211429Y-80260000D01*
X169140001Y-80117143D01*
X169068572Y-80045714D01*
X168925715Y-79974286D01*
X168640001Y-79902857D01*
X168497143Y-79831429D01*
X168425715Y-79760000D01*
X168354286Y-79617143D01*
X168354286Y-79474286D01*
X168425715Y-79331429D01*
X168497143Y-79260000D01*
X168640001Y-79188571D01*
X168997143Y-79188571D01*
X169211429Y-79260000D01*
X170068572Y-80688571D02*
X169925714Y-80617143D01*
X169854286Y-80545714D01*
X169782857Y-80402857D01*
X169782857Y-79974286D01*
X169854286Y-79831429D01*
X169925714Y-79760000D01*
X170068572Y-79688571D01*
X170282857Y-79688571D01*
X170425714Y-79760000D01*
X170497143Y-79831429D01*
X170568572Y-79974286D01*
X170568572Y-80402857D01*
X170497143Y-80545714D01*
X170425714Y-80617143D01*
X170282857Y-80688571D01*
X170068572Y-80688571D01*
X171854286Y-79688571D02*
X171854286Y-80688571D01*
X171211429Y-79688571D02*
X171211429Y-80474286D01*
X171282857Y-80617143D01*
X171425715Y-80688571D01*
X171640000Y-80688571D01*
X171782857Y-80617143D01*
X171854286Y-80545714D01*
X172568572Y-79688571D02*
X172568572Y-80688571D01*
X172568572Y-79831429D02*
X172640000Y-79760000D01*
X172782858Y-79688571D01*
X172997143Y-79688571D01*
X173140000Y-79760000D01*
X173211429Y-79902857D01*
X173211429Y-80688571D01*
X174568572Y-80688571D02*
X174568572Y-79188571D01*
X174568572Y-80617143D02*
X174425715Y-80688571D01*
X174140001Y-80688571D01*
X173997143Y-80617143D01*
X173925715Y-80545714D01*
X173854286Y-80402857D01*
X173854286Y-79974286D01*
X173925715Y-79831429D01*
X173997143Y-79760000D01*
X174140001Y-79688571D01*
X174425715Y-79688571D01*
X174568572Y-79760000D01*
D12*
X198572381Y-114910952D02*
X197572381Y-114910952D01*
X197572381Y-114529999D01*
X197620000Y-114434761D01*
X197667619Y-114387142D01*
X197762857Y-114339523D01*
X197905714Y-114339523D01*
X198000952Y-114387142D01*
X198048571Y-114434761D01*
X198096190Y-114529999D01*
X198096190Y-114910952D01*
X198572381Y-113910952D02*
X197572381Y-113910952D01*
X198572381Y-113434762D02*
X197572381Y-113434762D01*
X198572381Y-112863333D01*
X197572381Y-112863333D01*
X198572381Y-111101428D02*
X198572381Y-111672857D01*
X198572381Y-111387143D02*
X197572381Y-111387143D01*
X197715238Y-111482381D01*
X197810476Y-111577619D01*
X197858095Y-111672857D01*
D14*
X152440000Y-86450000D02*
X152440000Y-91270000D01*
X149820000Y-86450000D02*
X149820000Y-91270000D01*
X152440000Y-86450000D02*
X152126000Y-86450000D01*
X150134000Y-86450000D02*
X149820000Y-86450000D01*
X152440000Y-91270000D02*
X152126000Y-91270000D01*
X150134000Y-91270000D02*
X149820000Y-91270000D01*
X157520000Y-86450000D02*
X157520000Y-91270000D01*
X154900000Y-86450000D02*
X154900000Y-91270000D01*
X157520000Y-86450000D02*
X157206000Y-86450000D01*
X155214000Y-86450000D02*
X154900000Y-86450000D01*
X157520000Y-91270000D02*
X157206000Y-91270000D01*
X155214000Y-91270000D02*
X154900000Y-91270000D01*
X132040000Y-130845000D02*
X134660000Y-130845000D01*
X134660000Y-130845000D02*
X134660000Y-124425000D01*
X134660000Y-124425000D02*
X132040000Y-124425000D01*
X132040000Y-124425000D02*
X132040000Y-130845000D01*
X133350000Y-131735000D02*
X133350000Y-130845000D01*
X133350000Y-123535000D02*
X133350000Y-124425000D01*
X137125000Y-85050000D02*
X137125000Y-87670000D01*
X137125000Y-87670000D02*
X143545000Y-87670000D01*
X143545000Y-87670000D02*
X143545000Y-85050000D01*
X143545000Y-85050000D02*
X137125000Y-85050000D01*
X136235000Y-86360000D02*
X137125000Y-86360000D01*
X144435000Y-86360000D02*
X143545000Y-86360000D01*
X107680000Y-142025000D02*
X112180000Y-142025000D01*
X106430000Y-138025000D02*
X106430000Y-139525000D01*
X112180000Y-135525000D02*
X107680000Y-135525000D01*
X113430000Y-139525000D02*
X113430000Y-138025000D01*
X119110000Y-142025000D02*
X123610000Y-142025000D01*
X117860000Y-138025000D02*
X117860000Y-139525000D01*
X123610000Y-135525000D02*
X119110000Y-135525000D01*
X124860000Y-139525000D02*
X124860000Y-138025000D01*
X119340000Y-130845000D02*
X121960000Y-130845000D01*
X121960000Y-130845000D02*
X121960000Y-124425000D01*
X121960000Y-124425000D02*
X119340000Y-124425000D01*
X119340000Y-124425000D02*
X119340000Y-130845000D01*
X120650000Y-131735000D02*
X120650000Y-130845000D01*
X120650000Y-123535000D02*
X120650000Y-124425000D01*
X123150000Y-130845000D02*
X125770000Y-130845000D01*
X125770000Y-130845000D02*
X125770000Y-124425000D01*
X125770000Y-124425000D02*
X123150000Y-124425000D01*
X123150000Y-124425000D02*
X123150000Y-130845000D01*
X124460000Y-131735000D02*
X124460000Y-130845000D01*
X124460000Y-123535000D02*
X124460000Y-124425000D01*
X123790000Y-85050000D02*
X123790000Y-87670000D01*
X123790000Y-87670000D02*
X130210000Y-87670000D01*
X130210000Y-87670000D02*
X130210000Y-85050000D01*
X130210000Y-85050000D02*
X123790000Y-85050000D01*
X122900000Y-86360000D02*
X123790000Y-86360000D01*
X131100000Y-86360000D02*
X130210000Y-86360000D01*
X121250000Y-88860000D02*
X121250000Y-91480000D01*
X121250000Y-91480000D02*
X127670000Y-91480000D01*
X127670000Y-91480000D02*
X127670000Y-88860000D01*
X127670000Y-88860000D02*
X121250000Y-88860000D01*
X120360000Y-90170000D02*
X121250000Y-90170000D01*
X128560000Y-90170000D02*
X127670000Y-90170000D01*
X118710000Y-92670000D02*
X118710000Y-95290000D01*
X118710000Y-95290000D02*
X125130000Y-95290000D01*
X125130000Y-95290000D02*
X125130000Y-92670000D01*
X125130000Y-92670000D02*
X118710000Y-92670000D01*
X117820000Y-93980000D02*
X118710000Y-93980000D01*
X126020000Y-93980000D02*
X125130000Y-93980000D01*
X116170000Y-96480000D02*
X116170000Y-99100000D01*
X116170000Y-99100000D02*
X122590000Y-99100000D01*
X122590000Y-99100000D02*
X122590000Y-96480000D01*
X122590000Y-96480000D02*
X116170000Y-96480000D01*
X115280000Y-97790000D02*
X116170000Y-97790000D01*
X123480000Y-97790000D02*
X122590000Y-97790000D01*
X113630000Y-100290000D02*
X113630000Y-102910000D01*
X113630000Y-102910000D02*
X120050000Y-102910000D01*
X120050000Y-102910000D02*
X120050000Y-100290000D01*
X120050000Y-100290000D02*
X113630000Y-100290000D01*
X112740000Y-101600000D02*
X113630000Y-101600000D01*
X120940000Y-101600000D02*
X120050000Y-101600000D01*
X111090000Y-104100000D02*
X111090000Y-106720000D01*
X111090000Y-106720000D02*
X117510000Y-106720000D01*
X117510000Y-106720000D02*
X117510000Y-104100000D01*
X117510000Y-104100000D02*
X111090000Y-104100000D01*
X110200000Y-105410000D02*
X111090000Y-105410000D01*
X118400000Y-105410000D02*
X117510000Y-105410000D01*
X108550000Y-107910000D02*
X108550000Y-110530000D01*
X108550000Y-110530000D02*
X114970000Y-110530000D01*
X114970000Y-110530000D02*
X114970000Y-107910000D01*
X114970000Y-107910000D02*
X108550000Y-107910000D01*
X107660000Y-109220000D02*
X108550000Y-109220000D01*
X115860000Y-109220000D02*
X114970000Y-109220000D01*
X106010000Y-111720000D02*
X106010000Y-114340000D01*
X106010000Y-114340000D02*
X112430000Y-114340000D01*
X112430000Y-114340000D02*
X112430000Y-111720000D01*
X112430000Y-111720000D02*
X106010000Y-111720000D01*
X105120000Y-113030000D02*
X106010000Y-113030000D01*
X113320000Y-113030000D02*
X112430000Y-113030000D01*
X103470000Y-115530000D02*
X103470000Y-118150000D01*
X103470000Y-118150000D02*
X109890000Y-118150000D01*
X109890000Y-118150000D02*
X109890000Y-115530000D01*
X109890000Y-115530000D02*
X103470000Y-115530000D01*
X102580000Y-116840000D02*
X103470000Y-116840000D01*
X110780000Y-116840000D02*
X109890000Y-116840000D01*
X128230000Y-130845000D02*
X130850000Y-130845000D01*
X130850000Y-130845000D02*
X130850000Y-124425000D01*
X130850000Y-124425000D02*
X128230000Y-124425000D01*
X128230000Y-124425000D02*
X128230000Y-130845000D01*
X129540000Y-131735000D02*
X129540000Y-130845000D01*
X129540000Y-123535000D02*
X129540000Y-124425000D01*
X134585000Y-88860000D02*
X134585000Y-91480000D01*
X134585000Y-91480000D02*
X141005000Y-91480000D01*
X141005000Y-91480000D02*
X141005000Y-88860000D01*
X141005000Y-88860000D02*
X134585000Y-88860000D01*
X133695000Y-90170000D02*
X134585000Y-90170000D01*
X141895000Y-90170000D02*
X141005000Y-90170000D01*
X132045000Y-92670000D02*
X132045000Y-95290000D01*
X132045000Y-95290000D02*
X138465000Y-95290000D01*
X138465000Y-95290000D02*
X138465000Y-92670000D01*
X138465000Y-92670000D02*
X132045000Y-92670000D01*
X131155000Y-93980000D02*
X132045000Y-93980000D01*
X139355000Y-93980000D02*
X138465000Y-93980000D01*
X129505000Y-96480000D02*
X129505000Y-99100000D01*
X129505000Y-99100000D02*
X135925000Y-99100000D01*
X135925000Y-99100000D02*
X135925000Y-96480000D01*
X135925000Y-96480000D02*
X129505000Y-96480000D01*
X128615000Y-97790000D02*
X129505000Y-97790000D01*
X136815000Y-97790000D02*
X135925000Y-97790000D01*
X126965000Y-100290000D02*
X126965000Y-102910000D01*
X126965000Y-102910000D02*
X133385000Y-102910000D01*
X133385000Y-102910000D02*
X133385000Y-100290000D01*
X133385000Y-100290000D02*
X126965000Y-100290000D01*
X126075000Y-101600000D02*
X126965000Y-101600000D01*
X134275000Y-101600000D02*
X133385000Y-101600000D01*
X124425000Y-104100000D02*
X124425000Y-106720000D01*
X124425000Y-106720000D02*
X130845000Y-106720000D01*
X130845000Y-106720000D02*
X130845000Y-104100000D01*
X130845000Y-104100000D02*
X124425000Y-104100000D01*
X123535000Y-105410000D02*
X124425000Y-105410000D01*
X131735000Y-105410000D02*
X130845000Y-105410000D01*
X121885000Y-107910000D02*
X121885000Y-110530000D01*
X121885000Y-110530000D02*
X128305000Y-110530000D01*
X128305000Y-110530000D02*
X128305000Y-107910000D01*
X128305000Y-107910000D02*
X121885000Y-107910000D01*
X120995000Y-109220000D02*
X121885000Y-109220000D01*
X129195000Y-109220000D02*
X128305000Y-109220000D01*
X119345000Y-111720000D02*
X119345000Y-114340000D01*
X119345000Y-114340000D02*
X125765000Y-114340000D01*
X125765000Y-114340000D02*
X125765000Y-111720000D01*
X125765000Y-111720000D02*
X119345000Y-111720000D01*
X118455000Y-113030000D02*
X119345000Y-113030000D01*
X126655000Y-113030000D02*
X125765000Y-113030000D01*
X165060000Y-130845000D02*
X167680000Y-130845000D01*
X167680000Y-130845000D02*
X167680000Y-124425000D01*
X167680000Y-124425000D02*
X165060000Y-124425000D01*
X165060000Y-124425000D02*
X165060000Y-130845000D01*
X166370000Y-131735000D02*
X166370000Y-130845000D01*
X166370000Y-123535000D02*
X166370000Y-124425000D01*
X168870000Y-130845000D02*
X171490000Y-130845000D01*
X171490000Y-130845000D02*
X171490000Y-124425000D01*
X171490000Y-124425000D02*
X168870000Y-124425000D01*
X168870000Y-124425000D02*
X168870000Y-130845000D01*
X170180000Y-131735000D02*
X170180000Y-130845000D01*
X170180000Y-123535000D02*
X170180000Y-124425000D01*
X173950000Y-130845000D02*
X176570000Y-130845000D01*
X176570000Y-130845000D02*
X176570000Y-124425000D01*
X176570000Y-124425000D02*
X173950000Y-124425000D01*
X173950000Y-124425000D02*
X173950000Y-130845000D01*
X175260000Y-131735000D02*
X175260000Y-130845000D01*
X175260000Y-123535000D02*
X175260000Y-124425000D01*
X177760000Y-130845000D02*
X180380000Y-130845000D01*
X180380000Y-130845000D02*
X180380000Y-124425000D01*
X180380000Y-124425000D02*
X177760000Y-124425000D01*
X177760000Y-124425000D02*
X177760000Y-130845000D01*
X179070000Y-131735000D02*
X179070000Y-130845000D01*
X179070000Y-123535000D02*
X179070000Y-124425000D01*
X130540000Y-142025000D02*
X135040000Y-142025000D01*
X129290000Y-138025000D02*
X129290000Y-139525000D01*
X135040000Y-135525000D02*
X130540000Y-135525000D01*
X136290000Y-139525000D02*
X136290000Y-138025000D01*
X141970000Y-142025000D02*
X146470000Y-142025000D01*
X140720000Y-138025000D02*
X140720000Y-139525000D01*
X146470000Y-135525000D02*
X141970000Y-135525000D01*
X147720000Y-139525000D02*
X147720000Y-138025000D01*
X153400000Y-142025000D02*
X157900000Y-142025000D01*
X152150000Y-138025000D02*
X152150000Y-139525000D01*
X157900000Y-135525000D02*
X153400000Y-135525000D01*
X159150000Y-139525000D02*
X159150000Y-138025000D01*
X164830000Y-142025000D02*
X169330000Y-142025000D01*
X163580000Y-138025000D02*
X163580000Y-139525000D01*
X169330000Y-135525000D02*
X164830000Y-135525000D01*
X170580000Y-139525000D02*
X170580000Y-138025000D01*
X176260000Y-142025000D02*
X180760000Y-142025000D01*
X175010000Y-138025000D02*
X175010000Y-139525000D01*
X180760000Y-135525000D02*
X176260000Y-135525000D01*
X182010000Y-139525000D02*
X182010000Y-138025000D01*
X187690000Y-142025000D02*
X192190000Y-142025000D01*
X186440000Y-138025000D02*
X186440000Y-139525000D01*
X192190000Y-135525000D02*
X187690000Y-135525000D01*
X193440000Y-139525000D02*
X193440000Y-138025000D01*
X128330000Y-81340000D02*
X128330000Y-78680000D01*
X105410000Y-81340000D02*
X128330000Y-81340000D01*
X105410000Y-78680000D02*
X128330000Y-78680000D01*
X105410000Y-81340000D02*
X105410000Y-78680000D01*
X104140000Y-81340000D02*
X102810000Y-81340000D01*
X102810000Y-81340000D02*
X102810000Y-80010000D01*
X100270000Y-144085000D02*
X100270000Y-146745000D01*
X196850000Y-144085000D02*
X100270000Y-144085000D01*
X196850000Y-146745000D02*
X100270000Y-146745000D01*
X196850000Y-144085000D02*
X196850000Y-146745000D01*
X198120000Y-144085000D02*
X199450000Y-144085000D01*
X199450000Y-144085000D02*
X199450000Y-145415000D01*
X156270000Y-81340000D02*
X156270000Y-78680000D01*
X133350000Y-81340000D02*
X156270000Y-81340000D01*
X133350000Y-78680000D02*
X156270000Y-78680000D01*
X133350000Y-81340000D02*
X133350000Y-78680000D01*
X132080000Y-81340000D02*
X130750000Y-81340000D01*
X130750000Y-81340000D02*
X130750000Y-80010000D01*
D12*
X195199000Y-94107000D02*
X195199000Y-92075000D01*
X195199000Y-92075000D02*
X198755000Y-92075000D01*
X198755000Y-92075000D02*
X198755000Y-99695000D01*
X198755000Y-99695000D02*
X195199000Y-99695000D01*
X195199000Y-99695000D02*
X195199000Y-97663000D01*
X199771000Y-90805000D02*
X199771000Y-89789000D01*
X199771000Y-101981000D02*
X199771000Y-100965000D01*
X201803000Y-93345000D02*
X200279000Y-93345000D01*
X200279000Y-98425000D02*
X201803000Y-98425000D01*
X201041000Y-93345000D02*
X201041000Y-98425000D01*
X199771000Y-90805000D02*
X200025000Y-90805000D01*
X200025000Y-90805000D02*
X200279000Y-90805000D01*
X200279000Y-90805000D02*
X200279000Y-100965000D01*
X200279000Y-100965000D02*
X199771000Y-100965000D01*
X201803000Y-93345000D02*
X201803000Y-98425000D01*
X187579000Y-89789000D02*
X199771000Y-89789000D01*
X199771000Y-101981000D02*
X187579000Y-101981000D01*
X187579000Y-101981000D02*
X187579000Y-89789000D01*
D14*
X179765000Y-105985000D02*
X177105000Y-105985000D01*
X179765000Y-108585000D02*
X179765000Y-105985000D01*
X177105000Y-108585000D02*
X177105000Y-105985000D01*
X179765000Y-108585000D02*
X177105000Y-108585000D01*
X179765000Y-109855000D02*
X179765000Y-111185000D01*
X179765000Y-111185000D02*
X178435000Y-111185000D01*
X177200000Y-116245000D02*
X177200000Y-113625000D01*
X177200000Y-113625000D02*
X170780000Y-113625000D01*
X170780000Y-113625000D02*
X170780000Y-116245000D01*
X170780000Y-116245000D02*
X177200000Y-116245000D01*
X178090000Y-114935000D02*
X177200000Y-114935000D01*
X169890000Y-114935000D02*
X170780000Y-114935000D01*
D12*
X156083000Y-114427000D02*
X156718000Y-114427000D01*
X156083000Y-114427000D02*
X155448000Y-114427000D01*
X143510000Y-114427000D02*
X144145000Y-114427000D01*
X143510000Y-114427000D02*
X142875000Y-114427000D01*
X143510000Y-114935000D02*
X143510000Y-115062000D01*
X143510000Y-113792000D02*
X143510000Y-114935000D01*
X161417000Y-117475000D02*
G75*
G03X161417000Y-117475000I-11557000J0D01*
G01*
X164973000Y-117475000D02*
G75*
G03X164973000Y-117475000I-15113000J0D01*
G01*
D14*
X168330000Y-106785000D02*
X168330000Y-110385000D01*
X169057205Y-106260816D02*
G75*
G03X168330000Y-106785000I1122795J-2324184D01*
G01*
X171278807Y-106228600D02*
G75*
G02X172780000Y-108585000I-1098807J-2356400D01*
G01*
X171278807Y-110941400D02*
G75*
G03X172780000Y-108585000I-1098807J2356400D01*
G01*
X169057205Y-110909184D02*
G75*
G02X168330000Y-110385000I1122795J2324184D01*
G01*
D12*
X151487143Y-89066666D02*
X151534762Y-89114285D01*
X151582381Y-89257142D01*
X151582381Y-89352380D01*
X151534762Y-89495238D01*
X151439524Y-89590476D01*
X151344286Y-89638095D01*
X151153810Y-89685714D01*
X151010952Y-89685714D01*
X150820476Y-89638095D01*
X150725238Y-89590476D01*
X150630000Y-89495238D01*
X150582381Y-89352380D01*
X150582381Y-89257142D01*
X150630000Y-89114285D01*
X150677619Y-89066666D01*
X151582381Y-88114285D02*
X151582381Y-88685714D01*
X151582381Y-88400000D02*
X150582381Y-88400000D01*
X150725238Y-88495238D01*
X150820476Y-88590476D01*
X150868095Y-88685714D01*
X154122381Y-89971428D02*
X154122381Y-90542857D01*
X154122381Y-90257143D02*
X153122381Y-90257143D01*
X153265238Y-90352381D01*
X153360476Y-90447619D01*
X153408095Y-90542857D01*
X153122381Y-89352381D02*
X153122381Y-89257142D01*
X153170000Y-89161904D01*
X153217619Y-89114285D01*
X153312857Y-89066666D01*
X153503333Y-89019047D01*
X153741429Y-89019047D01*
X153931905Y-89066666D01*
X154027143Y-89114285D01*
X154074762Y-89161904D01*
X154122381Y-89257142D01*
X154122381Y-89352381D01*
X154074762Y-89447619D01*
X154027143Y-89495238D01*
X153931905Y-89542857D01*
X153741429Y-89590476D01*
X153503333Y-89590476D01*
X153312857Y-89542857D01*
X153217619Y-89495238D01*
X153170000Y-89447619D01*
X153122381Y-89352381D01*
X153455714Y-88590476D02*
X154122381Y-88590476D01*
X153550952Y-88590476D02*
X153503333Y-88542857D01*
X153455714Y-88447619D01*
X153455714Y-88304761D01*
X153503333Y-88209523D01*
X153598571Y-88161904D01*
X154122381Y-88161904D01*
X153598571Y-87352380D02*
X153598571Y-87685714D01*
X154122381Y-87685714D02*
X153122381Y-87685714D01*
X153122381Y-87209523D01*
X156482144Y-89066666D02*
X156529763Y-89114285D01*
X156577382Y-89257142D01*
X156577382Y-89352380D01*
X156529763Y-89495238D01*
X156434525Y-89590476D01*
X156339287Y-89638095D01*
X156148811Y-89685714D01*
X156005953Y-89685714D01*
X155815477Y-89638095D01*
X155720239Y-89590476D01*
X155625001Y-89495238D01*
X155577382Y-89352380D01*
X155577382Y-89257142D01*
X155625001Y-89114285D01*
X155672620Y-89066666D01*
X155672620Y-88685714D02*
X155625001Y-88638095D01*
X155577382Y-88542857D01*
X155577382Y-88304761D01*
X155625001Y-88209523D01*
X155672620Y-88161904D01*
X155767858Y-88114285D01*
X155863096Y-88114285D01*
X156005953Y-88161904D01*
X156577382Y-88733333D01*
X156577382Y-88114285D01*
X159202381Y-90447619D02*
X159202381Y-91019048D01*
X159202381Y-90733334D02*
X158202381Y-90733334D01*
X158345238Y-90828572D01*
X158440476Y-90923810D01*
X158488095Y-91019048D01*
X158202381Y-89828572D02*
X158202381Y-89733333D01*
X158250000Y-89638095D01*
X158297619Y-89590476D01*
X158392857Y-89542857D01*
X158583333Y-89495238D01*
X158821429Y-89495238D01*
X159011905Y-89542857D01*
X159107143Y-89590476D01*
X159154762Y-89638095D01*
X159202381Y-89733333D01*
X159202381Y-89828572D01*
X159154762Y-89923810D01*
X159107143Y-89971429D01*
X159011905Y-90019048D01*
X158821429Y-90066667D01*
X158583333Y-90066667D01*
X158392857Y-90019048D01*
X158297619Y-89971429D01*
X158250000Y-89923810D01*
X158202381Y-89828572D01*
X158202381Y-88876191D02*
X158202381Y-88780952D01*
X158250000Y-88685714D01*
X158297619Y-88638095D01*
X158392857Y-88590476D01*
X158583333Y-88542857D01*
X158821429Y-88542857D01*
X159011905Y-88590476D01*
X159107143Y-88638095D01*
X159154762Y-88685714D01*
X159202381Y-88780952D01*
X159202381Y-88876191D01*
X159154762Y-88971429D01*
X159107143Y-89019048D01*
X159011905Y-89066667D01*
X158821429Y-89114286D01*
X158583333Y-89114286D01*
X158392857Y-89066667D01*
X158297619Y-89019048D01*
X158250000Y-88971429D01*
X158202381Y-88876191D01*
X158535714Y-88114286D02*
X159202381Y-88114286D01*
X158630952Y-88114286D02*
X158583333Y-88066667D01*
X158535714Y-87971429D01*
X158535714Y-87828571D01*
X158583333Y-87733333D01*
X158678571Y-87685714D01*
X159202381Y-87685714D01*
X158678571Y-86876190D02*
X158678571Y-87209524D01*
X159202381Y-87209524D02*
X158202381Y-87209524D01*
X158202381Y-86733333D01*
X132707143Y-126182381D02*
X132373809Y-125706190D01*
X132135714Y-126182381D02*
X132135714Y-125182381D01*
X132516667Y-125182381D01*
X132611905Y-125230000D01*
X132659524Y-125277619D01*
X132707143Y-125372857D01*
X132707143Y-125515714D01*
X132659524Y-125610952D01*
X132611905Y-125658571D01*
X132516667Y-125706190D01*
X132135714Y-125706190D01*
X133088095Y-125277619D02*
X133135714Y-125230000D01*
X133230952Y-125182381D01*
X133469048Y-125182381D01*
X133564286Y-125230000D01*
X133611905Y-125277619D01*
X133659524Y-125372857D01*
X133659524Y-125468095D01*
X133611905Y-125610952D01*
X133040476Y-126182381D01*
X133659524Y-126182381D01*
X134611905Y-126182381D02*
X134040476Y-126182381D01*
X134326190Y-126182381D02*
X134326190Y-125182381D01*
X134230952Y-125325238D01*
X134135714Y-125420476D01*
X134040476Y-125468095D01*
X133802381Y-129024047D02*
X133802381Y-129595476D01*
X133802381Y-129309762D02*
X132802381Y-129309762D01*
X132945238Y-129405000D01*
X133040476Y-129500238D01*
X133088095Y-129595476D01*
X133802381Y-128595476D02*
X132802381Y-128595476D01*
X133421429Y-128500238D02*
X133802381Y-128214523D01*
X133135714Y-128214523D02*
X133516667Y-128595476D01*
X138882381Y-87002857D02*
X138406190Y-87336191D01*
X138882381Y-87574286D02*
X137882381Y-87574286D01*
X137882381Y-87193333D01*
X137930000Y-87098095D01*
X137977619Y-87050476D01*
X138072857Y-87002857D01*
X138215714Y-87002857D01*
X138310952Y-87050476D01*
X138358571Y-87098095D01*
X138406190Y-87193333D01*
X138406190Y-87574286D01*
X138882381Y-86050476D02*
X138882381Y-86621905D01*
X138882381Y-86336191D02*
X137882381Y-86336191D01*
X138025238Y-86431429D01*
X138120476Y-86526667D01*
X138168095Y-86621905D01*
X137882381Y-85431429D02*
X137882381Y-85336190D01*
X137930000Y-85240952D01*
X137977619Y-85193333D01*
X138072857Y-85145714D01*
X138263333Y-85098095D01*
X138501429Y-85098095D01*
X138691905Y-85145714D01*
X138787143Y-85193333D01*
X138834762Y-85240952D01*
X138882381Y-85336190D01*
X138882381Y-85431429D01*
X138834762Y-85526667D01*
X138787143Y-85574286D01*
X138691905Y-85621905D01*
X138501429Y-85669524D01*
X138263333Y-85669524D01*
X138072857Y-85621905D01*
X137977619Y-85574286D01*
X137930000Y-85526667D01*
X137882381Y-85431429D01*
X140390714Y-85812381D02*
X141057381Y-85812381D01*
X140628809Y-86812381D01*
X141438333Y-86812381D02*
X141438333Y-85812381D01*
X141533571Y-86431429D02*
X141819286Y-86812381D01*
X141819286Y-86145714D02*
X141438333Y-86526667D01*
X142724048Y-85812381D02*
X142247857Y-85812381D01*
X142200238Y-86288571D01*
X142247857Y-86240952D01*
X142343095Y-86193333D01*
X142581191Y-86193333D01*
X142676429Y-86240952D01*
X142724048Y-86288571D01*
X142771667Y-86383810D01*
X142771667Y-86621905D01*
X142724048Y-86717143D01*
X142676429Y-86764762D01*
X142581191Y-86812381D01*
X142343095Y-86812381D01*
X142247857Y-86764762D01*
X142200238Y-86717143D01*
X108521667Y-139469762D02*
X108664524Y-139517381D01*
X108902620Y-139517381D01*
X108997858Y-139469762D01*
X109045477Y-139422143D01*
X109093096Y-139326905D01*
X109093096Y-139231667D01*
X109045477Y-139136429D01*
X108997858Y-139088810D01*
X108902620Y-139041190D01*
X108712143Y-138993571D01*
X108616905Y-138945952D01*
X108569286Y-138898333D01*
X108521667Y-138803095D01*
X108521667Y-138707857D01*
X108569286Y-138612619D01*
X108616905Y-138565000D01*
X108712143Y-138517381D01*
X108950239Y-138517381D01*
X109093096Y-138565000D01*
X109426429Y-138517381D02*
X109664524Y-139517381D01*
X109855001Y-138803095D01*
X110045477Y-139517381D01*
X110283572Y-138517381D01*
X111188334Y-139517381D02*
X110616905Y-139517381D01*
X110902619Y-139517381D02*
X110902619Y-138517381D01*
X110807381Y-138660238D01*
X110712143Y-138755476D01*
X110616905Y-138803095D01*
X119951667Y-139469762D02*
X120094524Y-139517381D01*
X120332620Y-139517381D01*
X120427858Y-139469762D01*
X120475477Y-139422143D01*
X120523096Y-139326905D01*
X120523096Y-139231667D01*
X120475477Y-139136429D01*
X120427858Y-139088810D01*
X120332620Y-139041190D01*
X120142143Y-138993571D01*
X120046905Y-138945952D01*
X119999286Y-138898333D01*
X119951667Y-138803095D01*
X119951667Y-138707857D01*
X119999286Y-138612619D01*
X120046905Y-138565000D01*
X120142143Y-138517381D01*
X120380239Y-138517381D01*
X120523096Y-138565000D01*
X120856429Y-138517381D02*
X121094524Y-139517381D01*
X121285001Y-138803095D01*
X121475477Y-139517381D01*
X121713572Y-138517381D01*
X122046905Y-138612619D02*
X122094524Y-138565000D01*
X122189762Y-138517381D01*
X122427858Y-138517381D01*
X122523096Y-138565000D01*
X122570715Y-138612619D01*
X122618334Y-138707857D01*
X122618334Y-138803095D01*
X122570715Y-138945952D01*
X121999286Y-139517381D01*
X122618334Y-139517381D01*
X120007143Y-126182381D02*
X119673809Y-125706190D01*
X119435714Y-126182381D02*
X119435714Y-125182381D01*
X119816667Y-125182381D01*
X119911905Y-125230000D01*
X119959524Y-125277619D01*
X120007143Y-125372857D01*
X120007143Y-125515714D01*
X119959524Y-125610952D01*
X119911905Y-125658571D01*
X119816667Y-125706190D01*
X119435714Y-125706190D01*
X120959524Y-126182381D02*
X120388095Y-126182381D01*
X120673809Y-126182381D02*
X120673809Y-125182381D01*
X120578571Y-125325238D01*
X120483333Y-125420476D01*
X120388095Y-125468095D01*
X121530952Y-125610952D02*
X121435714Y-125563333D01*
X121388095Y-125515714D01*
X121340476Y-125420476D01*
X121340476Y-125372857D01*
X121388095Y-125277619D01*
X121435714Y-125230000D01*
X121530952Y-125182381D01*
X121721429Y-125182381D01*
X121816667Y-125230000D01*
X121864286Y-125277619D01*
X121911905Y-125372857D01*
X121911905Y-125420476D01*
X121864286Y-125515714D01*
X121816667Y-125563333D01*
X121721429Y-125610952D01*
X121530952Y-125610952D01*
X121435714Y-125658571D01*
X121388095Y-125706190D01*
X121340476Y-125801429D01*
X121340476Y-125991905D01*
X121388095Y-126087143D01*
X121435714Y-126134762D01*
X121530952Y-126182381D01*
X121721429Y-126182381D01*
X121816667Y-126134762D01*
X121864286Y-126087143D01*
X121911905Y-125991905D01*
X121911905Y-125801429D01*
X121864286Y-125706190D01*
X121816667Y-125658571D01*
X121721429Y-125610952D01*
X121102381Y-129659047D02*
X121102381Y-130230476D01*
X121102381Y-129944762D02*
X120102381Y-129944762D01*
X120245238Y-130040000D01*
X120340476Y-130135238D01*
X120388095Y-130230476D01*
X121102381Y-129230476D02*
X120102381Y-129230476D01*
X120721429Y-129135238D02*
X121102381Y-128849523D01*
X120435714Y-128849523D02*
X120816667Y-129230476D01*
X123817143Y-126182381D02*
X123483809Y-125706190D01*
X123245714Y-126182381D02*
X123245714Y-125182381D01*
X123626667Y-125182381D01*
X123721905Y-125230000D01*
X123769524Y-125277619D01*
X123817143Y-125372857D01*
X123817143Y-125515714D01*
X123769524Y-125610952D01*
X123721905Y-125658571D01*
X123626667Y-125706190D01*
X123245714Y-125706190D01*
X124769524Y-126182381D02*
X124198095Y-126182381D01*
X124483809Y-126182381D02*
X124483809Y-125182381D01*
X124388571Y-125325238D01*
X124293333Y-125420476D01*
X124198095Y-125468095D01*
X125245714Y-126182381D02*
X125436190Y-126182381D01*
X125531429Y-126134762D01*
X125579048Y-126087143D01*
X125674286Y-125944286D01*
X125721905Y-125753810D01*
X125721905Y-125372857D01*
X125674286Y-125277619D01*
X125626667Y-125230000D01*
X125531429Y-125182381D01*
X125340952Y-125182381D01*
X125245714Y-125230000D01*
X125198095Y-125277619D01*
X125150476Y-125372857D01*
X125150476Y-125610952D01*
X125198095Y-125706190D01*
X125245714Y-125753810D01*
X125340952Y-125801429D01*
X125531429Y-125801429D01*
X125626667Y-125753810D01*
X125674286Y-125706190D01*
X125721905Y-125610952D01*
X124912381Y-129659047D02*
X124912381Y-130230476D01*
X124912381Y-129944762D02*
X123912381Y-129944762D01*
X124055238Y-130040000D01*
X124150476Y-130135238D01*
X124198095Y-130230476D01*
X124912381Y-129230476D02*
X123912381Y-129230476D01*
X124531429Y-129135238D02*
X124912381Y-128849523D01*
X124245714Y-128849523D02*
X124626667Y-129230476D01*
X125547381Y-86526666D02*
X125071190Y-86860000D01*
X125547381Y-87098095D02*
X124547381Y-87098095D01*
X124547381Y-86717142D01*
X124595000Y-86621904D01*
X124642619Y-86574285D01*
X124737857Y-86526666D01*
X124880714Y-86526666D01*
X124975952Y-86574285D01*
X125023571Y-86621904D01*
X125071190Y-86717142D01*
X125071190Y-87098095D01*
X125547381Y-85574285D02*
X125547381Y-86145714D01*
X125547381Y-85860000D02*
X124547381Y-85860000D01*
X124690238Y-85955238D01*
X124785476Y-86050476D01*
X124833095Y-86145714D01*
X127674762Y-86812381D02*
X127103333Y-86812381D01*
X127389047Y-86812381D02*
X127389047Y-85812381D01*
X127293809Y-85955238D01*
X127198571Y-86050476D01*
X127103333Y-86098095D01*
X128579524Y-85812381D02*
X128103333Y-85812381D01*
X128055714Y-86288571D01*
X128103333Y-86240952D01*
X128198571Y-86193333D01*
X128436667Y-86193333D01*
X128531905Y-86240952D01*
X128579524Y-86288571D01*
X128627143Y-86383810D01*
X128627143Y-86621905D01*
X128579524Y-86717143D01*
X128531905Y-86764762D01*
X128436667Y-86812381D01*
X128198571Y-86812381D01*
X128103333Y-86764762D01*
X128055714Y-86717143D01*
X129055714Y-86812381D02*
X129055714Y-85812381D01*
X129150952Y-86431429D02*
X129436667Y-86812381D01*
X129436667Y-86145714D02*
X129055714Y-86526667D01*
X123007381Y-90336666D02*
X122531190Y-90670000D01*
X123007381Y-90908095D02*
X122007381Y-90908095D01*
X122007381Y-90527142D01*
X122055000Y-90431904D01*
X122102619Y-90384285D01*
X122197857Y-90336666D01*
X122340714Y-90336666D01*
X122435952Y-90384285D01*
X122483571Y-90431904D01*
X122531190Y-90527142D01*
X122531190Y-90908095D01*
X122102619Y-89955714D02*
X122055000Y-89908095D01*
X122007381Y-89812857D01*
X122007381Y-89574761D01*
X122055000Y-89479523D01*
X122102619Y-89431904D01*
X122197857Y-89384285D01*
X122293095Y-89384285D01*
X122435952Y-89431904D01*
X123007381Y-90003333D01*
X123007381Y-89384285D01*
X125134762Y-90622381D02*
X124563333Y-90622381D01*
X124849047Y-90622381D02*
X124849047Y-89622381D01*
X124753809Y-89765238D01*
X124658571Y-89860476D01*
X124563333Y-89908095D01*
X126039524Y-89622381D02*
X125563333Y-89622381D01*
X125515714Y-90098571D01*
X125563333Y-90050952D01*
X125658571Y-90003333D01*
X125896667Y-90003333D01*
X125991905Y-90050952D01*
X126039524Y-90098571D01*
X126087143Y-90193810D01*
X126087143Y-90431905D01*
X126039524Y-90527143D01*
X125991905Y-90574762D01*
X125896667Y-90622381D01*
X125658571Y-90622381D01*
X125563333Y-90574762D01*
X125515714Y-90527143D01*
X126515714Y-90622381D02*
X126515714Y-89622381D01*
X126610952Y-90241429D02*
X126896667Y-90622381D01*
X126896667Y-89955714D02*
X126515714Y-90336667D01*
X120467381Y-94146666D02*
X119991190Y-94480000D01*
X120467381Y-94718095D02*
X119467381Y-94718095D01*
X119467381Y-94337142D01*
X119515000Y-94241904D01*
X119562619Y-94194285D01*
X119657857Y-94146666D01*
X119800714Y-94146666D01*
X119895952Y-94194285D01*
X119943571Y-94241904D01*
X119991190Y-94337142D01*
X119991190Y-94718095D01*
X119467381Y-93813333D02*
X119467381Y-93194285D01*
X119848333Y-93527619D01*
X119848333Y-93384761D01*
X119895952Y-93289523D01*
X119943571Y-93241904D01*
X120038810Y-93194285D01*
X120276905Y-93194285D01*
X120372143Y-93241904D01*
X120419762Y-93289523D01*
X120467381Y-93384761D01*
X120467381Y-93670476D01*
X120419762Y-93765714D01*
X120372143Y-93813333D01*
X122594762Y-94432381D02*
X122023333Y-94432381D01*
X122309047Y-94432381D02*
X122309047Y-93432381D01*
X122213809Y-93575238D01*
X122118571Y-93670476D01*
X122023333Y-93718095D01*
X123499524Y-93432381D02*
X123023333Y-93432381D01*
X122975714Y-93908571D01*
X123023333Y-93860952D01*
X123118571Y-93813333D01*
X123356667Y-93813333D01*
X123451905Y-93860952D01*
X123499524Y-93908571D01*
X123547143Y-94003810D01*
X123547143Y-94241905D01*
X123499524Y-94337143D01*
X123451905Y-94384762D01*
X123356667Y-94432381D01*
X123118571Y-94432381D01*
X123023333Y-94384762D01*
X122975714Y-94337143D01*
X123975714Y-94432381D02*
X123975714Y-93432381D01*
X124070952Y-94051429D02*
X124356667Y-94432381D01*
X124356667Y-93765714D02*
X123975714Y-94146667D01*
X117927381Y-97956666D02*
X117451190Y-98290000D01*
X117927381Y-98528095D02*
X116927381Y-98528095D01*
X116927381Y-98147142D01*
X116975000Y-98051904D01*
X117022619Y-98004285D01*
X117117857Y-97956666D01*
X117260714Y-97956666D01*
X117355952Y-98004285D01*
X117403571Y-98051904D01*
X117451190Y-98147142D01*
X117451190Y-98528095D01*
X117260714Y-97099523D02*
X117927381Y-97099523D01*
X116879762Y-97337619D02*
X117594048Y-97575714D01*
X117594048Y-96956666D01*
X120054762Y-98242381D02*
X119483333Y-98242381D01*
X119769047Y-98242381D02*
X119769047Y-97242381D01*
X119673809Y-97385238D01*
X119578571Y-97480476D01*
X119483333Y-97528095D01*
X120959524Y-97242381D02*
X120483333Y-97242381D01*
X120435714Y-97718571D01*
X120483333Y-97670952D01*
X120578571Y-97623333D01*
X120816667Y-97623333D01*
X120911905Y-97670952D01*
X120959524Y-97718571D01*
X121007143Y-97813810D01*
X121007143Y-98051905D01*
X120959524Y-98147143D01*
X120911905Y-98194762D01*
X120816667Y-98242381D01*
X120578571Y-98242381D01*
X120483333Y-98194762D01*
X120435714Y-98147143D01*
X121435714Y-98242381D02*
X121435714Y-97242381D01*
X121530952Y-97861429D02*
X121816667Y-98242381D01*
X121816667Y-97575714D02*
X121435714Y-97956667D01*
X115387381Y-101766666D02*
X114911190Y-102100000D01*
X115387381Y-102338095D02*
X114387381Y-102338095D01*
X114387381Y-101957142D01*
X114435000Y-101861904D01*
X114482619Y-101814285D01*
X114577857Y-101766666D01*
X114720714Y-101766666D01*
X114815952Y-101814285D01*
X114863571Y-101861904D01*
X114911190Y-101957142D01*
X114911190Y-102338095D01*
X114387381Y-100861904D02*
X114387381Y-101338095D01*
X114863571Y-101385714D01*
X114815952Y-101338095D01*
X114768333Y-101242857D01*
X114768333Y-101004761D01*
X114815952Y-100909523D01*
X114863571Y-100861904D01*
X114958810Y-100814285D01*
X115196905Y-100814285D01*
X115292143Y-100861904D01*
X115339762Y-100909523D01*
X115387381Y-101004761D01*
X115387381Y-101242857D01*
X115339762Y-101338095D01*
X115292143Y-101385714D01*
X117514762Y-102052381D02*
X116943333Y-102052381D01*
X117229047Y-102052381D02*
X117229047Y-101052381D01*
X117133809Y-101195238D01*
X117038571Y-101290476D01*
X116943333Y-101338095D01*
X118419524Y-101052381D02*
X117943333Y-101052381D01*
X117895714Y-101528571D01*
X117943333Y-101480952D01*
X118038571Y-101433333D01*
X118276667Y-101433333D01*
X118371905Y-101480952D01*
X118419524Y-101528571D01*
X118467143Y-101623810D01*
X118467143Y-101861905D01*
X118419524Y-101957143D01*
X118371905Y-102004762D01*
X118276667Y-102052381D01*
X118038571Y-102052381D01*
X117943333Y-102004762D01*
X117895714Y-101957143D01*
X118895714Y-102052381D02*
X118895714Y-101052381D01*
X118990952Y-101671429D02*
X119276667Y-102052381D01*
X119276667Y-101385714D02*
X118895714Y-101766667D01*
X112847381Y-105576666D02*
X112371190Y-105910000D01*
X112847381Y-106148095D02*
X111847381Y-106148095D01*
X111847381Y-105767142D01*
X111895000Y-105671904D01*
X111942619Y-105624285D01*
X112037857Y-105576666D01*
X112180714Y-105576666D01*
X112275952Y-105624285D01*
X112323571Y-105671904D01*
X112371190Y-105767142D01*
X112371190Y-106148095D01*
X111847381Y-104719523D02*
X111847381Y-104910000D01*
X111895000Y-105005238D01*
X111942619Y-105052857D01*
X112085476Y-105148095D01*
X112275952Y-105195714D01*
X112656905Y-105195714D01*
X112752143Y-105148095D01*
X112799762Y-105100476D01*
X112847381Y-105005238D01*
X112847381Y-104814761D01*
X112799762Y-104719523D01*
X112752143Y-104671904D01*
X112656905Y-104624285D01*
X112418810Y-104624285D01*
X112323571Y-104671904D01*
X112275952Y-104719523D01*
X112228333Y-104814761D01*
X112228333Y-105005238D01*
X112275952Y-105100476D01*
X112323571Y-105148095D01*
X112418810Y-105195714D01*
X114974762Y-105862381D02*
X114403333Y-105862381D01*
X114689047Y-105862381D02*
X114689047Y-104862381D01*
X114593809Y-105005238D01*
X114498571Y-105100476D01*
X114403333Y-105148095D01*
X115879524Y-104862381D02*
X115403333Y-104862381D01*
X115355714Y-105338571D01*
X115403333Y-105290952D01*
X115498571Y-105243333D01*
X115736667Y-105243333D01*
X115831905Y-105290952D01*
X115879524Y-105338571D01*
X115927143Y-105433810D01*
X115927143Y-105671905D01*
X115879524Y-105767143D01*
X115831905Y-105814762D01*
X115736667Y-105862381D01*
X115498571Y-105862381D01*
X115403333Y-105814762D01*
X115355714Y-105767143D01*
X116355714Y-105862381D02*
X116355714Y-104862381D01*
X116450952Y-105481429D02*
X116736667Y-105862381D01*
X116736667Y-105195714D02*
X116355714Y-105576667D01*
X110307381Y-109386666D02*
X109831190Y-109720000D01*
X110307381Y-109958095D02*
X109307381Y-109958095D01*
X109307381Y-109577142D01*
X109355000Y-109481904D01*
X109402619Y-109434285D01*
X109497857Y-109386666D01*
X109640714Y-109386666D01*
X109735952Y-109434285D01*
X109783571Y-109481904D01*
X109831190Y-109577142D01*
X109831190Y-109958095D01*
X109307381Y-109053333D02*
X109307381Y-108386666D01*
X110307381Y-108815238D01*
X112434762Y-109672381D02*
X111863333Y-109672381D01*
X112149047Y-109672381D02*
X112149047Y-108672381D01*
X112053809Y-108815238D01*
X111958571Y-108910476D01*
X111863333Y-108958095D01*
X113339524Y-108672381D02*
X112863333Y-108672381D01*
X112815714Y-109148571D01*
X112863333Y-109100952D01*
X112958571Y-109053333D01*
X113196667Y-109053333D01*
X113291905Y-109100952D01*
X113339524Y-109148571D01*
X113387143Y-109243810D01*
X113387143Y-109481905D01*
X113339524Y-109577143D01*
X113291905Y-109624762D01*
X113196667Y-109672381D01*
X112958571Y-109672381D01*
X112863333Y-109624762D01*
X112815714Y-109577143D01*
X113815714Y-109672381D02*
X113815714Y-108672381D01*
X113910952Y-109291429D02*
X114196667Y-109672381D01*
X114196667Y-109005714D02*
X113815714Y-109386667D01*
X107767381Y-113196666D02*
X107291190Y-113530000D01*
X107767381Y-113768095D02*
X106767381Y-113768095D01*
X106767381Y-113387142D01*
X106815000Y-113291904D01*
X106862619Y-113244285D01*
X106957857Y-113196666D01*
X107100714Y-113196666D01*
X107195952Y-113244285D01*
X107243571Y-113291904D01*
X107291190Y-113387142D01*
X107291190Y-113768095D01*
X107195952Y-112625238D02*
X107148333Y-112720476D01*
X107100714Y-112768095D01*
X107005476Y-112815714D01*
X106957857Y-112815714D01*
X106862619Y-112768095D01*
X106815000Y-112720476D01*
X106767381Y-112625238D01*
X106767381Y-112434761D01*
X106815000Y-112339523D01*
X106862619Y-112291904D01*
X106957857Y-112244285D01*
X107005476Y-112244285D01*
X107100714Y-112291904D01*
X107148333Y-112339523D01*
X107195952Y-112434761D01*
X107195952Y-112625238D01*
X107243571Y-112720476D01*
X107291190Y-112768095D01*
X107386429Y-112815714D01*
X107576905Y-112815714D01*
X107672143Y-112768095D01*
X107719762Y-112720476D01*
X107767381Y-112625238D01*
X107767381Y-112434761D01*
X107719762Y-112339523D01*
X107672143Y-112291904D01*
X107576905Y-112244285D01*
X107386429Y-112244285D01*
X107291190Y-112291904D01*
X107243571Y-112339523D01*
X107195952Y-112434761D01*
X109894762Y-113482381D02*
X109323333Y-113482381D01*
X109609047Y-113482381D02*
X109609047Y-112482381D01*
X109513809Y-112625238D01*
X109418571Y-112720476D01*
X109323333Y-112768095D01*
X110799524Y-112482381D02*
X110323333Y-112482381D01*
X110275714Y-112958571D01*
X110323333Y-112910952D01*
X110418571Y-112863333D01*
X110656667Y-112863333D01*
X110751905Y-112910952D01*
X110799524Y-112958571D01*
X110847143Y-113053810D01*
X110847143Y-113291905D01*
X110799524Y-113387143D01*
X110751905Y-113434762D01*
X110656667Y-113482381D01*
X110418571Y-113482381D01*
X110323333Y-113434762D01*
X110275714Y-113387143D01*
X111275714Y-113482381D02*
X111275714Y-112482381D01*
X111370952Y-113101429D02*
X111656667Y-113482381D01*
X111656667Y-112815714D02*
X111275714Y-113196667D01*
X105227381Y-117006666D02*
X104751190Y-117340000D01*
X105227381Y-117578095D02*
X104227381Y-117578095D01*
X104227381Y-117197142D01*
X104275000Y-117101904D01*
X104322619Y-117054285D01*
X104417857Y-117006666D01*
X104560714Y-117006666D01*
X104655952Y-117054285D01*
X104703571Y-117101904D01*
X104751190Y-117197142D01*
X104751190Y-117578095D01*
X105227381Y-116530476D02*
X105227381Y-116340000D01*
X105179762Y-116244761D01*
X105132143Y-116197142D01*
X104989286Y-116101904D01*
X104798810Y-116054285D01*
X104417857Y-116054285D01*
X104322619Y-116101904D01*
X104275000Y-116149523D01*
X104227381Y-116244761D01*
X104227381Y-116435238D01*
X104275000Y-116530476D01*
X104322619Y-116578095D01*
X104417857Y-116625714D01*
X104655952Y-116625714D01*
X104751190Y-116578095D01*
X104798810Y-116530476D01*
X104846429Y-116435238D01*
X104846429Y-116244761D01*
X104798810Y-116149523D01*
X104751190Y-116101904D01*
X104655952Y-116054285D01*
X107354762Y-117292381D02*
X106783333Y-117292381D01*
X107069047Y-117292381D02*
X107069047Y-116292381D01*
X106973809Y-116435238D01*
X106878571Y-116530476D01*
X106783333Y-116578095D01*
X108259524Y-116292381D02*
X107783333Y-116292381D01*
X107735714Y-116768571D01*
X107783333Y-116720952D01*
X107878571Y-116673333D01*
X108116667Y-116673333D01*
X108211905Y-116720952D01*
X108259524Y-116768571D01*
X108307143Y-116863810D01*
X108307143Y-117101905D01*
X108259524Y-117197143D01*
X108211905Y-117244762D01*
X108116667Y-117292381D01*
X107878571Y-117292381D01*
X107783333Y-117244762D01*
X107735714Y-117197143D01*
X108735714Y-117292381D02*
X108735714Y-116292381D01*
X108830952Y-116911429D02*
X109116667Y-117292381D01*
X109116667Y-116625714D02*
X108735714Y-117006667D01*
X128897143Y-126182381D02*
X128563809Y-125706190D01*
X128325714Y-126182381D02*
X128325714Y-125182381D01*
X128706667Y-125182381D01*
X128801905Y-125230000D01*
X128849524Y-125277619D01*
X128897143Y-125372857D01*
X128897143Y-125515714D01*
X128849524Y-125610952D01*
X128801905Y-125658571D01*
X128706667Y-125706190D01*
X128325714Y-125706190D01*
X129278095Y-125277619D02*
X129325714Y-125230000D01*
X129420952Y-125182381D01*
X129659048Y-125182381D01*
X129754286Y-125230000D01*
X129801905Y-125277619D01*
X129849524Y-125372857D01*
X129849524Y-125468095D01*
X129801905Y-125610952D01*
X129230476Y-126182381D01*
X129849524Y-126182381D01*
X130468571Y-125182381D02*
X130563810Y-125182381D01*
X130659048Y-125230000D01*
X130706667Y-125277619D01*
X130754286Y-125372857D01*
X130801905Y-125563333D01*
X130801905Y-125801429D01*
X130754286Y-125991905D01*
X130706667Y-126087143D01*
X130659048Y-126134762D01*
X130563810Y-126182381D01*
X130468571Y-126182381D01*
X130373333Y-126134762D01*
X130325714Y-126087143D01*
X130278095Y-125991905D01*
X130230476Y-125801429D01*
X130230476Y-125563333D01*
X130278095Y-125372857D01*
X130325714Y-125277619D01*
X130373333Y-125230000D01*
X130468571Y-125182381D01*
X129992381Y-129024047D02*
X129992381Y-129595476D01*
X129992381Y-129309762D02*
X128992381Y-129309762D01*
X129135238Y-129405000D01*
X129230476Y-129500238D01*
X129278095Y-129595476D01*
X129992381Y-128595476D02*
X128992381Y-128595476D01*
X129611429Y-128500238D02*
X129992381Y-128214523D01*
X129325714Y-128214523D02*
X129706667Y-128595476D01*
X136342381Y-90812857D02*
X135866190Y-91146191D01*
X136342381Y-91384286D02*
X135342381Y-91384286D01*
X135342381Y-91003333D01*
X135390000Y-90908095D01*
X135437619Y-90860476D01*
X135532857Y-90812857D01*
X135675714Y-90812857D01*
X135770952Y-90860476D01*
X135818571Y-90908095D01*
X135866190Y-91003333D01*
X135866190Y-91384286D01*
X136342381Y-89860476D02*
X136342381Y-90431905D01*
X136342381Y-90146191D02*
X135342381Y-90146191D01*
X135485238Y-90241429D01*
X135580476Y-90336667D01*
X135628095Y-90431905D01*
X136342381Y-88908095D02*
X136342381Y-89479524D01*
X136342381Y-89193810D02*
X135342381Y-89193810D01*
X135485238Y-89289048D01*
X135580476Y-89384286D01*
X135628095Y-89479524D01*
X137850714Y-89622381D02*
X138517381Y-89622381D01*
X138088809Y-90622381D01*
X138898333Y-90622381D02*
X138898333Y-89622381D01*
X138993571Y-90241429D02*
X139279286Y-90622381D01*
X139279286Y-89955714D02*
X138898333Y-90336667D01*
X140184048Y-89622381D02*
X139707857Y-89622381D01*
X139660238Y-90098571D01*
X139707857Y-90050952D01*
X139803095Y-90003333D01*
X140041191Y-90003333D01*
X140136429Y-90050952D01*
X140184048Y-90098571D01*
X140231667Y-90193810D01*
X140231667Y-90431905D01*
X140184048Y-90527143D01*
X140136429Y-90574762D01*
X140041191Y-90622381D01*
X139803095Y-90622381D01*
X139707857Y-90574762D01*
X139660238Y-90527143D01*
X133802381Y-94622857D02*
X133326190Y-94956191D01*
X133802381Y-95194286D02*
X132802381Y-95194286D01*
X132802381Y-94813333D01*
X132850000Y-94718095D01*
X132897619Y-94670476D01*
X132992857Y-94622857D01*
X133135714Y-94622857D01*
X133230952Y-94670476D01*
X133278571Y-94718095D01*
X133326190Y-94813333D01*
X133326190Y-95194286D01*
X133802381Y-93670476D02*
X133802381Y-94241905D01*
X133802381Y-93956191D02*
X132802381Y-93956191D01*
X132945238Y-94051429D01*
X133040476Y-94146667D01*
X133088095Y-94241905D01*
X132897619Y-93289524D02*
X132850000Y-93241905D01*
X132802381Y-93146667D01*
X132802381Y-92908571D01*
X132850000Y-92813333D01*
X132897619Y-92765714D01*
X132992857Y-92718095D01*
X133088095Y-92718095D01*
X133230952Y-92765714D01*
X133802381Y-93337143D01*
X133802381Y-92718095D01*
X135310714Y-93432381D02*
X135977381Y-93432381D01*
X135548809Y-94432381D01*
X136358333Y-94432381D02*
X136358333Y-93432381D01*
X136453571Y-94051429D02*
X136739286Y-94432381D01*
X136739286Y-93765714D02*
X136358333Y-94146667D01*
X137644048Y-93432381D02*
X137167857Y-93432381D01*
X137120238Y-93908571D01*
X137167857Y-93860952D01*
X137263095Y-93813333D01*
X137501191Y-93813333D01*
X137596429Y-93860952D01*
X137644048Y-93908571D01*
X137691667Y-94003810D01*
X137691667Y-94241905D01*
X137644048Y-94337143D01*
X137596429Y-94384762D01*
X137501191Y-94432381D01*
X137263095Y-94432381D01*
X137167857Y-94384762D01*
X137120238Y-94337143D01*
X131262381Y-98432857D02*
X130786190Y-98766191D01*
X131262381Y-99004286D02*
X130262381Y-99004286D01*
X130262381Y-98623333D01*
X130310000Y-98528095D01*
X130357619Y-98480476D01*
X130452857Y-98432857D01*
X130595714Y-98432857D01*
X130690952Y-98480476D01*
X130738571Y-98528095D01*
X130786190Y-98623333D01*
X130786190Y-99004286D01*
X131262381Y-97480476D02*
X131262381Y-98051905D01*
X131262381Y-97766191D02*
X130262381Y-97766191D01*
X130405238Y-97861429D01*
X130500476Y-97956667D01*
X130548095Y-98051905D01*
X130262381Y-97147143D02*
X130262381Y-96528095D01*
X130643333Y-96861429D01*
X130643333Y-96718571D01*
X130690952Y-96623333D01*
X130738571Y-96575714D01*
X130833810Y-96528095D01*
X131071905Y-96528095D01*
X131167143Y-96575714D01*
X131214762Y-96623333D01*
X131262381Y-96718571D01*
X131262381Y-97004286D01*
X131214762Y-97099524D01*
X131167143Y-97147143D01*
X132770714Y-97242381D02*
X133437381Y-97242381D01*
X133008809Y-98242381D01*
X133818333Y-98242381D02*
X133818333Y-97242381D01*
X133913571Y-97861429D02*
X134199286Y-98242381D01*
X134199286Y-97575714D02*
X133818333Y-97956667D01*
X135104048Y-97242381D02*
X134627857Y-97242381D01*
X134580238Y-97718571D01*
X134627857Y-97670952D01*
X134723095Y-97623333D01*
X134961191Y-97623333D01*
X135056429Y-97670952D01*
X135104048Y-97718571D01*
X135151667Y-97813810D01*
X135151667Y-98051905D01*
X135104048Y-98147143D01*
X135056429Y-98194762D01*
X134961191Y-98242381D01*
X134723095Y-98242381D01*
X134627857Y-98194762D01*
X134580238Y-98147143D01*
X128722381Y-102242857D02*
X128246190Y-102576191D01*
X128722381Y-102814286D02*
X127722381Y-102814286D01*
X127722381Y-102433333D01*
X127770000Y-102338095D01*
X127817619Y-102290476D01*
X127912857Y-102242857D01*
X128055714Y-102242857D01*
X128150952Y-102290476D01*
X128198571Y-102338095D01*
X128246190Y-102433333D01*
X128246190Y-102814286D01*
X128722381Y-101290476D02*
X128722381Y-101861905D01*
X128722381Y-101576191D02*
X127722381Y-101576191D01*
X127865238Y-101671429D01*
X127960476Y-101766667D01*
X128008095Y-101861905D01*
X128055714Y-100433333D02*
X128722381Y-100433333D01*
X127674762Y-100671429D02*
X128389048Y-100909524D01*
X128389048Y-100290476D01*
X130230714Y-101052381D02*
X130897381Y-101052381D01*
X130468809Y-102052381D01*
X131278333Y-102052381D02*
X131278333Y-101052381D01*
X131373571Y-101671429D02*
X131659286Y-102052381D01*
X131659286Y-101385714D02*
X131278333Y-101766667D01*
X132564048Y-101052381D02*
X132087857Y-101052381D01*
X132040238Y-101528571D01*
X132087857Y-101480952D01*
X132183095Y-101433333D01*
X132421191Y-101433333D01*
X132516429Y-101480952D01*
X132564048Y-101528571D01*
X132611667Y-101623810D01*
X132611667Y-101861905D01*
X132564048Y-101957143D01*
X132516429Y-102004762D01*
X132421191Y-102052381D01*
X132183095Y-102052381D01*
X132087857Y-102004762D01*
X132040238Y-101957143D01*
X126182381Y-106052857D02*
X125706190Y-106386191D01*
X126182381Y-106624286D02*
X125182381Y-106624286D01*
X125182381Y-106243333D01*
X125230000Y-106148095D01*
X125277619Y-106100476D01*
X125372857Y-106052857D01*
X125515714Y-106052857D01*
X125610952Y-106100476D01*
X125658571Y-106148095D01*
X125706190Y-106243333D01*
X125706190Y-106624286D01*
X126182381Y-105100476D02*
X126182381Y-105671905D01*
X126182381Y-105386191D02*
X125182381Y-105386191D01*
X125325238Y-105481429D01*
X125420476Y-105576667D01*
X125468095Y-105671905D01*
X125182381Y-104195714D02*
X125182381Y-104671905D01*
X125658571Y-104719524D01*
X125610952Y-104671905D01*
X125563333Y-104576667D01*
X125563333Y-104338571D01*
X125610952Y-104243333D01*
X125658571Y-104195714D01*
X125753810Y-104148095D01*
X125991905Y-104148095D01*
X126087143Y-104195714D01*
X126134762Y-104243333D01*
X126182381Y-104338571D01*
X126182381Y-104576667D01*
X126134762Y-104671905D01*
X126087143Y-104719524D01*
X127690714Y-104862381D02*
X128357381Y-104862381D01*
X127928809Y-105862381D01*
X128738333Y-105862381D02*
X128738333Y-104862381D01*
X128833571Y-105481429D02*
X129119286Y-105862381D01*
X129119286Y-105195714D02*
X128738333Y-105576667D01*
X130024048Y-104862381D02*
X129547857Y-104862381D01*
X129500238Y-105338571D01*
X129547857Y-105290952D01*
X129643095Y-105243333D01*
X129881191Y-105243333D01*
X129976429Y-105290952D01*
X130024048Y-105338571D01*
X130071667Y-105433810D01*
X130071667Y-105671905D01*
X130024048Y-105767143D01*
X129976429Y-105814762D01*
X129881191Y-105862381D01*
X129643095Y-105862381D01*
X129547857Y-105814762D01*
X129500238Y-105767143D01*
X123642381Y-109862857D02*
X123166190Y-110196191D01*
X123642381Y-110434286D02*
X122642381Y-110434286D01*
X122642381Y-110053333D01*
X122690000Y-109958095D01*
X122737619Y-109910476D01*
X122832857Y-109862857D01*
X122975714Y-109862857D01*
X123070952Y-109910476D01*
X123118571Y-109958095D01*
X123166190Y-110053333D01*
X123166190Y-110434286D01*
X123642381Y-108910476D02*
X123642381Y-109481905D01*
X123642381Y-109196191D02*
X122642381Y-109196191D01*
X122785238Y-109291429D01*
X122880476Y-109386667D01*
X122928095Y-109481905D01*
X122642381Y-108053333D02*
X122642381Y-108243810D01*
X122690000Y-108339048D01*
X122737619Y-108386667D01*
X122880476Y-108481905D01*
X123070952Y-108529524D01*
X123451905Y-108529524D01*
X123547143Y-108481905D01*
X123594762Y-108434286D01*
X123642381Y-108339048D01*
X123642381Y-108148571D01*
X123594762Y-108053333D01*
X123547143Y-108005714D01*
X123451905Y-107958095D01*
X123213810Y-107958095D01*
X123118571Y-108005714D01*
X123070952Y-108053333D01*
X123023333Y-108148571D01*
X123023333Y-108339048D01*
X123070952Y-108434286D01*
X123118571Y-108481905D01*
X123213810Y-108529524D01*
X125150714Y-108672381D02*
X125817381Y-108672381D01*
X125388809Y-109672381D01*
X126198333Y-109672381D02*
X126198333Y-108672381D01*
X126293571Y-109291429D02*
X126579286Y-109672381D01*
X126579286Y-109005714D02*
X126198333Y-109386667D01*
X127484048Y-108672381D02*
X127007857Y-108672381D01*
X126960238Y-109148571D01*
X127007857Y-109100952D01*
X127103095Y-109053333D01*
X127341191Y-109053333D01*
X127436429Y-109100952D01*
X127484048Y-109148571D01*
X127531667Y-109243810D01*
X127531667Y-109481905D01*
X127484048Y-109577143D01*
X127436429Y-109624762D01*
X127341191Y-109672381D01*
X127103095Y-109672381D01*
X127007857Y-109624762D01*
X126960238Y-109577143D01*
X121102381Y-113672857D02*
X120626190Y-114006191D01*
X121102381Y-114244286D02*
X120102381Y-114244286D01*
X120102381Y-113863333D01*
X120150000Y-113768095D01*
X120197619Y-113720476D01*
X120292857Y-113672857D01*
X120435714Y-113672857D01*
X120530952Y-113720476D01*
X120578571Y-113768095D01*
X120626190Y-113863333D01*
X120626190Y-114244286D01*
X121102381Y-112720476D02*
X121102381Y-113291905D01*
X121102381Y-113006191D02*
X120102381Y-113006191D01*
X120245238Y-113101429D01*
X120340476Y-113196667D01*
X120388095Y-113291905D01*
X120102381Y-112387143D02*
X120102381Y-111720476D01*
X121102381Y-112149048D01*
X122610714Y-112482381D02*
X123277381Y-112482381D01*
X122848809Y-113482381D01*
X123658333Y-113482381D02*
X123658333Y-112482381D01*
X123753571Y-113101429D02*
X124039286Y-113482381D01*
X124039286Y-112815714D02*
X123658333Y-113196667D01*
X124944048Y-112482381D02*
X124467857Y-112482381D01*
X124420238Y-112958571D01*
X124467857Y-112910952D01*
X124563095Y-112863333D01*
X124801191Y-112863333D01*
X124896429Y-112910952D01*
X124944048Y-112958571D01*
X124991667Y-113053810D01*
X124991667Y-113291905D01*
X124944048Y-113387143D01*
X124896429Y-113434762D01*
X124801191Y-113482381D01*
X124563095Y-113482381D01*
X124467857Y-113434762D01*
X124420238Y-113387143D01*
X165727143Y-126182381D02*
X165393809Y-125706190D01*
X165155714Y-126182381D02*
X165155714Y-125182381D01*
X165536667Y-125182381D01*
X165631905Y-125230000D01*
X165679524Y-125277619D01*
X165727143Y-125372857D01*
X165727143Y-125515714D01*
X165679524Y-125610952D01*
X165631905Y-125658571D01*
X165536667Y-125706190D01*
X165155714Y-125706190D01*
X166108095Y-125277619D02*
X166155714Y-125230000D01*
X166250952Y-125182381D01*
X166489048Y-125182381D01*
X166584286Y-125230000D01*
X166631905Y-125277619D01*
X166679524Y-125372857D01*
X166679524Y-125468095D01*
X166631905Y-125610952D01*
X166060476Y-126182381D01*
X166679524Y-126182381D01*
X167060476Y-125277619D02*
X167108095Y-125230000D01*
X167203333Y-125182381D01*
X167441429Y-125182381D01*
X167536667Y-125230000D01*
X167584286Y-125277619D01*
X167631905Y-125372857D01*
X167631905Y-125468095D01*
X167584286Y-125610952D01*
X167012857Y-126182381D01*
X167631905Y-126182381D01*
X166822381Y-129024047D02*
X166822381Y-129595476D01*
X166822381Y-129309762D02*
X165822381Y-129309762D01*
X165965238Y-129405000D01*
X166060476Y-129500238D01*
X166108095Y-129595476D01*
X166822381Y-128595476D02*
X165822381Y-128595476D01*
X166441429Y-128500238D02*
X166822381Y-128214523D01*
X166155714Y-128214523D02*
X166536667Y-128595476D01*
X169537143Y-126182381D02*
X169203809Y-125706190D01*
X168965714Y-126182381D02*
X168965714Y-125182381D01*
X169346667Y-125182381D01*
X169441905Y-125230000D01*
X169489524Y-125277619D01*
X169537143Y-125372857D01*
X169537143Y-125515714D01*
X169489524Y-125610952D01*
X169441905Y-125658571D01*
X169346667Y-125706190D01*
X168965714Y-125706190D01*
X169918095Y-125277619D02*
X169965714Y-125230000D01*
X170060952Y-125182381D01*
X170299048Y-125182381D01*
X170394286Y-125230000D01*
X170441905Y-125277619D01*
X170489524Y-125372857D01*
X170489524Y-125468095D01*
X170441905Y-125610952D01*
X169870476Y-126182381D01*
X170489524Y-126182381D01*
X170822857Y-125182381D02*
X171441905Y-125182381D01*
X171108571Y-125563333D01*
X171251429Y-125563333D01*
X171346667Y-125610952D01*
X171394286Y-125658571D01*
X171441905Y-125753810D01*
X171441905Y-125991905D01*
X171394286Y-126087143D01*
X171346667Y-126134762D01*
X171251429Y-126182381D01*
X170965714Y-126182381D01*
X170870476Y-126134762D01*
X170822857Y-126087143D01*
X170632381Y-129024047D02*
X170632381Y-129595476D01*
X170632381Y-129309762D02*
X169632381Y-129309762D01*
X169775238Y-129405000D01*
X169870476Y-129500238D01*
X169918095Y-129595476D01*
X170632381Y-128595476D02*
X169632381Y-128595476D01*
X170251429Y-128500238D02*
X170632381Y-128214523D01*
X169965714Y-128214523D02*
X170346667Y-128595476D01*
X174617143Y-126182381D02*
X174283809Y-125706190D01*
X174045714Y-126182381D02*
X174045714Y-125182381D01*
X174426667Y-125182381D01*
X174521905Y-125230000D01*
X174569524Y-125277619D01*
X174617143Y-125372857D01*
X174617143Y-125515714D01*
X174569524Y-125610952D01*
X174521905Y-125658571D01*
X174426667Y-125706190D01*
X174045714Y-125706190D01*
X174998095Y-125277619D02*
X175045714Y-125230000D01*
X175140952Y-125182381D01*
X175379048Y-125182381D01*
X175474286Y-125230000D01*
X175521905Y-125277619D01*
X175569524Y-125372857D01*
X175569524Y-125468095D01*
X175521905Y-125610952D01*
X174950476Y-126182381D01*
X175569524Y-126182381D01*
X176426667Y-125515714D02*
X176426667Y-126182381D01*
X176188571Y-125134762D02*
X175950476Y-125849048D01*
X176569524Y-125849048D01*
X175712381Y-129024047D02*
X175712381Y-129595476D01*
X175712381Y-129309762D02*
X174712381Y-129309762D01*
X174855238Y-129405000D01*
X174950476Y-129500238D01*
X174998095Y-129595476D01*
X175712381Y-128595476D02*
X174712381Y-128595476D01*
X175331429Y-128500238D02*
X175712381Y-128214523D01*
X175045714Y-128214523D02*
X175426667Y-128595476D01*
X178427143Y-126182381D02*
X178093809Y-125706190D01*
X177855714Y-126182381D02*
X177855714Y-125182381D01*
X178236667Y-125182381D01*
X178331905Y-125230000D01*
X178379524Y-125277619D01*
X178427143Y-125372857D01*
X178427143Y-125515714D01*
X178379524Y-125610952D01*
X178331905Y-125658571D01*
X178236667Y-125706190D01*
X177855714Y-125706190D01*
X178808095Y-125277619D02*
X178855714Y-125230000D01*
X178950952Y-125182381D01*
X179189048Y-125182381D01*
X179284286Y-125230000D01*
X179331905Y-125277619D01*
X179379524Y-125372857D01*
X179379524Y-125468095D01*
X179331905Y-125610952D01*
X178760476Y-126182381D01*
X179379524Y-126182381D01*
X180284286Y-125182381D02*
X179808095Y-125182381D01*
X179760476Y-125658571D01*
X179808095Y-125610952D01*
X179903333Y-125563333D01*
X180141429Y-125563333D01*
X180236667Y-125610952D01*
X180284286Y-125658571D01*
X180331905Y-125753810D01*
X180331905Y-125991905D01*
X180284286Y-126087143D01*
X180236667Y-126134762D01*
X180141429Y-126182381D01*
X179903333Y-126182381D01*
X179808095Y-126134762D01*
X179760476Y-126087143D01*
X179522381Y-129024047D02*
X179522381Y-129595476D01*
X179522381Y-129309762D02*
X178522381Y-129309762D01*
X178665238Y-129405000D01*
X178760476Y-129500238D01*
X178808095Y-129595476D01*
X179522381Y-128595476D02*
X178522381Y-128595476D01*
X179141429Y-128500238D02*
X179522381Y-128214523D01*
X178855714Y-128214523D02*
X179236667Y-128595476D01*
X131381667Y-139469762D02*
X131524524Y-139517381D01*
X131762620Y-139517381D01*
X131857858Y-139469762D01*
X131905477Y-139422143D01*
X131953096Y-139326905D01*
X131953096Y-139231667D01*
X131905477Y-139136429D01*
X131857858Y-139088810D01*
X131762620Y-139041190D01*
X131572143Y-138993571D01*
X131476905Y-138945952D01*
X131429286Y-138898333D01*
X131381667Y-138803095D01*
X131381667Y-138707857D01*
X131429286Y-138612619D01*
X131476905Y-138565000D01*
X131572143Y-138517381D01*
X131810239Y-138517381D01*
X131953096Y-138565000D01*
X132286429Y-138517381D02*
X132524524Y-139517381D01*
X132715001Y-138803095D01*
X132905477Y-139517381D01*
X133143572Y-138517381D01*
X133429286Y-138517381D02*
X134048334Y-138517381D01*
X133715000Y-138898333D01*
X133857858Y-138898333D01*
X133953096Y-138945952D01*
X134000715Y-138993571D01*
X134048334Y-139088810D01*
X134048334Y-139326905D01*
X134000715Y-139422143D01*
X133953096Y-139469762D01*
X133857858Y-139517381D01*
X133572143Y-139517381D01*
X133476905Y-139469762D01*
X133429286Y-139422143D01*
X142811667Y-139469762D02*
X142954524Y-139517381D01*
X143192620Y-139517381D01*
X143287858Y-139469762D01*
X143335477Y-139422143D01*
X143383096Y-139326905D01*
X143383096Y-139231667D01*
X143335477Y-139136429D01*
X143287858Y-139088810D01*
X143192620Y-139041190D01*
X143002143Y-138993571D01*
X142906905Y-138945952D01*
X142859286Y-138898333D01*
X142811667Y-138803095D01*
X142811667Y-138707857D01*
X142859286Y-138612619D01*
X142906905Y-138565000D01*
X143002143Y-138517381D01*
X143240239Y-138517381D01*
X143383096Y-138565000D01*
X143716429Y-138517381D02*
X143954524Y-139517381D01*
X144145001Y-138803095D01*
X144335477Y-139517381D01*
X144573572Y-138517381D01*
X145383096Y-138850714D02*
X145383096Y-139517381D01*
X145145000Y-138469762D02*
X144906905Y-139184048D01*
X145525953Y-139184048D01*
X154241667Y-139469762D02*
X154384524Y-139517381D01*
X154622620Y-139517381D01*
X154717858Y-139469762D01*
X154765477Y-139422143D01*
X154813096Y-139326905D01*
X154813096Y-139231667D01*
X154765477Y-139136429D01*
X154717858Y-139088810D01*
X154622620Y-139041190D01*
X154432143Y-138993571D01*
X154336905Y-138945952D01*
X154289286Y-138898333D01*
X154241667Y-138803095D01*
X154241667Y-138707857D01*
X154289286Y-138612619D01*
X154336905Y-138565000D01*
X154432143Y-138517381D01*
X154670239Y-138517381D01*
X154813096Y-138565000D01*
X155146429Y-138517381D02*
X155384524Y-139517381D01*
X155575001Y-138803095D01*
X155765477Y-139517381D01*
X156003572Y-138517381D01*
X156860715Y-138517381D02*
X156384524Y-138517381D01*
X156336905Y-138993571D01*
X156384524Y-138945952D01*
X156479762Y-138898333D01*
X156717858Y-138898333D01*
X156813096Y-138945952D01*
X156860715Y-138993571D01*
X156908334Y-139088810D01*
X156908334Y-139326905D01*
X156860715Y-139422143D01*
X156813096Y-139469762D01*
X156717858Y-139517381D01*
X156479762Y-139517381D01*
X156384524Y-139469762D01*
X156336905Y-139422143D01*
X165671667Y-139469762D02*
X165814524Y-139517381D01*
X166052620Y-139517381D01*
X166147858Y-139469762D01*
X166195477Y-139422143D01*
X166243096Y-139326905D01*
X166243096Y-139231667D01*
X166195477Y-139136429D01*
X166147858Y-139088810D01*
X166052620Y-139041190D01*
X165862143Y-138993571D01*
X165766905Y-138945952D01*
X165719286Y-138898333D01*
X165671667Y-138803095D01*
X165671667Y-138707857D01*
X165719286Y-138612619D01*
X165766905Y-138565000D01*
X165862143Y-138517381D01*
X166100239Y-138517381D01*
X166243096Y-138565000D01*
X166576429Y-138517381D02*
X166814524Y-139517381D01*
X167005001Y-138803095D01*
X167195477Y-139517381D01*
X167433572Y-138517381D01*
X168243096Y-138517381D02*
X168052619Y-138517381D01*
X167957381Y-138565000D01*
X167909762Y-138612619D01*
X167814524Y-138755476D01*
X167766905Y-138945952D01*
X167766905Y-139326905D01*
X167814524Y-139422143D01*
X167862143Y-139469762D01*
X167957381Y-139517381D01*
X168147858Y-139517381D01*
X168243096Y-139469762D01*
X168290715Y-139422143D01*
X168338334Y-139326905D01*
X168338334Y-139088810D01*
X168290715Y-138993571D01*
X168243096Y-138945952D01*
X168147858Y-138898333D01*
X167957381Y-138898333D01*
X167862143Y-138945952D01*
X167814524Y-138993571D01*
X167766905Y-139088810D01*
X177101667Y-139469762D02*
X177244524Y-139517381D01*
X177482620Y-139517381D01*
X177577858Y-139469762D01*
X177625477Y-139422143D01*
X177673096Y-139326905D01*
X177673096Y-139231667D01*
X177625477Y-139136429D01*
X177577858Y-139088810D01*
X177482620Y-139041190D01*
X177292143Y-138993571D01*
X177196905Y-138945952D01*
X177149286Y-138898333D01*
X177101667Y-138803095D01*
X177101667Y-138707857D01*
X177149286Y-138612619D01*
X177196905Y-138565000D01*
X177292143Y-138517381D01*
X177530239Y-138517381D01*
X177673096Y-138565000D01*
X178006429Y-138517381D02*
X178244524Y-139517381D01*
X178435001Y-138803095D01*
X178625477Y-139517381D01*
X178863572Y-138517381D01*
X179149286Y-138517381D02*
X179815953Y-138517381D01*
X179387381Y-139517381D01*
X188531667Y-139469762D02*
X188674524Y-139517381D01*
X188912620Y-139517381D01*
X189007858Y-139469762D01*
X189055477Y-139422143D01*
X189103096Y-139326905D01*
X189103096Y-139231667D01*
X189055477Y-139136429D01*
X189007858Y-139088810D01*
X188912620Y-139041190D01*
X188722143Y-138993571D01*
X188626905Y-138945952D01*
X188579286Y-138898333D01*
X188531667Y-138803095D01*
X188531667Y-138707857D01*
X188579286Y-138612619D01*
X188626905Y-138565000D01*
X188722143Y-138517381D01*
X188960239Y-138517381D01*
X189103096Y-138565000D01*
X189436429Y-138517381D02*
X189674524Y-139517381D01*
X189865001Y-138803095D01*
X190055477Y-139517381D01*
X190293572Y-138517381D01*
X190817381Y-138945952D02*
X190722143Y-138898333D01*
X190674524Y-138850714D01*
X190626905Y-138755476D01*
X190626905Y-138707857D01*
X190674524Y-138612619D01*
X190722143Y-138565000D01*
X190817381Y-138517381D01*
X191007858Y-138517381D01*
X191103096Y-138565000D01*
X191150715Y-138612619D01*
X191198334Y-138707857D01*
X191198334Y-138755476D01*
X191150715Y-138850714D01*
X191103096Y-138898333D01*
X191007858Y-138945952D01*
X190817381Y-138945952D01*
X190722143Y-138993571D01*
X190674524Y-139041190D01*
X190626905Y-139136429D01*
X190626905Y-139326905D01*
X190674524Y-139422143D01*
X190722143Y-139469762D01*
X190817381Y-139517381D01*
X191007858Y-139517381D01*
X191103096Y-139469762D01*
X191150715Y-139422143D01*
X191198334Y-139326905D01*
X191198334Y-139136429D01*
X191150715Y-139041190D01*
X191103096Y-138993571D01*
X191007858Y-138945952D01*
D10*
X102444762Y-82911905D02*
X102444762Y-82111905D01*
X102749524Y-82111905D01*
X102825715Y-82150000D01*
X102863810Y-82188095D01*
X102901905Y-82264286D01*
X102901905Y-82378571D01*
X102863810Y-82454762D01*
X102825715Y-82492857D01*
X102749524Y-82530952D01*
X102444762Y-82530952D01*
X103359048Y-82911905D02*
X103282857Y-82873810D01*
X103244762Y-82835714D01*
X103206667Y-82759524D01*
X103206667Y-82530952D01*
X103244762Y-82454762D01*
X103282857Y-82416667D01*
X103359048Y-82378571D01*
X103473334Y-82378571D01*
X103549524Y-82416667D01*
X103587619Y-82454762D01*
X103625715Y-82530952D01*
X103625715Y-82759524D01*
X103587619Y-82835714D01*
X103549524Y-82873810D01*
X103473334Y-82911905D01*
X103359048Y-82911905D01*
X103968572Y-82911905D02*
X103968572Y-82378571D01*
X103968572Y-82530952D02*
X104006667Y-82454762D01*
X104044763Y-82416667D01*
X104120953Y-82378571D01*
X104197144Y-82378571D01*
X104349524Y-82378571D02*
X104654286Y-82378571D01*
X104463810Y-82111905D02*
X104463810Y-82797619D01*
X104501905Y-82873810D01*
X104578096Y-82911905D01*
X104654286Y-82911905D01*
X105492382Y-82683333D02*
X105873334Y-82683333D01*
X105416191Y-82911905D02*
X105682858Y-82111905D01*
X105949525Y-82911905D01*
D12*
X199902381Y-145748333D02*
X200616667Y-145748333D01*
X200759524Y-145795953D01*
X200854762Y-145891191D01*
X200902381Y-146034048D01*
X200902381Y-146129286D01*
X200235714Y-144843571D02*
X200902381Y-144843571D01*
X199854762Y-145081667D02*
X200569048Y-145319762D01*
X200569048Y-144700714D01*
D10*
X130327619Y-82911905D02*
X130327619Y-82111905D01*
X130632381Y-82111905D01*
X130708572Y-82150000D01*
X130746667Y-82188095D01*
X130784762Y-82264286D01*
X130784762Y-82378571D01*
X130746667Y-82454762D01*
X130708572Y-82492857D01*
X130632381Y-82530952D01*
X130327619Y-82530952D01*
X131241905Y-82911905D02*
X131165714Y-82873810D01*
X131127619Y-82835714D01*
X131089524Y-82759524D01*
X131089524Y-82530952D01*
X131127619Y-82454762D01*
X131165714Y-82416667D01*
X131241905Y-82378571D01*
X131356191Y-82378571D01*
X131432381Y-82416667D01*
X131470476Y-82454762D01*
X131508572Y-82530952D01*
X131508572Y-82759524D01*
X131470476Y-82835714D01*
X131432381Y-82873810D01*
X131356191Y-82911905D01*
X131241905Y-82911905D01*
X131851429Y-82911905D02*
X131851429Y-82378571D01*
X131851429Y-82530952D02*
X131889524Y-82454762D01*
X131927620Y-82416667D01*
X132003810Y-82378571D01*
X132080001Y-82378571D01*
X132232381Y-82378571D02*
X132537143Y-82378571D01*
X132346667Y-82111905D02*
X132346667Y-82797619D01*
X132384762Y-82873810D01*
X132460953Y-82911905D01*
X132537143Y-82911905D01*
X133680001Y-82492857D02*
X133794287Y-82530952D01*
X133832382Y-82569048D01*
X133870477Y-82645238D01*
X133870477Y-82759524D01*
X133832382Y-82835714D01*
X133794287Y-82873810D01*
X133718096Y-82911905D01*
X133413334Y-82911905D01*
X133413334Y-82111905D01*
X133680001Y-82111905D01*
X133756191Y-82150000D01*
X133794287Y-82188095D01*
X133832382Y-82264286D01*
X133832382Y-82340476D01*
X133794287Y-82416667D01*
X133756191Y-82454762D01*
X133680001Y-82492857D01*
X133413334Y-82492857D01*
X192838429Y-98385000D02*
X192838429Y-98042143D01*
X193438429Y-98213572D02*
X192838429Y-98213572D01*
X193438429Y-97499286D02*
X193152714Y-97699286D01*
X193438429Y-97842143D02*
X192838429Y-97842143D01*
X192838429Y-97613571D01*
X192867000Y-97556429D01*
X192895571Y-97527857D01*
X192952714Y-97499286D01*
X193038429Y-97499286D01*
X193095571Y-97527857D01*
X193124143Y-97556429D01*
X193152714Y-97613571D01*
X193152714Y-97842143D01*
X193409857Y-97270714D02*
X193438429Y-97185000D01*
X193438429Y-97042143D01*
X193409857Y-96985000D01*
X193381286Y-96956429D01*
X193324143Y-96927857D01*
X193267000Y-96927857D01*
X193209857Y-96956429D01*
X193181286Y-96985000D01*
X193152714Y-97042143D01*
X193124143Y-97156429D01*
X193095571Y-97213571D01*
X193067000Y-97242143D01*
X193009857Y-97270714D01*
X192952714Y-97270714D01*
X192895571Y-97242143D01*
X192867000Y-97213571D01*
X192838429Y-97156429D01*
X192838429Y-97013571D01*
X192867000Y-96927857D01*
X193495571Y-96813571D02*
X193495571Y-96356428D01*
X192838429Y-96270714D02*
X192838429Y-95899285D01*
X193067000Y-96099285D01*
X193067000Y-96013571D01*
X193095571Y-95956428D01*
X193124143Y-95927857D01*
X193181286Y-95899285D01*
X193324143Y-95899285D01*
X193381286Y-95927857D01*
X193409857Y-95956428D01*
X193438429Y-96013571D01*
X193438429Y-96184999D01*
X193409857Y-96242142D01*
X193381286Y-96270714D01*
X193381286Y-95642142D02*
X193409857Y-95613570D01*
X193438429Y-95642142D01*
X193409857Y-95670713D01*
X193381286Y-95642142D01*
X193438429Y-95642142D01*
X192838429Y-95070714D02*
X192838429Y-95356428D01*
X193124143Y-95384999D01*
X193095571Y-95356428D01*
X193067000Y-95299285D01*
X193067000Y-95156428D01*
X193095571Y-95099285D01*
X193124143Y-95070714D01*
X193181286Y-95042142D01*
X193324143Y-95042142D01*
X193381286Y-95070714D01*
X193409857Y-95099285D01*
X193438429Y-95156428D01*
X193438429Y-95299285D01*
X193409857Y-95356428D01*
X193381286Y-95384999D01*
X193438429Y-94784999D02*
X193038429Y-94784999D01*
X193095571Y-94784999D02*
X193067000Y-94756427D01*
X193038429Y-94699285D01*
X193038429Y-94613570D01*
X193067000Y-94556427D01*
X193124143Y-94527856D01*
X193438429Y-94527856D01*
X193124143Y-94527856D02*
X193067000Y-94499285D01*
X193038429Y-94442142D01*
X193038429Y-94356427D01*
X193067000Y-94299285D01*
X193124143Y-94270713D01*
X193438429Y-94270713D01*
X193438429Y-93984999D02*
X193038429Y-93984999D01*
X193095571Y-93984999D02*
X193067000Y-93956427D01*
X193038429Y-93899285D01*
X193038429Y-93813570D01*
X193067000Y-93756427D01*
X193124143Y-93727856D01*
X193438429Y-93727856D01*
X193124143Y-93727856D02*
X193067000Y-93699285D01*
X193038429Y-93642142D01*
X193038429Y-93556427D01*
X193067000Y-93499285D01*
X193124143Y-93470713D01*
X193438429Y-93470713D01*
X175920714Y-112718810D02*
X176035000Y-112756905D01*
X176225476Y-112756905D01*
X176301666Y-112718810D01*
X176339762Y-112680714D01*
X176377857Y-112604524D01*
X176377857Y-112528333D01*
X176339762Y-112452143D01*
X176301666Y-112414048D01*
X176225476Y-112375952D01*
X176073095Y-112337857D01*
X175996904Y-112299762D01*
X175958809Y-112261667D01*
X175920714Y-112185476D01*
X175920714Y-112109286D01*
X175958809Y-112033095D01*
X175996904Y-111995000D01*
X176073095Y-111956905D01*
X176263571Y-111956905D01*
X176377857Y-111995000D01*
X176720714Y-112756905D02*
X176720714Y-111956905D01*
X177025476Y-111956905D01*
X177101667Y-111995000D01*
X177139762Y-112033095D01*
X177177857Y-112109286D01*
X177177857Y-112223571D01*
X177139762Y-112299762D01*
X177101667Y-112337857D01*
X177025476Y-112375952D01*
X176720714Y-112375952D01*
X177520714Y-112756905D02*
X177520714Y-111956905D01*
X177977857Y-112756905D02*
X177635000Y-112299762D01*
X177977857Y-111956905D02*
X177520714Y-112414048D01*
X178777857Y-112756905D02*
X178511190Y-112375952D01*
X178320714Y-112756905D02*
X178320714Y-111956905D01*
X178625476Y-111956905D01*
X178701667Y-111995000D01*
X178739762Y-112033095D01*
X178777857Y-112109286D01*
X178777857Y-112223571D01*
X178739762Y-112299762D01*
X178701667Y-112337857D01*
X178625476Y-112375952D01*
X178320714Y-112375952D01*
X178930238Y-112833095D02*
X179539762Y-112833095D01*
X179730238Y-112337857D02*
X179996905Y-112337857D01*
X180111191Y-112756905D02*
X179730238Y-112756905D01*
X179730238Y-111956905D01*
X180111191Y-111956905D01*
X180454048Y-112756905D02*
X180454048Y-111956905D01*
X180911191Y-112756905D01*
X180911191Y-111956905D01*
D12*
X172537381Y-115577857D02*
X172061190Y-115911191D01*
X172537381Y-116149286D02*
X171537381Y-116149286D01*
X171537381Y-115768333D01*
X171585000Y-115673095D01*
X171632619Y-115625476D01*
X171727857Y-115577857D01*
X171870714Y-115577857D01*
X171965952Y-115625476D01*
X172013571Y-115673095D01*
X172061190Y-115768333D01*
X172061190Y-116149286D01*
X171632619Y-115196905D02*
X171585000Y-115149286D01*
X171537381Y-115054048D01*
X171537381Y-114815952D01*
X171585000Y-114720714D01*
X171632619Y-114673095D01*
X171727857Y-114625476D01*
X171823095Y-114625476D01*
X171965952Y-114673095D01*
X172537381Y-115244524D01*
X172537381Y-114625476D01*
X171537381Y-113768333D02*
X171537381Y-113958810D01*
X171585000Y-114054048D01*
X171632619Y-114101667D01*
X171775476Y-114196905D01*
X171965952Y-114244524D01*
X172346905Y-114244524D01*
X172442143Y-114196905D01*
X172489762Y-114149286D01*
X172537381Y-114054048D01*
X172537381Y-113863571D01*
X172489762Y-113768333D01*
X172442143Y-113720714D01*
X172346905Y-113673095D01*
X172108810Y-113673095D01*
X172013571Y-113720714D01*
X171965952Y-113768333D01*
X171918333Y-113863571D01*
X171918333Y-114054048D01*
X171965952Y-114149286D01*
X172013571Y-114196905D01*
X172108810Y-114244524D01*
X174021905Y-114482619D02*
X174069524Y-114435000D01*
X174164762Y-114387381D01*
X174402858Y-114387381D01*
X174498096Y-114435000D01*
X174545715Y-114482619D01*
X174593334Y-114577857D01*
X174593334Y-114673095D01*
X174545715Y-114815952D01*
X173974286Y-115387381D01*
X174593334Y-115387381D01*
X174974286Y-114482619D02*
X175021905Y-114435000D01*
X175117143Y-114387381D01*
X175355239Y-114387381D01*
X175450477Y-114435000D01*
X175498096Y-114482619D01*
X175545715Y-114577857D01*
X175545715Y-114673095D01*
X175498096Y-114815952D01*
X174926667Y-115387381D01*
X175545715Y-115387381D01*
X176164762Y-114387381D02*
X176260001Y-114387381D01*
X176355239Y-114435000D01*
X176402858Y-114482619D01*
X176450477Y-114577857D01*
X176498096Y-114768333D01*
X176498096Y-115006429D01*
X176450477Y-115196905D01*
X176402858Y-115292143D01*
X176355239Y-115339762D01*
X176260001Y-115387381D01*
X176164762Y-115387381D01*
X176069524Y-115339762D01*
X176021905Y-115292143D01*
X175974286Y-115196905D01*
X175926667Y-115006429D01*
X175926667Y-114768333D01*
X175974286Y-114577857D01*
X176021905Y-114482619D01*
X176069524Y-114435000D01*
X176164762Y-114387381D01*
X149217143Y-122626381D02*
X148740952Y-122626381D01*
X148740952Y-121626381D01*
X149502857Y-122578762D02*
X149645714Y-122626381D01*
X149883810Y-122626381D01*
X149979048Y-122578762D01*
X150026667Y-122531143D01*
X150074286Y-122435905D01*
X150074286Y-122340667D01*
X150026667Y-122245429D01*
X149979048Y-122197810D01*
X149883810Y-122150190D01*
X149693333Y-122102571D01*
X149598095Y-122054952D01*
X149550476Y-122007333D01*
X149502857Y-121912095D01*
X149502857Y-121816857D01*
X149550476Y-121721619D01*
X149598095Y-121674000D01*
X149693333Y-121626381D01*
X149931429Y-121626381D01*
X150074286Y-121674000D01*
X151026667Y-122626381D02*
X150455238Y-122626381D01*
X150740952Y-122626381D02*
X150740952Y-121626381D01*
X150645714Y-121769238D01*
X150550476Y-121864476D01*
X150455238Y-121912095D01*
X147764762Y-107370619D02*
X147812381Y-107323000D01*
X147907619Y-107275381D01*
X148145715Y-107275381D01*
X148240953Y-107323000D01*
X148288572Y-107370619D01*
X148336191Y-107465857D01*
X148336191Y-107561095D01*
X148288572Y-107703952D01*
X147717143Y-108275381D01*
X148336191Y-108275381D01*
X148669524Y-107275381D02*
X149288572Y-107275381D01*
X148955238Y-107656333D01*
X149098096Y-107656333D01*
X149193334Y-107703952D01*
X149240953Y-107751571D01*
X149288572Y-107846810D01*
X149288572Y-108084905D01*
X149240953Y-108180143D01*
X149193334Y-108227762D01*
X149098096Y-108275381D01*
X148812381Y-108275381D01*
X148717143Y-108227762D01*
X148669524Y-108180143D01*
X149717143Y-108275381D02*
X149717143Y-107608714D01*
X149717143Y-107703952D02*
X149764762Y-107656333D01*
X149860000Y-107608714D01*
X150002858Y-107608714D01*
X150098096Y-107656333D01*
X150145715Y-107751571D01*
X150145715Y-108275381D01*
X150145715Y-107751571D02*
X150193334Y-107656333D01*
X150288572Y-107608714D01*
X150431429Y-107608714D01*
X150526667Y-107656333D01*
X150574286Y-107751571D01*
X150574286Y-108275381D01*
X151050476Y-108275381D02*
X151050476Y-107608714D01*
X151050476Y-107703952D02*
X151098095Y-107656333D01*
X151193333Y-107608714D01*
X151336191Y-107608714D01*
X151431429Y-107656333D01*
X151479048Y-107751571D01*
X151479048Y-108275381D01*
X151479048Y-107751571D02*
X151526667Y-107656333D01*
X151621905Y-107608714D01*
X151764762Y-107608714D01*
X151860000Y-107656333D01*
X151907619Y-107751571D01*
X151907619Y-108275381D01*
X147717143Y-103592381D02*
X148336191Y-103592381D01*
X148002857Y-103973333D01*
X148145715Y-103973333D01*
X148240953Y-104020952D01*
X148288572Y-104068571D01*
X148336191Y-104163810D01*
X148336191Y-104401905D01*
X148288572Y-104497143D01*
X148240953Y-104544762D01*
X148145715Y-104592381D01*
X147860000Y-104592381D01*
X147764762Y-104544762D01*
X147717143Y-104497143D01*
X148955238Y-103592381D02*
X149050477Y-103592381D01*
X149145715Y-103640000D01*
X149193334Y-103687619D01*
X149240953Y-103782857D01*
X149288572Y-103973333D01*
X149288572Y-104211429D01*
X149240953Y-104401905D01*
X149193334Y-104497143D01*
X149145715Y-104544762D01*
X149050477Y-104592381D01*
X148955238Y-104592381D01*
X148860000Y-104544762D01*
X148812381Y-104497143D01*
X148764762Y-104401905D01*
X148717143Y-104211429D01*
X148717143Y-103973333D01*
X148764762Y-103782857D01*
X148812381Y-103687619D01*
X148860000Y-103640000D01*
X148955238Y-103592381D01*
X149717143Y-104592381D02*
X149717143Y-103925714D01*
X149717143Y-104020952D02*
X149764762Y-103973333D01*
X149860000Y-103925714D01*
X150002858Y-103925714D01*
X150098096Y-103973333D01*
X150145715Y-104068571D01*
X150145715Y-104592381D01*
X150145715Y-104068571D02*
X150193334Y-103973333D01*
X150288572Y-103925714D01*
X150431429Y-103925714D01*
X150526667Y-103973333D01*
X150574286Y-104068571D01*
X150574286Y-104592381D01*
X151050476Y-104592381D02*
X151050476Y-103925714D01*
X151050476Y-104020952D02*
X151098095Y-103973333D01*
X151193333Y-103925714D01*
X151336191Y-103925714D01*
X151431429Y-103973333D01*
X151479048Y-104068571D01*
X151479048Y-104592381D01*
X151479048Y-104068571D02*
X151526667Y-103973333D01*
X151621905Y-103925714D01*
X151764762Y-103925714D01*
X151860000Y-103973333D01*
X151907619Y-104068571D01*
X151907619Y-104592381D01*
D10*
X171723095Y-110756429D02*
X171685000Y-110718334D01*
X171646905Y-110642143D01*
X171646905Y-110451667D01*
X171685000Y-110375477D01*
X171723095Y-110337381D01*
X171799286Y-110299286D01*
X171875476Y-110299286D01*
X171989762Y-110337381D01*
X172446905Y-110794524D01*
X172446905Y-110299286D01*
X172446905Y-109956429D02*
X171646905Y-109956429D01*
X172446905Y-109499286D01*
X171646905Y-109499286D01*
X171646905Y-109194524D02*
X171646905Y-108699286D01*
X171951667Y-108965953D01*
X171951667Y-108851667D01*
X171989762Y-108775477D01*
X172027857Y-108737381D01*
X172104048Y-108699286D01*
X172294524Y-108699286D01*
X172370714Y-108737381D01*
X172408810Y-108775477D01*
X172446905Y-108851667D01*
X172446905Y-109080239D01*
X172408810Y-109156429D01*
X172370714Y-109194524D01*
X172446905Y-108318334D02*
X172446905Y-108165953D01*
X172408810Y-108089762D01*
X172370714Y-108051667D01*
X172256429Y-107975476D01*
X172104048Y-107937381D01*
X171799286Y-107937381D01*
X171723095Y-107975476D01*
X171685000Y-108013572D01*
X171646905Y-108089762D01*
X171646905Y-108242143D01*
X171685000Y-108318334D01*
X171723095Y-108356429D01*
X171799286Y-108394524D01*
X171989762Y-108394524D01*
X172065952Y-108356429D01*
X172104048Y-108318334D01*
X172142143Y-108242143D01*
X172142143Y-108089762D01*
X172104048Y-108013572D01*
X172065952Y-107975476D01*
X171989762Y-107937381D01*
X171646905Y-107442143D02*
X171646905Y-107365952D01*
X171685000Y-107289762D01*
X171723095Y-107251667D01*
X171799286Y-107213571D01*
X171951667Y-107175476D01*
X172142143Y-107175476D01*
X172294524Y-107213571D01*
X172370714Y-107251667D01*
X172408810Y-107289762D01*
X172446905Y-107365952D01*
X172446905Y-107442143D01*
X172408810Y-107518333D01*
X172370714Y-107556429D01*
X172294524Y-107594524D01*
X172142143Y-107632619D01*
X171951667Y-107632619D01*
X171799286Y-107594524D01*
X171723095Y-107556429D01*
X171685000Y-107518333D01*
X171646905Y-107442143D01*
X171913571Y-106489762D02*
X172446905Y-106489762D01*
X171608810Y-106680238D02*
X172180238Y-106870714D01*
X172180238Y-106375476D01*
M02*
