G04 #@! TF.FileFunction,Soldermask,Top*
%FSLAX46Y46*%
G04 Gerber Fmt 4.6, Leading zero omitted, Abs format (unit mm)*
G04 Created by KiCad (PCBNEW 4.0.7) date 12/29/19 23:23:21*
%MOMM*%
%LPD*%
G01*
G04 APERTURE LIST*
%ADD10C,0.100000*%
%ADD11C,2.000000*%
%ADD12O,2.000000X2.000000*%
%ADD13C,2.400000*%
%ADD14R,2.100000X2.100000*%
%ADD15O,2.100000X2.100000*%
%ADD16R,2.900000X3.900000*%
%ADD17O,3.900000X2.150000*%
%ADD18C,1.924000*%
%ADD19C,1.920000*%
%ADD20R,1.920000X1.920000*%
G04 APERTURE END LIST*
D10*
D11*
X151130000Y-86360000D03*
X151130000Y-91360000D03*
X156210000Y-86360000D03*
X156210000Y-91360000D03*
X133350000Y-132715000D03*
D12*
X133350000Y-122555000D03*
D11*
X135255000Y-86360000D03*
D12*
X145415000Y-86360000D03*
D13*
X106680000Y-141025000D03*
X106680000Y-136525000D03*
X113180000Y-141025000D03*
X113180000Y-136525000D03*
X118110000Y-141025000D03*
X118110000Y-136525000D03*
X124610000Y-141025000D03*
X124610000Y-136525000D03*
D11*
X120650000Y-132715000D03*
D12*
X120650000Y-122555000D03*
D11*
X124460000Y-132715000D03*
D12*
X124460000Y-122555000D03*
D11*
X121920000Y-86360000D03*
D12*
X132080000Y-86360000D03*
D11*
X119380000Y-90170000D03*
D12*
X129540000Y-90170000D03*
D11*
X116840000Y-93980000D03*
D12*
X127000000Y-93980000D03*
D11*
X114300000Y-97790000D03*
D12*
X124460000Y-97790000D03*
D11*
X111760000Y-101600000D03*
D12*
X121920000Y-101600000D03*
D11*
X109220000Y-105410000D03*
D12*
X119380000Y-105410000D03*
D11*
X106680000Y-109220000D03*
D12*
X116840000Y-109220000D03*
D11*
X104140000Y-113030000D03*
D12*
X114300000Y-113030000D03*
D11*
X101600000Y-116840000D03*
D12*
X111760000Y-116840000D03*
D11*
X129540000Y-132715000D03*
D12*
X129540000Y-122555000D03*
D11*
X132715000Y-90170000D03*
D12*
X142875000Y-90170000D03*
D11*
X130175000Y-93980000D03*
D12*
X140335000Y-93980000D03*
D11*
X127635000Y-97790000D03*
D12*
X137795000Y-97790000D03*
D11*
X125095000Y-101600000D03*
D12*
X135255000Y-101600000D03*
D11*
X122555000Y-105410000D03*
D12*
X132715000Y-105410000D03*
D11*
X120015000Y-109220000D03*
D12*
X130175000Y-109220000D03*
D11*
X117475000Y-113030000D03*
D12*
X127635000Y-113030000D03*
D11*
X166370000Y-132715000D03*
D12*
X166370000Y-122555000D03*
D11*
X170180000Y-132715000D03*
D12*
X170180000Y-122555000D03*
D11*
X175260000Y-132715000D03*
D12*
X175260000Y-122555000D03*
D11*
X179070000Y-132715000D03*
D12*
X179070000Y-122555000D03*
D13*
X129540000Y-141025000D03*
X129540000Y-136525000D03*
X136040000Y-141025000D03*
X136040000Y-136525000D03*
X140970000Y-141025000D03*
X140970000Y-136525000D03*
X147470000Y-141025000D03*
X147470000Y-136525000D03*
X152400000Y-141025000D03*
X152400000Y-136525000D03*
X158900000Y-141025000D03*
X158900000Y-136525000D03*
X163830000Y-141025000D03*
X163830000Y-136525000D03*
X170330000Y-141025000D03*
X170330000Y-136525000D03*
X175260000Y-141025000D03*
X175260000Y-136525000D03*
X181760000Y-141025000D03*
X181760000Y-136525000D03*
X186690000Y-141025000D03*
X186690000Y-136525000D03*
X193190000Y-141025000D03*
X193190000Y-136525000D03*
D14*
X104140000Y-80010000D03*
D15*
X106680000Y-80010000D03*
X109220000Y-80010000D03*
X111760000Y-80010000D03*
X114300000Y-80010000D03*
X116840000Y-80010000D03*
X119380000Y-80010000D03*
X121920000Y-80010000D03*
X124460000Y-80010000D03*
X127000000Y-80010000D03*
D14*
X198120000Y-145415000D03*
D15*
X195580000Y-145415000D03*
X193040000Y-145415000D03*
X190500000Y-145415000D03*
X187960000Y-145415000D03*
X185420000Y-145415000D03*
X182880000Y-145415000D03*
X180340000Y-145415000D03*
X177800000Y-145415000D03*
X175260000Y-145415000D03*
X172720000Y-145415000D03*
X170180000Y-145415000D03*
X167640000Y-145415000D03*
X165100000Y-145415000D03*
X162560000Y-145415000D03*
X160020000Y-145415000D03*
X157480000Y-145415000D03*
X154940000Y-145415000D03*
X152400000Y-145415000D03*
X149860000Y-145415000D03*
X147320000Y-145415000D03*
X144780000Y-145415000D03*
X142240000Y-145415000D03*
X139700000Y-145415000D03*
X137160000Y-145415000D03*
X134620000Y-145415000D03*
X132080000Y-145415000D03*
X129540000Y-145415000D03*
X127000000Y-145415000D03*
X124460000Y-145415000D03*
X121920000Y-145415000D03*
X119380000Y-145415000D03*
X116840000Y-145415000D03*
X114300000Y-145415000D03*
X111760000Y-145415000D03*
X109220000Y-145415000D03*
X106680000Y-145415000D03*
X104140000Y-145415000D03*
X101600000Y-145415000D03*
D14*
X132080000Y-80010000D03*
D15*
X134620000Y-80010000D03*
X137160000Y-80010000D03*
X139700000Y-80010000D03*
X142240000Y-80010000D03*
X144780000Y-80010000D03*
X147320000Y-80010000D03*
X149860000Y-80010000D03*
X152400000Y-80010000D03*
X154940000Y-80010000D03*
D16*
X195271000Y-95885000D03*
D17*
X190265000Y-100885000D03*
X190265000Y-90885000D03*
X190265000Y-98385000D03*
X190265000Y-93385000D03*
D14*
X178435000Y-109855000D03*
D15*
X178435000Y-107315000D03*
D11*
X179070000Y-114935000D03*
D12*
X168910000Y-114935000D03*
D18*
X152360000Y-117602000D03*
X147360000Y-117475000D03*
X154860000Y-117602000D03*
X144860000Y-117475000D03*
X142360000Y-117475000D03*
X157360000Y-117602000D03*
D19*
X170180000Y-108585000D03*
X170180000Y-111125000D03*
D20*
X170180000Y-106045000D03*
M02*
