G04 #@! TF.GenerationSoftware,KiCad,Pcbnew,(5.1.5)-3*
G04 #@! TF.CreationDate,2020-10-11T23:54:53+02:00*
G04 #@! TF.ProjectId,PB-002 Covox Sound,50422d30-3032-4204-936f-766f7820536f,rev?*
G04 #@! TF.SameCoordinates,Original*
G04 #@! TF.FileFunction,Legend,Bot*
G04 #@! TF.FilePolarity,Positive*
%FSLAX46Y46*%
G04 Gerber Fmt 4.6, Leading zero omitted, Abs format (unit mm)*
G04 Created by KiCad (PCBNEW (5.1.5)-3) date 2020-10-11 23:54:53*
%MOMM*%
%LPD*%
G04 APERTURE LIST*
%ADD10C,0.200000*%
%ADD11C,0.100000*%
%ADD12C,0.150000*%
G04 APERTURE END LIST*
D10*
X133350000Y-82550000D02*
X148590000Y-82550000D01*
D11*
X133013333Y-82911904D02*
X133013333Y-82111904D01*
X132708571Y-82111904D01*
X132632380Y-82150000D01*
X132594285Y-82188095D01*
X132556190Y-82264285D01*
X132556190Y-82378571D01*
X132594285Y-82454761D01*
X132632380Y-82492857D01*
X132708571Y-82530952D01*
X133013333Y-82530952D01*
X132251428Y-82683333D02*
X131870476Y-82683333D01*
X132327619Y-82911904D02*
X132060952Y-82111904D01*
X131794285Y-82911904D01*
X131375238Y-82111904D02*
X131299047Y-82111904D01*
X131222857Y-82150000D01*
X131184761Y-82188095D01*
X131146666Y-82264285D01*
X131108571Y-82416666D01*
X131108571Y-82607142D01*
X131146666Y-82759523D01*
X131184761Y-82835714D01*
X131222857Y-82873809D01*
X131299047Y-82911904D01*
X131375238Y-82911904D01*
X131451428Y-82873809D01*
X131489523Y-82835714D01*
X131527619Y-82759523D01*
X131565714Y-82607142D01*
X131565714Y-82416666D01*
X131527619Y-82264285D01*
X131489523Y-82188095D01*
X131451428Y-82150000D01*
X131375238Y-82111904D01*
X150793333Y-82911904D02*
X150793333Y-82111904D01*
X150488571Y-82111904D01*
X150412380Y-82150000D01*
X150374285Y-82188095D01*
X150336190Y-82264285D01*
X150336190Y-82378571D01*
X150374285Y-82454761D01*
X150412380Y-82492857D01*
X150488571Y-82530952D01*
X150793333Y-82530952D01*
X150031428Y-82683333D02*
X149650476Y-82683333D01*
X150107619Y-82911904D02*
X149840952Y-82111904D01*
X149574285Y-82911904D01*
X149383809Y-82111904D02*
X148850476Y-82111904D01*
X149193333Y-82911904D01*
D10*
X105410000Y-82550000D02*
X120650000Y-82550000D01*
D11*
X122853333Y-82911904D02*
X122853333Y-82111904D01*
X122548571Y-82111904D01*
X122472380Y-82150000D01*
X122434285Y-82188095D01*
X122396190Y-82264285D01*
X122396190Y-82378571D01*
X122434285Y-82454761D01*
X122472380Y-82492857D01*
X122548571Y-82530952D01*
X122853333Y-82530952D01*
X122091428Y-82683333D02*
X121710476Y-82683333D01*
X122167619Y-82911904D02*
X121900952Y-82111904D01*
X121634285Y-82911904D01*
X121443809Y-82111904D02*
X120910476Y-82111904D01*
X121253333Y-82911904D01*
X105073333Y-82911904D02*
X105073333Y-82111904D01*
X104768571Y-82111904D01*
X104692380Y-82150000D01*
X104654285Y-82188095D01*
X104616190Y-82264285D01*
X104616190Y-82378571D01*
X104654285Y-82454761D01*
X104692380Y-82492857D01*
X104768571Y-82530952D01*
X105073333Y-82530952D01*
X104311428Y-82683333D02*
X103930476Y-82683333D01*
X104387619Y-82911904D02*
X104120952Y-82111904D01*
X103854285Y-82911904D01*
X103435238Y-82111904D02*
X103359047Y-82111904D01*
X103282857Y-82150000D01*
X103244761Y-82188095D01*
X103206666Y-82264285D01*
X103168571Y-82416666D01*
X103168571Y-82607142D01*
X103206666Y-82759523D01*
X103244761Y-82835714D01*
X103282857Y-82873809D01*
X103359047Y-82911904D01*
X103435238Y-82911904D01*
X103511428Y-82873809D01*
X103549523Y-82835714D01*
X103587619Y-82759523D01*
X103625714Y-82607142D01*
X103625714Y-82416666D01*
X103587619Y-82264285D01*
X103549523Y-82188095D01*
X103511428Y-82150000D01*
X103435238Y-82111904D01*
D12*
X108505238Y-143962380D02*
X108838571Y-143486190D01*
X109076666Y-143962380D02*
X109076666Y-142962380D01*
X108695714Y-142962380D01*
X108600476Y-143010000D01*
X108552857Y-143057619D01*
X108505238Y-143152857D01*
X108505238Y-143295714D01*
X108552857Y-143390952D01*
X108600476Y-143438571D01*
X108695714Y-143486190D01*
X109076666Y-143486190D01*
X107695714Y-143914761D02*
X107790952Y-143962380D01*
X107981428Y-143962380D01*
X108076666Y-143914761D01*
X108124285Y-143819523D01*
X108124285Y-143438571D01*
X108076666Y-143343333D01*
X107981428Y-143295714D01*
X107790952Y-143295714D01*
X107695714Y-143343333D01*
X107648095Y-143438571D01*
X107648095Y-143533809D01*
X108124285Y-143629047D01*
X107314761Y-143295714D02*
X107076666Y-143962380D01*
X106838571Y-143295714D01*
X106457619Y-143962380D02*
X106457619Y-143295714D01*
X106457619Y-142962380D02*
X106505238Y-143010000D01*
X106457619Y-143057619D01*
X106410000Y-143010000D01*
X106457619Y-142962380D01*
X106457619Y-143057619D01*
X106029047Y-143914761D02*
X105933809Y-143962380D01*
X105743333Y-143962380D01*
X105648095Y-143914761D01*
X105600476Y-143819523D01*
X105600476Y-143771904D01*
X105648095Y-143676666D01*
X105743333Y-143629047D01*
X105886190Y-143629047D01*
X105981428Y-143581428D01*
X106029047Y-143486190D01*
X106029047Y-143438571D01*
X105981428Y-143343333D01*
X105886190Y-143295714D01*
X105743333Y-143295714D01*
X105648095Y-143343333D01*
X105171904Y-143962380D02*
X105171904Y-143295714D01*
X105171904Y-142962380D02*
X105219523Y-143010000D01*
X105171904Y-143057619D01*
X105124285Y-143010000D01*
X105171904Y-142962380D01*
X105171904Y-143057619D01*
X104552857Y-143962380D02*
X104648095Y-143914761D01*
X104695714Y-143867142D01*
X104743333Y-143771904D01*
X104743333Y-143486190D01*
X104695714Y-143390952D01*
X104648095Y-143343333D01*
X104552857Y-143295714D01*
X104410000Y-143295714D01*
X104314761Y-143343333D01*
X104267142Y-143390952D01*
X104219523Y-143486190D01*
X104219523Y-143771904D01*
X104267142Y-143867142D01*
X104314761Y-143914761D01*
X104410000Y-143962380D01*
X104552857Y-143962380D01*
X103790952Y-143295714D02*
X103790952Y-143962380D01*
X103790952Y-143390952D02*
X103743333Y-143343333D01*
X103648095Y-143295714D01*
X103505238Y-143295714D01*
X103410000Y-143343333D01*
X103362380Y-143438571D01*
X103362380Y-143962380D01*
X102171904Y-143676666D02*
X101695714Y-143676666D01*
X102267142Y-143962380D02*
X101933809Y-142962380D01*
X101600476Y-143962380D01*
M02*
