G04 #@! TF.FileFunction,Copper,L1,Top,Signal*
%FSLAX46Y46*%
G04 Gerber Fmt 4.6, Leading zero omitted, Abs format (unit mm)*
G04 Created by KiCad (PCBNEW 4.0.7) date 02/06/20 01:06:41*
%MOMM*%
%LPD*%
G01*
G04 APERTURE LIST*
%ADD10C,0.100000*%
%ADD11R,1.800000X1.800000*%
%ADD12C,1.800000*%
%ADD13C,2.000000*%
%ADD14R,1.700000X1.700000*%
%ADD15O,1.700000X1.700000*%
%ADD16C,1.600000*%
%ADD17O,1.600000X1.600000*%
%ADD18C,0.600000*%
%ADD19C,0.250000*%
G04 APERTURE END LIST*
D10*
D11*
X114554000Y-97155000D03*
D12*
X117094000Y-97155000D03*
D11*
X125349000Y-97155000D03*
D12*
X127889000Y-97155000D03*
D11*
X135509000Y-97155000D03*
D12*
X138049000Y-97155000D03*
D11*
X114554000Y-107950000D03*
D12*
X117094000Y-107950000D03*
D11*
X125349000Y-107950000D03*
D12*
X127889000Y-107950000D03*
D11*
X135509000Y-107950000D03*
D12*
X138049000Y-107950000D03*
D11*
X114554000Y-118872000D03*
D12*
X117094000Y-118872000D03*
D11*
X125349000Y-118872000D03*
D12*
X127889000Y-118872000D03*
D11*
X135509000Y-118872000D03*
D12*
X138049000Y-118872000D03*
D11*
X104775000Y-130175000D03*
D12*
X107315000Y-130175000D03*
D11*
X113030000Y-130175000D03*
D12*
X115570000Y-130175000D03*
D11*
X121285000Y-130175000D03*
D12*
X123825000Y-130175000D03*
D11*
X129540000Y-130175000D03*
D12*
X132080000Y-130175000D03*
D11*
X137795000Y-130175000D03*
D12*
X140335000Y-130175000D03*
D11*
X146050000Y-130175000D03*
D12*
X148590000Y-130175000D03*
D13*
X154940000Y-132135000D03*
X154940000Y-127635000D03*
X161440000Y-132135000D03*
X161440000Y-127635000D03*
X166370000Y-132135000D03*
X166370000Y-127635000D03*
X172870000Y-132135000D03*
X172870000Y-127635000D03*
X177800000Y-132135000D03*
X177800000Y-127635000D03*
X184300000Y-132135000D03*
X184300000Y-127635000D03*
X189230000Y-132135000D03*
X189230000Y-127635000D03*
X195730000Y-132135000D03*
X195730000Y-127635000D03*
X154940000Y-120705000D03*
X154940000Y-116205000D03*
X161440000Y-120705000D03*
X161440000Y-116205000D03*
X166370000Y-120705000D03*
X166370000Y-116205000D03*
X172870000Y-120705000D03*
X172870000Y-116205000D03*
X177800000Y-120705000D03*
X177800000Y-116205000D03*
X184300000Y-120705000D03*
X184300000Y-116205000D03*
X189230000Y-120705000D03*
X189230000Y-116205000D03*
X195730000Y-120705000D03*
X195730000Y-116205000D03*
X154940000Y-109275000D03*
X154940000Y-104775000D03*
X161440000Y-109275000D03*
X161440000Y-104775000D03*
X166370000Y-109275000D03*
X166370000Y-104775000D03*
X172870000Y-109275000D03*
X172870000Y-104775000D03*
X177800000Y-109275000D03*
X177800000Y-104775000D03*
X184300000Y-109275000D03*
X184300000Y-104775000D03*
X189230000Y-109275000D03*
X189230000Y-104775000D03*
X195730000Y-109275000D03*
X195730000Y-104775000D03*
X154940000Y-97845000D03*
X154940000Y-93345000D03*
X161440000Y-97845000D03*
X161440000Y-93345000D03*
X166370000Y-97845000D03*
X166370000Y-93345000D03*
X172870000Y-97845000D03*
X172870000Y-93345000D03*
X177800000Y-97845000D03*
X177800000Y-93345000D03*
X184300000Y-97845000D03*
X184300000Y-93345000D03*
X189230000Y-97845000D03*
X189230000Y-93345000D03*
X195730000Y-97845000D03*
X195730000Y-93345000D03*
D14*
X198120000Y-80010000D03*
D15*
X195580000Y-80010000D03*
X193040000Y-80010000D03*
X190500000Y-80010000D03*
X187960000Y-80010000D03*
X185420000Y-80010000D03*
X182880000Y-80010000D03*
X180340000Y-80010000D03*
X177800000Y-80010000D03*
X175260000Y-80010000D03*
X172720000Y-80010000D03*
X170180000Y-80010000D03*
X167640000Y-80010000D03*
X165100000Y-80010000D03*
X162560000Y-80010000D03*
X160020000Y-80010000D03*
X157480000Y-80010000D03*
X154940000Y-80010000D03*
X152400000Y-80010000D03*
X149860000Y-80010000D03*
X147320000Y-80010000D03*
X144780000Y-80010000D03*
X142240000Y-80010000D03*
X139700000Y-80010000D03*
X137160000Y-80010000D03*
X134620000Y-80010000D03*
X132080000Y-80010000D03*
X129540000Y-80010000D03*
X127000000Y-80010000D03*
X124460000Y-80010000D03*
X121920000Y-80010000D03*
X119380000Y-80010000D03*
X116840000Y-80010000D03*
X114300000Y-80010000D03*
X111760000Y-80010000D03*
X109220000Y-80010000D03*
X106680000Y-80010000D03*
X104140000Y-80010000D03*
X101600000Y-80010000D03*
D14*
X198120000Y-145415000D03*
D15*
X195580000Y-145415000D03*
X193040000Y-145415000D03*
X190500000Y-145415000D03*
X187960000Y-145415000D03*
X185420000Y-145415000D03*
X182880000Y-145415000D03*
X180340000Y-145415000D03*
X177800000Y-145415000D03*
X175260000Y-145415000D03*
X172720000Y-145415000D03*
X170180000Y-145415000D03*
X167640000Y-145415000D03*
X165100000Y-145415000D03*
X162560000Y-145415000D03*
X160020000Y-145415000D03*
X157480000Y-145415000D03*
X154940000Y-145415000D03*
X152400000Y-145415000D03*
X149860000Y-145415000D03*
X147320000Y-145415000D03*
X144780000Y-145415000D03*
X142240000Y-145415000D03*
X139700000Y-145415000D03*
X137160000Y-145415000D03*
X134620000Y-145415000D03*
X132080000Y-145415000D03*
X129540000Y-145415000D03*
X127000000Y-145415000D03*
X124460000Y-145415000D03*
X121920000Y-145415000D03*
X119380000Y-145415000D03*
X116840000Y-145415000D03*
X114300000Y-145415000D03*
X111760000Y-145415000D03*
X109220000Y-145415000D03*
X106680000Y-145415000D03*
X104140000Y-145415000D03*
X101600000Y-145415000D03*
D16*
X107950000Y-83820000D03*
D17*
X118110000Y-83820000D03*
D16*
X107950000Y-87630000D03*
D17*
X118110000Y-87630000D03*
D16*
X107950000Y-91440000D03*
D17*
X118110000Y-91440000D03*
D16*
X121285000Y-83820000D03*
D17*
X131445000Y-83820000D03*
D16*
X121285000Y-87630000D03*
D17*
X131445000Y-87630000D03*
D16*
X121285000Y-91440000D03*
D17*
X131445000Y-91440000D03*
D16*
X134620000Y-83820000D03*
D17*
X144780000Y-83820000D03*
D16*
X134620000Y-87630000D03*
D17*
X144780000Y-87630000D03*
D16*
X134620000Y-91440000D03*
D17*
X144780000Y-91440000D03*
D16*
X107950000Y-137160000D03*
D17*
X118110000Y-137160000D03*
D16*
X107950000Y-140970000D03*
D17*
X118110000Y-140970000D03*
D16*
X121285000Y-137160000D03*
D17*
X131445000Y-137160000D03*
D16*
X121285000Y-140970000D03*
D17*
X131445000Y-140970000D03*
D16*
X134620000Y-137160000D03*
D17*
X144780000Y-137160000D03*
D16*
X134620000Y-140970000D03*
D17*
X144780000Y-140970000D03*
D18*
X119380000Y-95885000D03*
X119380000Y-93980000D03*
X120650000Y-93980000D03*
X120015000Y-96520000D03*
X119380000Y-135890000D03*
X161290000Y-81280000D03*
X148590000Y-83820000D03*
X147955000Y-83185000D03*
X137160000Y-82550000D03*
X124460000Y-81915000D03*
X123825000Y-82550000D03*
X122555000Y-142240000D03*
X120650000Y-144145000D03*
D19*
X138049000Y-118872000D02*
X138049000Y-119761000D01*
X138049000Y-119761000D02*
X137160000Y-120650000D01*
X127889000Y-118872000D02*
X127889000Y-119761000D01*
X127889000Y-119761000D02*
X127000000Y-120650000D01*
X117094000Y-118872000D02*
X117094000Y-119761000D01*
X117094000Y-119761000D02*
X116205000Y-120650000D01*
X117094000Y-107950000D02*
X117094000Y-97155000D01*
X138049000Y-107950000D02*
X138049000Y-97155000D01*
X127889000Y-107950000D02*
X127889000Y-97155000D01*
X127000000Y-120650000D02*
X137160000Y-120650000D01*
X116205000Y-120650000D02*
X127000000Y-120650000D01*
X102235000Y-120650000D02*
X101600000Y-121285000D01*
X116205000Y-120650000D02*
X102235000Y-120650000D01*
X101600000Y-128905000D02*
X101600000Y-121285000D01*
X101600000Y-121285000D02*
X101600000Y-80010000D01*
X139700000Y-128270000D02*
X147955000Y-128270000D01*
X148590000Y-128905000D02*
X148590000Y-130175000D01*
X147955000Y-128270000D02*
X148590000Y-128905000D01*
X131445000Y-128270000D02*
X139700000Y-128270000D01*
X140335000Y-128905000D02*
X140335000Y-130175000D01*
X139700000Y-128270000D02*
X140335000Y-128905000D01*
X123190000Y-128270000D02*
X131445000Y-128270000D01*
X132080000Y-128905000D02*
X132080000Y-130175000D01*
X131445000Y-128270000D02*
X132080000Y-128905000D01*
X114935000Y-128270000D02*
X116205000Y-128270000D01*
X116205000Y-128270000D02*
X123190000Y-128270000D01*
X123825000Y-128905000D02*
X123825000Y-130175000D01*
X123190000Y-128270000D02*
X123825000Y-128905000D01*
X106680000Y-128270000D02*
X114935000Y-128270000D01*
X115570000Y-128905000D02*
X115570000Y-130175000D01*
X114935000Y-128270000D02*
X115570000Y-128905000D01*
X101600000Y-145415000D02*
X101600000Y-128905000D01*
X107315000Y-128905000D02*
X107315000Y-130175000D01*
X106680000Y-128270000D02*
X107315000Y-128905000D01*
X102235000Y-128270000D02*
X106680000Y-128270000D01*
X101600000Y-128905000D02*
X102235000Y-128270000D01*
X114554000Y-97155000D02*
X114554000Y-84836000D01*
X115570000Y-83820000D02*
X118110000Y-83820000D01*
X114554000Y-84836000D02*
X115570000Y-83820000D01*
X118110000Y-87630000D02*
X116205000Y-87630000D01*
X125349000Y-96139000D02*
X125349000Y-97155000D01*
X124460000Y-95250000D02*
X125349000Y-96139000D01*
X116205000Y-95250000D02*
X124460000Y-95250000D01*
X115570000Y-94615000D02*
X116205000Y-95250000D01*
X115570000Y-88265000D02*
X115570000Y-94615000D01*
X116205000Y-87630000D02*
X115570000Y-88265000D01*
X133985000Y-94615000D02*
X134620000Y-94615000D01*
X118110000Y-93980000D02*
X118745000Y-94615000D01*
X118745000Y-94615000D02*
X133985000Y-94615000D01*
X118110000Y-91440000D02*
X118110000Y-93980000D01*
X135509000Y-95504000D02*
X135509000Y-97155000D01*
X134620000Y-94615000D02*
X135509000Y-95504000D01*
X114554000Y-109855000D02*
X114554000Y-110744000D01*
X114935000Y-111125000D02*
X115570000Y-111125000D01*
X114554000Y-110744000D02*
X114935000Y-111125000D01*
X119380000Y-99060000D02*
X119380000Y-110490000D01*
X114554000Y-109855000D02*
X114554000Y-107950000D01*
X118745000Y-111125000D02*
X115570000Y-111125000D01*
X119380000Y-110490000D02*
X118745000Y-111125000D01*
X131445000Y-83820000D02*
X124460000Y-83820000D01*
X119380000Y-95885000D02*
X119380000Y-99060000D01*
X120015000Y-93345000D02*
X119380000Y-93980000D01*
X123190000Y-93345000D02*
X120015000Y-93345000D01*
X123825000Y-92710000D02*
X123190000Y-93345000D01*
X123825000Y-84455000D02*
X123825000Y-92710000D01*
X124460000Y-83820000D02*
X123825000Y-84455000D01*
X120015000Y-96520000D02*
X120015000Y-107315000D01*
X125095000Y-87630000D02*
X124460000Y-88265000D01*
X124460000Y-88265000D02*
X124460000Y-93345000D01*
X124460000Y-93345000D02*
X123825000Y-93980000D01*
X123825000Y-93980000D02*
X120650000Y-93980000D01*
X131445000Y-87630000D02*
X125095000Y-87630000D01*
X120650000Y-107950000D02*
X125349000Y-107950000D01*
X120015000Y-107315000D02*
X120650000Y-107950000D01*
X135509000Y-107950000D02*
X135509000Y-110744000D01*
X140335000Y-110490000D02*
X140335000Y-105410000D01*
X139700000Y-111125000D02*
X140335000Y-110490000D01*
X135890000Y-111125000D02*
X139700000Y-111125000D01*
X135509000Y-110744000D02*
X135890000Y-111125000D01*
X131445000Y-91440000D02*
X131445000Y-93345000D01*
X140335000Y-94615000D02*
X140335000Y-105410000D01*
X139700000Y-93980000D02*
X140335000Y-94615000D01*
X132080000Y-93980000D02*
X139700000Y-93980000D01*
X131445000Y-93345000D02*
X132080000Y-93980000D01*
X114554000Y-118872000D02*
X114554000Y-112141000D01*
X115570000Y-111760000D02*
X140335000Y-111760000D01*
X140335000Y-111760000D02*
X140970000Y-111125000D01*
X140970000Y-111125000D02*
X140970000Y-84455000D01*
X140970000Y-84455000D02*
X141605000Y-83820000D01*
X141605000Y-83820000D02*
X144780000Y-83820000D01*
X114935000Y-111760000D02*
X115570000Y-111760000D01*
X114554000Y-112141000D02*
X114935000Y-111760000D01*
X125349000Y-118872000D02*
X125349000Y-113411000D01*
X142240000Y-87630000D02*
X141605000Y-88265000D01*
X141605000Y-88265000D02*
X141605000Y-111760000D01*
X141605000Y-111760000D02*
X140970000Y-112395000D01*
X140970000Y-112395000D02*
X126365000Y-112395000D01*
X142240000Y-87630000D02*
X144780000Y-87630000D01*
X125349000Y-113411000D02*
X126365000Y-112395000D01*
X135509000Y-118872000D02*
X135509000Y-114046000D01*
X135509000Y-114046000D02*
X136525000Y-113030000D01*
X144780000Y-91440000D02*
X142875000Y-91440000D01*
X141605000Y-113030000D02*
X136525000Y-113030000D01*
X142240000Y-112395000D02*
X141605000Y-113030000D01*
X142240000Y-92075000D02*
X142240000Y-112395000D01*
X142875000Y-91440000D02*
X142240000Y-92075000D01*
X104775000Y-130175000D02*
X104775000Y-135255000D01*
X117475000Y-135890000D02*
X118110000Y-136525000D01*
X105410000Y-135890000D02*
X117475000Y-135890000D01*
X104775000Y-135255000D02*
X105410000Y-135890000D01*
X118110000Y-136525000D02*
X118110000Y-137160000D01*
X119380000Y-135890000D02*
X118745000Y-135255000D01*
X118745000Y-135255000D02*
X113665000Y-135255000D01*
X113665000Y-135255000D02*
X113030000Y-134620000D01*
X113030000Y-134620000D02*
X113030000Y-130175000D01*
X121285000Y-130175000D02*
X121285000Y-135255000D01*
X130810000Y-135890000D02*
X131445000Y-136525000D01*
X121920000Y-135890000D02*
X130810000Y-135890000D01*
X121285000Y-135255000D02*
X121920000Y-135890000D01*
X131445000Y-136525000D02*
X131445000Y-137160000D01*
X131445000Y-140970000D02*
X132080000Y-140970000D01*
X132080000Y-140970000D02*
X132715000Y-140335000D01*
X132715000Y-140335000D02*
X132715000Y-135890000D01*
X132715000Y-135890000D02*
X132080000Y-135255000D01*
X132080000Y-135255000D02*
X130175000Y-135255000D01*
X130175000Y-135255000D02*
X129540000Y-134620000D01*
X129540000Y-134620000D02*
X129540000Y-130175000D01*
X137795000Y-130175000D02*
X137795000Y-135255000D01*
X144145000Y-135890000D02*
X144780000Y-136525000D01*
X138430000Y-135890000D02*
X144145000Y-135890000D01*
X137795000Y-135255000D02*
X138430000Y-135890000D01*
X144780000Y-136525000D02*
X144780000Y-137160000D01*
X144780000Y-140970000D02*
X145415000Y-140970000D01*
X145415000Y-140970000D02*
X146050000Y-140335000D01*
X146050000Y-140335000D02*
X146050000Y-130175000D01*
X172870000Y-93345000D02*
X177800000Y-93345000D01*
X161440000Y-93345000D02*
X166370000Y-93345000D01*
X180340000Y-81280000D02*
X180975000Y-81915000D01*
X198120000Y-83185000D02*
X198120000Y-82550000D01*
X197485000Y-81915000D02*
X196850000Y-81915000D01*
X198120000Y-82550000D02*
X197485000Y-81915000D01*
X180340000Y-80010000D02*
X180340000Y-81280000D01*
X198120000Y-83185000D02*
X198120000Y-93980000D01*
X180975000Y-81915000D02*
X196850000Y-81915000D01*
X198120000Y-115570000D02*
X198120000Y-127000000D01*
X197485000Y-127635000D02*
X195730000Y-127635000D01*
X198120000Y-127000000D02*
X197485000Y-127635000D01*
X198120000Y-104140000D02*
X198120000Y-115570000D01*
X197485000Y-116205000D02*
X195730000Y-116205000D01*
X198120000Y-115570000D02*
X197485000Y-116205000D01*
X195730000Y-93345000D02*
X197485000Y-93345000D01*
X197485000Y-104775000D02*
X195730000Y-104775000D01*
X198120000Y-104140000D02*
X197485000Y-104775000D01*
X198120000Y-93980000D02*
X198120000Y-104140000D01*
X197485000Y-93345000D02*
X198120000Y-93980000D01*
X166370000Y-93345000D02*
X172870000Y-93345000D01*
X177800000Y-93345000D02*
X184300000Y-93345000D01*
X184300000Y-93345000D02*
X189230000Y-93345000D01*
X189230000Y-93345000D02*
X195730000Y-93345000D01*
X177800000Y-104775000D02*
X184300000Y-104775000D01*
X184300000Y-104775000D02*
X189230000Y-104775000D01*
X189230000Y-104775000D02*
X195730000Y-104775000D01*
X166370000Y-104775000D02*
X172870000Y-104775000D01*
X161440000Y-104775000D02*
X166370000Y-104775000D01*
X154940000Y-104775000D02*
X161440000Y-104775000D01*
X161440000Y-116205000D02*
X154940000Y-116205000D01*
X166370000Y-116205000D02*
X161440000Y-116205000D01*
X172870000Y-116205000D02*
X166370000Y-116205000D01*
X184300000Y-116205000D02*
X177800000Y-116205000D01*
X189230000Y-116205000D02*
X184300000Y-116205000D01*
X195730000Y-116205000D02*
X189230000Y-116205000D01*
X189230000Y-127635000D02*
X195730000Y-127635000D01*
X184300000Y-127635000D02*
X189230000Y-127635000D01*
X177800000Y-127635000D02*
X184300000Y-127635000D01*
X166370000Y-127635000D02*
X172870000Y-127635000D01*
X161440000Y-127635000D02*
X166370000Y-127635000D01*
X154940000Y-127635000D02*
X161440000Y-127635000D01*
X189230000Y-109275000D02*
X189230000Y-107315000D01*
X160655000Y-81915000D02*
X161290000Y-81280000D01*
X160655000Y-83820000D02*
X160655000Y-81915000D01*
X160020000Y-84455000D02*
X160655000Y-83820000D01*
X153670000Y-84455000D02*
X160020000Y-84455000D01*
X153035000Y-85090000D02*
X153670000Y-84455000D01*
X153035000Y-101600000D02*
X153035000Y-85090000D01*
X153670000Y-102235000D02*
X153035000Y-101600000D01*
X174625000Y-102235000D02*
X153670000Y-102235000D01*
X175260000Y-102870000D02*
X174625000Y-102235000D01*
X175260000Y-106045000D02*
X175260000Y-102870000D01*
X175895000Y-106680000D02*
X175260000Y-106045000D01*
X188595000Y-106680000D02*
X175895000Y-106680000D01*
X189230000Y-107315000D02*
X188595000Y-106680000D01*
X189230000Y-109275000D02*
X195730000Y-109275000D01*
X159385000Y-94615000D02*
X159385000Y-96520000D01*
X160020000Y-97155000D02*
X160750000Y-97155000D01*
X159385000Y-96520000D02*
X160020000Y-97155000D01*
X160750000Y-97155000D02*
X161440000Y-97845000D01*
X170180000Y-86360000D02*
X170180000Y-85090000D01*
X169545000Y-86995000D02*
X170180000Y-86360000D01*
X160020000Y-86995000D02*
X169545000Y-86995000D01*
X159385000Y-87630000D02*
X160020000Y-86995000D01*
X159385000Y-94615000D02*
X159385000Y-87630000D01*
X170180000Y-81280000D02*
X170180000Y-85090000D01*
X170180000Y-81280000D02*
X170180000Y-80010000D01*
X166370000Y-97845000D02*
X166370000Y-99695000D01*
X167640000Y-85725000D02*
X167640000Y-80010000D01*
X167005000Y-86360000D02*
X167640000Y-85725000D01*
X159385000Y-86360000D02*
X167005000Y-86360000D01*
X158750000Y-86995000D02*
X159385000Y-86360000D01*
X158750000Y-99695000D02*
X158750000Y-86995000D01*
X159385000Y-100330000D02*
X158750000Y-99695000D01*
X165735000Y-100330000D02*
X159385000Y-100330000D01*
X166370000Y-99695000D02*
X165735000Y-100330000D01*
X166370000Y-97845000D02*
X172870000Y-97845000D01*
X162560000Y-85725000D02*
X164465000Y-85725000D01*
X165100000Y-85090000D02*
X165100000Y-80010000D01*
X164465000Y-85725000D02*
X165100000Y-85090000D01*
X164465000Y-100965000D02*
X158750000Y-100965000D01*
X158750000Y-85725000D02*
X162560000Y-85725000D01*
X158115000Y-86360000D02*
X158750000Y-85725000D01*
X158115000Y-100330000D02*
X158115000Y-86360000D01*
X158750000Y-100965000D02*
X158115000Y-100330000D01*
X177800000Y-97845000D02*
X177800000Y-100330000D01*
X177165000Y-100965000D02*
X164465000Y-100965000D01*
X177800000Y-100330000D02*
X177165000Y-100965000D01*
X177800000Y-97845000D02*
X184300000Y-97845000D01*
X158115000Y-101600000D02*
X157480000Y-100965000D01*
X163830000Y-101600000D02*
X158115000Y-101600000D01*
X162560000Y-84455000D02*
X162560000Y-80010000D01*
X161925000Y-85090000D02*
X162560000Y-84455000D01*
X158115000Y-85090000D02*
X161925000Y-85090000D01*
X157480000Y-85725000D02*
X158115000Y-85090000D01*
X157480000Y-100965000D02*
X157480000Y-85725000D01*
X189230000Y-97845000D02*
X189230000Y-100330000D01*
X187960000Y-101600000D02*
X163830000Y-101600000D01*
X189230000Y-100330000D02*
X187960000Y-101600000D01*
X189230000Y-97845000D02*
X195730000Y-97845000D01*
X177800000Y-109275000D02*
X177800000Y-107950000D01*
X160020000Y-83185000D02*
X160020000Y-80010000D01*
X159385000Y-83820000D02*
X160020000Y-83185000D01*
X153035000Y-83820000D02*
X159385000Y-83820000D01*
X152400000Y-84455000D02*
X153035000Y-83820000D01*
X152400000Y-102235000D02*
X152400000Y-84455000D01*
X153035000Y-102870000D02*
X152400000Y-102235000D01*
X173990000Y-102870000D02*
X153035000Y-102870000D01*
X174625000Y-103505000D02*
X173990000Y-102870000D01*
X174625000Y-106680000D02*
X174625000Y-103505000D01*
X175260000Y-107315000D02*
X174625000Y-106680000D01*
X177165000Y-107315000D02*
X175260000Y-107315000D01*
X177800000Y-107950000D02*
X177165000Y-107315000D01*
X184300000Y-109275000D02*
X177800000Y-109275000D01*
X166370000Y-109275000D02*
X166370000Y-107315000D01*
X157480000Y-82550000D02*
X157480000Y-80010000D01*
X156845000Y-83185000D02*
X157480000Y-82550000D01*
X152400000Y-83185000D02*
X156845000Y-83185000D01*
X151765000Y-83820000D02*
X152400000Y-83185000D01*
X151765000Y-106045000D02*
X151765000Y-83820000D01*
X152400000Y-106680000D02*
X151765000Y-106045000D01*
X165735000Y-106680000D02*
X152400000Y-106680000D01*
X166370000Y-107315000D02*
X165735000Y-106680000D01*
X172870000Y-109275000D02*
X166370000Y-109275000D01*
X154940000Y-109275000D02*
X154940000Y-107950000D01*
X154940000Y-81915000D02*
X154940000Y-80010000D01*
X154305000Y-82550000D02*
X154940000Y-81915000D01*
X151765000Y-82550000D02*
X154305000Y-82550000D01*
X151130000Y-83185000D02*
X151765000Y-82550000D01*
X151130000Y-106680000D02*
X151130000Y-83185000D01*
X151765000Y-107315000D02*
X151130000Y-106680000D01*
X154305000Y-107315000D02*
X151765000Y-107315000D01*
X154940000Y-107950000D02*
X154305000Y-107315000D01*
X161440000Y-109275000D02*
X154940000Y-109275000D01*
X150495000Y-85725000D02*
X150495000Y-110490000D01*
X152400000Y-81280000D02*
X151765000Y-81915000D01*
X151765000Y-81915000D02*
X151130000Y-81915000D01*
X151130000Y-81915000D02*
X150495000Y-82550000D01*
X150495000Y-82550000D02*
X150495000Y-85725000D01*
X152400000Y-80010000D02*
X152400000Y-81280000D01*
X151130000Y-113665000D02*
X150495000Y-113030000D01*
X150495000Y-113030000D02*
X150495000Y-110490000D01*
X189230000Y-118745000D02*
X189230000Y-120705000D01*
X174625000Y-113665000D02*
X165735000Y-113665000D01*
X175260000Y-114300000D02*
X174625000Y-113665000D01*
X175260000Y-117475000D02*
X175260000Y-114300000D01*
X175895000Y-118110000D02*
X175260000Y-117475000D01*
X188595000Y-118110000D02*
X175895000Y-118110000D01*
X189230000Y-118745000D02*
X188595000Y-118110000D01*
X165735000Y-113665000D02*
X151130000Y-113665000D01*
X189230000Y-120705000D02*
X195730000Y-120705000D01*
X149860000Y-111760000D02*
X149860000Y-85725000D01*
X149860000Y-80010000D02*
X149860000Y-85725000D01*
X150495000Y-114300000D02*
X149860000Y-113665000D01*
X149860000Y-113665000D02*
X149860000Y-111760000D01*
X165735000Y-114300000D02*
X173990000Y-114300000D01*
X173990000Y-114300000D02*
X174625000Y-114935000D01*
X177800000Y-119380000D02*
X177800000Y-120705000D01*
X174625000Y-118110000D02*
X174625000Y-114935000D01*
X175260000Y-118745000D02*
X174625000Y-118110000D01*
X177165000Y-118745000D02*
X175260000Y-118745000D01*
X177800000Y-119380000D02*
X177165000Y-118745000D01*
X165735000Y-114300000D02*
X150495000Y-114300000D01*
X177800000Y-120705000D02*
X184300000Y-120705000D01*
X166370000Y-120705000D02*
X166370000Y-118745000D01*
X149225000Y-82550000D02*
X149225000Y-85090000D01*
X149225000Y-82550000D02*
X147320000Y-80645000D01*
X149225000Y-117475000D02*
X149225000Y-85090000D01*
X149860000Y-118110000D02*
X149225000Y-117475000D01*
X165735000Y-118110000D02*
X149860000Y-118110000D01*
X166370000Y-118745000D02*
X165735000Y-118110000D01*
X147320000Y-80010000D02*
X147320000Y-80645000D01*
X166370000Y-120705000D02*
X172870000Y-120705000D01*
X148590000Y-85725000D02*
X148590000Y-118110000D01*
X148590000Y-83820000D02*
X148590000Y-85725000D01*
X154940000Y-119380000D02*
X154940000Y-120705000D01*
X154305000Y-118745000D02*
X154940000Y-119380000D01*
X149225000Y-118745000D02*
X154305000Y-118745000D01*
X148590000Y-118110000D02*
X149225000Y-118745000D01*
X154940000Y-120705000D02*
X161440000Y-120705000D01*
X174625000Y-125095000D02*
X175260000Y-125730000D01*
X175895000Y-129540000D02*
X176530000Y-129540000D01*
X175260000Y-128905000D02*
X175895000Y-129540000D01*
X175260000Y-125730000D02*
X175260000Y-128905000D01*
X189230000Y-132135000D02*
X189230000Y-130175000D01*
X147955000Y-83185000D02*
X147955000Y-85725000D01*
X147955000Y-124460000D02*
X147955000Y-85725000D01*
X148590000Y-125095000D02*
X147955000Y-124460000D01*
X174625000Y-125095000D02*
X148590000Y-125095000D01*
X188595000Y-129540000D02*
X176530000Y-129540000D01*
X189230000Y-130175000D02*
X188595000Y-129540000D01*
X195730000Y-132135000D02*
X189230000Y-132135000D01*
X173990000Y-125730000D02*
X174625000Y-126365000D01*
X174625000Y-129540000D02*
X174625000Y-126365000D01*
X177800000Y-132135000D02*
X177800000Y-130810000D01*
X177165000Y-130175000D02*
X175260000Y-130175000D01*
X175260000Y-130175000D02*
X174625000Y-129540000D01*
X177800000Y-130810000D02*
X177165000Y-130175000D01*
X173990000Y-125730000D02*
X151765000Y-125730000D01*
X147320000Y-81915000D02*
X147320000Y-85090000D01*
X151765000Y-125730000D02*
X147955000Y-125730000D01*
X147955000Y-125730000D02*
X147320000Y-125095000D01*
X147320000Y-125095000D02*
X147320000Y-85090000D01*
X140335000Y-81280000D02*
X139700000Y-80645000D01*
X140335000Y-81280000D02*
X146685000Y-81280000D01*
X146685000Y-81280000D02*
X147320000Y-81915000D01*
X139700000Y-80010000D02*
X139700000Y-80645000D01*
X184300000Y-132135000D02*
X177800000Y-132135000D01*
X166370000Y-130810000D02*
X166370000Y-130175000D01*
X152400000Y-126365000D02*
X151130000Y-126365000D01*
X153035000Y-127000000D02*
X152400000Y-126365000D01*
X153035000Y-128905000D02*
X153035000Y-127000000D01*
X153670000Y-129540000D02*
X153035000Y-128905000D01*
X165735000Y-129540000D02*
X153670000Y-129540000D01*
X166370000Y-130175000D02*
X165735000Y-129540000D01*
X146685000Y-85090000D02*
X146685000Y-125730000D01*
X137160000Y-81280000D02*
X137795000Y-81915000D01*
X137795000Y-81915000D02*
X146050000Y-81915000D01*
X146050000Y-81915000D02*
X146685000Y-82550000D01*
X146685000Y-82550000D02*
X146685000Y-85090000D01*
X137160000Y-80010000D02*
X137160000Y-81280000D01*
X166370000Y-130810000D02*
X166370000Y-132135000D01*
X147320000Y-126365000D02*
X151130000Y-126365000D01*
X146685000Y-125730000D02*
X147320000Y-126365000D01*
X172870000Y-132135000D02*
X166370000Y-132135000D01*
X154940000Y-130810000D02*
X154305000Y-130175000D01*
X153035000Y-130175000D02*
X152400000Y-129540000D01*
X154305000Y-130175000D02*
X153035000Y-130175000D01*
X150495000Y-127000000D02*
X151765000Y-127000000D01*
X146050000Y-126365000D02*
X146685000Y-127000000D01*
X146685000Y-127000000D02*
X150495000Y-127000000D01*
X146050000Y-83185000D02*
X146050000Y-85090000D01*
X145415000Y-82550000D02*
X146050000Y-83185000D01*
X137160000Y-82550000D02*
X145415000Y-82550000D01*
X146050000Y-85090000D02*
X146050000Y-126365000D01*
X151765000Y-127000000D02*
X152400000Y-127635000D01*
X152400000Y-127635000D02*
X152400000Y-129540000D01*
X154940000Y-130810000D02*
X154940000Y-132135000D01*
X161440000Y-132135000D02*
X154940000Y-132135000D01*
X124460000Y-80010000D02*
X124460000Y-80645000D01*
X124460000Y-80645000D02*
X125095000Y-81280000D01*
X125095000Y-81280000D02*
X135890000Y-81280000D01*
X135890000Y-81280000D02*
X136525000Y-81915000D01*
X136525000Y-81915000D02*
X136525000Y-90805000D01*
X136525000Y-90805000D02*
X135890000Y-91440000D01*
X135890000Y-91440000D02*
X134620000Y-91440000D01*
X135890000Y-86995000D02*
X135255000Y-87630000D01*
X135890000Y-82550000D02*
X135890000Y-86995000D01*
X135255000Y-81915000D02*
X135890000Y-82550000D01*
X124460000Y-81915000D02*
X135255000Y-81915000D01*
X135255000Y-87630000D02*
X134620000Y-87630000D01*
X133985000Y-82550000D02*
X134620000Y-83185000D01*
X123825000Y-82550000D02*
X133985000Y-82550000D01*
X134620000Y-83185000D02*
X134620000Y-83820000D01*
X116840000Y-80010000D02*
X116840000Y-80645000D01*
X116840000Y-80645000D02*
X117475000Y-81280000D01*
X117475000Y-81280000D02*
X122555000Y-81280000D01*
X122555000Y-81280000D02*
X123190000Y-81915000D01*
X123190000Y-81915000D02*
X123190000Y-90805000D01*
X123190000Y-90805000D02*
X122555000Y-91440000D01*
X122555000Y-91440000D02*
X121285000Y-91440000D01*
X114300000Y-80010000D02*
X114300000Y-81280000D01*
X122555000Y-86995000D02*
X121920000Y-87630000D01*
X122555000Y-82550000D02*
X122555000Y-86995000D01*
X121920000Y-81915000D02*
X122555000Y-82550000D01*
X114935000Y-81915000D02*
X121920000Y-81915000D01*
X114300000Y-81280000D02*
X114935000Y-81915000D01*
X121920000Y-87630000D02*
X121285000Y-87630000D01*
X111760000Y-80010000D02*
X111760000Y-81915000D01*
X120650000Y-82550000D02*
X121285000Y-83185000D01*
X112395000Y-82550000D02*
X120650000Y-82550000D01*
X111760000Y-81915000D02*
X112395000Y-82550000D01*
X121285000Y-83185000D02*
X121285000Y-83820000D01*
X109220000Y-80010000D02*
X109220000Y-81915000D01*
X109220000Y-91440000D02*
X107950000Y-91440000D01*
X109855000Y-90805000D02*
X109220000Y-91440000D01*
X109855000Y-82550000D02*
X109855000Y-90805000D01*
X109220000Y-81915000D02*
X109855000Y-82550000D01*
X109220000Y-83185000D02*
X108585000Y-82550000D01*
X106680000Y-80010000D02*
X106680000Y-81915000D01*
X106680000Y-81915000D02*
X107315000Y-82550000D01*
X107315000Y-82550000D02*
X108585000Y-82550000D01*
X109220000Y-86995000D02*
X108585000Y-87630000D01*
X109220000Y-83185000D02*
X109220000Y-86995000D01*
X108585000Y-87630000D02*
X107950000Y-87630000D01*
X104140000Y-80010000D02*
X104140000Y-83185000D01*
X104775000Y-83820000D02*
X107950000Y-83820000D01*
X104140000Y-83185000D02*
X104775000Y-83820000D01*
X121285000Y-137160000D02*
X121920000Y-137160000D01*
X121920000Y-137160000D02*
X122555000Y-137795000D01*
X122555000Y-137795000D02*
X122555000Y-142240000D01*
X120650000Y-144145000D02*
X112395000Y-144145000D01*
X112395000Y-144145000D02*
X111760000Y-144780000D01*
X111760000Y-144780000D02*
X111760000Y-145415000D01*
X109220000Y-145415000D02*
X109220000Y-144145000D01*
X134620000Y-142875000D02*
X134620000Y-140970000D01*
X133985000Y-143510000D02*
X134620000Y-142875000D01*
X109855000Y-143510000D02*
X133985000Y-143510000D01*
X109220000Y-144145000D02*
X109855000Y-143510000D01*
X106680000Y-145415000D02*
X106680000Y-143510000D01*
X133350000Y-137795000D02*
X133985000Y-137160000D01*
X133350000Y-142240000D02*
X133350000Y-137795000D01*
X132715000Y-142875000D02*
X133350000Y-142240000D01*
X107315000Y-142875000D02*
X132715000Y-142875000D01*
X106680000Y-143510000D02*
X107315000Y-142875000D01*
X133985000Y-137160000D02*
X134620000Y-137160000D01*
X104140000Y-145415000D02*
X104140000Y-142875000D01*
X120650000Y-142240000D02*
X121285000Y-141605000D01*
X104775000Y-142240000D02*
X120650000Y-142240000D01*
X104140000Y-142875000D02*
X104775000Y-142240000D01*
X121285000Y-141605000D02*
X121285000Y-140970000D01*
M02*
