G04 #@! TF.FileFunction,Soldermask,Bot*
%FSLAX46Y46*%
G04 Gerber Fmt 4.6, Leading zero omitted, Abs format (unit mm)*
G04 Created by KiCad (PCBNEW 4.0.7) date 02/09/20 21:40:42*
%MOMM*%
%LPD*%
G01*
G04 APERTURE LIST*
%ADD10C,0.100000*%
%ADD11R,2.200000X2.200000*%
%ADD12C,2.200000*%
%ADD13C,2.400000*%
%ADD14R,2.100000X2.100000*%
%ADD15O,2.100000X2.100000*%
%ADD16C,2.000000*%
%ADD17O,2.000000X2.000000*%
G04 APERTURE END LIST*
D10*
D11*
X114554000Y-97155000D03*
D12*
X117094000Y-97155000D03*
D11*
X125349000Y-97155000D03*
D12*
X127889000Y-97155000D03*
D11*
X135509000Y-97155000D03*
D12*
X138049000Y-97155000D03*
D11*
X114554000Y-107950000D03*
D12*
X117094000Y-107950000D03*
D11*
X125349000Y-107950000D03*
D12*
X127889000Y-107950000D03*
D11*
X135509000Y-107950000D03*
D12*
X138049000Y-107950000D03*
D11*
X114554000Y-118872000D03*
D12*
X117094000Y-118872000D03*
D11*
X125349000Y-118872000D03*
D12*
X127889000Y-118872000D03*
D11*
X135509000Y-118872000D03*
D12*
X138049000Y-118872000D03*
D11*
X104775000Y-130175000D03*
D12*
X107315000Y-130175000D03*
D11*
X113030000Y-130175000D03*
D12*
X115570000Y-130175000D03*
D11*
X121285000Y-130175000D03*
D12*
X123825000Y-130175000D03*
D11*
X129540000Y-130175000D03*
D12*
X132080000Y-130175000D03*
D11*
X137795000Y-130175000D03*
D12*
X140335000Y-130175000D03*
D11*
X146050000Y-130175000D03*
D12*
X148590000Y-130175000D03*
D13*
X154940000Y-132135000D03*
X154940000Y-127635000D03*
X161440000Y-132135000D03*
X161440000Y-127635000D03*
X166370000Y-132135000D03*
X166370000Y-127635000D03*
X172870000Y-132135000D03*
X172870000Y-127635000D03*
X177800000Y-132135000D03*
X177800000Y-127635000D03*
X184300000Y-132135000D03*
X184300000Y-127635000D03*
X189230000Y-132135000D03*
X189230000Y-127635000D03*
X195730000Y-132135000D03*
X195730000Y-127635000D03*
X154940000Y-120705000D03*
X154940000Y-116205000D03*
X161440000Y-120705000D03*
X161440000Y-116205000D03*
X166370000Y-120705000D03*
X166370000Y-116205000D03*
X172870000Y-120705000D03*
X172870000Y-116205000D03*
X177800000Y-120705000D03*
X177800000Y-116205000D03*
X184300000Y-120705000D03*
X184300000Y-116205000D03*
X189230000Y-120705000D03*
X189230000Y-116205000D03*
X195730000Y-120705000D03*
X195730000Y-116205000D03*
X154940000Y-109275000D03*
X154940000Y-104775000D03*
X161440000Y-109275000D03*
X161440000Y-104775000D03*
X166370000Y-109275000D03*
X166370000Y-104775000D03*
X172870000Y-109275000D03*
X172870000Y-104775000D03*
X177800000Y-109275000D03*
X177800000Y-104775000D03*
X184300000Y-109275000D03*
X184300000Y-104775000D03*
X189230000Y-109275000D03*
X189230000Y-104775000D03*
X195730000Y-109275000D03*
X195730000Y-104775000D03*
X154940000Y-97845000D03*
X154940000Y-93345000D03*
X161440000Y-97845000D03*
X161440000Y-93345000D03*
X166370000Y-97845000D03*
X166370000Y-93345000D03*
X172870000Y-97845000D03*
X172870000Y-93345000D03*
X177800000Y-97845000D03*
X177800000Y-93345000D03*
X184300000Y-97845000D03*
X184300000Y-93345000D03*
X189230000Y-97845000D03*
X189230000Y-93345000D03*
X195730000Y-97845000D03*
X195730000Y-93345000D03*
D14*
X198120000Y-80010000D03*
D15*
X195580000Y-80010000D03*
X193040000Y-80010000D03*
X190500000Y-80010000D03*
X187960000Y-80010000D03*
X185420000Y-80010000D03*
X182880000Y-80010000D03*
X180340000Y-80010000D03*
X177800000Y-80010000D03*
X175260000Y-80010000D03*
X172720000Y-80010000D03*
X170180000Y-80010000D03*
X167640000Y-80010000D03*
X165100000Y-80010000D03*
X162560000Y-80010000D03*
X160020000Y-80010000D03*
X157480000Y-80010000D03*
X154940000Y-80010000D03*
X152400000Y-80010000D03*
X149860000Y-80010000D03*
X147320000Y-80010000D03*
X144780000Y-80010000D03*
X142240000Y-80010000D03*
X139700000Y-80010000D03*
X137160000Y-80010000D03*
X134620000Y-80010000D03*
X132080000Y-80010000D03*
X129540000Y-80010000D03*
X127000000Y-80010000D03*
X124460000Y-80010000D03*
X121920000Y-80010000D03*
X119380000Y-80010000D03*
X116840000Y-80010000D03*
X114300000Y-80010000D03*
X111760000Y-80010000D03*
X109220000Y-80010000D03*
X106680000Y-80010000D03*
X104140000Y-80010000D03*
X101600000Y-80010000D03*
D14*
X198120000Y-145415000D03*
D15*
X195580000Y-145415000D03*
X193040000Y-145415000D03*
X190500000Y-145415000D03*
X187960000Y-145415000D03*
X185420000Y-145415000D03*
X182880000Y-145415000D03*
X180340000Y-145415000D03*
X177800000Y-145415000D03*
X175260000Y-145415000D03*
X172720000Y-145415000D03*
X170180000Y-145415000D03*
X167640000Y-145415000D03*
X165100000Y-145415000D03*
X162560000Y-145415000D03*
X160020000Y-145415000D03*
X157480000Y-145415000D03*
X154940000Y-145415000D03*
X152400000Y-145415000D03*
X149860000Y-145415000D03*
X147320000Y-145415000D03*
X144780000Y-145415000D03*
X142240000Y-145415000D03*
X139700000Y-145415000D03*
X137160000Y-145415000D03*
X134620000Y-145415000D03*
X132080000Y-145415000D03*
X129540000Y-145415000D03*
X127000000Y-145415000D03*
X124460000Y-145415000D03*
X121920000Y-145415000D03*
X119380000Y-145415000D03*
X116840000Y-145415000D03*
X114300000Y-145415000D03*
X111760000Y-145415000D03*
X109220000Y-145415000D03*
X106680000Y-145415000D03*
X104140000Y-145415000D03*
X101600000Y-145415000D03*
D16*
X107950000Y-83820000D03*
D17*
X118110000Y-83820000D03*
D16*
X107950000Y-87630000D03*
D17*
X118110000Y-87630000D03*
D16*
X107950000Y-91440000D03*
D17*
X118110000Y-91440000D03*
D16*
X121285000Y-83820000D03*
D17*
X131445000Y-83820000D03*
D16*
X121285000Y-87630000D03*
D17*
X131445000Y-87630000D03*
D16*
X121285000Y-91440000D03*
D17*
X131445000Y-91440000D03*
D16*
X134620000Y-83820000D03*
D17*
X144780000Y-83820000D03*
D16*
X134620000Y-87630000D03*
D17*
X144780000Y-87630000D03*
D16*
X134620000Y-91440000D03*
D17*
X144780000Y-91440000D03*
D16*
X107950000Y-137160000D03*
D17*
X118110000Y-137160000D03*
D16*
X107950000Y-140970000D03*
D17*
X118110000Y-140970000D03*
D16*
X121285000Y-137160000D03*
D17*
X131445000Y-137160000D03*
D16*
X121285000Y-140970000D03*
D17*
X131445000Y-140970000D03*
D16*
X134620000Y-137160000D03*
D17*
X144780000Y-137160000D03*
D16*
X134620000Y-140970000D03*
D17*
X144780000Y-140970000D03*
M02*
