M48
;DRILL file {KiCad 4.0.7} date 02/09/20 21:40:43
;FORMAT={2:4/ absolute / inch / suppress leading zeros}
FMAT,2
INCH,TZ
T1C0.016
T2C0.031
T3C0.035
T4C0.039
T5C0.043
%
G90
G05
M72
T1
X47000Y-37000
X47000Y-37750
X47000Y-53500
X47250Y-38000
X47500Y-37000
X47500Y-56750
X48250Y-56000
X48750Y-32500
X49000Y-32250
X54000Y-32500
X58250Y-32750
X58500Y-33000
X63500Y-32000
T2
X42500Y-33000
X42500Y-34500
X42500Y-36000
X42500Y-54000
X42500Y-55500
X46500Y-33000
X46500Y-34500
X46500Y-36000
X46500Y-54000
X46500Y-55500
X47750Y-33000
X47750Y-34500
X47750Y-36000
X47750Y-54000
X47750Y-55500
X51750Y-33000
X51750Y-34500
X51750Y-36000
X51750Y-54000
X51750Y-55500
X53000Y-33000
X53000Y-34500
X53000Y-36000
X53000Y-54000
X53000Y-55500
X57000Y-33000
X57000Y-34500
X57000Y-36000
X57000Y-54000
X57000Y-55500
T3
X41250Y-51250
X42250Y-51250
X44500Y-51250
X45100Y-38250
X45100Y-42500
X45100Y-46800
X45500Y-51250
X46100Y-38250
X46100Y-42500
X46100Y-46800
X47750Y-51250
X48750Y-51250
X49350Y-38250
X49350Y-42500
X49350Y-46800
X50350Y-38250
X50350Y-42500
X50350Y-46800
X51000Y-51250
X52000Y-51250
X53350Y-38250
X53350Y-42500
X53350Y-46800
X54250Y-51250
X54350Y-38250
X54350Y-42500
X54350Y-46800
X55250Y-51250
X57500Y-51250
X58500Y-51250
T4
X40000Y-31500
X40000Y-57250
X41000Y-31500
X41000Y-57250
X42000Y-31500
X42000Y-57250
X43000Y-31500
X43000Y-57250
X44000Y-31500
X44000Y-57250
X45000Y-31500
X45000Y-57250
X46000Y-31500
X46000Y-57250
X47000Y-31500
X47000Y-57250
X48000Y-31500
X48000Y-57250
X49000Y-31500
X49000Y-57250
X50000Y-31500
X50000Y-57250
X51000Y-31500
X51000Y-57250
X52000Y-31500
X52000Y-57250
X53000Y-31500
X53000Y-57250
X54000Y-31500
X54000Y-57250
X55000Y-31500
X55000Y-57250
X56000Y-31500
X56000Y-57250
X57000Y-31500
X57000Y-57250
X58000Y-31500
X58000Y-57250
X59000Y-31500
X59000Y-57250
X60000Y-31500
X60000Y-57250
X61000Y-31500
X61000Y-57250
X62000Y-31500
X62000Y-57250
X63000Y-31500
X63000Y-57250
X64000Y-31500
X64000Y-57250
X65000Y-31500
X65000Y-57250
X66000Y-31500
X66000Y-57250
X67000Y-31500
X67000Y-57250
X68000Y-31500
X68000Y-57250
X69000Y-31500
X69000Y-57250
X70000Y-31500
X70000Y-57250
X71000Y-31500
X71000Y-57250
X72000Y-31500
X72000Y-57250
X73000Y-31500
X73000Y-57250
X74000Y-31500
X74000Y-57250
X75000Y-31500
X75000Y-57250
X76000Y-31500
X76000Y-57250
X77000Y-31500
X77000Y-57250
X78000Y-31500
X78000Y-57250
T5
X61000Y-36750
X61000Y-38522
X61000Y-41250
X61000Y-43022
X61000Y-45750
X61000Y-47522
X61000Y-50250
X61000Y-52022
X63559Y-36750
X63559Y-38522
X63559Y-41250
X63559Y-43022
X63559Y-45750
X63559Y-47522
X63559Y-50250
X63559Y-52022
X65500Y-36750
X65500Y-38522
X65500Y-41250
X65500Y-43022
X65500Y-45750
X65500Y-47522
X65500Y-50250
X65500Y-52022
X68059Y-36750
X68059Y-38522
X68059Y-41250
X68059Y-43022
X68059Y-45750
X68059Y-47522
X68059Y-50250
X68059Y-52022
X70000Y-36750
X70000Y-38522
X70000Y-41250
X70000Y-43022
X70000Y-45750
X70000Y-47522
X70000Y-50250
X70000Y-52022
X72559Y-36750
X72559Y-38522
X72559Y-41250
X72559Y-43022
X72559Y-45750
X72559Y-47522
X72559Y-50250
X72559Y-52022
X74500Y-36750
X74500Y-38522
X74500Y-41250
X74500Y-43022
X74500Y-45750
X74500Y-47522
X74500Y-50250
X74500Y-52022
X77059Y-36750
X77059Y-38522
X77059Y-41250
X77059Y-43022
X77059Y-45750
X77059Y-47522
X77059Y-50250
X77059Y-52022
T0
M30
