M48
; DRILL file {KiCad (5.1.5)-3} date 11/10/2020 23:01:50
; FORMAT={2:4/ absolute / inch / suppress leading zeros}
; #@! TF.CreationDate,2020-10-11T23:01:50+02:00
; #@! TF.GenerationSoftware,Kicad,Pcbnew,(5.1.5)-3
FMAT,2
INCH,TZ
T1C0.0157
T2C0.0236
T3C0.0300
T4C0.0315
T5C0.0394
T6C0.0472
T7C0.1200
%
G90
G05
T1
X40000Y-33750
X40000Y-36750
X40000Y-44750
X40000Y-56500
X40250Y-38750
X40500Y-40750
X40750Y-41250
X42000Y-39500
X42250Y-38000
X42250Y-39250
X44500Y-35000
X47000Y-41000
X47000Y-48250
X47000Y-49500
X47250Y-34750
X47250Y-39750
X47250Y-40250
X47250Y-40750
X47250Y-48500
X47250Y-49750
X47500Y-34500
X47500Y-48250
X47500Y-49500
X47750Y-34750
X48500Y-37500
X48500Y-56750
X48750Y-56500
X49250Y-56250
X50000Y-36500
X50500Y-37500
X50750Y-40500
X51500Y-56750
X53500Y-32500
X53750Y-32250
X54500Y-28000
X55250Y-45750
X55500Y-20500
X55750Y-29250
X58000Y-53250
X58000Y-54250
X58250Y-37250
X58250Y-43750
X58250Y-45750
X58250Y-51250
X58500Y-37000
X58500Y-44750
X58750Y-37250
X58750Y-45750
X59000Y-37000
X59000Y-46750
X59250Y-37250
X59250Y-41500
X61000Y-53750
X63250Y-32750
X64250Y-32500
X65250Y-32250
X66500Y-31000
X67500Y-32000
X68500Y-29500
X74750Y-21250
X75250Y-24250
X75250Y-29750
X75500Y-24000
X75500Y-30000
X75750Y-24250
X75750Y-29750
X77000Y-20750
X77750Y-52500
X78000Y-42250
X78000Y-52750
X78250Y-40250
T2
X71250Y-41250
X71750Y-40750
X71750Y-41750
T3
X73250Y-49984
X73250Y-50969
X73250Y-51953
X73300Y-46047
X73300Y-47031
X73300Y-48016
T4
X74000Y-35000
X74000Y-36000
X74000Y-37000
X74000Y-38000
X74000Y-39000
X74000Y-40000
X74000Y-41000
X74000Y-42000
X77000Y-35000
X77000Y-36000
X77000Y-37000
X77000Y-38000
X77000Y-39000
X77000Y-40000
X77000Y-41000
X77000Y-42000
X58750Y-52031
X58750Y-54000
X51250Y-35000
X51250Y-36000
X51250Y-37000
X51250Y-38000
X51250Y-39000
X51250Y-40000
X51250Y-41000
X51250Y-42000
X51250Y-43000
X51250Y-44000
X51250Y-45000
X51250Y-46000
X51250Y-47000
X51250Y-48000
X51250Y-49000
X51250Y-50000
X51250Y-51000
X51250Y-52000
X51250Y-53000
X51250Y-54000
X57250Y-35000
X57250Y-36000
X57250Y-37000
X57250Y-38000
X57250Y-39000
X57250Y-40000
X57250Y-41000
X57250Y-42000
X57250Y-43000
X57250Y-44000
X57250Y-45000
X57250Y-46000
X57250Y-47000
X57250Y-48000
X57250Y-49000
X57250Y-50000
X57250Y-51000
X57250Y-52000
X57250Y-53000
X57250Y-54000
X56750Y-23000
X56750Y-29000
X57750Y-23000
X57750Y-29000
X58750Y-23000
X58750Y-29000
X59750Y-23000
X59750Y-29000
X60750Y-23000
X60750Y-29000
X61750Y-23000
X61750Y-29000
X62750Y-23000
X62750Y-29000
X63750Y-23000
X63750Y-29000
X64750Y-23000
X64750Y-29000
X65750Y-23000
X65750Y-29000
X66750Y-23000
X66750Y-29000
X67750Y-23000
X67750Y-29000
X70500Y-23000
X70500Y-24000
X70500Y-25000
X70500Y-26000
X70500Y-27000
X70500Y-28000
X70500Y-29000
X70500Y-30000
X73500Y-23000
X73500Y-24000
X73500Y-25000
X73500Y-26000
X73500Y-27000
X73500Y-28000
X73500Y-29000
X73500Y-30000
X52250Y-55500
X56250Y-55500
X71000Y-35000
X71000Y-39000
X60250Y-35000
X60250Y-36000
X60250Y-37000
X60250Y-38000
X60250Y-39000
X60250Y-40000
X60250Y-41000
X60250Y-42000
X60250Y-43000
X60250Y-44000
X60250Y-45000
X60250Y-46000
X60250Y-47000
X60250Y-48000
X60250Y-49000
X60250Y-50000
X60250Y-51000
X60250Y-52000
X60250Y-53000
X60250Y-54000
X66250Y-35000
X66250Y-36000
X66250Y-37000
X66250Y-38000
X66250Y-39000
X66250Y-40000
X66250Y-41000
X66250Y-42000
X66250Y-43000
X66250Y-44000
X66250Y-45000
X66250Y-46000
X66250Y-47000
X66250Y-48000
X66250Y-49000
X66250Y-50000
X66250Y-51000
X66250Y-52000
X66250Y-53000
X66250Y-54000
X74531Y-33500
X76500Y-33500
X55250Y-23000
X55250Y-24969
X42031Y-45500
X44000Y-45500
X41500Y-36000
X41500Y-37000
X41500Y-38000
X41500Y-39000
X41500Y-40000
X41500Y-41000
X41500Y-42000
X44500Y-36000
X44500Y-37000
X44500Y-38000
X44500Y-39000
X44500Y-40000
X44500Y-41000
X44500Y-42000
X71031Y-21500
X73000Y-21500
X49500Y-52031
X49500Y-54000
X42031Y-34500
X44000Y-34500
X41500Y-47000
X41500Y-48000
X41500Y-49000
X41500Y-50000
X41500Y-51000
X41500Y-52000
X41500Y-53000
X44500Y-47000
X44500Y-48000
X44500Y-49000
X44500Y-50000
X44500Y-51000
X44500Y-52000
X44500Y-53000
X46250Y-36000
X46250Y-37000
X46250Y-38000
X46250Y-39000
X46250Y-40000
X46250Y-41000
X46250Y-42000
X49250Y-36000
X49250Y-37000
X49250Y-38000
X49250Y-39000
X49250Y-40000
X49250Y-41000
X49250Y-42000
X46531Y-34500
X48500Y-34500
X72500Y-35000
X72500Y-39000
X69500Y-35000
X69500Y-39000
T5
X69500Y-40750
X69500Y-41750
X40000Y-31500
X41000Y-31500
X42000Y-31500
X43000Y-31500
X44000Y-31500
X45000Y-31500
X46000Y-31500
X47000Y-31500
X48000Y-31500
X49000Y-31500
X50000Y-31500
X51000Y-31500
X52000Y-31500
X53000Y-31500
X54000Y-31500
X55000Y-31500
X56000Y-31500
X57000Y-31500
X58000Y-31500
X59000Y-31500
X60000Y-31500
X61000Y-31500
X62000Y-31500
X63000Y-31500
X64000Y-31500
X65000Y-31500
X66000Y-31500
X67000Y-31500
X68000Y-31500
X69000Y-31500
X70000Y-31500
X71000Y-31500
X72000Y-31500
X73000Y-31500
X74000Y-31500
X75000Y-31500
X76000Y-31500
X77000Y-31500
X78000Y-31500
X76500Y-24500
X76500Y-25500
X76500Y-26500
X76500Y-27500
X76500Y-28500
X76500Y-29500
X77500Y-24500
X77500Y-25500
X77500Y-26500
X77500Y-27500
X77500Y-28500
X77500Y-29500
X40000Y-57250
X41000Y-57250
X42000Y-57250
X43000Y-57250
X44000Y-57250
X45000Y-57250
X46000Y-57250
X47000Y-57250
X48000Y-57250
X49000Y-57250
X50000Y-57250
X51000Y-57250
X52000Y-57250
X53000Y-57250
X54000Y-57250
X55000Y-57250
X56000Y-57250
X57000Y-57250
X58000Y-57250
X59000Y-57250
X60000Y-57250
X61000Y-57250
X62000Y-57250
X63000Y-57250
X64000Y-57250
X65000Y-57250
X66000Y-57250
X67000Y-57250
X68000Y-57250
X69000Y-57250
X70000Y-57250
X71000Y-57250
X72000Y-57250
X73000Y-57250
X74000Y-57250
X75000Y-57250
X76000Y-57250
X77000Y-57250
X78000Y-57250
X40000Y-20000
X41000Y-20000
X42000Y-20000
X43000Y-20000
X44000Y-20000
X45000Y-20000
X46000Y-20000
X47000Y-20000
X48000Y-20000
X49000Y-20000
X50000Y-20000
X51000Y-20000
X52000Y-20000
X53000Y-20000
X54000Y-20000
X55000Y-20000
X56000Y-20000
X57000Y-20000
X58000Y-20000
X59000Y-20000
X60000Y-20000
X61000Y-20000
X62000Y-20000
X63000Y-20000
X64000Y-20000
X65000Y-20000
X66000Y-20000
X67000Y-20000
X68000Y-20000
X69000Y-20000
X70000Y-20000
X71000Y-20000
X72000Y-20000
X73000Y-20000
X74000Y-20000
X75000Y-20000
X76000Y-20000
X77000Y-20000
X78000Y-20000
X58000Y-21500
X59000Y-21500
X60000Y-21500
T6
X41372Y-27750
X43343Y-25781
X43343Y-26766
X43343Y-28734
X43343Y-29719
T7
X77000Y-22000
X41000Y-22000
X77000Y-55250
X41000Y-55250
T0
M30
