G04 #@! TF.GenerationSoftware,KiCad,Pcbnew,(5.1.5)-3*
G04 #@! TF.CreationDate,2020-10-11T23:01:46+02:00*
G04 #@! TF.ProjectId,PP 6502 Game Board,50502036-3530-4322-9047-616d6520426f,rev?*
G04 #@! TF.SameCoordinates,Original*
G04 #@! TF.FileFunction,Legend,Top*
G04 #@! TF.FilePolarity,Positive*
%FSLAX46Y46*%
G04 Gerber Fmt 4.6, Leading zero omitted, Abs format (unit mm)*
G04 Created by KiCad (PCBNEW (5.1.5)-3) date 2020-10-11 23:01:46*
%MOMM*%
%LPD*%
G04 APERTURE LIST*
%ADD10C,0.100000*%
%ADD11C,0.120000*%
%ADD12C,0.150000*%
G04 APERTURE END LIST*
D10*
X154446190Y-54171904D02*
X154712857Y-54971904D01*
X154979523Y-54171904D01*
X155246190Y-54971904D02*
X155246190Y-54171904D01*
X155589047Y-54743333D02*
X155970000Y-54743333D01*
X155512857Y-54971904D02*
X155779523Y-54171904D01*
X156046190Y-54971904D01*
X156122380Y-55048095D02*
X156731904Y-55048095D01*
X157379523Y-54895714D02*
X157341428Y-54933809D01*
X157227142Y-54971904D01*
X157150952Y-54971904D01*
X157036666Y-54933809D01*
X156960476Y-54857619D01*
X156922380Y-54781428D01*
X156884285Y-54629047D01*
X156884285Y-54514761D01*
X156922380Y-54362380D01*
X156960476Y-54286190D01*
X157036666Y-54210000D01*
X157150952Y-54171904D01*
X157227142Y-54171904D01*
X157341428Y-54210000D01*
X157379523Y-54248095D01*
X158103333Y-54971904D02*
X157722380Y-54971904D01*
X157722380Y-54171904D01*
X158370000Y-54971904D02*
X158370000Y-54171904D01*
X158827142Y-54971904D02*
X158484285Y-54514761D01*
X158827142Y-54171904D02*
X158370000Y-54629047D01*
X189852380Y-74758571D02*
X189852380Y-75291904D01*
X189661904Y-74453809D02*
X189471428Y-75025238D01*
X189966666Y-75025238D01*
X190271428Y-75291904D02*
X190271428Y-74491904D01*
X190728571Y-75291904D02*
X190385714Y-74834761D01*
X190728571Y-74491904D02*
X190271428Y-74949047D01*
X191528571Y-75215714D02*
X191490476Y-75253809D01*
X191376190Y-75291904D01*
X191300000Y-75291904D01*
X191185714Y-75253809D01*
X191109523Y-75177619D01*
X191071428Y-75101428D01*
X191033333Y-74949047D01*
X191033333Y-74834761D01*
X191071428Y-74682380D01*
X191109523Y-74606190D01*
X191185714Y-74530000D01*
X191300000Y-74491904D01*
X191376190Y-74491904D01*
X191490476Y-74530000D01*
X191528571Y-74568095D01*
X189909523Y-72218571D02*
X189909523Y-72751904D01*
X189719047Y-71913809D02*
X189528571Y-72485238D01*
X190023809Y-72485238D01*
X190328571Y-72751904D02*
X190328571Y-71951904D01*
X190785714Y-72751904D02*
X190442857Y-72294761D01*
X190785714Y-71951904D02*
X190328571Y-72409047D01*
X191090476Y-72523333D02*
X191471428Y-72523333D01*
X191014285Y-72751904D02*
X191280952Y-71951904D01*
X191547619Y-72751904D01*
X189871428Y-69678571D02*
X189871428Y-70211904D01*
X189680952Y-69373809D02*
X189490476Y-69945238D01*
X189985714Y-69945238D01*
X190290476Y-70211904D02*
X190290476Y-69411904D01*
X190747619Y-70211904D02*
X190404761Y-69754761D01*
X190747619Y-69411904D02*
X190290476Y-69869047D01*
X191204761Y-69754761D02*
X191128571Y-69716666D01*
X191090476Y-69678571D01*
X191052380Y-69602380D01*
X191052380Y-69564285D01*
X191090476Y-69488095D01*
X191128571Y-69450000D01*
X191204761Y-69411904D01*
X191357142Y-69411904D01*
X191433333Y-69450000D01*
X191471428Y-69488095D01*
X191509523Y-69564285D01*
X191509523Y-69602380D01*
X191471428Y-69678571D01*
X191433333Y-69716666D01*
X191357142Y-69754761D01*
X191204761Y-69754761D01*
X191128571Y-69792857D01*
X191090476Y-69830952D01*
X191052380Y-69907142D01*
X191052380Y-70059523D01*
X191090476Y-70135714D01*
X191128571Y-70173809D01*
X191204761Y-70211904D01*
X191357142Y-70211904D01*
X191433333Y-70173809D01*
X191471428Y-70135714D01*
X191509523Y-70059523D01*
X191509523Y-69907142D01*
X191471428Y-69830952D01*
X191433333Y-69792857D01*
X191357142Y-69754761D01*
X189871428Y-67138571D02*
X189871428Y-67671904D01*
X189680952Y-66833809D02*
X189490476Y-67405238D01*
X189985714Y-67405238D01*
X190290476Y-67671904D02*
X190290476Y-66871904D01*
X190747619Y-67671904D02*
X190404761Y-67214761D01*
X190747619Y-66871904D02*
X190290476Y-67329047D01*
X191433333Y-66871904D02*
X191280952Y-66871904D01*
X191204761Y-66910000D01*
X191166666Y-66948095D01*
X191090476Y-67062380D01*
X191052380Y-67214761D01*
X191052380Y-67519523D01*
X191090476Y-67595714D01*
X191128571Y-67633809D01*
X191204761Y-67671904D01*
X191357142Y-67671904D01*
X191433333Y-67633809D01*
X191471428Y-67595714D01*
X191509523Y-67519523D01*
X191509523Y-67329047D01*
X191471428Y-67252857D01*
X191433333Y-67214761D01*
X191357142Y-67176666D01*
X191204761Y-67176666D01*
X191128571Y-67214761D01*
X191090476Y-67252857D01*
X191052380Y-67329047D01*
X189871428Y-64598571D02*
X189871428Y-65131904D01*
X189680952Y-64293809D02*
X189490476Y-64865238D01*
X189985714Y-64865238D01*
X190290476Y-65131904D02*
X190290476Y-64331904D01*
X190747619Y-65131904D02*
X190404761Y-64674761D01*
X190747619Y-64331904D02*
X190290476Y-64789047D01*
X191433333Y-64598571D02*
X191433333Y-65131904D01*
X191242857Y-64293809D02*
X191052380Y-64865238D01*
X191547619Y-64865238D01*
X189871428Y-62058571D02*
X189871428Y-62591904D01*
X189680952Y-61753809D02*
X189490476Y-62325238D01*
X189985714Y-62325238D01*
X190290476Y-62591904D02*
X190290476Y-61791904D01*
X190747619Y-62591904D02*
X190404761Y-62134761D01*
X190747619Y-61791904D02*
X190290476Y-62249047D01*
X191052380Y-61868095D02*
X191090476Y-61830000D01*
X191166666Y-61791904D01*
X191357142Y-61791904D01*
X191433333Y-61830000D01*
X191471428Y-61868095D01*
X191509523Y-61944285D01*
X191509523Y-62020476D01*
X191471428Y-62134761D01*
X191014285Y-62591904D01*
X191509523Y-62591904D01*
D11*
X106426000Y-140335000D02*
G75*
G03X106426000Y-140335000I-2286000J0D01*
G01*
X197866000Y-140335000D02*
G75*
G03X197866000Y-140335000I-2286000J0D01*
G01*
X197866000Y-55880000D02*
G75*
G03X197866000Y-55880000I-2286000J0D01*
G01*
X106426000Y-55880000D02*
G75*
G03X106426000Y-55880000I-2286000J0D01*
G01*
X124420000Y-137070000D02*
X124420000Y-132250000D01*
X127040000Y-137070000D02*
X127040000Y-132250000D01*
X124420000Y-137070000D02*
X124734000Y-137070000D01*
X126726000Y-137070000D02*
X127040000Y-137070000D01*
X124420000Y-132250000D02*
X124734000Y-132250000D01*
X126726000Y-132250000D02*
X127040000Y-132250000D01*
X194220000Y-86400000D02*
X189400000Y-86400000D01*
X194220000Y-83780000D02*
X189400000Y-83780000D01*
X194220000Y-86400000D02*
X194220000Y-86086000D01*
X194220000Y-84094000D02*
X194220000Y-83780000D01*
X189400000Y-86400000D02*
X189400000Y-86086000D01*
X189400000Y-84094000D02*
X189400000Y-83780000D01*
X183880000Y-57090000D02*
G75*
G02X181880000Y-57090000I-1000000J0D01*
G01*
X181880000Y-57090000D02*
X180630000Y-57090000D01*
X180630000Y-57090000D02*
X180630000Y-77530000D01*
X180630000Y-77530000D02*
X185130000Y-77530000D01*
X185130000Y-77530000D02*
X185130000Y-57090000D01*
X185130000Y-57090000D02*
X183880000Y-57090000D01*
X177630000Y-57030000D02*
X177630000Y-77590000D01*
X177630000Y-77590000D02*
X188130000Y-77590000D01*
X188130000Y-77590000D02*
X188130000Y-57030000D01*
X188130000Y-57030000D02*
X177630000Y-57030000D01*
X138795000Y-87570000D02*
G75*
G02X136795000Y-87570000I-1000000J0D01*
G01*
X136795000Y-87570000D02*
X131735000Y-87570000D01*
X131735000Y-87570000D02*
X131735000Y-138490000D01*
X131735000Y-138490000D02*
X143855000Y-138490000D01*
X143855000Y-138490000D02*
X143855000Y-87570000D01*
X143855000Y-87570000D02*
X138795000Y-87570000D01*
X128735000Y-87510000D02*
X128735000Y-138550000D01*
X128735000Y-138550000D02*
X146855000Y-138550000D01*
X146855000Y-138550000D02*
X146855000Y-87510000D01*
X146855000Y-87510000D02*
X128735000Y-87510000D01*
X192770000Y-87570000D02*
G75*
G02X190770000Y-87570000I-1000000J0D01*
G01*
X190770000Y-87570000D02*
X189520000Y-87570000D01*
X189520000Y-87570000D02*
X189520000Y-108010000D01*
X189520000Y-108010000D02*
X194020000Y-108010000D01*
X194020000Y-108010000D02*
X194020000Y-87570000D01*
X194020000Y-87570000D02*
X192770000Y-87570000D01*
X186520000Y-87510000D02*
X186520000Y-108070000D01*
X186520000Y-108070000D02*
X197020000Y-108070000D01*
X197020000Y-108070000D02*
X197020000Y-87510000D01*
X197020000Y-87510000D02*
X186520000Y-87510000D01*
X145990000Y-53280000D02*
X145990000Y-55940000D01*
X151130000Y-53280000D02*
X145990000Y-53280000D01*
X151130000Y-55940000D02*
X145990000Y-55940000D01*
X151130000Y-53280000D02*
X151130000Y-55940000D01*
X152400000Y-53280000D02*
X153730000Y-53280000D01*
X153730000Y-53280000D02*
X153730000Y-54610000D01*
X185330000Y-55920000D02*
X180510000Y-55920000D01*
X185330000Y-53300000D02*
X180510000Y-53300000D01*
X185330000Y-55920000D02*
X185330000Y-55606000D01*
X185330000Y-53614000D02*
X185330000Y-53300000D01*
X180510000Y-55920000D02*
X180510000Y-55606000D01*
X180510000Y-53614000D02*
X180510000Y-53300000D01*
X111670000Y-88940000D02*
X106850000Y-88940000D01*
X111670000Y-86320000D02*
X106850000Y-86320000D01*
X111670000Y-88940000D02*
X111670000Y-88626000D01*
X111670000Y-86634000D02*
X111670000Y-86320000D01*
X106850000Y-88940000D02*
X106850000Y-88626000D01*
X106850000Y-86634000D02*
X106850000Y-86320000D01*
X123100000Y-88940000D02*
X118280000Y-88940000D01*
X123100000Y-86320000D02*
X118280000Y-86320000D01*
X123100000Y-88940000D02*
X123100000Y-88626000D01*
X123100000Y-86634000D02*
X123100000Y-86320000D01*
X118280000Y-88940000D02*
X118280000Y-88626000D01*
X118280000Y-86634000D02*
X118280000Y-86320000D01*
X192980000Y-76260000D02*
X198180000Y-76260000D01*
X192980000Y-63500000D02*
X192980000Y-76260000D01*
X198180000Y-60900000D02*
X198180000Y-76260000D01*
X192980000Y-63500000D02*
X195580000Y-63500000D01*
X195580000Y-63500000D02*
X195580000Y-60900000D01*
X195580000Y-60900000D02*
X198180000Y-60900000D01*
X192980000Y-62230000D02*
X192980000Y-60900000D01*
X192980000Y-60900000D02*
X194310000Y-60900000D01*
X100270000Y-144085000D02*
X100270000Y-146745000D01*
X196850000Y-144085000D02*
X100270000Y-144085000D01*
X196850000Y-146745000D02*
X100270000Y-146745000D01*
X196850000Y-144085000D02*
X196850000Y-146745000D01*
X198120000Y-144085000D02*
X199450000Y-144085000D01*
X199450000Y-144085000D02*
X199450000Y-145415000D01*
X100270000Y-78680000D02*
X100270000Y-81340000D01*
X196850000Y-78680000D02*
X100270000Y-78680000D01*
X196850000Y-81340000D02*
X100270000Y-81340000D01*
X196850000Y-78680000D02*
X196850000Y-81340000D01*
X198120000Y-78680000D02*
X199450000Y-78680000D01*
X199450000Y-78680000D02*
X199450000Y-80010000D01*
X181650000Y-90770000D02*
X179030000Y-90770000D01*
X179030000Y-90770000D02*
X179030000Y-97190000D01*
X179030000Y-97190000D02*
X181650000Y-97190000D01*
X181650000Y-97190000D02*
X181650000Y-90770000D01*
X180340000Y-89880000D02*
X180340000Y-90770000D01*
X180340000Y-98080000D02*
X180340000Y-97190000D01*
X110220000Y-90110000D02*
G75*
G02X108220000Y-90110000I-1000000J0D01*
G01*
X108220000Y-90110000D02*
X106570000Y-90110000D01*
X106570000Y-90110000D02*
X106570000Y-108010000D01*
X106570000Y-108010000D02*
X111870000Y-108010000D01*
X111870000Y-108010000D02*
X111870000Y-90110000D01*
X111870000Y-90110000D02*
X110220000Y-90110000D01*
X104080000Y-90050000D02*
X104080000Y-108070000D01*
X104080000Y-108070000D02*
X114360000Y-108070000D01*
X114360000Y-108070000D02*
X114360000Y-90050000D01*
X114360000Y-90050000D02*
X104080000Y-90050000D01*
X122285000Y-90110000D02*
G75*
G02X120285000Y-90110000I-1000000J0D01*
G01*
X120285000Y-90110000D02*
X118635000Y-90110000D01*
X118635000Y-90110000D02*
X118635000Y-108010000D01*
X118635000Y-108010000D02*
X123935000Y-108010000D01*
X123935000Y-108010000D02*
X123935000Y-90110000D01*
X123935000Y-90110000D02*
X122285000Y-90110000D01*
X116145000Y-90050000D02*
X116145000Y-108070000D01*
X116145000Y-108070000D02*
X126425000Y-108070000D01*
X126425000Y-108070000D02*
X126425000Y-90050000D01*
X126425000Y-90050000D02*
X116145000Y-90050000D01*
X110220000Y-118050000D02*
G75*
G02X108220000Y-118050000I-1000000J0D01*
G01*
X108220000Y-118050000D02*
X106570000Y-118050000D01*
X106570000Y-118050000D02*
X106570000Y-135950000D01*
X106570000Y-135950000D02*
X111870000Y-135950000D01*
X111870000Y-135950000D02*
X111870000Y-118050000D01*
X111870000Y-118050000D02*
X110220000Y-118050000D01*
X104080000Y-117990000D02*
X104080000Y-136010000D01*
X104080000Y-136010000D02*
X114360000Y-136010000D01*
X114360000Y-136010000D02*
X114360000Y-117990000D01*
X114360000Y-117990000D02*
X104080000Y-117990000D01*
X161655000Y-87570000D02*
G75*
G02X159655000Y-87570000I-1000000J0D01*
G01*
X159655000Y-87570000D02*
X154595000Y-87570000D01*
X154595000Y-87570000D02*
X154595000Y-138490000D01*
X154595000Y-138490000D02*
X166715000Y-138490000D01*
X166715000Y-138490000D02*
X166715000Y-87570000D01*
X166715000Y-87570000D02*
X161655000Y-87570000D01*
X151595000Y-87510000D02*
X151595000Y-138550000D01*
X151595000Y-138550000D02*
X169715000Y-138550000D01*
X169715000Y-138550000D02*
X169715000Y-87510000D01*
X169715000Y-87510000D02*
X151595000Y-87510000D01*
X142815000Y-65040000D02*
G75*
G02X142815000Y-67040000I0J-1000000D01*
G01*
X142815000Y-67040000D02*
X142815000Y-72100000D01*
X142815000Y-72100000D02*
X173415000Y-72100000D01*
X173415000Y-72100000D02*
X173415000Y-59980000D01*
X173415000Y-59980000D02*
X142815000Y-59980000D01*
X142815000Y-59980000D02*
X142815000Y-65040000D01*
X100270000Y-49470000D02*
X100270000Y-52130000D01*
X196850000Y-49470000D02*
X100270000Y-49470000D01*
X196850000Y-52130000D02*
X100270000Y-52130000D01*
X196850000Y-49470000D02*
X196850000Y-52130000D01*
X198120000Y-49470000D02*
X199450000Y-49470000D01*
X199450000Y-49470000D02*
X199450000Y-50800000D01*
X111670000Y-116880000D02*
X106850000Y-116880000D01*
X111670000Y-114260000D02*
X106850000Y-114260000D01*
X111670000Y-116880000D02*
X111670000Y-116566000D01*
X111670000Y-114574000D02*
X111670000Y-114260000D01*
X106850000Y-116880000D02*
X106850000Y-116566000D01*
X106850000Y-114574000D02*
X106850000Y-114260000D01*
X147915000Y-137070000D02*
X147915000Y-132250000D01*
X150535000Y-137070000D02*
X150535000Y-132250000D01*
X147915000Y-137070000D02*
X148229000Y-137070000D01*
X150221000Y-137070000D02*
X150535000Y-137070000D01*
X147915000Y-132250000D02*
X148229000Y-132250000D01*
X150221000Y-132250000D02*
X150535000Y-132250000D01*
X184095000Y-106575000D02*
X184095000Y-102975000D01*
X184083478Y-106613478D02*
G75*
G02X179645000Y-104775000I-1838478J1838478D01*
G01*
X184083478Y-102936522D02*
G75*
G03X179645000Y-104775000I-1838478J-1838478D01*
G01*
X182840000Y-97190000D02*
X185460000Y-97190000D01*
X185460000Y-97190000D02*
X185460000Y-90770000D01*
X185460000Y-90770000D02*
X182840000Y-90770000D01*
X182840000Y-90770000D02*
X182840000Y-97190000D01*
X184150000Y-98080000D02*
X184150000Y-97190000D01*
X184150000Y-89880000D02*
X184150000Y-90770000D01*
X177840000Y-90770000D02*
X175220000Y-90770000D01*
X175220000Y-90770000D02*
X175220000Y-97190000D01*
X175220000Y-97190000D02*
X177840000Y-97190000D01*
X177840000Y-97190000D02*
X177840000Y-90770000D01*
X176530000Y-89880000D02*
X176530000Y-90770000D01*
X176530000Y-98080000D02*
X176530000Y-97190000D01*
D12*
X183007000Y-118237000D02*
X183007000Y-117602000D01*
X183007000Y-118237000D02*
X183007000Y-118872000D01*
X183007000Y-130810000D02*
X183007000Y-130175000D01*
X183007000Y-130810000D02*
X183007000Y-131445000D01*
X183515000Y-130810000D02*
X183642000Y-130810000D01*
X182372000Y-130810000D02*
X183515000Y-130810000D01*
X197612000Y-124460000D02*
G75*
G03X197612000Y-124460000I-11557000J0D01*
G01*
X201168000Y-124460000D02*
G75*
G03X201168000Y-124460000I-15113000J0D01*
G01*
X105156000Y-72263000D02*
X105156000Y-74295000D01*
X105156000Y-74295000D02*
X101600000Y-74295000D01*
X101600000Y-74295000D02*
X101600000Y-66675000D01*
X101600000Y-66675000D02*
X105156000Y-66675000D01*
X105156000Y-66675000D02*
X105156000Y-68707000D01*
X100584000Y-75565000D02*
X100584000Y-76581000D01*
X100584000Y-64389000D02*
X100584000Y-65405000D01*
X98552000Y-73025000D02*
X100076000Y-73025000D01*
X100076000Y-67945000D02*
X98552000Y-67945000D01*
X99314000Y-73025000D02*
X99314000Y-67945000D01*
X100584000Y-75565000D02*
X100330000Y-75565000D01*
X100330000Y-75565000D02*
X100076000Y-75565000D01*
X100076000Y-75565000D02*
X100076000Y-65405000D01*
X100076000Y-65405000D02*
X100584000Y-65405000D01*
X98552000Y-73025000D02*
X98552000Y-67945000D01*
X112776000Y-76581000D02*
X100584000Y-76581000D01*
X100584000Y-64389000D02*
X112776000Y-64389000D01*
X112776000Y-64389000D02*
X112776000Y-76581000D01*
D11*
X175200000Y-107375000D02*
X177860000Y-107375000D01*
X175200000Y-104775000D02*
X175200000Y-107375000D01*
X177860000Y-104775000D02*
X177860000Y-107375000D01*
X175200000Y-104775000D02*
X177860000Y-104775000D01*
X175200000Y-103505000D02*
X175200000Y-102175000D01*
X175200000Y-102175000D02*
X176530000Y-102175000D01*
X141005000Y-142280000D02*
X141005000Y-139660000D01*
X141005000Y-139660000D02*
X134585000Y-139660000D01*
X134585000Y-139660000D02*
X134585000Y-142280000D01*
X134585000Y-142280000D02*
X141005000Y-142280000D01*
X141895000Y-140970000D02*
X141005000Y-140970000D01*
X133695000Y-140970000D02*
X134585000Y-140970000D01*
X141645000Y-58510000D02*
X141645000Y-63330000D01*
X139025000Y-58510000D02*
X139025000Y-63330000D01*
X141645000Y-58510000D02*
X141331000Y-58510000D01*
X139339000Y-58510000D02*
X139025000Y-58510000D01*
X141645000Y-63330000D02*
X141331000Y-63330000D01*
X139339000Y-63330000D02*
X139025000Y-63330000D01*
D12*
X125648332Y-134977142D02*
X125600713Y-135024761D01*
X125457856Y-135072380D01*
X125362618Y-135072380D01*
X125219760Y-135024761D01*
X125124522Y-134929523D01*
X125076903Y-134834285D01*
X125029284Y-134643809D01*
X125029284Y-134500952D01*
X125076903Y-134310476D01*
X125124522Y-134215238D01*
X125219760Y-134120000D01*
X125362618Y-134072380D01*
X125457856Y-134072380D01*
X125600713Y-134120000D01*
X125648332Y-134167619D01*
X126029284Y-134167619D02*
X126076903Y-134120000D01*
X126172141Y-134072380D01*
X126410237Y-134072380D01*
X126505475Y-134120000D01*
X126553094Y-134167619D01*
X126600713Y-134262857D01*
X126600713Y-134358095D01*
X126553094Y-134500952D01*
X125981665Y-135072380D01*
X126600713Y-135072380D01*
X191603333Y-85447142D02*
X191555714Y-85494761D01*
X191412857Y-85542380D01*
X191317619Y-85542380D01*
X191174761Y-85494761D01*
X191079523Y-85399523D01*
X191031904Y-85304285D01*
X190984285Y-85113809D01*
X190984285Y-84970952D01*
X191031904Y-84780476D01*
X191079523Y-84685238D01*
X191174761Y-84590000D01*
X191317619Y-84542380D01*
X191412857Y-84542380D01*
X191555714Y-84590000D01*
X191603333Y-84637619D01*
X191936666Y-84542380D02*
X192555714Y-84542380D01*
X192222380Y-84923333D01*
X192365238Y-84923333D01*
X192460476Y-84970952D01*
X192508095Y-85018571D01*
X192555714Y-85113809D01*
X192555714Y-85351904D01*
X192508095Y-85447142D01*
X192460476Y-85494761D01*
X192365238Y-85542380D01*
X192079523Y-85542380D01*
X191984285Y-85494761D01*
X191936666Y-85447142D01*
X182118095Y-60412380D02*
X182118095Y-61221904D01*
X182165714Y-61317142D01*
X182213333Y-61364761D01*
X182308571Y-61412380D01*
X182499047Y-61412380D01*
X182594285Y-61364761D01*
X182641904Y-61317142D01*
X182689523Y-61221904D01*
X182689523Y-60412380D01*
X183689523Y-61412380D02*
X183118095Y-61412380D01*
X183403809Y-61412380D02*
X183403809Y-60412380D01*
X183308571Y-60555238D01*
X183213333Y-60650476D01*
X183118095Y-60698095D01*
X182332380Y-70429047D02*
X182332380Y-69762380D01*
X183332380Y-70190952D01*
X182665714Y-68952857D02*
X183332380Y-68952857D01*
X182284761Y-69190952D02*
X182999047Y-69429047D01*
X182999047Y-68810000D01*
X183332380Y-67952857D02*
X183332380Y-68429047D01*
X182332380Y-68429047D01*
X183284761Y-67667142D02*
X183332380Y-67524285D01*
X183332380Y-67286190D01*
X183284761Y-67190952D01*
X183237142Y-67143333D01*
X183141904Y-67095714D01*
X183046666Y-67095714D01*
X182951428Y-67143333D01*
X182903809Y-67190952D01*
X182856190Y-67286190D01*
X182808571Y-67476666D01*
X182760952Y-67571904D01*
X182713333Y-67619523D01*
X182618095Y-67667142D01*
X182522857Y-67667142D01*
X182427619Y-67619523D01*
X182380000Y-67571904D01*
X182332380Y-67476666D01*
X182332380Y-67238571D01*
X182380000Y-67095714D01*
X183332380Y-66143333D02*
X183332380Y-66714761D01*
X183332380Y-66429047D02*
X182332380Y-66429047D01*
X182475238Y-66524285D01*
X182570476Y-66619523D01*
X182618095Y-66714761D01*
X182332380Y-65810000D02*
X182332380Y-65190952D01*
X182713333Y-65524285D01*
X182713333Y-65381428D01*
X182760952Y-65286190D01*
X182808571Y-65238571D01*
X182903809Y-65190952D01*
X183141904Y-65190952D01*
X183237142Y-65238571D01*
X183284761Y-65286190D01*
X183332380Y-65381428D01*
X183332380Y-65667142D01*
X183284761Y-65762380D01*
X183237142Y-65810000D01*
X182760952Y-64619523D02*
X182713333Y-64714761D01*
X182665714Y-64762380D01*
X182570476Y-64810000D01*
X182522857Y-64810000D01*
X182427619Y-64762380D01*
X182380000Y-64714761D01*
X182332380Y-64619523D01*
X182332380Y-64429047D01*
X182380000Y-64333809D01*
X182427619Y-64286190D01*
X182522857Y-64238571D01*
X182570476Y-64238571D01*
X182665714Y-64286190D01*
X182713333Y-64333809D01*
X182760952Y-64429047D01*
X182760952Y-64619523D01*
X182808571Y-64714761D01*
X182856190Y-64762380D01*
X182951428Y-64810000D01*
X183141904Y-64810000D01*
X183237142Y-64762380D01*
X183284761Y-64714761D01*
X183332380Y-64619523D01*
X183332380Y-64429047D01*
X183284761Y-64333809D01*
X183237142Y-64286190D01*
X183141904Y-64238571D01*
X182951428Y-64238571D01*
X182856190Y-64286190D01*
X182808571Y-64333809D01*
X182760952Y-64429047D01*
X137033095Y-91527380D02*
X137033095Y-92336904D01*
X137080714Y-92432142D01*
X137128333Y-92479761D01*
X137223571Y-92527380D01*
X137414047Y-92527380D01*
X137509285Y-92479761D01*
X137556904Y-92432142D01*
X137604523Y-92336904D01*
X137604523Y-91527380D01*
X138033095Y-91622619D02*
X138080714Y-91575000D01*
X138175952Y-91527380D01*
X138414047Y-91527380D01*
X138509285Y-91575000D01*
X138556904Y-91622619D01*
X138604523Y-91717857D01*
X138604523Y-91813095D01*
X138556904Y-91955952D01*
X137985476Y-92527380D01*
X138604523Y-92527380D01*
X136556904Y-93432380D02*
X136366428Y-93432380D01*
X136271190Y-93480000D01*
X136223571Y-93527619D01*
X136128333Y-93670476D01*
X136080714Y-93860952D01*
X136080714Y-94241904D01*
X136128333Y-94337142D01*
X136175952Y-94384761D01*
X136271190Y-94432380D01*
X136461666Y-94432380D01*
X136556904Y-94384761D01*
X136604523Y-94337142D01*
X136652142Y-94241904D01*
X136652142Y-94003809D01*
X136604523Y-93908571D01*
X136556904Y-93860952D01*
X136461666Y-93813333D01*
X136271190Y-93813333D01*
X136175952Y-93860952D01*
X136128333Y-93908571D01*
X136080714Y-94003809D01*
X137556904Y-93432380D02*
X137080714Y-93432380D01*
X137033095Y-93908571D01*
X137080714Y-93860952D01*
X137175952Y-93813333D01*
X137414047Y-93813333D01*
X137509285Y-93860952D01*
X137556904Y-93908571D01*
X137604523Y-94003809D01*
X137604523Y-94241904D01*
X137556904Y-94337142D01*
X137509285Y-94384761D01*
X137414047Y-94432380D01*
X137175952Y-94432380D01*
X137080714Y-94384761D01*
X137033095Y-94337142D01*
X137985476Y-93527619D02*
X138033095Y-93480000D01*
X138128333Y-93432380D01*
X138366428Y-93432380D01*
X138461666Y-93480000D01*
X138509285Y-93527619D01*
X138556904Y-93622857D01*
X138556904Y-93718095D01*
X138509285Y-93860952D01*
X137937857Y-94432380D01*
X138556904Y-94432380D01*
X138937857Y-93527619D02*
X138985476Y-93480000D01*
X139080714Y-93432380D01*
X139318809Y-93432380D01*
X139414047Y-93480000D01*
X139461666Y-93527619D01*
X139509285Y-93622857D01*
X139509285Y-93718095D01*
X139461666Y-93860952D01*
X138890238Y-94432380D01*
X139509285Y-94432380D01*
X191008095Y-90892380D02*
X191008095Y-91701904D01*
X191055714Y-91797142D01*
X191103333Y-91844761D01*
X191198571Y-91892380D01*
X191389047Y-91892380D01*
X191484285Y-91844761D01*
X191531904Y-91797142D01*
X191579523Y-91701904D01*
X191579523Y-90892380D01*
X191960476Y-90892380D02*
X192579523Y-90892380D01*
X192246190Y-91273333D01*
X192389047Y-91273333D01*
X192484285Y-91320952D01*
X192531904Y-91368571D01*
X192579523Y-91463809D01*
X192579523Y-91701904D01*
X192531904Y-91797142D01*
X192484285Y-91844761D01*
X192389047Y-91892380D01*
X192103333Y-91892380D01*
X192008095Y-91844761D01*
X191960476Y-91797142D01*
X191222380Y-100909047D02*
X191222380Y-100242380D01*
X192222380Y-100670952D01*
X191555714Y-99432857D02*
X192222380Y-99432857D01*
X191174761Y-99670952D02*
X191889047Y-99909047D01*
X191889047Y-99290000D01*
X192222380Y-98432857D02*
X192222380Y-98909047D01*
X191222380Y-98909047D01*
X192174761Y-98147142D02*
X192222380Y-98004285D01*
X192222380Y-97766190D01*
X192174761Y-97670952D01*
X192127142Y-97623333D01*
X192031904Y-97575714D01*
X191936666Y-97575714D01*
X191841428Y-97623333D01*
X191793809Y-97670952D01*
X191746190Y-97766190D01*
X191698571Y-97956666D01*
X191650952Y-98051904D01*
X191603333Y-98099523D01*
X191508095Y-98147142D01*
X191412857Y-98147142D01*
X191317619Y-98099523D01*
X191270000Y-98051904D01*
X191222380Y-97956666D01*
X191222380Y-97718571D01*
X191270000Y-97575714D01*
X192222380Y-96623333D02*
X192222380Y-97194761D01*
X192222380Y-96909047D02*
X191222380Y-96909047D01*
X191365238Y-97004285D01*
X191460476Y-97099523D01*
X191508095Y-97194761D01*
X191222380Y-96290000D02*
X191222380Y-95670952D01*
X191603333Y-96004285D01*
X191603333Y-95861428D01*
X191650952Y-95766190D01*
X191698571Y-95718571D01*
X191793809Y-95670952D01*
X192031904Y-95670952D01*
X192127142Y-95718571D01*
X192174761Y-95766190D01*
X192222380Y-95861428D01*
X192222380Y-96147142D01*
X192174761Y-96242380D01*
X192127142Y-96290000D01*
X191650952Y-95099523D02*
X191603333Y-95194761D01*
X191555714Y-95242380D01*
X191460476Y-95290000D01*
X191412857Y-95290000D01*
X191317619Y-95242380D01*
X191270000Y-95194761D01*
X191222380Y-95099523D01*
X191222380Y-94909047D01*
X191270000Y-94813809D01*
X191317619Y-94766190D01*
X191412857Y-94718571D01*
X191460476Y-94718571D01*
X191555714Y-94766190D01*
X191603333Y-94813809D01*
X191650952Y-94909047D01*
X191650952Y-95099523D01*
X191698571Y-95194761D01*
X191746190Y-95242380D01*
X191841428Y-95290000D01*
X192031904Y-95290000D01*
X192127142Y-95242380D01*
X192174761Y-95194761D01*
X192222380Y-95099523D01*
X192222380Y-94909047D01*
X192174761Y-94813809D01*
X192127142Y-94766190D01*
X192031904Y-94718571D01*
X191841428Y-94718571D01*
X191746190Y-94766190D01*
X191698571Y-94813809D01*
X191650952Y-94909047D01*
X182713333Y-54967142D02*
X182665714Y-55014761D01*
X182522857Y-55062380D01*
X182427619Y-55062380D01*
X182284761Y-55014761D01*
X182189523Y-54919523D01*
X182141904Y-54824285D01*
X182094285Y-54633809D01*
X182094285Y-54490952D01*
X182141904Y-54300476D01*
X182189523Y-54205238D01*
X182284761Y-54110000D01*
X182427619Y-54062380D01*
X182522857Y-54062380D01*
X182665714Y-54110000D01*
X182713333Y-54157619D01*
X183665714Y-55062380D02*
X183094285Y-55062380D01*
X183380000Y-55062380D02*
X183380000Y-54062380D01*
X183284761Y-54205238D01*
X183189523Y-54300476D01*
X183094285Y-54348095D01*
X109053333Y-87987142D02*
X109005714Y-88034761D01*
X108862857Y-88082380D01*
X108767619Y-88082380D01*
X108624761Y-88034761D01*
X108529523Y-87939523D01*
X108481904Y-87844285D01*
X108434285Y-87653809D01*
X108434285Y-87510952D01*
X108481904Y-87320476D01*
X108529523Y-87225238D01*
X108624761Y-87130000D01*
X108767619Y-87082380D01*
X108862857Y-87082380D01*
X109005714Y-87130000D01*
X109053333Y-87177619D01*
X109910476Y-87415714D02*
X109910476Y-88082380D01*
X109672380Y-87034761D02*
X109434285Y-87749047D01*
X110053333Y-87749047D01*
X120483333Y-87987142D02*
X120435714Y-88034761D01*
X120292857Y-88082380D01*
X120197619Y-88082380D01*
X120054761Y-88034761D01*
X119959523Y-87939523D01*
X119911904Y-87844285D01*
X119864285Y-87653809D01*
X119864285Y-87510952D01*
X119911904Y-87320476D01*
X119959523Y-87225238D01*
X120054761Y-87130000D01*
X120197619Y-87082380D01*
X120292857Y-87082380D01*
X120435714Y-87130000D01*
X120483333Y-87177619D01*
X121388095Y-87082380D02*
X120911904Y-87082380D01*
X120864285Y-87558571D01*
X120911904Y-87510952D01*
X121007142Y-87463333D01*
X121245238Y-87463333D01*
X121340476Y-87510952D01*
X121388095Y-87558571D01*
X121435714Y-87653809D01*
X121435714Y-87891904D01*
X121388095Y-87987142D01*
X121340476Y-88034761D01*
X121245238Y-88082380D01*
X121007142Y-88082380D01*
X120911904Y-88034761D01*
X120864285Y-87987142D01*
X195246666Y-59352380D02*
X195246666Y-60066666D01*
X195199047Y-60209523D01*
X195103809Y-60304761D01*
X194960952Y-60352380D01*
X194865714Y-60352380D01*
X196246666Y-60352380D02*
X195675238Y-60352380D01*
X195960952Y-60352380D02*
X195960952Y-59352380D01*
X195865714Y-59495238D01*
X195770476Y-59590476D01*
X195675238Y-59638095D01*
D10*
X194551428Y-77412857D02*
X194665714Y-77450952D01*
X194703809Y-77489047D01*
X194741904Y-77565238D01*
X194741904Y-77679523D01*
X194703809Y-77755714D01*
X194665714Y-77793809D01*
X194589523Y-77831904D01*
X194284761Y-77831904D01*
X194284761Y-77031904D01*
X194551428Y-77031904D01*
X194627619Y-77070000D01*
X194665714Y-77108095D01*
X194703809Y-77184285D01*
X194703809Y-77260476D01*
X194665714Y-77336666D01*
X194627619Y-77374761D01*
X194551428Y-77412857D01*
X194284761Y-77412857D01*
X195046666Y-77603333D02*
X195427619Y-77603333D01*
X194970476Y-77831904D02*
X195237142Y-77031904D01*
X195503809Y-77831904D01*
X195732380Y-77793809D02*
X195846666Y-77831904D01*
X196037142Y-77831904D01*
X196113333Y-77793809D01*
X196151428Y-77755714D01*
X196189523Y-77679523D01*
X196189523Y-77603333D01*
X196151428Y-77527142D01*
X196113333Y-77489047D01*
X196037142Y-77450952D01*
X195884761Y-77412857D01*
X195808571Y-77374761D01*
X195770476Y-77336666D01*
X195732380Y-77260476D01*
X195732380Y-77184285D01*
X195770476Y-77108095D01*
X195808571Y-77070000D01*
X195884761Y-77031904D01*
X196075238Y-77031904D01*
X196189523Y-77070000D01*
X196532380Y-77412857D02*
X196799047Y-77412857D01*
X196913333Y-77831904D02*
X196532380Y-77831904D01*
X196532380Y-77031904D01*
X196913333Y-77031904D01*
D12*
X199902380Y-145748333D02*
X200616666Y-145748333D01*
X200759523Y-145795952D01*
X200854761Y-145891190D01*
X200902380Y-146034047D01*
X200902380Y-146129285D01*
X199997619Y-145319761D02*
X199950000Y-145272142D01*
X199902380Y-145176904D01*
X199902380Y-144938809D01*
X199950000Y-144843571D01*
X199997619Y-144795952D01*
X200092857Y-144748333D01*
X200188095Y-144748333D01*
X200330952Y-144795952D01*
X200902380Y-145367380D01*
X200902380Y-144748333D01*
X199902380Y-80343333D02*
X200616666Y-80343333D01*
X200759523Y-80390952D01*
X200854761Y-80486190D01*
X200902380Y-80629047D01*
X200902380Y-80724285D01*
X199902380Y-79962380D02*
X199902380Y-79343333D01*
X200283333Y-79676666D01*
X200283333Y-79533809D01*
X200330952Y-79438571D01*
X200378571Y-79390952D01*
X200473809Y-79343333D01*
X200711904Y-79343333D01*
X200807142Y-79390952D01*
X200854761Y-79438571D01*
X200902380Y-79533809D01*
X200902380Y-79819523D01*
X200854761Y-79914761D01*
X200807142Y-79962380D01*
X179697142Y-92527380D02*
X179363809Y-92051190D01*
X179125714Y-92527380D02*
X179125714Y-91527380D01*
X179506666Y-91527380D01*
X179601904Y-91575000D01*
X179649523Y-91622619D01*
X179697142Y-91717857D01*
X179697142Y-91860714D01*
X179649523Y-91955952D01*
X179601904Y-92003571D01*
X179506666Y-92051190D01*
X179125714Y-92051190D01*
X180649523Y-92527380D02*
X180078095Y-92527380D01*
X180363809Y-92527380D02*
X180363809Y-91527380D01*
X180268571Y-91670238D01*
X180173333Y-91765476D01*
X180078095Y-91813095D01*
X181506666Y-91527380D02*
X181316190Y-91527380D01*
X181220952Y-91575000D01*
X181173333Y-91622619D01*
X181078095Y-91765476D01*
X181030476Y-91955952D01*
X181030476Y-92336904D01*
X181078095Y-92432142D01*
X181125714Y-92479761D01*
X181220952Y-92527380D01*
X181411428Y-92527380D01*
X181506666Y-92479761D01*
X181554285Y-92432142D01*
X181601904Y-92336904D01*
X181601904Y-92098809D01*
X181554285Y-92003571D01*
X181506666Y-91955952D01*
X181411428Y-91908333D01*
X181220952Y-91908333D01*
X181125714Y-91955952D01*
X181078095Y-92003571D01*
X181030476Y-92098809D01*
X179792380Y-96464285D02*
X179792380Y-95845238D01*
X180173333Y-96178571D01*
X180173333Y-96035714D01*
X180220952Y-95940476D01*
X180268571Y-95892857D01*
X180363809Y-95845238D01*
X180601904Y-95845238D01*
X180697142Y-95892857D01*
X180744761Y-95940476D01*
X180792380Y-96035714D01*
X180792380Y-96321428D01*
X180744761Y-96416666D01*
X180697142Y-96464285D01*
X180792380Y-95416666D02*
X179792380Y-95416666D01*
X180411428Y-95321428D02*
X180792380Y-95035714D01*
X180125714Y-95035714D02*
X180506666Y-95416666D01*
X179792380Y-94702380D02*
X179792380Y-94083333D01*
X180173333Y-94416666D01*
X180173333Y-94273809D01*
X180220952Y-94178571D01*
X180268571Y-94130952D01*
X180363809Y-94083333D01*
X180601904Y-94083333D01*
X180697142Y-94130952D01*
X180744761Y-94178571D01*
X180792380Y-94273809D01*
X180792380Y-94559523D01*
X180744761Y-94654761D01*
X180697142Y-94702380D01*
X108458095Y-93432380D02*
X108458095Y-94241904D01*
X108505714Y-94337142D01*
X108553333Y-94384761D01*
X108648571Y-94432380D01*
X108839047Y-94432380D01*
X108934285Y-94384761D01*
X108981904Y-94337142D01*
X109029523Y-94241904D01*
X109029523Y-93432380D01*
X109934285Y-93765714D02*
X109934285Y-94432380D01*
X109696190Y-93384761D02*
X109458095Y-94099047D01*
X110077142Y-94099047D01*
X108672380Y-100821904D02*
X108672380Y-100155238D01*
X109672380Y-100583809D01*
X109005714Y-99345714D02*
X109672380Y-99345714D01*
X108624761Y-99583809D02*
X109339047Y-99821904D01*
X109339047Y-99202857D01*
X109672380Y-98298095D02*
X109672380Y-98869523D01*
X109672380Y-98583809D02*
X108672380Y-98583809D01*
X108815238Y-98679047D01*
X108910476Y-98774285D01*
X108958095Y-98869523D01*
X108672380Y-97440952D02*
X108672380Y-97631428D01*
X108720000Y-97726666D01*
X108767619Y-97774285D01*
X108910476Y-97869523D01*
X109100952Y-97917142D01*
X109481904Y-97917142D01*
X109577142Y-97869523D01*
X109624761Y-97821904D01*
X109672380Y-97726666D01*
X109672380Y-97536190D01*
X109624761Y-97440952D01*
X109577142Y-97393333D01*
X109481904Y-97345714D01*
X109243809Y-97345714D01*
X109148571Y-97393333D01*
X109100952Y-97440952D01*
X109053333Y-97536190D01*
X109053333Y-97726666D01*
X109100952Y-97821904D01*
X109148571Y-97869523D01*
X109243809Y-97917142D01*
X120523095Y-93432380D02*
X120523095Y-94241904D01*
X120570714Y-94337142D01*
X120618333Y-94384761D01*
X120713571Y-94432380D01*
X120904047Y-94432380D01*
X120999285Y-94384761D01*
X121046904Y-94337142D01*
X121094523Y-94241904D01*
X121094523Y-93432380D01*
X122046904Y-93432380D02*
X121570714Y-93432380D01*
X121523095Y-93908571D01*
X121570714Y-93860952D01*
X121665952Y-93813333D01*
X121904047Y-93813333D01*
X121999285Y-93860952D01*
X122046904Y-93908571D01*
X122094523Y-94003809D01*
X122094523Y-94241904D01*
X122046904Y-94337142D01*
X121999285Y-94384761D01*
X121904047Y-94432380D01*
X121665952Y-94432380D01*
X121570714Y-94384761D01*
X121523095Y-94337142D01*
X120737380Y-100821904D02*
X120737380Y-100155238D01*
X121737380Y-100583809D01*
X121070714Y-99345714D02*
X121737380Y-99345714D01*
X120689761Y-99583809D02*
X121404047Y-99821904D01*
X121404047Y-99202857D01*
X121737380Y-98298095D02*
X121737380Y-98869523D01*
X121737380Y-98583809D02*
X120737380Y-98583809D01*
X120880238Y-98679047D01*
X120975476Y-98774285D01*
X121023095Y-98869523D01*
X120737380Y-97440952D02*
X120737380Y-97631428D01*
X120785000Y-97726666D01*
X120832619Y-97774285D01*
X120975476Y-97869523D01*
X121165952Y-97917142D01*
X121546904Y-97917142D01*
X121642142Y-97869523D01*
X121689761Y-97821904D01*
X121737380Y-97726666D01*
X121737380Y-97536190D01*
X121689761Y-97440952D01*
X121642142Y-97393333D01*
X121546904Y-97345714D01*
X121308809Y-97345714D01*
X121213571Y-97393333D01*
X121165952Y-97440952D01*
X121118333Y-97536190D01*
X121118333Y-97726666D01*
X121165952Y-97821904D01*
X121213571Y-97869523D01*
X121308809Y-97917142D01*
X108458095Y-121372380D02*
X108458095Y-122181904D01*
X108505714Y-122277142D01*
X108553333Y-122324761D01*
X108648571Y-122372380D01*
X108839047Y-122372380D01*
X108934285Y-122324761D01*
X108981904Y-122277142D01*
X109029523Y-122181904D01*
X109029523Y-121372380D01*
X109934285Y-121372380D02*
X109743809Y-121372380D01*
X109648571Y-121420000D01*
X109600952Y-121467619D01*
X109505714Y-121610476D01*
X109458095Y-121800952D01*
X109458095Y-122181904D01*
X109505714Y-122277142D01*
X109553333Y-122324761D01*
X109648571Y-122372380D01*
X109839047Y-122372380D01*
X109934285Y-122324761D01*
X109981904Y-122277142D01*
X110029523Y-122181904D01*
X110029523Y-121943809D01*
X109981904Y-121848571D01*
X109934285Y-121800952D01*
X109839047Y-121753333D01*
X109648571Y-121753333D01*
X109553333Y-121800952D01*
X109505714Y-121848571D01*
X109458095Y-121943809D01*
X108672380Y-128761904D02*
X108672380Y-128095238D01*
X109672380Y-128523809D01*
X109005714Y-127285714D02*
X109672380Y-127285714D01*
X108624761Y-127523809D02*
X109339047Y-127761904D01*
X109339047Y-127142857D01*
X109672380Y-126238095D02*
X109672380Y-126809523D01*
X109672380Y-126523809D02*
X108672380Y-126523809D01*
X108815238Y-126619047D01*
X108910476Y-126714285D01*
X108958095Y-126809523D01*
X108672380Y-125380952D02*
X108672380Y-125571428D01*
X108720000Y-125666666D01*
X108767619Y-125714285D01*
X108910476Y-125809523D01*
X109100952Y-125857142D01*
X109481904Y-125857142D01*
X109577142Y-125809523D01*
X109624761Y-125761904D01*
X109672380Y-125666666D01*
X109672380Y-125476190D01*
X109624761Y-125380952D01*
X109577142Y-125333333D01*
X109481904Y-125285714D01*
X109243809Y-125285714D01*
X109148571Y-125333333D01*
X109100952Y-125380952D01*
X109053333Y-125476190D01*
X109053333Y-125666666D01*
X109100952Y-125761904D01*
X109148571Y-125809523D01*
X109243809Y-125857142D01*
X159893095Y-91527380D02*
X159893095Y-92336904D01*
X159940714Y-92432142D01*
X159988333Y-92479761D01*
X160083571Y-92527380D01*
X160274047Y-92527380D01*
X160369285Y-92479761D01*
X160416904Y-92432142D01*
X160464523Y-92336904D01*
X160464523Y-91527380D01*
X160845476Y-91527380D02*
X161512142Y-91527380D01*
X161083571Y-92527380D01*
X159416904Y-93432380D02*
X159226428Y-93432380D01*
X159131190Y-93480000D01*
X159083571Y-93527619D01*
X158988333Y-93670476D01*
X158940714Y-93860952D01*
X158940714Y-94241904D01*
X158988333Y-94337142D01*
X159035952Y-94384761D01*
X159131190Y-94432380D01*
X159321666Y-94432380D01*
X159416904Y-94384761D01*
X159464523Y-94337142D01*
X159512142Y-94241904D01*
X159512142Y-94003809D01*
X159464523Y-93908571D01*
X159416904Y-93860952D01*
X159321666Y-93813333D01*
X159131190Y-93813333D01*
X159035952Y-93860952D01*
X158988333Y-93908571D01*
X158940714Y-94003809D01*
X160416904Y-93432380D02*
X159940714Y-93432380D01*
X159893095Y-93908571D01*
X159940714Y-93860952D01*
X160035952Y-93813333D01*
X160274047Y-93813333D01*
X160369285Y-93860952D01*
X160416904Y-93908571D01*
X160464523Y-94003809D01*
X160464523Y-94241904D01*
X160416904Y-94337142D01*
X160369285Y-94384761D01*
X160274047Y-94432380D01*
X160035952Y-94432380D01*
X159940714Y-94384761D01*
X159893095Y-94337142D01*
X160845476Y-93527619D02*
X160893095Y-93480000D01*
X160988333Y-93432380D01*
X161226428Y-93432380D01*
X161321666Y-93480000D01*
X161369285Y-93527619D01*
X161416904Y-93622857D01*
X161416904Y-93718095D01*
X161369285Y-93860952D01*
X160797857Y-94432380D01*
X161416904Y-94432380D01*
X161797857Y-93527619D02*
X161845476Y-93480000D01*
X161940714Y-93432380D01*
X162178809Y-93432380D01*
X162274047Y-93480000D01*
X162321666Y-93527619D01*
X162369285Y-93622857D01*
X162369285Y-93718095D01*
X162321666Y-93860952D01*
X161750238Y-94432380D01*
X162369285Y-94432380D01*
X157353095Y-64222380D02*
X157353095Y-65031904D01*
X157400714Y-65127142D01*
X157448333Y-65174761D01*
X157543571Y-65222380D01*
X157734047Y-65222380D01*
X157829285Y-65174761D01*
X157876904Y-65127142D01*
X157924523Y-65031904D01*
X157924523Y-64222380D01*
X158543571Y-64650952D02*
X158448333Y-64603333D01*
X158400714Y-64555714D01*
X158353095Y-64460476D01*
X158353095Y-64412857D01*
X158400714Y-64317619D01*
X158448333Y-64270000D01*
X158543571Y-64222380D01*
X158734047Y-64222380D01*
X158829285Y-64270000D01*
X158876904Y-64317619D01*
X158924523Y-64412857D01*
X158924523Y-64460476D01*
X158876904Y-64555714D01*
X158829285Y-64603333D01*
X158734047Y-64650952D01*
X158543571Y-64650952D01*
X158448333Y-64698571D01*
X158400714Y-64746190D01*
X158353095Y-64841428D01*
X158353095Y-65031904D01*
X158400714Y-65127142D01*
X158448333Y-65174761D01*
X158543571Y-65222380D01*
X158734047Y-65222380D01*
X158829285Y-65174761D01*
X158876904Y-65127142D01*
X158924523Y-65031904D01*
X158924523Y-64841428D01*
X158876904Y-64746190D01*
X158829285Y-64698571D01*
X158734047Y-64650952D01*
X154995952Y-66127380D02*
X155662619Y-66127380D01*
X155234047Y-67127380D01*
X156472142Y-66460714D02*
X156472142Y-67127380D01*
X156234047Y-66079761D02*
X155995952Y-66794047D01*
X156615000Y-66794047D01*
X157472142Y-67127380D02*
X156995952Y-67127380D01*
X156995952Y-66127380D01*
X157757857Y-67079761D02*
X157900714Y-67127380D01*
X158138809Y-67127380D01*
X158234047Y-67079761D01*
X158281666Y-67032142D01*
X158329285Y-66936904D01*
X158329285Y-66841666D01*
X158281666Y-66746428D01*
X158234047Y-66698809D01*
X158138809Y-66651190D01*
X157948333Y-66603571D01*
X157853095Y-66555952D01*
X157805476Y-66508333D01*
X157757857Y-66413095D01*
X157757857Y-66317857D01*
X157805476Y-66222619D01*
X157853095Y-66175000D01*
X157948333Y-66127380D01*
X158186428Y-66127380D01*
X158329285Y-66175000D01*
X159281666Y-67127380D02*
X158710238Y-67127380D01*
X158995952Y-67127380D02*
X158995952Y-66127380D01*
X158900714Y-66270238D01*
X158805476Y-66365476D01*
X158710238Y-66413095D01*
X160186428Y-66127380D02*
X159710238Y-66127380D01*
X159662619Y-66603571D01*
X159710238Y-66555952D01*
X159805476Y-66508333D01*
X160043571Y-66508333D01*
X160138809Y-66555952D01*
X160186428Y-66603571D01*
X160234047Y-66698809D01*
X160234047Y-66936904D01*
X160186428Y-67032142D01*
X160138809Y-67079761D01*
X160043571Y-67127380D01*
X159805476Y-67127380D01*
X159710238Y-67079761D01*
X159662619Y-67032142D01*
X161091190Y-66460714D02*
X161091190Y-67127380D01*
X160853095Y-66079761D02*
X160615000Y-66794047D01*
X161234047Y-66794047D01*
X199902380Y-51133333D02*
X200616666Y-51133333D01*
X200759523Y-51180952D01*
X200854761Y-51276190D01*
X200902380Y-51419047D01*
X200902380Y-51514285D01*
X200235714Y-50228571D02*
X200902380Y-50228571D01*
X199854761Y-50466666D02*
X200569047Y-50704761D01*
X200569047Y-50085714D01*
X109053333Y-115927142D02*
X109005714Y-115974761D01*
X108862857Y-116022380D01*
X108767619Y-116022380D01*
X108624761Y-115974761D01*
X108529523Y-115879523D01*
X108481904Y-115784285D01*
X108434285Y-115593809D01*
X108434285Y-115450952D01*
X108481904Y-115260476D01*
X108529523Y-115165238D01*
X108624761Y-115070000D01*
X108767619Y-115022380D01*
X108862857Y-115022380D01*
X109005714Y-115070000D01*
X109053333Y-115117619D01*
X109910476Y-115022380D02*
X109720000Y-115022380D01*
X109624761Y-115070000D01*
X109577142Y-115117619D01*
X109481904Y-115260476D01*
X109434285Y-115450952D01*
X109434285Y-115831904D01*
X109481904Y-115927142D01*
X109529523Y-115974761D01*
X109624761Y-116022380D01*
X109815238Y-116022380D01*
X109910476Y-115974761D01*
X109958095Y-115927142D01*
X110005714Y-115831904D01*
X110005714Y-115593809D01*
X109958095Y-115498571D01*
X109910476Y-115450952D01*
X109815238Y-115403333D01*
X109624761Y-115403333D01*
X109529523Y-115450952D01*
X109481904Y-115498571D01*
X109434285Y-115593809D01*
X149058333Y-134977142D02*
X149010714Y-135024761D01*
X148867857Y-135072380D01*
X148772619Y-135072380D01*
X148629761Y-135024761D01*
X148534523Y-134929523D01*
X148486904Y-134834285D01*
X148439285Y-134643809D01*
X148439285Y-134500952D01*
X148486904Y-134310476D01*
X148534523Y-134215238D01*
X148629761Y-134120000D01*
X148772619Y-134072380D01*
X148867857Y-134072380D01*
X149010714Y-134120000D01*
X149058333Y-134167619D01*
X149391666Y-134072380D02*
X150058333Y-134072380D01*
X149629761Y-135072380D01*
X179232619Y-104870238D02*
X179185000Y-104965476D01*
X179089761Y-105060714D01*
X178946904Y-105203571D01*
X178899285Y-105298809D01*
X178899285Y-105394047D01*
X179137380Y-105346428D02*
X179089761Y-105441666D01*
X178994523Y-105536904D01*
X178804047Y-105584523D01*
X178470714Y-105584523D01*
X178280238Y-105536904D01*
X178185000Y-105441666D01*
X178137380Y-105346428D01*
X178137380Y-105155952D01*
X178185000Y-105060714D01*
X178280238Y-104965476D01*
X178470714Y-104917857D01*
X178804047Y-104917857D01*
X178994523Y-104965476D01*
X179089761Y-105060714D01*
X179137380Y-105155952D01*
X179137380Y-105346428D01*
X179137380Y-103965476D02*
X179137380Y-104536904D01*
X179137380Y-104251190D02*
X178137380Y-104251190D01*
X178280238Y-104346428D01*
X178375476Y-104441666D01*
X178423095Y-104536904D01*
D10*
X184423095Y-106946428D02*
X184385000Y-106908333D01*
X184346904Y-106832142D01*
X184346904Y-106641666D01*
X184385000Y-106565476D01*
X184423095Y-106527380D01*
X184499285Y-106489285D01*
X184575476Y-106489285D01*
X184689761Y-106527380D01*
X185146904Y-106984523D01*
X185146904Y-106489285D01*
X185146904Y-106146428D02*
X184346904Y-106146428D01*
X185146904Y-105689285D01*
X184346904Y-105689285D01*
X184423095Y-105346428D02*
X184385000Y-105308333D01*
X184346904Y-105232142D01*
X184346904Y-105041666D01*
X184385000Y-104965476D01*
X184423095Y-104927380D01*
X184499285Y-104889285D01*
X184575476Y-104889285D01*
X184689761Y-104927380D01*
X185146904Y-105384523D01*
X185146904Y-104889285D01*
X184423095Y-104584523D02*
X184385000Y-104546428D01*
X184346904Y-104470238D01*
X184346904Y-104279761D01*
X184385000Y-104203571D01*
X184423095Y-104165476D01*
X184499285Y-104127380D01*
X184575476Y-104127380D01*
X184689761Y-104165476D01*
X185146904Y-104622619D01*
X185146904Y-104127380D01*
X184423095Y-103822619D02*
X184385000Y-103784523D01*
X184346904Y-103708333D01*
X184346904Y-103517857D01*
X184385000Y-103441666D01*
X184423095Y-103403571D01*
X184499285Y-103365476D01*
X184575476Y-103365476D01*
X184689761Y-103403571D01*
X185146904Y-103860714D01*
X185146904Y-103365476D01*
X184423095Y-103060714D02*
X184385000Y-103022619D01*
X184346904Y-102946428D01*
X184346904Y-102755952D01*
X184385000Y-102679761D01*
X184423095Y-102641666D01*
X184499285Y-102603571D01*
X184575476Y-102603571D01*
X184689761Y-102641666D01*
X185146904Y-103098809D01*
X185146904Y-102603571D01*
D12*
X183507142Y-92527380D02*
X183173809Y-92051190D01*
X182935714Y-92527380D02*
X182935714Y-91527380D01*
X183316666Y-91527380D01*
X183411904Y-91575000D01*
X183459523Y-91622619D01*
X183507142Y-91717857D01*
X183507142Y-91860714D01*
X183459523Y-91955952D01*
X183411904Y-92003571D01*
X183316666Y-92051190D01*
X182935714Y-92051190D01*
X184459523Y-92527380D02*
X183888095Y-92527380D01*
X184173809Y-92527380D02*
X184173809Y-91527380D01*
X184078571Y-91670238D01*
X183983333Y-91765476D01*
X183888095Y-91813095D01*
X184792857Y-91527380D02*
X185459523Y-91527380D01*
X185030952Y-92527380D01*
X183935714Y-96011904D02*
X184602380Y-96011904D01*
X183554761Y-96250000D02*
X184269047Y-96488095D01*
X184269047Y-95869047D01*
X183602380Y-95583333D02*
X183602380Y-94916666D01*
X184602380Y-95345238D01*
X183602380Y-94345238D02*
X183602380Y-94250000D01*
X183650000Y-94154761D01*
X183697619Y-94107142D01*
X183792857Y-94059523D01*
X183983333Y-94011904D01*
X184221428Y-94011904D01*
X184411904Y-94059523D01*
X184507142Y-94107142D01*
X184554761Y-94154761D01*
X184602380Y-94250000D01*
X184602380Y-94345238D01*
X184554761Y-94440476D01*
X184507142Y-94488095D01*
X184411904Y-94535714D01*
X184221428Y-94583333D01*
X183983333Y-94583333D01*
X183792857Y-94535714D01*
X183697619Y-94488095D01*
X183650000Y-94440476D01*
X183602380Y-94345238D01*
X175887142Y-92527380D02*
X175553809Y-92051190D01*
X175315714Y-92527380D02*
X175315714Y-91527380D01*
X175696666Y-91527380D01*
X175791904Y-91575000D01*
X175839523Y-91622619D01*
X175887142Y-91717857D01*
X175887142Y-91860714D01*
X175839523Y-91955952D01*
X175791904Y-92003571D01*
X175696666Y-92051190D01*
X175315714Y-92051190D01*
X176839523Y-92527380D02*
X176268095Y-92527380D01*
X176553809Y-92527380D02*
X176553809Y-91527380D01*
X176458571Y-91670238D01*
X176363333Y-91765476D01*
X176268095Y-91813095D01*
X177410952Y-91955952D02*
X177315714Y-91908333D01*
X177268095Y-91860714D01*
X177220476Y-91765476D01*
X177220476Y-91717857D01*
X177268095Y-91622619D01*
X177315714Y-91575000D01*
X177410952Y-91527380D01*
X177601428Y-91527380D01*
X177696666Y-91575000D01*
X177744285Y-91622619D01*
X177791904Y-91717857D01*
X177791904Y-91765476D01*
X177744285Y-91860714D01*
X177696666Y-91908333D01*
X177601428Y-91955952D01*
X177410952Y-91955952D01*
X177315714Y-92003571D01*
X177268095Y-92051190D01*
X177220476Y-92146428D01*
X177220476Y-92336904D01*
X177268095Y-92432142D01*
X177315714Y-92479761D01*
X177410952Y-92527380D01*
X177601428Y-92527380D01*
X177696666Y-92479761D01*
X177744285Y-92432142D01*
X177791904Y-92336904D01*
X177791904Y-92146428D01*
X177744285Y-92051190D01*
X177696666Y-92003571D01*
X177601428Y-91955952D01*
X176982380Y-95369047D02*
X176982380Y-95940476D01*
X176982380Y-95654761D02*
X175982380Y-95654761D01*
X176125238Y-95750000D01*
X176220476Y-95845238D01*
X176268095Y-95940476D01*
X176982380Y-94940476D02*
X175982380Y-94940476D01*
X176601428Y-94845238D02*
X176982380Y-94559523D01*
X176315714Y-94559523D02*
X176696666Y-94940476D01*
X191206380Y-125102857D02*
X191206380Y-125579047D01*
X190206380Y-125579047D01*
X191158761Y-124817142D02*
X191206380Y-124674285D01*
X191206380Y-124436190D01*
X191158761Y-124340952D01*
X191111142Y-124293333D01*
X191015904Y-124245714D01*
X190920666Y-124245714D01*
X190825428Y-124293333D01*
X190777809Y-124340952D01*
X190730190Y-124436190D01*
X190682571Y-124626666D01*
X190634952Y-124721904D01*
X190587333Y-124769523D01*
X190492095Y-124817142D01*
X190396857Y-124817142D01*
X190301619Y-124769523D01*
X190254000Y-124721904D01*
X190206380Y-124626666D01*
X190206380Y-124388571D01*
X190254000Y-124245714D01*
X191206380Y-123293333D02*
X191206380Y-123864761D01*
X191206380Y-123579047D02*
X190206380Y-123579047D01*
X190349238Y-123674285D01*
X190444476Y-123769523D01*
X190492095Y-123864761D01*
X175950619Y-126555238D02*
X175903000Y-126507619D01*
X175855380Y-126412380D01*
X175855380Y-126174285D01*
X175903000Y-126079047D01*
X175950619Y-126031428D01*
X176045857Y-125983809D01*
X176141095Y-125983809D01*
X176283952Y-126031428D01*
X176855380Y-126602857D01*
X176855380Y-125983809D01*
X175855380Y-125650476D02*
X175855380Y-125031428D01*
X176236333Y-125364761D01*
X176236333Y-125221904D01*
X176283952Y-125126666D01*
X176331571Y-125079047D01*
X176426809Y-125031428D01*
X176664904Y-125031428D01*
X176760142Y-125079047D01*
X176807761Y-125126666D01*
X176855380Y-125221904D01*
X176855380Y-125507619D01*
X176807761Y-125602857D01*
X176760142Y-125650476D01*
X176855380Y-124602857D02*
X176188714Y-124602857D01*
X176283952Y-124602857D02*
X176236333Y-124555238D01*
X176188714Y-124460000D01*
X176188714Y-124317142D01*
X176236333Y-124221904D01*
X176331571Y-124174285D01*
X176855380Y-124174285D01*
X176331571Y-124174285D02*
X176236333Y-124126666D01*
X176188714Y-124031428D01*
X176188714Y-123888571D01*
X176236333Y-123793333D01*
X176331571Y-123745714D01*
X176855380Y-123745714D01*
X176855380Y-123269523D02*
X176188714Y-123269523D01*
X176283952Y-123269523D02*
X176236333Y-123221904D01*
X176188714Y-123126666D01*
X176188714Y-122983809D01*
X176236333Y-122888571D01*
X176331571Y-122840952D01*
X176855380Y-122840952D01*
X176331571Y-122840952D02*
X176236333Y-122793333D01*
X176188714Y-122698095D01*
X176188714Y-122555238D01*
X176236333Y-122460000D01*
X176331571Y-122412380D01*
X176855380Y-122412380D01*
X172172380Y-126602857D02*
X172172380Y-125983809D01*
X172553333Y-126317142D01*
X172553333Y-126174285D01*
X172600952Y-126079047D01*
X172648571Y-126031428D01*
X172743809Y-125983809D01*
X172981904Y-125983809D01*
X173077142Y-126031428D01*
X173124761Y-126079047D01*
X173172380Y-126174285D01*
X173172380Y-126460000D01*
X173124761Y-126555238D01*
X173077142Y-126602857D01*
X172172380Y-125364761D02*
X172172380Y-125269523D01*
X172220000Y-125174285D01*
X172267619Y-125126666D01*
X172362857Y-125079047D01*
X172553333Y-125031428D01*
X172791428Y-125031428D01*
X172981904Y-125079047D01*
X173077142Y-125126666D01*
X173124761Y-125174285D01*
X173172380Y-125269523D01*
X173172380Y-125364761D01*
X173124761Y-125460000D01*
X173077142Y-125507619D01*
X172981904Y-125555238D01*
X172791428Y-125602857D01*
X172553333Y-125602857D01*
X172362857Y-125555238D01*
X172267619Y-125507619D01*
X172220000Y-125460000D01*
X172172380Y-125364761D01*
X173172380Y-124602857D02*
X172505714Y-124602857D01*
X172600952Y-124602857D02*
X172553333Y-124555238D01*
X172505714Y-124460000D01*
X172505714Y-124317142D01*
X172553333Y-124221904D01*
X172648571Y-124174285D01*
X173172380Y-124174285D01*
X172648571Y-124174285D02*
X172553333Y-124126666D01*
X172505714Y-124031428D01*
X172505714Y-123888571D01*
X172553333Y-123793333D01*
X172648571Y-123745714D01*
X173172380Y-123745714D01*
X173172380Y-123269523D02*
X172505714Y-123269523D01*
X172600952Y-123269523D02*
X172553333Y-123221904D01*
X172505714Y-123126666D01*
X172505714Y-122983809D01*
X172553333Y-122888571D01*
X172648571Y-122840952D01*
X173172380Y-122840952D01*
X172648571Y-122840952D02*
X172553333Y-122793333D01*
X172505714Y-122698095D01*
X172505714Y-122555238D01*
X172553333Y-122460000D01*
X172648571Y-122412380D01*
X173172380Y-122412380D01*
X102603333Y-64966904D02*
X102603333Y-65538333D01*
X102565238Y-65652619D01*
X102489047Y-65728809D01*
X102374761Y-65766904D01*
X102298571Y-65766904D01*
X103365238Y-64966904D02*
X102984285Y-64966904D01*
X102946190Y-65347857D01*
X102984285Y-65309761D01*
X103060476Y-65271666D01*
X103250952Y-65271666D01*
X103327142Y-65309761D01*
X103365238Y-65347857D01*
X103403333Y-65424047D01*
X103403333Y-65614523D01*
X103365238Y-65690714D01*
X103327142Y-65728809D01*
X103250952Y-65766904D01*
X103060476Y-65766904D01*
X102984285Y-65728809D01*
X102946190Y-65690714D01*
D10*
X106859428Y-72985000D02*
X106859428Y-72642142D01*
X107459428Y-72813571D02*
X106859428Y-72813571D01*
X107459428Y-72099285D02*
X107173714Y-72299285D01*
X107459428Y-72442142D02*
X106859428Y-72442142D01*
X106859428Y-72213571D01*
X106888000Y-72156428D01*
X106916571Y-72127857D01*
X106973714Y-72099285D01*
X107059428Y-72099285D01*
X107116571Y-72127857D01*
X107145142Y-72156428D01*
X107173714Y-72213571D01*
X107173714Y-72442142D01*
X107430857Y-71870714D02*
X107459428Y-71785000D01*
X107459428Y-71642142D01*
X107430857Y-71585000D01*
X107402285Y-71556428D01*
X107345142Y-71527857D01*
X107288000Y-71527857D01*
X107230857Y-71556428D01*
X107202285Y-71585000D01*
X107173714Y-71642142D01*
X107145142Y-71756428D01*
X107116571Y-71813571D01*
X107088000Y-71842142D01*
X107030857Y-71870714D01*
X106973714Y-71870714D01*
X106916571Y-71842142D01*
X106888000Y-71813571D01*
X106859428Y-71756428D01*
X106859428Y-71613571D01*
X106888000Y-71527857D01*
X107516571Y-71413571D02*
X107516571Y-70956428D01*
X106859428Y-70870714D02*
X106859428Y-70499285D01*
X107088000Y-70699285D01*
X107088000Y-70613571D01*
X107116571Y-70556428D01*
X107145142Y-70527857D01*
X107202285Y-70499285D01*
X107345142Y-70499285D01*
X107402285Y-70527857D01*
X107430857Y-70556428D01*
X107459428Y-70613571D01*
X107459428Y-70785000D01*
X107430857Y-70842142D01*
X107402285Y-70870714D01*
X107402285Y-70242142D02*
X107430857Y-70213571D01*
X107459428Y-70242142D01*
X107430857Y-70270714D01*
X107402285Y-70242142D01*
X107459428Y-70242142D01*
X106859428Y-69670714D02*
X106859428Y-69956428D01*
X107145142Y-69985000D01*
X107116571Y-69956428D01*
X107088000Y-69899285D01*
X107088000Y-69756428D01*
X107116571Y-69699285D01*
X107145142Y-69670714D01*
X107202285Y-69642142D01*
X107345142Y-69642142D01*
X107402285Y-69670714D01*
X107430857Y-69699285D01*
X107459428Y-69756428D01*
X107459428Y-69899285D01*
X107430857Y-69956428D01*
X107402285Y-69985000D01*
X107459428Y-69385000D02*
X107059428Y-69385000D01*
X107116571Y-69385000D02*
X107088000Y-69356428D01*
X107059428Y-69299285D01*
X107059428Y-69213571D01*
X107088000Y-69156428D01*
X107145142Y-69127857D01*
X107459428Y-69127857D01*
X107145142Y-69127857D02*
X107088000Y-69099285D01*
X107059428Y-69042142D01*
X107059428Y-68956428D01*
X107088000Y-68899285D01*
X107145142Y-68870714D01*
X107459428Y-68870714D01*
X107459428Y-68585000D02*
X107059428Y-68585000D01*
X107116571Y-68585000D02*
X107088000Y-68556428D01*
X107059428Y-68499285D01*
X107059428Y-68413571D01*
X107088000Y-68356428D01*
X107145142Y-68327857D01*
X107459428Y-68327857D01*
X107145142Y-68327857D02*
X107088000Y-68299285D01*
X107059428Y-68242142D01*
X107059428Y-68156428D01*
X107088000Y-68099285D01*
X107145142Y-68070714D01*
X107459428Y-68070714D01*
X174015714Y-108908809D02*
X174130000Y-108946904D01*
X174320476Y-108946904D01*
X174396666Y-108908809D01*
X174434761Y-108870714D01*
X174472857Y-108794523D01*
X174472857Y-108718333D01*
X174434761Y-108642142D01*
X174396666Y-108604047D01*
X174320476Y-108565952D01*
X174168095Y-108527857D01*
X174091904Y-108489761D01*
X174053809Y-108451666D01*
X174015714Y-108375476D01*
X174015714Y-108299285D01*
X174053809Y-108223095D01*
X174091904Y-108185000D01*
X174168095Y-108146904D01*
X174358571Y-108146904D01*
X174472857Y-108185000D01*
X174815714Y-108946904D02*
X174815714Y-108146904D01*
X175120476Y-108146904D01*
X175196666Y-108185000D01*
X175234761Y-108223095D01*
X175272857Y-108299285D01*
X175272857Y-108413571D01*
X175234761Y-108489761D01*
X175196666Y-108527857D01*
X175120476Y-108565952D01*
X174815714Y-108565952D01*
X175615714Y-108946904D02*
X175615714Y-108146904D01*
X176072857Y-108946904D02*
X175730000Y-108489761D01*
X176072857Y-108146904D02*
X175615714Y-108604047D01*
X176872857Y-108946904D02*
X176606190Y-108565952D01*
X176415714Y-108946904D02*
X176415714Y-108146904D01*
X176720476Y-108146904D01*
X176796666Y-108185000D01*
X176834761Y-108223095D01*
X176872857Y-108299285D01*
X176872857Y-108413571D01*
X176834761Y-108489761D01*
X176796666Y-108527857D01*
X176720476Y-108565952D01*
X176415714Y-108565952D01*
X177025238Y-109023095D02*
X177634761Y-109023095D01*
X177825238Y-108527857D02*
X178091904Y-108527857D01*
X178206190Y-108946904D02*
X177825238Y-108946904D01*
X177825238Y-108146904D01*
X178206190Y-108146904D01*
X178549047Y-108946904D02*
X178549047Y-108146904D01*
X179006190Y-108946904D01*
X179006190Y-108146904D01*
D12*
X139533333Y-141422380D02*
X139200000Y-140946190D01*
X138961904Y-141422380D02*
X138961904Y-140422380D01*
X139342857Y-140422380D01*
X139438095Y-140470000D01*
X139485714Y-140517619D01*
X139533333Y-140612857D01*
X139533333Y-140755714D01*
X139485714Y-140850952D01*
X139438095Y-140898571D01*
X139342857Y-140946190D01*
X138961904Y-140946190D01*
X140485714Y-141422380D02*
X139914285Y-141422380D01*
X140200000Y-141422380D02*
X140200000Y-140422380D01*
X140104761Y-140565238D01*
X140009523Y-140660476D01*
X139914285Y-140708095D01*
X135858333Y-141422380D02*
X135286904Y-141422380D01*
X135572619Y-141422380D02*
X135572619Y-140422380D01*
X135477380Y-140565238D01*
X135382142Y-140660476D01*
X135286904Y-140708095D01*
X136477380Y-140422380D02*
X136572619Y-140422380D01*
X136667857Y-140470000D01*
X136715476Y-140517619D01*
X136763095Y-140612857D01*
X136810714Y-140803333D01*
X136810714Y-141041428D01*
X136763095Y-141231904D01*
X136715476Y-141327142D01*
X136667857Y-141374761D01*
X136572619Y-141422380D01*
X136477380Y-141422380D01*
X136382142Y-141374761D01*
X136334523Y-141327142D01*
X136286904Y-141231904D01*
X136239285Y-141041428D01*
X136239285Y-140803333D01*
X136286904Y-140612857D01*
X136334523Y-140517619D01*
X136382142Y-140470000D01*
X136477380Y-140422380D01*
X137429761Y-140422380D02*
X137525000Y-140422380D01*
X137620238Y-140470000D01*
X137667857Y-140517619D01*
X137715476Y-140612857D01*
X137763095Y-140803333D01*
X137763095Y-141041428D01*
X137715476Y-141231904D01*
X137667857Y-141327142D01*
X137620238Y-141374761D01*
X137525000Y-141422380D01*
X137429761Y-141422380D01*
X137334523Y-141374761D01*
X137286904Y-141327142D01*
X137239285Y-141231904D01*
X137191666Y-141041428D01*
X137191666Y-140803333D01*
X137239285Y-140612857D01*
X137286904Y-140517619D01*
X137334523Y-140470000D01*
X137429761Y-140422380D01*
X140692142Y-61126666D02*
X140739761Y-61174285D01*
X140787380Y-61317142D01*
X140787380Y-61412380D01*
X140739761Y-61555238D01*
X140644523Y-61650476D01*
X140549285Y-61698095D01*
X140358809Y-61745714D01*
X140215952Y-61745714D01*
X140025476Y-61698095D01*
X139930238Y-61650476D01*
X139835000Y-61555238D01*
X139787380Y-61412380D01*
X139787380Y-61317142D01*
X139835000Y-61174285D01*
X139882619Y-61126666D01*
X140215952Y-60555238D02*
X140168333Y-60650476D01*
X140120714Y-60698095D01*
X140025476Y-60745714D01*
X139977857Y-60745714D01*
X139882619Y-60698095D01*
X139835000Y-60650476D01*
X139787380Y-60555238D01*
X139787380Y-60364761D01*
X139835000Y-60269523D01*
X139882619Y-60221904D01*
X139977857Y-60174285D01*
X140025476Y-60174285D01*
X140120714Y-60221904D01*
X140168333Y-60269523D01*
X140215952Y-60364761D01*
X140215952Y-60555238D01*
X140263571Y-60650476D01*
X140311190Y-60698095D01*
X140406428Y-60745714D01*
X140596904Y-60745714D01*
X140692142Y-60698095D01*
X140739761Y-60650476D01*
X140787380Y-60555238D01*
X140787380Y-60364761D01*
X140739761Y-60269523D01*
X140692142Y-60221904D01*
X140596904Y-60174285D01*
X140406428Y-60174285D01*
X140311190Y-60221904D01*
X140263571Y-60269523D01*
X140215952Y-60364761D01*
M02*
