G04 #@! TF.FileFunction,Legend,Bot*
%FSLAX46Y46*%
G04 Gerber Fmt 4.6, Leading zero omitted, Abs format (unit mm)*
G04 Created by KiCad (PCBNEW 4.0.7) date 02/09/20 21:36:46*
%MOMM*%
%LPD*%
G01*
G04 APERTURE LIST*
%ADD10C,0.100000*%
%ADD11C,0.200000*%
%ADD12C,0.150000*%
G04 APERTURE END LIST*
D10*
X179044286Y-108908810D02*
X178930000Y-108946905D01*
X178739524Y-108946905D01*
X178663334Y-108908810D01*
X178625238Y-108870714D01*
X178587143Y-108794524D01*
X178587143Y-108718333D01*
X178625238Y-108642143D01*
X178663334Y-108604048D01*
X178739524Y-108565952D01*
X178891905Y-108527857D01*
X178968096Y-108489762D01*
X179006191Y-108451667D01*
X179044286Y-108375476D01*
X179044286Y-108299286D01*
X179006191Y-108223095D01*
X178968096Y-108185000D01*
X178891905Y-108146905D01*
X178701429Y-108146905D01*
X178587143Y-108185000D01*
X178244286Y-108946905D02*
X178244286Y-108146905D01*
X177939524Y-108146905D01*
X177863333Y-108185000D01*
X177825238Y-108223095D01*
X177787143Y-108299286D01*
X177787143Y-108413571D01*
X177825238Y-108489762D01*
X177863333Y-108527857D01*
X177939524Y-108565952D01*
X178244286Y-108565952D01*
X177444286Y-108946905D02*
X177444286Y-108146905D01*
X176987143Y-108946905D02*
X177330000Y-108489762D01*
X176987143Y-108146905D02*
X177444286Y-108604048D01*
X176187143Y-108946905D02*
X176453810Y-108565952D01*
X176644286Y-108946905D02*
X176644286Y-108146905D01*
X176339524Y-108146905D01*
X176263333Y-108185000D01*
X176225238Y-108223095D01*
X176187143Y-108299286D01*
X176187143Y-108413571D01*
X176225238Y-108489762D01*
X176263333Y-108527857D01*
X176339524Y-108565952D01*
X176644286Y-108565952D01*
X176034762Y-109023095D02*
X175425238Y-109023095D01*
X175234762Y-108527857D02*
X174968095Y-108527857D01*
X174853809Y-108946905D02*
X175234762Y-108946905D01*
X175234762Y-108146905D01*
X174853809Y-108146905D01*
X174510952Y-108946905D02*
X174510952Y-108146905D01*
X174053809Y-108946905D01*
X174053809Y-108146905D01*
D11*
X178435000Y-107950000D02*
X178435000Y-106680000D01*
X174625000Y-107950000D02*
X178435000Y-107950000D01*
X174625000Y-101600000D02*
X174625000Y-107950000D01*
X178435000Y-101600000D02*
X174625000Y-101600000D01*
X178435000Y-102870000D02*
X178435000Y-101600000D01*
X178435000Y-106045000D02*
X177165000Y-106045000D01*
X178435000Y-103505000D02*
X178435000Y-106045000D01*
X177165000Y-103505000D02*
X178435000Y-103505000D01*
D10*
X196189286Y-59823333D02*
X195808334Y-59823333D01*
X196265477Y-60051905D02*
X195998810Y-59251905D01*
X195732143Y-60051905D01*
X195465477Y-60051905D02*
X195465477Y-59251905D01*
X195275001Y-59251905D01*
X195160715Y-59290000D01*
X195084524Y-59366190D01*
X195046429Y-59442381D01*
X195008334Y-59594762D01*
X195008334Y-59709048D01*
X195046429Y-59861429D01*
X195084524Y-59937619D01*
X195160715Y-60013810D01*
X195275001Y-60051905D01*
X195465477Y-60051905D01*
X194665477Y-60051905D02*
X194665477Y-59251905D01*
X194475001Y-59251905D01*
X194360715Y-59290000D01*
X194284524Y-59366190D01*
X194246429Y-59442381D01*
X194208334Y-59594762D01*
X194208334Y-59709048D01*
X194246429Y-59861429D01*
X194284524Y-59937619D01*
X194360715Y-60013810D01*
X194475001Y-60051905D01*
X194665477Y-60051905D01*
X193408334Y-60051905D02*
X193675001Y-59670952D01*
X193865477Y-60051905D02*
X193865477Y-59251905D01*
X193560715Y-59251905D01*
X193484524Y-59290000D01*
X193446429Y-59328095D01*
X193408334Y-59404286D01*
X193408334Y-59518571D01*
X193446429Y-59594762D01*
X193484524Y-59632857D01*
X193560715Y-59670952D01*
X193865477Y-59670952D01*
X193065477Y-59632857D02*
X192798810Y-59632857D01*
X192684524Y-60051905D02*
X193065477Y-60051905D01*
X193065477Y-59251905D01*
X192684524Y-59251905D01*
X192379762Y-60013810D02*
X192265476Y-60051905D01*
X192075000Y-60051905D01*
X191998810Y-60013810D01*
X191960714Y-59975714D01*
X191922619Y-59899524D01*
X191922619Y-59823333D01*
X191960714Y-59747143D01*
X191998810Y-59709048D01*
X192075000Y-59670952D01*
X192227381Y-59632857D01*
X192303572Y-59594762D01*
X192341667Y-59556667D01*
X192379762Y-59480476D01*
X192379762Y-59404286D01*
X192341667Y-59328095D01*
X192303572Y-59290000D01*
X192227381Y-59251905D01*
X192036905Y-59251905D01*
X191922619Y-59290000D01*
X191617857Y-60013810D02*
X191503571Y-60051905D01*
X191313095Y-60051905D01*
X191236905Y-60013810D01*
X191198809Y-59975714D01*
X191160714Y-59899524D01*
X191160714Y-59823333D01*
X191198809Y-59747143D01*
X191236905Y-59709048D01*
X191313095Y-59670952D01*
X191465476Y-59632857D01*
X191541667Y-59594762D01*
X191579762Y-59556667D01*
X191617857Y-59480476D01*
X191617857Y-59404286D01*
X191579762Y-59328095D01*
X191541667Y-59290000D01*
X191465476Y-59251905D01*
X191275000Y-59251905D01*
X191160714Y-59290000D01*
D11*
X193040000Y-73660000D02*
X188595000Y-73660000D01*
X188595000Y-71120000D02*
X193040000Y-71120000D01*
X193040000Y-68580000D02*
X188595000Y-68580000D01*
X193040000Y-66040000D02*
X188595000Y-66040000D01*
X188595000Y-63500000D02*
X193040000Y-63500000D01*
X196850000Y-71120000D02*
X196850000Y-71755000D01*
X194310000Y-71120000D02*
X196850000Y-71120000D01*
X194310000Y-71755000D02*
X194310000Y-71120000D01*
X198755000Y-76835000D02*
X187960000Y-76835000D01*
X198755000Y-60325000D02*
X198755000Y-76835000D01*
X187960000Y-60325000D02*
X198755000Y-60325000D01*
X187960000Y-76835000D02*
X187960000Y-60325000D01*
D10*
X192271429Y-74603810D02*
X192157143Y-74641905D01*
X191966667Y-74641905D01*
X191890477Y-74603810D01*
X191852381Y-74565714D01*
X191814286Y-74489524D01*
X191814286Y-74413333D01*
X191852381Y-74337143D01*
X191890477Y-74299048D01*
X191966667Y-74260952D01*
X192119048Y-74222857D01*
X192195239Y-74184762D01*
X192233334Y-74146667D01*
X192271429Y-74070476D01*
X192271429Y-73994286D01*
X192233334Y-73918095D01*
X192195239Y-73880000D01*
X192119048Y-73841905D01*
X191928572Y-73841905D01*
X191814286Y-73880000D01*
X192042858Y-73727619D02*
X192042858Y-74756190D01*
X191014286Y-74565714D02*
X191052381Y-74603810D01*
X191166667Y-74641905D01*
X191242857Y-74641905D01*
X191357143Y-74603810D01*
X191433334Y-74527619D01*
X191471429Y-74451429D01*
X191509524Y-74299048D01*
X191509524Y-74184762D01*
X191471429Y-74032381D01*
X191433334Y-73956190D01*
X191357143Y-73880000D01*
X191242857Y-73841905D01*
X191166667Y-73841905D01*
X191052381Y-73880000D01*
X191014286Y-73918095D01*
X190519048Y-73841905D02*
X190442857Y-73841905D01*
X190366667Y-73880000D01*
X190328572Y-73918095D01*
X190290476Y-73994286D01*
X190252381Y-74146667D01*
X190252381Y-74337143D01*
X190290476Y-74489524D01*
X190328572Y-74565714D01*
X190366667Y-74603810D01*
X190442857Y-74641905D01*
X190519048Y-74641905D01*
X190595238Y-74603810D01*
X190633334Y-74565714D01*
X190671429Y-74489524D01*
X190709524Y-74337143D01*
X190709524Y-74146667D01*
X190671429Y-73994286D01*
X190633334Y-73918095D01*
X190595238Y-73880000D01*
X190519048Y-73841905D01*
X189757143Y-73841905D02*
X189680952Y-73841905D01*
X189604762Y-73880000D01*
X189566667Y-73918095D01*
X189528571Y-73994286D01*
X189490476Y-74146667D01*
X189490476Y-74337143D01*
X189528571Y-74489524D01*
X189566667Y-74565714D01*
X189604762Y-74603810D01*
X189680952Y-74641905D01*
X189757143Y-74641905D01*
X189833333Y-74603810D01*
X189871429Y-74565714D01*
X189909524Y-74489524D01*
X189947619Y-74337143D01*
X189947619Y-74146667D01*
X189909524Y-73994286D01*
X189871429Y-73918095D01*
X189833333Y-73880000D01*
X189757143Y-73841905D01*
X188995238Y-73841905D02*
X188919047Y-73841905D01*
X188842857Y-73880000D01*
X188804762Y-73918095D01*
X188766666Y-73994286D01*
X188728571Y-74146667D01*
X188728571Y-74337143D01*
X188766666Y-74489524D01*
X188804762Y-74565714D01*
X188842857Y-74603810D01*
X188919047Y-74641905D01*
X188995238Y-74641905D01*
X189071428Y-74603810D01*
X189109524Y-74565714D01*
X189147619Y-74489524D01*
X189185714Y-74337143D01*
X189185714Y-74146667D01*
X189147619Y-73994286D01*
X189109524Y-73918095D01*
X189071428Y-73880000D01*
X188995238Y-73841905D01*
X192290476Y-75903810D02*
X192176190Y-75941905D01*
X191985714Y-75941905D01*
X191909524Y-75903810D01*
X191871428Y-75865714D01*
X191833333Y-75789524D01*
X191833333Y-75713333D01*
X191871428Y-75637143D01*
X191909524Y-75599048D01*
X191985714Y-75560952D01*
X192138095Y-75522857D01*
X192214286Y-75484762D01*
X192252381Y-75446667D01*
X192290476Y-75370476D01*
X192290476Y-75294286D01*
X192252381Y-75218095D01*
X192214286Y-75180000D01*
X192138095Y-75141905D01*
X191947619Y-75141905D01*
X191833333Y-75180000D01*
X192061905Y-75027619D02*
X192061905Y-76056190D01*
X191033333Y-75865714D02*
X191071428Y-75903810D01*
X191185714Y-75941905D01*
X191261904Y-75941905D01*
X191376190Y-75903810D01*
X191452381Y-75827619D01*
X191490476Y-75751429D01*
X191528571Y-75599048D01*
X191528571Y-75484762D01*
X191490476Y-75332381D01*
X191452381Y-75256190D01*
X191376190Y-75180000D01*
X191261904Y-75141905D01*
X191185714Y-75141905D01*
X191071428Y-75180000D01*
X191033333Y-75218095D01*
X190233333Y-75865714D02*
X190271428Y-75903810D01*
X190385714Y-75941905D01*
X190461904Y-75941905D01*
X190576190Y-75903810D01*
X190652381Y-75827619D01*
X190690476Y-75751429D01*
X190728571Y-75599048D01*
X190728571Y-75484762D01*
X190690476Y-75332381D01*
X190652381Y-75256190D01*
X190576190Y-75180000D01*
X190461904Y-75141905D01*
X190385714Y-75141905D01*
X190271428Y-75180000D01*
X190233333Y-75218095D01*
X189738095Y-75141905D02*
X189661904Y-75141905D01*
X189585714Y-75180000D01*
X189547619Y-75218095D01*
X189509523Y-75294286D01*
X189471428Y-75446667D01*
X189471428Y-75637143D01*
X189509523Y-75789524D01*
X189547619Y-75865714D01*
X189585714Y-75903810D01*
X189661904Y-75941905D01*
X189738095Y-75941905D01*
X189814285Y-75903810D01*
X189852381Y-75865714D01*
X189890476Y-75789524D01*
X189928571Y-75637143D01*
X189928571Y-75446667D01*
X189890476Y-75294286D01*
X189852381Y-75218095D01*
X189814285Y-75180000D01*
X189738095Y-75141905D01*
X188976190Y-75141905D02*
X188899999Y-75141905D01*
X188823809Y-75180000D01*
X188785714Y-75218095D01*
X188747618Y-75294286D01*
X188709523Y-75446667D01*
X188709523Y-75637143D01*
X188747618Y-75789524D01*
X188785714Y-75865714D01*
X188823809Y-75903810D01*
X188899999Y-75941905D01*
X188976190Y-75941905D01*
X189052380Y-75903810D01*
X189090476Y-75865714D01*
X189128571Y-75789524D01*
X189166666Y-75637143D01*
X189166666Y-75446667D01*
X189128571Y-75294286D01*
X189090476Y-75218095D01*
X189052380Y-75180000D01*
X188976190Y-75141905D01*
X192214286Y-72063810D02*
X192100000Y-72101905D01*
X191909524Y-72101905D01*
X191833334Y-72063810D01*
X191795238Y-72025714D01*
X191757143Y-71949524D01*
X191757143Y-71873333D01*
X191795238Y-71797143D01*
X191833334Y-71759048D01*
X191909524Y-71720952D01*
X192061905Y-71682857D01*
X192138096Y-71644762D01*
X192176191Y-71606667D01*
X192214286Y-71530476D01*
X192214286Y-71454286D01*
X192176191Y-71378095D01*
X192138096Y-71340000D01*
X192061905Y-71301905D01*
X191871429Y-71301905D01*
X191757143Y-71340000D01*
X191985715Y-71187619D02*
X191985715Y-72216190D01*
X191452381Y-71873333D02*
X191071429Y-71873333D01*
X191528572Y-72101905D02*
X191261905Y-71301905D01*
X190995238Y-72101905D01*
X190576191Y-71301905D02*
X190500000Y-71301905D01*
X190423810Y-71340000D01*
X190385715Y-71378095D01*
X190347619Y-71454286D01*
X190309524Y-71606667D01*
X190309524Y-71797143D01*
X190347619Y-71949524D01*
X190385715Y-72025714D01*
X190423810Y-72063810D01*
X190500000Y-72101905D01*
X190576191Y-72101905D01*
X190652381Y-72063810D01*
X190690477Y-72025714D01*
X190728572Y-71949524D01*
X190766667Y-71797143D01*
X190766667Y-71606667D01*
X190728572Y-71454286D01*
X190690477Y-71378095D01*
X190652381Y-71340000D01*
X190576191Y-71301905D01*
X189814286Y-71301905D02*
X189738095Y-71301905D01*
X189661905Y-71340000D01*
X189623810Y-71378095D01*
X189585714Y-71454286D01*
X189547619Y-71606667D01*
X189547619Y-71797143D01*
X189585714Y-71949524D01*
X189623810Y-72025714D01*
X189661905Y-72063810D01*
X189738095Y-72101905D01*
X189814286Y-72101905D01*
X189890476Y-72063810D01*
X189928572Y-72025714D01*
X189966667Y-71949524D01*
X190004762Y-71797143D01*
X190004762Y-71606667D01*
X189966667Y-71454286D01*
X189928572Y-71378095D01*
X189890476Y-71340000D01*
X189814286Y-71301905D01*
X189052381Y-71301905D02*
X188976190Y-71301905D01*
X188900000Y-71340000D01*
X188861905Y-71378095D01*
X188823809Y-71454286D01*
X188785714Y-71606667D01*
X188785714Y-71797143D01*
X188823809Y-71949524D01*
X188861905Y-72025714D01*
X188900000Y-72063810D01*
X188976190Y-72101905D01*
X189052381Y-72101905D01*
X189128571Y-72063810D01*
X189166667Y-72025714D01*
X189204762Y-71949524D01*
X189242857Y-71797143D01*
X189242857Y-71606667D01*
X189204762Y-71454286D01*
X189166667Y-71378095D01*
X189128571Y-71340000D01*
X189052381Y-71301905D01*
X192233333Y-73363810D02*
X192119047Y-73401905D01*
X191928571Y-73401905D01*
X191852381Y-73363810D01*
X191814285Y-73325714D01*
X191776190Y-73249524D01*
X191776190Y-73173333D01*
X191814285Y-73097143D01*
X191852381Y-73059048D01*
X191928571Y-73020952D01*
X192080952Y-72982857D01*
X192157143Y-72944762D01*
X192195238Y-72906667D01*
X192233333Y-72830476D01*
X192233333Y-72754286D01*
X192195238Y-72678095D01*
X192157143Y-72640000D01*
X192080952Y-72601905D01*
X191890476Y-72601905D01*
X191776190Y-72640000D01*
X192004762Y-72487619D02*
X192004762Y-73516190D01*
X191471428Y-73173333D02*
X191090476Y-73173333D01*
X191547619Y-73401905D02*
X191280952Y-72601905D01*
X191014285Y-73401905D01*
X190290476Y-73325714D02*
X190328571Y-73363810D01*
X190442857Y-73401905D01*
X190519047Y-73401905D01*
X190633333Y-73363810D01*
X190709524Y-73287619D01*
X190747619Y-73211429D01*
X190785714Y-73059048D01*
X190785714Y-72944762D01*
X190747619Y-72792381D01*
X190709524Y-72716190D01*
X190633333Y-72640000D01*
X190519047Y-72601905D01*
X190442857Y-72601905D01*
X190328571Y-72640000D01*
X190290476Y-72678095D01*
X189795238Y-72601905D02*
X189719047Y-72601905D01*
X189642857Y-72640000D01*
X189604762Y-72678095D01*
X189566666Y-72754286D01*
X189528571Y-72906667D01*
X189528571Y-73097143D01*
X189566666Y-73249524D01*
X189604762Y-73325714D01*
X189642857Y-73363810D01*
X189719047Y-73401905D01*
X189795238Y-73401905D01*
X189871428Y-73363810D01*
X189909524Y-73325714D01*
X189947619Y-73249524D01*
X189985714Y-73097143D01*
X189985714Y-72906667D01*
X189947619Y-72754286D01*
X189909524Y-72678095D01*
X189871428Y-72640000D01*
X189795238Y-72601905D01*
X189033333Y-72601905D02*
X188957142Y-72601905D01*
X188880952Y-72640000D01*
X188842857Y-72678095D01*
X188804761Y-72754286D01*
X188766666Y-72906667D01*
X188766666Y-73097143D01*
X188804761Y-73249524D01*
X188842857Y-73325714D01*
X188880952Y-73363810D01*
X188957142Y-73401905D01*
X189033333Y-73401905D01*
X189109523Y-73363810D01*
X189147619Y-73325714D01*
X189185714Y-73249524D01*
X189223809Y-73097143D01*
X189223809Y-72906667D01*
X189185714Y-72754286D01*
X189147619Y-72678095D01*
X189109523Y-72640000D01*
X189033333Y-72601905D01*
X192252381Y-69523810D02*
X192138095Y-69561905D01*
X191947619Y-69561905D01*
X191871429Y-69523810D01*
X191833333Y-69485714D01*
X191795238Y-69409524D01*
X191795238Y-69333333D01*
X191833333Y-69257143D01*
X191871429Y-69219048D01*
X191947619Y-69180952D01*
X192100000Y-69142857D01*
X192176191Y-69104762D01*
X192214286Y-69066667D01*
X192252381Y-68990476D01*
X192252381Y-68914286D01*
X192214286Y-68838095D01*
X192176191Y-68800000D01*
X192100000Y-68761905D01*
X191909524Y-68761905D01*
X191795238Y-68800000D01*
X192023810Y-68647619D02*
X192023810Y-69676190D01*
X191338095Y-69104762D02*
X191414286Y-69066667D01*
X191452381Y-69028571D01*
X191490476Y-68952381D01*
X191490476Y-68914286D01*
X191452381Y-68838095D01*
X191414286Y-68800000D01*
X191338095Y-68761905D01*
X191185714Y-68761905D01*
X191109524Y-68800000D01*
X191071428Y-68838095D01*
X191033333Y-68914286D01*
X191033333Y-68952381D01*
X191071428Y-69028571D01*
X191109524Y-69066667D01*
X191185714Y-69104762D01*
X191338095Y-69104762D01*
X191414286Y-69142857D01*
X191452381Y-69180952D01*
X191490476Y-69257143D01*
X191490476Y-69409524D01*
X191452381Y-69485714D01*
X191414286Y-69523810D01*
X191338095Y-69561905D01*
X191185714Y-69561905D01*
X191109524Y-69523810D01*
X191071428Y-69485714D01*
X191033333Y-69409524D01*
X191033333Y-69257143D01*
X191071428Y-69180952D01*
X191109524Y-69142857D01*
X191185714Y-69104762D01*
X190538095Y-68761905D02*
X190461904Y-68761905D01*
X190385714Y-68800000D01*
X190347619Y-68838095D01*
X190309523Y-68914286D01*
X190271428Y-69066667D01*
X190271428Y-69257143D01*
X190309523Y-69409524D01*
X190347619Y-69485714D01*
X190385714Y-69523810D01*
X190461904Y-69561905D01*
X190538095Y-69561905D01*
X190614285Y-69523810D01*
X190652381Y-69485714D01*
X190690476Y-69409524D01*
X190728571Y-69257143D01*
X190728571Y-69066667D01*
X190690476Y-68914286D01*
X190652381Y-68838095D01*
X190614285Y-68800000D01*
X190538095Y-68761905D01*
X189776190Y-68761905D02*
X189699999Y-68761905D01*
X189623809Y-68800000D01*
X189585714Y-68838095D01*
X189547618Y-68914286D01*
X189509523Y-69066667D01*
X189509523Y-69257143D01*
X189547618Y-69409524D01*
X189585714Y-69485714D01*
X189623809Y-69523810D01*
X189699999Y-69561905D01*
X189776190Y-69561905D01*
X189852380Y-69523810D01*
X189890476Y-69485714D01*
X189928571Y-69409524D01*
X189966666Y-69257143D01*
X189966666Y-69066667D01*
X189928571Y-68914286D01*
X189890476Y-68838095D01*
X189852380Y-68800000D01*
X189776190Y-68761905D01*
X189014285Y-68761905D02*
X188938094Y-68761905D01*
X188861904Y-68800000D01*
X188823809Y-68838095D01*
X188785713Y-68914286D01*
X188747618Y-69066667D01*
X188747618Y-69257143D01*
X188785713Y-69409524D01*
X188823809Y-69485714D01*
X188861904Y-69523810D01*
X188938094Y-69561905D01*
X189014285Y-69561905D01*
X189090475Y-69523810D01*
X189128571Y-69485714D01*
X189166666Y-69409524D01*
X189204761Y-69257143D01*
X189204761Y-69066667D01*
X189166666Y-68914286D01*
X189128571Y-68838095D01*
X189090475Y-68800000D01*
X189014285Y-68761905D01*
X192271429Y-70823810D02*
X192157143Y-70861905D01*
X191966667Y-70861905D01*
X191890477Y-70823810D01*
X191852381Y-70785714D01*
X191814286Y-70709524D01*
X191814286Y-70633333D01*
X191852381Y-70557143D01*
X191890477Y-70519048D01*
X191966667Y-70480952D01*
X192119048Y-70442857D01*
X192195239Y-70404762D01*
X192233334Y-70366667D01*
X192271429Y-70290476D01*
X192271429Y-70214286D01*
X192233334Y-70138095D01*
X192195239Y-70100000D01*
X192119048Y-70061905D01*
X191928572Y-70061905D01*
X191814286Y-70100000D01*
X192042858Y-69947619D02*
X192042858Y-70976190D01*
X191357143Y-70404762D02*
X191433334Y-70366667D01*
X191471429Y-70328571D01*
X191509524Y-70252381D01*
X191509524Y-70214286D01*
X191471429Y-70138095D01*
X191433334Y-70100000D01*
X191357143Y-70061905D01*
X191204762Y-70061905D01*
X191128572Y-70100000D01*
X191090476Y-70138095D01*
X191052381Y-70214286D01*
X191052381Y-70252381D01*
X191090476Y-70328571D01*
X191128572Y-70366667D01*
X191204762Y-70404762D01*
X191357143Y-70404762D01*
X191433334Y-70442857D01*
X191471429Y-70480952D01*
X191509524Y-70557143D01*
X191509524Y-70709524D01*
X191471429Y-70785714D01*
X191433334Y-70823810D01*
X191357143Y-70861905D01*
X191204762Y-70861905D01*
X191128572Y-70823810D01*
X191090476Y-70785714D01*
X191052381Y-70709524D01*
X191052381Y-70557143D01*
X191090476Y-70480952D01*
X191128572Y-70442857D01*
X191204762Y-70404762D01*
X190252381Y-70785714D02*
X190290476Y-70823810D01*
X190404762Y-70861905D01*
X190480952Y-70861905D01*
X190595238Y-70823810D01*
X190671429Y-70747619D01*
X190709524Y-70671429D01*
X190747619Y-70519048D01*
X190747619Y-70404762D01*
X190709524Y-70252381D01*
X190671429Y-70176190D01*
X190595238Y-70100000D01*
X190480952Y-70061905D01*
X190404762Y-70061905D01*
X190290476Y-70100000D01*
X190252381Y-70138095D01*
X189757143Y-70061905D02*
X189680952Y-70061905D01*
X189604762Y-70100000D01*
X189566667Y-70138095D01*
X189528571Y-70214286D01*
X189490476Y-70366667D01*
X189490476Y-70557143D01*
X189528571Y-70709524D01*
X189566667Y-70785714D01*
X189604762Y-70823810D01*
X189680952Y-70861905D01*
X189757143Y-70861905D01*
X189833333Y-70823810D01*
X189871429Y-70785714D01*
X189909524Y-70709524D01*
X189947619Y-70557143D01*
X189947619Y-70366667D01*
X189909524Y-70214286D01*
X189871429Y-70138095D01*
X189833333Y-70100000D01*
X189757143Y-70061905D01*
X188995238Y-70061905D02*
X188919047Y-70061905D01*
X188842857Y-70100000D01*
X188804762Y-70138095D01*
X188766666Y-70214286D01*
X188728571Y-70366667D01*
X188728571Y-70557143D01*
X188766666Y-70709524D01*
X188804762Y-70785714D01*
X188842857Y-70823810D01*
X188919047Y-70861905D01*
X188995238Y-70861905D01*
X189071428Y-70823810D01*
X189109524Y-70785714D01*
X189147619Y-70709524D01*
X189185714Y-70557143D01*
X189185714Y-70366667D01*
X189147619Y-70214286D01*
X189109524Y-70138095D01*
X189071428Y-70100000D01*
X188995238Y-70061905D01*
X192252381Y-66983810D02*
X192138095Y-67021905D01*
X191947619Y-67021905D01*
X191871429Y-66983810D01*
X191833333Y-66945714D01*
X191795238Y-66869524D01*
X191795238Y-66793333D01*
X191833333Y-66717143D01*
X191871429Y-66679048D01*
X191947619Y-66640952D01*
X192100000Y-66602857D01*
X192176191Y-66564762D01*
X192214286Y-66526667D01*
X192252381Y-66450476D01*
X192252381Y-66374286D01*
X192214286Y-66298095D01*
X192176191Y-66260000D01*
X192100000Y-66221905D01*
X191909524Y-66221905D01*
X191795238Y-66260000D01*
X192023810Y-66107619D02*
X192023810Y-67136190D01*
X191109524Y-66221905D02*
X191261905Y-66221905D01*
X191338095Y-66260000D01*
X191376190Y-66298095D01*
X191452381Y-66412381D01*
X191490476Y-66564762D01*
X191490476Y-66869524D01*
X191452381Y-66945714D01*
X191414286Y-66983810D01*
X191338095Y-67021905D01*
X191185714Y-67021905D01*
X191109524Y-66983810D01*
X191071428Y-66945714D01*
X191033333Y-66869524D01*
X191033333Y-66679048D01*
X191071428Y-66602857D01*
X191109524Y-66564762D01*
X191185714Y-66526667D01*
X191338095Y-66526667D01*
X191414286Y-66564762D01*
X191452381Y-66602857D01*
X191490476Y-66679048D01*
X190538095Y-66221905D02*
X190461904Y-66221905D01*
X190385714Y-66260000D01*
X190347619Y-66298095D01*
X190309523Y-66374286D01*
X190271428Y-66526667D01*
X190271428Y-66717143D01*
X190309523Y-66869524D01*
X190347619Y-66945714D01*
X190385714Y-66983810D01*
X190461904Y-67021905D01*
X190538095Y-67021905D01*
X190614285Y-66983810D01*
X190652381Y-66945714D01*
X190690476Y-66869524D01*
X190728571Y-66717143D01*
X190728571Y-66526667D01*
X190690476Y-66374286D01*
X190652381Y-66298095D01*
X190614285Y-66260000D01*
X190538095Y-66221905D01*
X189776190Y-66221905D02*
X189699999Y-66221905D01*
X189623809Y-66260000D01*
X189585714Y-66298095D01*
X189547618Y-66374286D01*
X189509523Y-66526667D01*
X189509523Y-66717143D01*
X189547618Y-66869524D01*
X189585714Y-66945714D01*
X189623809Y-66983810D01*
X189699999Y-67021905D01*
X189776190Y-67021905D01*
X189852380Y-66983810D01*
X189890476Y-66945714D01*
X189928571Y-66869524D01*
X189966666Y-66717143D01*
X189966666Y-66526667D01*
X189928571Y-66374286D01*
X189890476Y-66298095D01*
X189852380Y-66260000D01*
X189776190Y-66221905D01*
X189014285Y-66221905D02*
X188938094Y-66221905D01*
X188861904Y-66260000D01*
X188823809Y-66298095D01*
X188785713Y-66374286D01*
X188747618Y-66526667D01*
X188747618Y-66717143D01*
X188785713Y-66869524D01*
X188823809Y-66945714D01*
X188861904Y-66983810D01*
X188938094Y-67021905D01*
X189014285Y-67021905D01*
X189090475Y-66983810D01*
X189128571Y-66945714D01*
X189166666Y-66869524D01*
X189204761Y-66717143D01*
X189204761Y-66526667D01*
X189166666Y-66374286D01*
X189128571Y-66298095D01*
X189090475Y-66260000D01*
X189014285Y-66221905D01*
X192271429Y-68283810D02*
X192157143Y-68321905D01*
X191966667Y-68321905D01*
X191890477Y-68283810D01*
X191852381Y-68245714D01*
X191814286Y-68169524D01*
X191814286Y-68093333D01*
X191852381Y-68017143D01*
X191890477Y-67979048D01*
X191966667Y-67940952D01*
X192119048Y-67902857D01*
X192195239Y-67864762D01*
X192233334Y-67826667D01*
X192271429Y-67750476D01*
X192271429Y-67674286D01*
X192233334Y-67598095D01*
X192195239Y-67560000D01*
X192119048Y-67521905D01*
X191928572Y-67521905D01*
X191814286Y-67560000D01*
X192042858Y-67407619D02*
X192042858Y-68436190D01*
X191128572Y-67521905D02*
X191280953Y-67521905D01*
X191357143Y-67560000D01*
X191395238Y-67598095D01*
X191471429Y-67712381D01*
X191509524Y-67864762D01*
X191509524Y-68169524D01*
X191471429Y-68245714D01*
X191433334Y-68283810D01*
X191357143Y-68321905D01*
X191204762Y-68321905D01*
X191128572Y-68283810D01*
X191090476Y-68245714D01*
X191052381Y-68169524D01*
X191052381Y-67979048D01*
X191090476Y-67902857D01*
X191128572Y-67864762D01*
X191204762Y-67826667D01*
X191357143Y-67826667D01*
X191433334Y-67864762D01*
X191471429Y-67902857D01*
X191509524Y-67979048D01*
X190252381Y-68245714D02*
X190290476Y-68283810D01*
X190404762Y-68321905D01*
X190480952Y-68321905D01*
X190595238Y-68283810D01*
X190671429Y-68207619D01*
X190709524Y-68131429D01*
X190747619Y-67979048D01*
X190747619Y-67864762D01*
X190709524Y-67712381D01*
X190671429Y-67636190D01*
X190595238Y-67560000D01*
X190480952Y-67521905D01*
X190404762Y-67521905D01*
X190290476Y-67560000D01*
X190252381Y-67598095D01*
X189757143Y-67521905D02*
X189680952Y-67521905D01*
X189604762Y-67560000D01*
X189566667Y-67598095D01*
X189528571Y-67674286D01*
X189490476Y-67826667D01*
X189490476Y-68017143D01*
X189528571Y-68169524D01*
X189566667Y-68245714D01*
X189604762Y-68283810D01*
X189680952Y-68321905D01*
X189757143Y-68321905D01*
X189833333Y-68283810D01*
X189871429Y-68245714D01*
X189909524Y-68169524D01*
X189947619Y-68017143D01*
X189947619Y-67826667D01*
X189909524Y-67674286D01*
X189871429Y-67598095D01*
X189833333Y-67560000D01*
X189757143Y-67521905D01*
X188995238Y-67521905D02*
X188919047Y-67521905D01*
X188842857Y-67560000D01*
X188804762Y-67598095D01*
X188766666Y-67674286D01*
X188728571Y-67826667D01*
X188728571Y-68017143D01*
X188766666Y-68169524D01*
X188804762Y-68245714D01*
X188842857Y-68283810D01*
X188919047Y-68321905D01*
X188995238Y-68321905D01*
X189071428Y-68283810D01*
X189109524Y-68245714D01*
X189147619Y-68169524D01*
X189185714Y-68017143D01*
X189185714Y-67826667D01*
X189147619Y-67674286D01*
X189109524Y-67598095D01*
X189071428Y-67560000D01*
X188995238Y-67521905D01*
X192252381Y-64443810D02*
X192138095Y-64481905D01*
X191947619Y-64481905D01*
X191871429Y-64443810D01*
X191833333Y-64405714D01*
X191795238Y-64329524D01*
X191795238Y-64253333D01*
X191833333Y-64177143D01*
X191871429Y-64139048D01*
X191947619Y-64100952D01*
X192100000Y-64062857D01*
X192176191Y-64024762D01*
X192214286Y-63986667D01*
X192252381Y-63910476D01*
X192252381Y-63834286D01*
X192214286Y-63758095D01*
X192176191Y-63720000D01*
X192100000Y-63681905D01*
X191909524Y-63681905D01*
X191795238Y-63720000D01*
X192023810Y-63567619D02*
X192023810Y-64596190D01*
X191109524Y-63948571D02*
X191109524Y-64481905D01*
X191300000Y-63643810D02*
X191490476Y-64215238D01*
X190995238Y-64215238D01*
X190538095Y-63681905D02*
X190461904Y-63681905D01*
X190385714Y-63720000D01*
X190347619Y-63758095D01*
X190309523Y-63834286D01*
X190271428Y-63986667D01*
X190271428Y-64177143D01*
X190309523Y-64329524D01*
X190347619Y-64405714D01*
X190385714Y-64443810D01*
X190461904Y-64481905D01*
X190538095Y-64481905D01*
X190614285Y-64443810D01*
X190652381Y-64405714D01*
X190690476Y-64329524D01*
X190728571Y-64177143D01*
X190728571Y-63986667D01*
X190690476Y-63834286D01*
X190652381Y-63758095D01*
X190614285Y-63720000D01*
X190538095Y-63681905D01*
X189776190Y-63681905D02*
X189699999Y-63681905D01*
X189623809Y-63720000D01*
X189585714Y-63758095D01*
X189547618Y-63834286D01*
X189509523Y-63986667D01*
X189509523Y-64177143D01*
X189547618Y-64329524D01*
X189585714Y-64405714D01*
X189623809Y-64443810D01*
X189699999Y-64481905D01*
X189776190Y-64481905D01*
X189852380Y-64443810D01*
X189890476Y-64405714D01*
X189928571Y-64329524D01*
X189966666Y-64177143D01*
X189966666Y-63986667D01*
X189928571Y-63834286D01*
X189890476Y-63758095D01*
X189852380Y-63720000D01*
X189776190Y-63681905D01*
X189014285Y-63681905D02*
X188938094Y-63681905D01*
X188861904Y-63720000D01*
X188823809Y-63758095D01*
X188785713Y-63834286D01*
X188747618Y-63986667D01*
X188747618Y-64177143D01*
X188785713Y-64329524D01*
X188823809Y-64405714D01*
X188861904Y-64443810D01*
X188938094Y-64481905D01*
X189014285Y-64481905D01*
X189090475Y-64443810D01*
X189128571Y-64405714D01*
X189166666Y-64329524D01*
X189204761Y-64177143D01*
X189204761Y-63986667D01*
X189166666Y-63834286D01*
X189128571Y-63758095D01*
X189090475Y-63720000D01*
X189014285Y-63681905D01*
X192271429Y-65743810D02*
X192157143Y-65781905D01*
X191966667Y-65781905D01*
X191890477Y-65743810D01*
X191852381Y-65705714D01*
X191814286Y-65629524D01*
X191814286Y-65553333D01*
X191852381Y-65477143D01*
X191890477Y-65439048D01*
X191966667Y-65400952D01*
X192119048Y-65362857D01*
X192195239Y-65324762D01*
X192233334Y-65286667D01*
X192271429Y-65210476D01*
X192271429Y-65134286D01*
X192233334Y-65058095D01*
X192195239Y-65020000D01*
X192119048Y-64981905D01*
X191928572Y-64981905D01*
X191814286Y-65020000D01*
X192042858Y-64867619D02*
X192042858Y-65896190D01*
X191128572Y-65248571D02*
X191128572Y-65781905D01*
X191319048Y-64943810D02*
X191509524Y-65515238D01*
X191014286Y-65515238D01*
X190252381Y-65705714D02*
X190290476Y-65743810D01*
X190404762Y-65781905D01*
X190480952Y-65781905D01*
X190595238Y-65743810D01*
X190671429Y-65667619D01*
X190709524Y-65591429D01*
X190747619Y-65439048D01*
X190747619Y-65324762D01*
X190709524Y-65172381D01*
X190671429Y-65096190D01*
X190595238Y-65020000D01*
X190480952Y-64981905D01*
X190404762Y-64981905D01*
X190290476Y-65020000D01*
X190252381Y-65058095D01*
X189757143Y-64981905D02*
X189680952Y-64981905D01*
X189604762Y-65020000D01*
X189566667Y-65058095D01*
X189528571Y-65134286D01*
X189490476Y-65286667D01*
X189490476Y-65477143D01*
X189528571Y-65629524D01*
X189566667Y-65705714D01*
X189604762Y-65743810D01*
X189680952Y-65781905D01*
X189757143Y-65781905D01*
X189833333Y-65743810D01*
X189871429Y-65705714D01*
X189909524Y-65629524D01*
X189947619Y-65477143D01*
X189947619Y-65286667D01*
X189909524Y-65134286D01*
X189871429Y-65058095D01*
X189833333Y-65020000D01*
X189757143Y-64981905D01*
X188995238Y-64981905D02*
X188919047Y-64981905D01*
X188842857Y-65020000D01*
X188804762Y-65058095D01*
X188766666Y-65134286D01*
X188728571Y-65286667D01*
X188728571Y-65477143D01*
X188766666Y-65629524D01*
X188804762Y-65705714D01*
X188842857Y-65743810D01*
X188919047Y-65781905D01*
X188995238Y-65781905D01*
X189071428Y-65743810D01*
X189109524Y-65705714D01*
X189147619Y-65629524D01*
X189185714Y-65477143D01*
X189185714Y-65286667D01*
X189147619Y-65134286D01*
X189109524Y-65058095D01*
X189071428Y-65020000D01*
X188995238Y-64981905D01*
X192252381Y-61903810D02*
X192138095Y-61941905D01*
X191947619Y-61941905D01*
X191871429Y-61903810D01*
X191833333Y-61865714D01*
X191795238Y-61789524D01*
X191795238Y-61713333D01*
X191833333Y-61637143D01*
X191871429Y-61599048D01*
X191947619Y-61560952D01*
X192100000Y-61522857D01*
X192176191Y-61484762D01*
X192214286Y-61446667D01*
X192252381Y-61370476D01*
X192252381Y-61294286D01*
X192214286Y-61218095D01*
X192176191Y-61180000D01*
X192100000Y-61141905D01*
X191909524Y-61141905D01*
X191795238Y-61180000D01*
X192023810Y-61027619D02*
X192023810Y-62056190D01*
X191490476Y-61218095D02*
X191452381Y-61180000D01*
X191376190Y-61141905D01*
X191185714Y-61141905D01*
X191109524Y-61180000D01*
X191071428Y-61218095D01*
X191033333Y-61294286D01*
X191033333Y-61370476D01*
X191071428Y-61484762D01*
X191528571Y-61941905D01*
X191033333Y-61941905D01*
X190538095Y-61141905D02*
X190461904Y-61141905D01*
X190385714Y-61180000D01*
X190347619Y-61218095D01*
X190309523Y-61294286D01*
X190271428Y-61446667D01*
X190271428Y-61637143D01*
X190309523Y-61789524D01*
X190347619Y-61865714D01*
X190385714Y-61903810D01*
X190461904Y-61941905D01*
X190538095Y-61941905D01*
X190614285Y-61903810D01*
X190652381Y-61865714D01*
X190690476Y-61789524D01*
X190728571Y-61637143D01*
X190728571Y-61446667D01*
X190690476Y-61294286D01*
X190652381Y-61218095D01*
X190614285Y-61180000D01*
X190538095Y-61141905D01*
X189776190Y-61141905D02*
X189699999Y-61141905D01*
X189623809Y-61180000D01*
X189585714Y-61218095D01*
X189547618Y-61294286D01*
X189509523Y-61446667D01*
X189509523Y-61637143D01*
X189547618Y-61789524D01*
X189585714Y-61865714D01*
X189623809Y-61903810D01*
X189699999Y-61941905D01*
X189776190Y-61941905D01*
X189852380Y-61903810D01*
X189890476Y-61865714D01*
X189928571Y-61789524D01*
X189966666Y-61637143D01*
X189966666Y-61446667D01*
X189928571Y-61294286D01*
X189890476Y-61218095D01*
X189852380Y-61180000D01*
X189776190Y-61141905D01*
X189014285Y-61141905D02*
X188938094Y-61141905D01*
X188861904Y-61180000D01*
X188823809Y-61218095D01*
X188785713Y-61294286D01*
X188747618Y-61446667D01*
X188747618Y-61637143D01*
X188785713Y-61789524D01*
X188823809Y-61865714D01*
X188861904Y-61903810D01*
X188938094Y-61941905D01*
X189014285Y-61941905D01*
X189090475Y-61903810D01*
X189128571Y-61865714D01*
X189166666Y-61789524D01*
X189204761Y-61637143D01*
X189204761Y-61446667D01*
X189166666Y-61294286D01*
X189128571Y-61218095D01*
X189090475Y-61180000D01*
X189014285Y-61141905D01*
X192271429Y-63203810D02*
X192157143Y-63241905D01*
X191966667Y-63241905D01*
X191890477Y-63203810D01*
X191852381Y-63165714D01*
X191814286Y-63089524D01*
X191814286Y-63013333D01*
X191852381Y-62937143D01*
X191890477Y-62899048D01*
X191966667Y-62860952D01*
X192119048Y-62822857D01*
X192195239Y-62784762D01*
X192233334Y-62746667D01*
X192271429Y-62670476D01*
X192271429Y-62594286D01*
X192233334Y-62518095D01*
X192195239Y-62480000D01*
X192119048Y-62441905D01*
X191928572Y-62441905D01*
X191814286Y-62480000D01*
X192042858Y-62327619D02*
X192042858Y-63356190D01*
X191509524Y-62518095D02*
X191471429Y-62480000D01*
X191395238Y-62441905D01*
X191204762Y-62441905D01*
X191128572Y-62480000D01*
X191090476Y-62518095D01*
X191052381Y-62594286D01*
X191052381Y-62670476D01*
X191090476Y-62784762D01*
X191547619Y-63241905D01*
X191052381Y-63241905D01*
X190252381Y-63165714D02*
X190290476Y-63203810D01*
X190404762Y-63241905D01*
X190480952Y-63241905D01*
X190595238Y-63203810D01*
X190671429Y-63127619D01*
X190709524Y-63051429D01*
X190747619Y-62899048D01*
X190747619Y-62784762D01*
X190709524Y-62632381D01*
X190671429Y-62556190D01*
X190595238Y-62480000D01*
X190480952Y-62441905D01*
X190404762Y-62441905D01*
X190290476Y-62480000D01*
X190252381Y-62518095D01*
X189757143Y-62441905D02*
X189680952Y-62441905D01*
X189604762Y-62480000D01*
X189566667Y-62518095D01*
X189528571Y-62594286D01*
X189490476Y-62746667D01*
X189490476Y-62937143D01*
X189528571Y-63089524D01*
X189566667Y-63165714D01*
X189604762Y-63203810D01*
X189680952Y-63241905D01*
X189757143Y-63241905D01*
X189833333Y-63203810D01*
X189871429Y-63165714D01*
X189909524Y-63089524D01*
X189947619Y-62937143D01*
X189947619Y-62746667D01*
X189909524Y-62594286D01*
X189871429Y-62518095D01*
X189833333Y-62480000D01*
X189757143Y-62441905D01*
X188995238Y-62441905D02*
X188919047Y-62441905D01*
X188842857Y-62480000D01*
X188804762Y-62518095D01*
X188766666Y-62594286D01*
X188728571Y-62746667D01*
X188728571Y-62937143D01*
X188766666Y-63089524D01*
X188804762Y-63165714D01*
X188842857Y-63203810D01*
X188919047Y-63241905D01*
X188995238Y-63241905D01*
X189071428Y-63203810D01*
X189109524Y-63165714D01*
X189147619Y-63089524D01*
X189185714Y-62937143D01*
X189185714Y-62746667D01*
X189147619Y-62594286D01*
X189109524Y-62518095D01*
X189071428Y-62480000D01*
X188995238Y-62441905D01*
X144170476Y-54321905D02*
X144627619Y-54321905D01*
X144399048Y-54321905D02*
X144399048Y-53521905D01*
X144475238Y-53636190D01*
X144551429Y-53712381D01*
X144627619Y-53750476D01*
X143827619Y-54017143D02*
X143218095Y-54017143D01*
X142875238Y-53598095D02*
X142837143Y-53560000D01*
X142760952Y-53521905D01*
X142570476Y-53521905D01*
X142494286Y-53560000D01*
X142456190Y-53598095D01*
X142418095Y-53674286D01*
X142418095Y-53750476D01*
X142456190Y-53864762D01*
X142913333Y-54321905D01*
X142418095Y-54321905D01*
X141122857Y-53521905D02*
X141275238Y-53521905D01*
X141351428Y-53560000D01*
X141389523Y-53598095D01*
X141465714Y-53712381D01*
X141503809Y-53864762D01*
X141503809Y-54169524D01*
X141465714Y-54245714D01*
X141427619Y-54283810D01*
X141351428Y-54321905D01*
X141199047Y-54321905D01*
X141122857Y-54283810D01*
X141084761Y-54245714D01*
X141046666Y-54169524D01*
X141046666Y-53979048D01*
X141084761Y-53902857D01*
X141122857Y-53864762D01*
X141199047Y-53826667D01*
X141351428Y-53826667D01*
X141427619Y-53864762D01*
X141465714Y-53902857D01*
X141503809Y-53979048D01*
X140322856Y-53521905D02*
X140703809Y-53521905D01*
X140741904Y-53902857D01*
X140703809Y-53864762D01*
X140627618Y-53826667D01*
X140437142Y-53826667D01*
X140360952Y-53864762D01*
X140322856Y-53902857D01*
X140284761Y-53979048D01*
X140284761Y-54169524D01*
X140322856Y-54245714D01*
X140360952Y-54283810D01*
X140437142Y-54321905D01*
X140627618Y-54321905D01*
X140703809Y-54283810D01*
X140741904Y-54245714D01*
X139789523Y-53521905D02*
X139713332Y-53521905D01*
X139637142Y-53560000D01*
X139599047Y-53598095D01*
X139560951Y-53674286D01*
X139522856Y-53826667D01*
X139522856Y-54017143D01*
X139560951Y-54169524D01*
X139599047Y-54245714D01*
X139637142Y-54283810D01*
X139713332Y-54321905D01*
X139789523Y-54321905D01*
X139865713Y-54283810D01*
X139903809Y-54245714D01*
X139941904Y-54169524D01*
X139979999Y-54017143D01*
X139979999Y-53826667D01*
X139941904Y-53674286D01*
X139903809Y-53598095D01*
X139865713Y-53560000D01*
X139789523Y-53521905D01*
X139218094Y-53598095D02*
X139179999Y-53560000D01*
X139103808Y-53521905D01*
X138913332Y-53521905D01*
X138837142Y-53560000D01*
X138799046Y-53598095D01*
X138760951Y-53674286D01*
X138760951Y-53750476D01*
X138799046Y-53864762D01*
X139256189Y-54321905D01*
X138760951Y-54321905D01*
X144627619Y-54898095D02*
X144589524Y-54860000D01*
X144513333Y-54821905D01*
X144322857Y-54821905D01*
X144246667Y-54860000D01*
X144208571Y-54898095D01*
X144170476Y-54974286D01*
X144170476Y-55050476D01*
X144208571Y-55164762D01*
X144665714Y-55621905D01*
X144170476Y-55621905D01*
X143827619Y-55317143D02*
X143218095Y-55317143D01*
X142913333Y-54821905D02*
X142418095Y-54821905D01*
X142684762Y-55126667D01*
X142570476Y-55126667D01*
X142494286Y-55164762D01*
X142456190Y-55202857D01*
X142418095Y-55279048D01*
X142418095Y-55469524D01*
X142456190Y-55545714D01*
X142494286Y-55583810D01*
X142570476Y-55621905D01*
X142799048Y-55621905D01*
X142875238Y-55583810D01*
X142913333Y-55545714D01*
X141122857Y-54821905D02*
X141275238Y-54821905D01*
X141351428Y-54860000D01*
X141389523Y-54898095D01*
X141465714Y-55012381D01*
X141503809Y-55164762D01*
X141503809Y-55469524D01*
X141465714Y-55545714D01*
X141427619Y-55583810D01*
X141351428Y-55621905D01*
X141199047Y-55621905D01*
X141122857Y-55583810D01*
X141084761Y-55545714D01*
X141046666Y-55469524D01*
X141046666Y-55279048D01*
X141084761Y-55202857D01*
X141122857Y-55164762D01*
X141199047Y-55126667D01*
X141351428Y-55126667D01*
X141427619Y-55164762D01*
X141465714Y-55202857D01*
X141503809Y-55279048D01*
X140589523Y-55164762D02*
X140665714Y-55126667D01*
X140703809Y-55088571D01*
X140741904Y-55012381D01*
X140741904Y-54974286D01*
X140703809Y-54898095D01*
X140665714Y-54860000D01*
X140589523Y-54821905D01*
X140437142Y-54821905D01*
X140360952Y-54860000D01*
X140322856Y-54898095D01*
X140284761Y-54974286D01*
X140284761Y-55012381D01*
X140322856Y-55088571D01*
X140360952Y-55126667D01*
X140437142Y-55164762D01*
X140589523Y-55164762D01*
X140665714Y-55202857D01*
X140703809Y-55240952D01*
X140741904Y-55317143D01*
X140741904Y-55469524D01*
X140703809Y-55545714D01*
X140665714Y-55583810D01*
X140589523Y-55621905D01*
X140437142Y-55621905D01*
X140360952Y-55583810D01*
X140322856Y-55545714D01*
X140284761Y-55469524D01*
X140284761Y-55317143D01*
X140322856Y-55240952D01*
X140360952Y-55202857D01*
X140437142Y-55164762D01*
X139789523Y-54821905D02*
X139713332Y-54821905D01*
X139637142Y-54860000D01*
X139599047Y-54898095D01*
X139560951Y-54974286D01*
X139522856Y-55126667D01*
X139522856Y-55317143D01*
X139560951Y-55469524D01*
X139599047Y-55545714D01*
X139637142Y-55583810D01*
X139713332Y-55621905D01*
X139789523Y-55621905D01*
X139865713Y-55583810D01*
X139903809Y-55545714D01*
X139941904Y-55469524D01*
X139979999Y-55317143D01*
X139979999Y-55126667D01*
X139941904Y-54974286D01*
X139903809Y-54898095D01*
X139865713Y-54860000D01*
X139789523Y-54821905D01*
X139027618Y-54821905D02*
X138951427Y-54821905D01*
X138875237Y-54860000D01*
X138837142Y-54898095D01*
X138799046Y-54974286D01*
X138760951Y-55126667D01*
X138760951Y-55317143D01*
X138799046Y-55469524D01*
X138837142Y-55545714D01*
X138875237Y-55583810D01*
X138951427Y-55621905D01*
X139027618Y-55621905D01*
X139103808Y-55583810D01*
X139141904Y-55545714D01*
X139179999Y-55469524D01*
X139218094Y-55317143D01*
X139218094Y-55126667D01*
X139179999Y-54974286D01*
X139141904Y-54898095D01*
X139103808Y-54860000D01*
X139027618Y-54821905D01*
D11*
X145415000Y-52705000D02*
X149225000Y-52705000D01*
X145415000Y-56515000D02*
X145415000Y-52705000D01*
X154305000Y-56515000D02*
X145415000Y-56515000D01*
X154305000Y-52705000D02*
X154305000Y-56515000D01*
X153035000Y-52705000D02*
X154305000Y-52705000D01*
X152400000Y-52705000D02*
X152400000Y-53975000D01*
X149860000Y-52705000D02*
X152400000Y-52705000D01*
X149860000Y-53975000D02*
X149860000Y-52705000D01*
D10*
X162038810Y-65218571D02*
X162038810Y-65751905D01*
X162229286Y-64913810D02*
X162419762Y-65485238D01*
X161924524Y-65485238D01*
X161619762Y-65447143D02*
X161010238Y-65447143D01*
X160743572Y-64951905D02*
X160286429Y-64951905D01*
X160515000Y-65751905D02*
X160515000Y-64951905D01*
X159867381Y-64951905D02*
X159715000Y-64951905D01*
X159638809Y-64990000D01*
X159562619Y-65066190D01*
X159524524Y-65218571D01*
X159524524Y-65485238D01*
X159562619Y-65637619D01*
X159638809Y-65713810D01*
X159715000Y-65751905D01*
X159867381Y-65751905D01*
X159943571Y-65713810D01*
X160019762Y-65637619D01*
X160057857Y-65485238D01*
X160057857Y-65218571D01*
X160019762Y-65066190D01*
X159943571Y-64990000D01*
X159867381Y-64951905D01*
X159181667Y-65447143D02*
X158572143Y-65447143D01*
X157772143Y-65751905D02*
X158229286Y-65751905D01*
X158000715Y-65751905D02*
X158000715Y-64951905D01*
X158076905Y-65066190D01*
X158153096Y-65142381D01*
X158229286Y-65180476D01*
X157086429Y-64951905D02*
X157238810Y-64951905D01*
X157315000Y-64990000D01*
X157353095Y-65028095D01*
X157429286Y-65142381D01*
X157467381Y-65294762D01*
X157467381Y-65599524D01*
X157429286Y-65675714D01*
X157391191Y-65713810D01*
X157315000Y-65751905D01*
X157162619Y-65751905D01*
X157086429Y-65713810D01*
X157048333Y-65675714D01*
X157010238Y-65599524D01*
X157010238Y-65409048D01*
X157048333Y-65332857D01*
X157086429Y-65294762D01*
X157162619Y-65256667D01*
X157315000Y-65256667D01*
X157391191Y-65294762D01*
X157429286Y-65332857D01*
X157467381Y-65409048D01*
X155676904Y-65751905D02*
X156057857Y-65751905D01*
X156057857Y-64951905D01*
X155410238Y-65751905D02*
X155410238Y-64951905D01*
X155029286Y-65751905D02*
X155029286Y-64951905D01*
X154572143Y-65751905D01*
X154572143Y-64951905D01*
X154191191Y-65332857D02*
X153924524Y-65332857D01*
X153810238Y-65751905D02*
X154191191Y-65751905D01*
X154191191Y-64951905D01*
X153810238Y-64951905D01*
X165772144Y-67051905D02*
X165772144Y-66251905D01*
X165581668Y-66251905D01*
X165467382Y-66290000D01*
X165391191Y-66366190D01*
X165353096Y-66442381D01*
X165315001Y-66594762D01*
X165315001Y-66709048D01*
X165353096Y-66861429D01*
X165391191Y-66937619D01*
X165467382Y-67013810D01*
X165581668Y-67051905D01*
X165772144Y-67051905D01*
X164972144Y-66632857D02*
X164705477Y-66632857D01*
X164591191Y-67051905D02*
X164972144Y-67051905D01*
X164972144Y-66251905D01*
X164591191Y-66251905D01*
X163791191Y-66975714D02*
X163829286Y-67013810D01*
X163943572Y-67051905D01*
X164019762Y-67051905D01*
X164134048Y-67013810D01*
X164210239Y-66937619D01*
X164248334Y-66861429D01*
X164286429Y-66709048D01*
X164286429Y-66594762D01*
X164248334Y-66442381D01*
X164210239Y-66366190D01*
X164134048Y-66290000D01*
X164019762Y-66251905D01*
X163943572Y-66251905D01*
X163829286Y-66290000D01*
X163791191Y-66328095D01*
X163295953Y-66251905D02*
X163143572Y-66251905D01*
X163067381Y-66290000D01*
X162991191Y-66366190D01*
X162953096Y-66518571D01*
X162953096Y-66785238D01*
X162991191Y-66937619D01*
X163067381Y-67013810D01*
X163143572Y-67051905D01*
X163295953Y-67051905D01*
X163372143Y-67013810D01*
X163448334Y-66937619D01*
X163486429Y-66785238D01*
X163486429Y-66518571D01*
X163448334Y-66366190D01*
X163372143Y-66290000D01*
X163295953Y-66251905D01*
X162610239Y-67051905D02*
X162610239Y-66251905D01*
X162419763Y-66251905D01*
X162305477Y-66290000D01*
X162229286Y-66366190D01*
X162191191Y-66442381D01*
X162153096Y-66594762D01*
X162153096Y-66709048D01*
X162191191Y-66861429D01*
X162229286Y-66937619D01*
X162305477Y-67013810D01*
X162419763Y-67051905D01*
X162610239Y-67051905D01*
X161810239Y-66632857D02*
X161543572Y-66632857D01*
X161429286Y-67051905D02*
X161810239Y-67051905D01*
X161810239Y-66251905D01*
X161429286Y-66251905D01*
X160629286Y-67051905D02*
X160895953Y-66670952D01*
X161086429Y-67051905D02*
X161086429Y-66251905D01*
X160781667Y-66251905D01*
X160705476Y-66290000D01*
X160667381Y-66328095D01*
X160629286Y-66404286D01*
X160629286Y-66518571D01*
X160667381Y-66594762D01*
X160705476Y-66632857D01*
X160781667Y-66670952D01*
X161086429Y-66670952D01*
X159715000Y-66213810D02*
X160400715Y-67242381D01*
X159448334Y-67051905D02*
X159448334Y-66251905D01*
X159257858Y-66251905D01*
X159143572Y-66290000D01*
X159067381Y-66366190D01*
X159029286Y-66442381D01*
X158991191Y-66594762D01*
X158991191Y-66709048D01*
X159029286Y-66861429D01*
X159067381Y-66937619D01*
X159143572Y-67013810D01*
X159257858Y-67051905D01*
X159448334Y-67051905D01*
X158648334Y-66632857D02*
X158381667Y-66632857D01*
X158267381Y-67051905D02*
X158648334Y-67051905D01*
X158648334Y-66251905D01*
X158267381Y-66251905D01*
X157924524Y-67051905D02*
X157924524Y-66251905D01*
X157657857Y-66823333D01*
X157391190Y-66251905D01*
X157391190Y-67051905D01*
X157010238Y-66251905D02*
X157010238Y-66899524D01*
X156972143Y-66975714D01*
X156934047Y-67013810D01*
X156857857Y-67051905D01*
X156705476Y-67051905D01*
X156629285Y-67013810D01*
X156591190Y-66975714D01*
X156553095Y-66899524D01*
X156553095Y-66251905D01*
X155791190Y-67051905D02*
X156172143Y-67051905D01*
X156172143Y-66251905D01*
X155638810Y-66251905D02*
X155181667Y-66251905D01*
X155410238Y-67051905D02*
X155410238Y-66251905D01*
X154915000Y-67051905D02*
X154915000Y-66251905D01*
X154534048Y-67051905D02*
X154534048Y-66251905D01*
X154229286Y-66251905D01*
X154153095Y-66290000D01*
X154115000Y-66328095D01*
X154076905Y-66404286D01*
X154076905Y-66518571D01*
X154115000Y-66594762D01*
X154153095Y-66632857D01*
X154229286Y-66670952D01*
X154534048Y-66670952D01*
X153353095Y-67051905D02*
X153734048Y-67051905D01*
X153734048Y-66251905D01*
X153086429Y-66632857D02*
X152819762Y-66632857D01*
X152705476Y-67051905D02*
X153086429Y-67051905D01*
X153086429Y-66251905D01*
X152705476Y-66251905D01*
X152438809Y-66251905D02*
X151905476Y-67051905D01*
X151905476Y-66251905D02*
X152438809Y-67051905D01*
X151600714Y-66632857D02*
X151334047Y-66632857D01*
X151219761Y-67051905D02*
X151600714Y-67051905D01*
X151600714Y-66251905D01*
X151219761Y-66251905D01*
X150419761Y-67051905D02*
X150686428Y-66670952D01*
X150876904Y-67051905D02*
X150876904Y-66251905D01*
X150572142Y-66251905D01*
X150495951Y-66290000D01*
X150457856Y-66328095D01*
X150419761Y-66404286D01*
X150419761Y-66518571D01*
X150457856Y-66594762D01*
X150495951Y-66632857D01*
X150572142Y-66670952D01*
X150876904Y-66670952D01*
X112058095Y-126061905D02*
X112058095Y-125261905D01*
X111677143Y-126061905D02*
X111677143Y-125261905D01*
X111220000Y-126061905D01*
X111220000Y-125261905D01*
X110953334Y-125261905D02*
X110686667Y-126061905D01*
X110420000Y-125261905D01*
X110153334Y-125642857D02*
X109886667Y-125642857D01*
X109772381Y-126061905D02*
X110153334Y-126061905D01*
X110153334Y-125261905D01*
X109772381Y-125261905D01*
X108972381Y-126061905D02*
X109239048Y-125680952D01*
X109429524Y-126061905D02*
X109429524Y-125261905D01*
X109124762Y-125261905D01*
X109048571Y-125300000D01*
X109010476Y-125338095D01*
X108972381Y-125414286D01*
X108972381Y-125528571D01*
X109010476Y-125604762D01*
X109048571Y-125642857D01*
X109124762Y-125680952D01*
X109429524Y-125680952D01*
X108743810Y-125261905D02*
X108286667Y-125261905D01*
X108515238Y-126061905D02*
X108515238Y-125261905D01*
X108020000Y-126061905D02*
X108020000Y-125261905D01*
X107639048Y-126061905D02*
X107639048Y-125261905D01*
X107181905Y-126061905D01*
X107181905Y-125261905D01*
X106381905Y-125300000D02*
X106458096Y-125261905D01*
X106572381Y-125261905D01*
X106686667Y-125300000D01*
X106762858Y-125376190D01*
X106800953Y-125452381D01*
X106839048Y-125604762D01*
X106839048Y-125719048D01*
X106800953Y-125871429D01*
X106762858Y-125947619D01*
X106686667Y-126023810D01*
X106572381Y-126061905D01*
X106496191Y-126061905D01*
X106381905Y-126023810D01*
X106343810Y-125985714D01*
X106343810Y-125719048D01*
X106496191Y-125719048D01*
X110191429Y-127361905D02*
X110191429Y-126561905D01*
X110191429Y-126942857D02*
X109734286Y-126942857D01*
X109734286Y-127361905D02*
X109734286Y-126561905D01*
X109353334Y-126942857D02*
X109086667Y-126942857D01*
X108972381Y-127361905D02*
X109353334Y-127361905D01*
X109353334Y-126561905D01*
X108972381Y-126561905D01*
X108705714Y-126561905D02*
X108172381Y-127361905D01*
X108172381Y-126561905D02*
X108705714Y-127361905D01*
X111029523Y-128242857D02*
X110915237Y-128280952D01*
X110877142Y-128319048D01*
X110839047Y-128395238D01*
X110839047Y-128509524D01*
X110877142Y-128585714D01*
X110915237Y-128623810D01*
X110991428Y-128661905D01*
X111296190Y-128661905D01*
X111296190Y-127861905D01*
X111029523Y-127861905D01*
X110953333Y-127900000D01*
X110915237Y-127938095D01*
X110877142Y-128014286D01*
X110877142Y-128090476D01*
X110915237Y-128166667D01*
X110953333Y-128204762D01*
X111029523Y-128242857D01*
X111296190Y-128242857D01*
X110496190Y-127861905D02*
X110496190Y-128509524D01*
X110458095Y-128585714D01*
X110419999Y-128623810D01*
X110343809Y-128661905D01*
X110191428Y-128661905D01*
X110115237Y-128623810D01*
X110077142Y-128585714D01*
X110039047Y-128509524D01*
X110039047Y-127861905D01*
X109391428Y-128242857D02*
X109658095Y-128242857D01*
X109658095Y-128661905D02*
X109658095Y-127861905D01*
X109277142Y-127861905D01*
X108705714Y-128242857D02*
X108972381Y-128242857D01*
X108972381Y-128661905D02*
X108972381Y-127861905D01*
X108591428Y-127861905D01*
X108286667Y-128242857D02*
X108020000Y-128242857D01*
X107905714Y-128661905D02*
X108286667Y-128661905D01*
X108286667Y-127861905D01*
X107905714Y-127861905D01*
X107105714Y-128661905D02*
X107372381Y-128280952D01*
X107562857Y-128661905D02*
X107562857Y-127861905D01*
X107258095Y-127861905D01*
X107181904Y-127900000D01*
X107143809Y-127938095D01*
X107105714Y-128014286D01*
X107105714Y-128128571D01*
X107143809Y-128204762D01*
X107181904Y-128242857D01*
X107258095Y-128280952D01*
X107562857Y-128280952D01*
X124123095Y-98121905D02*
X124123095Y-97321905D01*
X123742143Y-98121905D02*
X123742143Y-97321905D01*
X123285000Y-98121905D01*
X123285000Y-97321905D01*
X123018334Y-97321905D02*
X122751667Y-98121905D01*
X122485000Y-97321905D01*
X122218334Y-97702857D02*
X121951667Y-97702857D01*
X121837381Y-98121905D02*
X122218334Y-98121905D01*
X122218334Y-97321905D01*
X121837381Y-97321905D01*
X121037381Y-98121905D02*
X121304048Y-97740952D01*
X121494524Y-98121905D02*
X121494524Y-97321905D01*
X121189762Y-97321905D01*
X121113571Y-97360000D01*
X121075476Y-97398095D01*
X121037381Y-97474286D01*
X121037381Y-97588571D01*
X121075476Y-97664762D01*
X121113571Y-97702857D01*
X121189762Y-97740952D01*
X121494524Y-97740952D01*
X120808810Y-97321905D02*
X120351667Y-97321905D01*
X120580238Y-98121905D02*
X120580238Y-97321905D01*
X120085000Y-98121905D02*
X120085000Y-97321905D01*
X119704048Y-98121905D02*
X119704048Y-97321905D01*
X119246905Y-98121905D01*
X119246905Y-97321905D01*
X118446905Y-97360000D02*
X118523096Y-97321905D01*
X118637381Y-97321905D01*
X118751667Y-97360000D01*
X118827858Y-97436190D01*
X118865953Y-97512381D01*
X118904048Y-97664762D01*
X118904048Y-97779048D01*
X118865953Y-97931429D01*
X118827858Y-98007619D01*
X118751667Y-98083810D01*
X118637381Y-98121905D01*
X118561191Y-98121905D01*
X118446905Y-98083810D01*
X118408810Y-98045714D01*
X118408810Y-97779048D01*
X118561191Y-97779048D01*
X122256429Y-99421905D02*
X122256429Y-98621905D01*
X122256429Y-99002857D02*
X121799286Y-99002857D01*
X121799286Y-99421905D02*
X121799286Y-98621905D01*
X121418334Y-99002857D02*
X121151667Y-99002857D01*
X121037381Y-99421905D02*
X121418334Y-99421905D01*
X121418334Y-98621905D01*
X121037381Y-98621905D01*
X120770714Y-98621905D02*
X120237381Y-99421905D01*
X120237381Y-98621905D02*
X120770714Y-99421905D01*
X123094523Y-100302857D02*
X122980237Y-100340952D01*
X122942142Y-100379048D01*
X122904047Y-100455238D01*
X122904047Y-100569524D01*
X122942142Y-100645714D01*
X122980237Y-100683810D01*
X123056428Y-100721905D01*
X123361190Y-100721905D01*
X123361190Y-99921905D01*
X123094523Y-99921905D01*
X123018333Y-99960000D01*
X122980237Y-99998095D01*
X122942142Y-100074286D01*
X122942142Y-100150476D01*
X122980237Y-100226667D01*
X123018333Y-100264762D01*
X123094523Y-100302857D01*
X123361190Y-100302857D01*
X122561190Y-99921905D02*
X122561190Y-100569524D01*
X122523095Y-100645714D01*
X122484999Y-100683810D01*
X122408809Y-100721905D01*
X122256428Y-100721905D01*
X122180237Y-100683810D01*
X122142142Y-100645714D01*
X122104047Y-100569524D01*
X122104047Y-99921905D01*
X121456428Y-100302857D02*
X121723095Y-100302857D01*
X121723095Y-100721905D02*
X121723095Y-99921905D01*
X121342142Y-99921905D01*
X120770714Y-100302857D02*
X121037381Y-100302857D01*
X121037381Y-100721905D02*
X121037381Y-99921905D01*
X120656428Y-99921905D01*
X120351667Y-100302857D02*
X120085000Y-100302857D01*
X119970714Y-100721905D02*
X120351667Y-100721905D01*
X120351667Y-99921905D01*
X119970714Y-99921905D01*
X119170714Y-100721905D02*
X119437381Y-100340952D01*
X119627857Y-100721905D02*
X119627857Y-99921905D01*
X119323095Y-99921905D01*
X119246904Y-99960000D01*
X119208809Y-99998095D01*
X119170714Y-100074286D01*
X119170714Y-100188571D01*
X119208809Y-100264762D01*
X119246904Y-100302857D01*
X119323095Y-100340952D01*
X119627857Y-100340952D01*
X112058095Y-98121905D02*
X112058095Y-97321905D01*
X111677143Y-98121905D02*
X111677143Y-97321905D01*
X111220000Y-98121905D01*
X111220000Y-97321905D01*
X110953334Y-97321905D02*
X110686667Y-98121905D01*
X110420000Y-97321905D01*
X110153334Y-97702857D02*
X109886667Y-97702857D01*
X109772381Y-98121905D02*
X110153334Y-98121905D01*
X110153334Y-97321905D01*
X109772381Y-97321905D01*
X108972381Y-98121905D02*
X109239048Y-97740952D01*
X109429524Y-98121905D02*
X109429524Y-97321905D01*
X109124762Y-97321905D01*
X109048571Y-97360000D01*
X109010476Y-97398095D01*
X108972381Y-97474286D01*
X108972381Y-97588571D01*
X109010476Y-97664762D01*
X109048571Y-97702857D01*
X109124762Y-97740952D01*
X109429524Y-97740952D01*
X108743810Y-97321905D02*
X108286667Y-97321905D01*
X108515238Y-98121905D02*
X108515238Y-97321905D01*
X108020000Y-98121905D02*
X108020000Y-97321905D01*
X107639048Y-98121905D02*
X107639048Y-97321905D01*
X107181905Y-98121905D01*
X107181905Y-97321905D01*
X106381905Y-97360000D02*
X106458096Y-97321905D01*
X106572381Y-97321905D01*
X106686667Y-97360000D01*
X106762858Y-97436190D01*
X106800953Y-97512381D01*
X106839048Y-97664762D01*
X106839048Y-97779048D01*
X106800953Y-97931429D01*
X106762858Y-98007619D01*
X106686667Y-98083810D01*
X106572381Y-98121905D01*
X106496191Y-98121905D01*
X106381905Y-98083810D01*
X106343810Y-98045714D01*
X106343810Y-97779048D01*
X106496191Y-97779048D01*
X110191429Y-99421905D02*
X110191429Y-98621905D01*
X110191429Y-99002857D02*
X109734286Y-99002857D01*
X109734286Y-99421905D02*
X109734286Y-98621905D01*
X109353334Y-99002857D02*
X109086667Y-99002857D01*
X108972381Y-99421905D02*
X109353334Y-99421905D01*
X109353334Y-98621905D01*
X108972381Y-98621905D01*
X108705714Y-98621905D02*
X108172381Y-99421905D01*
X108172381Y-98621905D02*
X108705714Y-99421905D01*
X111029523Y-100302857D02*
X110915237Y-100340952D01*
X110877142Y-100379048D01*
X110839047Y-100455238D01*
X110839047Y-100569524D01*
X110877142Y-100645714D01*
X110915237Y-100683810D01*
X110991428Y-100721905D01*
X111296190Y-100721905D01*
X111296190Y-99921905D01*
X111029523Y-99921905D01*
X110953333Y-99960000D01*
X110915237Y-99998095D01*
X110877142Y-100074286D01*
X110877142Y-100150476D01*
X110915237Y-100226667D01*
X110953333Y-100264762D01*
X111029523Y-100302857D01*
X111296190Y-100302857D01*
X110496190Y-99921905D02*
X110496190Y-100569524D01*
X110458095Y-100645714D01*
X110419999Y-100683810D01*
X110343809Y-100721905D01*
X110191428Y-100721905D01*
X110115237Y-100683810D01*
X110077142Y-100645714D01*
X110039047Y-100569524D01*
X110039047Y-99921905D01*
X109391428Y-100302857D02*
X109658095Y-100302857D01*
X109658095Y-100721905D02*
X109658095Y-99921905D01*
X109277142Y-99921905D01*
X108705714Y-100302857D02*
X108972381Y-100302857D01*
X108972381Y-100721905D02*
X108972381Y-99921905D01*
X108591428Y-99921905D01*
X108286667Y-100302857D02*
X108020000Y-100302857D01*
X107905714Y-100721905D02*
X108286667Y-100721905D01*
X108286667Y-99921905D01*
X107905714Y-99921905D01*
X107105714Y-100721905D02*
X107372381Y-100340952D01*
X107562857Y-100721905D02*
X107562857Y-99921905D01*
X107258095Y-99921905D01*
X107181904Y-99960000D01*
X107143809Y-99998095D01*
X107105714Y-100074286D01*
X107105714Y-100188571D01*
X107143809Y-100264762D01*
X107181904Y-100302857D01*
X107258095Y-100340952D01*
X107562857Y-100340952D01*
X194284286Y-96638333D02*
X193903334Y-96638333D01*
X194360477Y-96866905D02*
X194093810Y-96066905D01*
X193827143Y-96866905D01*
X193560477Y-96866905D02*
X193560477Y-96066905D01*
X193370001Y-96066905D01*
X193255715Y-96105000D01*
X193179524Y-96181190D01*
X193141429Y-96257381D01*
X193103334Y-96409762D01*
X193103334Y-96524048D01*
X193141429Y-96676429D01*
X193179524Y-96752619D01*
X193255715Y-96828810D01*
X193370001Y-96866905D01*
X193560477Y-96866905D01*
X192760477Y-96866905D02*
X192760477Y-96066905D01*
X192570001Y-96066905D01*
X192455715Y-96105000D01*
X192379524Y-96181190D01*
X192341429Y-96257381D01*
X192303334Y-96409762D01*
X192303334Y-96524048D01*
X192341429Y-96676429D01*
X192379524Y-96752619D01*
X192455715Y-96828810D01*
X192570001Y-96866905D01*
X192760477Y-96866905D01*
X191503334Y-96866905D02*
X191770001Y-96485952D01*
X191960477Y-96866905D02*
X191960477Y-96066905D01*
X191655715Y-96066905D01*
X191579524Y-96105000D01*
X191541429Y-96143095D01*
X191503334Y-96219286D01*
X191503334Y-96333571D01*
X191541429Y-96409762D01*
X191579524Y-96447857D01*
X191655715Y-96485952D01*
X191960477Y-96485952D01*
X191160477Y-96447857D02*
X190893810Y-96447857D01*
X190779524Y-96866905D02*
X191160477Y-96866905D01*
X191160477Y-96066905D01*
X190779524Y-96066905D01*
X190474762Y-96828810D02*
X190360476Y-96866905D01*
X190170000Y-96866905D01*
X190093810Y-96828810D01*
X190055714Y-96790714D01*
X190017619Y-96714524D01*
X190017619Y-96638333D01*
X190055714Y-96562143D01*
X190093810Y-96524048D01*
X190170000Y-96485952D01*
X190322381Y-96447857D01*
X190398572Y-96409762D01*
X190436667Y-96371667D01*
X190474762Y-96295476D01*
X190474762Y-96219286D01*
X190436667Y-96143095D01*
X190398572Y-96105000D01*
X190322381Y-96066905D01*
X190131905Y-96066905D01*
X190017619Y-96105000D01*
X189712857Y-96828810D02*
X189598571Y-96866905D01*
X189408095Y-96866905D01*
X189331905Y-96828810D01*
X189293809Y-96790714D01*
X189255714Y-96714524D01*
X189255714Y-96638333D01*
X189293809Y-96562143D01*
X189331905Y-96524048D01*
X189408095Y-96485952D01*
X189560476Y-96447857D01*
X189636667Y-96409762D01*
X189674762Y-96371667D01*
X189712857Y-96295476D01*
X189712857Y-96219286D01*
X189674762Y-96143095D01*
X189636667Y-96105000D01*
X189560476Y-96066905D01*
X189370000Y-96066905D01*
X189255714Y-96105000D01*
X194570000Y-98166905D02*
X194570000Y-97366905D01*
X194379524Y-97366905D01*
X194265238Y-97405000D01*
X194189047Y-97481190D01*
X194150952Y-97557381D01*
X194112857Y-97709762D01*
X194112857Y-97824048D01*
X194150952Y-97976429D01*
X194189047Y-98052619D01*
X194265238Y-98128810D01*
X194379524Y-98166905D01*
X194570000Y-98166905D01*
X193770000Y-97747857D02*
X193503333Y-97747857D01*
X193389047Y-98166905D02*
X193770000Y-98166905D01*
X193770000Y-97366905D01*
X193389047Y-97366905D01*
X192589047Y-98090714D02*
X192627142Y-98128810D01*
X192741428Y-98166905D01*
X192817618Y-98166905D01*
X192931904Y-98128810D01*
X193008095Y-98052619D01*
X193046190Y-97976429D01*
X193084285Y-97824048D01*
X193084285Y-97709762D01*
X193046190Y-97557381D01*
X193008095Y-97481190D01*
X192931904Y-97405000D01*
X192817618Y-97366905D01*
X192741428Y-97366905D01*
X192627142Y-97405000D01*
X192589047Y-97443095D01*
X192093809Y-97366905D02*
X191941428Y-97366905D01*
X191865237Y-97405000D01*
X191789047Y-97481190D01*
X191750952Y-97633571D01*
X191750952Y-97900238D01*
X191789047Y-98052619D01*
X191865237Y-98128810D01*
X191941428Y-98166905D01*
X192093809Y-98166905D01*
X192169999Y-98128810D01*
X192246190Y-98052619D01*
X192284285Y-97900238D01*
X192284285Y-97633571D01*
X192246190Y-97481190D01*
X192169999Y-97405000D01*
X192093809Y-97366905D01*
X191408095Y-98166905D02*
X191408095Y-97366905D01*
X191217619Y-97366905D01*
X191103333Y-97405000D01*
X191027142Y-97481190D01*
X190989047Y-97557381D01*
X190950952Y-97709762D01*
X190950952Y-97824048D01*
X190989047Y-97976429D01*
X191027142Y-98052619D01*
X191103333Y-98128810D01*
X191217619Y-98166905D01*
X191408095Y-98166905D01*
X190608095Y-98166905D02*
X190608095Y-97366905D01*
X190227143Y-98166905D02*
X190227143Y-97366905D01*
X189770000Y-98166905D01*
X189770000Y-97366905D01*
X188970000Y-97405000D02*
X189046191Y-97366905D01*
X189160476Y-97366905D01*
X189274762Y-97405000D01*
X189350953Y-97481190D01*
X189389048Y-97557381D01*
X189427143Y-97709762D01*
X189427143Y-97824048D01*
X189389048Y-97976429D01*
X189350953Y-98052619D01*
X189274762Y-98128810D01*
X189160476Y-98166905D01*
X189084286Y-98166905D01*
X188970000Y-98128810D01*
X188931905Y-98090714D01*
X188931905Y-97824048D01*
X189084286Y-97824048D01*
X185394286Y-66158333D02*
X185013334Y-66158333D01*
X185470477Y-66386905D02*
X185203810Y-65586905D01*
X184937143Y-66386905D01*
X184670477Y-66386905D02*
X184670477Y-65586905D01*
X184480001Y-65586905D01*
X184365715Y-65625000D01*
X184289524Y-65701190D01*
X184251429Y-65777381D01*
X184213334Y-65929762D01*
X184213334Y-66044048D01*
X184251429Y-66196429D01*
X184289524Y-66272619D01*
X184365715Y-66348810D01*
X184480001Y-66386905D01*
X184670477Y-66386905D01*
X183870477Y-66386905D02*
X183870477Y-65586905D01*
X183680001Y-65586905D01*
X183565715Y-65625000D01*
X183489524Y-65701190D01*
X183451429Y-65777381D01*
X183413334Y-65929762D01*
X183413334Y-66044048D01*
X183451429Y-66196429D01*
X183489524Y-66272619D01*
X183565715Y-66348810D01*
X183680001Y-66386905D01*
X183870477Y-66386905D01*
X182613334Y-66386905D02*
X182880001Y-66005952D01*
X183070477Y-66386905D02*
X183070477Y-65586905D01*
X182765715Y-65586905D01*
X182689524Y-65625000D01*
X182651429Y-65663095D01*
X182613334Y-65739286D01*
X182613334Y-65853571D01*
X182651429Y-65929762D01*
X182689524Y-65967857D01*
X182765715Y-66005952D01*
X183070477Y-66005952D01*
X182270477Y-65967857D02*
X182003810Y-65967857D01*
X181889524Y-66386905D02*
X182270477Y-66386905D01*
X182270477Y-65586905D01*
X181889524Y-65586905D01*
X181584762Y-66348810D02*
X181470476Y-66386905D01*
X181280000Y-66386905D01*
X181203810Y-66348810D01*
X181165714Y-66310714D01*
X181127619Y-66234524D01*
X181127619Y-66158333D01*
X181165714Y-66082143D01*
X181203810Y-66044048D01*
X181280000Y-66005952D01*
X181432381Y-65967857D01*
X181508572Y-65929762D01*
X181546667Y-65891667D01*
X181584762Y-65815476D01*
X181584762Y-65739286D01*
X181546667Y-65663095D01*
X181508572Y-65625000D01*
X181432381Y-65586905D01*
X181241905Y-65586905D01*
X181127619Y-65625000D01*
X180822857Y-66348810D02*
X180708571Y-66386905D01*
X180518095Y-66386905D01*
X180441905Y-66348810D01*
X180403809Y-66310714D01*
X180365714Y-66234524D01*
X180365714Y-66158333D01*
X180403809Y-66082143D01*
X180441905Y-66044048D01*
X180518095Y-66005952D01*
X180670476Y-65967857D01*
X180746667Y-65929762D01*
X180784762Y-65891667D01*
X180822857Y-65815476D01*
X180822857Y-65739286D01*
X180784762Y-65663095D01*
X180746667Y-65625000D01*
X180670476Y-65586905D01*
X180480000Y-65586905D01*
X180365714Y-65625000D01*
X185680000Y-67686905D02*
X185680000Y-66886905D01*
X185489524Y-66886905D01*
X185375238Y-66925000D01*
X185299047Y-67001190D01*
X185260952Y-67077381D01*
X185222857Y-67229762D01*
X185222857Y-67344048D01*
X185260952Y-67496429D01*
X185299047Y-67572619D01*
X185375238Y-67648810D01*
X185489524Y-67686905D01*
X185680000Y-67686905D01*
X184880000Y-67267857D02*
X184613333Y-67267857D01*
X184499047Y-67686905D02*
X184880000Y-67686905D01*
X184880000Y-66886905D01*
X184499047Y-66886905D01*
X183699047Y-67610714D02*
X183737142Y-67648810D01*
X183851428Y-67686905D01*
X183927618Y-67686905D01*
X184041904Y-67648810D01*
X184118095Y-67572619D01*
X184156190Y-67496429D01*
X184194285Y-67344048D01*
X184194285Y-67229762D01*
X184156190Y-67077381D01*
X184118095Y-67001190D01*
X184041904Y-66925000D01*
X183927618Y-66886905D01*
X183851428Y-66886905D01*
X183737142Y-66925000D01*
X183699047Y-66963095D01*
X183203809Y-66886905D02*
X183051428Y-66886905D01*
X182975237Y-66925000D01*
X182899047Y-67001190D01*
X182860952Y-67153571D01*
X182860952Y-67420238D01*
X182899047Y-67572619D01*
X182975237Y-67648810D01*
X183051428Y-67686905D01*
X183203809Y-67686905D01*
X183279999Y-67648810D01*
X183356190Y-67572619D01*
X183394285Y-67420238D01*
X183394285Y-67153571D01*
X183356190Y-67001190D01*
X183279999Y-66925000D01*
X183203809Y-66886905D01*
X182518095Y-67686905D02*
X182518095Y-66886905D01*
X182327619Y-66886905D01*
X182213333Y-66925000D01*
X182137142Y-67001190D01*
X182099047Y-67077381D01*
X182060952Y-67229762D01*
X182060952Y-67344048D01*
X182099047Y-67496429D01*
X182137142Y-67572619D01*
X182213333Y-67648810D01*
X182327619Y-67686905D01*
X182518095Y-67686905D01*
X181718095Y-67686905D02*
X181718095Y-66886905D01*
X181337143Y-67686905D02*
X181337143Y-66886905D01*
X180880000Y-67686905D01*
X180880000Y-66886905D01*
X180080000Y-66925000D02*
X180156191Y-66886905D01*
X180270476Y-66886905D01*
X180384762Y-66925000D01*
X180460953Y-67001190D01*
X180499048Y-67077381D01*
X180537143Y-67229762D01*
X180537143Y-67344048D01*
X180499048Y-67496429D01*
X180460953Y-67572619D01*
X180384762Y-67648810D01*
X180270476Y-67686905D01*
X180194286Y-67686905D01*
X180080000Y-67648810D01*
X180041905Y-67610714D01*
X180041905Y-67344048D01*
X180194286Y-67344048D01*
D12*
X166655000Y-96924762D02*
X166512143Y-96972381D01*
X166274047Y-96972381D01*
X166178809Y-96924762D01*
X166131190Y-96877143D01*
X166083571Y-96781905D01*
X166083571Y-96686667D01*
X166131190Y-96591429D01*
X166178809Y-96543810D01*
X166274047Y-96496190D01*
X166464524Y-96448571D01*
X166559762Y-96400952D01*
X166607381Y-96353333D01*
X166655000Y-96258095D01*
X166655000Y-96162857D01*
X166607381Y-96067619D01*
X166559762Y-96020000D01*
X166464524Y-95972381D01*
X166226428Y-95972381D01*
X166083571Y-96020000D01*
X166369286Y-95829524D02*
X166369286Y-97115238D01*
X165083571Y-96877143D02*
X165131190Y-96924762D01*
X165274047Y-96972381D01*
X165369285Y-96972381D01*
X165512143Y-96924762D01*
X165607381Y-96829524D01*
X165655000Y-96734286D01*
X165702619Y-96543810D01*
X165702619Y-96400952D01*
X165655000Y-96210476D01*
X165607381Y-96115238D01*
X165512143Y-96020000D01*
X165369285Y-95972381D01*
X165274047Y-95972381D01*
X165131190Y-96020000D01*
X165083571Y-96067619D01*
X164083571Y-96877143D02*
X164131190Y-96924762D01*
X164274047Y-96972381D01*
X164369285Y-96972381D01*
X164512143Y-96924762D01*
X164607381Y-96829524D01*
X164655000Y-96734286D01*
X164702619Y-96543810D01*
X164702619Y-96400952D01*
X164655000Y-96210476D01*
X164607381Y-96115238D01*
X164512143Y-96020000D01*
X164369285Y-95972381D01*
X164274047Y-95972381D01*
X164131190Y-96020000D01*
X164083571Y-96067619D01*
X163464524Y-95972381D02*
X163369285Y-95972381D01*
X163274047Y-96020000D01*
X163226428Y-96067619D01*
X163178809Y-96162857D01*
X163131190Y-96353333D01*
X163131190Y-96591429D01*
X163178809Y-96781905D01*
X163226428Y-96877143D01*
X163274047Y-96924762D01*
X163369285Y-96972381D01*
X163464524Y-96972381D01*
X163559762Y-96924762D01*
X163607381Y-96877143D01*
X163655000Y-96781905D01*
X163702619Y-96591429D01*
X163702619Y-96353333D01*
X163655000Y-96162857D01*
X163607381Y-96067619D01*
X163559762Y-96020000D01*
X163464524Y-95972381D01*
X162512143Y-95972381D02*
X162416904Y-95972381D01*
X162321666Y-96020000D01*
X162274047Y-96067619D01*
X162226428Y-96162857D01*
X162178809Y-96353333D01*
X162178809Y-96591429D01*
X162226428Y-96781905D01*
X162274047Y-96877143D01*
X162321666Y-96924762D01*
X162416904Y-96972381D01*
X162512143Y-96972381D01*
X162607381Y-96924762D01*
X162655000Y-96877143D01*
X162702619Y-96781905D01*
X162750238Y-96591429D01*
X162750238Y-96353333D01*
X162702619Y-96162857D01*
X162655000Y-96067619D01*
X162607381Y-96020000D01*
X162512143Y-95972381D01*
X160988333Y-96591429D02*
X160226428Y-96591429D01*
X159035952Y-96924762D02*
X158893095Y-96972381D01*
X158654999Y-96972381D01*
X158559761Y-96924762D01*
X158512142Y-96877143D01*
X158464523Y-96781905D01*
X158464523Y-96686667D01*
X158512142Y-96591429D01*
X158559761Y-96543810D01*
X158654999Y-96496190D01*
X158845476Y-96448571D01*
X158940714Y-96400952D01*
X158988333Y-96353333D01*
X159035952Y-96258095D01*
X159035952Y-96162857D01*
X158988333Y-96067619D01*
X158940714Y-96020000D01*
X158845476Y-95972381D01*
X158607380Y-95972381D01*
X158464523Y-96020000D01*
X158750238Y-95829524D02*
X158750238Y-97115238D01*
X157464523Y-96877143D02*
X157512142Y-96924762D01*
X157654999Y-96972381D01*
X157750237Y-96972381D01*
X157893095Y-96924762D01*
X157988333Y-96829524D01*
X158035952Y-96734286D01*
X158083571Y-96543810D01*
X158083571Y-96400952D01*
X158035952Y-96210476D01*
X157988333Y-96115238D01*
X157893095Y-96020000D01*
X157750237Y-95972381D01*
X157654999Y-95972381D01*
X157512142Y-96020000D01*
X157464523Y-96067619D01*
X156464523Y-96877143D02*
X156512142Y-96924762D01*
X156654999Y-96972381D01*
X156750237Y-96972381D01*
X156893095Y-96924762D01*
X156988333Y-96829524D01*
X157035952Y-96734286D01*
X157083571Y-96543810D01*
X157083571Y-96400952D01*
X157035952Y-96210476D01*
X156988333Y-96115238D01*
X156893095Y-96020000D01*
X156750237Y-95972381D01*
X156654999Y-95972381D01*
X156512142Y-96020000D01*
X156464523Y-96067619D01*
X155845476Y-95972381D02*
X155750237Y-95972381D01*
X155654999Y-96020000D01*
X155607380Y-96067619D01*
X155559761Y-96162857D01*
X155512142Y-96353333D01*
X155512142Y-96591429D01*
X155559761Y-96781905D01*
X155607380Y-96877143D01*
X155654999Y-96924762D01*
X155750237Y-96972381D01*
X155845476Y-96972381D01*
X155940714Y-96924762D01*
X155988333Y-96877143D01*
X156035952Y-96781905D01*
X156083571Y-96591429D01*
X156083571Y-96353333D01*
X156035952Y-96162857D01*
X155988333Y-96067619D01*
X155940714Y-96020000D01*
X155845476Y-95972381D01*
X154750237Y-96448571D02*
X155083571Y-96448571D01*
X155083571Y-96972381D02*
X155083571Y-95972381D01*
X154607380Y-95972381D01*
X143747381Y-96924762D02*
X143604524Y-96972381D01*
X143366428Y-96972381D01*
X143271190Y-96924762D01*
X143223571Y-96877143D01*
X143175952Y-96781905D01*
X143175952Y-96686667D01*
X143223571Y-96591429D01*
X143271190Y-96543810D01*
X143366428Y-96496190D01*
X143556905Y-96448571D01*
X143652143Y-96400952D01*
X143699762Y-96353333D01*
X143747381Y-96258095D01*
X143747381Y-96162857D01*
X143699762Y-96067619D01*
X143652143Y-96020000D01*
X143556905Y-95972381D01*
X143318809Y-95972381D01*
X143175952Y-96020000D01*
X143461667Y-95829524D02*
X143461667Y-97115238D01*
X142175952Y-96877143D02*
X142223571Y-96924762D01*
X142366428Y-96972381D01*
X142461666Y-96972381D01*
X142604524Y-96924762D01*
X142699762Y-96829524D01*
X142747381Y-96734286D01*
X142795000Y-96543810D01*
X142795000Y-96400952D01*
X142747381Y-96210476D01*
X142699762Y-96115238D01*
X142604524Y-96020000D01*
X142461666Y-95972381D01*
X142366428Y-95972381D01*
X142223571Y-96020000D01*
X142175952Y-96067619D01*
X141556905Y-95972381D02*
X141461666Y-95972381D01*
X141366428Y-96020000D01*
X141318809Y-96067619D01*
X141271190Y-96162857D01*
X141223571Y-96353333D01*
X141223571Y-96591429D01*
X141271190Y-96781905D01*
X141318809Y-96877143D01*
X141366428Y-96924762D01*
X141461666Y-96972381D01*
X141556905Y-96972381D01*
X141652143Y-96924762D01*
X141699762Y-96877143D01*
X141747381Y-96781905D01*
X141795000Y-96591429D01*
X141795000Y-96353333D01*
X141747381Y-96162857D01*
X141699762Y-96067619D01*
X141652143Y-96020000D01*
X141556905Y-95972381D01*
X140604524Y-95972381D02*
X140509285Y-95972381D01*
X140414047Y-96020000D01*
X140366428Y-96067619D01*
X140318809Y-96162857D01*
X140271190Y-96353333D01*
X140271190Y-96591429D01*
X140318809Y-96781905D01*
X140366428Y-96877143D01*
X140414047Y-96924762D01*
X140509285Y-96972381D01*
X140604524Y-96972381D01*
X140699762Y-96924762D01*
X140747381Y-96877143D01*
X140795000Y-96781905D01*
X140842619Y-96591429D01*
X140842619Y-96353333D01*
X140795000Y-96162857D01*
X140747381Y-96067619D01*
X140699762Y-96020000D01*
X140604524Y-95972381D01*
X139652143Y-95972381D02*
X139556904Y-95972381D01*
X139461666Y-96020000D01*
X139414047Y-96067619D01*
X139366428Y-96162857D01*
X139318809Y-96353333D01*
X139318809Y-96591429D01*
X139366428Y-96781905D01*
X139414047Y-96877143D01*
X139461666Y-96924762D01*
X139556904Y-96972381D01*
X139652143Y-96972381D01*
X139747381Y-96924762D01*
X139795000Y-96877143D01*
X139842619Y-96781905D01*
X139890238Y-96591429D01*
X139890238Y-96353333D01*
X139842619Y-96162857D01*
X139795000Y-96067619D01*
X139747381Y-96020000D01*
X139652143Y-95972381D01*
X138128333Y-96591429D02*
X137366428Y-96591429D01*
X136175952Y-96924762D02*
X136033095Y-96972381D01*
X135794999Y-96972381D01*
X135699761Y-96924762D01*
X135652142Y-96877143D01*
X135604523Y-96781905D01*
X135604523Y-96686667D01*
X135652142Y-96591429D01*
X135699761Y-96543810D01*
X135794999Y-96496190D01*
X135985476Y-96448571D01*
X136080714Y-96400952D01*
X136128333Y-96353333D01*
X136175952Y-96258095D01*
X136175952Y-96162857D01*
X136128333Y-96067619D01*
X136080714Y-96020000D01*
X135985476Y-95972381D01*
X135747380Y-95972381D01*
X135604523Y-96020000D01*
X135890238Y-95829524D02*
X135890238Y-97115238D01*
X134604523Y-96877143D02*
X134652142Y-96924762D01*
X134794999Y-96972381D01*
X134890237Y-96972381D01*
X135033095Y-96924762D01*
X135128333Y-96829524D01*
X135175952Y-96734286D01*
X135223571Y-96543810D01*
X135223571Y-96400952D01*
X135175952Y-96210476D01*
X135128333Y-96115238D01*
X135033095Y-96020000D01*
X134890237Y-95972381D01*
X134794999Y-95972381D01*
X134652142Y-96020000D01*
X134604523Y-96067619D01*
X133985476Y-95972381D02*
X133890237Y-95972381D01*
X133794999Y-96020000D01*
X133747380Y-96067619D01*
X133699761Y-96162857D01*
X133652142Y-96353333D01*
X133652142Y-96591429D01*
X133699761Y-96781905D01*
X133747380Y-96877143D01*
X133794999Y-96924762D01*
X133890237Y-96972381D01*
X133985476Y-96972381D01*
X134080714Y-96924762D01*
X134128333Y-96877143D01*
X134175952Y-96781905D01*
X134223571Y-96591429D01*
X134223571Y-96353333D01*
X134175952Y-96162857D01*
X134128333Y-96067619D01*
X134080714Y-96020000D01*
X133985476Y-95972381D01*
X133033095Y-95972381D02*
X132937856Y-95972381D01*
X132842618Y-96020000D01*
X132794999Y-96067619D01*
X132747380Y-96162857D01*
X132699761Y-96353333D01*
X132699761Y-96591429D01*
X132747380Y-96781905D01*
X132794999Y-96877143D01*
X132842618Y-96924762D01*
X132937856Y-96972381D01*
X133033095Y-96972381D01*
X133128333Y-96924762D01*
X133175952Y-96877143D01*
X133223571Y-96781905D01*
X133271190Y-96591429D01*
X133271190Y-96353333D01*
X133223571Y-96162857D01*
X133175952Y-96067619D01*
X133128333Y-96020000D01*
X133033095Y-95972381D01*
X131937856Y-96448571D02*
X132271190Y-96448571D01*
X132271190Y-96972381D02*
X132271190Y-95972381D01*
X131794999Y-95972381D01*
X164726427Y-93158571D02*
X165012141Y-93158571D01*
X165154998Y-93230000D01*
X165226427Y-93301429D01*
X165369284Y-93515714D01*
X165440713Y-93801429D01*
X165440713Y-94372857D01*
X165369284Y-94515714D01*
X165297856Y-94587143D01*
X165154998Y-94658571D01*
X164869284Y-94658571D01*
X164726427Y-94587143D01*
X164654998Y-94515714D01*
X164583570Y-94372857D01*
X164583570Y-94015714D01*
X164654998Y-93872857D01*
X164726427Y-93801429D01*
X164869284Y-93730000D01*
X165154998Y-93730000D01*
X165297856Y-93801429D01*
X165369284Y-93872857D01*
X165440713Y-94015714D01*
X163226427Y-93158571D02*
X163940713Y-93158571D01*
X164012142Y-93872857D01*
X163940713Y-93801429D01*
X163797856Y-93730000D01*
X163440713Y-93730000D01*
X163297856Y-93801429D01*
X163226427Y-93872857D01*
X163154999Y-94015714D01*
X163154999Y-94372857D01*
X163226427Y-94515714D01*
X163297856Y-94587143D01*
X163440713Y-94658571D01*
X163797856Y-94658571D01*
X163940713Y-94587143D01*
X164012142Y-94515714D01*
X162583571Y-93301429D02*
X162512142Y-93230000D01*
X162369285Y-93158571D01*
X162012142Y-93158571D01*
X161869285Y-93230000D01*
X161797856Y-93301429D01*
X161726428Y-93444286D01*
X161726428Y-93587143D01*
X161797856Y-93801429D01*
X162654999Y-94658571D01*
X161726428Y-94658571D01*
X161155000Y-93301429D02*
X161083571Y-93230000D01*
X160940714Y-93158571D01*
X160583571Y-93158571D01*
X160440714Y-93230000D01*
X160369285Y-93301429D01*
X160297857Y-93444286D01*
X160297857Y-93587143D01*
X160369285Y-93801429D01*
X161226428Y-94658571D01*
X160297857Y-94658571D01*
X158726429Y-93158571D02*
X158226429Y-94658571D01*
X157726429Y-93158571D01*
X157226429Y-94658571D02*
X157226429Y-93158571D01*
X156583572Y-94230000D02*
X155869286Y-94230000D01*
X156726429Y-94658571D02*
X156226429Y-93158571D01*
X155726429Y-94658571D01*
X141866427Y-93158571D02*
X142152141Y-93158571D01*
X142294998Y-93230000D01*
X142366427Y-93301429D01*
X142509284Y-93515714D01*
X142580713Y-93801429D01*
X142580713Y-94372857D01*
X142509284Y-94515714D01*
X142437856Y-94587143D01*
X142294998Y-94658571D01*
X142009284Y-94658571D01*
X141866427Y-94587143D01*
X141794998Y-94515714D01*
X141723570Y-94372857D01*
X141723570Y-94015714D01*
X141794998Y-93872857D01*
X141866427Y-93801429D01*
X142009284Y-93730000D01*
X142294998Y-93730000D01*
X142437856Y-93801429D01*
X142509284Y-93872857D01*
X142580713Y-94015714D01*
X140366427Y-93158571D02*
X141080713Y-93158571D01*
X141152142Y-93872857D01*
X141080713Y-93801429D01*
X140937856Y-93730000D01*
X140580713Y-93730000D01*
X140437856Y-93801429D01*
X140366427Y-93872857D01*
X140294999Y-94015714D01*
X140294999Y-94372857D01*
X140366427Y-94515714D01*
X140437856Y-94587143D01*
X140580713Y-94658571D01*
X140937856Y-94658571D01*
X141080713Y-94587143D01*
X141152142Y-94515714D01*
X139723571Y-93301429D02*
X139652142Y-93230000D01*
X139509285Y-93158571D01*
X139152142Y-93158571D01*
X139009285Y-93230000D01*
X138937856Y-93301429D01*
X138866428Y-93444286D01*
X138866428Y-93587143D01*
X138937856Y-93801429D01*
X139794999Y-94658571D01*
X138866428Y-94658571D01*
X138295000Y-93301429D02*
X138223571Y-93230000D01*
X138080714Y-93158571D01*
X137723571Y-93158571D01*
X137580714Y-93230000D01*
X137509285Y-93301429D01*
X137437857Y-93444286D01*
X137437857Y-93587143D01*
X137509285Y-93801429D01*
X138366428Y-94658571D01*
X137437857Y-94658571D01*
X135866429Y-93158571D02*
X135366429Y-94658571D01*
X134866429Y-93158571D01*
X134366429Y-94658571D02*
X134366429Y-93158571D01*
X133723572Y-94230000D02*
X133009286Y-94230000D01*
X133866429Y-94658571D02*
X133366429Y-93158571D01*
X132866429Y-94658571D01*
D11*
X168275000Y-86995000D02*
X168275000Y-88265000D01*
X153035000Y-86995000D02*
X168275000Y-86995000D01*
X153035000Y-88265000D02*
X153035000Y-86995000D01*
X145415000Y-86995000D02*
X145415000Y-88265000D01*
X130175000Y-86995000D02*
X145415000Y-86995000D01*
X130175000Y-88265000D02*
X130175000Y-86995000D01*
X168275000Y-139065000D02*
X168275000Y-137795000D01*
X153035000Y-139065000D02*
X168275000Y-139065000D01*
X153035000Y-137795000D02*
X153035000Y-139065000D01*
X145415000Y-139065000D02*
X145415000Y-137795000D01*
X130175000Y-139065000D02*
X145415000Y-139065000D01*
X130175000Y-137795000D02*
X130175000Y-139065000D01*
X113030000Y-136525000D02*
X113030000Y-135255000D01*
X105410000Y-136525000D02*
X113030000Y-136525000D01*
X105410000Y-135255000D02*
X105410000Y-136525000D01*
X113030000Y-117475000D02*
X113030000Y-118745000D01*
X105410000Y-117475000D02*
X113030000Y-117475000D01*
X105410000Y-118745000D02*
X105410000Y-117475000D01*
X125095000Y-108585000D02*
X125095000Y-107315000D01*
X117475000Y-108585000D02*
X125095000Y-108585000D01*
X117475000Y-107315000D02*
X117475000Y-108585000D01*
X113030000Y-108585000D02*
X113030000Y-107315000D01*
X105410000Y-108585000D02*
X113030000Y-108585000D01*
X105410000Y-107315000D02*
X105410000Y-108585000D01*
X125095000Y-89535000D02*
X125095000Y-90805000D01*
X117475000Y-89535000D02*
X125095000Y-89535000D01*
X117475000Y-90805000D02*
X117475000Y-89535000D01*
X113030000Y-89535000D02*
X113030000Y-90805000D01*
X105410000Y-89535000D02*
X113030000Y-89535000D01*
X105410000Y-90805000D02*
X105410000Y-89535000D01*
X173990000Y-58420000D02*
X172720000Y-58420000D01*
X173990000Y-73660000D02*
X173990000Y-58420000D01*
X172720000Y-73660000D02*
X173990000Y-73660000D01*
X142240000Y-73660000D02*
X143510000Y-73660000D01*
X142240000Y-58420000D02*
X142240000Y-73660000D01*
X143510000Y-58420000D02*
X142240000Y-58420000D01*
X186690000Y-78105000D02*
X186690000Y-76835000D01*
X179070000Y-78105000D02*
X186690000Y-78105000D01*
X179070000Y-76835000D02*
X179070000Y-78105000D01*
X186690000Y-56515000D02*
X186690000Y-57785000D01*
X179070000Y-56515000D02*
X186690000Y-56515000D01*
X179070000Y-57785000D02*
X179070000Y-56515000D01*
X195580000Y-108585000D02*
X195580000Y-107315000D01*
X187960000Y-108585000D02*
X195580000Y-108585000D01*
X187960000Y-107315000D02*
X187960000Y-108585000D01*
X195580000Y-86995000D02*
X195580000Y-88265000D01*
X187960000Y-86995000D02*
X195580000Y-86995000D01*
X187960000Y-88265000D02*
X187960000Y-86995000D01*
M02*
