G04 #@! TF.GenerationSoftware,KiCad,Pcbnew,(5.1.5)-3*
G04 #@! TF.CreationDate,2020-11-02T01:25:37+01:00*
G04 #@! TF.ProjectId,PP 6502 Game Board,50502036-3530-4322-9047-616d6520426f,rev?*
G04 #@! TF.SameCoordinates,Original*
G04 #@! TF.FileFunction,Soldermask,Top*
G04 #@! TF.FilePolarity,Negative*
%FSLAX46Y46*%
G04 Gerber Fmt 4.6, Leading zero omitted, Abs format (unit mm)*
G04 Created by KiCad (PCBNEW (5.1.5)-3) date 2020-11-02 01:25:37*
%MOMM*%
%LPD*%
G04 APERTURE LIST*
%ADD10C,5.400000*%
%ADD11C,2.000000*%
%ADD12R,2.800000X2.000000*%
%ADD13O,2.800000X2.000000*%
%ADD14R,2.100000X2.100000*%
%ADD15O,2.100000X2.100000*%
%ADD16O,2.000000X2.000000*%
%ADD17R,2.000000X2.000000*%
%ADD18R,2.000000X2.800000*%
%ADD19O,2.000000X2.800000*%
%ADD20C,1.400000*%
%ADD21R,1.400000X1.400000*%
%ADD22C,1.924000*%
%ADD23R,2.900000X3.900000*%
%ADD24O,3.900000X2.150000*%
G04 APERTURE END LIST*
D10*
X104140000Y-140335000D03*
X195580000Y-140335000D03*
X195580000Y-55880000D03*
X104140000Y-55880000D03*
D11*
X125730000Y-137160000D03*
X125730000Y-132160000D03*
X194310000Y-85090000D03*
X189310000Y-85090000D03*
D12*
X179070000Y-58420000D03*
D13*
X186690000Y-76200000D03*
X179070000Y-60960000D03*
X186690000Y-73660000D03*
X179070000Y-63500000D03*
X186690000Y-71120000D03*
X179070000Y-66040000D03*
X186690000Y-68580000D03*
X179070000Y-68580000D03*
X186690000Y-66040000D03*
X179070000Y-71120000D03*
X186690000Y-63500000D03*
X179070000Y-73660000D03*
X186690000Y-60960000D03*
X179070000Y-76200000D03*
X186690000Y-58420000D03*
D12*
X130175000Y-88900000D03*
D13*
X145415000Y-137160000D03*
X130175000Y-91440000D03*
X145415000Y-134620000D03*
X130175000Y-93980000D03*
X145415000Y-132080000D03*
X130175000Y-96520000D03*
X145415000Y-129540000D03*
X130175000Y-99060000D03*
X145415000Y-127000000D03*
X130175000Y-101600000D03*
X145415000Y-124460000D03*
X130175000Y-104140000D03*
X145415000Y-121920000D03*
X130175000Y-106680000D03*
X145415000Y-119380000D03*
X130175000Y-109220000D03*
X145415000Y-116840000D03*
X130175000Y-111760000D03*
X145415000Y-114300000D03*
X130175000Y-114300000D03*
X145415000Y-111760000D03*
X130175000Y-116840000D03*
X145415000Y-109220000D03*
X130175000Y-119380000D03*
X145415000Y-106680000D03*
X130175000Y-121920000D03*
X145415000Y-104140000D03*
X130175000Y-124460000D03*
X145415000Y-101600000D03*
X130175000Y-127000000D03*
X145415000Y-99060000D03*
X130175000Y-129540000D03*
X145415000Y-96520000D03*
X130175000Y-132080000D03*
X145415000Y-93980000D03*
X130175000Y-134620000D03*
X145415000Y-91440000D03*
X130175000Y-137160000D03*
X145415000Y-88900000D03*
D12*
X187960000Y-88900000D03*
D13*
X195580000Y-106680000D03*
X187960000Y-91440000D03*
X195580000Y-104140000D03*
X187960000Y-93980000D03*
X195580000Y-101600000D03*
X187960000Y-96520000D03*
X195580000Y-99060000D03*
X187960000Y-99060000D03*
X195580000Y-96520000D03*
X187960000Y-101600000D03*
X195580000Y-93980000D03*
X187960000Y-104140000D03*
X195580000Y-91440000D03*
X187960000Y-106680000D03*
X195580000Y-88900000D03*
D14*
X152400000Y-54610000D03*
D15*
X149860000Y-54610000D03*
X147320000Y-54610000D03*
D11*
X185420000Y-54610000D03*
X180420000Y-54610000D03*
X111760000Y-87630000D03*
X106760000Y-87630000D03*
X123190000Y-87630000D03*
X118190000Y-87630000D03*
D14*
X194310000Y-62230000D03*
D15*
X196850000Y-62230000D03*
X194310000Y-64770000D03*
X196850000Y-64770000D03*
X194310000Y-67310000D03*
X196850000Y-67310000D03*
X194310000Y-69850000D03*
X196850000Y-69850000D03*
X194310000Y-72390000D03*
X196850000Y-72390000D03*
X194310000Y-74930000D03*
X196850000Y-74930000D03*
D14*
X198120000Y-145415000D03*
D15*
X195580000Y-145415000D03*
X193040000Y-145415000D03*
X190500000Y-145415000D03*
X187960000Y-145415000D03*
X185420000Y-145415000D03*
X182880000Y-145415000D03*
X180340000Y-145415000D03*
X177800000Y-145415000D03*
X175260000Y-145415000D03*
X172720000Y-145415000D03*
X170180000Y-145415000D03*
X167640000Y-145415000D03*
X165100000Y-145415000D03*
X162560000Y-145415000D03*
X160020000Y-145415000D03*
X157480000Y-145415000D03*
X154940000Y-145415000D03*
X152400000Y-145415000D03*
X149860000Y-145415000D03*
X147320000Y-145415000D03*
X144780000Y-145415000D03*
X142240000Y-145415000D03*
X139700000Y-145415000D03*
X137160000Y-145415000D03*
X134620000Y-145415000D03*
X132080000Y-145415000D03*
X129540000Y-145415000D03*
X127000000Y-145415000D03*
X124460000Y-145415000D03*
X121920000Y-145415000D03*
X119380000Y-145415000D03*
X116840000Y-145415000D03*
X114300000Y-145415000D03*
X111760000Y-145415000D03*
X109220000Y-145415000D03*
X106680000Y-145415000D03*
X104140000Y-145415000D03*
X101600000Y-145415000D03*
D14*
X198120000Y-80010000D03*
D15*
X195580000Y-80010000D03*
X193040000Y-80010000D03*
X190500000Y-80010000D03*
X187960000Y-80010000D03*
X185420000Y-80010000D03*
X182880000Y-80010000D03*
X180340000Y-80010000D03*
X177800000Y-80010000D03*
X175260000Y-80010000D03*
X172720000Y-80010000D03*
X170180000Y-80010000D03*
X167640000Y-80010000D03*
X165100000Y-80010000D03*
X162560000Y-80010000D03*
X160020000Y-80010000D03*
X157480000Y-80010000D03*
X154940000Y-80010000D03*
X152400000Y-80010000D03*
X149860000Y-80010000D03*
X147320000Y-80010000D03*
X144780000Y-80010000D03*
X142240000Y-80010000D03*
X139700000Y-80010000D03*
X137160000Y-80010000D03*
X134620000Y-80010000D03*
X132080000Y-80010000D03*
X129540000Y-80010000D03*
X127000000Y-80010000D03*
X124460000Y-80010000D03*
X121920000Y-80010000D03*
X119380000Y-80010000D03*
X116840000Y-80010000D03*
X114300000Y-80010000D03*
X111760000Y-80010000D03*
X109220000Y-80010000D03*
X106680000Y-80010000D03*
X104140000Y-80010000D03*
X101600000Y-80010000D03*
D11*
X180340000Y-88900000D03*
D16*
X180340000Y-99060000D03*
D17*
X105410000Y-91440000D03*
D16*
X113030000Y-106680000D03*
X105410000Y-93980000D03*
X113030000Y-104140000D03*
X105410000Y-96520000D03*
X113030000Y-101600000D03*
X105410000Y-99060000D03*
X113030000Y-99060000D03*
X105410000Y-101600000D03*
X113030000Y-96520000D03*
X105410000Y-104140000D03*
X113030000Y-93980000D03*
X105410000Y-106680000D03*
X113030000Y-91440000D03*
D17*
X117475000Y-91440000D03*
D16*
X125095000Y-106680000D03*
X117475000Y-93980000D03*
X125095000Y-104140000D03*
X117475000Y-96520000D03*
X125095000Y-101600000D03*
X117475000Y-99060000D03*
X125095000Y-99060000D03*
X117475000Y-101600000D03*
X125095000Y-96520000D03*
X117475000Y-104140000D03*
X125095000Y-93980000D03*
X117475000Y-106680000D03*
X125095000Y-91440000D03*
D17*
X105410000Y-119380000D03*
D16*
X113030000Y-134620000D03*
X105410000Y-121920000D03*
X113030000Y-132080000D03*
X105410000Y-124460000D03*
X113030000Y-129540000D03*
X105410000Y-127000000D03*
X113030000Y-127000000D03*
X105410000Y-129540000D03*
X113030000Y-124460000D03*
X105410000Y-132080000D03*
X113030000Y-121920000D03*
X105410000Y-134620000D03*
X113030000Y-119380000D03*
D12*
X153035000Y-88900000D03*
D13*
X168275000Y-137160000D03*
X153035000Y-91440000D03*
X168275000Y-134620000D03*
X153035000Y-93980000D03*
X168275000Y-132080000D03*
X153035000Y-96520000D03*
X168275000Y-129540000D03*
X153035000Y-99060000D03*
X168275000Y-127000000D03*
X153035000Y-101600000D03*
X168275000Y-124460000D03*
X153035000Y-104140000D03*
X168275000Y-121920000D03*
X153035000Y-106680000D03*
X168275000Y-119380000D03*
X153035000Y-109220000D03*
X168275000Y-116840000D03*
X153035000Y-111760000D03*
X168275000Y-114300000D03*
X153035000Y-114300000D03*
X168275000Y-111760000D03*
X153035000Y-116840000D03*
X168275000Y-109220000D03*
X153035000Y-119380000D03*
X168275000Y-106680000D03*
X153035000Y-121920000D03*
X168275000Y-104140000D03*
X153035000Y-124460000D03*
X168275000Y-101600000D03*
X153035000Y-127000000D03*
X168275000Y-99060000D03*
X153035000Y-129540000D03*
X168275000Y-96520000D03*
X153035000Y-132080000D03*
X168275000Y-93980000D03*
X153035000Y-134620000D03*
X168275000Y-91440000D03*
X153035000Y-137160000D03*
X168275000Y-88900000D03*
D18*
X144145000Y-73660000D03*
D19*
X172085000Y-58420000D03*
X146685000Y-73660000D03*
X169545000Y-58420000D03*
X149225000Y-73660000D03*
X167005000Y-58420000D03*
X151765000Y-73660000D03*
X164465000Y-58420000D03*
X154305000Y-73660000D03*
X161925000Y-58420000D03*
X156845000Y-73660000D03*
X159385000Y-58420000D03*
X159385000Y-73660000D03*
X156845000Y-58420000D03*
X161925000Y-73660000D03*
X154305000Y-58420000D03*
X164465000Y-73660000D03*
X151765000Y-58420000D03*
X167005000Y-73660000D03*
X149225000Y-58420000D03*
X169545000Y-73660000D03*
X146685000Y-58420000D03*
X172085000Y-73660000D03*
X144145000Y-58420000D03*
D14*
X198120000Y-50800000D03*
D15*
X195580000Y-50800000D03*
X193040000Y-50800000D03*
X190500000Y-50800000D03*
X187960000Y-50800000D03*
X185420000Y-50800000D03*
X182880000Y-50800000D03*
X180340000Y-50800000D03*
X177800000Y-50800000D03*
X175260000Y-50800000D03*
X172720000Y-50800000D03*
X170180000Y-50800000D03*
X167640000Y-50800000D03*
X165100000Y-50800000D03*
X162560000Y-50800000D03*
X160020000Y-50800000D03*
X157480000Y-50800000D03*
X154940000Y-50800000D03*
X152400000Y-50800000D03*
X149860000Y-50800000D03*
X147320000Y-50800000D03*
X144780000Y-50800000D03*
X142240000Y-50800000D03*
X139700000Y-50800000D03*
X137160000Y-50800000D03*
X134620000Y-50800000D03*
X132080000Y-50800000D03*
X129540000Y-50800000D03*
X127000000Y-50800000D03*
X124460000Y-50800000D03*
X121920000Y-50800000D03*
X119380000Y-50800000D03*
X116840000Y-50800000D03*
X114300000Y-50800000D03*
X111760000Y-50800000D03*
X109220000Y-50800000D03*
X106680000Y-50800000D03*
X104140000Y-50800000D03*
X101600000Y-50800000D03*
D11*
X111760000Y-115570000D03*
X106760000Y-115570000D03*
X149225000Y-137160000D03*
X149225000Y-132160000D03*
D20*
X180975000Y-104775000D03*
X182245000Y-103505000D03*
D21*
X182245000Y-106045000D03*
D11*
X184150000Y-99060000D03*
D16*
X184150000Y-88900000D03*
D11*
X176530000Y-88900000D03*
D16*
X176530000Y-99060000D03*
D22*
X186182000Y-121960000D03*
X186055000Y-126960000D03*
X186182000Y-119460000D03*
X186055000Y-129460000D03*
X186055000Y-131960000D03*
X186182000Y-116960000D03*
D23*
X105084000Y-70485000D03*
D24*
X110090000Y-65485000D03*
X110090000Y-75485000D03*
X110090000Y-67985000D03*
X110090000Y-72985000D03*
D14*
X176530000Y-103505000D03*
D15*
X176530000Y-106045000D03*
D11*
X142875000Y-140970000D03*
D16*
X132715000Y-140970000D03*
D11*
X140335000Y-58420000D03*
X140335000Y-63420000D03*
M02*
