G04 #@! TF.GenerationSoftware,KiCad,Pcbnew,(5.1.5)-3*
G04 #@! TF.CreationDate,2020-11-02T01:25:37+01:00*
G04 #@! TF.ProjectId,PP 6502 Game Board,50502036-3530-4322-9047-616d6520426f,rev?*
G04 #@! TF.SameCoordinates,Original*
G04 #@! TF.FileFunction,Legend,Bot*
G04 #@! TF.FilePolarity,Positive*
%FSLAX46Y46*%
G04 Gerber Fmt 4.6, Leading zero omitted, Abs format (unit mm)*
G04 Created by KiCad (PCBNEW (5.1.5)-3) date 2020-11-02 01:25:37*
%MOMM*%
%LPD*%
G04 APERTURE LIST*
%ADD10C,0.100000*%
%ADD11C,0.200000*%
%ADD12C,0.150000*%
G04 APERTURE END LIST*
D10*
X179044285Y-108908809D02*
X178930000Y-108946904D01*
X178739523Y-108946904D01*
X178663333Y-108908809D01*
X178625238Y-108870714D01*
X178587142Y-108794523D01*
X178587142Y-108718333D01*
X178625238Y-108642142D01*
X178663333Y-108604047D01*
X178739523Y-108565952D01*
X178891904Y-108527857D01*
X178968095Y-108489761D01*
X179006190Y-108451666D01*
X179044285Y-108375476D01*
X179044285Y-108299285D01*
X179006190Y-108223095D01*
X178968095Y-108185000D01*
X178891904Y-108146904D01*
X178701428Y-108146904D01*
X178587142Y-108185000D01*
X178244285Y-108946904D02*
X178244285Y-108146904D01*
X177939523Y-108146904D01*
X177863333Y-108185000D01*
X177825238Y-108223095D01*
X177787142Y-108299285D01*
X177787142Y-108413571D01*
X177825238Y-108489761D01*
X177863333Y-108527857D01*
X177939523Y-108565952D01*
X178244285Y-108565952D01*
X177444285Y-108946904D02*
X177444285Y-108146904D01*
X176987142Y-108946904D02*
X177330000Y-108489761D01*
X176987142Y-108146904D02*
X177444285Y-108604047D01*
X176187142Y-108946904D02*
X176453809Y-108565952D01*
X176644285Y-108946904D02*
X176644285Y-108146904D01*
X176339523Y-108146904D01*
X176263333Y-108185000D01*
X176225238Y-108223095D01*
X176187142Y-108299285D01*
X176187142Y-108413571D01*
X176225238Y-108489761D01*
X176263333Y-108527857D01*
X176339523Y-108565952D01*
X176644285Y-108565952D01*
X176034761Y-109023095D02*
X175425238Y-109023095D01*
X175234761Y-108527857D02*
X174968095Y-108527857D01*
X174853809Y-108946904D02*
X175234761Y-108946904D01*
X175234761Y-108146904D01*
X174853809Y-108146904D01*
X174510952Y-108946904D02*
X174510952Y-108146904D01*
X174053809Y-108946904D01*
X174053809Y-108146904D01*
D11*
X178435000Y-107950000D02*
X178435000Y-106680000D01*
X174625000Y-107950000D02*
X178435000Y-107950000D01*
X174625000Y-101600000D02*
X174625000Y-107950000D01*
X178435000Y-101600000D02*
X174625000Y-101600000D01*
X178435000Y-102870000D02*
X178435000Y-101600000D01*
X178435000Y-106045000D02*
X177165000Y-106045000D01*
X178435000Y-103505000D02*
X178435000Y-106045000D01*
X177165000Y-103505000D02*
X178435000Y-103505000D01*
D10*
X196189285Y-59823333D02*
X195808333Y-59823333D01*
X196265476Y-60051904D02*
X195998809Y-59251904D01*
X195732142Y-60051904D01*
X195465476Y-60051904D02*
X195465476Y-59251904D01*
X195275000Y-59251904D01*
X195160714Y-59290000D01*
X195084523Y-59366190D01*
X195046428Y-59442380D01*
X195008333Y-59594761D01*
X195008333Y-59709047D01*
X195046428Y-59861428D01*
X195084523Y-59937619D01*
X195160714Y-60013809D01*
X195275000Y-60051904D01*
X195465476Y-60051904D01*
X194665476Y-60051904D02*
X194665476Y-59251904D01*
X194475000Y-59251904D01*
X194360714Y-59290000D01*
X194284523Y-59366190D01*
X194246428Y-59442380D01*
X194208333Y-59594761D01*
X194208333Y-59709047D01*
X194246428Y-59861428D01*
X194284523Y-59937619D01*
X194360714Y-60013809D01*
X194475000Y-60051904D01*
X194665476Y-60051904D01*
X193408333Y-60051904D02*
X193675000Y-59670952D01*
X193865476Y-60051904D02*
X193865476Y-59251904D01*
X193560714Y-59251904D01*
X193484523Y-59290000D01*
X193446428Y-59328095D01*
X193408333Y-59404285D01*
X193408333Y-59518571D01*
X193446428Y-59594761D01*
X193484523Y-59632857D01*
X193560714Y-59670952D01*
X193865476Y-59670952D01*
X193065476Y-59632857D02*
X192798809Y-59632857D01*
X192684523Y-60051904D02*
X193065476Y-60051904D01*
X193065476Y-59251904D01*
X192684523Y-59251904D01*
X192379761Y-60013809D02*
X192265476Y-60051904D01*
X192075000Y-60051904D01*
X191998809Y-60013809D01*
X191960714Y-59975714D01*
X191922619Y-59899523D01*
X191922619Y-59823333D01*
X191960714Y-59747142D01*
X191998809Y-59709047D01*
X192075000Y-59670952D01*
X192227380Y-59632857D01*
X192303571Y-59594761D01*
X192341666Y-59556666D01*
X192379761Y-59480476D01*
X192379761Y-59404285D01*
X192341666Y-59328095D01*
X192303571Y-59290000D01*
X192227380Y-59251904D01*
X192036904Y-59251904D01*
X191922619Y-59290000D01*
X191617857Y-60013809D02*
X191503571Y-60051904D01*
X191313095Y-60051904D01*
X191236904Y-60013809D01*
X191198809Y-59975714D01*
X191160714Y-59899523D01*
X191160714Y-59823333D01*
X191198809Y-59747142D01*
X191236904Y-59709047D01*
X191313095Y-59670952D01*
X191465476Y-59632857D01*
X191541666Y-59594761D01*
X191579761Y-59556666D01*
X191617857Y-59480476D01*
X191617857Y-59404285D01*
X191579761Y-59328095D01*
X191541666Y-59290000D01*
X191465476Y-59251904D01*
X191275000Y-59251904D01*
X191160714Y-59290000D01*
D11*
X193040000Y-73660000D02*
X188595000Y-73660000D01*
X188595000Y-71120000D02*
X193040000Y-71120000D01*
X193040000Y-68580000D02*
X188595000Y-68580000D01*
X193040000Y-66040000D02*
X188595000Y-66040000D01*
X188595000Y-63500000D02*
X193040000Y-63500000D01*
X196850000Y-71120000D02*
X196850000Y-71755000D01*
X194310000Y-71120000D02*
X196850000Y-71120000D01*
X194310000Y-71755000D02*
X194310000Y-71120000D01*
X198755000Y-76835000D02*
X187960000Y-76835000D01*
X198755000Y-60325000D02*
X198755000Y-76835000D01*
X187960000Y-60325000D02*
X198755000Y-60325000D01*
X187960000Y-76835000D02*
X187960000Y-60325000D01*
D10*
X192271428Y-74603809D02*
X192157142Y-74641904D01*
X191966666Y-74641904D01*
X191890476Y-74603809D01*
X191852380Y-74565714D01*
X191814285Y-74489523D01*
X191814285Y-74413333D01*
X191852380Y-74337142D01*
X191890476Y-74299047D01*
X191966666Y-74260952D01*
X192119047Y-74222857D01*
X192195238Y-74184761D01*
X192233333Y-74146666D01*
X192271428Y-74070476D01*
X192271428Y-73994285D01*
X192233333Y-73918095D01*
X192195238Y-73880000D01*
X192119047Y-73841904D01*
X191928571Y-73841904D01*
X191814285Y-73880000D01*
X192042857Y-73727619D02*
X192042857Y-74756190D01*
X191014285Y-74565714D02*
X191052380Y-74603809D01*
X191166666Y-74641904D01*
X191242857Y-74641904D01*
X191357142Y-74603809D01*
X191433333Y-74527619D01*
X191471428Y-74451428D01*
X191509523Y-74299047D01*
X191509523Y-74184761D01*
X191471428Y-74032380D01*
X191433333Y-73956190D01*
X191357142Y-73880000D01*
X191242857Y-73841904D01*
X191166666Y-73841904D01*
X191052380Y-73880000D01*
X191014285Y-73918095D01*
X190519047Y-73841904D02*
X190442857Y-73841904D01*
X190366666Y-73880000D01*
X190328571Y-73918095D01*
X190290476Y-73994285D01*
X190252380Y-74146666D01*
X190252380Y-74337142D01*
X190290476Y-74489523D01*
X190328571Y-74565714D01*
X190366666Y-74603809D01*
X190442857Y-74641904D01*
X190519047Y-74641904D01*
X190595238Y-74603809D01*
X190633333Y-74565714D01*
X190671428Y-74489523D01*
X190709523Y-74337142D01*
X190709523Y-74146666D01*
X190671428Y-73994285D01*
X190633333Y-73918095D01*
X190595238Y-73880000D01*
X190519047Y-73841904D01*
X189757142Y-73841904D02*
X189680952Y-73841904D01*
X189604761Y-73880000D01*
X189566666Y-73918095D01*
X189528571Y-73994285D01*
X189490476Y-74146666D01*
X189490476Y-74337142D01*
X189528571Y-74489523D01*
X189566666Y-74565714D01*
X189604761Y-74603809D01*
X189680952Y-74641904D01*
X189757142Y-74641904D01*
X189833333Y-74603809D01*
X189871428Y-74565714D01*
X189909523Y-74489523D01*
X189947619Y-74337142D01*
X189947619Y-74146666D01*
X189909523Y-73994285D01*
X189871428Y-73918095D01*
X189833333Y-73880000D01*
X189757142Y-73841904D01*
X188995238Y-73841904D02*
X188919047Y-73841904D01*
X188842857Y-73880000D01*
X188804761Y-73918095D01*
X188766666Y-73994285D01*
X188728571Y-74146666D01*
X188728571Y-74337142D01*
X188766666Y-74489523D01*
X188804761Y-74565714D01*
X188842857Y-74603809D01*
X188919047Y-74641904D01*
X188995238Y-74641904D01*
X189071428Y-74603809D01*
X189109523Y-74565714D01*
X189147619Y-74489523D01*
X189185714Y-74337142D01*
X189185714Y-74146666D01*
X189147619Y-73994285D01*
X189109523Y-73918095D01*
X189071428Y-73880000D01*
X188995238Y-73841904D01*
X192290476Y-75903809D02*
X192176190Y-75941904D01*
X191985714Y-75941904D01*
X191909523Y-75903809D01*
X191871428Y-75865714D01*
X191833333Y-75789523D01*
X191833333Y-75713333D01*
X191871428Y-75637142D01*
X191909523Y-75599047D01*
X191985714Y-75560952D01*
X192138095Y-75522857D01*
X192214285Y-75484761D01*
X192252380Y-75446666D01*
X192290476Y-75370476D01*
X192290476Y-75294285D01*
X192252380Y-75218095D01*
X192214285Y-75180000D01*
X192138095Y-75141904D01*
X191947619Y-75141904D01*
X191833333Y-75180000D01*
X192061904Y-75027619D02*
X192061904Y-76056190D01*
X191033333Y-75865714D02*
X191071428Y-75903809D01*
X191185714Y-75941904D01*
X191261904Y-75941904D01*
X191376190Y-75903809D01*
X191452380Y-75827619D01*
X191490476Y-75751428D01*
X191528571Y-75599047D01*
X191528571Y-75484761D01*
X191490476Y-75332380D01*
X191452380Y-75256190D01*
X191376190Y-75180000D01*
X191261904Y-75141904D01*
X191185714Y-75141904D01*
X191071428Y-75180000D01*
X191033333Y-75218095D01*
X190233333Y-75865714D02*
X190271428Y-75903809D01*
X190385714Y-75941904D01*
X190461904Y-75941904D01*
X190576190Y-75903809D01*
X190652380Y-75827619D01*
X190690476Y-75751428D01*
X190728571Y-75599047D01*
X190728571Y-75484761D01*
X190690476Y-75332380D01*
X190652380Y-75256190D01*
X190576190Y-75180000D01*
X190461904Y-75141904D01*
X190385714Y-75141904D01*
X190271428Y-75180000D01*
X190233333Y-75218095D01*
X189738095Y-75141904D02*
X189661904Y-75141904D01*
X189585714Y-75180000D01*
X189547619Y-75218095D01*
X189509523Y-75294285D01*
X189471428Y-75446666D01*
X189471428Y-75637142D01*
X189509523Y-75789523D01*
X189547619Y-75865714D01*
X189585714Y-75903809D01*
X189661904Y-75941904D01*
X189738095Y-75941904D01*
X189814285Y-75903809D01*
X189852380Y-75865714D01*
X189890476Y-75789523D01*
X189928571Y-75637142D01*
X189928571Y-75446666D01*
X189890476Y-75294285D01*
X189852380Y-75218095D01*
X189814285Y-75180000D01*
X189738095Y-75141904D01*
X188976190Y-75141904D02*
X188900000Y-75141904D01*
X188823809Y-75180000D01*
X188785714Y-75218095D01*
X188747619Y-75294285D01*
X188709523Y-75446666D01*
X188709523Y-75637142D01*
X188747619Y-75789523D01*
X188785714Y-75865714D01*
X188823809Y-75903809D01*
X188900000Y-75941904D01*
X188976190Y-75941904D01*
X189052380Y-75903809D01*
X189090476Y-75865714D01*
X189128571Y-75789523D01*
X189166666Y-75637142D01*
X189166666Y-75446666D01*
X189128571Y-75294285D01*
X189090476Y-75218095D01*
X189052380Y-75180000D01*
X188976190Y-75141904D01*
X192214285Y-72063809D02*
X192100000Y-72101904D01*
X191909523Y-72101904D01*
X191833333Y-72063809D01*
X191795238Y-72025714D01*
X191757142Y-71949523D01*
X191757142Y-71873333D01*
X191795238Y-71797142D01*
X191833333Y-71759047D01*
X191909523Y-71720952D01*
X192061904Y-71682857D01*
X192138095Y-71644761D01*
X192176190Y-71606666D01*
X192214285Y-71530476D01*
X192214285Y-71454285D01*
X192176190Y-71378095D01*
X192138095Y-71340000D01*
X192061904Y-71301904D01*
X191871428Y-71301904D01*
X191757142Y-71340000D01*
X191985714Y-71187619D02*
X191985714Y-72216190D01*
X191452380Y-71873333D02*
X191071428Y-71873333D01*
X191528571Y-72101904D02*
X191261904Y-71301904D01*
X190995238Y-72101904D01*
X190576190Y-71301904D02*
X190500000Y-71301904D01*
X190423809Y-71340000D01*
X190385714Y-71378095D01*
X190347619Y-71454285D01*
X190309523Y-71606666D01*
X190309523Y-71797142D01*
X190347619Y-71949523D01*
X190385714Y-72025714D01*
X190423809Y-72063809D01*
X190500000Y-72101904D01*
X190576190Y-72101904D01*
X190652380Y-72063809D01*
X190690476Y-72025714D01*
X190728571Y-71949523D01*
X190766666Y-71797142D01*
X190766666Y-71606666D01*
X190728571Y-71454285D01*
X190690476Y-71378095D01*
X190652380Y-71340000D01*
X190576190Y-71301904D01*
X189814285Y-71301904D02*
X189738095Y-71301904D01*
X189661904Y-71340000D01*
X189623809Y-71378095D01*
X189585714Y-71454285D01*
X189547619Y-71606666D01*
X189547619Y-71797142D01*
X189585714Y-71949523D01*
X189623809Y-72025714D01*
X189661904Y-72063809D01*
X189738095Y-72101904D01*
X189814285Y-72101904D01*
X189890476Y-72063809D01*
X189928571Y-72025714D01*
X189966666Y-71949523D01*
X190004761Y-71797142D01*
X190004761Y-71606666D01*
X189966666Y-71454285D01*
X189928571Y-71378095D01*
X189890476Y-71340000D01*
X189814285Y-71301904D01*
X189052380Y-71301904D02*
X188976190Y-71301904D01*
X188900000Y-71340000D01*
X188861904Y-71378095D01*
X188823809Y-71454285D01*
X188785714Y-71606666D01*
X188785714Y-71797142D01*
X188823809Y-71949523D01*
X188861904Y-72025714D01*
X188900000Y-72063809D01*
X188976190Y-72101904D01*
X189052380Y-72101904D01*
X189128571Y-72063809D01*
X189166666Y-72025714D01*
X189204761Y-71949523D01*
X189242857Y-71797142D01*
X189242857Y-71606666D01*
X189204761Y-71454285D01*
X189166666Y-71378095D01*
X189128571Y-71340000D01*
X189052380Y-71301904D01*
X192233333Y-73363809D02*
X192119047Y-73401904D01*
X191928571Y-73401904D01*
X191852380Y-73363809D01*
X191814285Y-73325714D01*
X191776190Y-73249523D01*
X191776190Y-73173333D01*
X191814285Y-73097142D01*
X191852380Y-73059047D01*
X191928571Y-73020952D01*
X192080952Y-72982857D01*
X192157142Y-72944761D01*
X192195238Y-72906666D01*
X192233333Y-72830476D01*
X192233333Y-72754285D01*
X192195238Y-72678095D01*
X192157142Y-72640000D01*
X192080952Y-72601904D01*
X191890476Y-72601904D01*
X191776190Y-72640000D01*
X192004761Y-72487619D02*
X192004761Y-73516190D01*
X191471428Y-73173333D02*
X191090476Y-73173333D01*
X191547619Y-73401904D02*
X191280952Y-72601904D01*
X191014285Y-73401904D01*
X190290476Y-73325714D02*
X190328571Y-73363809D01*
X190442857Y-73401904D01*
X190519047Y-73401904D01*
X190633333Y-73363809D01*
X190709523Y-73287619D01*
X190747619Y-73211428D01*
X190785714Y-73059047D01*
X190785714Y-72944761D01*
X190747619Y-72792380D01*
X190709523Y-72716190D01*
X190633333Y-72640000D01*
X190519047Y-72601904D01*
X190442857Y-72601904D01*
X190328571Y-72640000D01*
X190290476Y-72678095D01*
X189795238Y-72601904D02*
X189719047Y-72601904D01*
X189642857Y-72640000D01*
X189604761Y-72678095D01*
X189566666Y-72754285D01*
X189528571Y-72906666D01*
X189528571Y-73097142D01*
X189566666Y-73249523D01*
X189604761Y-73325714D01*
X189642857Y-73363809D01*
X189719047Y-73401904D01*
X189795238Y-73401904D01*
X189871428Y-73363809D01*
X189909523Y-73325714D01*
X189947619Y-73249523D01*
X189985714Y-73097142D01*
X189985714Y-72906666D01*
X189947619Y-72754285D01*
X189909523Y-72678095D01*
X189871428Y-72640000D01*
X189795238Y-72601904D01*
X189033333Y-72601904D02*
X188957142Y-72601904D01*
X188880952Y-72640000D01*
X188842857Y-72678095D01*
X188804761Y-72754285D01*
X188766666Y-72906666D01*
X188766666Y-73097142D01*
X188804761Y-73249523D01*
X188842857Y-73325714D01*
X188880952Y-73363809D01*
X188957142Y-73401904D01*
X189033333Y-73401904D01*
X189109523Y-73363809D01*
X189147619Y-73325714D01*
X189185714Y-73249523D01*
X189223809Y-73097142D01*
X189223809Y-72906666D01*
X189185714Y-72754285D01*
X189147619Y-72678095D01*
X189109523Y-72640000D01*
X189033333Y-72601904D01*
X192252380Y-69523809D02*
X192138095Y-69561904D01*
X191947619Y-69561904D01*
X191871428Y-69523809D01*
X191833333Y-69485714D01*
X191795238Y-69409523D01*
X191795238Y-69333333D01*
X191833333Y-69257142D01*
X191871428Y-69219047D01*
X191947619Y-69180952D01*
X192100000Y-69142857D01*
X192176190Y-69104761D01*
X192214285Y-69066666D01*
X192252380Y-68990476D01*
X192252380Y-68914285D01*
X192214285Y-68838095D01*
X192176190Y-68800000D01*
X192100000Y-68761904D01*
X191909523Y-68761904D01*
X191795238Y-68800000D01*
X192023809Y-68647619D02*
X192023809Y-69676190D01*
X191338095Y-69104761D02*
X191414285Y-69066666D01*
X191452380Y-69028571D01*
X191490476Y-68952380D01*
X191490476Y-68914285D01*
X191452380Y-68838095D01*
X191414285Y-68800000D01*
X191338095Y-68761904D01*
X191185714Y-68761904D01*
X191109523Y-68800000D01*
X191071428Y-68838095D01*
X191033333Y-68914285D01*
X191033333Y-68952380D01*
X191071428Y-69028571D01*
X191109523Y-69066666D01*
X191185714Y-69104761D01*
X191338095Y-69104761D01*
X191414285Y-69142857D01*
X191452380Y-69180952D01*
X191490476Y-69257142D01*
X191490476Y-69409523D01*
X191452380Y-69485714D01*
X191414285Y-69523809D01*
X191338095Y-69561904D01*
X191185714Y-69561904D01*
X191109523Y-69523809D01*
X191071428Y-69485714D01*
X191033333Y-69409523D01*
X191033333Y-69257142D01*
X191071428Y-69180952D01*
X191109523Y-69142857D01*
X191185714Y-69104761D01*
X190538095Y-68761904D02*
X190461904Y-68761904D01*
X190385714Y-68800000D01*
X190347619Y-68838095D01*
X190309523Y-68914285D01*
X190271428Y-69066666D01*
X190271428Y-69257142D01*
X190309523Y-69409523D01*
X190347619Y-69485714D01*
X190385714Y-69523809D01*
X190461904Y-69561904D01*
X190538095Y-69561904D01*
X190614285Y-69523809D01*
X190652380Y-69485714D01*
X190690476Y-69409523D01*
X190728571Y-69257142D01*
X190728571Y-69066666D01*
X190690476Y-68914285D01*
X190652380Y-68838095D01*
X190614285Y-68800000D01*
X190538095Y-68761904D01*
X189776190Y-68761904D02*
X189700000Y-68761904D01*
X189623809Y-68800000D01*
X189585714Y-68838095D01*
X189547619Y-68914285D01*
X189509523Y-69066666D01*
X189509523Y-69257142D01*
X189547619Y-69409523D01*
X189585714Y-69485714D01*
X189623809Y-69523809D01*
X189700000Y-69561904D01*
X189776190Y-69561904D01*
X189852380Y-69523809D01*
X189890476Y-69485714D01*
X189928571Y-69409523D01*
X189966666Y-69257142D01*
X189966666Y-69066666D01*
X189928571Y-68914285D01*
X189890476Y-68838095D01*
X189852380Y-68800000D01*
X189776190Y-68761904D01*
X189014285Y-68761904D02*
X188938095Y-68761904D01*
X188861904Y-68800000D01*
X188823809Y-68838095D01*
X188785714Y-68914285D01*
X188747619Y-69066666D01*
X188747619Y-69257142D01*
X188785714Y-69409523D01*
X188823809Y-69485714D01*
X188861904Y-69523809D01*
X188938095Y-69561904D01*
X189014285Y-69561904D01*
X189090476Y-69523809D01*
X189128571Y-69485714D01*
X189166666Y-69409523D01*
X189204761Y-69257142D01*
X189204761Y-69066666D01*
X189166666Y-68914285D01*
X189128571Y-68838095D01*
X189090476Y-68800000D01*
X189014285Y-68761904D01*
X192271428Y-70823809D02*
X192157142Y-70861904D01*
X191966666Y-70861904D01*
X191890476Y-70823809D01*
X191852380Y-70785714D01*
X191814285Y-70709523D01*
X191814285Y-70633333D01*
X191852380Y-70557142D01*
X191890476Y-70519047D01*
X191966666Y-70480952D01*
X192119047Y-70442857D01*
X192195238Y-70404761D01*
X192233333Y-70366666D01*
X192271428Y-70290476D01*
X192271428Y-70214285D01*
X192233333Y-70138095D01*
X192195238Y-70100000D01*
X192119047Y-70061904D01*
X191928571Y-70061904D01*
X191814285Y-70100000D01*
X192042857Y-69947619D02*
X192042857Y-70976190D01*
X191357142Y-70404761D02*
X191433333Y-70366666D01*
X191471428Y-70328571D01*
X191509523Y-70252380D01*
X191509523Y-70214285D01*
X191471428Y-70138095D01*
X191433333Y-70100000D01*
X191357142Y-70061904D01*
X191204761Y-70061904D01*
X191128571Y-70100000D01*
X191090476Y-70138095D01*
X191052380Y-70214285D01*
X191052380Y-70252380D01*
X191090476Y-70328571D01*
X191128571Y-70366666D01*
X191204761Y-70404761D01*
X191357142Y-70404761D01*
X191433333Y-70442857D01*
X191471428Y-70480952D01*
X191509523Y-70557142D01*
X191509523Y-70709523D01*
X191471428Y-70785714D01*
X191433333Y-70823809D01*
X191357142Y-70861904D01*
X191204761Y-70861904D01*
X191128571Y-70823809D01*
X191090476Y-70785714D01*
X191052380Y-70709523D01*
X191052380Y-70557142D01*
X191090476Y-70480952D01*
X191128571Y-70442857D01*
X191204761Y-70404761D01*
X190252380Y-70785714D02*
X190290476Y-70823809D01*
X190404761Y-70861904D01*
X190480952Y-70861904D01*
X190595238Y-70823809D01*
X190671428Y-70747619D01*
X190709523Y-70671428D01*
X190747619Y-70519047D01*
X190747619Y-70404761D01*
X190709523Y-70252380D01*
X190671428Y-70176190D01*
X190595238Y-70100000D01*
X190480952Y-70061904D01*
X190404761Y-70061904D01*
X190290476Y-70100000D01*
X190252380Y-70138095D01*
X189757142Y-70061904D02*
X189680952Y-70061904D01*
X189604761Y-70100000D01*
X189566666Y-70138095D01*
X189528571Y-70214285D01*
X189490476Y-70366666D01*
X189490476Y-70557142D01*
X189528571Y-70709523D01*
X189566666Y-70785714D01*
X189604761Y-70823809D01*
X189680952Y-70861904D01*
X189757142Y-70861904D01*
X189833333Y-70823809D01*
X189871428Y-70785714D01*
X189909523Y-70709523D01*
X189947619Y-70557142D01*
X189947619Y-70366666D01*
X189909523Y-70214285D01*
X189871428Y-70138095D01*
X189833333Y-70100000D01*
X189757142Y-70061904D01*
X188995238Y-70061904D02*
X188919047Y-70061904D01*
X188842857Y-70100000D01*
X188804761Y-70138095D01*
X188766666Y-70214285D01*
X188728571Y-70366666D01*
X188728571Y-70557142D01*
X188766666Y-70709523D01*
X188804761Y-70785714D01*
X188842857Y-70823809D01*
X188919047Y-70861904D01*
X188995238Y-70861904D01*
X189071428Y-70823809D01*
X189109523Y-70785714D01*
X189147619Y-70709523D01*
X189185714Y-70557142D01*
X189185714Y-70366666D01*
X189147619Y-70214285D01*
X189109523Y-70138095D01*
X189071428Y-70100000D01*
X188995238Y-70061904D01*
X192252380Y-66983809D02*
X192138095Y-67021904D01*
X191947619Y-67021904D01*
X191871428Y-66983809D01*
X191833333Y-66945714D01*
X191795238Y-66869523D01*
X191795238Y-66793333D01*
X191833333Y-66717142D01*
X191871428Y-66679047D01*
X191947619Y-66640952D01*
X192100000Y-66602857D01*
X192176190Y-66564761D01*
X192214285Y-66526666D01*
X192252380Y-66450476D01*
X192252380Y-66374285D01*
X192214285Y-66298095D01*
X192176190Y-66260000D01*
X192100000Y-66221904D01*
X191909523Y-66221904D01*
X191795238Y-66260000D01*
X192023809Y-66107619D02*
X192023809Y-67136190D01*
X191109523Y-66221904D02*
X191261904Y-66221904D01*
X191338095Y-66260000D01*
X191376190Y-66298095D01*
X191452380Y-66412380D01*
X191490476Y-66564761D01*
X191490476Y-66869523D01*
X191452380Y-66945714D01*
X191414285Y-66983809D01*
X191338095Y-67021904D01*
X191185714Y-67021904D01*
X191109523Y-66983809D01*
X191071428Y-66945714D01*
X191033333Y-66869523D01*
X191033333Y-66679047D01*
X191071428Y-66602857D01*
X191109523Y-66564761D01*
X191185714Y-66526666D01*
X191338095Y-66526666D01*
X191414285Y-66564761D01*
X191452380Y-66602857D01*
X191490476Y-66679047D01*
X190538095Y-66221904D02*
X190461904Y-66221904D01*
X190385714Y-66260000D01*
X190347619Y-66298095D01*
X190309523Y-66374285D01*
X190271428Y-66526666D01*
X190271428Y-66717142D01*
X190309523Y-66869523D01*
X190347619Y-66945714D01*
X190385714Y-66983809D01*
X190461904Y-67021904D01*
X190538095Y-67021904D01*
X190614285Y-66983809D01*
X190652380Y-66945714D01*
X190690476Y-66869523D01*
X190728571Y-66717142D01*
X190728571Y-66526666D01*
X190690476Y-66374285D01*
X190652380Y-66298095D01*
X190614285Y-66260000D01*
X190538095Y-66221904D01*
X189776190Y-66221904D02*
X189700000Y-66221904D01*
X189623809Y-66260000D01*
X189585714Y-66298095D01*
X189547619Y-66374285D01*
X189509523Y-66526666D01*
X189509523Y-66717142D01*
X189547619Y-66869523D01*
X189585714Y-66945714D01*
X189623809Y-66983809D01*
X189700000Y-67021904D01*
X189776190Y-67021904D01*
X189852380Y-66983809D01*
X189890476Y-66945714D01*
X189928571Y-66869523D01*
X189966666Y-66717142D01*
X189966666Y-66526666D01*
X189928571Y-66374285D01*
X189890476Y-66298095D01*
X189852380Y-66260000D01*
X189776190Y-66221904D01*
X189014285Y-66221904D02*
X188938095Y-66221904D01*
X188861904Y-66260000D01*
X188823809Y-66298095D01*
X188785714Y-66374285D01*
X188747619Y-66526666D01*
X188747619Y-66717142D01*
X188785714Y-66869523D01*
X188823809Y-66945714D01*
X188861904Y-66983809D01*
X188938095Y-67021904D01*
X189014285Y-67021904D01*
X189090476Y-66983809D01*
X189128571Y-66945714D01*
X189166666Y-66869523D01*
X189204761Y-66717142D01*
X189204761Y-66526666D01*
X189166666Y-66374285D01*
X189128571Y-66298095D01*
X189090476Y-66260000D01*
X189014285Y-66221904D01*
X192271428Y-68283809D02*
X192157142Y-68321904D01*
X191966666Y-68321904D01*
X191890476Y-68283809D01*
X191852380Y-68245714D01*
X191814285Y-68169523D01*
X191814285Y-68093333D01*
X191852380Y-68017142D01*
X191890476Y-67979047D01*
X191966666Y-67940952D01*
X192119047Y-67902857D01*
X192195238Y-67864761D01*
X192233333Y-67826666D01*
X192271428Y-67750476D01*
X192271428Y-67674285D01*
X192233333Y-67598095D01*
X192195238Y-67560000D01*
X192119047Y-67521904D01*
X191928571Y-67521904D01*
X191814285Y-67560000D01*
X192042857Y-67407619D02*
X192042857Y-68436190D01*
X191128571Y-67521904D02*
X191280952Y-67521904D01*
X191357142Y-67560000D01*
X191395238Y-67598095D01*
X191471428Y-67712380D01*
X191509523Y-67864761D01*
X191509523Y-68169523D01*
X191471428Y-68245714D01*
X191433333Y-68283809D01*
X191357142Y-68321904D01*
X191204761Y-68321904D01*
X191128571Y-68283809D01*
X191090476Y-68245714D01*
X191052380Y-68169523D01*
X191052380Y-67979047D01*
X191090476Y-67902857D01*
X191128571Y-67864761D01*
X191204761Y-67826666D01*
X191357142Y-67826666D01*
X191433333Y-67864761D01*
X191471428Y-67902857D01*
X191509523Y-67979047D01*
X190252380Y-68245714D02*
X190290476Y-68283809D01*
X190404761Y-68321904D01*
X190480952Y-68321904D01*
X190595238Y-68283809D01*
X190671428Y-68207619D01*
X190709523Y-68131428D01*
X190747619Y-67979047D01*
X190747619Y-67864761D01*
X190709523Y-67712380D01*
X190671428Y-67636190D01*
X190595238Y-67560000D01*
X190480952Y-67521904D01*
X190404761Y-67521904D01*
X190290476Y-67560000D01*
X190252380Y-67598095D01*
X189757142Y-67521904D02*
X189680952Y-67521904D01*
X189604761Y-67560000D01*
X189566666Y-67598095D01*
X189528571Y-67674285D01*
X189490476Y-67826666D01*
X189490476Y-68017142D01*
X189528571Y-68169523D01*
X189566666Y-68245714D01*
X189604761Y-68283809D01*
X189680952Y-68321904D01*
X189757142Y-68321904D01*
X189833333Y-68283809D01*
X189871428Y-68245714D01*
X189909523Y-68169523D01*
X189947619Y-68017142D01*
X189947619Y-67826666D01*
X189909523Y-67674285D01*
X189871428Y-67598095D01*
X189833333Y-67560000D01*
X189757142Y-67521904D01*
X188995238Y-67521904D02*
X188919047Y-67521904D01*
X188842857Y-67560000D01*
X188804761Y-67598095D01*
X188766666Y-67674285D01*
X188728571Y-67826666D01*
X188728571Y-68017142D01*
X188766666Y-68169523D01*
X188804761Y-68245714D01*
X188842857Y-68283809D01*
X188919047Y-68321904D01*
X188995238Y-68321904D01*
X189071428Y-68283809D01*
X189109523Y-68245714D01*
X189147619Y-68169523D01*
X189185714Y-68017142D01*
X189185714Y-67826666D01*
X189147619Y-67674285D01*
X189109523Y-67598095D01*
X189071428Y-67560000D01*
X188995238Y-67521904D01*
X192252380Y-64443809D02*
X192138095Y-64481904D01*
X191947619Y-64481904D01*
X191871428Y-64443809D01*
X191833333Y-64405714D01*
X191795238Y-64329523D01*
X191795238Y-64253333D01*
X191833333Y-64177142D01*
X191871428Y-64139047D01*
X191947619Y-64100952D01*
X192100000Y-64062857D01*
X192176190Y-64024761D01*
X192214285Y-63986666D01*
X192252380Y-63910476D01*
X192252380Y-63834285D01*
X192214285Y-63758095D01*
X192176190Y-63720000D01*
X192100000Y-63681904D01*
X191909523Y-63681904D01*
X191795238Y-63720000D01*
X192023809Y-63567619D02*
X192023809Y-64596190D01*
X191109523Y-63948571D02*
X191109523Y-64481904D01*
X191300000Y-63643809D02*
X191490476Y-64215238D01*
X190995238Y-64215238D01*
X190538095Y-63681904D02*
X190461904Y-63681904D01*
X190385714Y-63720000D01*
X190347619Y-63758095D01*
X190309523Y-63834285D01*
X190271428Y-63986666D01*
X190271428Y-64177142D01*
X190309523Y-64329523D01*
X190347619Y-64405714D01*
X190385714Y-64443809D01*
X190461904Y-64481904D01*
X190538095Y-64481904D01*
X190614285Y-64443809D01*
X190652380Y-64405714D01*
X190690476Y-64329523D01*
X190728571Y-64177142D01*
X190728571Y-63986666D01*
X190690476Y-63834285D01*
X190652380Y-63758095D01*
X190614285Y-63720000D01*
X190538095Y-63681904D01*
X189776190Y-63681904D02*
X189700000Y-63681904D01*
X189623809Y-63720000D01*
X189585714Y-63758095D01*
X189547619Y-63834285D01*
X189509523Y-63986666D01*
X189509523Y-64177142D01*
X189547619Y-64329523D01*
X189585714Y-64405714D01*
X189623809Y-64443809D01*
X189700000Y-64481904D01*
X189776190Y-64481904D01*
X189852380Y-64443809D01*
X189890476Y-64405714D01*
X189928571Y-64329523D01*
X189966666Y-64177142D01*
X189966666Y-63986666D01*
X189928571Y-63834285D01*
X189890476Y-63758095D01*
X189852380Y-63720000D01*
X189776190Y-63681904D01*
X189014285Y-63681904D02*
X188938095Y-63681904D01*
X188861904Y-63720000D01*
X188823809Y-63758095D01*
X188785714Y-63834285D01*
X188747619Y-63986666D01*
X188747619Y-64177142D01*
X188785714Y-64329523D01*
X188823809Y-64405714D01*
X188861904Y-64443809D01*
X188938095Y-64481904D01*
X189014285Y-64481904D01*
X189090476Y-64443809D01*
X189128571Y-64405714D01*
X189166666Y-64329523D01*
X189204761Y-64177142D01*
X189204761Y-63986666D01*
X189166666Y-63834285D01*
X189128571Y-63758095D01*
X189090476Y-63720000D01*
X189014285Y-63681904D01*
X192271428Y-65743809D02*
X192157142Y-65781904D01*
X191966666Y-65781904D01*
X191890476Y-65743809D01*
X191852380Y-65705714D01*
X191814285Y-65629523D01*
X191814285Y-65553333D01*
X191852380Y-65477142D01*
X191890476Y-65439047D01*
X191966666Y-65400952D01*
X192119047Y-65362857D01*
X192195238Y-65324761D01*
X192233333Y-65286666D01*
X192271428Y-65210476D01*
X192271428Y-65134285D01*
X192233333Y-65058095D01*
X192195238Y-65020000D01*
X192119047Y-64981904D01*
X191928571Y-64981904D01*
X191814285Y-65020000D01*
X192042857Y-64867619D02*
X192042857Y-65896190D01*
X191128571Y-65248571D02*
X191128571Y-65781904D01*
X191319047Y-64943809D02*
X191509523Y-65515238D01*
X191014285Y-65515238D01*
X190252380Y-65705714D02*
X190290476Y-65743809D01*
X190404761Y-65781904D01*
X190480952Y-65781904D01*
X190595238Y-65743809D01*
X190671428Y-65667619D01*
X190709523Y-65591428D01*
X190747619Y-65439047D01*
X190747619Y-65324761D01*
X190709523Y-65172380D01*
X190671428Y-65096190D01*
X190595238Y-65020000D01*
X190480952Y-64981904D01*
X190404761Y-64981904D01*
X190290476Y-65020000D01*
X190252380Y-65058095D01*
X189757142Y-64981904D02*
X189680952Y-64981904D01*
X189604761Y-65020000D01*
X189566666Y-65058095D01*
X189528571Y-65134285D01*
X189490476Y-65286666D01*
X189490476Y-65477142D01*
X189528571Y-65629523D01*
X189566666Y-65705714D01*
X189604761Y-65743809D01*
X189680952Y-65781904D01*
X189757142Y-65781904D01*
X189833333Y-65743809D01*
X189871428Y-65705714D01*
X189909523Y-65629523D01*
X189947619Y-65477142D01*
X189947619Y-65286666D01*
X189909523Y-65134285D01*
X189871428Y-65058095D01*
X189833333Y-65020000D01*
X189757142Y-64981904D01*
X188995238Y-64981904D02*
X188919047Y-64981904D01*
X188842857Y-65020000D01*
X188804761Y-65058095D01*
X188766666Y-65134285D01*
X188728571Y-65286666D01*
X188728571Y-65477142D01*
X188766666Y-65629523D01*
X188804761Y-65705714D01*
X188842857Y-65743809D01*
X188919047Y-65781904D01*
X188995238Y-65781904D01*
X189071428Y-65743809D01*
X189109523Y-65705714D01*
X189147619Y-65629523D01*
X189185714Y-65477142D01*
X189185714Y-65286666D01*
X189147619Y-65134285D01*
X189109523Y-65058095D01*
X189071428Y-65020000D01*
X188995238Y-64981904D01*
X192252380Y-61903809D02*
X192138095Y-61941904D01*
X191947619Y-61941904D01*
X191871428Y-61903809D01*
X191833333Y-61865714D01*
X191795238Y-61789523D01*
X191795238Y-61713333D01*
X191833333Y-61637142D01*
X191871428Y-61599047D01*
X191947619Y-61560952D01*
X192100000Y-61522857D01*
X192176190Y-61484761D01*
X192214285Y-61446666D01*
X192252380Y-61370476D01*
X192252380Y-61294285D01*
X192214285Y-61218095D01*
X192176190Y-61180000D01*
X192100000Y-61141904D01*
X191909523Y-61141904D01*
X191795238Y-61180000D01*
X192023809Y-61027619D02*
X192023809Y-62056190D01*
X191490476Y-61218095D02*
X191452380Y-61180000D01*
X191376190Y-61141904D01*
X191185714Y-61141904D01*
X191109523Y-61180000D01*
X191071428Y-61218095D01*
X191033333Y-61294285D01*
X191033333Y-61370476D01*
X191071428Y-61484761D01*
X191528571Y-61941904D01*
X191033333Y-61941904D01*
X190538095Y-61141904D02*
X190461904Y-61141904D01*
X190385714Y-61180000D01*
X190347619Y-61218095D01*
X190309523Y-61294285D01*
X190271428Y-61446666D01*
X190271428Y-61637142D01*
X190309523Y-61789523D01*
X190347619Y-61865714D01*
X190385714Y-61903809D01*
X190461904Y-61941904D01*
X190538095Y-61941904D01*
X190614285Y-61903809D01*
X190652380Y-61865714D01*
X190690476Y-61789523D01*
X190728571Y-61637142D01*
X190728571Y-61446666D01*
X190690476Y-61294285D01*
X190652380Y-61218095D01*
X190614285Y-61180000D01*
X190538095Y-61141904D01*
X189776190Y-61141904D02*
X189700000Y-61141904D01*
X189623809Y-61180000D01*
X189585714Y-61218095D01*
X189547619Y-61294285D01*
X189509523Y-61446666D01*
X189509523Y-61637142D01*
X189547619Y-61789523D01*
X189585714Y-61865714D01*
X189623809Y-61903809D01*
X189700000Y-61941904D01*
X189776190Y-61941904D01*
X189852380Y-61903809D01*
X189890476Y-61865714D01*
X189928571Y-61789523D01*
X189966666Y-61637142D01*
X189966666Y-61446666D01*
X189928571Y-61294285D01*
X189890476Y-61218095D01*
X189852380Y-61180000D01*
X189776190Y-61141904D01*
X189014285Y-61141904D02*
X188938095Y-61141904D01*
X188861904Y-61180000D01*
X188823809Y-61218095D01*
X188785714Y-61294285D01*
X188747619Y-61446666D01*
X188747619Y-61637142D01*
X188785714Y-61789523D01*
X188823809Y-61865714D01*
X188861904Y-61903809D01*
X188938095Y-61941904D01*
X189014285Y-61941904D01*
X189090476Y-61903809D01*
X189128571Y-61865714D01*
X189166666Y-61789523D01*
X189204761Y-61637142D01*
X189204761Y-61446666D01*
X189166666Y-61294285D01*
X189128571Y-61218095D01*
X189090476Y-61180000D01*
X189014285Y-61141904D01*
X192271428Y-63203809D02*
X192157142Y-63241904D01*
X191966666Y-63241904D01*
X191890476Y-63203809D01*
X191852380Y-63165714D01*
X191814285Y-63089523D01*
X191814285Y-63013333D01*
X191852380Y-62937142D01*
X191890476Y-62899047D01*
X191966666Y-62860952D01*
X192119047Y-62822857D01*
X192195238Y-62784761D01*
X192233333Y-62746666D01*
X192271428Y-62670476D01*
X192271428Y-62594285D01*
X192233333Y-62518095D01*
X192195238Y-62480000D01*
X192119047Y-62441904D01*
X191928571Y-62441904D01*
X191814285Y-62480000D01*
X192042857Y-62327619D02*
X192042857Y-63356190D01*
X191509523Y-62518095D02*
X191471428Y-62480000D01*
X191395238Y-62441904D01*
X191204761Y-62441904D01*
X191128571Y-62480000D01*
X191090476Y-62518095D01*
X191052380Y-62594285D01*
X191052380Y-62670476D01*
X191090476Y-62784761D01*
X191547619Y-63241904D01*
X191052380Y-63241904D01*
X190252380Y-63165714D02*
X190290476Y-63203809D01*
X190404761Y-63241904D01*
X190480952Y-63241904D01*
X190595238Y-63203809D01*
X190671428Y-63127619D01*
X190709523Y-63051428D01*
X190747619Y-62899047D01*
X190747619Y-62784761D01*
X190709523Y-62632380D01*
X190671428Y-62556190D01*
X190595238Y-62480000D01*
X190480952Y-62441904D01*
X190404761Y-62441904D01*
X190290476Y-62480000D01*
X190252380Y-62518095D01*
X189757142Y-62441904D02*
X189680952Y-62441904D01*
X189604761Y-62480000D01*
X189566666Y-62518095D01*
X189528571Y-62594285D01*
X189490476Y-62746666D01*
X189490476Y-62937142D01*
X189528571Y-63089523D01*
X189566666Y-63165714D01*
X189604761Y-63203809D01*
X189680952Y-63241904D01*
X189757142Y-63241904D01*
X189833333Y-63203809D01*
X189871428Y-63165714D01*
X189909523Y-63089523D01*
X189947619Y-62937142D01*
X189947619Y-62746666D01*
X189909523Y-62594285D01*
X189871428Y-62518095D01*
X189833333Y-62480000D01*
X189757142Y-62441904D01*
X188995238Y-62441904D02*
X188919047Y-62441904D01*
X188842857Y-62480000D01*
X188804761Y-62518095D01*
X188766666Y-62594285D01*
X188728571Y-62746666D01*
X188728571Y-62937142D01*
X188766666Y-63089523D01*
X188804761Y-63165714D01*
X188842857Y-63203809D01*
X188919047Y-63241904D01*
X188995238Y-63241904D01*
X189071428Y-63203809D01*
X189109523Y-63165714D01*
X189147619Y-63089523D01*
X189185714Y-62937142D01*
X189185714Y-62746666D01*
X189147619Y-62594285D01*
X189109523Y-62518095D01*
X189071428Y-62480000D01*
X188995238Y-62441904D01*
X144105476Y-54321904D02*
X144562619Y-54321904D01*
X144334047Y-54321904D02*
X144334047Y-53521904D01*
X144410238Y-53636190D01*
X144486428Y-53712380D01*
X144562619Y-53750476D01*
X143762619Y-54017142D02*
X143153095Y-54017142D01*
X142810238Y-53598095D02*
X142772142Y-53560000D01*
X142695952Y-53521904D01*
X142505476Y-53521904D01*
X142429285Y-53560000D01*
X142391190Y-53598095D01*
X142353095Y-53674285D01*
X142353095Y-53750476D01*
X142391190Y-53864761D01*
X142848333Y-54321904D01*
X142353095Y-54321904D01*
X141057857Y-53521904D02*
X141210238Y-53521904D01*
X141286428Y-53560000D01*
X141324523Y-53598095D01*
X141400714Y-53712380D01*
X141438809Y-53864761D01*
X141438809Y-54169523D01*
X141400714Y-54245714D01*
X141362619Y-54283809D01*
X141286428Y-54321904D01*
X141134047Y-54321904D01*
X141057857Y-54283809D01*
X141019761Y-54245714D01*
X140981666Y-54169523D01*
X140981666Y-53979047D01*
X141019761Y-53902857D01*
X141057857Y-53864761D01*
X141134047Y-53826666D01*
X141286428Y-53826666D01*
X141362619Y-53864761D01*
X141400714Y-53902857D01*
X141438809Y-53979047D01*
X140257857Y-53521904D02*
X140638809Y-53521904D01*
X140676904Y-53902857D01*
X140638809Y-53864761D01*
X140562619Y-53826666D01*
X140372142Y-53826666D01*
X140295952Y-53864761D01*
X140257857Y-53902857D01*
X140219761Y-53979047D01*
X140219761Y-54169523D01*
X140257857Y-54245714D01*
X140295952Y-54283809D01*
X140372142Y-54321904D01*
X140562619Y-54321904D01*
X140638809Y-54283809D01*
X140676904Y-54245714D01*
X139724523Y-53521904D02*
X139648333Y-53521904D01*
X139572142Y-53560000D01*
X139534047Y-53598095D01*
X139495952Y-53674285D01*
X139457857Y-53826666D01*
X139457857Y-54017142D01*
X139495952Y-54169523D01*
X139534047Y-54245714D01*
X139572142Y-54283809D01*
X139648333Y-54321904D01*
X139724523Y-54321904D01*
X139800714Y-54283809D01*
X139838809Y-54245714D01*
X139876904Y-54169523D01*
X139915000Y-54017142D01*
X139915000Y-53826666D01*
X139876904Y-53674285D01*
X139838809Y-53598095D01*
X139800714Y-53560000D01*
X139724523Y-53521904D01*
X139153095Y-53598095D02*
X139115000Y-53560000D01*
X139038809Y-53521904D01*
X138848333Y-53521904D01*
X138772142Y-53560000D01*
X138734047Y-53598095D01*
X138695952Y-53674285D01*
X138695952Y-53750476D01*
X138734047Y-53864761D01*
X139191190Y-54321904D01*
X138695952Y-54321904D01*
X144562619Y-54898095D02*
X144524523Y-54860000D01*
X144448333Y-54821904D01*
X144257857Y-54821904D01*
X144181666Y-54860000D01*
X144143571Y-54898095D01*
X144105476Y-54974285D01*
X144105476Y-55050476D01*
X144143571Y-55164761D01*
X144600714Y-55621904D01*
X144105476Y-55621904D01*
X143762619Y-55317142D02*
X143153095Y-55317142D01*
X142848333Y-54821904D02*
X142353095Y-54821904D01*
X142619761Y-55126666D01*
X142505476Y-55126666D01*
X142429285Y-55164761D01*
X142391190Y-55202857D01*
X142353095Y-55279047D01*
X142353095Y-55469523D01*
X142391190Y-55545714D01*
X142429285Y-55583809D01*
X142505476Y-55621904D01*
X142734047Y-55621904D01*
X142810238Y-55583809D01*
X142848333Y-55545714D01*
X141057857Y-54821904D02*
X141210238Y-54821904D01*
X141286428Y-54860000D01*
X141324523Y-54898095D01*
X141400714Y-55012380D01*
X141438809Y-55164761D01*
X141438809Y-55469523D01*
X141400714Y-55545714D01*
X141362619Y-55583809D01*
X141286428Y-55621904D01*
X141134047Y-55621904D01*
X141057857Y-55583809D01*
X141019761Y-55545714D01*
X140981666Y-55469523D01*
X140981666Y-55279047D01*
X141019761Y-55202857D01*
X141057857Y-55164761D01*
X141134047Y-55126666D01*
X141286428Y-55126666D01*
X141362619Y-55164761D01*
X141400714Y-55202857D01*
X141438809Y-55279047D01*
X140524523Y-55164761D02*
X140600714Y-55126666D01*
X140638809Y-55088571D01*
X140676904Y-55012380D01*
X140676904Y-54974285D01*
X140638809Y-54898095D01*
X140600714Y-54860000D01*
X140524523Y-54821904D01*
X140372142Y-54821904D01*
X140295952Y-54860000D01*
X140257857Y-54898095D01*
X140219761Y-54974285D01*
X140219761Y-55012380D01*
X140257857Y-55088571D01*
X140295952Y-55126666D01*
X140372142Y-55164761D01*
X140524523Y-55164761D01*
X140600714Y-55202857D01*
X140638809Y-55240952D01*
X140676904Y-55317142D01*
X140676904Y-55469523D01*
X140638809Y-55545714D01*
X140600714Y-55583809D01*
X140524523Y-55621904D01*
X140372142Y-55621904D01*
X140295952Y-55583809D01*
X140257857Y-55545714D01*
X140219761Y-55469523D01*
X140219761Y-55317142D01*
X140257857Y-55240952D01*
X140295952Y-55202857D01*
X140372142Y-55164761D01*
X139724523Y-54821904D02*
X139648333Y-54821904D01*
X139572142Y-54860000D01*
X139534047Y-54898095D01*
X139495952Y-54974285D01*
X139457857Y-55126666D01*
X139457857Y-55317142D01*
X139495952Y-55469523D01*
X139534047Y-55545714D01*
X139572142Y-55583809D01*
X139648333Y-55621904D01*
X139724523Y-55621904D01*
X139800714Y-55583809D01*
X139838809Y-55545714D01*
X139876904Y-55469523D01*
X139915000Y-55317142D01*
X139915000Y-55126666D01*
X139876904Y-54974285D01*
X139838809Y-54898095D01*
X139800714Y-54860000D01*
X139724523Y-54821904D01*
X138962619Y-54821904D02*
X138886428Y-54821904D01*
X138810238Y-54860000D01*
X138772142Y-54898095D01*
X138734047Y-54974285D01*
X138695952Y-55126666D01*
X138695952Y-55317142D01*
X138734047Y-55469523D01*
X138772142Y-55545714D01*
X138810238Y-55583809D01*
X138886428Y-55621904D01*
X138962619Y-55621904D01*
X139038809Y-55583809D01*
X139076904Y-55545714D01*
X139115000Y-55469523D01*
X139153095Y-55317142D01*
X139153095Y-55126666D01*
X139115000Y-54974285D01*
X139076904Y-54898095D01*
X139038809Y-54860000D01*
X138962619Y-54821904D01*
D11*
X145415000Y-52705000D02*
X149225000Y-52705000D01*
X145415000Y-56515000D02*
X145415000Y-52705000D01*
X154305000Y-56515000D02*
X145415000Y-56515000D01*
X154305000Y-52705000D02*
X154305000Y-56515000D01*
X153035000Y-52705000D02*
X154305000Y-52705000D01*
X152400000Y-52705000D02*
X152400000Y-53975000D01*
X149860000Y-52705000D02*
X152400000Y-52705000D01*
X149860000Y-53975000D02*
X149860000Y-52705000D01*
D10*
X162038809Y-65218571D02*
X162038809Y-65751904D01*
X162229285Y-64913809D02*
X162419761Y-65485238D01*
X161924523Y-65485238D01*
X161619761Y-65447142D02*
X161010238Y-65447142D01*
X160743571Y-64951904D02*
X160286428Y-64951904D01*
X160515000Y-65751904D02*
X160515000Y-64951904D01*
X159867380Y-64951904D02*
X159715000Y-64951904D01*
X159638809Y-64990000D01*
X159562619Y-65066190D01*
X159524523Y-65218571D01*
X159524523Y-65485238D01*
X159562619Y-65637619D01*
X159638809Y-65713809D01*
X159715000Y-65751904D01*
X159867380Y-65751904D01*
X159943571Y-65713809D01*
X160019761Y-65637619D01*
X160057857Y-65485238D01*
X160057857Y-65218571D01*
X160019761Y-65066190D01*
X159943571Y-64990000D01*
X159867380Y-64951904D01*
X159181666Y-65447142D02*
X158572142Y-65447142D01*
X157772142Y-65751904D02*
X158229285Y-65751904D01*
X158000714Y-65751904D02*
X158000714Y-64951904D01*
X158076904Y-65066190D01*
X158153095Y-65142380D01*
X158229285Y-65180476D01*
X157086428Y-64951904D02*
X157238809Y-64951904D01*
X157315000Y-64990000D01*
X157353095Y-65028095D01*
X157429285Y-65142380D01*
X157467380Y-65294761D01*
X157467380Y-65599523D01*
X157429285Y-65675714D01*
X157391190Y-65713809D01*
X157315000Y-65751904D01*
X157162619Y-65751904D01*
X157086428Y-65713809D01*
X157048333Y-65675714D01*
X157010238Y-65599523D01*
X157010238Y-65409047D01*
X157048333Y-65332857D01*
X157086428Y-65294761D01*
X157162619Y-65256666D01*
X157315000Y-65256666D01*
X157391190Y-65294761D01*
X157429285Y-65332857D01*
X157467380Y-65409047D01*
X155676904Y-65751904D02*
X156057857Y-65751904D01*
X156057857Y-64951904D01*
X155410238Y-65751904D02*
X155410238Y-64951904D01*
X155029285Y-65751904D02*
X155029285Y-64951904D01*
X154572142Y-65751904D01*
X154572142Y-64951904D01*
X154191190Y-65332857D02*
X153924523Y-65332857D01*
X153810238Y-65751904D02*
X154191190Y-65751904D01*
X154191190Y-64951904D01*
X153810238Y-64951904D01*
X165772142Y-67051904D02*
X165772142Y-66251904D01*
X165581666Y-66251904D01*
X165467380Y-66290000D01*
X165391190Y-66366190D01*
X165353095Y-66442380D01*
X165315000Y-66594761D01*
X165315000Y-66709047D01*
X165353095Y-66861428D01*
X165391190Y-66937619D01*
X165467380Y-67013809D01*
X165581666Y-67051904D01*
X165772142Y-67051904D01*
X164972142Y-66632857D02*
X164705476Y-66632857D01*
X164591190Y-67051904D02*
X164972142Y-67051904D01*
X164972142Y-66251904D01*
X164591190Y-66251904D01*
X163791190Y-66975714D02*
X163829285Y-67013809D01*
X163943571Y-67051904D01*
X164019761Y-67051904D01*
X164134047Y-67013809D01*
X164210238Y-66937619D01*
X164248333Y-66861428D01*
X164286428Y-66709047D01*
X164286428Y-66594761D01*
X164248333Y-66442380D01*
X164210238Y-66366190D01*
X164134047Y-66290000D01*
X164019761Y-66251904D01*
X163943571Y-66251904D01*
X163829285Y-66290000D01*
X163791190Y-66328095D01*
X163295952Y-66251904D02*
X163143571Y-66251904D01*
X163067380Y-66290000D01*
X162991190Y-66366190D01*
X162953095Y-66518571D01*
X162953095Y-66785238D01*
X162991190Y-66937619D01*
X163067380Y-67013809D01*
X163143571Y-67051904D01*
X163295952Y-67051904D01*
X163372142Y-67013809D01*
X163448333Y-66937619D01*
X163486428Y-66785238D01*
X163486428Y-66518571D01*
X163448333Y-66366190D01*
X163372142Y-66290000D01*
X163295952Y-66251904D01*
X162610238Y-67051904D02*
X162610238Y-66251904D01*
X162419761Y-66251904D01*
X162305476Y-66290000D01*
X162229285Y-66366190D01*
X162191190Y-66442380D01*
X162153095Y-66594761D01*
X162153095Y-66709047D01*
X162191190Y-66861428D01*
X162229285Y-66937619D01*
X162305476Y-67013809D01*
X162419761Y-67051904D01*
X162610238Y-67051904D01*
X161810238Y-66632857D02*
X161543571Y-66632857D01*
X161429285Y-67051904D02*
X161810238Y-67051904D01*
X161810238Y-66251904D01*
X161429285Y-66251904D01*
X160629285Y-67051904D02*
X160895952Y-66670952D01*
X161086428Y-67051904D02*
X161086428Y-66251904D01*
X160781666Y-66251904D01*
X160705476Y-66290000D01*
X160667380Y-66328095D01*
X160629285Y-66404285D01*
X160629285Y-66518571D01*
X160667380Y-66594761D01*
X160705476Y-66632857D01*
X160781666Y-66670952D01*
X161086428Y-66670952D01*
X159715000Y-66213809D02*
X160400714Y-67242380D01*
X159448333Y-67051904D02*
X159448333Y-66251904D01*
X159257857Y-66251904D01*
X159143571Y-66290000D01*
X159067380Y-66366190D01*
X159029285Y-66442380D01*
X158991190Y-66594761D01*
X158991190Y-66709047D01*
X159029285Y-66861428D01*
X159067380Y-66937619D01*
X159143571Y-67013809D01*
X159257857Y-67051904D01*
X159448333Y-67051904D01*
X158648333Y-66632857D02*
X158381666Y-66632857D01*
X158267380Y-67051904D02*
X158648333Y-67051904D01*
X158648333Y-66251904D01*
X158267380Y-66251904D01*
X157924523Y-67051904D02*
X157924523Y-66251904D01*
X157657857Y-66823333D01*
X157391190Y-66251904D01*
X157391190Y-67051904D01*
X157010238Y-66251904D02*
X157010238Y-66899523D01*
X156972142Y-66975714D01*
X156934047Y-67013809D01*
X156857857Y-67051904D01*
X156705476Y-67051904D01*
X156629285Y-67013809D01*
X156591190Y-66975714D01*
X156553095Y-66899523D01*
X156553095Y-66251904D01*
X155791190Y-67051904D02*
X156172142Y-67051904D01*
X156172142Y-66251904D01*
X155638809Y-66251904D02*
X155181666Y-66251904D01*
X155410238Y-67051904D02*
X155410238Y-66251904D01*
X154915000Y-67051904D02*
X154915000Y-66251904D01*
X154534047Y-67051904D02*
X154534047Y-66251904D01*
X154229285Y-66251904D01*
X154153095Y-66290000D01*
X154115000Y-66328095D01*
X154076904Y-66404285D01*
X154076904Y-66518571D01*
X154115000Y-66594761D01*
X154153095Y-66632857D01*
X154229285Y-66670952D01*
X154534047Y-66670952D01*
X153353095Y-67051904D02*
X153734047Y-67051904D01*
X153734047Y-66251904D01*
X153086428Y-66632857D02*
X152819761Y-66632857D01*
X152705476Y-67051904D02*
X153086428Y-67051904D01*
X153086428Y-66251904D01*
X152705476Y-66251904D01*
X152438809Y-66251904D02*
X151905476Y-67051904D01*
X151905476Y-66251904D02*
X152438809Y-67051904D01*
X151600714Y-66632857D02*
X151334047Y-66632857D01*
X151219761Y-67051904D02*
X151600714Y-67051904D01*
X151600714Y-66251904D01*
X151219761Y-66251904D01*
X150419761Y-67051904D02*
X150686428Y-66670952D01*
X150876904Y-67051904D02*
X150876904Y-66251904D01*
X150572142Y-66251904D01*
X150495952Y-66290000D01*
X150457857Y-66328095D01*
X150419761Y-66404285D01*
X150419761Y-66518571D01*
X150457857Y-66594761D01*
X150495952Y-66632857D01*
X150572142Y-66670952D01*
X150876904Y-66670952D01*
X112058095Y-126061904D02*
X112058095Y-125261904D01*
X111677142Y-126061904D02*
X111677142Y-125261904D01*
X111220000Y-126061904D01*
X111220000Y-125261904D01*
X110953333Y-125261904D02*
X110686666Y-126061904D01*
X110420000Y-125261904D01*
X110153333Y-125642857D02*
X109886666Y-125642857D01*
X109772380Y-126061904D02*
X110153333Y-126061904D01*
X110153333Y-125261904D01*
X109772380Y-125261904D01*
X108972380Y-126061904D02*
X109239047Y-125680952D01*
X109429523Y-126061904D02*
X109429523Y-125261904D01*
X109124761Y-125261904D01*
X109048571Y-125300000D01*
X109010476Y-125338095D01*
X108972380Y-125414285D01*
X108972380Y-125528571D01*
X109010476Y-125604761D01*
X109048571Y-125642857D01*
X109124761Y-125680952D01*
X109429523Y-125680952D01*
X108743809Y-125261904D02*
X108286666Y-125261904D01*
X108515238Y-126061904D02*
X108515238Y-125261904D01*
X108020000Y-126061904D02*
X108020000Y-125261904D01*
X107639047Y-126061904D02*
X107639047Y-125261904D01*
X107181904Y-126061904D01*
X107181904Y-125261904D01*
X106381904Y-125300000D02*
X106458095Y-125261904D01*
X106572380Y-125261904D01*
X106686666Y-125300000D01*
X106762857Y-125376190D01*
X106800952Y-125452380D01*
X106839047Y-125604761D01*
X106839047Y-125719047D01*
X106800952Y-125871428D01*
X106762857Y-125947619D01*
X106686666Y-126023809D01*
X106572380Y-126061904D01*
X106496190Y-126061904D01*
X106381904Y-126023809D01*
X106343809Y-125985714D01*
X106343809Y-125719047D01*
X106496190Y-125719047D01*
X110191428Y-127361904D02*
X110191428Y-126561904D01*
X110191428Y-126942857D02*
X109734285Y-126942857D01*
X109734285Y-127361904D02*
X109734285Y-126561904D01*
X109353333Y-126942857D02*
X109086666Y-126942857D01*
X108972380Y-127361904D02*
X109353333Y-127361904D01*
X109353333Y-126561904D01*
X108972380Y-126561904D01*
X108705714Y-126561904D02*
X108172380Y-127361904D01*
X108172380Y-126561904D02*
X108705714Y-127361904D01*
X111029523Y-128242857D02*
X110915238Y-128280952D01*
X110877142Y-128319047D01*
X110839047Y-128395238D01*
X110839047Y-128509523D01*
X110877142Y-128585714D01*
X110915238Y-128623809D01*
X110991428Y-128661904D01*
X111296190Y-128661904D01*
X111296190Y-127861904D01*
X111029523Y-127861904D01*
X110953333Y-127900000D01*
X110915238Y-127938095D01*
X110877142Y-128014285D01*
X110877142Y-128090476D01*
X110915238Y-128166666D01*
X110953333Y-128204761D01*
X111029523Y-128242857D01*
X111296190Y-128242857D01*
X110496190Y-127861904D02*
X110496190Y-128509523D01*
X110458095Y-128585714D01*
X110420000Y-128623809D01*
X110343809Y-128661904D01*
X110191428Y-128661904D01*
X110115238Y-128623809D01*
X110077142Y-128585714D01*
X110039047Y-128509523D01*
X110039047Y-127861904D01*
X109391428Y-128242857D02*
X109658095Y-128242857D01*
X109658095Y-128661904D02*
X109658095Y-127861904D01*
X109277142Y-127861904D01*
X108705714Y-128242857D02*
X108972380Y-128242857D01*
X108972380Y-128661904D02*
X108972380Y-127861904D01*
X108591428Y-127861904D01*
X108286666Y-128242857D02*
X108020000Y-128242857D01*
X107905714Y-128661904D02*
X108286666Y-128661904D01*
X108286666Y-127861904D01*
X107905714Y-127861904D01*
X107105714Y-128661904D02*
X107372380Y-128280952D01*
X107562857Y-128661904D02*
X107562857Y-127861904D01*
X107258095Y-127861904D01*
X107181904Y-127900000D01*
X107143809Y-127938095D01*
X107105714Y-128014285D01*
X107105714Y-128128571D01*
X107143809Y-128204761D01*
X107181904Y-128242857D01*
X107258095Y-128280952D01*
X107562857Y-128280952D01*
X124123095Y-98121904D02*
X124123095Y-97321904D01*
X123742142Y-98121904D02*
X123742142Y-97321904D01*
X123285000Y-98121904D01*
X123285000Y-97321904D01*
X123018333Y-97321904D02*
X122751666Y-98121904D01*
X122485000Y-97321904D01*
X122218333Y-97702857D02*
X121951666Y-97702857D01*
X121837380Y-98121904D02*
X122218333Y-98121904D01*
X122218333Y-97321904D01*
X121837380Y-97321904D01*
X121037380Y-98121904D02*
X121304047Y-97740952D01*
X121494523Y-98121904D02*
X121494523Y-97321904D01*
X121189761Y-97321904D01*
X121113571Y-97360000D01*
X121075476Y-97398095D01*
X121037380Y-97474285D01*
X121037380Y-97588571D01*
X121075476Y-97664761D01*
X121113571Y-97702857D01*
X121189761Y-97740952D01*
X121494523Y-97740952D01*
X120808809Y-97321904D02*
X120351666Y-97321904D01*
X120580238Y-98121904D02*
X120580238Y-97321904D01*
X120085000Y-98121904D02*
X120085000Y-97321904D01*
X119704047Y-98121904D02*
X119704047Y-97321904D01*
X119246904Y-98121904D01*
X119246904Y-97321904D01*
X118446904Y-97360000D02*
X118523095Y-97321904D01*
X118637380Y-97321904D01*
X118751666Y-97360000D01*
X118827857Y-97436190D01*
X118865952Y-97512380D01*
X118904047Y-97664761D01*
X118904047Y-97779047D01*
X118865952Y-97931428D01*
X118827857Y-98007619D01*
X118751666Y-98083809D01*
X118637380Y-98121904D01*
X118561190Y-98121904D01*
X118446904Y-98083809D01*
X118408809Y-98045714D01*
X118408809Y-97779047D01*
X118561190Y-97779047D01*
X122256428Y-99421904D02*
X122256428Y-98621904D01*
X122256428Y-99002857D02*
X121799285Y-99002857D01*
X121799285Y-99421904D02*
X121799285Y-98621904D01*
X121418333Y-99002857D02*
X121151666Y-99002857D01*
X121037380Y-99421904D02*
X121418333Y-99421904D01*
X121418333Y-98621904D01*
X121037380Y-98621904D01*
X120770714Y-98621904D02*
X120237380Y-99421904D01*
X120237380Y-98621904D02*
X120770714Y-99421904D01*
X123094523Y-100302857D02*
X122980238Y-100340952D01*
X122942142Y-100379047D01*
X122904047Y-100455238D01*
X122904047Y-100569523D01*
X122942142Y-100645714D01*
X122980238Y-100683809D01*
X123056428Y-100721904D01*
X123361190Y-100721904D01*
X123361190Y-99921904D01*
X123094523Y-99921904D01*
X123018333Y-99960000D01*
X122980238Y-99998095D01*
X122942142Y-100074285D01*
X122942142Y-100150476D01*
X122980238Y-100226666D01*
X123018333Y-100264761D01*
X123094523Y-100302857D01*
X123361190Y-100302857D01*
X122561190Y-99921904D02*
X122561190Y-100569523D01*
X122523095Y-100645714D01*
X122485000Y-100683809D01*
X122408809Y-100721904D01*
X122256428Y-100721904D01*
X122180238Y-100683809D01*
X122142142Y-100645714D01*
X122104047Y-100569523D01*
X122104047Y-99921904D01*
X121456428Y-100302857D02*
X121723095Y-100302857D01*
X121723095Y-100721904D02*
X121723095Y-99921904D01*
X121342142Y-99921904D01*
X120770714Y-100302857D02*
X121037380Y-100302857D01*
X121037380Y-100721904D02*
X121037380Y-99921904D01*
X120656428Y-99921904D01*
X120351666Y-100302857D02*
X120085000Y-100302857D01*
X119970714Y-100721904D02*
X120351666Y-100721904D01*
X120351666Y-99921904D01*
X119970714Y-99921904D01*
X119170714Y-100721904D02*
X119437380Y-100340952D01*
X119627857Y-100721904D02*
X119627857Y-99921904D01*
X119323095Y-99921904D01*
X119246904Y-99960000D01*
X119208809Y-99998095D01*
X119170714Y-100074285D01*
X119170714Y-100188571D01*
X119208809Y-100264761D01*
X119246904Y-100302857D01*
X119323095Y-100340952D01*
X119627857Y-100340952D01*
X112058095Y-98121904D02*
X112058095Y-97321904D01*
X111677142Y-98121904D02*
X111677142Y-97321904D01*
X111220000Y-98121904D01*
X111220000Y-97321904D01*
X110953333Y-97321904D02*
X110686666Y-98121904D01*
X110420000Y-97321904D01*
X110153333Y-97702857D02*
X109886666Y-97702857D01*
X109772380Y-98121904D02*
X110153333Y-98121904D01*
X110153333Y-97321904D01*
X109772380Y-97321904D01*
X108972380Y-98121904D02*
X109239047Y-97740952D01*
X109429523Y-98121904D02*
X109429523Y-97321904D01*
X109124761Y-97321904D01*
X109048571Y-97360000D01*
X109010476Y-97398095D01*
X108972380Y-97474285D01*
X108972380Y-97588571D01*
X109010476Y-97664761D01*
X109048571Y-97702857D01*
X109124761Y-97740952D01*
X109429523Y-97740952D01*
X108743809Y-97321904D02*
X108286666Y-97321904D01*
X108515238Y-98121904D02*
X108515238Y-97321904D01*
X108020000Y-98121904D02*
X108020000Y-97321904D01*
X107639047Y-98121904D02*
X107639047Y-97321904D01*
X107181904Y-98121904D01*
X107181904Y-97321904D01*
X106381904Y-97360000D02*
X106458095Y-97321904D01*
X106572380Y-97321904D01*
X106686666Y-97360000D01*
X106762857Y-97436190D01*
X106800952Y-97512380D01*
X106839047Y-97664761D01*
X106839047Y-97779047D01*
X106800952Y-97931428D01*
X106762857Y-98007619D01*
X106686666Y-98083809D01*
X106572380Y-98121904D01*
X106496190Y-98121904D01*
X106381904Y-98083809D01*
X106343809Y-98045714D01*
X106343809Y-97779047D01*
X106496190Y-97779047D01*
X110191428Y-99421904D02*
X110191428Y-98621904D01*
X110191428Y-99002857D02*
X109734285Y-99002857D01*
X109734285Y-99421904D02*
X109734285Y-98621904D01*
X109353333Y-99002857D02*
X109086666Y-99002857D01*
X108972380Y-99421904D02*
X109353333Y-99421904D01*
X109353333Y-98621904D01*
X108972380Y-98621904D01*
X108705714Y-98621904D02*
X108172380Y-99421904D01*
X108172380Y-98621904D02*
X108705714Y-99421904D01*
X111029523Y-100302857D02*
X110915238Y-100340952D01*
X110877142Y-100379047D01*
X110839047Y-100455238D01*
X110839047Y-100569523D01*
X110877142Y-100645714D01*
X110915238Y-100683809D01*
X110991428Y-100721904D01*
X111296190Y-100721904D01*
X111296190Y-99921904D01*
X111029523Y-99921904D01*
X110953333Y-99960000D01*
X110915238Y-99998095D01*
X110877142Y-100074285D01*
X110877142Y-100150476D01*
X110915238Y-100226666D01*
X110953333Y-100264761D01*
X111029523Y-100302857D01*
X111296190Y-100302857D01*
X110496190Y-99921904D02*
X110496190Y-100569523D01*
X110458095Y-100645714D01*
X110420000Y-100683809D01*
X110343809Y-100721904D01*
X110191428Y-100721904D01*
X110115238Y-100683809D01*
X110077142Y-100645714D01*
X110039047Y-100569523D01*
X110039047Y-99921904D01*
X109391428Y-100302857D02*
X109658095Y-100302857D01*
X109658095Y-100721904D02*
X109658095Y-99921904D01*
X109277142Y-99921904D01*
X108705714Y-100302857D02*
X108972380Y-100302857D01*
X108972380Y-100721904D02*
X108972380Y-99921904D01*
X108591428Y-99921904D01*
X108286666Y-100302857D02*
X108020000Y-100302857D01*
X107905714Y-100721904D02*
X108286666Y-100721904D01*
X108286666Y-99921904D01*
X107905714Y-99921904D01*
X107105714Y-100721904D02*
X107372380Y-100340952D01*
X107562857Y-100721904D02*
X107562857Y-99921904D01*
X107258095Y-99921904D01*
X107181904Y-99960000D01*
X107143809Y-99998095D01*
X107105714Y-100074285D01*
X107105714Y-100188571D01*
X107143809Y-100264761D01*
X107181904Y-100302857D01*
X107258095Y-100340952D01*
X107562857Y-100340952D01*
X194284285Y-96638333D02*
X193903333Y-96638333D01*
X194360476Y-96866904D02*
X194093809Y-96066904D01*
X193827142Y-96866904D01*
X193560476Y-96866904D02*
X193560476Y-96066904D01*
X193370000Y-96066904D01*
X193255714Y-96105000D01*
X193179523Y-96181190D01*
X193141428Y-96257380D01*
X193103333Y-96409761D01*
X193103333Y-96524047D01*
X193141428Y-96676428D01*
X193179523Y-96752619D01*
X193255714Y-96828809D01*
X193370000Y-96866904D01*
X193560476Y-96866904D01*
X192760476Y-96866904D02*
X192760476Y-96066904D01*
X192570000Y-96066904D01*
X192455714Y-96105000D01*
X192379523Y-96181190D01*
X192341428Y-96257380D01*
X192303333Y-96409761D01*
X192303333Y-96524047D01*
X192341428Y-96676428D01*
X192379523Y-96752619D01*
X192455714Y-96828809D01*
X192570000Y-96866904D01*
X192760476Y-96866904D01*
X191503333Y-96866904D02*
X191770000Y-96485952D01*
X191960476Y-96866904D02*
X191960476Y-96066904D01*
X191655714Y-96066904D01*
X191579523Y-96105000D01*
X191541428Y-96143095D01*
X191503333Y-96219285D01*
X191503333Y-96333571D01*
X191541428Y-96409761D01*
X191579523Y-96447857D01*
X191655714Y-96485952D01*
X191960476Y-96485952D01*
X191160476Y-96447857D02*
X190893809Y-96447857D01*
X190779523Y-96866904D02*
X191160476Y-96866904D01*
X191160476Y-96066904D01*
X190779523Y-96066904D01*
X190474761Y-96828809D02*
X190360476Y-96866904D01*
X190170000Y-96866904D01*
X190093809Y-96828809D01*
X190055714Y-96790714D01*
X190017619Y-96714523D01*
X190017619Y-96638333D01*
X190055714Y-96562142D01*
X190093809Y-96524047D01*
X190170000Y-96485952D01*
X190322380Y-96447857D01*
X190398571Y-96409761D01*
X190436666Y-96371666D01*
X190474761Y-96295476D01*
X190474761Y-96219285D01*
X190436666Y-96143095D01*
X190398571Y-96105000D01*
X190322380Y-96066904D01*
X190131904Y-96066904D01*
X190017619Y-96105000D01*
X189712857Y-96828809D02*
X189598571Y-96866904D01*
X189408095Y-96866904D01*
X189331904Y-96828809D01*
X189293809Y-96790714D01*
X189255714Y-96714523D01*
X189255714Y-96638333D01*
X189293809Y-96562142D01*
X189331904Y-96524047D01*
X189408095Y-96485952D01*
X189560476Y-96447857D01*
X189636666Y-96409761D01*
X189674761Y-96371666D01*
X189712857Y-96295476D01*
X189712857Y-96219285D01*
X189674761Y-96143095D01*
X189636666Y-96105000D01*
X189560476Y-96066904D01*
X189370000Y-96066904D01*
X189255714Y-96105000D01*
X194570000Y-98166904D02*
X194570000Y-97366904D01*
X194379523Y-97366904D01*
X194265238Y-97405000D01*
X194189047Y-97481190D01*
X194150952Y-97557380D01*
X194112857Y-97709761D01*
X194112857Y-97824047D01*
X194150952Y-97976428D01*
X194189047Y-98052619D01*
X194265238Y-98128809D01*
X194379523Y-98166904D01*
X194570000Y-98166904D01*
X193770000Y-97747857D02*
X193503333Y-97747857D01*
X193389047Y-98166904D02*
X193770000Y-98166904D01*
X193770000Y-97366904D01*
X193389047Y-97366904D01*
X192589047Y-98090714D02*
X192627142Y-98128809D01*
X192741428Y-98166904D01*
X192817619Y-98166904D01*
X192931904Y-98128809D01*
X193008095Y-98052619D01*
X193046190Y-97976428D01*
X193084285Y-97824047D01*
X193084285Y-97709761D01*
X193046190Y-97557380D01*
X193008095Y-97481190D01*
X192931904Y-97405000D01*
X192817619Y-97366904D01*
X192741428Y-97366904D01*
X192627142Y-97405000D01*
X192589047Y-97443095D01*
X192093809Y-97366904D02*
X191941428Y-97366904D01*
X191865238Y-97405000D01*
X191789047Y-97481190D01*
X191750952Y-97633571D01*
X191750952Y-97900238D01*
X191789047Y-98052619D01*
X191865238Y-98128809D01*
X191941428Y-98166904D01*
X192093809Y-98166904D01*
X192170000Y-98128809D01*
X192246190Y-98052619D01*
X192284285Y-97900238D01*
X192284285Y-97633571D01*
X192246190Y-97481190D01*
X192170000Y-97405000D01*
X192093809Y-97366904D01*
X191408095Y-98166904D02*
X191408095Y-97366904D01*
X191217619Y-97366904D01*
X191103333Y-97405000D01*
X191027142Y-97481190D01*
X190989047Y-97557380D01*
X190950952Y-97709761D01*
X190950952Y-97824047D01*
X190989047Y-97976428D01*
X191027142Y-98052619D01*
X191103333Y-98128809D01*
X191217619Y-98166904D01*
X191408095Y-98166904D01*
X190608095Y-98166904D02*
X190608095Y-97366904D01*
X190227142Y-98166904D02*
X190227142Y-97366904D01*
X189770000Y-98166904D01*
X189770000Y-97366904D01*
X188970000Y-97405000D02*
X189046190Y-97366904D01*
X189160476Y-97366904D01*
X189274761Y-97405000D01*
X189350952Y-97481190D01*
X189389047Y-97557380D01*
X189427142Y-97709761D01*
X189427142Y-97824047D01*
X189389047Y-97976428D01*
X189350952Y-98052619D01*
X189274761Y-98128809D01*
X189160476Y-98166904D01*
X189084285Y-98166904D01*
X188970000Y-98128809D01*
X188931904Y-98090714D01*
X188931904Y-97824047D01*
X189084285Y-97824047D01*
X185394285Y-66158333D02*
X185013333Y-66158333D01*
X185470476Y-66386904D02*
X185203809Y-65586904D01*
X184937142Y-66386904D01*
X184670476Y-66386904D02*
X184670476Y-65586904D01*
X184480000Y-65586904D01*
X184365714Y-65625000D01*
X184289523Y-65701190D01*
X184251428Y-65777380D01*
X184213333Y-65929761D01*
X184213333Y-66044047D01*
X184251428Y-66196428D01*
X184289523Y-66272619D01*
X184365714Y-66348809D01*
X184480000Y-66386904D01*
X184670476Y-66386904D01*
X183870476Y-66386904D02*
X183870476Y-65586904D01*
X183680000Y-65586904D01*
X183565714Y-65625000D01*
X183489523Y-65701190D01*
X183451428Y-65777380D01*
X183413333Y-65929761D01*
X183413333Y-66044047D01*
X183451428Y-66196428D01*
X183489523Y-66272619D01*
X183565714Y-66348809D01*
X183680000Y-66386904D01*
X183870476Y-66386904D01*
X182613333Y-66386904D02*
X182880000Y-66005952D01*
X183070476Y-66386904D02*
X183070476Y-65586904D01*
X182765714Y-65586904D01*
X182689523Y-65625000D01*
X182651428Y-65663095D01*
X182613333Y-65739285D01*
X182613333Y-65853571D01*
X182651428Y-65929761D01*
X182689523Y-65967857D01*
X182765714Y-66005952D01*
X183070476Y-66005952D01*
X182270476Y-65967857D02*
X182003809Y-65967857D01*
X181889523Y-66386904D02*
X182270476Y-66386904D01*
X182270476Y-65586904D01*
X181889523Y-65586904D01*
X181584761Y-66348809D02*
X181470476Y-66386904D01*
X181280000Y-66386904D01*
X181203809Y-66348809D01*
X181165714Y-66310714D01*
X181127619Y-66234523D01*
X181127619Y-66158333D01*
X181165714Y-66082142D01*
X181203809Y-66044047D01*
X181280000Y-66005952D01*
X181432380Y-65967857D01*
X181508571Y-65929761D01*
X181546666Y-65891666D01*
X181584761Y-65815476D01*
X181584761Y-65739285D01*
X181546666Y-65663095D01*
X181508571Y-65625000D01*
X181432380Y-65586904D01*
X181241904Y-65586904D01*
X181127619Y-65625000D01*
X180822857Y-66348809D02*
X180708571Y-66386904D01*
X180518095Y-66386904D01*
X180441904Y-66348809D01*
X180403809Y-66310714D01*
X180365714Y-66234523D01*
X180365714Y-66158333D01*
X180403809Y-66082142D01*
X180441904Y-66044047D01*
X180518095Y-66005952D01*
X180670476Y-65967857D01*
X180746666Y-65929761D01*
X180784761Y-65891666D01*
X180822857Y-65815476D01*
X180822857Y-65739285D01*
X180784761Y-65663095D01*
X180746666Y-65625000D01*
X180670476Y-65586904D01*
X180480000Y-65586904D01*
X180365714Y-65625000D01*
X185680000Y-67686904D02*
X185680000Y-66886904D01*
X185489523Y-66886904D01*
X185375238Y-66925000D01*
X185299047Y-67001190D01*
X185260952Y-67077380D01*
X185222857Y-67229761D01*
X185222857Y-67344047D01*
X185260952Y-67496428D01*
X185299047Y-67572619D01*
X185375238Y-67648809D01*
X185489523Y-67686904D01*
X185680000Y-67686904D01*
X184880000Y-67267857D02*
X184613333Y-67267857D01*
X184499047Y-67686904D02*
X184880000Y-67686904D01*
X184880000Y-66886904D01*
X184499047Y-66886904D01*
X183699047Y-67610714D02*
X183737142Y-67648809D01*
X183851428Y-67686904D01*
X183927619Y-67686904D01*
X184041904Y-67648809D01*
X184118095Y-67572619D01*
X184156190Y-67496428D01*
X184194285Y-67344047D01*
X184194285Y-67229761D01*
X184156190Y-67077380D01*
X184118095Y-67001190D01*
X184041904Y-66925000D01*
X183927619Y-66886904D01*
X183851428Y-66886904D01*
X183737142Y-66925000D01*
X183699047Y-66963095D01*
X183203809Y-66886904D02*
X183051428Y-66886904D01*
X182975238Y-66925000D01*
X182899047Y-67001190D01*
X182860952Y-67153571D01*
X182860952Y-67420238D01*
X182899047Y-67572619D01*
X182975238Y-67648809D01*
X183051428Y-67686904D01*
X183203809Y-67686904D01*
X183280000Y-67648809D01*
X183356190Y-67572619D01*
X183394285Y-67420238D01*
X183394285Y-67153571D01*
X183356190Y-67001190D01*
X183280000Y-66925000D01*
X183203809Y-66886904D01*
X182518095Y-67686904D02*
X182518095Y-66886904D01*
X182327619Y-66886904D01*
X182213333Y-66925000D01*
X182137142Y-67001190D01*
X182099047Y-67077380D01*
X182060952Y-67229761D01*
X182060952Y-67344047D01*
X182099047Y-67496428D01*
X182137142Y-67572619D01*
X182213333Y-67648809D01*
X182327619Y-67686904D01*
X182518095Y-67686904D01*
X181718095Y-67686904D02*
X181718095Y-66886904D01*
X181337142Y-67686904D02*
X181337142Y-66886904D01*
X180880000Y-67686904D01*
X180880000Y-66886904D01*
X180080000Y-66925000D02*
X180156190Y-66886904D01*
X180270476Y-66886904D01*
X180384761Y-66925000D01*
X180460952Y-67001190D01*
X180499047Y-67077380D01*
X180537142Y-67229761D01*
X180537142Y-67344047D01*
X180499047Y-67496428D01*
X180460952Y-67572619D01*
X180384761Y-67648809D01*
X180270476Y-67686904D01*
X180194285Y-67686904D01*
X180080000Y-67648809D01*
X180041904Y-67610714D01*
X180041904Y-67344047D01*
X180194285Y-67344047D01*
D12*
X166655000Y-96924761D02*
X166512142Y-96972380D01*
X166274047Y-96972380D01*
X166178809Y-96924761D01*
X166131190Y-96877142D01*
X166083571Y-96781904D01*
X166083571Y-96686666D01*
X166131190Y-96591428D01*
X166178809Y-96543809D01*
X166274047Y-96496190D01*
X166464523Y-96448571D01*
X166559761Y-96400952D01*
X166607380Y-96353333D01*
X166655000Y-96258095D01*
X166655000Y-96162857D01*
X166607380Y-96067619D01*
X166559761Y-96020000D01*
X166464523Y-95972380D01*
X166226428Y-95972380D01*
X166083571Y-96020000D01*
X166369285Y-95829523D02*
X166369285Y-97115238D01*
X165083571Y-96877142D02*
X165131190Y-96924761D01*
X165274047Y-96972380D01*
X165369285Y-96972380D01*
X165512142Y-96924761D01*
X165607380Y-96829523D01*
X165655000Y-96734285D01*
X165702619Y-96543809D01*
X165702619Y-96400952D01*
X165655000Y-96210476D01*
X165607380Y-96115238D01*
X165512142Y-96020000D01*
X165369285Y-95972380D01*
X165274047Y-95972380D01*
X165131190Y-96020000D01*
X165083571Y-96067619D01*
X164083571Y-96877142D02*
X164131190Y-96924761D01*
X164274047Y-96972380D01*
X164369285Y-96972380D01*
X164512142Y-96924761D01*
X164607380Y-96829523D01*
X164655000Y-96734285D01*
X164702619Y-96543809D01*
X164702619Y-96400952D01*
X164655000Y-96210476D01*
X164607380Y-96115238D01*
X164512142Y-96020000D01*
X164369285Y-95972380D01*
X164274047Y-95972380D01*
X164131190Y-96020000D01*
X164083571Y-96067619D01*
X163464523Y-95972380D02*
X163369285Y-95972380D01*
X163274047Y-96020000D01*
X163226428Y-96067619D01*
X163178809Y-96162857D01*
X163131190Y-96353333D01*
X163131190Y-96591428D01*
X163178809Y-96781904D01*
X163226428Y-96877142D01*
X163274047Y-96924761D01*
X163369285Y-96972380D01*
X163464523Y-96972380D01*
X163559761Y-96924761D01*
X163607380Y-96877142D01*
X163655000Y-96781904D01*
X163702619Y-96591428D01*
X163702619Y-96353333D01*
X163655000Y-96162857D01*
X163607380Y-96067619D01*
X163559761Y-96020000D01*
X163464523Y-95972380D01*
X162512142Y-95972380D02*
X162416904Y-95972380D01*
X162321666Y-96020000D01*
X162274047Y-96067619D01*
X162226428Y-96162857D01*
X162178809Y-96353333D01*
X162178809Y-96591428D01*
X162226428Y-96781904D01*
X162274047Y-96877142D01*
X162321666Y-96924761D01*
X162416904Y-96972380D01*
X162512142Y-96972380D01*
X162607380Y-96924761D01*
X162655000Y-96877142D01*
X162702619Y-96781904D01*
X162750238Y-96591428D01*
X162750238Y-96353333D01*
X162702619Y-96162857D01*
X162655000Y-96067619D01*
X162607380Y-96020000D01*
X162512142Y-95972380D01*
X160988333Y-96591428D02*
X160226428Y-96591428D01*
X159035952Y-96924761D02*
X158893095Y-96972380D01*
X158655000Y-96972380D01*
X158559761Y-96924761D01*
X158512142Y-96877142D01*
X158464523Y-96781904D01*
X158464523Y-96686666D01*
X158512142Y-96591428D01*
X158559761Y-96543809D01*
X158655000Y-96496190D01*
X158845476Y-96448571D01*
X158940714Y-96400952D01*
X158988333Y-96353333D01*
X159035952Y-96258095D01*
X159035952Y-96162857D01*
X158988333Y-96067619D01*
X158940714Y-96020000D01*
X158845476Y-95972380D01*
X158607380Y-95972380D01*
X158464523Y-96020000D01*
X158750238Y-95829523D02*
X158750238Y-97115238D01*
X157464523Y-96877142D02*
X157512142Y-96924761D01*
X157655000Y-96972380D01*
X157750238Y-96972380D01*
X157893095Y-96924761D01*
X157988333Y-96829523D01*
X158035952Y-96734285D01*
X158083571Y-96543809D01*
X158083571Y-96400952D01*
X158035952Y-96210476D01*
X157988333Y-96115238D01*
X157893095Y-96020000D01*
X157750238Y-95972380D01*
X157655000Y-95972380D01*
X157512142Y-96020000D01*
X157464523Y-96067619D01*
X156464523Y-96877142D02*
X156512142Y-96924761D01*
X156655000Y-96972380D01*
X156750238Y-96972380D01*
X156893095Y-96924761D01*
X156988333Y-96829523D01*
X157035952Y-96734285D01*
X157083571Y-96543809D01*
X157083571Y-96400952D01*
X157035952Y-96210476D01*
X156988333Y-96115238D01*
X156893095Y-96020000D01*
X156750238Y-95972380D01*
X156655000Y-95972380D01*
X156512142Y-96020000D01*
X156464523Y-96067619D01*
X155845476Y-95972380D02*
X155750238Y-95972380D01*
X155655000Y-96020000D01*
X155607380Y-96067619D01*
X155559761Y-96162857D01*
X155512142Y-96353333D01*
X155512142Y-96591428D01*
X155559761Y-96781904D01*
X155607380Y-96877142D01*
X155655000Y-96924761D01*
X155750238Y-96972380D01*
X155845476Y-96972380D01*
X155940714Y-96924761D01*
X155988333Y-96877142D01*
X156035952Y-96781904D01*
X156083571Y-96591428D01*
X156083571Y-96353333D01*
X156035952Y-96162857D01*
X155988333Y-96067619D01*
X155940714Y-96020000D01*
X155845476Y-95972380D01*
X154750238Y-96448571D02*
X155083571Y-96448571D01*
X155083571Y-96972380D02*
X155083571Y-95972380D01*
X154607380Y-95972380D01*
X143747380Y-96924761D02*
X143604523Y-96972380D01*
X143366428Y-96972380D01*
X143271190Y-96924761D01*
X143223571Y-96877142D01*
X143175952Y-96781904D01*
X143175952Y-96686666D01*
X143223571Y-96591428D01*
X143271190Y-96543809D01*
X143366428Y-96496190D01*
X143556904Y-96448571D01*
X143652142Y-96400952D01*
X143699761Y-96353333D01*
X143747380Y-96258095D01*
X143747380Y-96162857D01*
X143699761Y-96067619D01*
X143652142Y-96020000D01*
X143556904Y-95972380D01*
X143318809Y-95972380D01*
X143175952Y-96020000D01*
X143461666Y-95829523D02*
X143461666Y-97115238D01*
X142175952Y-96877142D02*
X142223571Y-96924761D01*
X142366428Y-96972380D01*
X142461666Y-96972380D01*
X142604523Y-96924761D01*
X142699761Y-96829523D01*
X142747380Y-96734285D01*
X142795000Y-96543809D01*
X142795000Y-96400952D01*
X142747380Y-96210476D01*
X142699761Y-96115238D01*
X142604523Y-96020000D01*
X142461666Y-95972380D01*
X142366428Y-95972380D01*
X142223571Y-96020000D01*
X142175952Y-96067619D01*
X141556904Y-95972380D02*
X141461666Y-95972380D01*
X141366428Y-96020000D01*
X141318809Y-96067619D01*
X141271190Y-96162857D01*
X141223571Y-96353333D01*
X141223571Y-96591428D01*
X141271190Y-96781904D01*
X141318809Y-96877142D01*
X141366428Y-96924761D01*
X141461666Y-96972380D01*
X141556904Y-96972380D01*
X141652142Y-96924761D01*
X141699761Y-96877142D01*
X141747380Y-96781904D01*
X141795000Y-96591428D01*
X141795000Y-96353333D01*
X141747380Y-96162857D01*
X141699761Y-96067619D01*
X141652142Y-96020000D01*
X141556904Y-95972380D01*
X140604523Y-95972380D02*
X140509285Y-95972380D01*
X140414047Y-96020000D01*
X140366428Y-96067619D01*
X140318809Y-96162857D01*
X140271190Y-96353333D01*
X140271190Y-96591428D01*
X140318809Y-96781904D01*
X140366428Y-96877142D01*
X140414047Y-96924761D01*
X140509285Y-96972380D01*
X140604523Y-96972380D01*
X140699761Y-96924761D01*
X140747380Y-96877142D01*
X140795000Y-96781904D01*
X140842619Y-96591428D01*
X140842619Y-96353333D01*
X140795000Y-96162857D01*
X140747380Y-96067619D01*
X140699761Y-96020000D01*
X140604523Y-95972380D01*
X139652142Y-95972380D02*
X139556904Y-95972380D01*
X139461666Y-96020000D01*
X139414047Y-96067619D01*
X139366428Y-96162857D01*
X139318809Y-96353333D01*
X139318809Y-96591428D01*
X139366428Y-96781904D01*
X139414047Y-96877142D01*
X139461666Y-96924761D01*
X139556904Y-96972380D01*
X139652142Y-96972380D01*
X139747380Y-96924761D01*
X139795000Y-96877142D01*
X139842619Y-96781904D01*
X139890238Y-96591428D01*
X139890238Y-96353333D01*
X139842619Y-96162857D01*
X139795000Y-96067619D01*
X139747380Y-96020000D01*
X139652142Y-95972380D01*
X138128333Y-96591428D02*
X137366428Y-96591428D01*
X136175952Y-96924761D02*
X136033095Y-96972380D01*
X135795000Y-96972380D01*
X135699761Y-96924761D01*
X135652142Y-96877142D01*
X135604523Y-96781904D01*
X135604523Y-96686666D01*
X135652142Y-96591428D01*
X135699761Y-96543809D01*
X135795000Y-96496190D01*
X135985476Y-96448571D01*
X136080714Y-96400952D01*
X136128333Y-96353333D01*
X136175952Y-96258095D01*
X136175952Y-96162857D01*
X136128333Y-96067619D01*
X136080714Y-96020000D01*
X135985476Y-95972380D01*
X135747380Y-95972380D01*
X135604523Y-96020000D01*
X135890238Y-95829523D02*
X135890238Y-97115238D01*
X134604523Y-96877142D02*
X134652142Y-96924761D01*
X134795000Y-96972380D01*
X134890238Y-96972380D01*
X135033095Y-96924761D01*
X135128333Y-96829523D01*
X135175952Y-96734285D01*
X135223571Y-96543809D01*
X135223571Y-96400952D01*
X135175952Y-96210476D01*
X135128333Y-96115238D01*
X135033095Y-96020000D01*
X134890238Y-95972380D01*
X134795000Y-95972380D01*
X134652142Y-96020000D01*
X134604523Y-96067619D01*
X133985476Y-95972380D02*
X133890238Y-95972380D01*
X133795000Y-96020000D01*
X133747380Y-96067619D01*
X133699761Y-96162857D01*
X133652142Y-96353333D01*
X133652142Y-96591428D01*
X133699761Y-96781904D01*
X133747380Y-96877142D01*
X133795000Y-96924761D01*
X133890238Y-96972380D01*
X133985476Y-96972380D01*
X134080714Y-96924761D01*
X134128333Y-96877142D01*
X134175952Y-96781904D01*
X134223571Y-96591428D01*
X134223571Y-96353333D01*
X134175952Y-96162857D01*
X134128333Y-96067619D01*
X134080714Y-96020000D01*
X133985476Y-95972380D01*
X133033095Y-95972380D02*
X132937857Y-95972380D01*
X132842619Y-96020000D01*
X132795000Y-96067619D01*
X132747380Y-96162857D01*
X132699761Y-96353333D01*
X132699761Y-96591428D01*
X132747380Y-96781904D01*
X132795000Y-96877142D01*
X132842619Y-96924761D01*
X132937857Y-96972380D01*
X133033095Y-96972380D01*
X133128333Y-96924761D01*
X133175952Y-96877142D01*
X133223571Y-96781904D01*
X133271190Y-96591428D01*
X133271190Y-96353333D01*
X133223571Y-96162857D01*
X133175952Y-96067619D01*
X133128333Y-96020000D01*
X133033095Y-95972380D01*
X131937857Y-96448571D02*
X132271190Y-96448571D01*
X132271190Y-96972380D02*
X132271190Y-95972380D01*
X131795000Y-95972380D01*
X164190714Y-93158571D02*
X163690714Y-94658571D01*
X163190714Y-93158571D01*
X162690714Y-94658571D02*
X162690714Y-93158571D01*
X162047857Y-94230000D02*
X161333571Y-94230000D01*
X162190714Y-94658571D02*
X161690714Y-93158571D01*
X161190714Y-94658571D01*
X159619285Y-93658571D02*
X158547857Y-93658571D01*
X159190714Y-93015714D02*
X159619285Y-94944285D01*
X158690714Y-94301428D02*
X159762142Y-94301428D01*
X159119285Y-94944285D02*
X158690714Y-93015714D01*
X158190714Y-93158571D02*
X157262142Y-93158571D01*
X157762142Y-93730000D01*
X157547857Y-93730000D01*
X157405000Y-93801428D01*
X157333571Y-93872857D01*
X157262142Y-94015714D01*
X157262142Y-94372857D01*
X157333571Y-94515714D01*
X157405000Y-94587142D01*
X157547857Y-94658571D01*
X157976428Y-94658571D01*
X158119285Y-94587142D01*
X158190714Y-94515714D01*
X141866428Y-93158571D02*
X142152142Y-93158571D01*
X142295000Y-93230000D01*
X142366428Y-93301428D01*
X142509285Y-93515714D01*
X142580714Y-93801428D01*
X142580714Y-94372857D01*
X142509285Y-94515714D01*
X142437857Y-94587142D01*
X142295000Y-94658571D01*
X142009285Y-94658571D01*
X141866428Y-94587142D01*
X141795000Y-94515714D01*
X141723571Y-94372857D01*
X141723571Y-94015714D01*
X141795000Y-93872857D01*
X141866428Y-93801428D01*
X142009285Y-93730000D01*
X142295000Y-93730000D01*
X142437857Y-93801428D01*
X142509285Y-93872857D01*
X142580714Y-94015714D01*
X140366428Y-93158571D02*
X141080714Y-93158571D01*
X141152142Y-93872857D01*
X141080714Y-93801428D01*
X140937857Y-93730000D01*
X140580714Y-93730000D01*
X140437857Y-93801428D01*
X140366428Y-93872857D01*
X140295000Y-94015714D01*
X140295000Y-94372857D01*
X140366428Y-94515714D01*
X140437857Y-94587142D01*
X140580714Y-94658571D01*
X140937857Y-94658571D01*
X141080714Y-94587142D01*
X141152142Y-94515714D01*
X139723571Y-93301428D02*
X139652142Y-93230000D01*
X139509285Y-93158571D01*
X139152142Y-93158571D01*
X139009285Y-93230000D01*
X138937857Y-93301428D01*
X138866428Y-93444285D01*
X138866428Y-93587142D01*
X138937857Y-93801428D01*
X139795000Y-94658571D01*
X138866428Y-94658571D01*
X138295000Y-93301428D02*
X138223571Y-93230000D01*
X138080714Y-93158571D01*
X137723571Y-93158571D01*
X137580714Y-93230000D01*
X137509285Y-93301428D01*
X137437857Y-93444285D01*
X137437857Y-93587142D01*
X137509285Y-93801428D01*
X138366428Y-94658571D01*
X137437857Y-94658571D01*
X135866428Y-93158571D02*
X135366428Y-94658571D01*
X134866428Y-93158571D01*
X134366428Y-94658571D02*
X134366428Y-93158571D01*
X133723571Y-94230000D02*
X133009285Y-94230000D01*
X133866428Y-94658571D02*
X133366428Y-93158571D01*
X132866428Y-94658571D01*
D11*
X168275000Y-86995000D02*
X168275000Y-88265000D01*
X153035000Y-86995000D02*
X168275000Y-86995000D01*
X153035000Y-88265000D02*
X153035000Y-86995000D01*
X145415000Y-86995000D02*
X145415000Y-88265000D01*
X130175000Y-86995000D02*
X145415000Y-86995000D01*
X130175000Y-88265000D02*
X130175000Y-86995000D01*
X168275000Y-139065000D02*
X168275000Y-137795000D01*
X153035000Y-139065000D02*
X168275000Y-139065000D01*
X153035000Y-137795000D02*
X153035000Y-139065000D01*
X145415000Y-139065000D02*
X145415000Y-137795000D01*
X130175000Y-139065000D02*
X145415000Y-139065000D01*
X130175000Y-137795000D02*
X130175000Y-139065000D01*
X113030000Y-136525000D02*
X113030000Y-135255000D01*
X105410000Y-136525000D02*
X113030000Y-136525000D01*
X105410000Y-135255000D02*
X105410000Y-136525000D01*
X113030000Y-117475000D02*
X113030000Y-118745000D01*
X105410000Y-117475000D02*
X113030000Y-117475000D01*
X105410000Y-118745000D02*
X105410000Y-117475000D01*
X125095000Y-108585000D02*
X125095000Y-107315000D01*
X117475000Y-108585000D02*
X125095000Y-108585000D01*
X117475000Y-107315000D02*
X117475000Y-108585000D01*
X113030000Y-108585000D02*
X113030000Y-107315000D01*
X105410000Y-108585000D02*
X113030000Y-108585000D01*
X105410000Y-107315000D02*
X105410000Y-108585000D01*
X125095000Y-89535000D02*
X125095000Y-90805000D01*
X117475000Y-89535000D02*
X125095000Y-89535000D01*
X117475000Y-90805000D02*
X117475000Y-89535000D01*
X113030000Y-89535000D02*
X113030000Y-90805000D01*
X105410000Y-89535000D02*
X113030000Y-89535000D01*
X105410000Y-90805000D02*
X105410000Y-89535000D01*
X173990000Y-58420000D02*
X172720000Y-58420000D01*
X173990000Y-73660000D02*
X173990000Y-58420000D01*
X172720000Y-73660000D02*
X173990000Y-73660000D01*
X142240000Y-73660000D02*
X143510000Y-73660000D01*
X142240000Y-58420000D02*
X142240000Y-73660000D01*
X143510000Y-58420000D02*
X142240000Y-58420000D01*
X186690000Y-78105000D02*
X186690000Y-76835000D01*
X179070000Y-78105000D02*
X186690000Y-78105000D01*
X179070000Y-76835000D02*
X179070000Y-78105000D01*
X186690000Y-56515000D02*
X186690000Y-57785000D01*
X179070000Y-56515000D02*
X186690000Y-56515000D01*
X179070000Y-57785000D02*
X179070000Y-56515000D01*
X195580000Y-108585000D02*
X195580000Y-107315000D01*
X187960000Y-108585000D02*
X195580000Y-108585000D01*
X187960000Y-107315000D02*
X187960000Y-108585000D01*
X195580000Y-86995000D02*
X195580000Y-88265000D01*
X187960000Y-86995000D02*
X195580000Y-86995000D01*
X187960000Y-88265000D02*
X187960000Y-86995000D01*
M02*
