G04 #@! TF.GenerationSoftware,KiCad,Pcbnew,(5.1.5)-3*
G04 #@! TF.CreationDate,2020-03-10T22:42:51+01:00*
G04 #@! TF.ProjectId,PP Arduino,50502041-7264-4756-996e-6f2e6b696361,rev?*
G04 #@! TF.SameCoordinates,Original*
G04 #@! TF.FileFunction,Copper,L2,Bot*
G04 #@! TF.FilePolarity,Positive*
%FSLAX46Y46*%
G04 Gerber Fmt 4.6, Leading zero omitted, Abs format (unit mm)*
G04 Created by KiCad (PCBNEW (5.1.5)-3) date 2020-03-10 22:42:51*
%MOMM*%
%LPD*%
G04 APERTURE LIST*
%ADD10R,1.700000X1.700000*%
%ADD11O,1.700000X1.700000*%
%ADD12C,5.000000*%
%ADD13R,1.600000X1.600000*%
%ADD14O,1.600000X1.600000*%
%ADD15C,0.600000*%
%ADD16C,0.250000*%
%ADD17C,0.254000*%
G04 APERTURE END LIST*
D10*
X198120000Y-145415000D03*
D11*
X195580000Y-145415000D03*
X193040000Y-145415000D03*
X190500000Y-145415000D03*
X187960000Y-145415000D03*
X185420000Y-145415000D03*
X182880000Y-145415000D03*
X180340000Y-145415000D03*
X177800000Y-145415000D03*
X175260000Y-145415000D03*
X172720000Y-145415000D03*
X170180000Y-145415000D03*
X167640000Y-145415000D03*
X165100000Y-145415000D03*
X162560000Y-145415000D03*
X160020000Y-145415000D03*
X157480000Y-145415000D03*
X154940000Y-145415000D03*
X152400000Y-145415000D03*
X149860000Y-145415000D03*
X147320000Y-145415000D03*
X144780000Y-145415000D03*
X142240000Y-145415000D03*
X139700000Y-145415000D03*
X137160000Y-145415000D03*
X134620000Y-145415000D03*
X132080000Y-145415000D03*
X129540000Y-145415000D03*
X127000000Y-145415000D03*
X124460000Y-145415000D03*
X121920000Y-145415000D03*
X119380000Y-145415000D03*
X116840000Y-145415000D03*
X114300000Y-145415000D03*
X111760000Y-145415000D03*
X109220000Y-145415000D03*
X106680000Y-145415000D03*
X104140000Y-145415000D03*
X101600000Y-145415000D03*
D12*
X104140000Y-140335000D03*
X195580000Y-140335000D03*
X195580000Y-55880000D03*
X104140000Y-55880000D03*
D10*
X198120000Y-50800000D03*
D11*
X195580000Y-50800000D03*
X193040000Y-50800000D03*
X190500000Y-50800000D03*
X187960000Y-50800000D03*
X185420000Y-50800000D03*
X182880000Y-50800000D03*
X180340000Y-50800000D03*
X177800000Y-50800000D03*
X175260000Y-50800000D03*
X172720000Y-50800000D03*
X170180000Y-50800000D03*
X167640000Y-50800000D03*
X165100000Y-50800000D03*
X162560000Y-50800000D03*
X160020000Y-50800000D03*
X157480000Y-50800000D03*
X154940000Y-50800000D03*
X152400000Y-50800000D03*
X149860000Y-50800000D03*
X147320000Y-50800000D03*
X144780000Y-50800000D03*
X142240000Y-50800000D03*
X139700000Y-50800000D03*
X137160000Y-50800000D03*
X134620000Y-50800000D03*
X132080000Y-50800000D03*
X129540000Y-50800000D03*
X127000000Y-50800000D03*
X124460000Y-50800000D03*
X121920000Y-50800000D03*
X119380000Y-50800000D03*
X116840000Y-50800000D03*
X114300000Y-50800000D03*
X111760000Y-50800000D03*
X109220000Y-50800000D03*
X106680000Y-50800000D03*
X104140000Y-50800000D03*
X101600000Y-50800000D03*
D10*
X104140000Y-80010000D03*
D11*
X106680000Y-80010000D03*
X109220000Y-80010000D03*
X111760000Y-80010000D03*
X114300000Y-80010000D03*
X116840000Y-80010000D03*
X119380000Y-80010000D03*
X121920000Y-80010000D03*
X124460000Y-80010000D03*
X127000000Y-80010000D03*
D10*
X132080000Y-80010000D03*
D11*
X134620000Y-80010000D03*
X137160000Y-80010000D03*
X139700000Y-80010000D03*
X142240000Y-80010000D03*
X144780000Y-80010000D03*
X147320000Y-80010000D03*
X149860000Y-80010000D03*
X152400000Y-80010000D03*
X154940000Y-80010000D03*
D10*
X195580000Y-133985000D03*
D11*
X195580000Y-131445000D03*
D10*
X195580000Y-88265000D03*
D11*
X195580000Y-85725000D03*
D13*
X156210000Y-74295000D03*
D14*
X189230000Y-59055000D03*
X158750000Y-74295000D03*
X186690000Y-59055000D03*
X161290000Y-74295000D03*
X184150000Y-59055000D03*
X163830000Y-74295000D03*
X181610000Y-59055000D03*
X166370000Y-74295000D03*
X179070000Y-59055000D03*
X168910000Y-74295000D03*
X176530000Y-59055000D03*
X171450000Y-74295000D03*
X173990000Y-59055000D03*
X173990000Y-74295000D03*
X171450000Y-59055000D03*
X176530000Y-74295000D03*
X168910000Y-59055000D03*
X179070000Y-74295000D03*
X166370000Y-59055000D03*
X181610000Y-74295000D03*
X163830000Y-59055000D03*
X184150000Y-74295000D03*
X161290000Y-59055000D03*
X186690000Y-74295000D03*
X158750000Y-59055000D03*
X189230000Y-74295000D03*
X156210000Y-59055000D03*
X191770000Y-74295000D03*
X191770000Y-59055000D03*
D15*
X154940000Y-60325000D03*
X158750000Y-133985000D03*
X158750000Y-88265000D03*
X165735000Y-54610000D03*
X130810000Y-54610000D03*
X168275000Y-53975000D03*
X133350000Y-53975000D03*
X170815000Y-53340000D03*
X135890000Y-53340000D03*
X138430000Y-52705000D03*
X173355000Y-52705000D03*
X141605000Y-60960000D03*
X151765000Y-60960000D03*
X153035000Y-60960000D03*
X144145000Y-61595000D03*
X149225000Y-61595000D03*
X150495000Y-61595000D03*
X146685000Y-62230000D03*
X145415000Y-62865000D03*
X148590000Y-62865000D03*
X195580000Y-70485000D03*
X198755000Y-70485000D03*
X107315000Y-70485000D03*
X165735000Y-70485000D03*
X194945000Y-69850000D03*
X168275000Y-69850000D03*
X109855000Y-69850000D03*
X170815000Y-69215000D03*
X192405000Y-69215000D03*
X112395000Y-69215000D03*
X114935000Y-68580000D03*
X190500000Y-68580000D03*
X173355000Y-68580000D03*
X175895000Y-67945000D03*
X117475000Y-67945000D03*
X187960000Y-67945000D03*
X178435000Y-67310000D03*
X120015000Y-67310000D03*
X185420000Y-67310000D03*
X111125000Y-71755000D03*
X155575000Y-71755000D03*
X113665000Y-71120000D03*
X158115000Y-71120000D03*
X151130000Y-52070000D03*
X186690000Y-52705000D03*
X180975000Y-66675000D03*
X122555000Y-66675000D03*
X182880000Y-66675000D03*
X183515000Y-66040000D03*
X125095000Y-66040000D03*
X180340000Y-66040000D03*
X186055000Y-65405000D03*
X135255000Y-65405000D03*
X177800000Y-65405000D03*
X188595000Y-64770000D03*
X137795000Y-64770000D03*
X175260000Y-64770000D03*
X191135000Y-64135000D03*
X140335000Y-64135000D03*
X172720000Y-64135000D03*
X142875000Y-63500000D03*
X170180000Y-63500000D03*
X101600000Y-143510000D03*
X101600000Y-52705000D03*
X188595000Y-55245000D03*
X160655000Y-55245000D03*
D16*
X163830000Y-59055000D02*
X163830000Y-59690000D01*
X163830000Y-59690000D02*
X163195000Y-60325000D01*
X163195000Y-60325000D02*
X154940000Y-60325000D01*
X195580000Y-88265000D02*
X158750000Y-88265000D01*
X158750000Y-133985000D02*
X195580000Y-133985000D01*
X130810000Y-54610000D02*
X159385000Y-54610000D01*
X165735000Y-54610000D02*
X159385000Y-54610000D01*
X133350000Y-53975000D02*
X159385000Y-53975000D01*
X168275000Y-53975000D02*
X159385000Y-53975000D01*
X135890000Y-53340000D02*
X159385000Y-53340000D01*
X170815000Y-53340000D02*
X159385000Y-53340000D01*
X173355000Y-52705000D02*
X138430000Y-52705000D01*
X151765000Y-60960000D02*
X141605000Y-60960000D01*
X176530000Y-59055000D02*
X176530000Y-60325000D01*
X175895000Y-60960000D02*
X176530000Y-60325000D01*
X153035000Y-60960000D02*
X175895000Y-60960000D01*
X149225000Y-61595000D02*
X144145000Y-61595000D01*
X150495000Y-61595000D02*
X178435000Y-61595000D01*
X178435000Y-61595000D02*
X179070000Y-60960000D01*
X179070000Y-60960000D02*
X179070000Y-59055000D01*
X181610000Y-61595000D02*
X181610000Y-59055000D01*
X180975000Y-62230000D02*
X181610000Y-61595000D01*
X146685000Y-62230000D02*
X180975000Y-62230000D01*
X148590000Y-62865000D02*
X183515000Y-62865000D01*
X184150000Y-62230000D02*
X184150000Y-59055000D01*
X183515000Y-62865000D02*
X184150000Y-62230000D01*
X145415000Y-62865000D02*
X148590000Y-62865000D01*
X195580000Y-70485000D02*
X165735000Y-70485000D01*
X198755000Y-143510000D02*
X198120000Y-144145000D01*
X198120000Y-144145000D02*
X198120000Y-145415000D01*
X198755000Y-52705000D02*
X198120000Y-52070000D01*
X198120000Y-50800000D02*
X198120000Y-52070000D01*
X198755000Y-66040000D02*
X198755000Y-70485000D01*
X198755000Y-70485000D02*
X198755000Y-143510000D01*
X198755000Y-52705000D02*
X198755000Y-66040000D01*
X107315000Y-70485000D02*
X165735000Y-70485000D01*
X198120000Y-50800000D02*
X198120000Y-51435000D01*
X168275000Y-69850000D02*
X194945000Y-69850000D01*
X168275000Y-69850000D02*
X160655000Y-69850000D01*
X160655000Y-69850000D02*
X109855000Y-69850000D01*
X130175000Y-69215000D02*
X170815000Y-69215000D01*
X170815000Y-69215000D02*
X192405000Y-69215000D01*
X112395000Y-69215000D02*
X130175000Y-69215000D01*
X173355000Y-68580000D02*
X114935000Y-68580000D01*
X173355000Y-68580000D02*
X190500000Y-68580000D01*
X187960000Y-67945000D02*
X175895000Y-67945000D01*
X175895000Y-67945000D02*
X131445000Y-67945000D01*
X117475000Y-67945000D02*
X131445000Y-67945000D01*
X120015000Y-67310000D02*
X178435000Y-67310000D01*
X178435000Y-67310000D02*
X185420000Y-67310000D01*
X155575000Y-71755000D02*
X111125000Y-71755000D01*
X158115000Y-71120000D02*
X113665000Y-71120000D01*
X186055000Y-52070000D02*
X186690000Y-52705000D01*
X186055000Y-52070000D02*
X151130000Y-52070000D01*
X122555000Y-66675000D02*
X152400000Y-66675000D01*
X152400000Y-66675000D02*
X180975000Y-66675000D01*
X180975000Y-66675000D02*
X182880000Y-66675000D01*
X180340000Y-66040000D02*
X183515000Y-66040000D01*
X125095000Y-66040000D02*
X180340000Y-66040000D01*
X177800000Y-65405000D02*
X186055000Y-65405000D01*
X135255000Y-65405000D02*
X177800000Y-65405000D01*
X175260000Y-64770000D02*
X188595000Y-64770000D01*
X137795000Y-64770000D02*
X175260000Y-64770000D01*
X172720000Y-64135000D02*
X191135000Y-64135000D01*
X140335000Y-64135000D02*
X172720000Y-64135000D01*
X170180000Y-63500000D02*
X191135000Y-63500000D01*
X191770000Y-62865000D02*
X191770000Y-59055000D01*
X191135000Y-63500000D02*
X191770000Y-62865000D01*
X142875000Y-63500000D02*
X170180000Y-63500000D01*
X100965000Y-138430000D02*
X100965000Y-142240000D01*
X101600000Y-143510000D02*
X100965000Y-142875000D01*
X100965000Y-142875000D02*
X100965000Y-142240000D01*
X100965000Y-138430000D02*
X100965000Y-137795000D01*
X100965000Y-62865000D02*
X100965000Y-137795000D01*
X100965000Y-58420000D02*
X100965000Y-61595000D01*
X100965000Y-57785000D02*
X100965000Y-58420000D01*
X100965000Y-53340000D02*
X100965000Y-57785000D01*
X101600000Y-52705000D02*
X100965000Y-53340000D01*
X100965000Y-61595000D02*
X100965000Y-62865000D01*
X160655000Y-55245000D02*
X188595000Y-55245000D01*
D17*
G36*
X194426525Y-51746632D02*
G01*
X194633368Y-51953475D01*
X194876589Y-52115990D01*
X195146842Y-52227932D01*
X195433740Y-52285000D01*
X195726260Y-52285000D01*
X196013158Y-52227932D01*
X196283411Y-52115990D01*
X196526632Y-51953475D01*
X196658487Y-51821620D01*
X196680498Y-51894180D01*
X196739463Y-52004494D01*
X196818815Y-52101185D01*
X196915506Y-52180537D01*
X197025820Y-52239502D01*
X197145518Y-52275812D01*
X197270000Y-52288072D01*
X197391954Y-52288072D01*
X197414454Y-52362246D01*
X197485026Y-52494276D01*
X197543738Y-52565816D01*
X197580000Y-52610001D01*
X197608998Y-52633799D01*
X197995000Y-53019802D01*
X197995000Y-53861440D01*
X197578446Y-53444886D01*
X197064979Y-53101799D01*
X196494446Y-52865476D01*
X195888771Y-52745000D01*
X195271229Y-52745000D01*
X194665554Y-52865476D01*
X194095021Y-53101799D01*
X193581554Y-53444886D01*
X193144886Y-53881554D01*
X192801799Y-54395021D01*
X192565476Y-54965554D01*
X192445000Y-55571229D01*
X192445000Y-56188771D01*
X192565476Y-56794446D01*
X192801799Y-57364979D01*
X193144886Y-57878446D01*
X193581554Y-58315114D01*
X194095021Y-58658201D01*
X194665554Y-58894524D01*
X195271229Y-59015000D01*
X195888771Y-59015000D01*
X196494446Y-58894524D01*
X197064979Y-58658201D01*
X197578446Y-58315114D01*
X197995000Y-57898560D01*
X197995001Y-66002658D01*
X197995000Y-66002668D01*
X197995001Y-69939463D01*
X197926414Y-70042111D01*
X197855932Y-70212271D01*
X197820000Y-70392911D01*
X197820000Y-70577089D01*
X197855932Y-70757729D01*
X197926414Y-70927889D01*
X197995000Y-71030535D01*
X197995001Y-138316441D01*
X197578446Y-137899886D01*
X197064979Y-137556799D01*
X196494446Y-137320476D01*
X195888771Y-137200000D01*
X195271229Y-137200000D01*
X194665554Y-137320476D01*
X194095021Y-137556799D01*
X193581554Y-137899886D01*
X193144886Y-138336554D01*
X192801799Y-138850021D01*
X192565476Y-139420554D01*
X192445000Y-140026229D01*
X192445000Y-140643771D01*
X192565476Y-141249446D01*
X192801799Y-141819979D01*
X193144886Y-142333446D01*
X193581554Y-142770114D01*
X194095021Y-143113201D01*
X194665554Y-143349524D01*
X195271229Y-143470000D01*
X195888771Y-143470000D01*
X196494446Y-143349524D01*
X197064979Y-143113201D01*
X197578446Y-142770114D01*
X197995001Y-142353559D01*
X197995001Y-143195197D01*
X197609002Y-143581197D01*
X197579999Y-143604999D01*
X197524871Y-143672174D01*
X197485026Y-143720724D01*
X197441451Y-143802246D01*
X197414454Y-143852754D01*
X197391954Y-143926928D01*
X197270000Y-143926928D01*
X197145518Y-143939188D01*
X197025820Y-143975498D01*
X196915506Y-144034463D01*
X196818815Y-144113815D01*
X196739463Y-144210506D01*
X196680498Y-144320820D01*
X196658487Y-144393380D01*
X196526632Y-144261525D01*
X196283411Y-144099010D01*
X196013158Y-143987068D01*
X195726260Y-143930000D01*
X195433740Y-143930000D01*
X195146842Y-143987068D01*
X194876589Y-144099010D01*
X194633368Y-144261525D01*
X194426525Y-144468368D01*
X194310000Y-144642760D01*
X194193475Y-144468368D01*
X193986632Y-144261525D01*
X193743411Y-144099010D01*
X193473158Y-143987068D01*
X193186260Y-143930000D01*
X192893740Y-143930000D01*
X192606842Y-143987068D01*
X192336589Y-144099010D01*
X192093368Y-144261525D01*
X191886525Y-144468368D01*
X191770000Y-144642760D01*
X191653475Y-144468368D01*
X191446632Y-144261525D01*
X191203411Y-144099010D01*
X190933158Y-143987068D01*
X190646260Y-143930000D01*
X190353740Y-143930000D01*
X190066842Y-143987068D01*
X189796589Y-144099010D01*
X189553368Y-144261525D01*
X189346525Y-144468368D01*
X189230000Y-144642760D01*
X189113475Y-144468368D01*
X188906632Y-144261525D01*
X188663411Y-144099010D01*
X188393158Y-143987068D01*
X188106260Y-143930000D01*
X187813740Y-143930000D01*
X187526842Y-143987068D01*
X187256589Y-144099010D01*
X187013368Y-144261525D01*
X186806525Y-144468368D01*
X186690000Y-144642760D01*
X186573475Y-144468368D01*
X186366632Y-144261525D01*
X186123411Y-144099010D01*
X185853158Y-143987068D01*
X185566260Y-143930000D01*
X185273740Y-143930000D01*
X184986842Y-143987068D01*
X184716589Y-144099010D01*
X184473368Y-144261525D01*
X184266525Y-144468368D01*
X184150000Y-144642760D01*
X184033475Y-144468368D01*
X183826632Y-144261525D01*
X183583411Y-144099010D01*
X183313158Y-143987068D01*
X183026260Y-143930000D01*
X182733740Y-143930000D01*
X182446842Y-143987068D01*
X182176589Y-144099010D01*
X181933368Y-144261525D01*
X181726525Y-144468368D01*
X181610000Y-144642760D01*
X181493475Y-144468368D01*
X181286632Y-144261525D01*
X181043411Y-144099010D01*
X180773158Y-143987068D01*
X180486260Y-143930000D01*
X180193740Y-143930000D01*
X179906842Y-143987068D01*
X179636589Y-144099010D01*
X179393368Y-144261525D01*
X179186525Y-144468368D01*
X179070000Y-144642760D01*
X178953475Y-144468368D01*
X178746632Y-144261525D01*
X178503411Y-144099010D01*
X178233158Y-143987068D01*
X177946260Y-143930000D01*
X177653740Y-143930000D01*
X177366842Y-143987068D01*
X177096589Y-144099010D01*
X176853368Y-144261525D01*
X176646525Y-144468368D01*
X176530000Y-144642760D01*
X176413475Y-144468368D01*
X176206632Y-144261525D01*
X175963411Y-144099010D01*
X175693158Y-143987068D01*
X175406260Y-143930000D01*
X175113740Y-143930000D01*
X174826842Y-143987068D01*
X174556589Y-144099010D01*
X174313368Y-144261525D01*
X174106525Y-144468368D01*
X173990000Y-144642760D01*
X173873475Y-144468368D01*
X173666632Y-144261525D01*
X173423411Y-144099010D01*
X173153158Y-143987068D01*
X172866260Y-143930000D01*
X172573740Y-143930000D01*
X172286842Y-143987068D01*
X172016589Y-144099010D01*
X171773368Y-144261525D01*
X171566525Y-144468368D01*
X171450000Y-144642760D01*
X171333475Y-144468368D01*
X171126632Y-144261525D01*
X170883411Y-144099010D01*
X170613158Y-143987068D01*
X170326260Y-143930000D01*
X170033740Y-143930000D01*
X169746842Y-143987068D01*
X169476589Y-144099010D01*
X169233368Y-144261525D01*
X169026525Y-144468368D01*
X168910000Y-144642760D01*
X168793475Y-144468368D01*
X168586632Y-144261525D01*
X168343411Y-144099010D01*
X168073158Y-143987068D01*
X167786260Y-143930000D01*
X167493740Y-143930000D01*
X167206842Y-143987068D01*
X166936589Y-144099010D01*
X166693368Y-144261525D01*
X166486525Y-144468368D01*
X166370000Y-144642760D01*
X166253475Y-144468368D01*
X166046632Y-144261525D01*
X165803411Y-144099010D01*
X165533158Y-143987068D01*
X165246260Y-143930000D01*
X164953740Y-143930000D01*
X164666842Y-143987068D01*
X164396589Y-144099010D01*
X164153368Y-144261525D01*
X163946525Y-144468368D01*
X163830000Y-144642760D01*
X163713475Y-144468368D01*
X163506632Y-144261525D01*
X163263411Y-144099010D01*
X162993158Y-143987068D01*
X162706260Y-143930000D01*
X162413740Y-143930000D01*
X162126842Y-143987068D01*
X161856589Y-144099010D01*
X161613368Y-144261525D01*
X161406525Y-144468368D01*
X161290000Y-144642760D01*
X161173475Y-144468368D01*
X160966632Y-144261525D01*
X160723411Y-144099010D01*
X160453158Y-143987068D01*
X160166260Y-143930000D01*
X159873740Y-143930000D01*
X159586842Y-143987068D01*
X159316589Y-144099010D01*
X159073368Y-144261525D01*
X158866525Y-144468368D01*
X158744805Y-144650534D01*
X158675178Y-144533645D01*
X158480269Y-144317412D01*
X158246920Y-144143359D01*
X157984099Y-144018175D01*
X157836890Y-143973524D01*
X157607000Y-144094845D01*
X157607000Y-145288000D01*
X157627000Y-145288000D01*
X157627000Y-145542000D01*
X157607000Y-145542000D01*
X157607000Y-145562000D01*
X157353000Y-145562000D01*
X157353000Y-145542000D01*
X157333000Y-145542000D01*
X157333000Y-145288000D01*
X157353000Y-145288000D01*
X157353000Y-144094845D01*
X157123110Y-143973524D01*
X156975901Y-144018175D01*
X156713080Y-144143359D01*
X156479731Y-144317412D01*
X156284822Y-144533645D01*
X156215195Y-144650534D01*
X156093475Y-144468368D01*
X155886632Y-144261525D01*
X155643411Y-144099010D01*
X155373158Y-143987068D01*
X155086260Y-143930000D01*
X154793740Y-143930000D01*
X154506842Y-143987068D01*
X154236589Y-144099010D01*
X153993368Y-144261525D01*
X153786525Y-144468368D01*
X153670000Y-144642760D01*
X153553475Y-144468368D01*
X153346632Y-144261525D01*
X153103411Y-144099010D01*
X152833158Y-143987068D01*
X152546260Y-143930000D01*
X152253740Y-143930000D01*
X151966842Y-143987068D01*
X151696589Y-144099010D01*
X151453368Y-144261525D01*
X151246525Y-144468368D01*
X151130000Y-144642760D01*
X151013475Y-144468368D01*
X150806632Y-144261525D01*
X150563411Y-144099010D01*
X150293158Y-143987068D01*
X150006260Y-143930000D01*
X149713740Y-143930000D01*
X149426842Y-143987068D01*
X149156589Y-144099010D01*
X148913368Y-144261525D01*
X148706525Y-144468368D01*
X148590000Y-144642760D01*
X148473475Y-144468368D01*
X148266632Y-144261525D01*
X148023411Y-144099010D01*
X147753158Y-143987068D01*
X147466260Y-143930000D01*
X147173740Y-143930000D01*
X146886842Y-143987068D01*
X146616589Y-144099010D01*
X146373368Y-144261525D01*
X146166525Y-144468368D01*
X146050000Y-144642760D01*
X145933475Y-144468368D01*
X145726632Y-144261525D01*
X145483411Y-144099010D01*
X145213158Y-143987068D01*
X144926260Y-143930000D01*
X144633740Y-143930000D01*
X144346842Y-143987068D01*
X144076589Y-144099010D01*
X143833368Y-144261525D01*
X143626525Y-144468368D01*
X143510000Y-144642760D01*
X143393475Y-144468368D01*
X143186632Y-144261525D01*
X142943411Y-144099010D01*
X142673158Y-143987068D01*
X142386260Y-143930000D01*
X142093740Y-143930000D01*
X141806842Y-143987068D01*
X141536589Y-144099010D01*
X141293368Y-144261525D01*
X141086525Y-144468368D01*
X140970000Y-144642760D01*
X140853475Y-144468368D01*
X140646632Y-144261525D01*
X140403411Y-144099010D01*
X140133158Y-143987068D01*
X139846260Y-143930000D01*
X139553740Y-143930000D01*
X139266842Y-143987068D01*
X138996589Y-144099010D01*
X138753368Y-144261525D01*
X138546525Y-144468368D01*
X138430000Y-144642760D01*
X138313475Y-144468368D01*
X138106632Y-144261525D01*
X137863411Y-144099010D01*
X137593158Y-143987068D01*
X137306260Y-143930000D01*
X137013740Y-143930000D01*
X136726842Y-143987068D01*
X136456589Y-144099010D01*
X136213368Y-144261525D01*
X136006525Y-144468368D01*
X135890000Y-144642760D01*
X135773475Y-144468368D01*
X135566632Y-144261525D01*
X135323411Y-144099010D01*
X135053158Y-143987068D01*
X134766260Y-143930000D01*
X134473740Y-143930000D01*
X134186842Y-143987068D01*
X133916589Y-144099010D01*
X133673368Y-144261525D01*
X133466525Y-144468368D01*
X133350000Y-144642760D01*
X133233475Y-144468368D01*
X133026632Y-144261525D01*
X132783411Y-144099010D01*
X132513158Y-143987068D01*
X132226260Y-143930000D01*
X131933740Y-143930000D01*
X131646842Y-143987068D01*
X131376589Y-144099010D01*
X131133368Y-144261525D01*
X130926525Y-144468368D01*
X130810000Y-144642760D01*
X130693475Y-144468368D01*
X130486632Y-144261525D01*
X130243411Y-144099010D01*
X129973158Y-143987068D01*
X129686260Y-143930000D01*
X129393740Y-143930000D01*
X129106842Y-143987068D01*
X128836589Y-144099010D01*
X128593368Y-144261525D01*
X128386525Y-144468368D01*
X128270000Y-144642760D01*
X128153475Y-144468368D01*
X127946632Y-144261525D01*
X127703411Y-144099010D01*
X127433158Y-143987068D01*
X127146260Y-143930000D01*
X126853740Y-143930000D01*
X126566842Y-143987068D01*
X126296589Y-144099010D01*
X126053368Y-144261525D01*
X125846525Y-144468368D01*
X125730000Y-144642760D01*
X125613475Y-144468368D01*
X125406632Y-144261525D01*
X125163411Y-144099010D01*
X124893158Y-143987068D01*
X124606260Y-143930000D01*
X124313740Y-143930000D01*
X124026842Y-143987068D01*
X123756589Y-144099010D01*
X123513368Y-144261525D01*
X123306525Y-144468368D01*
X123190000Y-144642760D01*
X123073475Y-144468368D01*
X122866632Y-144261525D01*
X122623411Y-144099010D01*
X122353158Y-143987068D01*
X122066260Y-143930000D01*
X121773740Y-143930000D01*
X121486842Y-143987068D01*
X121216589Y-144099010D01*
X120973368Y-144261525D01*
X120766525Y-144468368D01*
X120650000Y-144642760D01*
X120533475Y-144468368D01*
X120326632Y-144261525D01*
X120083411Y-144099010D01*
X119813158Y-143987068D01*
X119526260Y-143930000D01*
X119233740Y-143930000D01*
X118946842Y-143987068D01*
X118676589Y-144099010D01*
X118433368Y-144261525D01*
X118226525Y-144468368D01*
X118110000Y-144642760D01*
X117993475Y-144468368D01*
X117786632Y-144261525D01*
X117543411Y-144099010D01*
X117273158Y-143987068D01*
X116986260Y-143930000D01*
X116693740Y-143930000D01*
X116406842Y-143987068D01*
X116136589Y-144099010D01*
X115893368Y-144261525D01*
X115686525Y-144468368D01*
X115570000Y-144642760D01*
X115453475Y-144468368D01*
X115246632Y-144261525D01*
X115003411Y-144099010D01*
X114733158Y-143987068D01*
X114446260Y-143930000D01*
X114153740Y-143930000D01*
X113866842Y-143987068D01*
X113596589Y-144099010D01*
X113353368Y-144261525D01*
X113146525Y-144468368D01*
X113030000Y-144642760D01*
X112913475Y-144468368D01*
X112706632Y-144261525D01*
X112463411Y-144099010D01*
X112193158Y-143987068D01*
X111906260Y-143930000D01*
X111613740Y-143930000D01*
X111326842Y-143987068D01*
X111056589Y-144099010D01*
X110813368Y-144261525D01*
X110606525Y-144468368D01*
X110490000Y-144642760D01*
X110373475Y-144468368D01*
X110166632Y-144261525D01*
X109923411Y-144099010D01*
X109653158Y-143987068D01*
X109366260Y-143930000D01*
X109073740Y-143930000D01*
X108786842Y-143987068D01*
X108516589Y-144099010D01*
X108273368Y-144261525D01*
X108066525Y-144468368D01*
X107950000Y-144642760D01*
X107833475Y-144468368D01*
X107626632Y-144261525D01*
X107383411Y-144099010D01*
X107113158Y-143987068D01*
X106826260Y-143930000D01*
X106533740Y-143930000D01*
X106246842Y-143987068D01*
X105976589Y-144099010D01*
X105733368Y-144261525D01*
X105526525Y-144468368D01*
X105410000Y-144642760D01*
X105293475Y-144468368D01*
X105086632Y-144261525D01*
X104843411Y-144099010D01*
X104573158Y-143987068D01*
X104286260Y-143930000D01*
X103993740Y-143930000D01*
X103706842Y-143987068D01*
X103436589Y-144099010D01*
X103193368Y-144261525D01*
X102986525Y-144468368D01*
X102870000Y-144642760D01*
X102753475Y-144468368D01*
X102546632Y-144261525D01*
X102321316Y-144110974D01*
X102326262Y-144106028D01*
X102428586Y-143952889D01*
X102499068Y-143782729D01*
X102535000Y-143602089D01*
X102535000Y-143417911D01*
X102499068Y-143237271D01*
X102428586Y-143067111D01*
X102326262Y-142913972D01*
X102264662Y-142852372D01*
X102655021Y-143113201D01*
X103225554Y-143349524D01*
X103831229Y-143470000D01*
X104448771Y-143470000D01*
X105054446Y-143349524D01*
X105624979Y-143113201D01*
X106138446Y-142770114D01*
X106575114Y-142333446D01*
X106918201Y-141819979D01*
X107154524Y-141249446D01*
X107275000Y-140643771D01*
X107275000Y-140026229D01*
X107154524Y-139420554D01*
X106918201Y-138850021D01*
X106575114Y-138336554D01*
X106138446Y-137899886D01*
X105624979Y-137556799D01*
X105054446Y-137320476D01*
X104448771Y-137200000D01*
X103831229Y-137200000D01*
X103225554Y-137320476D01*
X102655021Y-137556799D01*
X102141554Y-137899886D01*
X101725000Y-138316440D01*
X101725000Y-133892911D01*
X157815000Y-133892911D01*
X157815000Y-134077089D01*
X157850932Y-134257729D01*
X157921414Y-134427889D01*
X158023738Y-134581028D01*
X158153972Y-134711262D01*
X158307111Y-134813586D01*
X158477271Y-134884068D01*
X158657911Y-134920000D01*
X158842089Y-134920000D01*
X159022729Y-134884068D01*
X159192889Y-134813586D01*
X159295535Y-134745000D01*
X194091928Y-134745000D01*
X194091928Y-134835000D01*
X194104188Y-134959482D01*
X194140498Y-135079180D01*
X194199463Y-135189494D01*
X194278815Y-135286185D01*
X194375506Y-135365537D01*
X194485820Y-135424502D01*
X194605518Y-135460812D01*
X194730000Y-135473072D01*
X196430000Y-135473072D01*
X196554482Y-135460812D01*
X196674180Y-135424502D01*
X196784494Y-135365537D01*
X196881185Y-135286185D01*
X196960537Y-135189494D01*
X197019502Y-135079180D01*
X197055812Y-134959482D01*
X197068072Y-134835000D01*
X197068072Y-133135000D01*
X197055812Y-133010518D01*
X197019502Y-132890820D01*
X196960537Y-132780506D01*
X196881185Y-132683815D01*
X196784494Y-132604463D01*
X196674180Y-132545498D01*
X196593534Y-132521034D01*
X196677588Y-132445269D01*
X196851641Y-132211920D01*
X196976825Y-131949099D01*
X197021476Y-131801890D01*
X196900155Y-131572000D01*
X195707000Y-131572000D01*
X195707000Y-131592000D01*
X195453000Y-131592000D01*
X195453000Y-131572000D01*
X194259845Y-131572000D01*
X194138524Y-131801890D01*
X194183175Y-131949099D01*
X194308359Y-132211920D01*
X194482412Y-132445269D01*
X194566466Y-132521034D01*
X194485820Y-132545498D01*
X194375506Y-132604463D01*
X194278815Y-132683815D01*
X194199463Y-132780506D01*
X194140498Y-132890820D01*
X194104188Y-133010518D01*
X194091928Y-133135000D01*
X194091928Y-133225000D01*
X159295535Y-133225000D01*
X159192889Y-133156414D01*
X159022729Y-133085932D01*
X158842089Y-133050000D01*
X158657911Y-133050000D01*
X158477271Y-133085932D01*
X158307111Y-133156414D01*
X158153972Y-133258738D01*
X158023738Y-133388972D01*
X157921414Y-133542111D01*
X157850932Y-133712271D01*
X157815000Y-133892911D01*
X101725000Y-133892911D01*
X101725000Y-131088110D01*
X194138524Y-131088110D01*
X194259845Y-131318000D01*
X195453000Y-131318000D01*
X195453000Y-130124186D01*
X195707000Y-130124186D01*
X195707000Y-131318000D01*
X196900155Y-131318000D01*
X197021476Y-131088110D01*
X196976825Y-130940901D01*
X196851641Y-130678080D01*
X196677588Y-130444731D01*
X196461355Y-130249822D01*
X196211252Y-130100843D01*
X195936891Y-130003519D01*
X195707000Y-130124186D01*
X195453000Y-130124186D01*
X195223109Y-130003519D01*
X194948748Y-130100843D01*
X194698645Y-130249822D01*
X194482412Y-130444731D01*
X194308359Y-130678080D01*
X194183175Y-130940901D01*
X194138524Y-131088110D01*
X101725000Y-131088110D01*
X101725000Y-88172911D01*
X157815000Y-88172911D01*
X157815000Y-88357089D01*
X157850932Y-88537729D01*
X157921414Y-88707889D01*
X158023738Y-88861028D01*
X158153972Y-88991262D01*
X158307111Y-89093586D01*
X158477271Y-89164068D01*
X158657911Y-89200000D01*
X158842089Y-89200000D01*
X159022729Y-89164068D01*
X159192889Y-89093586D01*
X159295535Y-89025000D01*
X194091928Y-89025000D01*
X194091928Y-89115000D01*
X194104188Y-89239482D01*
X194140498Y-89359180D01*
X194199463Y-89469494D01*
X194278815Y-89566185D01*
X194375506Y-89645537D01*
X194485820Y-89704502D01*
X194605518Y-89740812D01*
X194730000Y-89753072D01*
X196430000Y-89753072D01*
X196554482Y-89740812D01*
X196674180Y-89704502D01*
X196784494Y-89645537D01*
X196881185Y-89566185D01*
X196960537Y-89469494D01*
X197019502Y-89359180D01*
X197055812Y-89239482D01*
X197068072Y-89115000D01*
X197068072Y-87415000D01*
X197055812Y-87290518D01*
X197019502Y-87170820D01*
X196960537Y-87060506D01*
X196881185Y-86963815D01*
X196784494Y-86884463D01*
X196674180Y-86825498D01*
X196593534Y-86801034D01*
X196677588Y-86725269D01*
X196851641Y-86491920D01*
X196976825Y-86229099D01*
X197021476Y-86081890D01*
X196900155Y-85852000D01*
X195707000Y-85852000D01*
X195707000Y-85872000D01*
X195453000Y-85872000D01*
X195453000Y-85852000D01*
X194259845Y-85852000D01*
X194138524Y-86081890D01*
X194183175Y-86229099D01*
X194308359Y-86491920D01*
X194482412Y-86725269D01*
X194566466Y-86801034D01*
X194485820Y-86825498D01*
X194375506Y-86884463D01*
X194278815Y-86963815D01*
X194199463Y-87060506D01*
X194140498Y-87170820D01*
X194104188Y-87290518D01*
X194091928Y-87415000D01*
X194091928Y-87505000D01*
X159295535Y-87505000D01*
X159192889Y-87436414D01*
X159022729Y-87365932D01*
X158842089Y-87330000D01*
X158657911Y-87330000D01*
X158477271Y-87365932D01*
X158307111Y-87436414D01*
X158153972Y-87538738D01*
X158023738Y-87668972D01*
X157921414Y-87822111D01*
X157850932Y-87992271D01*
X157815000Y-88172911D01*
X101725000Y-88172911D01*
X101725000Y-85368110D01*
X194138524Y-85368110D01*
X194259845Y-85598000D01*
X195453000Y-85598000D01*
X195453000Y-84404186D01*
X195707000Y-84404186D01*
X195707000Y-85598000D01*
X196900155Y-85598000D01*
X197021476Y-85368110D01*
X196976825Y-85220901D01*
X196851641Y-84958080D01*
X196677588Y-84724731D01*
X196461355Y-84529822D01*
X196211252Y-84380843D01*
X195936891Y-84283519D01*
X195707000Y-84404186D01*
X195453000Y-84404186D01*
X195223109Y-84283519D01*
X194948748Y-84380843D01*
X194698645Y-84529822D01*
X194482412Y-84724731D01*
X194308359Y-84958080D01*
X194183175Y-85220901D01*
X194138524Y-85368110D01*
X101725000Y-85368110D01*
X101725000Y-79160000D01*
X102651928Y-79160000D01*
X102651928Y-80860000D01*
X102664188Y-80984482D01*
X102700498Y-81104180D01*
X102759463Y-81214494D01*
X102838815Y-81311185D01*
X102935506Y-81390537D01*
X103045820Y-81449502D01*
X103165518Y-81485812D01*
X103290000Y-81498072D01*
X104990000Y-81498072D01*
X105114482Y-81485812D01*
X105234180Y-81449502D01*
X105344494Y-81390537D01*
X105441185Y-81311185D01*
X105520537Y-81214494D01*
X105579502Y-81104180D01*
X105601513Y-81031620D01*
X105733368Y-81163475D01*
X105976589Y-81325990D01*
X106246842Y-81437932D01*
X106533740Y-81495000D01*
X106826260Y-81495000D01*
X107113158Y-81437932D01*
X107383411Y-81325990D01*
X107626632Y-81163475D01*
X107833475Y-80956632D01*
X107950000Y-80782240D01*
X108066525Y-80956632D01*
X108273368Y-81163475D01*
X108516589Y-81325990D01*
X108786842Y-81437932D01*
X109073740Y-81495000D01*
X109366260Y-81495000D01*
X109653158Y-81437932D01*
X109923411Y-81325990D01*
X110166632Y-81163475D01*
X110373475Y-80956632D01*
X110490000Y-80782240D01*
X110606525Y-80956632D01*
X110813368Y-81163475D01*
X111056589Y-81325990D01*
X111326842Y-81437932D01*
X111613740Y-81495000D01*
X111906260Y-81495000D01*
X112193158Y-81437932D01*
X112463411Y-81325990D01*
X112706632Y-81163475D01*
X112913475Y-80956632D01*
X113030000Y-80782240D01*
X113146525Y-80956632D01*
X113353368Y-81163475D01*
X113596589Y-81325990D01*
X113866842Y-81437932D01*
X114153740Y-81495000D01*
X114446260Y-81495000D01*
X114733158Y-81437932D01*
X115003411Y-81325990D01*
X115246632Y-81163475D01*
X115453475Y-80956632D01*
X115570000Y-80782240D01*
X115686525Y-80956632D01*
X115893368Y-81163475D01*
X116136589Y-81325990D01*
X116406842Y-81437932D01*
X116693740Y-81495000D01*
X116986260Y-81495000D01*
X117273158Y-81437932D01*
X117543411Y-81325990D01*
X117786632Y-81163475D01*
X117993475Y-80956632D01*
X118110000Y-80782240D01*
X118226525Y-80956632D01*
X118433368Y-81163475D01*
X118676589Y-81325990D01*
X118946842Y-81437932D01*
X119233740Y-81495000D01*
X119526260Y-81495000D01*
X119813158Y-81437932D01*
X120083411Y-81325990D01*
X120326632Y-81163475D01*
X120533475Y-80956632D01*
X120650000Y-80782240D01*
X120766525Y-80956632D01*
X120973368Y-81163475D01*
X121216589Y-81325990D01*
X121486842Y-81437932D01*
X121773740Y-81495000D01*
X122066260Y-81495000D01*
X122353158Y-81437932D01*
X122623411Y-81325990D01*
X122866632Y-81163475D01*
X123073475Y-80956632D01*
X123190000Y-80782240D01*
X123306525Y-80956632D01*
X123513368Y-81163475D01*
X123756589Y-81325990D01*
X124026842Y-81437932D01*
X124313740Y-81495000D01*
X124606260Y-81495000D01*
X124893158Y-81437932D01*
X125163411Y-81325990D01*
X125406632Y-81163475D01*
X125613475Y-80956632D01*
X125730000Y-80782240D01*
X125846525Y-80956632D01*
X126053368Y-81163475D01*
X126296589Y-81325990D01*
X126566842Y-81437932D01*
X126853740Y-81495000D01*
X127146260Y-81495000D01*
X127433158Y-81437932D01*
X127703411Y-81325990D01*
X127946632Y-81163475D01*
X128153475Y-80956632D01*
X128315990Y-80713411D01*
X128427932Y-80443158D01*
X128485000Y-80156260D01*
X128485000Y-79863740D01*
X128427932Y-79576842D01*
X128315990Y-79306589D01*
X128218043Y-79160000D01*
X130591928Y-79160000D01*
X130591928Y-80860000D01*
X130604188Y-80984482D01*
X130640498Y-81104180D01*
X130699463Y-81214494D01*
X130778815Y-81311185D01*
X130875506Y-81390537D01*
X130985820Y-81449502D01*
X131105518Y-81485812D01*
X131230000Y-81498072D01*
X132930000Y-81498072D01*
X133054482Y-81485812D01*
X133174180Y-81449502D01*
X133284494Y-81390537D01*
X133381185Y-81311185D01*
X133460537Y-81214494D01*
X133519502Y-81104180D01*
X133541513Y-81031620D01*
X133673368Y-81163475D01*
X133916589Y-81325990D01*
X134186842Y-81437932D01*
X134473740Y-81495000D01*
X134766260Y-81495000D01*
X135053158Y-81437932D01*
X135323411Y-81325990D01*
X135566632Y-81163475D01*
X135773475Y-80956632D01*
X135890000Y-80782240D01*
X136006525Y-80956632D01*
X136213368Y-81163475D01*
X136456589Y-81325990D01*
X136726842Y-81437932D01*
X137013740Y-81495000D01*
X137306260Y-81495000D01*
X137593158Y-81437932D01*
X137863411Y-81325990D01*
X138106632Y-81163475D01*
X138313475Y-80956632D01*
X138430000Y-80782240D01*
X138546525Y-80956632D01*
X138753368Y-81163475D01*
X138996589Y-81325990D01*
X139266842Y-81437932D01*
X139553740Y-81495000D01*
X139846260Y-81495000D01*
X140133158Y-81437932D01*
X140403411Y-81325990D01*
X140646632Y-81163475D01*
X140853475Y-80956632D01*
X140970000Y-80782240D01*
X141086525Y-80956632D01*
X141293368Y-81163475D01*
X141536589Y-81325990D01*
X141806842Y-81437932D01*
X142093740Y-81495000D01*
X142386260Y-81495000D01*
X142673158Y-81437932D01*
X142943411Y-81325990D01*
X143186632Y-81163475D01*
X143393475Y-80956632D01*
X143510000Y-80782240D01*
X143626525Y-80956632D01*
X143833368Y-81163475D01*
X144076589Y-81325990D01*
X144346842Y-81437932D01*
X144633740Y-81495000D01*
X144926260Y-81495000D01*
X145213158Y-81437932D01*
X145483411Y-81325990D01*
X145726632Y-81163475D01*
X145933475Y-80956632D01*
X146050000Y-80782240D01*
X146166525Y-80956632D01*
X146373368Y-81163475D01*
X146616589Y-81325990D01*
X146886842Y-81437932D01*
X147173740Y-81495000D01*
X147466260Y-81495000D01*
X147753158Y-81437932D01*
X148023411Y-81325990D01*
X148266632Y-81163475D01*
X148473475Y-80956632D01*
X148590000Y-80782240D01*
X148706525Y-80956632D01*
X148913368Y-81163475D01*
X149156589Y-81325990D01*
X149426842Y-81437932D01*
X149713740Y-81495000D01*
X150006260Y-81495000D01*
X150293158Y-81437932D01*
X150563411Y-81325990D01*
X150806632Y-81163475D01*
X151013475Y-80956632D01*
X151130000Y-80782240D01*
X151246525Y-80956632D01*
X151453368Y-81163475D01*
X151696589Y-81325990D01*
X151966842Y-81437932D01*
X152253740Y-81495000D01*
X152546260Y-81495000D01*
X152833158Y-81437932D01*
X153103411Y-81325990D01*
X153346632Y-81163475D01*
X153553475Y-80956632D01*
X153670000Y-80782240D01*
X153786525Y-80956632D01*
X153993368Y-81163475D01*
X154236589Y-81325990D01*
X154506842Y-81437932D01*
X154793740Y-81495000D01*
X155086260Y-81495000D01*
X155373158Y-81437932D01*
X155643411Y-81325990D01*
X155886632Y-81163475D01*
X156093475Y-80956632D01*
X156255990Y-80713411D01*
X156367932Y-80443158D01*
X156425000Y-80156260D01*
X156425000Y-79863740D01*
X156367932Y-79576842D01*
X156255990Y-79306589D01*
X156093475Y-79063368D01*
X155886632Y-78856525D01*
X155643411Y-78694010D01*
X155373158Y-78582068D01*
X155086260Y-78525000D01*
X154793740Y-78525000D01*
X154506842Y-78582068D01*
X154236589Y-78694010D01*
X153993368Y-78856525D01*
X153786525Y-79063368D01*
X153670000Y-79237760D01*
X153553475Y-79063368D01*
X153346632Y-78856525D01*
X153103411Y-78694010D01*
X152833158Y-78582068D01*
X152546260Y-78525000D01*
X152253740Y-78525000D01*
X151966842Y-78582068D01*
X151696589Y-78694010D01*
X151453368Y-78856525D01*
X151246525Y-79063368D01*
X151130000Y-79237760D01*
X151013475Y-79063368D01*
X150806632Y-78856525D01*
X150563411Y-78694010D01*
X150293158Y-78582068D01*
X150006260Y-78525000D01*
X149713740Y-78525000D01*
X149426842Y-78582068D01*
X149156589Y-78694010D01*
X148913368Y-78856525D01*
X148706525Y-79063368D01*
X148590000Y-79237760D01*
X148473475Y-79063368D01*
X148266632Y-78856525D01*
X148023411Y-78694010D01*
X147753158Y-78582068D01*
X147466260Y-78525000D01*
X147173740Y-78525000D01*
X146886842Y-78582068D01*
X146616589Y-78694010D01*
X146373368Y-78856525D01*
X146166525Y-79063368D01*
X146050000Y-79237760D01*
X145933475Y-79063368D01*
X145726632Y-78856525D01*
X145483411Y-78694010D01*
X145213158Y-78582068D01*
X144926260Y-78525000D01*
X144633740Y-78525000D01*
X144346842Y-78582068D01*
X144076589Y-78694010D01*
X143833368Y-78856525D01*
X143626525Y-79063368D01*
X143510000Y-79237760D01*
X143393475Y-79063368D01*
X143186632Y-78856525D01*
X142943411Y-78694010D01*
X142673158Y-78582068D01*
X142386260Y-78525000D01*
X142093740Y-78525000D01*
X141806842Y-78582068D01*
X141536589Y-78694010D01*
X141293368Y-78856525D01*
X141086525Y-79063368D01*
X140970000Y-79237760D01*
X140853475Y-79063368D01*
X140646632Y-78856525D01*
X140403411Y-78694010D01*
X140133158Y-78582068D01*
X139846260Y-78525000D01*
X139553740Y-78525000D01*
X139266842Y-78582068D01*
X138996589Y-78694010D01*
X138753368Y-78856525D01*
X138546525Y-79063368D01*
X138430000Y-79237760D01*
X138313475Y-79063368D01*
X138106632Y-78856525D01*
X137863411Y-78694010D01*
X137593158Y-78582068D01*
X137306260Y-78525000D01*
X137013740Y-78525000D01*
X136726842Y-78582068D01*
X136456589Y-78694010D01*
X136213368Y-78856525D01*
X136006525Y-79063368D01*
X135890000Y-79237760D01*
X135773475Y-79063368D01*
X135566632Y-78856525D01*
X135323411Y-78694010D01*
X135053158Y-78582068D01*
X134766260Y-78525000D01*
X134473740Y-78525000D01*
X134186842Y-78582068D01*
X133916589Y-78694010D01*
X133673368Y-78856525D01*
X133541513Y-78988380D01*
X133519502Y-78915820D01*
X133460537Y-78805506D01*
X133381185Y-78708815D01*
X133284494Y-78629463D01*
X133174180Y-78570498D01*
X133054482Y-78534188D01*
X132930000Y-78521928D01*
X131230000Y-78521928D01*
X131105518Y-78534188D01*
X130985820Y-78570498D01*
X130875506Y-78629463D01*
X130778815Y-78708815D01*
X130699463Y-78805506D01*
X130640498Y-78915820D01*
X130604188Y-79035518D01*
X130591928Y-79160000D01*
X128218043Y-79160000D01*
X128153475Y-79063368D01*
X127946632Y-78856525D01*
X127703411Y-78694010D01*
X127433158Y-78582068D01*
X127146260Y-78525000D01*
X126853740Y-78525000D01*
X126566842Y-78582068D01*
X126296589Y-78694010D01*
X126053368Y-78856525D01*
X125846525Y-79063368D01*
X125730000Y-79237760D01*
X125613475Y-79063368D01*
X125406632Y-78856525D01*
X125163411Y-78694010D01*
X124893158Y-78582068D01*
X124606260Y-78525000D01*
X124313740Y-78525000D01*
X124026842Y-78582068D01*
X123756589Y-78694010D01*
X123513368Y-78856525D01*
X123306525Y-79063368D01*
X123190000Y-79237760D01*
X123073475Y-79063368D01*
X122866632Y-78856525D01*
X122623411Y-78694010D01*
X122353158Y-78582068D01*
X122066260Y-78525000D01*
X121773740Y-78525000D01*
X121486842Y-78582068D01*
X121216589Y-78694010D01*
X120973368Y-78856525D01*
X120766525Y-79063368D01*
X120650000Y-79237760D01*
X120533475Y-79063368D01*
X120326632Y-78856525D01*
X120083411Y-78694010D01*
X119813158Y-78582068D01*
X119526260Y-78525000D01*
X119233740Y-78525000D01*
X118946842Y-78582068D01*
X118676589Y-78694010D01*
X118433368Y-78856525D01*
X118226525Y-79063368D01*
X118110000Y-79237760D01*
X117993475Y-79063368D01*
X117786632Y-78856525D01*
X117543411Y-78694010D01*
X117273158Y-78582068D01*
X116986260Y-78525000D01*
X116693740Y-78525000D01*
X116406842Y-78582068D01*
X116136589Y-78694010D01*
X115893368Y-78856525D01*
X115686525Y-79063368D01*
X115570000Y-79237760D01*
X115453475Y-79063368D01*
X115246632Y-78856525D01*
X115003411Y-78694010D01*
X114733158Y-78582068D01*
X114446260Y-78525000D01*
X114153740Y-78525000D01*
X113866842Y-78582068D01*
X113596589Y-78694010D01*
X113353368Y-78856525D01*
X113146525Y-79063368D01*
X113030000Y-79237760D01*
X112913475Y-79063368D01*
X112706632Y-78856525D01*
X112463411Y-78694010D01*
X112193158Y-78582068D01*
X111906260Y-78525000D01*
X111613740Y-78525000D01*
X111326842Y-78582068D01*
X111056589Y-78694010D01*
X110813368Y-78856525D01*
X110606525Y-79063368D01*
X110490000Y-79237760D01*
X110373475Y-79063368D01*
X110166632Y-78856525D01*
X109923411Y-78694010D01*
X109653158Y-78582068D01*
X109366260Y-78525000D01*
X109073740Y-78525000D01*
X108786842Y-78582068D01*
X108516589Y-78694010D01*
X108273368Y-78856525D01*
X108066525Y-79063368D01*
X107950000Y-79237760D01*
X107833475Y-79063368D01*
X107626632Y-78856525D01*
X107383411Y-78694010D01*
X107113158Y-78582068D01*
X106826260Y-78525000D01*
X106533740Y-78525000D01*
X106246842Y-78582068D01*
X105976589Y-78694010D01*
X105733368Y-78856525D01*
X105601513Y-78988380D01*
X105579502Y-78915820D01*
X105520537Y-78805506D01*
X105441185Y-78708815D01*
X105344494Y-78629463D01*
X105234180Y-78570498D01*
X105114482Y-78534188D01*
X104990000Y-78521928D01*
X103290000Y-78521928D01*
X103165518Y-78534188D01*
X103045820Y-78570498D01*
X102935506Y-78629463D01*
X102838815Y-78708815D01*
X102759463Y-78805506D01*
X102700498Y-78915820D01*
X102664188Y-79035518D01*
X102651928Y-79160000D01*
X101725000Y-79160000D01*
X101725000Y-73495000D01*
X154771928Y-73495000D01*
X154771928Y-75095000D01*
X154784188Y-75219482D01*
X154820498Y-75339180D01*
X154879463Y-75449494D01*
X154958815Y-75546185D01*
X155055506Y-75625537D01*
X155165820Y-75684502D01*
X155285518Y-75720812D01*
X155410000Y-75733072D01*
X157010000Y-75733072D01*
X157134482Y-75720812D01*
X157254180Y-75684502D01*
X157364494Y-75625537D01*
X157461185Y-75546185D01*
X157540537Y-75449494D01*
X157599502Y-75339180D01*
X157635812Y-75219482D01*
X157636643Y-75211039D01*
X157835241Y-75409637D01*
X158070273Y-75566680D01*
X158331426Y-75674853D01*
X158608665Y-75730000D01*
X158891335Y-75730000D01*
X159168574Y-75674853D01*
X159429727Y-75566680D01*
X159664759Y-75409637D01*
X159864637Y-75209759D01*
X160020000Y-74977241D01*
X160175363Y-75209759D01*
X160375241Y-75409637D01*
X160610273Y-75566680D01*
X160871426Y-75674853D01*
X161148665Y-75730000D01*
X161431335Y-75730000D01*
X161708574Y-75674853D01*
X161969727Y-75566680D01*
X162204759Y-75409637D01*
X162404637Y-75209759D01*
X162561680Y-74974727D01*
X162566067Y-74964135D01*
X162677615Y-75150131D01*
X162866586Y-75358519D01*
X163092580Y-75526037D01*
X163346913Y-75646246D01*
X163480961Y-75686904D01*
X163703000Y-75564915D01*
X163703000Y-74422000D01*
X163683000Y-74422000D01*
X163683000Y-74168000D01*
X163703000Y-74168000D01*
X163703000Y-73025085D01*
X163957000Y-73025085D01*
X163957000Y-74168000D01*
X163977000Y-74168000D01*
X163977000Y-74422000D01*
X163957000Y-74422000D01*
X163957000Y-75564915D01*
X164179039Y-75686904D01*
X164313087Y-75646246D01*
X164567420Y-75526037D01*
X164793414Y-75358519D01*
X164982385Y-75150131D01*
X165093933Y-74964135D01*
X165098320Y-74974727D01*
X165255363Y-75209759D01*
X165455241Y-75409637D01*
X165690273Y-75566680D01*
X165951426Y-75674853D01*
X166228665Y-75730000D01*
X166511335Y-75730000D01*
X166788574Y-75674853D01*
X167049727Y-75566680D01*
X167284759Y-75409637D01*
X167484637Y-75209759D01*
X167640000Y-74977241D01*
X167795363Y-75209759D01*
X167995241Y-75409637D01*
X168230273Y-75566680D01*
X168491426Y-75674853D01*
X168768665Y-75730000D01*
X169051335Y-75730000D01*
X169328574Y-75674853D01*
X169589727Y-75566680D01*
X169824759Y-75409637D01*
X170024637Y-75209759D01*
X170180000Y-74977241D01*
X170335363Y-75209759D01*
X170535241Y-75409637D01*
X170770273Y-75566680D01*
X171031426Y-75674853D01*
X171308665Y-75730000D01*
X171591335Y-75730000D01*
X171868574Y-75674853D01*
X172129727Y-75566680D01*
X172364759Y-75409637D01*
X172564637Y-75209759D01*
X172720000Y-74977241D01*
X172875363Y-75209759D01*
X173075241Y-75409637D01*
X173310273Y-75566680D01*
X173571426Y-75674853D01*
X173848665Y-75730000D01*
X174131335Y-75730000D01*
X174408574Y-75674853D01*
X174669727Y-75566680D01*
X174904759Y-75409637D01*
X175104637Y-75209759D01*
X175260000Y-74977241D01*
X175415363Y-75209759D01*
X175615241Y-75409637D01*
X175850273Y-75566680D01*
X176111426Y-75674853D01*
X176388665Y-75730000D01*
X176671335Y-75730000D01*
X176948574Y-75674853D01*
X177209727Y-75566680D01*
X177444759Y-75409637D01*
X177644637Y-75209759D01*
X177800000Y-74977241D01*
X177955363Y-75209759D01*
X178155241Y-75409637D01*
X178390273Y-75566680D01*
X178651426Y-75674853D01*
X178928665Y-75730000D01*
X179211335Y-75730000D01*
X179488574Y-75674853D01*
X179749727Y-75566680D01*
X179984759Y-75409637D01*
X180184637Y-75209759D01*
X180340000Y-74977241D01*
X180495363Y-75209759D01*
X180695241Y-75409637D01*
X180930273Y-75566680D01*
X181191426Y-75674853D01*
X181468665Y-75730000D01*
X181751335Y-75730000D01*
X182028574Y-75674853D01*
X182289727Y-75566680D01*
X182524759Y-75409637D01*
X182724637Y-75209759D01*
X182880000Y-74977241D01*
X183035363Y-75209759D01*
X183235241Y-75409637D01*
X183470273Y-75566680D01*
X183731426Y-75674853D01*
X184008665Y-75730000D01*
X184291335Y-75730000D01*
X184568574Y-75674853D01*
X184829727Y-75566680D01*
X185064759Y-75409637D01*
X185264637Y-75209759D01*
X185420000Y-74977241D01*
X185575363Y-75209759D01*
X185775241Y-75409637D01*
X186010273Y-75566680D01*
X186271426Y-75674853D01*
X186548665Y-75730000D01*
X186831335Y-75730000D01*
X187108574Y-75674853D01*
X187369727Y-75566680D01*
X187604759Y-75409637D01*
X187804637Y-75209759D01*
X187960000Y-74977241D01*
X188115363Y-75209759D01*
X188315241Y-75409637D01*
X188550273Y-75566680D01*
X188811426Y-75674853D01*
X189088665Y-75730000D01*
X189371335Y-75730000D01*
X189648574Y-75674853D01*
X189909727Y-75566680D01*
X190144759Y-75409637D01*
X190344637Y-75209759D01*
X190500000Y-74977241D01*
X190655363Y-75209759D01*
X190855241Y-75409637D01*
X191090273Y-75566680D01*
X191351426Y-75674853D01*
X191628665Y-75730000D01*
X191911335Y-75730000D01*
X192188574Y-75674853D01*
X192449727Y-75566680D01*
X192684759Y-75409637D01*
X192884637Y-75209759D01*
X193041680Y-74974727D01*
X193149853Y-74713574D01*
X193205000Y-74436335D01*
X193205000Y-74153665D01*
X193149853Y-73876426D01*
X193041680Y-73615273D01*
X192884637Y-73380241D01*
X192684759Y-73180363D01*
X192449727Y-73023320D01*
X192188574Y-72915147D01*
X191911335Y-72860000D01*
X191628665Y-72860000D01*
X191351426Y-72915147D01*
X191090273Y-73023320D01*
X190855241Y-73180363D01*
X190655363Y-73380241D01*
X190500000Y-73612759D01*
X190344637Y-73380241D01*
X190144759Y-73180363D01*
X189909727Y-73023320D01*
X189648574Y-72915147D01*
X189371335Y-72860000D01*
X189088665Y-72860000D01*
X188811426Y-72915147D01*
X188550273Y-73023320D01*
X188315241Y-73180363D01*
X188115363Y-73380241D01*
X187960000Y-73612759D01*
X187804637Y-73380241D01*
X187604759Y-73180363D01*
X187369727Y-73023320D01*
X187108574Y-72915147D01*
X186831335Y-72860000D01*
X186548665Y-72860000D01*
X186271426Y-72915147D01*
X186010273Y-73023320D01*
X185775241Y-73180363D01*
X185575363Y-73380241D01*
X185420000Y-73612759D01*
X185264637Y-73380241D01*
X185064759Y-73180363D01*
X184829727Y-73023320D01*
X184568574Y-72915147D01*
X184291335Y-72860000D01*
X184008665Y-72860000D01*
X183731426Y-72915147D01*
X183470273Y-73023320D01*
X183235241Y-73180363D01*
X183035363Y-73380241D01*
X182880000Y-73612759D01*
X182724637Y-73380241D01*
X182524759Y-73180363D01*
X182289727Y-73023320D01*
X182028574Y-72915147D01*
X181751335Y-72860000D01*
X181468665Y-72860000D01*
X181191426Y-72915147D01*
X180930273Y-73023320D01*
X180695241Y-73180363D01*
X180495363Y-73380241D01*
X180340000Y-73612759D01*
X180184637Y-73380241D01*
X179984759Y-73180363D01*
X179749727Y-73023320D01*
X179488574Y-72915147D01*
X179211335Y-72860000D01*
X178928665Y-72860000D01*
X178651426Y-72915147D01*
X178390273Y-73023320D01*
X178155241Y-73180363D01*
X177955363Y-73380241D01*
X177800000Y-73612759D01*
X177644637Y-73380241D01*
X177444759Y-73180363D01*
X177209727Y-73023320D01*
X176948574Y-72915147D01*
X176671335Y-72860000D01*
X176388665Y-72860000D01*
X176111426Y-72915147D01*
X175850273Y-73023320D01*
X175615241Y-73180363D01*
X175415363Y-73380241D01*
X175260000Y-73612759D01*
X175104637Y-73380241D01*
X174904759Y-73180363D01*
X174669727Y-73023320D01*
X174408574Y-72915147D01*
X174131335Y-72860000D01*
X173848665Y-72860000D01*
X173571426Y-72915147D01*
X173310273Y-73023320D01*
X173075241Y-73180363D01*
X172875363Y-73380241D01*
X172720000Y-73612759D01*
X172564637Y-73380241D01*
X172364759Y-73180363D01*
X172129727Y-73023320D01*
X171868574Y-72915147D01*
X171591335Y-72860000D01*
X171308665Y-72860000D01*
X171031426Y-72915147D01*
X170770273Y-73023320D01*
X170535241Y-73180363D01*
X170335363Y-73380241D01*
X170180000Y-73612759D01*
X170024637Y-73380241D01*
X169824759Y-73180363D01*
X169589727Y-73023320D01*
X169328574Y-72915147D01*
X169051335Y-72860000D01*
X168768665Y-72860000D01*
X168491426Y-72915147D01*
X168230273Y-73023320D01*
X167995241Y-73180363D01*
X167795363Y-73380241D01*
X167640000Y-73612759D01*
X167484637Y-73380241D01*
X167284759Y-73180363D01*
X167049727Y-73023320D01*
X166788574Y-72915147D01*
X166511335Y-72860000D01*
X166228665Y-72860000D01*
X165951426Y-72915147D01*
X165690273Y-73023320D01*
X165455241Y-73180363D01*
X165255363Y-73380241D01*
X165098320Y-73615273D01*
X165093933Y-73625865D01*
X164982385Y-73439869D01*
X164793414Y-73231481D01*
X164567420Y-73063963D01*
X164313087Y-72943754D01*
X164179039Y-72903096D01*
X163957000Y-73025085D01*
X163703000Y-73025085D01*
X163480961Y-72903096D01*
X163346913Y-72943754D01*
X163092580Y-73063963D01*
X162866586Y-73231481D01*
X162677615Y-73439869D01*
X162566067Y-73625865D01*
X162561680Y-73615273D01*
X162404637Y-73380241D01*
X162204759Y-73180363D01*
X161969727Y-73023320D01*
X161708574Y-72915147D01*
X161431335Y-72860000D01*
X161148665Y-72860000D01*
X160871426Y-72915147D01*
X160610273Y-73023320D01*
X160375241Y-73180363D01*
X160175363Y-73380241D01*
X160020000Y-73612759D01*
X159864637Y-73380241D01*
X159664759Y-73180363D01*
X159429727Y-73023320D01*
X159168574Y-72915147D01*
X158891335Y-72860000D01*
X158608665Y-72860000D01*
X158331426Y-72915147D01*
X158070273Y-73023320D01*
X157835241Y-73180363D01*
X157636643Y-73378961D01*
X157635812Y-73370518D01*
X157599502Y-73250820D01*
X157540537Y-73140506D01*
X157461185Y-73043815D01*
X157364494Y-72964463D01*
X157254180Y-72905498D01*
X157134482Y-72869188D01*
X157010000Y-72856928D01*
X155410000Y-72856928D01*
X155285518Y-72869188D01*
X155165820Y-72905498D01*
X155055506Y-72964463D01*
X154958815Y-73043815D01*
X154879463Y-73140506D01*
X154820498Y-73250820D01*
X154784188Y-73370518D01*
X154771928Y-73495000D01*
X101725000Y-73495000D01*
X101725000Y-70392911D01*
X106380000Y-70392911D01*
X106380000Y-70577089D01*
X106415932Y-70757729D01*
X106486414Y-70927889D01*
X106588738Y-71081028D01*
X106718972Y-71211262D01*
X106872111Y-71313586D01*
X107042271Y-71384068D01*
X107222911Y-71420000D01*
X107407089Y-71420000D01*
X107587729Y-71384068D01*
X107757889Y-71313586D01*
X107860535Y-71245000D01*
X110341256Y-71245000D01*
X110296414Y-71312111D01*
X110225932Y-71482271D01*
X110190000Y-71662911D01*
X110190000Y-71847089D01*
X110225932Y-72027729D01*
X110296414Y-72197889D01*
X110398738Y-72351028D01*
X110528972Y-72481262D01*
X110682111Y-72583586D01*
X110852271Y-72654068D01*
X111032911Y-72690000D01*
X111217089Y-72690000D01*
X111397729Y-72654068D01*
X111567889Y-72583586D01*
X111670535Y-72515000D01*
X155029465Y-72515000D01*
X155132111Y-72583586D01*
X155302271Y-72654068D01*
X155482911Y-72690000D01*
X155667089Y-72690000D01*
X155847729Y-72654068D01*
X156017889Y-72583586D01*
X156171028Y-72481262D01*
X156301262Y-72351028D01*
X156403586Y-72197889D01*
X156474068Y-72027729D01*
X156503454Y-71880000D01*
X157569465Y-71880000D01*
X157672111Y-71948586D01*
X157842271Y-72019068D01*
X158022911Y-72055000D01*
X158207089Y-72055000D01*
X158387729Y-72019068D01*
X158557889Y-71948586D01*
X158711028Y-71846262D01*
X158841262Y-71716028D01*
X158943586Y-71562889D01*
X159014068Y-71392729D01*
X159043454Y-71245000D01*
X165189465Y-71245000D01*
X165292111Y-71313586D01*
X165462271Y-71384068D01*
X165642911Y-71420000D01*
X165827089Y-71420000D01*
X166007729Y-71384068D01*
X166177889Y-71313586D01*
X166280535Y-71245000D01*
X195034465Y-71245000D01*
X195137111Y-71313586D01*
X195307271Y-71384068D01*
X195487911Y-71420000D01*
X195672089Y-71420000D01*
X195852729Y-71384068D01*
X196022889Y-71313586D01*
X196176028Y-71211262D01*
X196306262Y-71081028D01*
X196408586Y-70927889D01*
X196479068Y-70757729D01*
X196515000Y-70577089D01*
X196515000Y-70392911D01*
X196479068Y-70212271D01*
X196408586Y-70042111D01*
X196306262Y-69888972D01*
X196176028Y-69758738D01*
X196022889Y-69656414D01*
X195852729Y-69585932D01*
X195845505Y-69584495D01*
X195844068Y-69577271D01*
X195773586Y-69407111D01*
X195671262Y-69253972D01*
X195541028Y-69123738D01*
X195387889Y-69021414D01*
X195217729Y-68950932D01*
X195037089Y-68915000D01*
X194852911Y-68915000D01*
X194672271Y-68950932D01*
X194502111Y-69021414D01*
X194399465Y-69090000D01*
X193333454Y-69090000D01*
X193304068Y-68942271D01*
X193233586Y-68772111D01*
X193131262Y-68618972D01*
X193001028Y-68488738D01*
X192847889Y-68386414D01*
X192677729Y-68315932D01*
X192497089Y-68280000D01*
X192312911Y-68280000D01*
X192132271Y-68315932D01*
X191962111Y-68386414D01*
X191859465Y-68455000D01*
X191428454Y-68455000D01*
X191399068Y-68307271D01*
X191328586Y-68137111D01*
X191226262Y-67983972D01*
X191096028Y-67853738D01*
X190942889Y-67751414D01*
X190772729Y-67680932D01*
X190592089Y-67645000D01*
X190407911Y-67645000D01*
X190227271Y-67680932D01*
X190057111Y-67751414D01*
X189954465Y-67820000D01*
X188888454Y-67820000D01*
X188859068Y-67672271D01*
X188788586Y-67502111D01*
X188686262Y-67348972D01*
X188556028Y-67218738D01*
X188402889Y-67116414D01*
X188232729Y-67045932D01*
X188052089Y-67010000D01*
X187867911Y-67010000D01*
X187687271Y-67045932D01*
X187517111Y-67116414D01*
X187414465Y-67185000D01*
X186348454Y-67185000D01*
X186319068Y-67037271D01*
X186248586Y-66867111D01*
X186146262Y-66713972D01*
X186016028Y-66583738D01*
X185862889Y-66481414D01*
X185692729Y-66410932D01*
X185512089Y-66375000D01*
X185327911Y-66375000D01*
X185147271Y-66410932D01*
X184977111Y-66481414D01*
X184874465Y-66550000D01*
X184298744Y-66550000D01*
X184343586Y-66482889D01*
X184414068Y-66312729D01*
X184443454Y-66165000D01*
X185509465Y-66165000D01*
X185612111Y-66233586D01*
X185782271Y-66304068D01*
X185962911Y-66340000D01*
X186147089Y-66340000D01*
X186327729Y-66304068D01*
X186497889Y-66233586D01*
X186651028Y-66131262D01*
X186781262Y-66001028D01*
X186883586Y-65847889D01*
X186954068Y-65677729D01*
X186983454Y-65530000D01*
X188049465Y-65530000D01*
X188152111Y-65598586D01*
X188322271Y-65669068D01*
X188502911Y-65705000D01*
X188687089Y-65705000D01*
X188867729Y-65669068D01*
X189037889Y-65598586D01*
X189191028Y-65496262D01*
X189321262Y-65366028D01*
X189423586Y-65212889D01*
X189494068Y-65042729D01*
X189523454Y-64895000D01*
X190589465Y-64895000D01*
X190692111Y-64963586D01*
X190862271Y-65034068D01*
X191042911Y-65070000D01*
X191227089Y-65070000D01*
X191407729Y-65034068D01*
X191577889Y-64963586D01*
X191731028Y-64861262D01*
X191861262Y-64731028D01*
X191963586Y-64577889D01*
X192034068Y-64407729D01*
X192070000Y-64227089D01*
X192070000Y-64042911D01*
X192034068Y-63862271D01*
X191979433Y-63730369D01*
X192281004Y-63428798D01*
X192310001Y-63405001D01*
X192404974Y-63289276D01*
X192475546Y-63157247D01*
X192519003Y-63013986D01*
X192530000Y-62902333D01*
X192530000Y-62902332D01*
X192533677Y-62865000D01*
X192530000Y-62827667D01*
X192530000Y-60273043D01*
X192684759Y-60169637D01*
X192884637Y-59969759D01*
X193041680Y-59734727D01*
X193149853Y-59473574D01*
X193205000Y-59196335D01*
X193205000Y-58913665D01*
X193149853Y-58636426D01*
X193041680Y-58375273D01*
X192884637Y-58140241D01*
X192684759Y-57940363D01*
X192449727Y-57783320D01*
X192188574Y-57675147D01*
X191911335Y-57620000D01*
X191628665Y-57620000D01*
X191351426Y-57675147D01*
X191090273Y-57783320D01*
X190855241Y-57940363D01*
X190655363Y-58140241D01*
X190500000Y-58372759D01*
X190344637Y-58140241D01*
X190144759Y-57940363D01*
X189909727Y-57783320D01*
X189648574Y-57675147D01*
X189371335Y-57620000D01*
X189088665Y-57620000D01*
X188811426Y-57675147D01*
X188550273Y-57783320D01*
X188315241Y-57940363D01*
X188115363Y-58140241D01*
X187960000Y-58372759D01*
X187804637Y-58140241D01*
X187604759Y-57940363D01*
X187369727Y-57783320D01*
X187108574Y-57675147D01*
X186831335Y-57620000D01*
X186548665Y-57620000D01*
X186271426Y-57675147D01*
X186010273Y-57783320D01*
X185775241Y-57940363D01*
X185575363Y-58140241D01*
X185420000Y-58372759D01*
X185264637Y-58140241D01*
X185064759Y-57940363D01*
X184829727Y-57783320D01*
X184568574Y-57675147D01*
X184291335Y-57620000D01*
X184008665Y-57620000D01*
X183731426Y-57675147D01*
X183470273Y-57783320D01*
X183235241Y-57940363D01*
X183035363Y-58140241D01*
X182880000Y-58372759D01*
X182724637Y-58140241D01*
X182524759Y-57940363D01*
X182289727Y-57783320D01*
X182028574Y-57675147D01*
X181751335Y-57620000D01*
X181468665Y-57620000D01*
X181191426Y-57675147D01*
X180930273Y-57783320D01*
X180695241Y-57940363D01*
X180495363Y-58140241D01*
X180340000Y-58372759D01*
X180184637Y-58140241D01*
X179984759Y-57940363D01*
X179749727Y-57783320D01*
X179488574Y-57675147D01*
X179211335Y-57620000D01*
X178928665Y-57620000D01*
X178651426Y-57675147D01*
X178390273Y-57783320D01*
X178155241Y-57940363D01*
X177955363Y-58140241D01*
X177800000Y-58372759D01*
X177644637Y-58140241D01*
X177444759Y-57940363D01*
X177209727Y-57783320D01*
X176948574Y-57675147D01*
X176671335Y-57620000D01*
X176388665Y-57620000D01*
X176111426Y-57675147D01*
X175850273Y-57783320D01*
X175615241Y-57940363D01*
X175415363Y-58140241D01*
X175260000Y-58372759D01*
X175104637Y-58140241D01*
X174904759Y-57940363D01*
X174669727Y-57783320D01*
X174408574Y-57675147D01*
X174131335Y-57620000D01*
X173848665Y-57620000D01*
X173571426Y-57675147D01*
X173310273Y-57783320D01*
X173075241Y-57940363D01*
X172875363Y-58140241D01*
X172720000Y-58372759D01*
X172564637Y-58140241D01*
X172364759Y-57940363D01*
X172129727Y-57783320D01*
X171868574Y-57675147D01*
X171591335Y-57620000D01*
X171308665Y-57620000D01*
X171031426Y-57675147D01*
X170770273Y-57783320D01*
X170535241Y-57940363D01*
X170335363Y-58140241D01*
X170180000Y-58372759D01*
X170024637Y-58140241D01*
X169824759Y-57940363D01*
X169589727Y-57783320D01*
X169328574Y-57675147D01*
X169051335Y-57620000D01*
X168768665Y-57620000D01*
X168491426Y-57675147D01*
X168230273Y-57783320D01*
X167995241Y-57940363D01*
X167795363Y-58140241D01*
X167640000Y-58372759D01*
X167484637Y-58140241D01*
X167284759Y-57940363D01*
X167049727Y-57783320D01*
X166788574Y-57675147D01*
X166511335Y-57620000D01*
X166228665Y-57620000D01*
X165951426Y-57675147D01*
X165690273Y-57783320D01*
X165455241Y-57940363D01*
X165255363Y-58140241D01*
X165100000Y-58372759D01*
X164944637Y-58140241D01*
X164744759Y-57940363D01*
X164509727Y-57783320D01*
X164248574Y-57675147D01*
X163971335Y-57620000D01*
X163688665Y-57620000D01*
X163411426Y-57675147D01*
X163150273Y-57783320D01*
X162915241Y-57940363D01*
X162715363Y-58140241D01*
X162560000Y-58372759D01*
X162404637Y-58140241D01*
X162204759Y-57940363D01*
X161969727Y-57783320D01*
X161708574Y-57675147D01*
X161431335Y-57620000D01*
X161148665Y-57620000D01*
X160871426Y-57675147D01*
X160610273Y-57783320D01*
X160375241Y-57940363D01*
X160175363Y-58140241D01*
X160018320Y-58375273D01*
X160013933Y-58385865D01*
X159902385Y-58199869D01*
X159713414Y-57991481D01*
X159487420Y-57823963D01*
X159233087Y-57703754D01*
X159099039Y-57663096D01*
X158877000Y-57785085D01*
X158877000Y-58928000D01*
X158897000Y-58928000D01*
X158897000Y-59182000D01*
X158877000Y-59182000D01*
X158877000Y-59202000D01*
X158623000Y-59202000D01*
X158623000Y-59182000D01*
X158603000Y-59182000D01*
X158603000Y-58928000D01*
X158623000Y-58928000D01*
X158623000Y-57785085D01*
X158400961Y-57663096D01*
X158266913Y-57703754D01*
X158012580Y-57823963D01*
X157786586Y-57991481D01*
X157597615Y-58199869D01*
X157486067Y-58385865D01*
X157481680Y-58375273D01*
X157324637Y-58140241D01*
X157124759Y-57940363D01*
X156889727Y-57783320D01*
X156628574Y-57675147D01*
X156351335Y-57620000D01*
X156068665Y-57620000D01*
X155791426Y-57675147D01*
X155530273Y-57783320D01*
X155295241Y-57940363D01*
X155095363Y-58140241D01*
X154938320Y-58375273D01*
X154830147Y-58636426D01*
X154775000Y-58913665D01*
X154775000Y-59196335D01*
X154814832Y-59396580D01*
X154667271Y-59425932D01*
X154497111Y-59496414D01*
X154343972Y-59598738D01*
X154213738Y-59728972D01*
X154111414Y-59882111D01*
X154040932Y-60052271D01*
X154011546Y-60200000D01*
X153580535Y-60200000D01*
X153477889Y-60131414D01*
X153307729Y-60060932D01*
X153127089Y-60025000D01*
X152942911Y-60025000D01*
X152762271Y-60060932D01*
X152592111Y-60131414D01*
X152438972Y-60233738D01*
X152400000Y-60272710D01*
X152361028Y-60233738D01*
X152207889Y-60131414D01*
X152037729Y-60060932D01*
X151857089Y-60025000D01*
X151672911Y-60025000D01*
X151492271Y-60060932D01*
X151322111Y-60131414D01*
X151219465Y-60200000D01*
X142150535Y-60200000D01*
X142047889Y-60131414D01*
X141877729Y-60060932D01*
X141697089Y-60025000D01*
X141512911Y-60025000D01*
X141332271Y-60060932D01*
X141162111Y-60131414D01*
X141008972Y-60233738D01*
X140878738Y-60363972D01*
X140776414Y-60517111D01*
X140705932Y-60687271D01*
X140670000Y-60867911D01*
X140670000Y-61052089D01*
X140705932Y-61232729D01*
X140776414Y-61402889D01*
X140878738Y-61556028D01*
X141008972Y-61686262D01*
X141162111Y-61788586D01*
X141332271Y-61859068D01*
X141512911Y-61895000D01*
X141697089Y-61895000D01*
X141877729Y-61859068D01*
X142047889Y-61788586D01*
X142150535Y-61720000D01*
X143216546Y-61720000D01*
X143245932Y-61867729D01*
X143316414Y-62037889D01*
X143418738Y-62191028D01*
X143548972Y-62321262D01*
X143702111Y-62423586D01*
X143872271Y-62494068D01*
X144052911Y-62530000D01*
X144237089Y-62530000D01*
X144417729Y-62494068D01*
X144585371Y-62424629D01*
X144515932Y-62592271D01*
X144486546Y-62740000D01*
X143420535Y-62740000D01*
X143317889Y-62671414D01*
X143147729Y-62600932D01*
X142967089Y-62565000D01*
X142782911Y-62565000D01*
X142602271Y-62600932D01*
X142432111Y-62671414D01*
X142278972Y-62773738D01*
X142148738Y-62903972D01*
X142046414Y-63057111D01*
X141975932Y-63227271D01*
X141946546Y-63375000D01*
X140880535Y-63375000D01*
X140777889Y-63306414D01*
X140607729Y-63235932D01*
X140427089Y-63200000D01*
X140242911Y-63200000D01*
X140062271Y-63235932D01*
X139892111Y-63306414D01*
X139738972Y-63408738D01*
X139608738Y-63538972D01*
X139506414Y-63692111D01*
X139435932Y-63862271D01*
X139406546Y-64010000D01*
X138340535Y-64010000D01*
X138237889Y-63941414D01*
X138067729Y-63870932D01*
X137887089Y-63835000D01*
X137702911Y-63835000D01*
X137522271Y-63870932D01*
X137352111Y-63941414D01*
X137198972Y-64043738D01*
X137068738Y-64173972D01*
X136966414Y-64327111D01*
X136895932Y-64497271D01*
X136866546Y-64645000D01*
X135800535Y-64645000D01*
X135697889Y-64576414D01*
X135527729Y-64505932D01*
X135347089Y-64470000D01*
X135162911Y-64470000D01*
X134982271Y-64505932D01*
X134812111Y-64576414D01*
X134658972Y-64678738D01*
X134528738Y-64808972D01*
X134426414Y-64962111D01*
X134355932Y-65132271D01*
X134326546Y-65280000D01*
X125640535Y-65280000D01*
X125537889Y-65211414D01*
X125367729Y-65140932D01*
X125187089Y-65105000D01*
X125002911Y-65105000D01*
X124822271Y-65140932D01*
X124652111Y-65211414D01*
X124498972Y-65313738D01*
X124368738Y-65443972D01*
X124266414Y-65597111D01*
X124195932Y-65767271D01*
X124166546Y-65915000D01*
X123100535Y-65915000D01*
X122997889Y-65846414D01*
X122827729Y-65775932D01*
X122647089Y-65740000D01*
X122462911Y-65740000D01*
X122282271Y-65775932D01*
X122112111Y-65846414D01*
X121958972Y-65948738D01*
X121828738Y-66078972D01*
X121726414Y-66232111D01*
X121655932Y-66402271D01*
X121626546Y-66550000D01*
X120560535Y-66550000D01*
X120457889Y-66481414D01*
X120287729Y-66410932D01*
X120107089Y-66375000D01*
X119922911Y-66375000D01*
X119742271Y-66410932D01*
X119572111Y-66481414D01*
X119418972Y-66583738D01*
X119288738Y-66713972D01*
X119186414Y-66867111D01*
X119115932Y-67037271D01*
X119086546Y-67185000D01*
X118020535Y-67185000D01*
X117917889Y-67116414D01*
X117747729Y-67045932D01*
X117567089Y-67010000D01*
X117382911Y-67010000D01*
X117202271Y-67045932D01*
X117032111Y-67116414D01*
X116878972Y-67218738D01*
X116748738Y-67348972D01*
X116646414Y-67502111D01*
X116575932Y-67672271D01*
X116546546Y-67820000D01*
X115480535Y-67820000D01*
X115377889Y-67751414D01*
X115207729Y-67680932D01*
X115027089Y-67645000D01*
X114842911Y-67645000D01*
X114662271Y-67680932D01*
X114492111Y-67751414D01*
X114338972Y-67853738D01*
X114208738Y-67983972D01*
X114106414Y-68137111D01*
X114035932Y-68307271D01*
X114006546Y-68455000D01*
X112940535Y-68455000D01*
X112837889Y-68386414D01*
X112667729Y-68315932D01*
X112487089Y-68280000D01*
X112302911Y-68280000D01*
X112122271Y-68315932D01*
X111952111Y-68386414D01*
X111798972Y-68488738D01*
X111668738Y-68618972D01*
X111566414Y-68772111D01*
X111495932Y-68942271D01*
X111466546Y-69090000D01*
X110400535Y-69090000D01*
X110297889Y-69021414D01*
X110127729Y-68950932D01*
X109947089Y-68915000D01*
X109762911Y-68915000D01*
X109582271Y-68950932D01*
X109412111Y-69021414D01*
X109258972Y-69123738D01*
X109128738Y-69253972D01*
X109026414Y-69407111D01*
X108955932Y-69577271D01*
X108926546Y-69725000D01*
X107860535Y-69725000D01*
X107757889Y-69656414D01*
X107587729Y-69585932D01*
X107407089Y-69550000D01*
X107222911Y-69550000D01*
X107042271Y-69585932D01*
X106872111Y-69656414D01*
X106718972Y-69758738D01*
X106588738Y-69888972D01*
X106486414Y-70042111D01*
X106415932Y-70212271D01*
X106380000Y-70392911D01*
X101725000Y-70392911D01*
X101725000Y-57898560D01*
X102141554Y-58315114D01*
X102655021Y-58658201D01*
X103225554Y-58894524D01*
X103831229Y-59015000D01*
X104448771Y-59015000D01*
X105054446Y-58894524D01*
X105624979Y-58658201D01*
X106138446Y-58315114D01*
X106575114Y-57878446D01*
X106918201Y-57364979D01*
X107154524Y-56794446D01*
X107275000Y-56188771D01*
X107275000Y-55571229D01*
X107154524Y-54965554D01*
X106918201Y-54395021D01*
X106575114Y-53881554D01*
X106138446Y-53444886D01*
X105624979Y-53101799D01*
X105054446Y-52865476D01*
X104448771Y-52745000D01*
X103831229Y-52745000D01*
X103225554Y-52865476D01*
X102655021Y-53101799D01*
X102264662Y-53362628D01*
X102326262Y-53301028D01*
X102428586Y-53147889D01*
X102499068Y-52977729D01*
X102535000Y-52797089D01*
X102535000Y-52612911D01*
X102499068Y-52432271D01*
X102428586Y-52262111D01*
X102326262Y-52108972D01*
X102321316Y-52104026D01*
X102546632Y-51953475D01*
X102753475Y-51746632D01*
X102870000Y-51572240D01*
X102986525Y-51746632D01*
X103193368Y-51953475D01*
X103436589Y-52115990D01*
X103706842Y-52227932D01*
X103993740Y-52285000D01*
X104286260Y-52285000D01*
X104573158Y-52227932D01*
X104843411Y-52115990D01*
X105086632Y-51953475D01*
X105293475Y-51746632D01*
X105410000Y-51572240D01*
X105526525Y-51746632D01*
X105733368Y-51953475D01*
X105976589Y-52115990D01*
X106246842Y-52227932D01*
X106533740Y-52285000D01*
X106826260Y-52285000D01*
X107113158Y-52227932D01*
X107383411Y-52115990D01*
X107626632Y-51953475D01*
X107833475Y-51746632D01*
X107950000Y-51572240D01*
X108066525Y-51746632D01*
X108273368Y-51953475D01*
X108516589Y-52115990D01*
X108786842Y-52227932D01*
X109073740Y-52285000D01*
X109366260Y-52285000D01*
X109653158Y-52227932D01*
X109923411Y-52115990D01*
X110166632Y-51953475D01*
X110373475Y-51746632D01*
X110490000Y-51572240D01*
X110606525Y-51746632D01*
X110813368Y-51953475D01*
X111056589Y-52115990D01*
X111326842Y-52227932D01*
X111613740Y-52285000D01*
X111906260Y-52285000D01*
X112193158Y-52227932D01*
X112463411Y-52115990D01*
X112706632Y-51953475D01*
X112913475Y-51746632D01*
X113030000Y-51572240D01*
X113146525Y-51746632D01*
X113353368Y-51953475D01*
X113596589Y-52115990D01*
X113866842Y-52227932D01*
X114153740Y-52285000D01*
X114446260Y-52285000D01*
X114733158Y-52227932D01*
X115003411Y-52115990D01*
X115246632Y-51953475D01*
X115453475Y-51746632D01*
X115570000Y-51572240D01*
X115686525Y-51746632D01*
X115893368Y-51953475D01*
X116136589Y-52115990D01*
X116406842Y-52227932D01*
X116693740Y-52285000D01*
X116986260Y-52285000D01*
X117273158Y-52227932D01*
X117543411Y-52115990D01*
X117786632Y-51953475D01*
X117993475Y-51746632D01*
X118110000Y-51572240D01*
X118226525Y-51746632D01*
X118433368Y-51953475D01*
X118676589Y-52115990D01*
X118946842Y-52227932D01*
X119233740Y-52285000D01*
X119526260Y-52285000D01*
X119813158Y-52227932D01*
X120083411Y-52115990D01*
X120326632Y-51953475D01*
X120533475Y-51746632D01*
X120650000Y-51572240D01*
X120766525Y-51746632D01*
X120973368Y-51953475D01*
X121216589Y-52115990D01*
X121486842Y-52227932D01*
X121773740Y-52285000D01*
X122066260Y-52285000D01*
X122353158Y-52227932D01*
X122623411Y-52115990D01*
X122866632Y-51953475D01*
X123073475Y-51746632D01*
X123190000Y-51572240D01*
X123306525Y-51746632D01*
X123513368Y-51953475D01*
X123756589Y-52115990D01*
X124026842Y-52227932D01*
X124313740Y-52285000D01*
X124606260Y-52285000D01*
X124893158Y-52227932D01*
X125163411Y-52115990D01*
X125406632Y-51953475D01*
X125613475Y-51746632D01*
X125730000Y-51572240D01*
X125846525Y-51746632D01*
X126053368Y-51953475D01*
X126296589Y-52115990D01*
X126566842Y-52227932D01*
X126853740Y-52285000D01*
X127146260Y-52285000D01*
X127433158Y-52227932D01*
X127703411Y-52115990D01*
X127946632Y-51953475D01*
X128153475Y-51746632D01*
X128270000Y-51572240D01*
X128386525Y-51746632D01*
X128593368Y-51953475D01*
X128836589Y-52115990D01*
X129106842Y-52227932D01*
X129393740Y-52285000D01*
X129686260Y-52285000D01*
X129973158Y-52227932D01*
X130243411Y-52115990D01*
X130486632Y-51953475D01*
X130693475Y-51746632D01*
X130810000Y-51572240D01*
X130926525Y-51746632D01*
X131133368Y-51953475D01*
X131376589Y-52115990D01*
X131646842Y-52227932D01*
X131933740Y-52285000D01*
X132226260Y-52285000D01*
X132513158Y-52227932D01*
X132783411Y-52115990D01*
X133026632Y-51953475D01*
X133233475Y-51746632D01*
X133350000Y-51572240D01*
X133466525Y-51746632D01*
X133673368Y-51953475D01*
X133916589Y-52115990D01*
X134186842Y-52227932D01*
X134473740Y-52285000D01*
X134766260Y-52285000D01*
X135053158Y-52227932D01*
X135323411Y-52115990D01*
X135566632Y-51953475D01*
X135773475Y-51746632D01*
X135890000Y-51572240D01*
X136006525Y-51746632D01*
X136213368Y-51953475D01*
X136456589Y-52115990D01*
X136726842Y-52227932D01*
X137013740Y-52285000D01*
X137306260Y-52285000D01*
X137593158Y-52227932D01*
X137636151Y-52210124D01*
X137601414Y-52262111D01*
X137530932Y-52432271D01*
X137501546Y-52580000D01*
X136435535Y-52580000D01*
X136332889Y-52511414D01*
X136162729Y-52440932D01*
X135982089Y-52405000D01*
X135797911Y-52405000D01*
X135617271Y-52440932D01*
X135447111Y-52511414D01*
X135293972Y-52613738D01*
X135163738Y-52743972D01*
X135061414Y-52897111D01*
X134990932Y-53067271D01*
X134961546Y-53215000D01*
X133895535Y-53215000D01*
X133792889Y-53146414D01*
X133622729Y-53075932D01*
X133442089Y-53040000D01*
X133257911Y-53040000D01*
X133077271Y-53075932D01*
X132907111Y-53146414D01*
X132753972Y-53248738D01*
X132623738Y-53378972D01*
X132521414Y-53532111D01*
X132450932Y-53702271D01*
X132421546Y-53850000D01*
X131355535Y-53850000D01*
X131252889Y-53781414D01*
X131082729Y-53710932D01*
X130902089Y-53675000D01*
X130717911Y-53675000D01*
X130537271Y-53710932D01*
X130367111Y-53781414D01*
X130213972Y-53883738D01*
X130083738Y-54013972D01*
X129981414Y-54167111D01*
X129910932Y-54337271D01*
X129875000Y-54517911D01*
X129875000Y-54702089D01*
X129910932Y-54882729D01*
X129981414Y-55052889D01*
X130083738Y-55206028D01*
X130213972Y-55336262D01*
X130367111Y-55438586D01*
X130537271Y-55509068D01*
X130717911Y-55545000D01*
X130902089Y-55545000D01*
X131082729Y-55509068D01*
X131252889Y-55438586D01*
X131355535Y-55370000D01*
X159726546Y-55370000D01*
X159755932Y-55517729D01*
X159826414Y-55687889D01*
X159928738Y-55841028D01*
X160058972Y-55971262D01*
X160212111Y-56073586D01*
X160382271Y-56144068D01*
X160562911Y-56180000D01*
X160747089Y-56180000D01*
X160927729Y-56144068D01*
X161097889Y-56073586D01*
X161200535Y-56005000D01*
X188049465Y-56005000D01*
X188152111Y-56073586D01*
X188322271Y-56144068D01*
X188502911Y-56180000D01*
X188687089Y-56180000D01*
X188867729Y-56144068D01*
X189037889Y-56073586D01*
X189191028Y-55971262D01*
X189321262Y-55841028D01*
X189423586Y-55687889D01*
X189494068Y-55517729D01*
X189530000Y-55337089D01*
X189530000Y-55152911D01*
X189494068Y-54972271D01*
X189423586Y-54802111D01*
X189321262Y-54648972D01*
X189191028Y-54518738D01*
X189037889Y-54416414D01*
X188867729Y-54345932D01*
X188687089Y-54310000D01*
X188502911Y-54310000D01*
X188322271Y-54345932D01*
X188152111Y-54416414D01*
X188049465Y-54485000D01*
X169058744Y-54485000D01*
X169103586Y-54417889D01*
X169174068Y-54247729D01*
X169203454Y-54100000D01*
X170269465Y-54100000D01*
X170372111Y-54168586D01*
X170542271Y-54239068D01*
X170722911Y-54275000D01*
X170907089Y-54275000D01*
X171087729Y-54239068D01*
X171257889Y-54168586D01*
X171411028Y-54066262D01*
X171541262Y-53936028D01*
X171643586Y-53782889D01*
X171714068Y-53612729D01*
X171743454Y-53465000D01*
X172809465Y-53465000D01*
X172912111Y-53533586D01*
X173082271Y-53604068D01*
X173262911Y-53640000D01*
X173447089Y-53640000D01*
X173627729Y-53604068D01*
X173797889Y-53533586D01*
X173951028Y-53431262D01*
X174081262Y-53301028D01*
X174183586Y-53147889D01*
X174254068Y-52977729D01*
X174283454Y-52830000D01*
X185740199Y-52830000D01*
X185766847Y-52856649D01*
X185790932Y-52977729D01*
X185861414Y-53147889D01*
X185963738Y-53301028D01*
X186093972Y-53431262D01*
X186247111Y-53533586D01*
X186417271Y-53604068D01*
X186597911Y-53640000D01*
X186782089Y-53640000D01*
X186962729Y-53604068D01*
X187132889Y-53533586D01*
X187286028Y-53431262D01*
X187416262Y-53301028D01*
X187518586Y-53147889D01*
X187589068Y-52977729D01*
X187625000Y-52797089D01*
X187625000Y-52612911D01*
X187589068Y-52432271D01*
X187518586Y-52262111D01*
X187483849Y-52210124D01*
X187526842Y-52227932D01*
X187813740Y-52285000D01*
X188106260Y-52285000D01*
X188393158Y-52227932D01*
X188663411Y-52115990D01*
X188906632Y-51953475D01*
X189113475Y-51746632D01*
X189230000Y-51572240D01*
X189346525Y-51746632D01*
X189553368Y-51953475D01*
X189796589Y-52115990D01*
X190066842Y-52227932D01*
X190353740Y-52285000D01*
X190646260Y-52285000D01*
X190933158Y-52227932D01*
X191203411Y-52115990D01*
X191446632Y-51953475D01*
X191653475Y-51746632D01*
X191770000Y-51572240D01*
X191886525Y-51746632D01*
X192093368Y-51953475D01*
X192336589Y-52115990D01*
X192606842Y-52227932D01*
X192893740Y-52285000D01*
X193186260Y-52285000D01*
X193473158Y-52227932D01*
X193743411Y-52115990D01*
X193986632Y-51953475D01*
X194193475Y-51746632D01*
X194310000Y-51572240D01*
X194426525Y-51746632D01*
G37*
X194426525Y-51746632D02*
X194633368Y-51953475D01*
X194876589Y-52115990D01*
X195146842Y-52227932D01*
X195433740Y-52285000D01*
X195726260Y-52285000D01*
X196013158Y-52227932D01*
X196283411Y-52115990D01*
X196526632Y-51953475D01*
X196658487Y-51821620D01*
X196680498Y-51894180D01*
X196739463Y-52004494D01*
X196818815Y-52101185D01*
X196915506Y-52180537D01*
X197025820Y-52239502D01*
X197145518Y-52275812D01*
X197270000Y-52288072D01*
X197391954Y-52288072D01*
X197414454Y-52362246D01*
X197485026Y-52494276D01*
X197543738Y-52565816D01*
X197580000Y-52610001D01*
X197608998Y-52633799D01*
X197995000Y-53019802D01*
X197995000Y-53861440D01*
X197578446Y-53444886D01*
X197064979Y-53101799D01*
X196494446Y-52865476D01*
X195888771Y-52745000D01*
X195271229Y-52745000D01*
X194665554Y-52865476D01*
X194095021Y-53101799D01*
X193581554Y-53444886D01*
X193144886Y-53881554D01*
X192801799Y-54395021D01*
X192565476Y-54965554D01*
X192445000Y-55571229D01*
X192445000Y-56188771D01*
X192565476Y-56794446D01*
X192801799Y-57364979D01*
X193144886Y-57878446D01*
X193581554Y-58315114D01*
X194095021Y-58658201D01*
X194665554Y-58894524D01*
X195271229Y-59015000D01*
X195888771Y-59015000D01*
X196494446Y-58894524D01*
X197064979Y-58658201D01*
X197578446Y-58315114D01*
X197995000Y-57898560D01*
X197995001Y-66002658D01*
X197995000Y-66002668D01*
X197995001Y-69939463D01*
X197926414Y-70042111D01*
X197855932Y-70212271D01*
X197820000Y-70392911D01*
X197820000Y-70577089D01*
X197855932Y-70757729D01*
X197926414Y-70927889D01*
X197995000Y-71030535D01*
X197995001Y-138316441D01*
X197578446Y-137899886D01*
X197064979Y-137556799D01*
X196494446Y-137320476D01*
X195888771Y-137200000D01*
X195271229Y-137200000D01*
X194665554Y-137320476D01*
X194095021Y-137556799D01*
X193581554Y-137899886D01*
X193144886Y-138336554D01*
X192801799Y-138850021D01*
X192565476Y-139420554D01*
X192445000Y-140026229D01*
X192445000Y-140643771D01*
X192565476Y-141249446D01*
X192801799Y-141819979D01*
X193144886Y-142333446D01*
X193581554Y-142770114D01*
X194095021Y-143113201D01*
X194665554Y-143349524D01*
X195271229Y-143470000D01*
X195888771Y-143470000D01*
X196494446Y-143349524D01*
X197064979Y-143113201D01*
X197578446Y-142770114D01*
X197995001Y-142353559D01*
X197995001Y-143195197D01*
X197609002Y-143581197D01*
X197579999Y-143604999D01*
X197524871Y-143672174D01*
X197485026Y-143720724D01*
X197441451Y-143802246D01*
X197414454Y-143852754D01*
X197391954Y-143926928D01*
X197270000Y-143926928D01*
X197145518Y-143939188D01*
X197025820Y-143975498D01*
X196915506Y-144034463D01*
X196818815Y-144113815D01*
X196739463Y-144210506D01*
X196680498Y-144320820D01*
X196658487Y-144393380D01*
X196526632Y-144261525D01*
X196283411Y-144099010D01*
X196013158Y-143987068D01*
X195726260Y-143930000D01*
X195433740Y-143930000D01*
X195146842Y-143987068D01*
X194876589Y-144099010D01*
X194633368Y-144261525D01*
X194426525Y-144468368D01*
X194310000Y-144642760D01*
X194193475Y-144468368D01*
X193986632Y-144261525D01*
X193743411Y-144099010D01*
X193473158Y-143987068D01*
X193186260Y-143930000D01*
X192893740Y-143930000D01*
X192606842Y-143987068D01*
X192336589Y-144099010D01*
X192093368Y-144261525D01*
X191886525Y-144468368D01*
X191770000Y-144642760D01*
X191653475Y-144468368D01*
X191446632Y-144261525D01*
X191203411Y-144099010D01*
X190933158Y-143987068D01*
X190646260Y-143930000D01*
X190353740Y-143930000D01*
X190066842Y-143987068D01*
X189796589Y-144099010D01*
X189553368Y-144261525D01*
X189346525Y-144468368D01*
X189230000Y-144642760D01*
X189113475Y-144468368D01*
X188906632Y-144261525D01*
X188663411Y-144099010D01*
X188393158Y-143987068D01*
X188106260Y-143930000D01*
X187813740Y-143930000D01*
X187526842Y-143987068D01*
X187256589Y-144099010D01*
X187013368Y-144261525D01*
X186806525Y-144468368D01*
X186690000Y-144642760D01*
X186573475Y-144468368D01*
X186366632Y-144261525D01*
X186123411Y-144099010D01*
X185853158Y-143987068D01*
X185566260Y-143930000D01*
X185273740Y-143930000D01*
X184986842Y-143987068D01*
X184716589Y-144099010D01*
X184473368Y-144261525D01*
X184266525Y-144468368D01*
X184150000Y-144642760D01*
X184033475Y-144468368D01*
X183826632Y-144261525D01*
X183583411Y-144099010D01*
X183313158Y-143987068D01*
X183026260Y-143930000D01*
X182733740Y-143930000D01*
X182446842Y-143987068D01*
X182176589Y-144099010D01*
X181933368Y-144261525D01*
X181726525Y-144468368D01*
X181610000Y-144642760D01*
X181493475Y-144468368D01*
X181286632Y-144261525D01*
X181043411Y-144099010D01*
X180773158Y-143987068D01*
X180486260Y-143930000D01*
X180193740Y-143930000D01*
X179906842Y-143987068D01*
X179636589Y-144099010D01*
X179393368Y-144261525D01*
X179186525Y-144468368D01*
X179070000Y-144642760D01*
X178953475Y-144468368D01*
X178746632Y-144261525D01*
X178503411Y-144099010D01*
X178233158Y-143987068D01*
X177946260Y-143930000D01*
X177653740Y-143930000D01*
X177366842Y-143987068D01*
X177096589Y-144099010D01*
X176853368Y-144261525D01*
X176646525Y-144468368D01*
X176530000Y-144642760D01*
X176413475Y-144468368D01*
X176206632Y-144261525D01*
X175963411Y-144099010D01*
X175693158Y-143987068D01*
X175406260Y-143930000D01*
X175113740Y-143930000D01*
X174826842Y-143987068D01*
X174556589Y-144099010D01*
X174313368Y-144261525D01*
X174106525Y-144468368D01*
X173990000Y-144642760D01*
X173873475Y-144468368D01*
X173666632Y-144261525D01*
X173423411Y-144099010D01*
X173153158Y-143987068D01*
X172866260Y-143930000D01*
X172573740Y-143930000D01*
X172286842Y-143987068D01*
X172016589Y-144099010D01*
X171773368Y-144261525D01*
X171566525Y-144468368D01*
X171450000Y-144642760D01*
X171333475Y-144468368D01*
X171126632Y-144261525D01*
X170883411Y-144099010D01*
X170613158Y-143987068D01*
X170326260Y-143930000D01*
X170033740Y-143930000D01*
X169746842Y-143987068D01*
X169476589Y-144099010D01*
X169233368Y-144261525D01*
X169026525Y-144468368D01*
X168910000Y-144642760D01*
X168793475Y-144468368D01*
X168586632Y-144261525D01*
X168343411Y-144099010D01*
X168073158Y-143987068D01*
X167786260Y-143930000D01*
X167493740Y-143930000D01*
X167206842Y-143987068D01*
X166936589Y-144099010D01*
X166693368Y-144261525D01*
X166486525Y-144468368D01*
X166370000Y-144642760D01*
X166253475Y-144468368D01*
X166046632Y-144261525D01*
X165803411Y-144099010D01*
X165533158Y-143987068D01*
X165246260Y-143930000D01*
X164953740Y-143930000D01*
X164666842Y-143987068D01*
X164396589Y-144099010D01*
X164153368Y-144261525D01*
X163946525Y-144468368D01*
X163830000Y-144642760D01*
X163713475Y-144468368D01*
X163506632Y-144261525D01*
X163263411Y-144099010D01*
X162993158Y-143987068D01*
X162706260Y-143930000D01*
X162413740Y-143930000D01*
X162126842Y-143987068D01*
X161856589Y-144099010D01*
X161613368Y-144261525D01*
X161406525Y-144468368D01*
X161290000Y-144642760D01*
X161173475Y-144468368D01*
X160966632Y-144261525D01*
X160723411Y-144099010D01*
X160453158Y-143987068D01*
X160166260Y-143930000D01*
X159873740Y-143930000D01*
X159586842Y-143987068D01*
X159316589Y-144099010D01*
X159073368Y-144261525D01*
X158866525Y-144468368D01*
X158744805Y-144650534D01*
X158675178Y-144533645D01*
X158480269Y-144317412D01*
X158246920Y-144143359D01*
X157984099Y-144018175D01*
X157836890Y-143973524D01*
X157607000Y-144094845D01*
X157607000Y-145288000D01*
X157627000Y-145288000D01*
X157627000Y-145542000D01*
X157607000Y-145542000D01*
X157607000Y-145562000D01*
X157353000Y-145562000D01*
X157353000Y-145542000D01*
X157333000Y-145542000D01*
X157333000Y-145288000D01*
X157353000Y-145288000D01*
X157353000Y-144094845D01*
X157123110Y-143973524D01*
X156975901Y-144018175D01*
X156713080Y-144143359D01*
X156479731Y-144317412D01*
X156284822Y-144533645D01*
X156215195Y-144650534D01*
X156093475Y-144468368D01*
X155886632Y-144261525D01*
X155643411Y-144099010D01*
X155373158Y-143987068D01*
X155086260Y-143930000D01*
X154793740Y-143930000D01*
X154506842Y-143987068D01*
X154236589Y-144099010D01*
X153993368Y-144261525D01*
X153786525Y-144468368D01*
X153670000Y-144642760D01*
X153553475Y-144468368D01*
X153346632Y-144261525D01*
X153103411Y-144099010D01*
X152833158Y-143987068D01*
X152546260Y-143930000D01*
X152253740Y-143930000D01*
X151966842Y-143987068D01*
X151696589Y-144099010D01*
X151453368Y-144261525D01*
X151246525Y-144468368D01*
X151130000Y-144642760D01*
X151013475Y-144468368D01*
X150806632Y-144261525D01*
X150563411Y-144099010D01*
X150293158Y-143987068D01*
X150006260Y-143930000D01*
X149713740Y-143930000D01*
X149426842Y-143987068D01*
X149156589Y-144099010D01*
X148913368Y-144261525D01*
X148706525Y-144468368D01*
X148590000Y-144642760D01*
X148473475Y-144468368D01*
X148266632Y-144261525D01*
X148023411Y-144099010D01*
X147753158Y-143987068D01*
X147466260Y-143930000D01*
X147173740Y-143930000D01*
X146886842Y-143987068D01*
X146616589Y-144099010D01*
X146373368Y-144261525D01*
X146166525Y-144468368D01*
X146050000Y-144642760D01*
X145933475Y-144468368D01*
X145726632Y-144261525D01*
X145483411Y-144099010D01*
X145213158Y-143987068D01*
X144926260Y-143930000D01*
X144633740Y-143930000D01*
X144346842Y-143987068D01*
X144076589Y-144099010D01*
X143833368Y-144261525D01*
X143626525Y-144468368D01*
X143510000Y-144642760D01*
X143393475Y-144468368D01*
X143186632Y-144261525D01*
X142943411Y-144099010D01*
X142673158Y-143987068D01*
X142386260Y-143930000D01*
X142093740Y-143930000D01*
X141806842Y-143987068D01*
X141536589Y-144099010D01*
X141293368Y-144261525D01*
X141086525Y-144468368D01*
X140970000Y-144642760D01*
X140853475Y-144468368D01*
X140646632Y-144261525D01*
X140403411Y-144099010D01*
X140133158Y-143987068D01*
X139846260Y-143930000D01*
X139553740Y-143930000D01*
X139266842Y-143987068D01*
X138996589Y-144099010D01*
X138753368Y-144261525D01*
X138546525Y-144468368D01*
X138430000Y-144642760D01*
X138313475Y-144468368D01*
X138106632Y-144261525D01*
X137863411Y-144099010D01*
X137593158Y-143987068D01*
X137306260Y-143930000D01*
X137013740Y-143930000D01*
X136726842Y-143987068D01*
X136456589Y-144099010D01*
X136213368Y-144261525D01*
X136006525Y-144468368D01*
X135890000Y-144642760D01*
X135773475Y-144468368D01*
X135566632Y-144261525D01*
X135323411Y-144099010D01*
X135053158Y-143987068D01*
X134766260Y-143930000D01*
X134473740Y-143930000D01*
X134186842Y-143987068D01*
X133916589Y-144099010D01*
X133673368Y-144261525D01*
X133466525Y-144468368D01*
X133350000Y-144642760D01*
X133233475Y-144468368D01*
X133026632Y-144261525D01*
X132783411Y-144099010D01*
X132513158Y-143987068D01*
X132226260Y-143930000D01*
X131933740Y-143930000D01*
X131646842Y-143987068D01*
X131376589Y-144099010D01*
X131133368Y-144261525D01*
X130926525Y-144468368D01*
X130810000Y-144642760D01*
X130693475Y-144468368D01*
X130486632Y-144261525D01*
X130243411Y-144099010D01*
X129973158Y-143987068D01*
X129686260Y-143930000D01*
X129393740Y-143930000D01*
X129106842Y-143987068D01*
X128836589Y-144099010D01*
X128593368Y-144261525D01*
X128386525Y-144468368D01*
X128270000Y-144642760D01*
X128153475Y-144468368D01*
X127946632Y-144261525D01*
X127703411Y-144099010D01*
X127433158Y-143987068D01*
X127146260Y-143930000D01*
X126853740Y-143930000D01*
X126566842Y-143987068D01*
X126296589Y-144099010D01*
X126053368Y-144261525D01*
X125846525Y-144468368D01*
X125730000Y-144642760D01*
X125613475Y-144468368D01*
X125406632Y-144261525D01*
X125163411Y-144099010D01*
X124893158Y-143987068D01*
X124606260Y-143930000D01*
X124313740Y-143930000D01*
X124026842Y-143987068D01*
X123756589Y-144099010D01*
X123513368Y-144261525D01*
X123306525Y-144468368D01*
X123190000Y-144642760D01*
X123073475Y-144468368D01*
X122866632Y-144261525D01*
X122623411Y-144099010D01*
X122353158Y-143987068D01*
X122066260Y-143930000D01*
X121773740Y-143930000D01*
X121486842Y-143987068D01*
X121216589Y-144099010D01*
X120973368Y-144261525D01*
X120766525Y-144468368D01*
X120650000Y-144642760D01*
X120533475Y-144468368D01*
X120326632Y-144261525D01*
X120083411Y-144099010D01*
X119813158Y-143987068D01*
X119526260Y-143930000D01*
X119233740Y-143930000D01*
X118946842Y-143987068D01*
X118676589Y-144099010D01*
X118433368Y-144261525D01*
X118226525Y-144468368D01*
X118110000Y-144642760D01*
X117993475Y-144468368D01*
X117786632Y-144261525D01*
X117543411Y-144099010D01*
X117273158Y-143987068D01*
X116986260Y-143930000D01*
X116693740Y-143930000D01*
X116406842Y-143987068D01*
X116136589Y-144099010D01*
X115893368Y-144261525D01*
X115686525Y-144468368D01*
X115570000Y-144642760D01*
X115453475Y-144468368D01*
X115246632Y-144261525D01*
X115003411Y-144099010D01*
X114733158Y-143987068D01*
X114446260Y-143930000D01*
X114153740Y-143930000D01*
X113866842Y-143987068D01*
X113596589Y-144099010D01*
X113353368Y-144261525D01*
X113146525Y-144468368D01*
X113030000Y-144642760D01*
X112913475Y-144468368D01*
X112706632Y-144261525D01*
X112463411Y-144099010D01*
X112193158Y-143987068D01*
X111906260Y-143930000D01*
X111613740Y-143930000D01*
X111326842Y-143987068D01*
X111056589Y-144099010D01*
X110813368Y-144261525D01*
X110606525Y-144468368D01*
X110490000Y-144642760D01*
X110373475Y-144468368D01*
X110166632Y-144261525D01*
X109923411Y-144099010D01*
X109653158Y-143987068D01*
X109366260Y-143930000D01*
X109073740Y-143930000D01*
X108786842Y-143987068D01*
X108516589Y-144099010D01*
X108273368Y-144261525D01*
X108066525Y-144468368D01*
X107950000Y-144642760D01*
X107833475Y-144468368D01*
X107626632Y-144261525D01*
X107383411Y-144099010D01*
X107113158Y-143987068D01*
X106826260Y-143930000D01*
X106533740Y-143930000D01*
X106246842Y-143987068D01*
X105976589Y-144099010D01*
X105733368Y-144261525D01*
X105526525Y-144468368D01*
X105410000Y-144642760D01*
X105293475Y-144468368D01*
X105086632Y-144261525D01*
X104843411Y-144099010D01*
X104573158Y-143987068D01*
X104286260Y-143930000D01*
X103993740Y-143930000D01*
X103706842Y-143987068D01*
X103436589Y-144099010D01*
X103193368Y-144261525D01*
X102986525Y-144468368D01*
X102870000Y-144642760D01*
X102753475Y-144468368D01*
X102546632Y-144261525D01*
X102321316Y-144110974D01*
X102326262Y-144106028D01*
X102428586Y-143952889D01*
X102499068Y-143782729D01*
X102535000Y-143602089D01*
X102535000Y-143417911D01*
X102499068Y-143237271D01*
X102428586Y-143067111D01*
X102326262Y-142913972D01*
X102264662Y-142852372D01*
X102655021Y-143113201D01*
X103225554Y-143349524D01*
X103831229Y-143470000D01*
X104448771Y-143470000D01*
X105054446Y-143349524D01*
X105624979Y-143113201D01*
X106138446Y-142770114D01*
X106575114Y-142333446D01*
X106918201Y-141819979D01*
X107154524Y-141249446D01*
X107275000Y-140643771D01*
X107275000Y-140026229D01*
X107154524Y-139420554D01*
X106918201Y-138850021D01*
X106575114Y-138336554D01*
X106138446Y-137899886D01*
X105624979Y-137556799D01*
X105054446Y-137320476D01*
X104448771Y-137200000D01*
X103831229Y-137200000D01*
X103225554Y-137320476D01*
X102655021Y-137556799D01*
X102141554Y-137899886D01*
X101725000Y-138316440D01*
X101725000Y-133892911D01*
X157815000Y-133892911D01*
X157815000Y-134077089D01*
X157850932Y-134257729D01*
X157921414Y-134427889D01*
X158023738Y-134581028D01*
X158153972Y-134711262D01*
X158307111Y-134813586D01*
X158477271Y-134884068D01*
X158657911Y-134920000D01*
X158842089Y-134920000D01*
X159022729Y-134884068D01*
X159192889Y-134813586D01*
X159295535Y-134745000D01*
X194091928Y-134745000D01*
X194091928Y-134835000D01*
X194104188Y-134959482D01*
X194140498Y-135079180D01*
X194199463Y-135189494D01*
X194278815Y-135286185D01*
X194375506Y-135365537D01*
X194485820Y-135424502D01*
X194605518Y-135460812D01*
X194730000Y-135473072D01*
X196430000Y-135473072D01*
X196554482Y-135460812D01*
X196674180Y-135424502D01*
X196784494Y-135365537D01*
X196881185Y-135286185D01*
X196960537Y-135189494D01*
X197019502Y-135079180D01*
X197055812Y-134959482D01*
X197068072Y-134835000D01*
X197068072Y-133135000D01*
X197055812Y-133010518D01*
X197019502Y-132890820D01*
X196960537Y-132780506D01*
X196881185Y-132683815D01*
X196784494Y-132604463D01*
X196674180Y-132545498D01*
X196593534Y-132521034D01*
X196677588Y-132445269D01*
X196851641Y-132211920D01*
X196976825Y-131949099D01*
X197021476Y-131801890D01*
X196900155Y-131572000D01*
X195707000Y-131572000D01*
X195707000Y-131592000D01*
X195453000Y-131592000D01*
X195453000Y-131572000D01*
X194259845Y-131572000D01*
X194138524Y-131801890D01*
X194183175Y-131949099D01*
X194308359Y-132211920D01*
X194482412Y-132445269D01*
X194566466Y-132521034D01*
X194485820Y-132545498D01*
X194375506Y-132604463D01*
X194278815Y-132683815D01*
X194199463Y-132780506D01*
X194140498Y-132890820D01*
X194104188Y-133010518D01*
X194091928Y-133135000D01*
X194091928Y-133225000D01*
X159295535Y-133225000D01*
X159192889Y-133156414D01*
X159022729Y-133085932D01*
X158842089Y-133050000D01*
X158657911Y-133050000D01*
X158477271Y-133085932D01*
X158307111Y-133156414D01*
X158153972Y-133258738D01*
X158023738Y-133388972D01*
X157921414Y-133542111D01*
X157850932Y-133712271D01*
X157815000Y-133892911D01*
X101725000Y-133892911D01*
X101725000Y-131088110D01*
X194138524Y-131088110D01*
X194259845Y-131318000D01*
X195453000Y-131318000D01*
X195453000Y-130124186D01*
X195707000Y-130124186D01*
X195707000Y-131318000D01*
X196900155Y-131318000D01*
X197021476Y-131088110D01*
X196976825Y-130940901D01*
X196851641Y-130678080D01*
X196677588Y-130444731D01*
X196461355Y-130249822D01*
X196211252Y-130100843D01*
X195936891Y-130003519D01*
X195707000Y-130124186D01*
X195453000Y-130124186D01*
X195223109Y-130003519D01*
X194948748Y-130100843D01*
X194698645Y-130249822D01*
X194482412Y-130444731D01*
X194308359Y-130678080D01*
X194183175Y-130940901D01*
X194138524Y-131088110D01*
X101725000Y-131088110D01*
X101725000Y-88172911D01*
X157815000Y-88172911D01*
X157815000Y-88357089D01*
X157850932Y-88537729D01*
X157921414Y-88707889D01*
X158023738Y-88861028D01*
X158153972Y-88991262D01*
X158307111Y-89093586D01*
X158477271Y-89164068D01*
X158657911Y-89200000D01*
X158842089Y-89200000D01*
X159022729Y-89164068D01*
X159192889Y-89093586D01*
X159295535Y-89025000D01*
X194091928Y-89025000D01*
X194091928Y-89115000D01*
X194104188Y-89239482D01*
X194140498Y-89359180D01*
X194199463Y-89469494D01*
X194278815Y-89566185D01*
X194375506Y-89645537D01*
X194485820Y-89704502D01*
X194605518Y-89740812D01*
X194730000Y-89753072D01*
X196430000Y-89753072D01*
X196554482Y-89740812D01*
X196674180Y-89704502D01*
X196784494Y-89645537D01*
X196881185Y-89566185D01*
X196960537Y-89469494D01*
X197019502Y-89359180D01*
X197055812Y-89239482D01*
X197068072Y-89115000D01*
X197068072Y-87415000D01*
X197055812Y-87290518D01*
X197019502Y-87170820D01*
X196960537Y-87060506D01*
X196881185Y-86963815D01*
X196784494Y-86884463D01*
X196674180Y-86825498D01*
X196593534Y-86801034D01*
X196677588Y-86725269D01*
X196851641Y-86491920D01*
X196976825Y-86229099D01*
X197021476Y-86081890D01*
X196900155Y-85852000D01*
X195707000Y-85852000D01*
X195707000Y-85872000D01*
X195453000Y-85872000D01*
X195453000Y-85852000D01*
X194259845Y-85852000D01*
X194138524Y-86081890D01*
X194183175Y-86229099D01*
X194308359Y-86491920D01*
X194482412Y-86725269D01*
X194566466Y-86801034D01*
X194485820Y-86825498D01*
X194375506Y-86884463D01*
X194278815Y-86963815D01*
X194199463Y-87060506D01*
X194140498Y-87170820D01*
X194104188Y-87290518D01*
X194091928Y-87415000D01*
X194091928Y-87505000D01*
X159295535Y-87505000D01*
X159192889Y-87436414D01*
X159022729Y-87365932D01*
X158842089Y-87330000D01*
X158657911Y-87330000D01*
X158477271Y-87365932D01*
X158307111Y-87436414D01*
X158153972Y-87538738D01*
X158023738Y-87668972D01*
X157921414Y-87822111D01*
X157850932Y-87992271D01*
X157815000Y-88172911D01*
X101725000Y-88172911D01*
X101725000Y-85368110D01*
X194138524Y-85368110D01*
X194259845Y-85598000D01*
X195453000Y-85598000D01*
X195453000Y-84404186D01*
X195707000Y-84404186D01*
X195707000Y-85598000D01*
X196900155Y-85598000D01*
X197021476Y-85368110D01*
X196976825Y-85220901D01*
X196851641Y-84958080D01*
X196677588Y-84724731D01*
X196461355Y-84529822D01*
X196211252Y-84380843D01*
X195936891Y-84283519D01*
X195707000Y-84404186D01*
X195453000Y-84404186D01*
X195223109Y-84283519D01*
X194948748Y-84380843D01*
X194698645Y-84529822D01*
X194482412Y-84724731D01*
X194308359Y-84958080D01*
X194183175Y-85220901D01*
X194138524Y-85368110D01*
X101725000Y-85368110D01*
X101725000Y-79160000D01*
X102651928Y-79160000D01*
X102651928Y-80860000D01*
X102664188Y-80984482D01*
X102700498Y-81104180D01*
X102759463Y-81214494D01*
X102838815Y-81311185D01*
X102935506Y-81390537D01*
X103045820Y-81449502D01*
X103165518Y-81485812D01*
X103290000Y-81498072D01*
X104990000Y-81498072D01*
X105114482Y-81485812D01*
X105234180Y-81449502D01*
X105344494Y-81390537D01*
X105441185Y-81311185D01*
X105520537Y-81214494D01*
X105579502Y-81104180D01*
X105601513Y-81031620D01*
X105733368Y-81163475D01*
X105976589Y-81325990D01*
X106246842Y-81437932D01*
X106533740Y-81495000D01*
X106826260Y-81495000D01*
X107113158Y-81437932D01*
X107383411Y-81325990D01*
X107626632Y-81163475D01*
X107833475Y-80956632D01*
X107950000Y-80782240D01*
X108066525Y-80956632D01*
X108273368Y-81163475D01*
X108516589Y-81325990D01*
X108786842Y-81437932D01*
X109073740Y-81495000D01*
X109366260Y-81495000D01*
X109653158Y-81437932D01*
X109923411Y-81325990D01*
X110166632Y-81163475D01*
X110373475Y-80956632D01*
X110490000Y-80782240D01*
X110606525Y-80956632D01*
X110813368Y-81163475D01*
X111056589Y-81325990D01*
X111326842Y-81437932D01*
X111613740Y-81495000D01*
X111906260Y-81495000D01*
X112193158Y-81437932D01*
X112463411Y-81325990D01*
X112706632Y-81163475D01*
X112913475Y-80956632D01*
X113030000Y-80782240D01*
X113146525Y-80956632D01*
X113353368Y-81163475D01*
X113596589Y-81325990D01*
X113866842Y-81437932D01*
X114153740Y-81495000D01*
X114446260Y-81495000D01*
X114733158Y-81437932D01*
X115003411Y-81325990D01*
X115246632Y-81163475D01*
X115453475Y-80956632D01*
X115570000Y-80782240D01*
X115686525Y-80956632D01*
X115893368Y-81163475D01*
X116136589Y-81325990D01*
X116406842Y-81437932D01*
X116693740Y-81495000D01*
X116986260Y-81495000D01*
X117273158Y-81437932D01*
X117543411Y-81325990D01*
X117786632Y-81163475D01*
X117993475Y-80956632D01*
X118110000Y-80782240D01*
X118226525Y-80956632D01*
X118433368Y-81163475D01*
X118676589Y-81325990D01*
X118946842Y-81437932D01*
X119233740Y-81495000D01*
X119526260Y-81495000D01*
X119813158Y-81437932D01*
X120083411Y-81325990D01*
X120326632Y-81163475D01*
X120533475Y-80956632D01*
X120650000Y-80782240D01*
X120766525Y-80956632D01*
X120973368Y-81163475D01*
X121216589Y-81325990D01*
X121486842Y-81437932D01*
X121773740Y-81495000D01*
X122066260Y-81495000D01*
X122353158Y-81437932D01*
X122623411Y-81325990D01*
X122866632Y-81163475D01*
X123073475Y-80956632D01*
X123190000Y-80782240D01*
X123306525Y-80956632D01*
X123513368Y-81163475D01*
X123756589Y-81325990D01*
X124026842Y-81437932D01*
X124313740Y-81495000D01*
X124606260Y-81495000D01*
X124893158Y-81437932D01*
X125163411Y-81325990D01*
X125406632Y-81163475D01*
X125613475Y-80956632D01*
X125730000Y-80782240D01*
X125846525Y-80956632D01*
X126053368Y-81163475D01*
X126296589Y-81325990D01*
X126566842Y-81437932D01*
X126853740Y-81495000D01*
X127146260Y-81495000D01*
X127433158Y-81437932D01*
X127703411Y-81325990D01*
X127946632Y-81163475D01*
X128153475Y-80956632D01*
X128315990Y-80713411D01*
X128427932Y-80443158D01*
X128485000Y-80156260D01*
X128485000Y-79863740D01*
X128427932Y-79576842D01*
X128315990Y-79306589D01*
X128218043Y-79160000D01*
X130591928Y-79160000D01*
X130591928Y-80860000D01*
X130604188Y-80984482D01*
X130640498Y-81104180D01*
X130699463Y-81214494D01*
X130778815Y-81311185D01*
X130875506Y-81390537D01*
X130985820Y-81449502D01*
X131105518Y-81485812D01*
X131230000Y-81498072D01*
X132930000Y-81498072D01*
X133054482Y-81485812D01*
X133174180Y-81449502D01*
X133284494Y-81390537D01*
X133381185Y-81311185D01*
X133460537Y-81214494D01*
X133519502Y-81104180D01*
X133541513Y-81031620D01*
X133673368Y-81163475D01*
X133916589Y-81325990D01*
X134186842Y-81437932D01*
X134473740Y-81495000D01*
X134766260Y-81495000D01*
X135053158Y-81437932D01*
X135323411Y-81325990D01*
X135566632Y-81163475D01*
X135773475Y-80956632D01*
X135890000Y-80782240D01*
X136006525Y-80956632D01*
X136213368Y-81163475D01*
X136456589Y-81325990D01*
X136726842Y-81437932D01*
X137013740Y-81495000D01*
X137306260Y-81495000D01*
X137593158Y-81437932D01*
X137863411Y-81325990D01*
X138106632Y-81163475D01*
X138313475Y-80956632D01*
X138430000Y-80782240D01*
X138546525Y-80956632D01*
X138753368Y-81163475D01*
X138996589Y-81325990D01*
X139266842Y-81437932D01*
X139553740Y-81495000D01*
X139846260Y-81495000D01*
X140133158Y-81437932D01*
X140403411Y-81325990D01*
X140646632Y-81163475D01*
X140853475Y-80956632D01*
X140970000Y-80782240D01*
X141086525Y-80956632D01*
X141293368Y-81163475D01*
X141536589Y-81325990D01*
X141806842Y-81437932D01*
X142093740Y-81495000D01*
X142386260Y-81495000D01*
X142673158Y-81437932D01*
X142943411Y-81325990D01*
X143186632Y-81163475D01*
X143393475Y-80956632D01*
X143510000Y-80782240D01*
X143626525Y-80956632D01*
X143833368Y-81163475D01*
X144076589Y-81325990D01*
X144346842Y-81437932D01*
X144633740Y-81495000D01*
X144926260Y-81495000D01*
X145213158Y-81437932D01*
X145483411Y-81325990D01*
X145726632Y-81163475D01*
X145933475Y-80956632D01*
X146050000Y-80782240D01*
X146166525Y-80956632D01*
X146373368Y-81163475D01*
X146616589Y-81325990D01*
X146886842Y-81437932D01*
X147173740Y-81495000D01*
X147466260Y-81495000D01*
X147753158Y-81437932D01*
X148023411Y-81325990D01*
X148266632Y-81163475D01*
X148473475Y-80956632D01*
X148590000Y-80782240D01*
X148706525Y-80956632D01*
X148913368Y-81163475D01*
X149156589Y-81325990D01*
X149426842Y-81437932D01*
X149713740Y-81495000D01*
X150006260Y-81495000D01*
X150293158Y-81437932D01*
X150563411Y-81325990D01*
X150806632Y-81163475D01*
X151013475Y-80956632D01*
X151130000Y-80782240D01*
X151246525Y-80956632D01*
X151453368Y-81163475D01*
X151696589Y-81325990D01*
X151966842Y-81437932D01*
X152253740Y-81495000D01*
X152546260Y-81495000D01*
X152833158Y-81437932D01*
X153103411Y-81325990D01*
X153346632Y-81163475D01*
X153553475Y-80956632D01*
X153670000Y-80782240D01*
X153786525Y-80956632D01*
X153993368Y-81163475D01*
X154236589Y-81325990D01*
X154506842Y-81437932D01*
X154793740Y-81495000D01*
X155086260Y-81495000D01*
X155373158Y-81437932D01*
X155643411Y-81325990D01*
X155886632Y-81163475D01*
X156093475Y-80956632D01*
X156255990Y-80713411D01*
X156367932Y-80443158D01*
X156425000Y-80156260D01*
X156425000Y-79863740D01*
X156367932Y-79576842D01*
X156255990Y-79306589D01*
X156093475Y-79063368D01*
X155886632Y-78856525D01*
X155643411Y-78694010D01*
X155373158Y-78582068D01*
X155086260Y-78525000D01*
X154793740Y-78525000D01*
X154506842Y-78582068D01*
X154236589Y-78694010D01*
X153993368Y-78856525D01*
X153786525Y-79063368D01*
X153670000Y-79237760D01*
X153553475Y-79063368D01*
X153346632Y-78856525D01*
X153103411Y-78694010D01*
X152833158Y-78582068D01*
X152546260Y-78525000D01*
X152253740Y-78525000D01*
X151966842Y-78582068D01*
X151696589Y-78694010D01*
X151453368Y-78856525D01*
X151246525Y-79063368D01*
X151130000Y-79237760D01*
X151013475Y-79063368D01*
X150806632Y-78856525D01*
X150563411Y-78694010D01*
X150293158Y-78582068D01*
X150006260Y-78525000D01*
X149713740Y-78525000D01*
X149426842Y-78582068D01*
X149156589Y-78694010D01*
X148913368Y-78856525D01*
X148706525Y-79063368D01*
X148590000Y-79237760D01*
X148473475Y-79063368D01*
X148266632Y-78856525D01*
X148023411Y-78694010D01*
X147753158Y-78582068D01*
X147466260Y-78525000D01*
X147173740Y-78525000D01*
X146886842Y-78582068D01*
X146616589Y-78694010D01*
X146373368Y-78856525D01*
X146166525Y-79063368D01*
X146050000Y-79237760D01*
X145933475Y-79063368D01*
X145726632Y-78856525D01*
X145483411Y-78694010D01*
X145213158Y-78582068D01*
X144926260Y-78525000D01*
X144633740Y-78525000D01*
X144346842Y-78582068D01*
X144076589Y-78694010D01*
X143833368Y-78856525D01*
X143626525Y-79063368D01*
X143510000Y-79237760D01*
X143393475Y-79063368D01*
X143186632Y-78856525D01*
X142943411Y-78694010D01*
X142673158Y-78582068D01*
X142386260Y-78525000D01*
X142093740Y-78525000D01*
X141806842Y-78582068D01*
X141536589Y-78694010D01*
X141293368Y-78856525D01*
X141086525Y-79063368D01*
X140970000Y-79237760D01*
X140853475Y-79063368D01*
X140646632Y-78856525D01*
X140403411Y-78694010D01*
X140133158Y-78582068D01*
X139846260Y-78525000D01*
X139553740Y-78525000D01*
X139266842Y-78582068D01*
X138996589Y-78694010D01*
X138753368Y-78856525D01*
X138546525Y-79063368D01*
X138430000Y-79237760D01*
X138313475Y-79063368D01*
X138106632Y-78856525D01*
X137863411Y-78694010D01*
X137593158Y-78582068D01*
X137306260Y-78525000D01*
X137013740Y-78525000D01*
X136726842Y-78582068D01*
X136456589Y-78694010D01*
X136213368Y-78856525D01*
X136006525Y-79063368D01*
X135890000Y-79237760D01*
X135773475Y-79063368D01*
X135566632Y-78856525D01*
X135323411Y-78694010D01*
X135053158Y-78582068D01*
X134766260Y-78525000D01*
X134473740Y-78525000D01*
X134186842Y-78582068D01*
X133916589Y-78694010D01*
X133673368Y-78856525D01*
X133541513Y-78988380D01*
X133519502Y-78915820D01*
X133460537Y-78805506D01*
X133381185Y-78708815D01*
X133284494Y-78629463D01*
X133174180Y-78570498D01*
X133054482Y-78534188D01*
X132930000Y-78521928D01*
X131230000Y-78521928D01*
X131105518Y-78534188D01*
X130985820Y-78570498D01*
X130875506Y-78629463D01*
X130778815Y-78708815D01*
X130699463Y-78805506D01*
X130640498Y-78915820D01*
X130604188Y-79035518D01*
X130591928Y-79160000D01*
X128218043Y-79160000D01*
X128153475Y-79063368D01*
X127946632Y-78856525D01*
X127703411Y-78694010D01*
X127433158Y-78582068D01*
X127146260Y-78525000D01*
X126853740Y-78525000D01*
X126566842Y-78582068D01*
X126296589Y-78694010D01*
X126053368Y-78856525D01*
X125846525Y-79063368D01*
X125730000Y-79237760D01*
X125613475Y-79063368D01*
X125406632Y-78856525D01*
X125163411Y-78694010D01*
X124893158Y-78582068D01*
X124606260Y-78525000D01*
X124313740Y-78525000D01*
X124026842Y-78582068D01*
X123756589Y-78694010D01*
X123513368Y-78856525D01*
X123306525Y-79063368D01*
X123190000Y-79237760D01*
X123073475Y-79063368D01*
X122866632Y-78856525D01*
X122623411Y-78694010D01*
X122353158Y-78582068D01*
X122066260Y-78525000D01*
X121773740Y-78525000D01*
X121486842Y-78582068D01*
X121216589Y-78694010D01*
X120973368Y-78856525D01*
X120766525Y-79063368D01*
X120650000Y-79237760D01*
X120533475Y-79063368D01*
X120326632Y-78856525D01*
X120083411Y-78694010D01*
X119813158Y-78582068D01*
X119526260Y-78525000D01*
X119233740Y-78525000D01*
X118946842Y-78582068D01*
X118676589Y-78694010D01*
X118433368Y-78856525D01*
X118226525Y-79063368D01*
X118110000Y-79237760D01*
X117993475Y-79063368D01*
X117786632Y-78856525D01*
X117543411Y-78694010D01*
X117273158Y-78582068D01*
X116986260Y-78525000D01*
X116693740Y-78525000D01*
X116406842Y-78582068D01*
X116136589Y-78694010D01*
X115893368Y-78856525D01*
X115686525Y-79063368D01*
X115570000Y-79237760D01*
X115453475Y-79063368D01*
X115246632Y-78856525D01*
X115003411Y-78694010D01*
X114733158Y-78582068D01*
X114446260Y-78525000D01*
X114153740Y-78525000D01*
X113866842Y-78582068D01*
X113596589Y-78694010D01*
X113353368Y-78856525D01*
X113146525Y-79063368D01*
X113030000Y-79237760D01*
X112913475Y-79063368D01*
X112706632Y-78856525D01*
X112463411Y-78694010D01*
X112193158Y-78582068D01*
X111906260Y-78525000D01*
X111613740Y-78525000D01*
X111326842Y-78582068D01*
X111056589Y-78694010D01*
X110813368Y-78856525D01*
X110606525Y-79063368D01*
X110490000Y-79237760D01*
X110373475Y-79063368D01*
X110166632Y-78856525D01*
X109923411Y-78694010D01*
X109653158Y-78582068D01*
X109366260Y-78525000D01*
X109073740Y-78525000D01*
X108786842Y-78582068D01*
X108516589Y-78694010D01*
X108273368Y-78856525D01*
X108066525Y-79063368D01*
X107950000Y-79237760D01*
X107833475Y-79063368D01*
X107626632Y-78856525D01*
X107383411Y-78694010D01*
X107113158Y-78582068D01*
X106826260Y-78525000D01*
X106533740Y-78525000D01*
X106246842Y-78582068D01*
X105976589Y-78694010D01*
X105733368Y-78856525D01*
X105601513Y-78988380D01*
X105579502Y-78915820D01*
X105520537Y-78805506D01*
X105441185Y-78708815D01*
X105344494Y-78629463D01*
X105234180Y-78570498D01*
X105114482Y-78534188D01*
X104990000Y-78521928D01*
X103290000Y-78521928D01*
X103165518Y-78534188D01*
X103045820Y-78570498D01*
X102935506Y-78629463D01*
X102838815Y-78708815D01*
X102759463Y-78805506D01*
X102700498Y-78915820D01*
X102664188Y-79035518D01*
X102651928Y-79160000D01*
X101725000Y-79160000D01*
X101725000Y-73495000D01*
X154771928Y-73495000D01*
X154771928Y-75095000D01*
X154784188Y-75219482D01*
X154820498Y-75339180D01*
X154879463Y-75449494D01*
X154958815Y-75546185D01*
X155055506Y-75625537D01*
X155165820Y-75684502D01*
X155285518Y-75720812D01*
X155410000Y-75733072D01*
X157010000Y-75733072D01*
X157134482Y-75720812D01*
X157254180Y-75684502D01*
X157364494Y-75625537D01*
X157461185Y-75546185D01*
X157540537Y-75449494D01*
X157599502Y-75339180D01*
X157635812Y-75219482D01*
X157636643Y-75211039D01*
X157835241Y-75409637D01*
X158070273Y-75566680D01*
X158331426Y-75674853D01*
X158608665Y-75730000D01*
X158891335Y-75730000D01*
X159168574Y-75674853D01*
X159429727Y-75566680D01*
X159664759Y-75409637D01*
X159864637Y-75209759D01*
X160020000Y-74977241D01*
X160175363Y-75209759D01*
X160375241Y-75409637D01*
X160610273Y-75566680D01*
X160871426Y-75674853D01*
X161148665Y-75730000D01*
X161431335Y-75730000D01*
X161708574Y-75674853D01*
X161969727Y-75566680D01*
X162204759Y-75409637D01*
X162404637Y-75209759D01*
X162561680Y-74974727D01*
X162566067Y-74964135D01*
X162677615Y-75150131D01*
X162866586Y-75358519D01*
X163092580Y-75526037D01*
X163346913Y-75646246D01*
X163480961Y-75686904D01*
X163703000Y-75564915D01*
X163703000Y-74422000D01*
X163683000Y-74422000D01*
X163683000Y-74168000D01*
X163703000Y-74168000D01*
X163703000Y-73025085D01*
X163957000Y-73025085D01*
X163957000Y-74168000D01*
X163977000Y-74168000D01*
X163977000Y-74422000D01*
X163957000Y-74422000D01*
X163957000Y-75564915D01*
X164179039Y-75686904D01*
X164313087Y-75646246D01*
X164567420Y-75526037D01*
X164793414Y-75358519D01*
X164982385Y-75150131D01*
X165093933Y-74964135D01*
X165098320Y-74974727D01*
X165255363Y-75209759D01*
X165455241Y-75409637D01*
X165690273Y-75566680D01*
X165951426Y-75674853D01*
X166228665Y-75730000D01*
X166511335Y-75730000D01*
X166788574Y-75674853D01*
X167049727Y-75566680D01*
X167284759Y-75409637D01*
X167484637Y-75209759D01*
X167640000Y-74977241D01*
X167795363Y-75209759D01*
X167995241Y-75409637D01*
X168230273Y-75566680D01*
X168491426Y-75674853D01*
X168768665Y-75730000D01*
X169051335Y-75730000D01*
X169328574Y-75674853D01*
X169589727Y-75566680D01*
X169824759Y-75409637D01*
X170024637Y-75209759D01*
X170180000Y-74977241D01*
X170335363Y-75209759D01*
X170535241Y-75409637D01*
X170770273Y-75566680D01*
X171031426Y-75674853D01*
X171308665Y-75730000D01*
X171591335Y-75730000D01*
X171868574Y-75674853D01*
X172129727Y-75566680D01*
X172364759Y-75409637D01*
X172564637Y-75209759D01*
X172720000Y-74977241D01*
X172875363Y-75209759D01*
X173075241Y-75409637D01*
X173310273Y-75566680D01*
X173571426Y-75674853D01*
X173848665Y-75730000D01*
X174131335Y-75730000D01*
X174408574Y-75674853D01*
X174669727Y-75566680D01*
X174904759Y-75409637D01*
X175104637Y-75209759D01*
X175260000Y-74977241D01*
X175415363Y-75209759D01*
X175615241Y-75409637D01*
X175850273Y-75566680D01*
X176111426Y-75674853D01*
X176388665Y-75730000D01*
X176671335Y-75730000D01*
X176948574Y-75674853D01*
X177209727Y-75566680D01*
X177444759Y-75409637D01*
X177644637Y-75209759D01*
X177800000Y-74977241D01*
X177955363Y-75209759D01*
X178155241Y-75409637D01*
X178390273Y-75566680D01*
X178651426Y-75674853D01*
X178928665Y-75730000D01*
X179211335Y-75730000D01*
X179488574Y-75674853D01*
X179749727Y-75566680D01*
X179984759Y-75409637D01*
X180184637Y-75209759D01*
X180340000Y-74977241D01*
X180495363Y-75209759D01*
X180695241Y-75409637D01*
X180930273Y-75566680D01*
X181191426Y-75674853D01*
X181468665Y-75730000D01*
X181751335Y-75730000D01*
X182028574Y-75674853D01*
X182289727Y-75566680D01*
X182524759Y-75409637D01*
X182724637Y-75209759D01*
X182880000Y-74977241D01*
X183035363Y-75209759D01*
X183235241Y-75409637D01*
X183470273Y-75566680D01*
X183731426Y-75674853D01*
X184008665Y-75730000D01*
X184291335Y-75730000D01*
X184568574Y-75674853D01*
X184829727Y-75566680D01*
X185064759Y-75409637D01*
X185264637Y-75209759D01*
X185420000Y-74977241D01*
X185575363Y-75209759D01*
X185775241Y-75409637D01*
X186010273Y-75566680D01*
X186271426Y-75674853D01*
X186548665Y-75730000D01*
X186831335Y-75730000D01*
X187108574Y-75674853D01*
X187369727Y-75566680D01*
X187604759Y-75409637D01*
X187804637Y-75209759D01*
X187960000Y-74977241D01*
X188115363Y-75209759D01*
X188315241Y-75409637D01*
X188550273Y-75566680D01*
X188811426Y-75674853D01*
X189088665Y-75730000D01*
X189371335Y-75730000D01*
X189648574Y-75674853D01*
X189909727Y-75566680D01*
X190144759Y-75409637D01*
X190344637Y-75209759D01*
X190500000Y-74977241D01*
X190655363Y-75209759D01*
X190855241Y-75409637D01*
X191090273Y-75566680D01*
X191351426Y-75674853D01*
X191628665Y-75730000D01*
X191911335Y-75730000D01*
X192188574Y-75674853D01*
X192449727Y-75566680D01*
X192684759Y-75409637D01*
X192884637Y-75209759D01*
X193041680Y-74974727D01*
X193149853Y-74713574D01*
X193205000Y-74436335D01*
X193205000Y-74153665D01*
X193149853Y-73876426D01*
X193041680Y-73615273D01*
X192884637Y-73380241D01*
X192684759Y-73180363D01*
X192449727Y-73023320D01*
X192188574Y-72915147D01*
X191911335Y-72860000D01*
X191628665Y-72860000D01*
X191351426Y-72915147D01*
X191090273Y-73023320D01*
X190855241Y-73180363D01*
X190655363Y-73380241D01*
X190500000Y-73612759D01*
X190344637Y-73380241D01*
X190144759Y-73180363D01*
X189909727Y-73023320D01*
X189648574Y-72915147D01*
X189371335Y-72860000D01*
X189088665Y-72860000D01*
X188811426Y-72915147D01*
X188550273Y-73023320D01*
X188315241Y-73180363D01*
X188115363Y-73380241D01*
X187960000Y-73612759D01*
X187804637Y-73380241D01*
X187604759Y-73180363D01*
X187369727Y-73023320D01*
X187108574Y-72915147D01*
X186831335Y-72860000D01*
X186548665Y-72860000D01*
X186271426Y-72915147D01*
X186010273Y-73023320D01*
X185775241Y-73180363D01*
X185575363Y-73380241D01*
X185420000Y-73612759D01*
X185264637Y-73380241D01*
X185064759Y-73180363D01*
X184829727Y-73023320D01*
X184568574Y-72915147D01*
X184291335Y-72860000D01*
X184008665Y-72860000D01*
X183731426Y-72915147D01*
X183470273Y-73023320D01*
X183235241Y-73180363D01*
X183035363Y-73380241D01*
X182880000Y-73612759D01*
X182724637Y-73380241D01*
X182524759Y-73180363D01*
X182289727Y-73023320D01*
X182028574Y-72915147D01*
X181751335Y-72860000D01*
X181468665Y-72860000D01*
X181191426Y-72915147D01*
X180930273Y-73023320D01*
X180695241Y-73180363D01*
X180495363Y-73380241D01*
X180340000Y-73612759D01*
X180184637Y-73380241D01*
X179984759Y-73180363D01*
X179749727Y-73023320D01*
X179488574Y-72915147D01*
X179211335Y-72860000D01*
X178928665Y-72860000D01*
X178651426Y-72915147D01*
X178390273Y-73023320D01*
X178155241Y-73180363D01*
X177955363Y-73380241D01*
X177800000Y-73612759D01*
X177644637Y-73380241D01*
X177444759Y-73180363D01*
X177209727Y-73023320D01*
X176948574Y-72915147D01*
X176671335Y-72860000D01*
X176388665Y-72860000D01*
X176111426Y-72915147D01*
X175850273Y-73023320D01*
X175615241Y-73180363D01*
X175415363Y-73380241D01*
X175260000Y-73612759D01*
X175104637Y-73380241D01*
X174904759Y-73180363D01*
X174669727Y-73023320D01*
X174408574Y-72915147D01*
X174131335Y-72860000D01*
X173848665Y-72860000D01*
X173571426Y-72915147D01*
X173310273Y-73023320D01*
X173075241Y-73180363D01*
X172875363Y-73380241D01*
X172720000Y-73612759D01*
X172564637Y-73380241D01*
X172364759Y-73180363D01*
X172129727Y-73023320D01*
X171868574Y-72915147D01*
X171591335Y-72860000D01*
X171308665Y-72860000D01*
X171031426Y-72915147D01*
X170770273Y-73023320D01*
X170535241Y-73180363D01*
X170335363Y-73380241D01*
X170180000Y-73612759D01*
X170024637Y-73380241D01*
X169824759Y-73180363D01*
X169589727Y-73023320D01*
X169328574Y-72915147D01*
X169051335Y-72860000D01*
X168768665Y-72860000D01*
X168491426Y-72915147D01*
X168230273Y-73023320D01*
X167995241Y-73180363D01*
X167795363Y-73380241D01*
X167640000Y-73612759D01*
X167484637Y-73380241D01*
X167284759Y-73180363D01*
X167049727Y-73023320D01*
X166788574Y-72915147D01*
X166511335Y-72860000D01*
X166228665Y-72860000D01*
X165951426Y-72915147D01*
X165690273Y-73023320D01*
X165455241Y-73180363D01*
X165255363Y-73380241D01*
X165098320Y-73615273D01*
X165093933Y-73625865D01*
X164982385Y-73439869D01*
X164793414Y-73231481D01*
X164567420Y-73063963D01*
X164313087Y-72943754D01*
X164179039Y-72903096D01*
X163957000Y-73025085D01*
X163703000Y-73025085D01*
X163480961Y-72903096D01*
X163346913Y-72943754D01*
X163092580Y-73063963D01*
X162866586Y-73231481D01*
X162677615Y-73439869D01*
X162566067Y-73625865D01*
X162561680Y-73615273D01*
X162404637Y-73380241D01*
X162204759Y-73180363D01*
X161969727Y-73023320D01*
X161708574Y-72915147D01*
X161431335Y-72860000D01*
X161148665Y-72860000D01*
X160871426Y-72915147D01*
X160610273Y-73023320D01*
X160375241Y-73180363D01*
X160175363Y-73380241D01*
X160020000Y-73612759D01*
X159864637Y-73380241D01*
X159664759Y-73180363D01*
X159429727Y-73023320D01*
X159168574Y-72915147D01*
X158891335Y-72860000D01*
X158608665Y-72860000D01*
X158331426Y-72915147D01*
X158070273Y-73023320D01*
X157835241Y-73180363D01*
X157636643Y-73378961D01*
X157635812Y-73370518D01*
X157599502Y-73250820D01*
X157540537Y-73140506D01*
X157461185Y-73043815D01*
X157364494Y-72964463D01*
X157254180Y-72905498D01*
X157134482Y-72869188D01*
X157010000Y-72856928D01*
X155410000Y-72856928D01*
X155285518Y-72869188D01*
X155165820Y-72905498D01*
X155055506Y-72964463D01*
X154958815Y-73043815D01*
X154879463Y-73140506D01*
X154820498Y-73250820D01*
X154784188Y-73370518D01*
X154771928Y-73495000D01*
X101725000Y-73495000D01*
X101725000Y-70392911D01*
X106380000Y-70392911D01*
X106380000Y-70577089D01*
X106415932Y-70757729D01*
X106486414Y-70927889D01*
X106588738Y-71081028D01*
X106718972Y-71211262D01*
X106872111Y-71313586D01*
X107042271Y-71384068D01*
X107222911Y-71420000D01*
X107407089Y-71420000D01*
X107587729Y-71384068D01*
X107757889Y-71313586D01*
X107860535Y-71245000D01*
X110341256Y-71245000D01*
X110296414Y-71312111D01*
X110225932Y-71482271D01*
X110190000Y-71662911D01*
X110190000Y-71847089D01*
X110225932Y-72027729D01*
X110296414Y-72197889D01*
X110398738Y-72351028D01*
X110528972Y-72481262D01*
X110682111Y-72583586D01*
X110852271Y-72654068D01*
X111032911Y-72690000D01*
X111217089Y-72690000D01*
X111397729Y-72654068D01*
X111567889Y-72583586D01*
X111670535Y-72515000D01*
X155029465Y-72515000D01*
X155132111Y-72583586D01*
X155302271Y-72654068D01*
X155482911Y-72690000D01*
X155667089Y-72690000D01*
X155847729Y-72654068D01*
X156017889Y-72583586D01*
X156171028Y-72481262D01*
X156301262Y-72351028D01*
X156403586Y-72197889D01*
X156474068Y-72027729D01*
X156503454Y-71880000D01*
X157569465Y-71880000D01*
X157672111Y-71948586D01*
X157842271Y-72019068D01*
X158022911Y-72055000D01*
X158207089Y-72055000D01*
X158387729Y-72019068D01*
X158557889Y-71948586D01*
X158711028Y-71846262D01*
X158841262Y-71716028D01*
X158943586Y-71562889D01*
X159014068Y-71392729D01*
X159043454Y-71245000D01*
X165189465Y-71245000D01*
X165292111Y-71313586D01*
X165462271Y-71384068D01*
X165642911Y-71420000D01*
X165827089Y-71420000D01*
X166007729Y-71384068D01*
X166177889Y-71313586D01*
X166280535Y-71245000D01*
X195034465Y-71245000D01*
X195137111Y-71313586D01*
X195307271Y-71384068D01*
X195487911Y-71420000D01*
X195672089Y-71420000D01*
X195852729Y-71384068D01*
X196022889Y-71313586D01*
X196176028Y-71211262D01*
X196306262Y-71081028D01*
X196408586Y-70927889D01*
X196479068Y-70757729D01*
X196515000Y-70577089D01*
X196515000Y-70392911D01*
X196479068Y-70212271D01*
X196408586Y-70042111D01*
X196306262Y-69888972D01*
X196176028Y-69758738D01*
X196022889Y-69656414D01*
X195852729Y-69585932D01*
X195845505Y-69584495D01*
X195844068Y-69577271D01*
X195773586Y-69407111D01*
X195671262Y-69253972D01*
X195541028Y-69123738D01*
X195387889Y-69021414D01*
X195217729Y-68950932D01*
X195037089Y-68915000D01*
X194852911Y-68915000D01*
X194672271Y-68950932D01*
X194502111Y-69021414D01*
X194399465Y-69090000D01*
X193333454Y-69090000D01*
X193304068Y-68942271D01*
X193233586Y-68772111D01*
X193131262Y-68618972D01*
X193001028Y-68488738D01*
X192847889Y-68386414D01*
X192677729Y-68315932D01*
X192497089Y-68280000D01*
X192312911Y-68280000D01*
X192132271Y-68315932D01*
X191962111Y-68386414D01*
X191859465Y-68455000D01*
X191428454Y-68455000D01*
X191399068Y-68307271D01*
X191328586Y-68137111D01*
X191226262Y-67983972D01*
X191096028Y-67853738D01*
X190942889Y-67751414D01*
X190772729Y-67680932D01*
X190592089Y-67645000D01*
X190407911Y-67645000D01*
X190227271Y-67680932D01*
X190057111Y-67751414D01*
X189954465Y-67820000D01*
X188888454Y-67820000D01*
X188859068Y-67672271D01*
X188788586Y-67502111D01*
X188686262Y-67348972D01*
X188556028Y-67218738D01*
X188402889Y-67116414D01*
X188232729Y-67045932D01*
X188052089Y-67010000D01*
X187867911Y-67010000D01*
X187687271Y-67045932D01*
X187517111Y-67116414D01*
X187414465Y-67185000D01*
X186348454Y-67185000D01*
X186319068Y-67037271D01*
X186248586Y-66867111D01*
X186146262Y-66713972D01*
X186016028Y-66583738D01*
X185862889Y-66481414D01*
X185692729Y-66410932D01*
X185512089Y-66375000D01*
X185327911Y-66375000D01*
X185147271Y-66410932D01*
X184977111Y-66481414D01*
X184874465Y-66550000D01*
X184298744Y-66550000D01*
X184343586Y-66482889D01*
X184414068Y-66312729D01*
X184443454Y-66165000D01*
X185509465Y-66165000D01*
X185612111Y-66233586D01*
X185782271Y-66304068D01*
X185962911Y-66340000D01*
X186147089Y-66340000D01*
X186327729Y-66304068D01*
X186497889Y-66233586D01*
X186651028Y-66131262D01*
X186781262Y-66001028D01*
X186883586Y-65847889D01*
X186954068Y-65677729D01*
X186983454Y-65530000D01*
X188049465Y-65530000D01*
X188152111Y-65598586D01*
X188322271Y-65669068D01*
X188502911Y-65705000D01*
X188687089Y-65705000D01*
X188867729Y-65669068D01*
X189037889Y-65598586D01*
X189191028Y-65496262D01*
X189321262Y-65366028D01*
X189423586Y-65212889D01*
X189494068Y-65042729D01*
X189523454Y-64895000D01*
X190589465Y-64895000D01*
X190692111Y-64963586D01*
X190862271Y-65034068D01*
X191042911Y-65070000D01*
X191227089Y-65070000D01*
X191407729Y-65034068D01*
X191577889Y-64963586D01*
X191731028Y-64861262D01*
X191861262Y-64731028D01*
X191963586Y-64577889D01*
X192034068Y-64407729D01*
X192070000Y-64227089D01*
X192070000Y-64042911D01*
X192034068Y-63862271D01*
X191979433Y-63730369D01*
X192281004Y-63428798D01*
X192310001Y-63405001D01*
X192404974Y-63289276D01*
X192475546Y-63157247D01*
X192519003Y-63013986D01*
X192530000Y-62902333D01*
X192530000Y-62902332D01*
X192533677Y-62865000D01*
X192530000Y-62827667D01*
X192530000Y-60273043D01*
X192684759Y-60169637D01*
X192884637Y-59969759D01*
X193041680Y-59734727D01*
X193149853Y-59473574D01*
X193205000Y-59196335D01*
X193205000Y-58913665D01*
X193149853Y-58636426D01*
X193041680Y-58375273D01*
X192884637Y-58140241D01*
X192684759Y-57940363D01*
X192449727Y-57783320D01*
X192188574Y-57675147D01*
X191911335Y-57620000D01*
X191628665Y-57620000D01*
X191351426Y-57675147D01*
X191090273Y-57783320D01*
X190855241Y-57940363D01*
X190655363Y-58140241D01*
X190500000Y-58372759D01*
X190344637Y-58140241D01*
X190144759Y-57940363D01*
X189909727Y-57783320D01*
X189648574Y-57675147D01*
X189371335Y-57620000D01*
X189088665Y-57620000D01*
X188811426Y-57675147D01*
X188550273Y-57783320D01*
X188315241Y-57940363D01*
X188115363Y-58140241D01*
X187960000Y-58372759D01*
X187804637Y-58140241D01*
X187604759Y-57940363D01*
X187369727Y-57783320D01*
X187108574Y-57675147D01*
X186831335Y-57620000D01*
X186548665Y-57620000D01*
X186271426Y-57675147D01*
X186010273Y-57783320D01*
X185775241Y-57940363D01*
X185575363Y-58140241D01*
X185420000Y-58372759D01*
X185264637Y-58140241D01*
X185064759Y-57940363D01*
X184829727Y-57783320D01*
X184568574Y-57675147D01*
X184291335Y-57620000D01*
X184008665Y-57620000D01*
X183731426Y-57675147D01*
X183470273Y-57783320D01*
X183235241Y-57940363D01*
X183035363Y-58140241D01*
X182880000Y-58372759D01*
X182724637Y-58140241D01*
X182524759Y-57940363D01*
X182289727Y-57783320D01*
X182028574Y-57675147D01*
X181751335Y-57620000D01*
X181468665Y-57620000D01*
X181191426Y-57675147D01*
X180930273Y-57783320D01*
X180695241Y-57940363D01*
X180495363Y-58140241D01*
X180340000Y-58372759D01*
X180184637Y-58140241D01*
X179984759Y-57940363D01*
X179749727Y-57783320D01*
X179488574Y-57675147D01*
X179211335Y-57620000D01*
X178928665Y-57620000D01*
X178651426Y-57675147D01*
X178390273Y-57783320D01*
X178155241Y-57940363D01*
X177955363Y-58140241D01*
X177800000Y-58372759D01*
X177644637Y-58140241D01*
X177444759Y-57940363D01*
X177209727Y-57783320D01*
X176948574Y-57675147D01*
X176671335Y-57620000D01*
X176388665Y-57620000D01*
X176111426Y-57675147D01*
X175850273Y-57783320D01*
X175615241Y-57940363D01*
X175415363Y-58140241D01*
X175260000Y-58372759D01*
X175104637Y-58140241D01*
X174904759Y-57940363D01*
X174669727Y-57783320D01*
X174408574Y-57675147D01*
X174131335Y-57620000D01*
X173848665Y-57620000D01*
X173571426Y-57675147D01*
X173310273Y-57783320D01*
X173075241Y-57940363D01*
X172875363Y-58140241D01*
X172720000Y-58372759D01*
X172564637Y-58140241D01*
X172364759Y-57940363D01*
X172129727Y-57783320D01*
X171868574Y-57675147D01*
X171591335Y-57620000D01*
X171308665Y-57620000D01*
X171031426Y-57675147D01*
X170770273Y-57783320D01*
X170535241Y-57940363D01*
X170335363Y-58140241D01*
X170180000Y-58372759D01*
X170024637Y-58140241D01*
X169824759Y-57940363D01*
X169589727Y-57783320D01*
X169328574Y-57675147D01*
X169051335Y-57620000D01*
X168768665Y-57620000D01*
X168491426Y-57675147D01*
X168230273Y-57783320D01*
X167995241Y-57940363D01*
X167795363Y-58140241D01*
X167640000Y-58372759D01*
X167484637Y-58140241D01*
X167284759Y-57940363D01*
X167049727Y-57783320D01*
X166788574Y-57675147D01*
X166511335Y-57620000D01*
X166228665Y-57620000D01*
X165951426Y-57675147D01*
X165690273Y-57783320D01*
X165455241Y-57940363D01*
X165255363Y-58140241D01*
X165100000Y-58372759D01*
X164944637Y-58140241D01*
X164744759Y-57940363D01*
X164509727Y-57783320D01*
X164248574Y-57675147D01*
X163971335Y-57620000D01*
X163688665Y-57620000D01*
X163411426Y-57675147D01*
X163150273Y-57783320D01*
X162915241Y-57940363D01*
X162715363Y-58140241D01*
X162560000Y-58372759D01*
X162404637Y-58140241D01*
X162204759Y-57940363D01*
X161969727Y-57783320D01*
X161708574Y-57675147D01*
X161431335Y-57620000D01*
X161148665Y-57620000D01*
X160871426Y-57675147D01*
X160610273Y-57783320D01*
X160375241Y-57940363D01*
X160175363Y-58140241D01*
X160018320Y-58375273D01*
X160013933Y-58385865D01*
X159902385Y-58199869D01*
X159713414Y-57991481D01*
X159487420Y-57823963D01*
X159233087Y-57703754D01*
X159099039Y-57663096D01*
X158877000Y-57785085D01*
X158877000Y-58928000D01*
X158897000Y-58928000D01*
X158897000Y-59182000D01*
X158877000Y-59182000D01*
X158877000Y-59202000D01*
X158623000Y-59202000D01*
X158623000Y-59182000D01*
X158603000Y-59182000D01*
X158603000Y-58928000D01*
X158623000Y-58928000D01*
X158623000Y-57785085D01*
X158400961Y-57663096D01*
X158266913Y-57703754D01*
X158012580Y-57823963D01*
X157786586Y-57991481D01*
X157597615Y-58199869D01*
X157486067Y-58385865D01*
X157481680Y-58375273D01*
X157324637Y-58140241D01*
X157124759Y-57940363D01*
X156889727Y-57783320D01*
X156628574Y-57675147D01*
X156351335Y-57620000D01*
X156068665Y-57620000D01*
X155791426Y-57675147D01*
X155530273Y-57783320D01*
X155295241Y-57940363D01*
X155095363Y-58140241D01*
X154938320Y-58375273D01*
X154830147Y-58636426D01*
X154775000Y-58913665D01*
X154775000Y-59196335D01*
X154814832Y-59396580D01*
X154667271Y-59425932D01*
X154497111Y-59496414D01*
X154343972Y-59598738D01*
X154213738Y-59728972D01*
X154111414Y-59882111D01*
X154040932Y-60052271D01*
X154011546Y-60200000D01*
X153580535Y-60200000D01*
X153477889Y-60131414D01*
X153307729Y-60060932D01*
X153127089Y-60025000D01*
X152942911Y-60025000D01*
X152762271Y-60060932D01*
X152592111Y-60131414D01*
X152438972Y-60233738D01*
X152400000Y-60272710D01*
X152361028Y-60233738D01*
X152207889Y-60131414D01*
X152037729Y-60060932D01*
X151857089Y-60025000D01*
X151672911Y-60025000D01*
X151492271Y-60060932D01*
X151322111Y-60131414D01*
X151219465Y-60200000D01*
X142150535Y-60200000D01*
X142047889Y-60131414D01*
X141877729Y-60060932D01*
X141697089Y-60025000D01*
X141512911Y-60025000D01*
X141332271Y-60060932D01*
X141162111Y-60131414D01*
X141008972Y-60233738D01*
X140878738Y-60363972D01*
X140776414Y-60517111D01*
X140705932Y-60687271D01*
X140670000Y-60867911D01*
X140670000Y-61052089D01*
X140705932Y-61232729D01*
X140776414Y-61402889D01*
X140878738Y-61556028D01*
X141008972Y-61686262D01*
X141162111Y-61788586D01*
X141332271Y-61859068D01*
X141512911Y-61895000D01*
X141697089Y-61895000D01*
X141877729Y-61859068D01*
X142047889Y-61788586D01*
X142150535Y-61720000D01*
X143216546Y-61720000D01*
X143245932Y-61867729D01*
X143316414Y-62037889D01*
X143418738Y-62191028D01*
X143548972Y-62321262D01*
X143702111Y-62423586D01*
X143872271Y-62494068D01*
X144052911Y-62530000D01*
X144237089Y-62530000D01*
X144417729Y-62494068D01*
X144585371Y-62424629D01*
X144515932Y-62592271D01*
X144486546Y-62740000D01*
X143420535Y-62740000D01*
X143317889Y-62671414D01*
X143147729Y-62600932D01*
X142967089Y-62565000D01*
X142782911Y-62565000D01*
X142602271Y-62600932D01*
X142432111Y-62671414D01*
X142278972Y-62773738D01*
X142148738Y-62903972D01*
X142046414Y-63057111D01*
X141975932Y-63227271D01*
X141946546Y-63375000D01*
X140880535Y-63375000D01*
X140777889Y-63306414D01*
X140607729Y-63235932D01*
X140427089Y-63200000D01*
X140242911Y-63200000D01*
X140062271Y-63235932D01*
X139892111Y-63306414D01*
X139738972Y-63408738D01*
X139608738Y-63538972D01*
X139506414Y-63692111D01*
X139435932Y-63862271D01*
X139406546Y-64010000D01*
X138340535Y-64010000D01*
X138237889Y-63941414D01*
X138067729Y-63870932D01*
X137887089Y-63835000D01*
X137702911Y-63835000D01*
X137522271Y-63870932D01*
X137352111Y-63941414D01*
X137198972Y-64043738D01*
X137068738Y-64173972D01*
X136966414Y-64327111D01*
X136895932Y-64497271D01*
X136866546Y-64645000D01*
X135800535Y-64645000D01*
X135697889Y-64576414D01*
X135527729Y-64505932D01*
X135347089Y-64470000D01*
X135162911Y-64470000D01*
X134982271Y-64505932D01*
X134812111Y-64576414D01*
X134658972Y-64678738D01*
X134528738Y-64808972D01*
X134426414Y-64962111D01*
X134355932Y-65132271D01*
X134326546Y-65280000D01*
X125640535Y-65280000D01*
X125537889Y-65211414D01*
X125367729Y-65140932D01*
X125187089Y-65105000D01*
X125002911Y-65105000D01*
X124822271Y-65140932D01*
X124652111Y-65211414D01*
X124498972Y-65313738D01*
X124368738Y-65443972D01*
X124266414Y-65597111D01*
X124195932Y-65767271D01*
X124166546Y-65915000D01*
X123100535Y-65915000D01*
X122997889Y-65846414D01*
X122827729Y-65775932D01*
X122647089Y-65740000D01*
X122462911Y-65740000D01*
X122282271Y-65775932D01*
X122112111Y-65846414D01*
X121958972Y-65948738D01*
X121828738Y-66078972D01*
X121726414Y-66232111D01*
X121655932Y-66402271D01*
X121626546Y-66550000D01*
X120560535Y-66550000D01*
X120457889Y-66481414D01*
X120287729Y-66410932D01*
X120107089Y-66375000D01*
X119922911Y-66375000D01*
X119742271Y-66410932D01*
X119572111Y-66481414D01*
X119418972Y-66583738D01*
X119288738Y-66713972D01*
X119186414Y-66867111D01*
X119115932Y-67037271D01*
X119086546Y-67185000D01*
X118020535Y-67185000D01*
X117917889Y-67116414D01*
X117747729Y-67045932D01*
X117567089Y-67010000D01*
X117382911Y-67010000D01*
X117202271Y-67045932D01*
X117032111Y-67116414D01*
X116878972Y-67218738D01*
X116748738Y-67348972D01*
X116646414Y-67502111D01*
X116575932Y-67672271D01*
X116546546Y-67820000D01*
X115480535Y-67820000D01*
X115377889Y-67751414D01*
X115207729Y-67680932D01*
X115027089Y-67645000D01*
X114842911Y-67645000D01*
X114662271Y-67680932D01*
X114492111Y-67751414D01*
X114338972Y-67853738D01*
X114208738Y-67983972D01*
X114106414Y-68137111D01*
X114035932Y-68307271D01*
X114006546Y-68455000D01*
X112940535Y-68455000D01*
X112837889Y-68386414D01*
X112667729Y-68315932D01*
X112487089Y-68280000D01*
X112302911Y-68280000D01*
X112122271Y-68315932D01*
X111952111Y-68386414D01*
X111798972Y-68488738D01*
X111668738Y-68618972D01*
X111566414Y-68772111D01*
X111495932Y-68942271D01*
X111466546Y-69090000D01*
X110400535Y-69090000D01*
X110297889Y-69021414D01*
X110127729Y-68950932D01*
X109947089Y-68915000D01*
X109762911Y-68915000D01*
X109582271Y-68950932D01*
X109412111Y-69021414D01*
X109258972Y-69123738D01*
X109128738Y-69253972D01*
X109026414Y-69407111D01*
X108955932Y-69577271D01*
X108926546Y-69725000D01*
X107860535Y-69725000D01*
X107757889Y-69656414D01*
X107587729Y-69585932D01*
X107407089Y-69550000D01*
X107222911Y-69550000D01*
X107042271Y-69585932D01*
X106872111Y-69656414D01*
X106718972Y-69758738D01*
X106588738Y-69888972D01*
X106486414Y-70042111D01*
X106415932Y-70212271D01*
X106380000Y-70392911D01*
X101725000Y-70392911D01*
X101725000Y-57898560D01*
X102141554Y-58315114D01*
X102655021Y-58658201D01*
X103225554Y-58894524D01*
X103831229Y-59015000D01*
X104448771Y-59015000D01*
X105054446Y-58894524D01*
X105624979Y-58658201D01*
X106138446Y-58315114D01*
X106575114Y-57878446D01*
X106918201Y-57364979D01*
X107154524Y-56794446D01*
X107275000Y-56188771D01*
X107275000Y-55571229D01*
X107154524Y-54965554D01*
X106918201Y-54395021D01*
X106575114Y-53881554D01*
X106138446Y-53444886D01*
X105624979Y-53101799D01*
X105054446Y-52865476D01*
X104448771Y-52745000D01*
X103831229Y-52745000D01*
X103225554Y-52865476D01*
X102655021Y-53101799D01*
X102264662Y-53362628D01*
X102326262Y-53301028D01*
X102428586Y-53147889D01*
X102499068Y-52977729D01*
X102535000Y-52797089D01*
X102535000Y-52612911D01*
X102499068Y-52432271D01*
X102428586Y-52262111D01*
X102326262Y-52108972D01*
X102321316Y-52104026D01*
X102546632Y-51953475D01*
X102753475Y-51746632D01*
X102870000Y-51572240D01*
X102986525Y-51746632D01*
X103193368Y-51953475D01*
X103436589Y-52115990D01*
X103706842Y-52227932D01*
X103993740Y-52285000D01*
X104286260Y-52285000D01*
X104573158Y-52227932D01*
X104843411Y-52115990D01*
X105086632Y-51953475D01*
X105293475Y-51746632D01*
X105410000Y-51572240D01*
X105526525Y-51746632D01*
X105733368Y-51953475D01*
X105976589Y-52115990D01*
X106246842Y-52227932D01*
X106533740Y-52285000D01*
X106826260Y-52285000D01*
X107113158Y-52227932D01*
X107383411Y-52115990D01*
X107626632Y-51953475D01*
X107833475Y-51746632D01*
X107950000Y-51572240D01*
X108066525Y-51746632D01*
X108273368Y-51953475D01*
X108516589Y-52115990D01*
X108786842Y-52227932D01*
X109073740Y-52285000D01*
X109366260Y-52285000D01*
X109653158Y-52227932D01*
X109923411Y-52115990D01*
X110166632Y-51953475D01*
X110373475Y-51746632D01*
X110490000Y-51572240D01*
X110606525Y-51746632D01*
X110813368Y-51953475D01*
X111056589Y-52115990D01*
X111326842Y-52227932D01*
X111613740Y-52285000D01*
X111906260Y-52285000D01*
X112193158Y-52227932D01*
X112463411Y-52115990D01*
X112706632Y-51953475D01*
X112913475Y-51746632D01*
X113030000Y-51572240D01*
X113146525Y-51746632D01*
X113353368Y-51953475D01*
X113596589Y-52115990D01*
X113866842Y-52227932D01*
X114153740Y-52285000D01*
X114446260Y-52285000D01*
X114733158Y-52227932D01*
X115003411Y-52115990D01*
X115246632Y-51953475D01*
X115453475Y-51746632D01*
X115570000Y-51572240D01*
X115686525Y-51746632D01*
X115893368Y-51953475D01*
X116136589Y-52115990D01*
X116406842Y-52227932D01*
X116693740Y-52285000D01*
X116986260Y-52285000D01*
X117273158Y-52227932D01*
X117543411Y-52115990D01*
X117786632Y-51953475D01*
X117993475Y-51746632D01*
X118110000Y-51572240D01*
X118226525Y-51746632D01*
X118433368Y-51953475D01*
X118676589Y-52115990D01*
X118946842Y-52227932D01*
X119233740Y-52285000D01*
X119526260Y-52285000D01*
X119813158Y-52227932D01*
X120083411Y-52115990D01*
X120326632Y-51953475D01*
X120533475Y-51746632D01*
X120650000Y-51572240D01*
X120766525Y-51746632D01*
X120973368Y-51953475D01*
X121216589Y-52115990D01*
X121486842Y-52227932D01*
X121773740Y-52285000D01*
X122066260Y-52285000D01*
X122353158Y-52227932D01*
X122623411Y-52115990D01*
X122866632Y-51953475D01*
X123073475Y-51746632D01*
X123190000Y-51572240D01*
X123306525Y-51746632D01*
X123513368Y-51953475D01*
X123756589Y-52115990D01*
X124026842Y-52227932D01*
X124313740Y-52285000D01*
X124606260Y-52285000D01*
X124893158Y-52227932D01*
X125163411Y-52115990D01*
X125406632Y-51953475D01*
X125613475Y-51746632D01*
X125730000Y-51572240D01*
X125846525Y-51746632D01*
X126053368Y-51953475D01*
X126296589Y-52115990D01*
X126566842Y-52227932D01*
X126853740Y-52285000D01*
X127146260Y-52285000D01*
X127433158Y-52227932D01*
X127703411Y-52115990D01*
X127946632Y-51953475D01*
X128153475Y-51746632D01*
X128270000Y-51572240D01*
X128386525Y-51746632D01*
X128593368Y-51953475D01*
X128836589Y-52115990D01*
X129106842Y-52227932D01*
X129393740Y-52285000D01*
X129686260Y-52285000D01*
X129973158Y-52227932D01*
X130243411Y-52115990D01*
X130486632Y-51953475D01*
X130693475Y-51746632D01*
X130810000Y-51572240D01*
X130926525Y-51746632D01*
X131133368Y-51953475D01*
X131376589Y-52115990D01*
X131646842Y-52227932D01*
X131933740Y-52285000D01*
X132226260Y-52285000D01*
X132513158Y-52227932D01*
X132783411Y-52115990D01*
X133026632Y-51953475D01*
X133233475Y-51746632D01*
X133350000Y-51572240D01*
X133466525Y-51746632D01*
X133673368Y-51953475D01*
X133916589Y-52115990D01*
X134186842Y-52227932D01*
X134473740Y-52285000D01*
X134766260Y-52285000D01*
X135053158Y-52227932D01*
X135323411Y-52115990D01*
X135566632Y-51953475D01*
X135773475Y-51746632D01*
X135890000Y-51572240D01*
X136006525Y-51746632D01*
X136213368Y-51953475D01*
X136456589Y-52115990D01*
X136726842Y-52227932D01*
X137013740Y-52285000D01*
X137306260Y-52285000D01*
X137593158Y-52227932D01*
X137636151Y-52210124D01*
X137601414Y-52262111D01*
X137530932Y-52432271D01*
X137501546Y-52580000D01*
X136435535Y-52580000D01*
X136332889Y-52511414D01*
X136162729Y-52440932D01*
X135982089Y-52405000D01*
X135797911Y-52405000D01*
X135617271Y-52440932D01*
X135447111Y-52511414D01*
X135293972Y-52613738D01*
X135163738Y-52743972D01*
X135061414Y-52897111D01*
X134990932Y-53067271D01*
X134961546Y-53215000D01*
X133895535Y-53215000D01*
X133792889Y-53146414D01*
X133622729Y-53075932D01*
X133442089Y-53040000D01*
X133257911Y-53040000D01*
X133077271Y-53075932D01*
X132907111Y-53146414D01*
X132753972Y-53248738D01*
X132623738Y-53378972D01*
X132521414Y-53532111D01*
X132450932Y-53702271D01*
X132421546Y-53850000D01*
X131355535Y-53850000D01*
X131252889Y-53781414D01*
X131082729Y-53710932D01*
X130902089Y-53675000D01*
X130717911Y-53675000D01*
X130537271Y-53710932D01*
X130367111Y-53781414D01*
X130213972Y-53883738D01*
X130083738Y-54013972D01*
X129981414Y-54167111D01*
X129910932Y-54337271D01*
X129875000Y-54517911D01*
X129875000Y-54702089D01*
X129910932Y-54882729D01*
X129981414Y-55052889D01*
X130083738Y-55206028D01*
X130213972Y-55336262D01*
X130367111Y-55438586D01*
X130537271Y-55509068D01*
X130717911Y-55545000D01*
X130902089Y-55545000D01*
X131082729Y-55509068D01*
X131252889Y-55438586D01*
X131355535Y-55370000D01*
X159726546Y-55370000D01*
X159755932Y-55517729D01*
X159826414Y-55687889D01*
X159928738Y-55841028D01*
X160058972Y-55971262D01*
X160212111Y-56073586D01*
X160382271Y-56144068D01*
X160562911Y-56180000D01*
X160747089Y-56180000D01*
X160927729Y-56144068D01*
X161097889Y-56073586D01*
X161200535Y-56005000D01*
X188049465Y-56005000D01*
X188152111Y-56073586D01*
X188322271Y-56144068D01*
X188502911Y-56180000D01*
X188687089Y-56180000D01*
X188867729Y-56144068D01*
X189037889Y-56073586D01*
X189191028Y-55971262D01*
X189321262Y-55841028D01*
X189423586Y-55687889D01*
X189494068Y-55517729D01*
X189530000Y-55337089D01*
X189530000Y-55152911D01*
X189494068Y-54972271D01*
X189423586Y-54802111D01*
X189321262Y-54648972D01*
X189191028Y-54518738D01*
X189037889Y-54416414D01*
X188867729Y-54345932D01*
X188687089Y-54310000D01*
X188502911Y-54310000D01*
X188322271Y-54345932D01*
X188152111Y-54416414D01*
X188049465Y-54485000D01*
X169058744Y-54485000D01*
X169103586Y-54417889D01*
X169174068Y-54247729D01*
X169203454Y-54100000D01*
X170269465Y-54100000D01*
X170372111Y-54168586D01*
X170542271Y-54239068D01*
X170722911Y-54275000D01*
X170907089Y-54275000D01*
X171087729Y-54239068D01*
X171257889Y-54168586D01*
X171411028Y-54066262D01*
X171541262Y-53936028D01*
X171643586Y-53782889D01*
X171714068Y-53612729D01*
X171743454Y-53465000D01*
X172809465Y-53465000D01*
X172912111Y-53533586D01*
X173082271Y-53604068D01*
X173262911Y-53640000D01*
X173447089Y-53640000D01*
X173627729Y-53604068D01*
X173797889Y-53533586D01*
X173951028Y-53431262D01*
X174081262Y-53301028D01*
X174183586Y-53147889D01*
X174254068Y-52977729D01*
X174283454Y-52830000D01*
X185740199Y-52830000D01*
X185766847Y-52856649D01*
X185790932Y-52977729D01*
X185861414Y-53147889D01*
X185963738Y-53301028D01*
X186093972Y-53431262D01*
X186247111Y-53533586D01*
X186417271Y-53604068D01*
X186597911Y-53640000D01*
X186782089Y-53640000D01*
X186962729Y-53604068D01*
X187132889Y-53533586D01*
X187286028Y-53431262D01*
X187416262Y-53301028D01*
X187518586Y-53147889D01*
X187589068Y-52977729D01*
X187625000Y-52797089D01*
X187625000Y-52612911D01*
X187589068Y-52432271D01*
X187518586Y-52262111D01*
X187483849Y-52210124D01*
X187526842Y-52227932D01*
X187813740Y-52285000D01*
X188106260Y-52285000D01*
X188393158Y-52227932D01*
X188663411Y-52115990D01*
X188906632Y-51953475D01*
X189113475Y-51746632D01*
X189230000Y-51572240D01*
X189346525Y-51746632D01*
X189553368Y-51953475D01*
X189796589Y-52115990D01*
X190066842Y-52227932D01*
X190353740Y-52285000D01*
X190646260Y-52285000D01*
X190933158Y-52227932D01*
X191203411Y-52115990D01*
X191446632Y-51953475D01*
X191653475Y-51746632D01*
X191770000Y-51572240D01*
X191886525Y-51746632D01*
X192093368Y-51953475D01*
X192336589Y-52115990D01*
X192606842Y-52227932D01*
X192893740Y-52285000D01*
X193186260Y-52285000D01*
X193473158Y-52227932D01*
X193743411Y-52115990D01*
X193986632Y-51953475D01*
X194193475Y-51746632D01*
X194310000Y-51572240D01*
X194426525Y-51746632D01*
G36*
X198228109Y-48984005D02*
G01*
X198332101Y-49015402D01*
X198428014Y-49066399D01*
X198512194Y-49135055D01*
X198581440Y-49218758D01*
X198631816Y-49311928D01*
X197270000Y-49311928D01*
X197145518Y-49324188D01*
X197025820Y-49360498D01*
X196915506Y-49419463D01*
X196818815Y-49498815D01*
X196739463Y-49595506D01*
X196680498Y-49705820D01*
X196658487Y-49778380D01*
X196526632Y-49646525D01*
X196283411Y-49484010D01*
X196013158Y-49372068D01*
X195726260Y-49315000D01*
X195433740Y-49315000D01*
X195146842Y-49372068D01*
X194876589Y-49484010D01*
X194633368Y-49646525D01*
X194426525Y-49853368D01*
X194310000Y-50027760D01*
X194193475Y-49853368D01*
X193986632Y-49646525D01*
X193743411Y-49484010D01*
X193473158Y-49372068D01*
X193186260Y-49315000D01*
X192893740Y-49315000D01*
X192606842Y-49372068D01*
X192336589Y-49484010D01*
X192093368Y-49646525D01*
X191886525Y-49853368D01*
X191770000Y-50027760D01*
X191653475Y-49853368D01*
X191446632Y-49646525D01*
X191203411Y-49484010D01*
X190933158Y-49372068D01*
X190646260Y-49315000D01*
X190353740Y-49315000D01*
X190066842Y-49372068D01*
X189796589Y-49484010D01*
X189553368Y-49646525D01*
X189346525Y-49853368D01*
X189230000Y-50027760D01*
X189113475Y-49853368D01*
X188906632Y-49646525D01*
X188663411Y-49484010D01*
X188393158Y-49372068D01*
X188106260Y-49315000D01*
X187813740Y-49315000D01*
X187526842Y-49372068D01*
X187256589Y-49484010D01*
X187013368Y-49646525D01*
X186806525Y-49853368D01*
X186690000Y-50027760D01*
X186573475Y-49853368D01*
X186366632Y-49646525D01*
X186123411Y-49484010D01*
X185853158Y-49372068D01*
X185566260Y-49315000D01*
X185273740Y-49315000D01*
X184986842Y-49372068D01*
X184716589Y-49484010D01*
X184473368Y-49646525D01*
X184266525Y-49853368D01*
X184150000Y-50027760D01*
X184033475Y-49853368D01*
X183826632Y-49646525D01*
X183583411Y-49484010D01*
X183313158Y-49372068D01*
X183026260Y-49315000D01*
X182733740Y-49315000D01*
X182446842Y-49372068D01*
X182176589Y-49484010D01*
X181933368Y-49646525D01*
X181726525Y-49853368D01*
X181610000Y-50027760D01*
X181493475Y-49853368D01*
X181286632Y-49646525D01*
X181043411Y-49484010D01*
X180773158Y-49372068D01*
X180486260Y-49315000D01*
X180193740Y-49315000D01*
X179906842Y-49372068D01*
X179636589Y-49484010D01*
X179393368Y-49646525D01*
X179186525Y-49853368D01*
X179070000Y-50027760D01*
X178953475Y-49853368D01*
X178746632Y-49646525D01*
X178503411Y-49484010D01*
X178233158Y-49372068D01*
X177946260Y-49315000D01*
X177653740Y-49315000D01*
X177366842Y-49372068D01*
X177096589Y-49484010D01*
X176853368Y-49646525D01*
X176646525Y-49853368D01*
X176530000Y-50027760D01*
X176413475Y-49853368D01*
X176206632Y-49646525D01*
X175963411Y-49484010D01*
X175693158Y-49372068D01*
X175406260Y-49315000D01*
X175113740Y-49315000D01*
X174826842Y-49372068D01*
X174556589Y-49484010D01*
X174313368Y-49646525D01*
X174106525Y-49853368D01*
X173990000Y-50027760D01*
X173873475Y-49853368D01*
X173666632Y-49646525D01*
X173423411Y-49484010D01*
X173153158Y-49372068D01*
X172866260Y-49315000D01*
X172573740Y-49315000D01*
X172286842Y-49372068D01*
X172016589Y-49484010D01*
X171773368Y-49646525D01*
X171566525Y-49853368D01*
X171450000Y-50027760D01*
X171333475Y-49853368D01*
X171126632Y-49646525D01*
X170883411Y-49484010D01*
X170613158Y-49372068D01*
X170326260Y-49315000D01*
X170033740Y-49315000D01*
X169746842Y-49372068D01*
X169476589Y-49484010D01*
X169233368Y-49646525D01*
X169026525Y-49853368D01*
X168910000Y-50027760D01*
X168793475Y-49853368D01*
X168586632Y-49646525D01*
X168343411Y-49484010D01*
X168073158Y-49372068D01*
X167786260Y-49315000D01*
X167493740Y-49315000D01*
X167206842Y-49372068D01*
X166936589Y-49484010D01*
X166693368Y-49646525D01*
X166486525Y-49853368D01*
X166370000Y-50027760D01*
X166253475Y-49853368D01*
X166046632Y-49646525D01*
X165803411Y-49484010D01*
X165533158Y-49372068D01*
X165246260Y-49315000D01*
X164953740Y-49315000D01*
X164666842Y-49372068D01*
X164396589Y-49484010D01*
X164153368Y-49646525D01*
X163946525Y-49853368D01*
X163830000Y-50027760D01*
X163713475Y-49853368D01*
X163506632Y-49646525D01*
X163263411Y-49484010D01*
X162993158Y-49372068D01*
X162706260Y-49315000D01*
X162413740Y-49315000D01*
X162126842Y-49372068D01*
X161856589Y-49484010D01*
X161613368Y-49646525D01*
X161406525Y-49853368D01*
X161290000Y-50027760D01*
X161173475Y-49853368D01*
X160966632Y-49646525D01*
X160723411Y-49484010D01*
X160453158Y-49372068D01*
X160166260Y-49315000D01*
X159873740Y-49315000D01*
X159586842Y-49372068D01*
X159316589Y-49484010D01*
X159073368Y-49646525D01*
X158866525Y-49853368D01*
X158744805Y-50035534D01*
X158675178Y-49918645D01*
X158480269Y-49702412D01*
X158246920Y-49528359D01*
X157984099Y-49403175D01*
X157836890Y-49358524D01*
X157607000Y-49479845D01*
X157607000Y-50673000D01*
X157627000Y-50673000D01*
X157627000Y-50927000D01*
X157607000Y-50927000D01*
X157607000Y-50947000D01*
X157353000Y-50947000D01*
X157353000Y-50927000D01*
X157333000Y-50927000D01*
X157333000Y-50673000D01*
X157353000Y-50673000D01*
X157353000Y-49479845D01*
X157123110Y-49358524D01*
X156975901Y-49403175D01*
X156713080Y-49528359D01*
X156479731Y-49702412D01*
X156284822Y-49918645D01*
X156215195Y-50035534D01*
X156093475Y-49853368D01*
X155886632Y-49646525D01*
X155643411Y-49484010D01*
X155373158Y-49372068D01*
X155086260Y-49315000D01*
X154793740Y-49315000D01*
X154506842Y-49372068D01*
X154236589Y-49484010D01*
X153993368Y-49646525D01*
X153786525Y-49853368D01*
X153670000Y-50027760D01*
X153553475Y-49853368D01*
X153346632Y-49646525D01*
X153103411Y-49484010D01*
X152833158Y-49372068D01*
X152546260Y-49315000D01*
X152253740Y-49315000D01*
X151966842Y-49372068D01*
X151696589Y-49484010D01*
X151453368Y-49646525D01*
X151246525Y-49853368D01*
X151130000Y-50027760D01*
X151013475Y-49853368D01*
X150806632Y-49646525D01*
X150563411Y-49484010D01*
X150293158Y-49372068D01*
X150006260Y-49315000D01*
X149713740Y-49315000D01*
X149426842Y-49372068D01*
X149156589Y-49484010D01*
X148913368Y-49646525D01*
X148706525Y-49853368D01*
X148590000Y-50027760D01*
X148473475Y-49853368D01*
X148266632Y-49646525D01*
X148023411Y-49484010D01*
X147753158Y-49372068D01*
X147466260Y-49315000D01*
X147173740Y-49315000D01*
X146886842Y-49372068D01*
X146616589Y-49484010D01*
X146373368Y-49646525D01*
X146166525Y-49853368D01*
X146050000Y-50027760D01*
X145933475Y-49853368D01*
X145726632Y-49646525D01*
X145483411Y-49484010D01*
X145213158Y-49372068D01*
X144926260Y-49315000D01*
X144633740Y-49315000D01*
X144346842Y-49372068D01*
X144076589Y-49484010D01*
X143833368Y-49646525D01*
X143626525Y-49853368D01*
X143510000Y-50027760D01*
X143393475Y-49853368D01*
X143186632Y-49646525D01*
X142943411Y-49484010D01*
X142673158Y-49372068D01*
X142386260Y-49315000D01*
X142093740Y-49315000D01*
X141806842Y-49372068D01*
X141536589Y-49484010D01*
X141293368Y-49646525D01*
X141086525Y-49853368D01*
X140970000Y-50027760D01*
X140853475Y-49853368D01*
X140646632Y-49646525D01*
X140403411Y-49484010D01*
X140133158Y-49372068D01*
X139846260Y-49315000D01*
X139553740Y-49315000D01*
X139266842Y-49372068D01*
X138996589Y-49484010D01*
X138753368Y-49646525D01*
X138546525Y-49853368D01*
X138430000Y-50027760D01*
X138313475Y-49853368D01*
X138106632Y-49646525D01*
X137863411Y-49484010D01*
X137593158Y-49372068D01*
X137306260Y-49315000D01*
X137013740Y-49315000D01*
X136726842Y-49372068D01*
X136456589Y-49484010D01*
X136213368Y-49646525D01*
X136006525Y-49853368D01*
X135890000Y-50027760D01*
X135773475Y-49853368D01*
X135566632Y-49646525D01*
X135323411Y-49484010D01*
X135053158Y-49372068D01*
X134766260Y-49315000D01*
X134473740Y-49315000D01*
X134186842Y-49372068D01*
X133916589Y-49484010D01*
X133673368Y-49646525D01*
X133466525Y-49853368D01*
X133350000Y-50027760D01*
X133233475Y-49853368D01*
X133026632Y-49646525D01*
X132783411Y-49484010D01*
X132513158Y-49372068D01*
X132226260Y-49315000D01*
X131933740Y-49315000D01*
X131646842Y-49372068D01*
X131376589Y-49484010D01*
X131133368Y-49646525D01*
X130926525Y-49853368D01*
X130810000Y-50027760D01*
X130693475Y-49853368D01*
X130486632Y-49646525D01*
X130243411Y-49484010D01*
X129973158Y-49372068D01*
X129686260Y-49315000D01*
X129393740Y-49315000D01*
X129106842Y-49372068D01*
X128836589Y-49484010D01*
X128593368Y-49646525D01*
X128386525Y-49853368D01*
X128270000Y-50027760D01*
X128153475Y-49853368D01*
X127946632Y-49646525D01*
X127703411Y-49484010D01*
X127433158Y-49372068D01*
X127146260Y-49315000D01*
X126853740Y-49315000D01*
X126566842Y-49372068D01*
X126296589Y-49484010D01*
X126053368Y-49646525D01*
X125846525Y-49853368D01*
X125730000Y-50027760D01*
X125613475Y-49853368D01*
X125406632Y-49646525D01*
X125163411Y-49484010D01*
X124893158Y-49372068D01*
X124606260Y-49315000D01*
X124313740Y-49315000D01*
X124026842Y-49372068D01*
X123756589Y-49484010D01*
X123513368Y-49646525D01*
X123306525Y-49853368D01*
X123190000Y-50027760D01*
X123073475Y-49853368D01*
X122866632Y-49646525D01*
X122623411Y-49484010D01*
X122353158Y-49372068D01*
X122066260Y-49315000D01*
X121773740Y-49315000D01*
X121486842Y-49372068D01*
X121216589Y-49484010D01*
X120973368Y-49646525D01*
X120766525Y-49853368D01*
X120650000Y-50027760D01*
X120533475Y-49853368D01*
X120326632Y-49646525D01*
X120083411Y-49484010D01*
X119813158Y-49372068D01*
X119526260Y-49315000D01*
X119233740Y-49315000D01*
X118946842Y-49372068D01*
X118676589Y-49484010D01*
X118433368Y-49646525D01*
X118226525Y-49853368D01*
X118110000Y-50027760D01*
X117993475Y-49853368D01*
X117786632Y-49646525D01*
X117543411Y-49484010D01*
X117273158Y-49372068D01*
X116986260Y-49315000D01*
X116693740Y-49315000D01*
X116406842Y-49372068D01*
X116136589Y-49484010D01*
X115893368Y-49646525D01*
X115686525Y-49853368D01*
X115570000Y-50027760D01*
X115453475Y-49853368D01*
X115246632Y-49646525D01*
X115003411Y-49484010D01*
X114733158Y-49372068D01*
X114446260Y-49315000D01*
X114153740Y-49315000D01*
X113866842Y-49372068D01*
X113596589Y-49484010D01*
X113353368Y-49646525D01*
X113146525Y-49853368D01*
X113030000Y-50027760D01*
X112913475Y-49853368D01*
X112706632Y-49646525D01*
X112463411Y-49484010D01*
X112193158Y-49372068D01*
X111906260Y-49315000D01*
X111613740Y-49315000D01*
X111326842Y-49372068D01*
X111056589Y-49484010D01*
X110813368Y-49646525D01*
X110606525Y-49853368D01*
X110490000Y-50027760D01*
X110373475Y-49853368D01*
X110166632Y-49646525D01*
X109923411Y-49484010D01*
X109653158Y-49372068D01*
X109366260Y-49315000D01*
X109073740Y-49315000D01*
X108786842Y-49372068D01*
X108516589Y-49484010D01*
X108273368Y-49646525D01*
X108066525Y-49853368D01*
X107950000Y-50027760D01*
X107833475Y-49853368D01*
X107626632Y-49646525D01*
X107383411Y-49484010D01*
X107113158Y-49372068D01*
X106826260Y-49315000D01*
X106533740Y-49315000D01*
X106246842Y-49372068D01*
X105976589Y-49484010D01*
X105733368Y-49646525D01*
X105526525Y-49853368D01*
X105410000Y-50027760D01*
X105293475Y-49853368D01*
X105086632Y-49646525D01*
X104843411Y-49484010D01*
X104573158Y-49372068D01*
X104286260Y-49315000D01*
X103993740Y-49315000D01*
X103706842Y-49372068D01*
X103436589Y-49484010D01*
X103193368Y-49646525D01*
X102986525Y-49853368D01*
X102870000Y-50027760D01*
X102753475Y-49853368D01*
X102546632Y-49646525D01*
X102303411Y-49484010D01*
X102033158Y-49372068D01*
X101746260Y-49315000D01*
X101453740Y-49315000D01*
X101166842Y-49372068D01*
X101055069Y-49418366D01*
X101085402Y-49317899D01*
X101136399Y-49221986D01*
X101205055Y-49137806D01*
X101288758Y-49068560D01*
X101384311Y-49016895D01*
X101488078Y-48984773D01*
X101628641Y-48970000D01*
X198085280Y-48970000D01*
X198228109Y-48984005D01*
G37*
X198228109Y-48984005D02*
X198332101Y-49015402D01*
X198428014Y-49066399D01*
X198512194Y-49135055D01*
X198581440Y-49218758D01*
X198631816Y-49311928D01*
X197270000Y-49311928D01*
X197145518Y-49324188D01*
X197025820Y-49360498D01*
X196915506Y-49419463D01*
X196818815Y-49498815D01*
X196739463Y-49595506D01*
X196680498Y-49705820D01*
X196658487Y-49778380D01*
X196526632Y-49646525D01*
X196283411Y-49484010D01*
X196013158Y-49372068D01*
X195726260Y-49315000D01*
X195433740Y-49315000D01*
X195146842Y-49372068D01*
X194876589Y-49484010D01*
X194633368Y-49646525D01*
X194426525Y-49853368D01*
X194310000Y-50027760D01*
X194193475Y-49853368D01*
X193986632Y-49646525D01*
X193743411Y-49484010D01*
X193473158Y-49372068D01*
X193186260Y-49315000D01*
X192893740Y-49315000D01*
X192606842Y-49372068D01*
X192336589Y-49484010D01*
X192093368Y-49646525D01*
X191886525Y-49853368D01*
X191770000Y-50027760D01*
X191653475Y-49853368D01*
X191446632Y-49646525D01*
X191203411Y-49484010D01*
X190933158Y-49372068D01*
X190646260Y-49315000D01*
X190353740Y-49315000D01*
X190066842Y-49372068D01*
X189796589Y-49484010D01*
X189553368Y-49646525D01*
X189346525Y-49853368D01*
X189230000Y-50027760D01*
X189113475Y-49853368D01*
X188906632Y-49646525D01*
X188663411Y-49484010D01*
X188393158Y-49372068D01*
X188106260Y-49315000D01*
X187813740Y-49315000D01*
X187526842Y-49372068D01*
X187256589Y-49484010D01*
X187013368Y-49646525D01*
X186806525Y-49853368D01*
X186690000Y-50027760D01*
X186573475Y-49853368D01*
X186366632Y-49646525D01*
X186123411Y-49484010D01*
X185853158Y-49372068D01*
X185566260Y-49315000D01*
X185273740Y-49315000D01*
X184986842Y-49372068D01*
X184716589Y-49484010D01*
X184473368Y-49646525D01*
X184266525Y-49853368D01*
X184150000Y-50027760D01*
X184033475Y-49853368D01*
X183826632Y-49646525D01*
X183583411Y-49484010D01*
X183313158Y-49372068D01*
X183026260Y-49315000D01*
X182733740Y-49315000D01*
X182446842Y-49372068D01*
X182176589Y-49484010D01*
X181933368Y-49646525D01*
X181726525Y-49853368D01*
X181610000Y-50027760D01*
X181493475Y-49853368D01*
X181286632Y-49646525D01*
X181043411Y-49484010D01*
X180773158Y-49372068D01*
X180486260Y-49315000D01*
X180193740Y-49315000D01*
X179906842Y-49372068D01*
X179636589Y-49484010D01*
X179393368Y-49646525D01*
X179186525Y-49853368D01*
X179070000Y-50027760D01*
X178953475Y-49853368D01*
X178746632Y-49646525D01*
X178503411Y-49484010D01*
X178233158Y-49372068D01*
X177946260Y-49315000D01*
X177653740Y-49315000D01*
X177366842Y-49372068D01*
X177096589Y-49484010D01*
X176853368Y-49646525D01*
X176646525Y-49853368D01*
X176530000Y-50027760D01*
X176413475Y-49853368D01*
X176206632Y-49646525D01*
X175963411Y-49484010D01*
X175693158Y-49372068D01*
X175406260Y-49315000D01*
X175113740Y-49315000D01*
X174826842Y-49372068D01*
X174556589Y-49484010D01*
X174313368Y-49646525D01*
X174106525Y-49853368D01*
X173990000Y-50027760D01*
X173873475Y-49853368D01*
X173666632Y-49646525D01*
X173423411Y-49484010D01*
X173153158Y-49372068D01*
X172866260Y-49315000D01*
X172573740Y-49315000D01*
X172286842Y-49372068D01*
X172016589Y-49484010D01*
X171773368Y-49646525D01*
X171566525Y-49853368D01*
X171450000Y-50027760D01*
X171333475Y-49853368D01*
X171126632Y-49646525D01*
X170883411Y-49484010D01*
X170613158Y-49372068D01*
X170326260Y-49315000D01*
X170033740Y-49315000D01*
X169746842Y-49372068D01*
X169476589Y-49484010D01*
X169233368Y-49646525D01*
X169026525Y-49853368D01*
X168910000Y-50027760D01*
X168793475Y-49853368D01*
X168586632Y-49646525D01*
X168343411Y-49484010D01*
X168073158Y-49372068D01*
X167786260Y-49315000D01*
X167493740Y-49315000D01*
X167206842Y-49372068D01*
X166936589Y-49484010D01*
X166693368Y-49646525D01*
X166486525Y-49853368D01*
X166370000Y-50027760D01*
X166253475Y-49853368D01*
X166046632Y-49646525D01*
X165803411Y-49484010D01*
X165533158Y-49372068D01*
X165246260Y-49315000D01*
X164953740Y-49315000D01*
X164666842Y-49372068D01*
X164396589Y-49484010D01*
X164153368Y-49646525D01*
X163946525Y-49853368D01*
X163830000Y-50027760D01*
X163713475Y-49853368D01*
X163506632Y-49646525D01*
X163263411Y-49484010D01*
X162993158Y-49372068D01*
X162706260Y-49315000D01*
X162413740Y-49315000D01*
X162126842Y-49372068D01*
X161856589Y-49484010D01*
X161613368Y-49646525D01*
X161406525Y-49853368D01*
X161290000Y-50027760D01*
X161173475Y-49853368D01*
X160966632Y-49646525D01*
X160723411Y-49484010D01*
X160453158Y-49372068D01*
X160166260Y-49315000D01*
X159873740Y-49315000D01*
X159586842Y-49372068D01*
X159316589Y-49484010D01*
X159073368Y-49646525D01*
X158866525Y-49853368D01*
X158744805Y-50035534D01*
X158675178Y-49918645D01*
X158480269Y-49702412D01*
X158246920Y-49528359D01*
X157984099Y-49403175D01*
X157836890Y-49358524D01*
X157607000Y-49479845D01*
X157607000Y-50673000D01*
X157627000Y-50673000D01*
X157627000Y-50927000D01*
X157607000Y-50927000D01*
X157607000Y-50947000D01*
X157353000Y-50947000D01*
X157353000Y-50927000D01*
X157333000Y-50927000D01*
X157333000Y-50673000D01*
X157353000Y-50673000D01*
X157353000Y-49479845D01*
X157123110Y-49358524D01*
X156975901Y-49403175D01*
X156713080Y-49528359D01*
X156479731Y-49702412D01*
X156284822Y-49918645D01*
X156215195Y-50035534D01*
X156093475Y-49853368D01*
X155886632Y-49646525D01*
X155643411Y-49484010D01*
X155373158Y-49372068D01*
X155086260Y-49315000D01*
X154793740Y-49315000D01*
X154506842Y-49372068D01*
X154236589Y-49484010D01*
X153993368Y-49646525D01*
X153786525Y-49853368D01*
X153670000Y-50027760D01*
X153553475Y-49853368D01*
X153346632Y-49646525D01*
X153103411Y-49484010D01*
X152833158Y-49372068D01*
X152546260Y-49315000D01*
X152253740Y-49315000D01*
X151966842Y-49372068D01*
X151696589Y-49484010D01*
X151453368Y-49646525D01*
X151246525Y-49853368D01*
X151130000Y-50027760D01*
X151013475Y-49853368D01*
X150806632Y-49646525D01*
X150563411Y-49484010D01*
X150293158Y-49372068D01*
X150006260Y-49315000D01*
X149713740Y-49315000D01*
X149426842Y-49372068D01*
X149156589Y-49484010D01*
X148913368Y-49646525D01*
X148706525Y-49853368D01*
X148590000Y-50027760D01*
X148473475Y-49853368D01*
X148266632Y-49646525D01*
X148023411Y-49484010D01*
X147753158Y-49372068D01*
X147466260Y-49315000D01*
X147173740Y-49315000D01*
X146886842Y-49372068D01*
X146616589Y-49484010D01*
X146373368Y-49646525D01*
X146166525Y-49853368D01*
X146050000Y-50027760D01*
X145933475Y-49853368D01*
X145726632Y-49646525D01*
X145483411Y-49484010D01*
X145213158Y-49372068D01*
X144926260Y-49315000D01*
X144633740Y-49315000D01*
X144346842Y-49372068D01*
X144076589Y-49484010D01*
X143833368Y-49646525D01*
X143626525Y-49853368D01*
X143510000Y-50027760D01*
X143393475Y-49853368D01*
X143186632Y-49646525D01*
X142943411Y-49484010D01*
X142673158Y-49372068D01*
X142386260Y-49315000D01*
X142093740Y-49315000D01*
X141806842Y-49372068D01*
X141536589Y-49484010D01*
X141293368Y-49646525D01*
X141086525Y-49853368D01*
X140970000Y-50027760D01*
X140853475Y-49853368D01*
X140646632Y-49646525D01*
X140403411Y-49484010D01*
X140133158Y-49372068D01*
X139846260Y-49315000D01*
X139553740Y-49315000D01*
X139266842Y-49372068D01*
X138996589Y-49484010D01*
X138753368Y-49646525D01*
X138546525Y-49853368D01*
X138430000Y-50027760D01*
X138313475Y-49853368D01*
X138106632Y-49646525D01*
X137863411Y-49484010D01*
X137593158Y-49372068D01*
X137306260Y-49315000D01*
X137013740Y-49315000D01*
X136726842Y-49372068D01*
X136456589Y-49484010D01*
X136213368Y-49646525D01*
X136006525Y-49853368D01*
X135890000Y-50027760D01*
X135773475Y-49853368D01*
X135566632Y-49646525D01*
X135323411Y-49484010D01*
X135053158Y-49372068D01*
X134766260Y-49315000D01*
X134473740Y-49315000D01*
X134186842Y-49372068D01*
X133916589Y-49484010D01*
X133673368Y-49646525D01*
X133466525Y-49853368D01*
X133350000Y-50027760D01*
X133233475Y-49853368D01*
X133026632Y-49646525D01*
X132783411Y-49484010D01*
X132513158Y-49372068D01*
X132226260Y-49315000D01*
X131933740Y-49315000D01*
X131646842Y-49372068D01*
X131376589Y-49484010D01*
X131133368Y-49646525D01*
X130926525Y-49853368D01*
X130810000Y-50027760D01*
X130693475Y-49853368D01*
X130486632Y-49646525D01*
X130243411Y-49484010D01*
X129973158Y-49372068D01*
X129686260Y-49315000D01*
X129393740Y-49315000D01*
X129106842Y-49372068D01*
X128836589Y-49484010D01*
X128593368Y-49646525D01*
X128386525Y-49853368D01*
X128270000Y-50027760D01*
X128153475Y-49853368D01*
X127946632Y-49646525D01*
X127703411Y-49484010D01*
X127433158Y-49372068D01*
X127146260Y-49315000D01*
X126853740Y-49315000D01*
X126566842Y-49372068D01*
X126296589Y-49484010D01*
X126053368Y-49646525D01*
X125846525Y-49853368D01*
X125730000Y-50027760D01*
X125613475Y-49853368D01*
X125406632Y-49646525D01*
X125163411Y-49484010D01*
X124893158Y-49372068D01*
X124606260Y-49315000D01*
X124313740Y-49315000D01*
X124026842Y-49372068D01*
X123756589Y-49484010D01*
X123513368Y-49646525D01*
X123306525Y-49853368D01*
X123190000Y-50027760D01*
X123073475Y-49853368D01*
X122866632Y-49646525D01*
X122623411Y-49484010D01*
X122353158Y-49372068D01*
X122066260Y-49315000D01*
X121773740Y-49315000D01*
X121486842Y-49372068D01*
X121216589Y-49484010D01*
X120973368Y-49646525D01*
X120766525Y-49853368D01*
X120650000Y-50027760D01*
X120533475Y-49853368D01*
X120326632Y-49646525D01*
X120083411Y-49484010D01*
X119813158Y-49372068D01*
X119526260Y-49315000D01*
X119233740Y-49315000D01*
X118946842Y-49372068D01*
X118676589Y-49484010D01*
X118433368Y-49646525D01*
X118226525Y-49853368D01*
X118110000Y-50027760D01*
X117993475Y-49853368D01*
X117786632Y-49646525D01*
X117543411Y-49484010D01*
X117273158Y-49372068D01*
X116986260Y-49315000D01*
X116693740Y-49315000D01*
X116406842Y-49372068D01*
X116136589Y-49484010D01*
X115893368Y-49646525D01*
X115686525Y-49853368D01*
X115570000Y-50027760D01*
X115453475Y-49853368D01*
X115246632Y-49646525D01*
X115003411Y-49484010D01*
X114733158Y-49372068D01*
X114446260Y-49315000D01*
X114153740Y-49315000D01*
X113866842Y-49372068D01*
X113596589Y-49484010D01*
X113353368Y-49646525D01*
X113146525Y-49853368D01*
X113030000Y-50027760D01*
X112913475Y-49853368D01*
X112706632Y-49646525D01*
X112463411Y-49484010D01*
X112193158Y-49372068D01*
X111906260Y-49315000D01*
X111613740Y-49315000D01*
X111326842Y-49372068D01*
X111056589Y-49484010D01*
X110813368Y-49646525D01*
X110606525Y-49853368D01*
X110490000Y-50027760D01*
X110373475Y-49853368D01*
X110166632Y-49646525D01*
X109923411Y-49484010D01*
X109653158Y-49372068D01*
X109366260Y-49315000D01*
X109073740Y-49315000D01*
X108786842Y-49372068D01*
X108516589Y-49484010D01*
X108273368Y-49646525D01*
X108066525Y-49853368D01*
X107950000Y-50027760D01*
X107833475Y-49853368D01*
X107626632Y-49646525D01*
X107383411Y-49484010D01*
X107113158Y-49372068D01*
X106826260Y-49315000D01*
X106533740Y-49315000D01*
X106246842Y-49372068D01*
X105976589Y-49484010D01*
X105733368Y-49646525D01*
X105526525Y-49853368D01*
X105410000Y-50027760D01*
X105293475Y-49853368D01*
X105086632Y-49646525D01*
X104843411Y-49484010D01*
X104573158Y-49372068D01*
X104286260Y-49315000D01*
X103993740Y-49315000D01*
X103706842Y-49372068D01*
X103436589Y-49484010D01*
X103193368Y-49646525D01*
X102986525Y-49853368D01*
X102870000Y-50027760D01*
X102753475Y-49853368D01*
X102546632Y-49646525D01*
X102303411Y-49484010D01*
X102033158Y-49372068D01*
X101746260Y-49315000D01*
X101453740Y-49315000D01*
X101166842Y-49372068D01*
X101055069Y-49418366D01*
X101085402Y-49317899D01*
X101136399Y-49221986D01*
X101205055Y-49137806D01*
X101288758Y-49068560D01*
X101384311Y-49016895D01*
X101488078Y-48984773D01*
X101628641Y-48970000D01*
X198085280Y-48970000D01*
X198228109Y-48984005D01*
M02*
