G04 #@! TF.GenerationSoftware,KiCad,Pcbnew,(5.1.5)-3*
G04 #@! TF.CreationDate,2020-03-10T22:42:51+01:00*
G04 #@! TF.ProjectId,PP Arduino,50502041-7264-4756-996e-6f2e6b696361,rev?*
G04 #@! TF.SameCoordinates,Original*
G04 #@! TF.FileFunction,Legend,Bot*
G04 #@! TF.FilePolarity,Positive*
%FSLAX46Y46*%
G04 Gerber Fmt 4.6, Leading zero omitted, Abs format (unit mm)*
G04 Created by KiCad (PCBNEW (5.1.5)-3) date 2020-03-10 22:42:51*
%MOMM*%
%LPD*%
G04 APERTURE LIST*
%ADD10C,0.100000*%
%ADD11C,0.150000*%
G04 APERTURE END LIST*
D10*
X121558095Y-83351428D02*
X122358095Y-83351428D01*
X122358095Y-83160952D01*
X122320000Y-83046666D01*
X122243809Y-82970476D01*
X122167619Y-82932380D01*
X122015238Y-82894285D01*
X121900952Y-82894285D01*
X121748571Y-82932380D01*
X121672380Y-82970476D01*
X121596190Y-83046666D01*
X121558095Y-83160952D01*
X121558095Y-83351428D01*
X121558095Y-82513333D02*
X121558095Y-82360952D01*
X121596190Y-82284761D01*
X121634285Y-82246666D01*
X121748571Y-82170476D01*
X121900952Y-82132380D01*
X122205714Y-82132380D01*
X122281904Y-82170476D01*
X122320000Y-82208571D01*
X122358095Y-82284761D01*
X122358095Y-82437142D01*
X122320000Y-82513333D01*
X122281904Y-82551428D01*
X122205714Y-82589523D01*
X122015238Y-82589523D01*
X121939047Y-82551428D01*
X121900952Y-82513333D01*
X121862857Y-82437142D01*
X121862857Y-82284761D01*
X121900952Y-82208571D01*
X121939047Y-82170476D01*
X122015238Y-82132380D01*
X119018095Y-83351428D02*
X119818095Y-83351428D01*
X119818095Y-83160952D01*
X119780000Y-83046666D01*
X119703809Y-82970476D01*
X119627619Y-82932380D01*
X119475238Y-82894285D01*
X119360952Y-82894285D01*
X119208571Y-82932380D01*
X119132380Y-82970476D01*
X119056190Y-83046666D01*
X119018095Y-83160952D01*
X119018095Y-83351428D01*
X119475238Y-82437142D02*
X119513333Y-82513333D01*
X119551428Y-82551428D01*
X119627619Y-82589523D01*
X119665714Y-82589523D01*
X119741904Y-82551428D01*
X119780000Y-82513333D01*
X119818095Y-82437142D01*
X119818095Y-82284761D01*
X119780000Y-82208571D01*
X119741904Y-82170476D01*
X119665714Y-82132380D01*
X119627619Y-82132380D01*
X119551428Y-82170476D01*
X119513333Y-82208571D01*
X119475238Y-82284761D01*
X119475238Y-82437142D01*
X119437142Y-82513333D01*
X119399047Y-82551428D01*
X119322857Y-82589523D01*
X119170476Y-82589523D01*
X119094285Y-82551428D01*
X119056190Y-82513333D01*
X119018095Y-82437142D01*
X119018095Y-82284761D01*
X119056190Y-82208571D01*
X119094285Y-82170476D01*
X119170476Y-82132380D01*
X119322857Y-82132380D01*
X119399047Y-82170476D01*
X119437142Y-82208571D01*
X119475238Y-82284761D01*
X116478095Y-83351428D02*
X117278095Y-83351428D01*
X117278095Y-83160952D01*
X117240000Y-83046666D01*
X117163809Y-82970476D01*
X117087619Y-82932380D01*
X116935238Y-82894285D01*
X116820952Y-82894285D01*
X116668571Y-82932380D01*
X116592380Y-82970476D01*
X116516190Y-83046666D01*
X116478095Y-83160952D01*
X116478095Y-83351428D01*
X117278095Y-82627619D02*
X117278095Y-82094285D01*
X116478095Y-82437142D01*
X113938095Y-83351428D02*
X114738095Y-83351428D01*
X114738095Y-83160952D01*
X114700000Y-83046666D01*
X114623809Y-82970476D01*
X114547619Y-82932380D01*
X114395238Y-82894285D01*
X114280952Y-82894285D01*
X114128571Y-82932380D01*
X114052380Y-82970476D01*
X113976190Y-83046666D01*
X113938095Y-83160952D01*
X113938095Y-83351428D01*
X114738095Y-82208571D02*
X114738095Y-82360952D01*
X114700000Y-82437142D01*
X114661904Y-82475238D01*
X114547619Y-82551428D01*
X114395238Y-82589523D01*
X114090476Y-82589523D01*
X114014285Y-82551428D01*
X113976190Y-82513333D01*
X113938095Y-82437142D01*
X113938095Y-82284761D01*
X113976190Y-82208571D01*
X114014285Y-82170476D01*
X114090476Y-82132380D01*
X114280952Y-82132380D01*
X114357142Y-82170476D01*
X114395238Y-82208571D01*
X114433333Y-82284761D01*
X114433333Y-82437142D01*
X114395238Y-82513333D01*
X114357142Y-82551428D01*
X114280952Y-82589523D01*
X111398095Y-83351428D02*
X112198095Y-83351428D01*
X112198095Y-83160952D01*
X112160000Y-83046666D01*
X112083809Y-82970476D01*
X112007619Y-82932380D01*
X111855238Y-82894285D01*
X111740952Y-82894285D01*
X111588571Y-82932380D01*
X111512380Y-82970476D01*
X111436190Y-83046666D01*
X111398095Y-83160952D01*
X111398095Y-83351428D01*
X112198095Y-82170476D02*
X112198095Y-82551428D01*
X111817142Y-82589523D01*
X111855238Y-82551428D01*
X111893333Y-82475238D01*
X111893333Y-82284761D01*
X111855238Y-82208571D01*
X111817142Y-82170476D01*
X111740952Y-82132380D01*
X111550476Y-82132380D01*
X111474285Y-82170476D01*
X111436190Y-82208571D01*
X111398095Y-82284761D01*
X111398095Y-82475238D01*
X111436190Y-82551428D01*
X111474285Y-82589523D01*
X108858095Y-83351428D02*
X109658095Y-83351428D01*
X109658095Y-83160952D01*
X109620000Y-83046666D01*
X109543809Y-82970476D01*
X109467619Y-82932380D01*
X109315238Y-82894285D01*
X109200952Y-82894285D01*
X109048571Y-82932380D01*
X108972380Y-82970476D01*
X108896190Y-83046666D01*
X108858095Y-83160952D01*
X108858095Y-83351428D01*
X109391428Y-82208571D02*
X108858095Y-82208571D01*
X109696190Y-82399047D02*
X109124761Y-82589523D01*
X109124761Y-82094285D01*
X106318095Y-83351428D02*
X107118095Y-83351428D01*
X107118095Y-83160952D01*
X107080000Y-83046666D01*
X107003809Y-82970476D01*
X106927619Y-82932380D01*
X106775238Y-82894285D01*
X106660952Y-82894285D01*
X106508571Y-82932380D01*
X106432380Y-82970476D01*
X106356190Y-83046666D01*
X106318095Y-83160952D01*
X106318095Y-83351428D01*
X107118095Y-82627619D02*
X107118095Y-82132380D01*
X106813333Y-82399047D01*
X106813333Y-82284761D01*
X106775238Y-82208571D01*
X106737142Y-82170476D01*
X106660952Y-82132380D01*
X106470476Y-82132380D01*
X106394285Y-82170476D01*
X106356190Y-82208571D01*
X106318095Y-82284761D01*
X106318095Y-82513333D01*
X106356190Y-82589523D01*
X106394285Y-82627619D01*
X103778095Y-83351428D02*
X104578095Y-83351428D01*
X104578095Y-83160952D01*
X104540000Y-83046666D01*
X104463809Y-82970476D01*
X104387619Y-82932380D01*
X104235238Y-82894285D01*
X104120952Y-82894285D01*
X103968571Y-82932380D01*
X103892380Y-82970476D01*
X103816190Y-83046666D01*
X103778095Y-83160952D01*
X103778095Y-83351428D01*
X104501904Y-82589523D02*
X104540000Y-82551428D01*
X104578095Y-82475238D01*
X104578095Y-82284761D01*
X104540000Y-82208571D01*
X104501904Y-82170476D01*
X104425714Y-82132380D01*
X104349523Y-82132380D01*
X104235238Y-82170476D01*
X103778095Y-82627619D01*
X103778095Y-82132380D01*
X149726666Y-83275238D02*
X149726666Y-82894285D01*
X149498095Y-83351428D02*
X150298095Y-83084761D01*
X149498095Y-82818095D01*
X150298095Y-82627619D02*
X150298095Y-82132380D01*
X149993333Y-82399047D01*
X149993333Y-82284761D01*
X149955238Y-82208571D01*
X149917142Y-82170476D01*
X149840952Y-82132380D01*
X149650476Y-82132380D01*
X149574285Y-82170476D01*
X149536190Y-82208571D01*
X149498095Y-82284761D01*
X149498095Y-82513333D01*
X149536190Y-82589523D01*
X149574285Y-82627619D01*
X147186666Y-83275238D02*
X147186666Y-82894285D01*
X146958095Y-83351428D02*
X147758095Y-83084761D01*
X146958095Y-82818095D01*
X147681904Y-82589523D02*
X147720000Y-82551428D01*
X147758095Y-82475238D01*
X147758095Y-82284761D01*
X147720000Y-82208571D01*
X147681904Y-82170476D01*
X147605714Y-82132380D01*
X147529523Y-82132380D01*
X147415238Y-82170476D01*
X146958095Y-82627619D01*
X146958095Y-82132380D01*
X144646666Y-83275238D02*
X144646666Y-82894285D01*
X144418095Y-83351428D02*
X145218095Y-83084761D01*
X144418095Y-82818095D01*
X144418095Y-82132380D02*
X144418095Y-82589523D01*
X144418095Y-82360952D02*
X145218095Y-82360952D01*
X145103809Y-82437142D01*
X145027619Y-82513333D01*
X144989523Y-82589523D01*
X142106666Y-83275238D02*
X142106666Y-82894285D01*
X141878095Y-83351428D02*
X142678095Y-83084761D01*
X141878095Y-82818095D01*
X142678095Y-82399047D02*
X142678095Y-82322857D01*
X142640000Y-82246666D01*
X142601904Y-82208571D01*
X142525714Y-82170476D01*
X142373333Y-82132380D01*
X142182857Y-82132380D01*
X142030476Y-82170476D01*
X141954285Y-82208571D01*
X141916190Y-82246666D01*
X141878095Y-82322857D01*
X141878095Y-82399047D01*
X141916190Y-82475238D01*
X141954285Y-82513333D01*
X142030476Y-82551428D01*
X142182857Y-82589523D01*
X142373333Y-82589523D01*
X142525714Y-82551428D01*
X142601904Y-82513333D01*
X142640000Y-82475238D01*
X142678095Y-82399047D01*
X139338095Y-84113333D02*
X140138095Y-84113333D01*
X140138095Y-83922857D01*
X140100000Y-83808571D01*
X140023809Y-83732380D01*
X139947619Y-83694285D01*
X139795238Y-83656190D01*
X139680952Y-83656190D01*
X139528571Y-83694285D01*
X139452380Y-83732380D01*
X139376190Y-83808571D01*
X139338095Y-83922857D01*
X139338095Y-84113333D01*
X139338095Y-82894285D02*
X139338095Y-83351428D01*
X139338095Y-83122857D02*
X140138095Y-83122857D01*
X140023809Y-83199047D01*
X139947619Y-83275238D01*
X139909523Y-83351428D01*
X140138095Y-82627619D02*
X140138095Y-82132380D01*
X139833333Y-82399047D01*
X139833333Y-82284761D01*
X139795238Y-82208571D01*
X139757142Y-82170476D01*
X139680952Y-82132380D01*
X139490476Y-82132380D01*
X139414285Y-82170476D01*
X139376190Y-82208571D01*
X139338095Y-82284761D01*
X139338095Y-82513333D01*
X139376190Y-82589523D01*
X139414285Y-82627619D01*
X136798095Y-84113333D02*
X137598095Y-84113333D01*
X137598095Y-83922857D01*
X137560000Y-83808571D01*
X137483809Y-83732380D01*
X137407619Y-83694285D01*
X137255238Y-83656190D01*
X137140952Y-83656190D01*
X136988571Y-83694285D01*
X136912380Y-83732380D01*
X136836190Y-83808571D01*
X136798095Y-83922857D01*
X136798095Y-84113333D01*
X136798095Y-82894285D02*
X136798095Y-83351428D01*
X136798095Y-83122857D02*
X137598095Y-83122857D01*
X137483809Y-83199047D01*
X137407619Y-83275238D01*
X137369523Y-83351428D01*
X137521904Y-82589523D02*
X137560000Y-82551428D01*
X137598095Y-82475238D01*
X137598095Y-82284761D01*
X137560000Y-82208571D01*
X137521904Y-82170476D01*
X137445714Y-82132380D01*
X137369523Y-82132380D01*
X137255238Y-82170476D01*
X136798095Y-82627619D01*
X136798095Y-82132380D01*
X134258095Y-84113333D02*
X135058095Y-84113333D01*
X135058095Y-83922857D01*
X135020000Y-83808571D01*
X134943809Y-83732380D01*
X134867619Y-83694285D01*
X134715238Y-83656190D01*
X134600952Y-83656190D01*
X134448571Y-83694285D01*
X134372380Y-83732380D01*
X134296190Y-83808571D01*
X134258095Y-83922857D01*
X134258095Y-84113333D01*
X134258095Y-82894285D02*
X134258095Y-83351428D01*
X134258095Y-83122857D02*
X135058095Y-83122857D01*
X134943809Y-83199047D01*
X134867619Y-83275238D01*
X134829523Y-83351428D01*
X134258095Y-82132380D02*
X134258095Y-82589523D01*
X134258095Y-82360952D02*
X135058095Y-82360952D01*
X134943809Y-82437142D01*
X134867619Y-82513333D01*
X134829523Y-82589523D01*
X131718095Y-84113333D02*
X132518095Y-84113333D01*
X132518095Y-83922857D01*
X132480000Y-83808571D01*
X132403809Y-83732380D01*
X132327619Y-83694285D01*
X132175238Y-83656190D01*
X132060952Y-83656190D01*
X131908571Y-83694285D01*
X131832380Y-83732380D01*
X131756190Y-83808571D01*
X131718095Y-83922857D01*
X131718095Y-84113333D01*
X131718095Y-82894285D02*
X131718095Y-83351428D01*
X131718095Y-83122857D02*
X132518095Y-83122857D01*
X132403809Y-83199047D01*
X132327619Y-83275238D01*
X132289523Y-83351428D01*
X132518095Y-82399047D02*
X132518095Y-82322857D01*
X132480000Y-82246666D01*
X132441904Y-82208571D01*
X132365714Y-82170476D01*
X132213333Y-82132380D01*
X132022857Y-82132380D01*
X131870476Y-82170476D01*
X131794285Y-82208571D01*
X131756190Y-82246666D01*
X131718095Y-82322857D01*
X131718095Y-82399047D01*
X131756190Y-82475238D01*
X131794285Y-82513333D01*
X131870476Y-82551428D01*
X132022857Y-82589523D01*
X132213333Y-82589523D01*
X132365714Y-82551428D01*
X132441904Y-82513333D01*
X132480000Y-82475238D01*
X132518095Y-82399047D01*
X179145714Y-66808333D02*
X178764761Y-66808333D01*
X179221904Y-67036904D02*
X178955238Y-66236904D01*
X178688571Y-67036904D01*
X178421904Y-67036904D02*
X178421904Y-66503571D01*
X178421904Y-66655952D02*
X178383809Y-66579761D01*
X178345714Y-66541666D01*
X178269523Y-66503571D01*
X178193333Y-66503571D01*
X177583809Y-67036904D02*
X177583809Y-66236904D01*
X177583809Y-66998809D02*
X177660000Y-67036904D01*
X177812380Y-67036904D01*
X177888571Y-66998809D01*
X177926666Y-66960714D01*
X177964761Y-66884523D01*
X177964761Y-66655952D01*
X177926666Y-66579761D01*
X177888571Y-66541666D01*
X177812380Y-66503571D01*
X177660000Y-66503571D01*
X177583809Y-66541666D01*
X176860000Y-66503571D02*
X176860000Y-67036904D01*
X177202857Y-66503571D02*
X177202857Y-66922619D01*
X177164761Y-66998809D01*
X177088571Y-67036904D01*
X176974285Y-67036904D01*
X176898095Y-66998809D01*
X176860000Y-66960714D01*
X176479047Y-67036904D02*
X176479047Y-66503571D01*
X176479047Y-66236904D02*
X176517142Y-66275000D01*
X176479047Y-66313095D01*
X176440952Y-66275000D01*
X176479047Y-66236904D01*
X176479047Y-66313095D01*
X176098095Y-66503571D02*
X176098095Y-67036904D01*
X176098095Y-66579761D02*
X176060000Y-66541666D01*
X175983809Y-66503571D01*
X175869523Y-66503571D01*
X175793333Y-66541666D01*
X175755238Y-66617857D01*
X175755238Y-67036904D01*
X175260000Y-67036904D02*
X175336190Y-66998809D01*
X175374285Y-66960714D01*
X175412380Y-66884523D01*
X175412380Y-66655952D01*
X175374285Y-66579761D01*
X175336190Y-66541666D01*
X175260000Y-66503571D01*
X175145714Y-66503571D01*
X175069523Y-66541666D01*
X175031428Y-66579761D01*
X174993333Y-66655952D01*
X174993333Y-66884523D01*
X175031428Y-66960714D01*
X175069523Y-66998809D01*
X175145714Y-67036904D01*
X175260000Y-67036904D01*
X174040952Y-67036904D02*
X174040952Y-66236904D01*
X173583809Y-67036904D01*
X173583809Y-66236904D01*
X172860000Y-67036904D02*
X172860000Y-66617857D01*
X172898095Y-66541666D01*
X172974285Y-66503571D01*
X173126666Y-66503571D01*
X173202857Y-66541666D01*
X172860000Y-66998809D02*
X172936190Y-67036904D01*
X173126666Y-67036904D01*
X173202857Y-66998809D01*
X173240952Y-66922619D01*
X173240952Y-66846428D01*
X173202857Y-66770238D01*
X173126666Y-66732142D01*
X172936190Y-66732142D01*
X172860000Y-66694047D01*
X172479047Y-66503571D02*
X172479047Y-67036904D01*
X172479047Y-66579761D02*
X172440952Y-66541666D01*
X172364761Y-66503571D01*
X172250476Y-66503571D01*
X172174285Y-66541666D01*
X172136190Y-66617857D01*
X172136190Y-67036904D01*
X171640952Y-67036904D02*
X171717142Y-66998809D01*
X171755238Y-66960714D01*
X171793333Y-66884523D01*
X171793333Y-66655952D01*
X171755238Y-66579761D01*
X171717142Y-66541666D01*
X171640952Y-66503571D01*
X171526666Y-66503571D01*
X171450476Y-66541666D01*
X171412380Y-66579761D01*
X171374285Y-66655952D01*
X171374285Y-66884523D01*
X171412380Y-66960714D01*
X171450476Y-66998809D01*
X171526666Y-67036904D01*
X171640952Y-67036904D01*
D11*
X108505238Y-143962380D02*
X108838571Y-143486190D01*
X109076666Y-143962380D02*
X109076666Y-142962380D01*
X108695714Y-142962380D01*
X108600476Y-143010000D01*
X108552857Y-143057619D01*
X108505238Y-143152857D01*
X108505238Y-143295714D01*
X108552857Y-143390952D01*
X108600476Y-143438571D01*
X108695714Y-143486190D01*
X109076666Y-143486190D01*
X107695714Y-143914761D02*
X107790952Y-143962380D01*
X107981428Y-143962380D01*
X108076666Y-143914761D01*
X108124285Y-143819523D01*
X108124285Y-143438571D01*
X108076666Y-143343333D01*
X107981428Y-143295714D01*
X107790952Y-143295714D01*
X107695714Y-143343333D01*
X107648095Y-143438571D01*
X107648095Y-143533809D01*
X108124285Y-143629047D01*
X107314761Y-143295714D02*
X107076666Y-143962380D01*
X106838571Y-143295714D01*
X106457619Y-143962380D02*
X106457619Y-143295714D01*
X106457619Y-142962380D02*
X106505238Y-143010000D01*
X106457619Y-143057619D01*
X106410000Y-143010000D01*
X106457619Y-142962380D01*
X106457619Y-143057619D01*
X106029047Y-143914761D02*
X105933809Y-143962380D01*
X105743333Y-143962380D01*
X105648095Y-143914761D01*
X105600476Y-143819523D01*
X105600476Y-143771904D01*
X105648095Y-143676666D01*
X105743333Y-143629047D01*
X105886190Y-143629047D01*
X105981428Y-143581428D01*
X106029047Y-143486190D01*
X106029047Y-143438571D01*
X105981428Y-143343333D01*
X105886190Y-143295714D01*
X105743333Y-143295714D01*
X105648095Y-143343333D01*
X105171904Y-143962380D02*
X105171904Y-143295714D01*
X105171904Y-142962380D02*
X105219523Y-143010000D01*
X105171904Y-143057619D01*
X105124285Y-143010000D01*
X105171904Y-142962380D01*
X105171904Y-143057619D01*
X104552857Y-143962380D02*
X104648095Y-143914761D01*
X104695714Y-143867142D01*
X104743333Y-143771904D01*
X104743333Y-143486190D01*
X104695714Y-143390952D01*
X104648095Y-143343333D01*
X104552857Y-143295714D01*
X104410000Y-143295714D01*
X104314761Y-143343333D01*
X104267142Y-143390952D01*
X104219523Y-143486190D01*
X104219523Y-143771904D01*
X104267142Y-143867142D01*
X104314761Y-143914761D01*
X104410000Y-143962380D01*
X104552857Y-143962380D01*
X103790952Y-143295714D02*
X103790952Y-143962380D01*
X103790952Y-143390952D02*
X103743333Y-143343333D01*
X103648095Y-143295714D01*
X103505238Y-143295714D01*
X103410000Y-143343333D01*
X103362380Y-143438571D01*
X103362380Y-143962380D01*
X102171904Y-143676666D02*
X101695714Y-143676666D01*
X102267142Y-143962380D02*
X101933809Y-142962380D01*
X101600476Y-143962380D01*
M02*
