G04 #@! TF.FileFunction,Copper,L2,Bot,Signal*
%FSLAX46Y46*%
G04 Gerber Fmt 4.6, Leading zero omitted, Abs format (unit mm)*
G04 Created by KiCad (PCBNEW 4.0.7) date 01/10/20 21:54:51*
%MOMM*%
%LPD*%
G01*
G04 APERTURE LIST*
%ADD10C,0.100000*%
%ADD11R,1.700000X1.700000*%
%ADD12O,1.700000X1.700000*%
%ADD13C,5.000000*%
%ADD14R,1.600000X1.600000*%
%ADD15O,1.600000X1.600000*%
%ADD16C,0.600000*%
%ADD17C,0.250000*%
%ADD18C,0.254000*%
G04 APERTURE END LIST*
D10*
D11*
X198120000Y-145415000D03*
D12*
X195580000Y-145415000D03*
X193040000Y-145415000D03*
X190500000Y-145415000D03*
X187960000Y-145415000D03*
X185420000Y-145415000D03*
X182880000Y-145415000D03*
X180340000Y-145415000D03*
X177800000Y-145415000D03*
X175260000Y-145415000D03*
X172720000Y-145415000D03*
X170180000Y-145415000D03*
X167640000Y-145415000D03*
X165100000Y-145415000D03*
X162560000Y-145415000D03*
X160020000Y-145415000D03*
X157480000Y-145415000D03*
X154940000Y-145415000D03*
X152400000Y-145415000D03*
X149860000Y-145415000D03*
X147320000Y-145415000D03*
X144780000Y-145415000D03*
X142240000Y-145415000D03*
X139700000Y-145415000D03*
X137160000Y-145415000D03*
X134620000Y-145415000D03*
X132080000Y-145415000D03*
X129540000Y-145415000D03*
X127000000Y-145415000D03*
X124460000Y-145415000D03*
X121920000Y-145415000D03*
X119380000Y-145415000D03*
X116840000Y-145415000D03*
X114300000Y-145415000D03*
X111760000Y-145415000D03*
X109220000Y-145415000D03*
X106680000Y-145415000D03*
X104140000Y-145415000D03*
X101600000Y-145415000D03*
D13*
X104140000Y-140335000D03*
X195580000Y-140335000D03*
X195580000Y-55880000D03*
X104140000Y-55880000D03*
D11*
X198120000Y-50800000D03*
D12*
X195580000Y-50800000D03*
X193040000Y-50800000D03*
X190500000Y-50800000D03*
X187960000Y-50800000D03*
X185420000Y-50800000D03*
X182880000Y-50800000D03*
X180340000Y-50800000D03*
X177800000Y-50800000D03*
X175260000Y-50800000D03*
X172720000Y-50800000D03*
X170180000Y-50800000D03*
X167640000Y-50800000D03*
X165100000Y-50800000D03*
X162560000Y-50800000D03*
X160020000Y-50800000D03*
X157480000Y-50800000D03*
X154940000Y-50800000D03*
X152400000Y-50800000D03*
X149860000Y-50800000D03*
X147320000Y-50800000D03*
X144780000Y-50800000D03*
X142240000Y-50800000D03*
X139700000Y-50800000D03*
X137160000Y-50800000D03*
X134620000Y-50800000D03*
X132080000Y-50800000D03*
X129540000Y-50800000D03*
X127000000Y-50800000D03*
X124460000Y-50800000D03*
X121920000Y-50800000D03*
X119380000Y-50800000D03*
X116840000Y-50800000D03*
X114300000Y-50800000D03*
X111760000Y-50800000D03*
X109220000Y-50800000D03*
X106680000Y-50800000D03*
X104140000Y-50800000D03*
X101600000Y-50800000D03*
D11*
X104140000Y-80010000D03*
D12*
X106680000Y-80010000D03*
X109220000Y-80010000D03*
X111760000Y-80010000D03*
X114300000Y-80010000D03*
X116840000Y-80010000D03*
X119380000Y-80010000D03*
X121920000Y-80010000D03*
X124460000Y-80010000D03*
X127000000Y-80010000D03*
D11*
X132080000Y-80010000D03*
D12*
X134620000Y-80010000D03*
X137160000Y-80010000D03*
X139700000Y-80010000D03*
X142240000Y-80010000D03*
X144780000Y-80010000D03*
X147320000Y-80010000D03*
X149860000Y-80010000D03*
X152400000Y-80010000D03*
X154940000Y-80010000D03*
D11*
X195580000Y-133985000D03*
D12*
X195580000Y-131445000D03*
D11*
X195580000Y-88265000D03*
D12*
X195580000Y-85725000D03*
D14*
X156210000Y-74295000D03*
D15*
X189230000Y-59055000D03*
X158750000Y-74295000D03*
X186690000Y-59055000D03*
X161290000Y-74295000D03*
X184150000Y-59055000D03*
X163830000Y-74295000D03*
X181610000Y-59055000D03*
X166370000Y-74295000D03*
X179070000Y-59055000D03*
X168910000Y-74295000D03*
X176530000Y-59055000D03*
X171450000Y-74295000D03*
X173990000Y-59055000D03*
X173990000Y-74295000D03*
X171450000Y-59055000D03*
X176530000Y-74295000D03*
X168910000Y-59055000D03*
X179070000Y-74295000D03*
X166370000Y-59055000D03*
X181610000Y-74295000D03*
X163830000Y-59055000D03*
X184150000Y-74295000D03*
X161290000Y-59055000D03*
X186690000Y-74295000D03*
X158750000Y-59055000D03*
X189230000Y-74295000D03*
X156210000Y-59055000D03*
X191770000Y-74295000D03*
X191770000Y-59055000D03*
D16*
X154940000Y-60325000D03*
X158750000Y-133985000D03*
X158750000Y-88265000D03*
X165735000Y-54610000D03*
X130810000Y-54610000D03*
X168275000Y-53975000D03*
X133350000Y-53975000D03*
X170815000Y-53340000D03*
X135890000Y-53340000D03*
X138430000Y-52705000D03*
X173355000Y-52705000D03*
X141605000Y-60960000D03*
X151765000Y-60960000D03*
X153035000Y-60960000D03*
X144145000Y-61595000D03*
X149225000Y-61595000D03*
X150495000Y-61595000D03*
X146685000Y-62230000D03*
X145415000Y-62865000D03*
X148590000Y-62865000D03*
X195580000Y-70485000D03*
X198755000Y-70485000D03*
X107315000Y-70485000D03*
X165735000Y-70485000D03*
X194945000Y-69850000D03*
X168275000Y-69850000D03*
X109855000Y-69850000D03*
X170815000Y-69215000D03*
X192405000Y-69215000D03*
X112395000Y-69215000D03*
X114935000Y-68580000D03*
X190500000Y-68580000D03*
X173355000Y-68580000D03*
X175895000Y-67945000D03*
X117475000Y-67945000D03*
X187960000Y-67945000D03*
X178435000Y-67310000D03*
X120015000Y-67310000D03*
X185420000Y-67310000D03*
X111125000Y-71755000D03*
X155575000Y-71755000D03*
X113665000Y-71120000D03*
X158115000Y-71120000D03*
X151130000Y-52070000D03*
X186690000Y-52705000D03*
X180975000Y-66675000D03*
X122555000Y-66675000D03*
X182880000Y-66675000D03*
X183515000Y-66040000D03*
X125095000Y-66040000D03*
X180340000Y-66040000D03*
X186055000Y-65405000D03*
X135255000Y-65405000D03*
X177800000Y-65405000D03*
X188595000Y-64770000D03*
X137795000Y-64770000D03*
X175260000Y-64770000D03*
X191135000Y-64135000D03*
X140335000Y-64135000D03*
X172720000Y-64135000D03*
X142875000Y-63500000D03*
X170180000Y-63500000D03*
X101600000Y-143510000D03*
X101600000Y-52705000D03*
X188595000Y-55245000D03*
X160655000Y-55245000D03*
D17*
X163830000Y-59055000D02*
X163830000Y-59690000D01*
X163830000Y-59690000D02*
X163195000Y-60325000D01*
X163195000Y-60325000D02*
X154940000Y-60325000D01*
X195580000Y-88265000D02*
X158750000Y-88265000D01*
X158750000Y-133985000D02*
X195580000Y-133985000D01*
X130810000Y-54610000D02*
X159385000Y-54610000D01*
X165735000Y-54610000D02*
X159385000Y-54610000D01*
X133350000Y-53975000D02*
X159385000Y-53975000D01*
X168275000Y-53975000D02*
X159385000Y-53975000D01*
X135890000Y-53340000D02*
X159385000Y-53340000D01*
X170815000Y-53340000D02*
X159385000Y-53340000D01*
X173355000Y-52705000D02*
X138430000Y-52705000D01*
X151765000Y-60960000D02*
X141605000Y-60960000D01*
X176530000Y-59055000D02*
X176530000Y-60325000D01*
X175895000Y-60960000D02*
X176530000Y-60325000D01*
X153035000Y-60960000D02*
X175895000Y-60960000D01*
X149225000Y-61595000D02*
X144145000Y-61595000D01*
X150495000Y-61595000D02*
X178435000Y-61595000D01*
X178435000Y-61595000D02*
X179070000Y-60960000D01*
X179070000Y-60960000D02*
X179070000Y-59055000D01*
X181610000Y-61595000D02*
X181610000Y-59055000D01*
X180975000Y-62230000D02*
X181610000Y-61595000D01*
X146685000Y-62230000D02*
X180975000Y-62230000D01*
X148590000Y-62865000D02*
X183515000Y-62865000D01*
X184150000Y-62230000D02*
X184150000Y-59055000D01*
X183515000Y-62865000D02*
X184150000Y-62230000D01*
X145415000Y-62865000D02*
X148590000Y-62865000D01*
X195580000Y-70485000D02*
X165735000Y-70485000D01*
X198755000Y-143510000D02*
X198120000Y-144145000D01*
X198120000Y-144145000D02*
X198120000Y-145415000D01*
X198755000Y-52705000D02*
X198120000Y-52070000D01*
X198120000Y-50800000D02*
X198120000Y-52070000D01*
X198755000Y-66040000D02*
X198755000Y-70485000D01*
X198755000Y-70485000D02*
X198755000Y-143510000D01*
X198755000Y-52705000D02*
X198755000Y-66040000D01*
X107315000Y-70485000D02*
X165735000Y-70485000D01*
X198120000Y-50800000D02*
X198120000Y-51435000D01*
X168275000Y-69850000D02*
X194945000Y-69850000D01*
X168275000Y-69850000D02*
X160655000Y-69850000D01*
X160655000Y-69850000D02*
X109855000Y-69850000D01*
X130175000Y-69215000D02*
X170815000Y-69215000D01*
X170815000Y-69215000D02*
X192405000Y-69215000D01*
X112395000Y-69215000D02*
X130175000Y-69215000D01*
X173355000Y-68580000D02*
X114935000Y-68580000D01*
X173355000Y-68580000D02*
X190500000Y-68580000D01*
X187960000Y-67945000D02*
X175895000Y-67945000D01*
X175895000Y-67945000D02*
X131445000Y-67945000D01*
X117475000Y-67945000D02*
X131445000Y-67945000D01*
X120015000Y-67310000D02*
X178435000Y-67310000D01*
X178435000Y-67310000D02*
X185420000Y-67310000D01*
X155575000Y-71755000D02*
X111125000Y-71755000D01*
X158115000Y-71120000D02*
X113665000Y-71120000D01*
X186055000Y-52070000D02*
X186690000Y-52705000D01*
X186055000Y-52070000D02*
X151130000Y-52070000D01*
X122555000Y-66675000D02*
X152400000Y-66675000D01*
X152400000Y-66675000D02*
X180975000Y-66675000D01*
X180975000Y-66675000D02*
X182880000Y-66675000D01*
X180340000Y-66040000D02*
X183515000Y-66040000D01*
X125095000Y-66040000D02*
X180340000Y-66040000D01*
X177800000Y-65405000D02*
X186055000Y-65405000D01*
X135255000Y-65405000D02*
X177800000Y-65405000D01*
X175260000Y-64770000D02*
X188595000Y-64770000D01*
X137795000Y-64770000D02*
X175260000Y-64770000D01*
X172720000Y-64135000D02*
X191135000Y-64135000D01*
X140335000Y-64135000D02*
X172720000Y-64135000D01*
X170180000Y-63500000D02*
X191135000Y-63500000D01*
X191770000Y-62865000D02*
X191770000Y-59055000D01*
X191135000Y-63500000D02*
X191770000Y-62865000D01*
X142875000Y-63500000D02*
X170180000Y-63500000D01*
X100965000Y-138430000D02*
X100965000Y-142240000D01*
X101600000Y-143510000D02*
X100965000Y-142875000D01*
X100965000Y-142875000D02*
X100965000Y-142240000D01*
X100965000Y-138430000D02*
X100965000Y-137795000D01*
X100965000Y-62865000D02*
X100965000Y-137795000D01*
X100965000Y-58420000D02*
X100965000Y-61595000D01*
X100965000Y-57785000D02*
X100965000Y-58420000D01*
X100965000Y-53340000D02*
X100965000Y-57785000D01*
X101600000Y-52705000D02*
X100965000Y-53340000D01*
X100965000Y-61595000D02*
X100965000Y-62865000D01*
X160655000Y-55245000D02*
X188595000Y-55245000D01*
D18*
G36*
X194529946Y-51879147D02*
X195011715Y-52201054D01*
X195580000Y-52314093D01*
X196148285Y-52201054D01*
X196630054Y-51879147D01*
X196657850Y-51837548D01*
X196666838Y-51885317D01*
X196805910Y-52101441D01*
X197018110Y-52246431D01*
X197270000Y-52297440D01*
X197405241Y-52297440D01*
X197417852Y-52360839D01*
X197582599Y-52607401D01*
X197995000Y-53019802D01*
X197995000Y-53861785D01*
X197358153Y-53223826D01*
X196206326Y-52745546D01*
X194959146Y-52744457D01*
X193806485Y-53220727D01*
X192923826Y-54101847D01*
X192445546Y-55253674D01*
X192444457Y-56500854D01*
X192920727Y-57653515D01*
X193801847Y-58536174D01*
X194953674Y-59014454D01*
X196200854Y-59015543D01*
X197353515Y-58539273D01*
X197995000Y-57898906D01*
X197995000Y-69922537D01*
X197962808Y-69954673D01*
X197820162Y-70298201D01*
X197819838Y-70670167D01*
X197961883Y-71013943D01*
X197995000Y-71047118D01*
X197995000Y-138316785D01*
X197358153Y-137678826D01*
X196206326Y-137200546D01*
X194959146Y-137199457D01*
X193806485Y-137675727D01*
X192923826Y-138556847D01*
X192445546Y-139708674D01*
X192444457Y-140955854D01*
X192920727Y-142108515D01*
X193801847Y-142991174D01*
X194953674Y-143469454D01*
X196200854Y-143470543D01*
X197353515Y-142994273D01*
X197995000Y-142353906D01*
X197995000Y-143195198D01*
X197582599Y-143607599D01*
X197417852Y-143854161D01*
X197405241Y-143917560D01*
X197270000Y-143917560D01*
X197034683Y-143961838D01*
X196818559Y-144100910D01*
X196673569Y-144313110D01*
X196659914Y-144380541D01*
X196630054Y-144335853D01*
X196148285Y-144013946D01*
X195580000Y-143900907D01*
X195011715Y-144013946D01*
X194529946Y-144335853D01*
X194310000Y-144665026D01*
X194090054Y-144335853D01*
X193608285Y-144013946D01*
X193040000Y-143900907D01*
X192471715Y-144013946D01*
X191989946Y-144335853D01*
X191770000Y-144665026D01*
X191550054Y-144335853D01*
X191068285Y-144013946D01*
X190500000Y-143900907D01*
X189931715Y-144013946D01*
X189449946Y-144335853D01*
X189230000Y-144665026D01*
X189010054Y-144335853D01*
X188528285Y-144013946D01*
X187960000Y-143900907D01*
X187391715Y-144013946D01*
X186909946Y-144335853D01*
X186690000Y-144665026D01*
X186470054Y-144335853D01*
X185988285Y-144013946D01*
X185420000Y-143900907D01*
X184851715Y-144013946D01*
X184369946Y-144335853D01*
X184150000Y-144665026D01*
X183930054Y-144335853D01*
X183448285Y-144013946D01*
X182880000Y-143900907D01*
X182311715Y-144013946D01*
X181829946Y-144335853D01*
X181610000Y-144665026D01*
X181390054Y-144335853D01*
X180908285Y-144013946D01*
X180340000Y-143900907D01*
X179771715Y-144013946D01*
X179289946Y-144335853D01*
X179070000Y-144665026D01*
X178850054Y-144335853D01*
X178368285Y-144013946D01*
X177800000Y-143900907D01*
X177231715Y-144013946D01*
X176749946Y-144335853D01*
X176530000Y-144665026D01*
X176310054Y-144335853D01*
X175828285Y-144013946D01*
X175260000Y-143900907D01*
X174691715Y-144013946D01*
X174209946Y-144335853D01*
X173990000Y-144665026D01*
X173770054Y-144335853D01*
X173288285Y-144013946D01*
X172720000Y-143900907D01*
X172151715Y-144013946D01*
X171669946Y-144335853D01*
X171450000Y-144665026D01*
X171230054Y-144335853D01*
X170748285Y-144013946D01*
X170180000Y-143900907D01*
X169611715Y-144013946D01*
X169129946Y-144335853D01*
X168910000Y-144665026D01*
X168690054Y-144335853D01*
X168208285Y-144013946D01*
X167640000Y-143900907D01*
X167071715Y-144013946D01*
X166589946Y-144335853D01*
X166370000Y-144665026D01*
X166150054Y-144335853D01*
X165668285Y-144013946D01*
X165100000Y-143900907D01*
X164531715Y-144013946D01*
X164049946Y-144335853D01*
X163830000Y-144665026D01*
X163610054Y-144335853D01*
X163128285Y-144013946D01*
X162560000Y-143900907D01*
X161991715Y-144013946D01*
X161509946Y-144335853D01*
X161290000Y-144665026D01*
X161070054Y-144335853D01*
X160588285Y-144013946D01*
X160020000Y-143900907D01*
X159451715Y-144013946D01*
X158969946Y-144335853D01*
X158742298Y-144676553D01*
X158675183Y-144533642D01*
X158246924Y-144143355D01*
X157836890Y-143973524D01*
X157607000Y-144094845D01*
X157607000Y-145288000D01*
X157627000Y-145288000D01*
X157627000Y-145542000D01*
X157607000Y-145542000D01*
X157607000Y-145562000D01*
X157353000Y-145562000D01*
X157353000Y-145542000D01*
X157333000Y-145542000D01*
X157333000Y-145288000D01*
X157353000Y-145288000D01*
X157353000Y-144094845D01*
X157123110Y-143973524D01*
X156713076Y-144143355D01*
X156284817Y-144533642D01*
X156217702Y-144676553D01*
X155990054Y-144335853D01*
X155508285Y-144013946D01*
X154940000Y-143900907D01*
X154371715Y-144013946D01*
X153889946Y-144335853D01*
X153670000Y-144665026D01*
X153450054Y-144335853D01*
X152968285Y-144013946D01*
X152400000Y-143900907D01*
X151831715Y-144013946D01*
X151349946Y-144335853D01*
X151130000Y-144665026D01*
X150910054Y-144335853D01*
X150428285Y-144013946D01*
X149860000Y-143900907D01*
X149291715Y-144013946D01*
X148809946Y-144335853D01*
X148590000Y-144665026D01*
X148370054Y-144335853D01*
X147888285Y-144013946D01*
X147320000Y-143900907D01*
X146751715Y-144013946D01*
X146269946Y-144335853D01*
X146050000Y-144665026D01*
X145830054Y-144335853D01*
X145348285Y-144013946D01*
X144780000Y-143900907D01*
X144211715Y-144013946D01*
X143729946Y-144335853D01*
X143510000Y-144665026D01*
X143290054Y-144335853D01*
X142808285Y-144013946D01*
X142240000Y-143900907D01*
X141671715Y-144013946D01*
X141189946Y-144335853D01*
X140970000Y-144665026D01*
X140750054Y-144335853D01*
X140268285Y-144013946D01*
X139700000Y-143900907D01*
X139131715Y-144013946D01*
X138649946Y-144335853D01*
X138430000Y-144665026D01*
X138210054Y-144335853D01*
X137728285Y-144013946D01*
X137160000Y-143900907D01*
X136591715Y-144013946D01*
X136109946Y-144335853D01*
X135890000Y-144665026D01*
X135670054Y-144335853D01*
X135188285Y-144013946D01*
X134620000Y-143900907D01*
X134051715Y-144013946D01*
X133569946Y-144335853D01*
X133350000Y-144665026D01*
X133130054Y-144335853D01*
X132648285Y-144013946D01*
X132080000Y-143900907D01*
X131511715Y-144013946D01*
X131029946Y-144335853D01*
X130810000Y-144665026D01*
X130590054Y-144335853D01*
X130108285Y-144013946D01*
X129540000Y-143900907D01*
X128971715Y-144013946D01*
X128489946Y-144335853D01*
X128270000Y-144665026D01*
X128050054Y-144335853D01*
X127568285Y-144013946D01*
X127000000Y-143900907D01*
X126431715Y-144013946D01*
X125949946Y-144335853D01*
X125730000Y-144665026D01*
X125510054Y-144335853D01*
X125028285Y-144013946D01*
X124460000Y-143900907D01*
X123891715Y-144013946D01*
X123409946Y-144335853D01*
X123190000Y-144665026D01*
X122970054Y-144335853D01*
X122488285Y-144013946D01*
X121920000Y-143900907D01*
X121351715Y-144013946D01*
X120869946Y-144335853D01*
X120650000Y-144665026D01*
X120430054Y-144335853D01*
X119948285Y-144013946D01*
X119380000Y-143900907D01*
X118811715Y-144013946D01*
X118329946Y-144335853D01*
X118110000Y-144665026D01*
X117890054Y-144335853D01*
X117408285Y-144013946D01*
X116840000Y-143900907D01*
X116271715Y-144013946D01*
X115789946Y-144335853D01*
X115570000Y-144665026D01*
X115350054Y-144335853D01*
X114868285Y-144013946D01*
X114300000Y-143900907D01*
X113731715Y-144013946D01*
X113249946Y-144335853D01*
X113030000Y-144665026D01*
X112810054Y-144335853D01*
X112328285Y-144013946D01*
X111760000Y-143900907D01*
X111191715Y-144013946D01*
X110709946Y-144335853D01*
X110490000Y-144665026D01*
X110270054Y-144335853D01*
X109788285Y-144013946D01*
X109220000Y-143900907D01*
X108651715Y-144013946D01*
X108169946Y-144335853D01*
X107950000Y-144665026D01*
X107730054Y-144335853D01*
X107248285Y-144013946D01*
X106680000Y-143900907D01*
X106111715Y-144013946D01*
X105629946Y-144335853D01*
X105410000Y-144665026D01*
X105190054Y-144335853D01*
X104708285Y-144013946D01*
X104140000Y-143900907D01*
X103571715Y-144013946D01*
X103089946Y-144335853D01*
X102870000Y-144665026D01*
X102650054Y-144335853D01*
X102318245Y-144114146D01*
X102392192Y-144040327D01*
X102534838Y-143696799D01*
X102535162Y-143324833D01*
X102404639Y-143008943D01*
X103513674Y-143469454D01*
X104760854Y-143470543D01*
X105913515Y-142994273D01*
X106796174Y-142113153D01*
X107274454Y-140961326D01*
X107275543Y-139714146D01*
X106799273Y-138561485D01*
X105918153Y-137678826D01*
X104766326Y-137200546D01*
X103519146Y-137199457D01*
X102366485Y-137675727D01*
X101725000Y-138316094D01*
X101725000Y-134170167D01*
X157814838Y-134170167D01*
X157956883Y-134513943D01*
X158219673Y-134777192D01*
X158563201Y-134919838D01*
X158935167Y-134920162D01*
X159278943Y-134778117D01*
X159312118Y-134745000D01*
X194082560Y-134745000D01*
X194082560Y-134835000D01*
X194126838Y-135070317D01*
X194265910Y-135286441D01*
X194478110Y-135431431D01*
X194730000Y-135482440D01*
X196430000Y-135482440D01*
X196665317Y-135438162D01*
X196881441Y-135299090D01*
X197026431Y-135086890D01*
X197077440Y-134835000D01*
X197077440Y-133135000D01*
X197033162Y-132899683D01*
X196894090Y-132683559D01*
X196681890Y-132538569D01*
X196573893Y-132516699D01*
X196851645Y-132211924D01*
X197021476Y-131801890D01*
X196900155Y-131572000D01*
X195707000Y-131572000D01*
X195707000Y-131592000D01*
X195453000Y-131592000D01*
X195453000Y-131572000D01*
X194259845Y-131572000D01*
X194138524Y-131801890D01*
X194308355Y-132211924D01*
X194584501Y-132514937D01*
X194494683Y-132531838D01*
X194278559Y-132670910D01*
X194133569Y-132883110D01*
X194082560Y-133135000D01*
X194082560Y-133225000D01*
X159312463Y-133225000D01*
X159280327Y-133192808D01*
X158936799Y-133050162D01*
X158564833Y-133049838D01*
X158221057Y-133191883D01*
X157957808Y-133454673D01*
X157815162Y-133798201D01*
X157814838Y-134170167D01*
X101725000Y-134170167D01*
X101725000Y-131088110D01*
X194138524Y-131088110D01*
X194259845Y-131318000D01*
X195453000Y-131318000D01*
X195453000Y-130124181D01*
X195707000Y-130124181D01*
X195707000Y-131318000D01*
X196900155Y-131318000D01*
X197021476Y-131088110D01*
X196851645Y-130678076D01*
X196461358Y-130249817D01*
X195936892Y-130003514D01*
X195707000Y-130124181D01*
X195453000Y-130124181D01*
X195223108Y-130003514D01*
X194698642Y-130249817D01*
X194308355Y-130678076D01*
X194138524Y-131088110D01*
X101725000Y-131088110D01*
X101725000Y-88450167D01*
X157814838Y-88450167D01*
X157956883Y-88793943D01*
X158219673Y-89057192D01*
X158563201Y-89199838D01*
X158935167Y-89200162D01*
X159278943Y-89058117D01*
X159312118Y-89025000D01*
X194082560Y-89025000D01*
X194082560Y-89115000D01*
X194126838Y-89350317D01*
X194265910Y-89566441D01*
X194478110Y-89711431D01*
X194730000Y-89762440D01*
X196430000Y-89762440D01*
X196665317Y-89718162D01*
X196881441Y-89579090D01*
X197026431Y-89366890D01*
X197077440Y-89115000D01*
X197077440Y-87415000D01*
X197033162Y-87179683D01*
X196894090Y-86963559D01*
X196681890Y-86818569D01*
X196573893Y-86796699D01*
X196851645Y-86491924D01*
X197021476Y-86081890D01*
X196900155Y-85852000D01*
X195707000Y-85852000D01*
X195707000Y-85872000D01*
X195453000Y-85872000D01*
X195453000Y-85852000D01*
X194259845Y-85852000D01*
X194138524Y-86081890D01*
X194308355Y-86491924D01*
X194584501Y-86794937D01*
X194494683Y-86811838D01*
X194278559Y-86950910D01*
X194133569Y-87163110D01*
X194082560Y-87415000D01*
X194082560Y-87505000D01*
X159312463Y-87505000D01*
X159280327Y-87472808D01*
X158936799Y-87330162D01*
X158564833Y-87329838D01*
X158221057Y-87471883D01*
X157957808Y-87734673D01*
X157815162Y-88078201D01*
X157814838Y-88450167D01*
X101725000Y-88450167D01*
X101725000Y-85368110D01*
X194138524Y-85368110D01*
X194259845Y-85598000D01*
X195453000Y-85598000D01*
X195453000Y-84404181D01*
X195707000Y-84404181D01*
X195707000Y-85598000D01*
X196900155Y-85598000D01*
X197021476Y-85368110D01*
X196851645Y-84958076D01*
X196461358Y-84529817D01*
X195936892Y-84283514D01*
X195707000Y-84404181D01*
X195453000Y-84404181D01*
X195223108Y-84283514D01*
X194698642Y-84529817D01*
X194308355Y-84958076D01*
X194138524Y-85368110D01*
X101725000Y-85368110D01*
X101725000Y-79160000D01*
X102642560Y-79160000D01*
X102642560Y-80860000D01*
X102686838Y-81095317D01*
X102825910Y-81311441D01*
X103038110Y-81456431D01*
X103290000Y-81507440D01*
X104990000Y-81507440D01*
X105225317Y-81463162D01*
X105441441Y-81324090D01*
X105586431Y-81111890D01*
X105600086Y-81044459D01*
X105629946Y-81089147D01*
X106111715Y-81411054D01*
X106680000Y-81524093D01*
X107248285Y-81411054D01*
X107730054Y-81089147D01*
X107950000Y-80759974D01*
X108169946Y-81089147D01*
X108651715Y-81411054D01*
X109220000Y-81524093D01*
X109788285Y-81411054D01*
X110270054Y-81089147D01*
X110490000Y-80759974D01*
X110709946Y-81089147D01*
X111191715Y-81411054D01*
X111760000Y-81524093D01*
X112328285Y-81411054D01*
X112810054Y-81089147D01*
X113030000Y-80759974D01*
X113249946Y-81089147D01*
X113731715Y-81411054D01*
X114300000Y-81524093D01*
X114868285Y-81411054D01*
X115350054Y-81089147D01*
X115570000Y-80759974D01*
X115789946Y-81089147D01*
X116271715Y-81411054D01*
X116840000Y-81524093D01*
X117408285Y-81411054D01*
X117890054Y-81089147D01*
X118110000Y-80759974D01*
X118329946Y-81089147D01*
X118811715Y-81411054D01*
X119380000Y-81524093D01*
X119948285Y-81411054D01*
X120430054Y-81089147D01*
X120650000Y-80759974D01*
X120869946Y-81089147D01*
X121351715Y-81411054D01*
X121920000Y-81524093D01*
X122488285Y-81411054D01*
X122970054Y-81089147D01*
X123190000Y-80759974D01*
X123409946Y-81089147D01*
X123891715Y-81411054D01*
X124460000Y-81524093D01*
X125028285Y-81411054D01*
X125510054Y-81089147D01*
X125730000Y-80759974D01*
X125949946Y-81089147D01*
X126431715Y-81411054D01*
X127000000Y-81524093D01*
X127568285Y-81411054D01*
X128050054Y-81089147D01*
X128371961Y-80607378D01*
X128485000Y-80039093D01*
X128485000Y-79980907D01*
X128371961Y-79412622D01*
X128203165Y-79160000D01*
X130582560Y-79160000D01*
X130582560Y-80860000D01*
X130626838Y-81095317D01*
X130765910Y-81311441D01*
X130978110Y-81456431D01*
X131230000Y-81507440D01*
X132930000Y-81507440D01*
X133165317Y-81463162D01*
X133381441Y-81324090D01*
X133526431Y-81111890D01*
X133540086Y-81044459D01*
X133569946Y-81089147D01*
X134051715Y-81411054D01*
X134620000Y-81524093D01*
X135188285Y-81411054D01*
X135670054Y-81089147D01*
X135890000Y-80759974D01*
X136109946Y-81089147D01*
X136591715Y-81411054D01*
X137160000Y-81524093D01*
X137728285Y-81411054D01*
X138210054Y-81089147D01*
X138430000Y-80759974D01*
X138649946Y-81089147D01*
X139131715Y-81411054D01*
X139700000Y-81524093D01*
X140268285Y-81411054D01*
X140750054Y-81089147D01*
X140970000Y-80759974D01*
X141189946Y-81089147D01*
X141671715Y-81411054D01*
X142240000Y-81524093D01*
X142808285Y-81411054D01*
X143290054Y-81089147D01*
X143510000Y-80759974D01*
X143729946Y-81089147D01*
X144211715Y-81411054D01*
X144780000Y-81524093D01*
X145348285Y-81411054D01*
X145830054Y-81089147D01*
X146050000Y-80759974D01*
X146269946Y-81089147D01*
X146751715Y-81411054D01*
X147320000Y-81524093D01*
X147888285Y-81411054D01*
X148370054Y-81089147D01*
X148590000Y-80759974D01*
X148809946Y-81089147D01*
X149291715Y-81411054D01*
X149860000Y-81524093D01*
X150428285Y-81411054D01*
X150910054Y-81089147D01*
X151130000Y-80759974D01*
X151349946Y-81089147D01*
X151831715Y-81411054D01*
X152400000Y-81524093D01*
X152968285Y-81411054D01*
X153450054Y-81089147D01*
X153670000Y-80759974D01*
X153889946Y-81089147D01*
X154371715Y-81411054D01*
X154940000Y-81524093D01*
X155508285Y-81411054D01*
X155990054Y-81089147D01*
X156311961Y-80607378D01*
X156425000Y-80039093D01*
X156425000Y-79980907D01*
X156311961Y-79412622D01*
X155990054Y-78930853D01*
X155508285Y-78608946D01*
X154940000Y-78495907D01*
X154371715Y-78608946D01*
X153889946Y-78930853D01*
X153670000Y-79260026D01*
X153450054Y-78930853D01*
X152968285Y-78608946D01*
X152400000Y-78495907D01*
X151831715Y-78608946D01*
X151349946Y-78930853D01*
X151130000Y-79260026D01*
X150910054Y-78930853D01*
X150428285Y-78608946D01*
X149860000Y-78495907D01*
X149291715Y-78608946D01*
X148809946Y-78930853D01*
X148590000Y-79260026D01*
X148370054Y-78930853D01*
X147888285Y-78608946D01*
X147320000Y-78495907D01*
X146751715Y-78608946D01*
X146269946Y-78930853D01*
X146050000Y-79260026D01*
X145830054Y-78930853D01*
X145348285Y-78608946D01*
X144780000Y-78495907D01*
X144211715Y-78608946D01*
X143729946Y-78930853D01*
X143510000Y-79260026D01*
X143290054Y-78930853D01*
X142808285Y-78608946D01*
X142240000Y-78495907D01*
X141671715Y-78608946D01*
X141189946Y-78930853D01*
X140970000Y-79260026D01*
X140750054Y-78930853D01*
X140268285Y-78608946D01*
X139700000Y-78495907D01*
X139131715Y-78608946D01*
X138649946Y-78930853D01*
X138430000Y-79260026D01*
X138210054Y-78930853D01*
X137728285Y-78608946D01*
X137160000Y-78495907D01*
X136591715Y-78608946D01*
X136109946Y-78930853D01*
X135890000Y-79260026D01*
X135670054Y-78930853D01*
X135188285Y-78608946D01*
X134620000Y-78495907D01*
X134051715Y-78608946D01*
X133569946Y-78930853D01*
X133542150Y-78972452D01*
X133533162Y-78924683D01*
X133394090Y-78708559D01*
X133181890Y-78563569D01*
X132930000Y-78512560D01*
X131230000Y-78512560D01*
X130994683Y-78556838D01*
X130778559Y-78695910D01*
X130633569Y-78908110D01*
X130582560Y-79160000D01*
X128203165Y-79160000D01*
X128050054Y-78930853D01*
X127568285Y-78608946D01*
X127000000Y-78495907D01*
X126431715Y-78608946D01*
X125949946Y-78930853D01*
X125730000Y-79260026D01*
X125510054Y-78930853D01*
X125028285Y-78608946D01*
X124460000Y-78495907D01*
X123891715Y-78608946D01*
X123409946Y-78930853D01*
X123190000Y-79260026D01*
X122970054Y-78930853D01*
X122488285Y-78608946D01*
X121920000Y-78495907D01*
X121351715Y-78608946D01*
X120869946Y-78930853D01*
X120650000Y-79260026D01*
X120430054Y-78930853D01*
X119948285Y-78608946D01*
X119380000Y-78495907D01*
X118811715Y-78608946D01*
X118329946Y-78930853D01*
X118110000Y-79260026D01*
X117890054Y-78930853D01*
X117408285Y-78608946D01*
X116840000Y-78495907D01*
X116271715Y-78608946D01*
X115789946Y-78930853D01*
X115570000Y-79260026D01*
X115350054Y-78930853D01*
X114868285Y-78608946D01*
X114300000Y-78495907D01*
X113731715Y-78608946D01*
X113249946Y-78930853D01*
X113030000Y-79260026D01*
X112810054Y-78930853D01*
X112328285Y-78608946D01*
X111760000Y-78495907D01*
X111191715Y-78608946D01*
X110709946Y-78930853D01*
X110490000Y-79260026D01*
X110270054Y-78930853D01*
X109788285Y-78608946D01*
X109220000Y-78495907D01*
X108651715Y-78608946D01*
X108169946Y-78930853D01*
X107950000Y-79260026D01*
X107730054Y-78930853D01*
X107248285Y-78608946D01*
X106680000Y-78495907D01*
X106111715Y-78608946D01*
X105629946Y-78930853D01*
X105602150Y-78972452D01*
X105593162Y-78924683D01*
X105454090Y-78708559D01*
X105241890Y-78563569D01*
X104990000Y-78512560D01*
X103290000Y-78512560D01*
X103054683Y-78556838D01*
X102838559Y-78695910D01*
X102693569Y-78908110D01*
X102642560Y-79160000D01*
X101725000Y-79160000D01*
X101725000Y-73495000D01*
X154762560Y-73495000D01*
X154762560Y-75095000D01*
X154806838Y-75330317D01*
X154945910Y-75546441D01*
X155158110Y-75691431D01*
X155410000Y-75742440D01*
X157010000Y-75742440D01*
X157245317Y-75698162D01*
X157461441Y-75559090D01*
X157606431Y-75346890D01*
X157637815Y-75191911D01*
X157735302Y-75337811D01*
X158200849Y-75648880D01*
X158750000Y-75758113D01*
X159299151Y-75648880D01*
X159764698Y-75337811D01*
X160020000Y-74955725D01*
X160275302Y-75337811D01*
X160740849Y-75648880D01*
X161290000Y-75758113D01*
X161839151Y-75648880D01*
X162304698Y-75337811D01*
X162574986Y-74933297D01*
X162677611Y-75150134D01*
X163092577Y-75526041D01*
X163480961Y-75686904D01*
X163703000Y-75564915D01*
X163703000Y-74422000D01*
X163683000Y-74422000D01*
X163683000Y-74168000D01*
X163703000Y-74168000D01*
X163703000Y-73025085D01*
X163957000Y-73025085D01*
X163957000Y-74168000D01*
X163977000Y-74168000D01*
X163977000Y-74422000D01*
X163957000Y-74422000D01*
X163957000Y-75564915D01*
X164179039Y-75686904D01*
X164567423Y-75526041D01*
X164982389Y-75150134D01*
X165085014Y-74933297D01*
X165355302Y-75337811D01*
X165820849Y-75648880D01*
X166370000Y-75758113D01*
X166919151Y-75648880D01*
X167384698Y-75337811D01*
X167640000Y-74955725D01*
X167895302Y-75337811D01*
X168360849Y-75648880D01*
X168910000Y-75758113D01*
X169459151Y-75648880D01*
X169924698Y-75337811D01*
X170180000Y-74955725D01*
X170435302Y-75337811D01*
X170900849Y-75648880D01*
X171450000Y-75758113D01*
X171999151Y-75648880D01*
X172464698Y-75337811D01*
X172720000Y-74955725D01*
X172975302Y-75337811D01*
X173440849Y-75648880D01*
X173990000Y-75758113D01*
X174539151Y-75648880D01*
X175004698Y-75337811D01*
X175260000Y-74955725D01*
X175515302Y-75337811D01*
X175980849Y-75648880D01*
X176530000Y-75758113D01*
X177079151Y-75648880D01*
X177544698Y-75337811D01*
X177800000Y-74955725D01*
X178055302Y-75337811D01*
X178520849Y-75648880D01*
X179070000Y-75758113D01*
X179619151Y-75648880D01*
X180084698Y-75337811D01*
X180340000Y-74955725D01*
X180595302Y-75337811D01*
X181060849Y-75648880D01*
X181610000Y-75758113D01*
X182159151Y-75648880D01*
X182624698Y-75337811D01*
X182880000Y-74955725D01*
X183135302Y-75337811D01*
X183600849Y-75648880D01*
X184150000Y-75758113D01*
X184699151Y-75648880D01*
X185164698Y-75337811D01*
X185420000Y-74955725D01*
X185675302Y-75337811D01*
X186140849Y-75648880D01*
X186690000Y-75758113D01*
X187239151Y-75648880D01*
X187704698Y-75337811D01*
X187960000Y-74955725D01*
X188215302Y-75337811D01*
X188680849Y-75648880D01*
X189230000Y-75758113D01*
X189779151Y-75648880D01*
X190244698Y-75337811D01*
X190500000Y-74955725D01*
X190755302Y-75337811D01*
X191220849Y-75648880D01*
X191770000Y-75758113D01*
X192319151Y-75648880D01*
X192784698Y-75337811D01*
X193095767Y-74872264D01*
X193205000Y-74323113D01*
X193205000Y-74266887D01*
X193095767Y-73717736D01*
X192784698Y-73252189D01*
X192319151Y-72941120D01*
X191770000Y-72831887D01*
X191220849Y-72941120D01*
X190755302Y-73252189D01*
X190500000Y-73634275D01*
X190244698Y-73252189D01*
X189779151Y-72941120D01*
X189230000Y-72831887D01*
X188680849Y-72941120D01*
X188215302Y-73252189D01*
X187960000Y-73634275D01*
X187704698Y-73252189D01*
X187239151Y-72941120D01*
X186690000Y-72831887D01*
X186140849Y-72941120D01*
X185675302Y-73252189D01*
X185420000Y-73634275D01*
X185164698Y-73252189D01*
X184699151Y-72941120D01*
X184150000Y-72831887D01*
X183600849Y-72941120D01*
X183135302Y-73252189D01*
X182880000Y-73634275D01*
X182624698Y-73252189D01*
X182159151Y-72941120D01*
X181610000Y-72831887D01*
X181060849Y-72941120D01*
X180595302Y-73252189D01*
X180340000Y-73634275D01*
X180084698Y-73252189D01*
X179619151Y-72941120D01*
X179070000Y-72831887D01*
X178520849Y-72941120D01*
X178055302Y-73252189D01*
X177800000Y-73634275D01*
X177544698Y-73252189D01*
X177079151Y-72941120D01*
X176530000Y-72831887D01*
X175980849Y-72941120D01*
X175515302Y-73252189D01*
X175260000Y-73634275D01*
X175004698Y-73252189D01*
X174539151Y-72941120D01*
X173990000Y-72831887D01*
X173440849Y-72941120D01*
X172975302Y-73252189D01*
X172720000Y-73634275D01*
X172464698Y-73252189D01*
X171999151Y-72941120D01*
X171450000Y-72831887D01*
X170900849Y-72941120D01*
X170435302Y-73252189D01*
X170180000Y-73634275D01*
X169924698Y-73252189D01*
X169459151Y-72941120D01*
X168910000Y-72831887D01*
X168360849Y-72941120D01*
X167895302Y-73252189D01*
X167640000Y-73634275D01*
X167384698Y-73252189D01*
X166919151Y-72941120D01*
X166370000Y-72831887D01*
X165820849Y-72941120D01*
X165355302Y-73252189D01*
X165085014Y-73656703D01*
X164982389Y-73439866D01*
X164567423Y-73063959D01*
X164179039Y-72903096D01*
X163957000Y-73025085D01*
X163703000Y-73025085D01*
X163480961Y-72903096D01*
X163092577Y-73063959D01*
X162677611Y-73439866D01*
X162574986Y-73656703D01*
X162304698Y-73252189D01*
X161839151Y-72941120D01*
X161290000Y-72831887D01*
X160740849Y-72941120D01*
X160275302Y-73252189D01*
X160020000Y-73634275D01*
X159764698Y-73252189D01*
X159299151Y-72941120D01*
X158750000Y-72831887D01*
X158200849Y-72941120D01*
X157735302Y-73252189D01*
X157638899Y-73396465D01*
X157613162Y-73259683D01*
X157474090Y-73043559D01*
X157261890Y-72898569D01*
X157010000Y-72847560D01*
X155410000Y-72847560D01*
X155174683Y-72891838D01*
X154958559Y-73030910D01*
X154813569Y-73243110D01*
X154762560Y-73495000D01*
X101725000Y-73495000D01*
X101725000Y-70670167D01*
X106379838Y-70670167D01*
X106521883Y-71013943D01*
X106784673Y-71277192D01*
X107128201Y-71419838D01*
X107500167Y-71420162D01*
X107843943Y-71278117D01*
X107877118Y-71245000D01*
X110324367Y-71245000D01*
X110190162Y-71568201D01*
X110189838Y-71940167D01*
X110331883Y-72283943D01*
X110594673Y-72547192D01*
X110938201Y-72689838D01*
X111310167Y-72690162D01*
X111653943Y-72548117D01*
X111687118Y-72515000D01*
X155012537Y-72515000D01*
X155044673Y-72547192D01*
X155388201Y-72689838D01*
X155760167Y-72690162D01*
X156103943Y-72548117D01*
X156367192Y-72285327D01*
X156509838Y-71941799D01*
X156509892Y-71880000D01*
X157552537Y-71880000D01*
X157584673Y-71912192D01*
X157928201Y-72054838D01*
X158300167Y-72055162D01*
X158643943Y-71913117D01*
X158907192Y-71650327D01*
X159049838Y-71306799D01*
X159049892Y-71245000D01*
X165172537Y-71245000D01*
X165204673Y-71277192D01*
X165548201Y-71419838D01*
X165920167Y-71420162D01*
X166263943Y-71278117D01*
X166297118Y-71245000D01*
X195017537Y-71245000D01*
X195049673Y-71277192D01*
X195393201Y-71419838D01*
X195765167Y-71420162D01*
X196108943Y-71278117D01*
X196372192Y-71015327D01*
X196514838Y-70671799D01*
X196515162Y-70299833D01*
X196373117Y-69956057D01*
X196110327Y-69692808D01*
X195846446Y-69583235D01*
X195738117Y-69321057D01*
X195475327Y-69057808D01*
X195131799Y-68915162D01*
X194759833Y-68914838D01*
X194416057Y-69056883D01*
X194382882Y-69090000D01*
X193340110Y-69090000D01*
X193340162Y-69029833D01*
X193198117Y-68686057D01*
X192935327Y-68422808D01*
X192591799Y-68280162D01*
X192219833Y-68279838D01*
X191876057Y-68421883D01*
X191842882Y-68455000D01*
X191435110Y-68455000D01*
X191435162Y-68394833D01*
X191293117Y-68051057D01*
X191030327Y-67787808D01*
X190686799Y-67645162D01*
X190314833Y-67644838D01*
X189971057Y-67786883D01*
X189937882Y-67820000D01*
X188895110Y-67820000D01*
X188895162Y-67759833D01*
X188753117Y-67416057D01*
X188490327Y-67152808D01*
X188146799Y-67010162D01*
X187774833Y-67009838D01*
X187431057Y-67151883D01*
X187397882Y-67185000D01*
X186355110Y-67185000D01*
X186355162Y-67124833D01*
X186213117Y-66781057D01*
X185950327Y-66517808D01*
X185606799Y-66375162D01*
X185234833Y-66374838D01*
X184891057Y-66516883D01*
X184857882Y-66550000D01*
X184315633Y-66550000D01*
X184449838Y-66226799D01*
X184449892Y-66165000D01*
X185492537Y-66165000D01*
X185524673Y-66197192D01*
X185868201Y-66339838D01*
X186240167Y-66340162D01*
X186583943Y-66198117D01*
X186847192Y-65935327D01*
X186989838Y-65591799D01*
X186989892Y-65530000D01*
X188032537Y-65530000D01*
X188064673Y-65562192D01*
X188408201Y-65704838D01*
X188780167Y-65705162D01*
X189123943Y-65563117D01*
X189387192Y-65300327D01*
X189529838Y-64956799D01*
X189529892Y-64895000D01*
X190572537Y-64895000D01*
X190604673Y-64927192D01*
X190948201Y-65069838D01*
X191320167Y-65070162D01*
X191663943Y-64928117D01*
X191927192Y-64665327D01*
X192069838Y-64321799D01*
X192070162Y-63949833D01*
X191979467Y-63730335D01*
X192307401Y-63402401D01*
X192472148Y-63155839D01*
X192530000Y-62865000D01*
X192530000Y-60267995D01*
X192784698Y-60097811D01*
X193095767Y-59632264D01*
X193205000Y-59083113D01*
X193205000Y-59026887D01*
X193095767Y-58477736D01*
X192784698Y-58012189D01*
X192319151Y-57701120D01*
X191770000Y-57591887D01*
X191220849Y-57701120D01*
X190755302Y-58012189D01*
X190500000Y-58394275D01*
X190244698Y-58012189D01*
X189779151Y-57701120D01*
X189230000Y-57591887D01*
X188680849Y-57701120D01*
X188215302Y-58012189D01*
X187960000Y-58394275D01*
X187704698Y-58012189D01*
X187239151Y-57701120D01*
X186690000Y-57591887D01*
X186140849Y-57701120D01*
X185675302Y-58012189D01*
X185420000Y-58394275D01*
X185164698Y-58012189D01*
X184699151Y-57701120D01*
X184150000Y-57591887D01*
X183600849Y-57701120D01*
X183135302Y-58012189D01*
X182880000Y-58394275D01*
X182624698Y-58012189D01*
X182159151Y-57701120D01*
X181610000Y-57591887D01*
X181060849Y-57701120D01*
X180595302Y-58012189D01*
X180340000Y-58394275D01*
X180084698Y-58012189D01*
X179619151Y-57701120D01*
X179070000Y-57591887D01*
X178520849Y-57701120D01*
X178055302Y-58012189D01*
X177800000Y-58394275D01*
X177544698Y-58012189D01*
X177079151Y-57701120D01*
X176530000Y-57591887D01*
X175980849Y-57701120D01*
X175515302Y-58012189D01*
X175260000Y-58394275D01*
X175004698Y-58012189D01*
X174539151Y-57701120D01*
X173990000Y-57591887D01*
X173440849Y-57701120D01*
X172975302Y-58012189D01*
X172720000Y-58394275D01*
X172464698Y-58012189D01*
X171999151Y-57701120D01*
X171450000Y-57591887D01*
X170900849Y-57701120D01*
X170435302Y-58012189D01*
X170180000Y-58394275D01*
X169924698Y-58012189D01*
X169459151Y-57701120D01*
X168910000Y-57591887D01*
X168360849Y-57701120D01*
X167895302Y-58012189D01*
X167640000Y-58394275D01*
X167384698Y-58012189D01*
X166919151Y-57701120D01*
X166370000Y-57591887D01*
X165820849Y-57701120D01*
X165355302Y-58012189D01*
X165100000Y-58394275D01*
X164844698Y-58012189D01*
X164379151Y-57701120D01*
X163830000Y-57591887D01*
X163280849Y-57701120D01*
X162815302Y-58012189D01*
X162560000Y-58394275D01*
X162304698Y-58012189D01*
X161839151Y-57701120D01*
X161290000Y-57591887D01*
X160740849Y-57701120D01*
X160275302Y-58012189D01*
X160005014Y-58416703D01*
X159902389Y-58199866D01*
X159487423Y-57823959D01*
X159099039Y-57663096D01*
X158877000Y-57785085D01*
X158877000Y-58928000D01*
X158897000Y-58928000D01*
X158897000Y-59182000D01*
X158877000Y-59182000D01*
X158877000Y-59202000D01*
X158623000Y-59202000D01*
X158623000Y-59182000D01*
X158603000Y-59182000D01*
X158603000Y-58928000D01*
X158623000Y-58928000D01*
X158623000Y-57785085D01*
X158400961Y-57663096D01*
X158012577Y-57823959D01*
X157597611Y-58199866D01*
X157494986Y-58416703D01*
X157224698Y-58012189D01*
X156759151Y-57701120D01*
X156210000Y-57591887D01*
X155660849Y-57701120D01*
X155195302Y-58012189D01*
X154884233Y-58477736D01*
X154775000Y-59026887D01*
X154775000Y-59083113D01*
X154836026Y-59389909D01*
X154754833Y-59389838D01*
X154411057Y-59531883D01*
X154147808Y-59794673D01*
X154005162Y-60138201D01*
X154005108Y-60200000D01*
X153597463Y-60200000D01*
X153565327Y-60167808D01*
X153221799Y-60025162D01*
X152849833Y-60024838D01*
X152506057Y-60166883D01*
X152400046Y-60272710D01*
X152295327Y-60167808D01*
X151951799Y-60025162D01*
X151579833Y-60024838D01*
X151236057Y-60166883D01*
X151202882Y-60200000D01*
X142167463Y-60200000D01*
X142135327Y-60167808D01*
X141791799Y-60025162D01*
X141419833Y-60024838D01*
X141076057Y-60166883D01*
X140812808Y-60429673D01*
X140670162Y-60773201D01*
X140669838Y-61145167D01*
X140811883Y-61488943D01*
X141074673Y-61752192D01*
X141418201Y-61894838D01*
X141790167Y-61895162D01*
X142133943Y-61753117D01*
X142167118Y-61720000D01*
X143209890Y-61720000D01*
X143209838Y-61780167D01*
X143351883Y-62123943D01*
X143614673Y-62387192D01*
X143958201Y-62529838D01*
X144330167Y-62530162D01*
X144585430Y-62424690D01*
X144480162Y-62678201D01*
X144480108Y-62740000D01*
X143437463Y-62740000D01*
X143405327Y-62707808D01*
X143061799Y-62565162D01*
X142689833Y-62564838D01*
X142346057Y-62706883D01*
X142082808Y-62969673D01*
X141940162Y-63313201D01*
X141940108Y-63375000D01*
X140897463Y-63375000D01*
X140865327Y-63342808D01*
X140521799Y-63200162D01*
X140149833Y-63199838D01*
X139806057Y-63341883D01*
X139542808Y-63604673D01*
X139400162Y-63948201D01*
X139400108Y-64010000D01*
X138357463Y-64010000D01*
X138325327Y-63977808D01*
X137981799Y-63835162D01*
X137609833Y-63834838D01*
X137266057Y-63976883D01*
X137002808Y-64239673D01*
X136860162Y-64583201D01*
X136860108Y-64645000D01*
X135817463Y-64645000D01*
X135785327Y-64612808D01*
X135441799Y-64470162D01*
X135069833Y-64469838D01*
X134726057Y-64611883D01*
X134462808Y-64874673D01*
X134320162Y-65218201D01*
X134320108Y-65280000D01*
X125657463Y-65280000D01*
X125625327Y-65247808D01*
X125281799Y-65105162D01*
X124909833Y-65104838D01*
X124566057Y-65246883D01*
X124302808Y-65509673D01*
X124160162Y-65853201D01*
X124160108Y-65915000D01*
X123117463Y-65915000D01*
X123085327Y-65882808D01*
X122741799Y-65740162D01*
X122369833Y-65739838D01*
X122026057Y-65881883D01*
X121762808Y-66144673D01*
X121620162Y-66488201D01*
X121620108Y-66550000D01*
X120577463Y-66550000D01*
X120545327Y-66517808D01*
X120201799Y-66375162D01*
X119829833Y-66374838D01*
X119486057Y-66516883D01*
X119222808Y-66779673D01*
X119080162Y-67123201D01*
X119080108Y-67185000D01*
X118037463Y-67185000D01*
X118005327Y-67152808D01*
X117661799Y-67010162D01*
X117289833Y-67009838D01*
X116946057Y-67151883D01*
X116682808Y-67414673D01*
X116540162Y-67758201D01*
X116540108Y-67820000D01*
X115497463Y-67820000D01*
X115465327Y-67787808D01*
X115121799Y-67645162D01*
X114749833Y-67644838D01*
X114406057Y-67786883D01*
X114142808Y-68049673D01*
X114000162Y-68393201D01*
X114000108Y-68455000D01*
X112957463Y-68455000D01*
X112925327Y-68422808D01*
X112581799Y-68280162D01*
X112209833Y-68279838D01*
X111866057Y-68421883D01*
X111602808Y-68684673D01*
X111460162Y-69028201D01*
X111460108Y-69090000D01*
X110417463Y-69090000D01*
X110385327Y-69057808D01*
X110041799Y-68915162D01*
X109669833Y-68914838D01*
X109326057Y-69056883D01*
X109062808Y-69319673D01*
X108920162Y-69663201D01*
X108920108Y-69725000D01*
X107877463Y-69725000D01*
X107845327Y-69692808D01*
X107501799Y-69550162D01*
X107129833Y-69549838D01*
X106786057Y-69691883D01*
X106522808Y-69954673D01*
X106380162Y-70298201D01*
X106379838Y-70670167D01*
X101725000Y-70670167D01*
X101725000Y-57898215D01*
X102361847Y-58536174D01*
X103513674Y-59014454D01*
X104760854Y-59015543D01*
X105913515Y-58539273D01*
X106796174Y-57658153D01*
X107274454Y-56506326D01*
X107275543Y-55259146D01*
X106799273Y-54106485D01*
X105918153Y-53223826D01*
X104766326Y-52745546D01*
X103519146Y-52744457D01*
X102404834Y-53204881D01*
X102534838Y-52891799D01*
X102535162Y-52519833D01*
X102393117Y-52176057D01*
X102318125Y-52100934D01*
X102650054Y-51879147D01*
X102870000Y-51549974D01*
X103089946Y-51879147D01*
X103571715Y-52201054D01*
X104140000Y-52314093D01*
X104708285Y-52201054D01*
X105190054Y-51879147D01*
X105410000Y-51549974D01*
X105629946Y-51879147D01*
X106111715Y-52201054D01*
X106680000Y-52314093D01*
X107248285Y-52201054D01*
X107730054Y-51879147D01*
X107950000Y-51549974D01*
X108169946Y-51879147D01*
X108651715Y-52201054D01*
X109220000Y-52314093D01*
X109788285Y-52201054D01*
X110270054Y-51879147D01*
X110490000Y-51549974D01*
X110709946Y-51879147D01*
X111191715Y-52201054D01*
X111760000Y-52314093D01*
X112328285Y-52201054D01*
X112810054Y-51879147D01*
X113030000Y-51549974D01*
X113249946Y-51879147D01*
X113731715Y-52201054D01*
X114300000Y-52314093D01*
X114868285Y-52201054D01*
X115350054Y-51879147D01*
X115570000Y-51549974D01*
X115789946Y-51879147D01*
X116271715Y-52201054D01*
X116840000Y-52314093D01*
X117408285Y-52201054D01*
X117890054Y-51879147D01*
X118110000Y-51549974D01*
X118329946Y-51879147D01*
X118811715Y-52201054D01*
X119380000Y-52314093D01*
X119948285Y-52201054D01*
X120430054Y-51879147D01*
X120650000Y-51549974D01*
X120869946Y-51879147D01*
X121351715Y-52201054D01*
X121920000Y-52314093D01*
X122488285Y-52201054D01*
X122970054Y-51879147D01*
X123190000Y-51549974D01*
X123409946Y-51879147D01*
X123891715Y-52201054D01*
X124460000Y-52314093D01*
X125028285Y-52201054D01*
X125510054Y-51879147D01*
X125730000Y-51549974D01*
X125949946Y-51879147D01*
X126431715Y-52201054D01*
X127000000Y-52314093D01*
X127568285Y-52201054D01*
X128050054Y-51879147D01*
X128270000Y-51549974D01*
X128489946Y-51879147D01*
X128971715Y-52201054D01*
X129540000Y-52314093D01*
X130108285Y-52201054D01*
X130590054Y-51879147D01*
X130810000Y-51549974D01*
X131029946Y-51879147D01*
X131511715Y-52201054D01*
X132080000Y-52314093D01*
X132648285Y-52201054D01*
X133130054Y-51879147D01*
X133350000Y-51549974D01*
X133569946Y-51879147D01*
X134051715Y-52201054D01*
X134620000Y-52314093D01*
X135188285Y-52201054D01*
X135670054Y-51879147D01*
X135890000Y-51549974D01*
X136109946Y-51879147D01*
X136591715Y-52201054D01*
X137160000Y-52314093D01*
X137617721Y-52223046D01*
X137495162Y-52518201D01*
X137495108Y-52580000D01*
X136452463Y-52580000D01*
X136420327Y-52547808D01*
X136076799Y-52405162D01*
X135704833Y-52404838D01*
X135361057Y-52546883D01*
X135097808Y-52809673D01*
X134955162Y-53153201D01*
X134955108Y-53215000D01*
X133912463Y-53215000D01*
X133880327Y-53182808D01*
X133536799Y-53040162D01*
X133164833Y-53039838D01*
X132821057Y-53181883D01*
X132557808Y-53444673D01*
X132415162Y-53788201D01*
X132415108Y-53850000D01*
X131372463Y-53850000D01*
X131340327Y-53817808D01*
X130996799Y-53675162D01*
X130624833Y-53674838D01*
X130281057Y-53816883D01*
X130017808Y-54079673D01*
X129875162Y-54423201D01*
X129874838Y-54795167D01*
X130016883Y-55138943D01*
X130279673Y-55402192D01*
X130623201Y-55544838D01*
X130995167Y-55545162D01*
X131338943Y-55403117D01*
X131372118Y-55370000D01*
X159719890Y-55370000D01*
X159719838Y-55430167D01*
X159861883Y-55773943D01*
X160124673Y-56037192D01*
X160468201Y-56179838D01*
X160840167Y-56180162D01*
X161183943Y-56038117D01*
X161217118Y-56005000D01*
X188032537Y-56005000D01*
X188064673Y-56037192D01*
X188408201Y-56179838D01*
X188780167Y-56180162D01*
X189123943Y-56038117D01*
X189387192Y-55775327D01*
X189529838Y-55431799D01*
X189530162Y-55059833D01*
X189388117Y-54716057D01*
X189125327Y-54452808D01*
X188781799Y-54310162D01*
X188409833Y-54309838D01*
X188066057Y-54451883D01*
X188032882Y-54485000D01*
X169075633Y-54485000D01*
X169209838Y-54161799D01*
X169209892Y-54100000D01*
X170252537Y-54100000D01*
X170284673Y-54132192D01*
X170628201Y-54274838D01*
X171000167Y-54275162D01*
X171343943Y-54133117D01*
X171607192Y-53870327D01*
X171749838Y-53526799D01*
X171749892Y-53465000D01*
X172792537Y-53465000D01*
X172824673Y-53497192D01*
X173168201Y-53639838D01*
X173540167Y-53640162D01*
X173883943Y-53498117D01*
X174147192Y-53235327D01*
X174289838Y-52891799D01*
X174289892Y-52830000D01*
X185740198Y-52830000D01*
X185754878Y-52844680D01*
X185754838Y-52890167D01*
X185896883Y-53233943D01*
X186159673Y-53497192D01*
X186503201Y-53639838D01*
X186875167Y-53640162D01*
X187218943Y-53498117D01*
X187482192Y-53235327D01*
X187624838Y-52891799D01*
X187625162Y-52519833D01*
X187502555Y-52223102D01*
X187960000Y-52314093D01*
X188528285Y-52201054D01*
X189010054Y-51879147D01*
X189230000Y-51549974D01*
X189449946Y-51879147D01*
X189931715Y-52201054D01*
X190500000Y-52314093D01*
X191068285Y-52201054D01*
X191550054Y-51879147D01*
X191770000Y-51549974D01*
X191989946Y-51879147D01*
X192471715Y-52201054D01*
X193040000Y-52314093D01*
X193608285Y-52201054D01*
X194090054Y-51879147D01*
X194310000Y-51549974D01*
X194529946Y-51879147D01*
X194529946Y-51879147D01*
G37*
X194529946Y-51879147D02*
X195011715Y-52201054D01*
X195580000Y-52314093D01*
X196148285Y-52201054D01*
X196630054Y-51879147D01*
X196657850Y-51837548D01*
X196666838Y-51885317D01*
X196805910Y-52101441D01*
X197018110Y-52246431D01*
X197270000Y-52297440D01*
X197405241Y-52297440D01*
X197417852Y-52360839D01*
X197582599Y-52607401D01*
X197995000Y-53019802D01*
X197995000Y-53861785D01*
X197358153Y-53223826D01*
X196206326Y-52745546D01*
X194959146Y-52744457D01*
X193806485Y-53220727D01*
X192923826Y-54101847D01*
X192445546Y-55253674D01*
X192444457Y-56500854D01*
X192920727Y-57653515D01*
X193801847Y-58536174D01*
X194953674Y-59014454D01*
X196200854Y-59015543D01*
X197353515Y-58539273D01*
X197995000Y-57898906D01*
X197995000Y-69922537D01*
X197962808Y-69954673D01*
X197820162Y-70298201D01*
X197819838Y-70670167D01*
X197961883Y-71013943D01*
X197995000Y-71047118D01*
X197995000Y-138316785D01*
X197358153Y-137678826D01*
X196206326Y-137200546D01*
X194959146Y-137199457D01*
X193806485Y-137675727D01*
X192923826Y-138556847D01*
X192445546Y-139708674D01*
X192444457Y-140955854D01*
X192920727Y-142108515D01*
X193801847Y-142991174D01*
X194953674Y-143469454D01*
X196200854Y-143470543D01*
X197353515Y-142994273D01*
X197995000Y-142353906D01*
X197995000Y-143195198D01*
X197582599Y-143607599D01*
X197417852Y-143854161D01*
X197405241Y-143917560D01*
X197270000Y-143917560D01*
X197034683Y-143961838D01*
X196818559Y-144100910D01*
X196673569Y-144313110D01*
X196659914Y-144380541D01*
X196630054Y-144335853D01*
X196148285Y-144013946D01*
X195580000Y-143900907D01*
X195011715Y-144013946D01*
X194529946Y-144335853D01*
X194310000Y-144665026D01*
X194090054Y-144335853D01*
X193608285Y-144013946D01*
X193040000Y-143900907D01*
X192471715Y-144013946D01*
X191989946Y-144335853D01*
X191770000Y-144665026D01*
X191550054Y-144335853D01*
X191068285Y-144013946D01*
X190500000Y-143900907D01*
X189931715Y-144013946D01*
X189449946Y-144335853D01*
X189230000Y-144665026D01*
X189010054Y-144335853D01*
X188528285Y-144013946D01*
X187960000Y-143900907D01*
X187391715Y-144013946D01*
X186909946Y-144335853D01*
X186690000Y-144665026D01*
X186470054Y-144335853D01*
X185988285Y-144013946D01*
X185420000Y-143900907D01*
X184851715Y-144013946D01*
X184369946Y-144335853D01*
X184150000Y-144665026D01*
X183930054Y-144335853D01*
X183448285Y-144013946D01*
X182880000Y-143900907D01*
X182311715Y-144013946D01*
X181829946Y-144335853D01*
X181610000Y-144665026D01*
X181390054Y-144335853D01*
X180908285Y-144013946D01*
X180340000Y-143900907D01*
X179771715Y-144013946D01*
X179289946Y-144335853D01*
X179070000Y-144665026D01*
X178850054Y-144335853D01*
X178368285Y-144013946D01*
X177800000Y-143900907D01*
X177231715Y-144013946D01*
X176749946Y-144335853D01*
X176530000Y-144665026D01*
X176310054Y-144335853D01*
X175828285Y-144013946D01*
X175260000Y-143900907D01*
X174691715Y-144013946D01*
X174209946Y-144335853D01*
X173990000Y-144665026D01*
X173770054Y-144335853D01*
X173288285Y-144013946D01*
X172720000Y-143900907D01*
X172151715Y-144013946D01*
X171669946Y-144335853D01*
X171450000Y-144665026D01*
X171230054Y-144335853D01*
X170748285Y-144013946D01*
X170180000Y-143900907D01*
X169611715Y-144013946D01*
X169129946Y-144335853D01*
X168910000Y-144665026D01*
X168690054Y-144335853D01*
X168208285Y-144013946D01*
X167640000Y-143900907D01*
X167071715Y-144013946D01*
X166589946Y-144335853D01*
X166370000Y-144665026D01*
X166150054Y-144335853D01*
X165668285Y-144013946D01*
X165100000Y-143900907D01*
X164531715Y-144013946D01*
X164049946Y-144335853D01*
X163830000Y-144665026D01*
X163610054Y-144335853D01*
X163128285Y-144013946D01*
X162560000Y-143900907D01*
X161991715Y-144013946D01*
X161509946Y-144335853D01*
X161290000Y-144665026D01*
X161070054Y-144335853D01*
X160588285Y-144013946D01*
X160020000Y-143900907D01*
X159451715Y-144013946D01*
X158969946Y-144335853D01*
X158742298Y-144676553D01*
X158675183Y-144533642D01*
X158246924Y-144143355D01*
X157836890Y-143973524D01*
X157607000Y-144094845D01*
X157607000Y-145288000D01*
X157627000Y-145288000D01*
X157627000Y-145542000D01*
X157607000Y-145542000D01*
X157607000Y-145562000D01*
X157353000Y-145562000D01*
X157353000Y-145542000D01*
X157333000Y-145542000D01*
X157333000Y-145288000D01*
X157353000Y-145288000D01*
X157353000Y-144094845D01*
X157123110Y-143973524D01*
X156713076Y-144143355D01*
X156284817Y-144533642D01*
X156217702Y-144676553D01*
X155990054Y-144335853D01*
X155508285Y-144013946D01*
X154940000Y-143900907D01*
X154371715Y-144013946D01*
X153889946Y-144335853D01*
X153670000Y-144665026D01*
X153450054Y-144335853D01*
X152968285Y-144013946D01*
X152400000Y-143900907D01*
X151831715Y-144013946D01*
X151349946Y-144335853D01*
X151130000Y-144665026D01*
X150910054Y-144335853D01*
X150428285Y-144013946D01*
X149860000Y-143900907D01*
X149291715Y-144013946D01*
X148809946Y-144335853D01*
X148590000Y-144665026D01*
X148370054Y-144335853D01*
X147888285Y-144013946D01*
X147320000Y-143900907D01*
X146751715Y-144013946D01*
X146269946Y-144335853D01*
X146050000Y-144665026D01*
X145830054Y-144335853D01*
X145348285Y-144013946D01*
X144780000Y-143900907D01*
X144211715Y-144013946D01*
X143729946Y-144335853D01*
X143510000Y-144665026D01*
X143290054Y-144335853D01*
X142808285Y-144013946D01*
X142240000Y-143900907D01*
X141671715Y-144013946D01*
X141189946Y-144335853D01*
X140970000Y-144665026D01*
X140750054Y-144335853D01*
X140268285Y-144013946D01*
X139700000Y-143900907D01*
X139131715Y-144013946D01*
X138649946Y-144335853D01*
X138430000Y-144665026D01*
X138210054Y-144335853D01*
X137728285Y-144013946D01*
X137160000Y-143900907D01*
X136591715Y-144013946D01*
X136109946Y-144335853D01*
X135890000Y-144665026D01*
X135670054Y-144335853D01*
X135188285Y-144013946D01*
X134620000Y-143900907D01*
X134051715Y-144013946D01*
X133569946Y-144335853D01*
X133350000Y-144665026D01*
X133130054Y-144335853D01*
X132648285Y-144013946D01*
X132080000Y-143900907D01*
X131511715Y-144013946D01*
X131029946Y-144335853D01*
X130810000Y-144665026D01*
X130590054Y-144335853D01*
X130108285Y-144013946D01*
X129540000Y-143900907D01*
X128971715Y-144013946D01*
X128489946Y-144335853D01*
X128270000Y-144665026D01*
X128050054Y-144335853D01*
X127568285Y-144013946D01*
X127000000Y-143900907D01*
X126431715Y-144013946D01*
X125949946Y-144335853D01*
X125730000Y-144665026D01*
X125510054Y-144335853D01*
X125028285Y-144013946D01*
X124460000Y-143900907D01*
X123891715Y-144013946D01*
X123409946Y-144335853D01*
X123190000Y-144665026D01*
X122970054Y-144335853D01*
X122488285Y-144013946D01*
X121920000Y-143900907D01*
X121351715Y-144013946D01*
X120869946Y-144335853D01*
X120650000Y-144665026D01*
X120430054Y-144335853D01*
X119948285Y-144013946D01*
X119380000Y-143900907D01*
X118811715Y-144013946D01*
X118329946Y-144335853D01*
X118110000Y-144665026D01*
X117890054Y-144335853D01*
X117408285Y-144013946D01*
X116840000Y-143900907D01*
X116271715Y-144013946D01*
X115789946Y-144335853D01*
X115570000Y-144665026D01*
X115350054Y-144335853D01*
X114868285Y-144013946D01*
X114300000Y-143900907D01*
X113731715Y-144013946D01*
X113249946Y-144335853D01*
X113030000Y-144665026D01*
X112810054Y-144335853D01*
X112328285Y-144013946D01*
X111760000Y-143900907D01*
X111191715Y-144013946D01*
X110709946Y-144335853D01*
X110490000Y-144665026D01*
X110270054Y-144335853D01*
X109788285Y-144013946D01*
X109220000Y-143900907D01*
X108651715Y-144013946D01*
X108169946Y-144335853D01*
X107950000Y-144665026D01*
X107730054Y-144335853D01*
X107248285Y-144013946D01*
X106680000Y-143900907D01*
X106111715Y-144013946D01*
X105629946Y-144335853D01*
X105410000Y-144665026D01*
X105190054Y-144335853D01*
X104708285Y-144013946D01*
X104140000Y-143900907D01*
X103571715Y-144013946D01*
X103089946Y-144335853D01*
X102870000Y-144665026D01*
X102650054Y-144335853D01*
X102318245Y-144114146D01*
X102392192Y-144040327D01*
X102534838Y-143696799D01*
X102535162Y-143324833D01*
X102404639Y-143008943D01*
X103513674Y-143469454D01*
X104760854Y-143470543D01*
X105913515Y-142994273D01*
X106796174Y-142113153D01*
X107274454Y-140961326D01*
X107275543Y-139714146D01*
X106799273Y-138561485D01*
X105918153Y-137678826D01*
X104766326Y-137200546D01*
X103519146Y-137199457D01*
X102366485Y-137675727D01*
X101725000Y-138316094D01*
X101725000Y-134170167D01*
X157814838Y-134170167D01*
X157956883Y-134513943D01*
X158219673Y-134777192D01*
X158563201Y-134919838D01*
X158935167Y-134920162D01*
X159278943Y-134778117D01*
X159312118Y-134745000D01*
X194082560Y-134745000D01*
X194082560Y-134835000D01*
X194126838Y-135070317D01*
X194265910Y-135286441D01*
X194478110Y-135431431D01*
X194730000Y-135482440D01*
X196430000Y-135482440D01*
X196665317Y-135438162D01*
X196881441Y-135299090D01*
X197026431Y-135086890D01*
X197077440Y-134835000D01*
X197077440Y-133135000D01*
X197033162Y-132899683D01*
X196894090Y-132683559D01*
X196681890Y-132538569D01*
X196573893Y-132516699D01*
X196851645Y-132211924D01*
X197021476Y-131801890D01*
X196900155Y-131572000D01*
X195707000Y-131572000D01*
X195707000Y-131592000D01*
X195453000Y-131592000D01*
X195453000Y-131572000D01*
X194259845Y-131572000D01*
X194138524Y-131801890D01*
X194308355Y-132211924D01*
X194584501Y-132514937D01*
X194494683Y-132531838D01*
X194278559Y-132670910D01*
X194133569Y-132883110D01*
X194082560Y-133135000D01*
X194082560Y-133225000D01*
X159312463Y-133225000D01*
X159280327Y-133192808D01*
X158936799Y-133050162D01*
X158564833Y-133049838D01*
X158221057Y-133191883D01*
X157957808Y-133454673D01*
X157815162Y-133798201D01*
X157814838Y-134170167D01*
X101725000Y-134170167D01*
X101725000Y-131088110D01*
X194138524Y-131088110D01*
X194259845Y-131318000D01*
X195453000Y-131318000D01*
X195453000Y-130124181D01*
X195707000Y-130124181D01*
X195707000Y-131318000D01*
X196900155Y-131318000D01*
X197021476Y-131088110D01*
X196851645Y-130678076D01*
X196461358Y-130249817D01*
X195936892Y-130003514D01*
X195707000Y-130124181D01*
X195453000Y-130124181D01*
X195223108Y-130003514D01*
X194698642Y-130249817D01*
X194308355Y-130678076D01*
X194138524Y-131088110D01*
X101725000Y-131088110D01*
X101725000Y-88450167D01*
X157814838Y-88450167D01*
X157956883Y-88793943D01*
X158219673Y-89057192D01*
X158563201Y-89199838D01*
X158935167Y-89200162D01*
X159278943Y-89058117D01*
X159312118Y-89025000D01*
X194082560Y-89025000D01*
X194082560Y-89115000D01*
X194126838Y-89350317D01*
X194265910Y-89566441D01*
X194478110Y-89711431D01*
X194730000Y-89762440D01*
X196430000Y-89762440D01*
X196665317Y-89718162D01*
X196881441Y-89579090D01*
X197026431Y-89366890D01*
X197077440Y-89115000D01*
X197077440Y-87415000D01*
X197033162Y-87179683D01*
X196894090Y-86963559D01*
X196681890Y-86818569D01*
X196573893Y-86796699D01*
X196851645Y-86491924D01*
X197021476Y-86081890D01*
X196900155Y-85852000D01*
X195707000Y-85852000D01*
X195707000Y-85872000D01*
X195453000Y-85872000D01*
X195453000Y-85852000D01*
X194259845Y-85852000D01*
X194138524Y-86081890D01*
X194308355Y-86491924D01*
X194584501Y-86794937D01*
X194494683Y-86811838D01*
X194278559Y-86950910D01*
X194133569Y-87163110D01*
X194082560Y-87415000D01*
X194082560Y-87505000D01*
X159312463Y-87505000D01*
X159280327Y-87472808D01*
X158936799Y-87330162D01*
X158564833Y-87329838D01*
X158221057Y-87471883D01*
X157957808Y-87734673D01*
X157815162Y-88078201D01*
X157814838Y-88450167D01*
X101725000Y-88450167D01*
X101725000Y-85368110D01*
X194138524Y-85368110D01*
X194259845Y-85598000D01*
X195453000Y-85598000D01*
X195453000Y-84404181D01*
X195707000Y-84404181D01*
X195707000Y-85598000D01*
X196900155Y-85598000D01*
X197021476Y-85368110D01*
X196851645Y-84958076D01*
X196461358Y-84529817D01*
X195936892Y-84283514D01*
X195707000Y-84404181D01*
X195453000Y-84404181D01*
X195223108Y-84283514D01*
X194698642Y-84529817D01*
X194308355Y-84958076D01*
X194138524Y-85368110D01*
X101725000Y-85368110D01*
X101725000Y-79160000D01*
X102642560Y-79160000D01*
X102642560Y-80860000D01*
X102686838Y-81095317D01*
X102825910Y-81311441D01*
X103038110Y-81456431D01*
X103290000Y-81507440D01*
X104990000Y-81507440D01*
X105225317Y-81463162D01*
X105441441Y-81324090D01*
X105586431Y-81111890D01*
X105600086Y-81044459D01*
X105629946Y-81089147D01*
X106111715Y-81411054D01*
X106680000Y-81524093D01*
X107248285Y-81411054D01*
X107730054Y-81089147D01*
X107950000Y-80759974D01*
X108169946Y-81089147D01*
X108651715Y-81411054D01*
X109220000Y-81524093D01*
X109788285Y-81411054D01*
X110270054Y-81089147D01*
X110490000Y-80759974D01*
X110709946Y-81089147D01*
X111191715Y-81411054D01*
X111760000Y-81524093D01*
X112328285Y-81411054D01*
X112810054Y-81089147D01*
X113030000Y-80759974D01*
X113249946Y-81089147D01*
X113731715Y-81411054D01*
X114300000Y-81524093D01*
X114868285Y-81411054D01*
X115350054Y-81089147D01*
X115570000Y-80759974D01*
X115789946Y-81089147D01*
X116271715Y-81411054D01*
X116840000Y-81524093D01*
X117408285Y-81411054D01*
X117890054Y-81089147D01*
X118110000Y-80759974D01*
X118329946Y-81089147D01*
X118811715Y-81411054D01*
X119380000Y-81524093D01*
X119948285Y-81411054D01*
X120430054Y-81089147D01*
X120650000Y-80759974D01*
X120869946Y-81089147D01*
X121351715Y-81411054D01*
X121920000Y-81524093D01*
X122488285Y-81411054D01*
X122970054Y-81089147D01*
X123190000Y-80759974D01*
X123409946Y-81089147D01*
X123891715Y-81411054D01*
X124460000Y-81524093D01*
X125028285Y-81411054D01*
X125510054Y-81089147D01*
X125730000Y-80759974D01*
X125949946Y-81089147D01*
X126431715Y-81411054D01*
X127000000Y-81524093D01*
X127568285Y-81411054D01*
X128050054Y-81089147D01*
X128371961Y-80607378D01*
X128485000Y-80039093D01*
X128485000Y-79980907D01*
X128371961Y-79412622D01*
X128203165Y-79160000D01*
X130582560Y-79160000D01*
X130582560Y-80860000D01*
X130626838Y-81095317D01*
X130765910Y-81311441D01*
X130978110Y-81456431D01*
X131230000Y-81507440D01*
X132930000Y-81507440D01*
X133165317Y-81463162D01*
X133381441Y-81324090D01*
X133526431Y-81111890D01*
X133540086Y-81044459D01*
X133569946Y-81089147D01*
X134051715Y-81411054D01*
X134620000Y-81524093D01*
X135188285Y-81411054D01*
X135670054Y-81089147D01*
X135890000Y-80759974D01*
X136109946Y-81089147D01*
X136591715Y-81411054D01*
X137160000Y-81524093D01*
X137728285Y-81411054D01*
X138210054Y-81089147D01*
X138430000Y-80759974D01*
X138649946Y-81089147D01*
X139131715Y-81411054D01*
X139700000Y-81524093D01*
X140268285Y-81411054D01*
X140750054Y-81089147D01*
X140970000Y-80759974D01*
X141189946Y-81089147D01*
X141671715Y-81411054D01*
X142240000Y-81524093D01*
X142808285Y-81411054D01*
X143290054Y-81089147D01*
X143510000Y-80759974D01*
X143729946Y-81089147D01*
X144211715Y-81411054D01*
X144780000Y-81524093D01*
X145348285Y-81411054D01*
X145830054Y-81089147D01*
X146050000Y-80759974D01*
X146269946Y-81089147D01*
X146751715Y-81411054D01*
X147320000Y-81524093D01*
X147888285Y-81411054D01*
X148370054Y-81089147D01*
X148590000Y-80759974D01*
X148809946Y-81089147D01*
X149291715Y-81411054D01*
X149860000Y-81524093D01*
X150428285Y-81411054D01*
X150910054Y-81089147D01*
X151130000Y-80759974D01*
X151349946Y-81089147D01*
X151831715Y-81411054D01*
X152400000Y-81524093D01*
X152968285Y-81411054D01*
X153450054Y-81089147D01*
X153670000Y-80759974D01*
X153889946Y-81089147D01*
X154371715Y-81411054D01*
X154940000Y-81524093D01*
X155508285Y-81411054D01*
X155990054Y-81089147D01*
X156311961Y-80607378D01*
X156425000Y-80039093D01*
X156425000Y-79980907D01*
X156311961Y-79412622D01*
X155990054Y-78930853D01*
X155508285Y-78608946D01*
X154940000Y-78495907D01*
X154371715Y-78608946D01*
X153889946Y-78930853D01*
X153670000Y-79260026D01*
X153450054Y-78930853D01*
X152968285Y-78608946D01*
X152400000Y-78495907D01*
X151831715Y-78608946D01*
X151349946Y-78930853D01*
X151130000Y-79260026D01*
X150910054Y-78930853D01*
X150428285Y-78608946D01*
X149860000Y-78495907D01*
X149291715Y-78608946D01*
X148809946Y-78930853D01*
X148590000Y-79260026D01*
X148370054Y-78930853D01*
X147888285Y-78608946D01*
X147320000Y-78495907D01*
X146751715Y-78608946D01*
X146269946Y-78930853D01*
X146050000Y-79260026D01*
X145830054Y-78930853D01*
X145348285Y-78608946D01*
X144780000Y-78495907D01*
X144211715Y-78608946D01*
X143729946Y-78930853D01*
X143510000Y-79260026D01*
X143290054Y-78930853D01*
X142808285Y-78608946D01*
X142240000Y-78495907D01*
X141671715Y-78608946D01*
X141189946Y-78930853D01*
X140970000Y-79260026D01*
X140750054Y-78930853D01*
X140268285Y-78608946D01*
X139700000Y-78495907D01*
X139131715Y-78608946D01*
X138649946Y-78930853D01*
X138430000Y-79260026D01*
X138210054Y-78930853D01*
X137728285Y-78608946D01*
X137160000Y-78495907D01*
X136591715Y-78608946D01*
X136109946Y-78930853D01*
X135890000Y-79260026D01*
X135670054Y-78930853D01*
X135188285Y-78608946D01*
X134620000Y-78495907D01*
X134051715Y-78608946D01*
X133569946Y-78930853D01*
X133542150Y-78972452D01*
X133533162Y-78924683D01*
X133394090Y-78708559D01*
X133181890Y-78563569D01*
X132930000Y-78512560D01*
X131230000Y-78512560D01*
X130994683Y-78556838D01*
X130778559Y-78695910D01*
X130633569Y-78908110D01*
X130582560Y-79160000D01*
X128203165Y-79160000D01*
X128050054Y-78930853D01*
X127568285Y-78608946D01*
X127000000Y-78495907D01*
X126431715Y-78608946D01*
X125949946Y-78930853D01*
X125730000Y-79260026D01*
X125510054Y-78930853D01*
X125028285Y-78608946D01*
X124460000Y-78495907D01*
X123891715Y-78608946D01*
X123409946Y-78930853D01*
X123190000Y-79260026D01*
X122970054Y-78930853D01*
X122488285Y-78608946D01*
X121920000Y-78495907D01*
X121351715Y-78608946D01*
X120869946Y-78930853D01*
X120650000Y-79260026D01*
X120430054Y-78930853D01*
X119948285Y-78608946D01*
X119380000Y-78495907D01*
X118811715Y-78608946D01*
X118329946Y-78930853D01*
X118110000Y-79260026D01*
X117890054Y-78930853D01*
X117408285Y-78608946D01*
X116840000Y-78495907D01*
X116271715Y-78608946D01*
X115789946Y-78930853D01*
X115570000Y-79260026D01*
X115350054Y-78930853D01*
X114868285Y-78608946D01*
X114300000Y-78495907D01*
X113731715Y-78608946D01*
X113249946Y-78930853D01*
X113030000Y-79260026D01*
X112810054Y-78930853D01*
X112328285Y-78608946D01*
X111760000Y-78495907D01*
X111191715Y-78608946D01*
X110709946Y-78930853D01*
X110490000Y-79260026D01*
X110270054Y-78930853D01*
X109788285Y-78608946D01*
X109220000Y-78495907D01*
X108651715Y-78608946D01*
X108169946Y-78930853D01*
X107950000Y-79260026D01*
X107730054Y-78930853D01*
X107248285Y-78608946D01*
X106680000Y-78495907D01*
X106111715Y-78608946D01*
X105629946Y-78930853D01*
X105602150Y-78972452D01*
X105593162Y-78924683D01*
X105454090Y-78708559D01*
X105241890Y-78563569D01*
X104990000Y-78512560D01*
X103290000Y-78512560D01*
X103054683Y-78556838D01*
X102838559Y-78695910D01*
X102693569Y-78908110D01*
X102642560Y-79160000D01*
X101725000Y-79160000D01*
X101725000Y-73495000D01*
X154762560Y-73495000D01*
X154762560Y-75095000D01*
X154806838Y-75330317D01*
X154945910Y-75546441D01*
X155158110Y-75691431D01*
X155410000Y-75742440D01*
X157010000Y-75742440D01*
X157245317Y-75698162D01*
X157461441Y-75559090D01*
X157606431Y-75346890D01*
X157637815Y-75191911D01*
X157735302Y-75337811D01*
X158200849Y-75648880D01*
X158750000Y-75758113D01*
X159299151Y-75648880D01*
X159764698Y-75337811D01*
X160020000Y-74955725D01*
X160275302Y-75337811D01*
X160740849Y-75648880D01*
X161290000Y-75758113D01*
X161839151Y-75648880D01*
X162304698Y-75337811D01*
X162574986Y-74933297D01*
X162677611Y-75150134D01*
X163092577Y-75526041D01*
X163480961Y-75686904D01*
X163703000Y-75564915D01*
X163703000Y-74422000D01*
X163683000Y-74422000D01*
X163683000Y-74168000D01*
X163703000Y-74168000D01*
X163703000Y-73025085D01*
X163957000Y-73025085D01*
X163957000Y-74168000D01*
X163977000Y-74168000D01*
X163977000Y-74422000D01*
X163957000Y-74422000D01*
X163957000Y-75564915D01*
X164179039Y-75686904D01*
X164567423Y-75526041D01*
X164982389Y-75150134D01*
X165085014Y-74933297D01*
X165355302Y-75337811D01*
X165820849Y-75648880D01*
X166370000Y-75758113D01*
X166919151Y-75648880D01*
X167384698Y-75337811D01*
X167640000Y-74955725D01*
X167895302Y-75337811D01*
X168360849Y-75648880D01*
X168910000Y-75758113D01*
X169459151Y-75648880D01*
X169924698Y-75337811D01*
X170180000Y-74955725D01*
X170435302Y-75337811D01*
X170900849Y-75648880D01*
X171450000Y-75758113D01*
X171999151Y-75648880D01*
X172464698Y-75337811D01*
X172720000Y-74955725D01*
X172975302Y-75337811D01*
X173440849Y-75648880D01*
X173990000Y-75758113D01*
X174539151Y-75648880D01*
X175004698Y-75337811D01*
X175260000Y-74955725D01*
X175515302Y-75337811D01*
X175980849Y-75648880D01*
X176530000Y-75758113D01*
X177079151Y-75648880D01*
X177544698Y-75337811D01*
X177800000Y-74955725D01*
X178055302Y-75337811D01*
X178520849Y-75648880D01*
X179070000Y-75758113D01*
X179619151Y-75648880D01*
X180084698Y-75337811D01*
X180340000Y-74955725D01*
X180595302Y-75337811D01*
X181060849Y-75648880D01*
X181610000Y-75758113D01*
X182159151Y-75648880D01*
X182624698Y-75337811D01*
X182880000Y-74955725D01*
X183135302Y-75337811D01*
X183600849Y-75648880D01*
X184150000Y-75758113D01*
X184699151Y-75648880D01*
X185164698Y-75337811D01*
X185420000Y-74955725D01*
X185675302Y-75337811D01*
X186140849Y-75648880D01*
X186690000Y-75758113D01*
X187239151Y-75648880D01*
X187704698Y-75337811D01*
X187960000Y-74955725D01*
X188215302Y-75337811D01*
X188680849Y-75648880D01*
X189230000Y-75758113D01*
X189779151Y-75648880D01*
X190244698Y-75337811D01*
X190500000Y-74955725D01*
X190755302Y-75337811D01*
X191220849Y-75648880D01*
X191770000Y-75758113D01*
X192319151Y-75648880D01*
X192784698Y-75337811D01*
X193095767Y-74872264D01*
X193205000Y-74323113D01*
X193205000Y-74266887D01*
X193095767Y-73717736D01*
X192784698Y-73252189D01*
X192319151Y-72941120D01*
X191770000Y-72831887D01*
X191220849Y-72941120D01*
X190755302Y-73252189D01*
X190500000Y-73634275D01*
X190244698Y-73252189D01*
X189779151Y-72941120D01*
X189230000Y-72831887D01*
X188680849Y-72941120D01*
X188215302Y-73252189D01*
X187960000Y-73634275D01*
X187704698Y-73252189D01*
X187239151Y-72941120D01*
X186690000Y-72831887D01*
X186140849Y-72941120D01*
X185675302Y-73252189D01*
X185420000Y-73634275D01*
X185164698Y-73252189D01*
X184699151Y-72941120D01*
X184150000Y-72831887D01*
X183600849Y-72941120D01*
X183135302Y-73252189D01*
X182880000Y-73634275D01*
X182624698Y-73252189D01*
X182159151Y-72941120D01*
X181610000Y-72831887D01*
X181060849Y-72941120D01*
X180595302Y-73252189D01*
X180340000Y-73634275D01*
X180084698Y-73252189D01*
X179619151Y-72941120D01*
X179070000Y-72831887D01*
X178520849Y-72941120D01*
X178055302Y-73252189D01*
X177800000Y-73634275D01*
X177544698Y-73252189D01*
X177079151Y-72941120D01*
X176530000Y-72831887D01*
X175980849Y-72941120D01*
X175515302Y-73252189D01*
X175260000Y-73634275D01*
X175004698Y-73252189D01*
X174539151Y-72941120D01*
X173990000Y-72831887D01*
X173440849Y-72941120D01*
X172975302Y-73252189D01*
X172720000Y-73634275D01*
X172464698Y-73252189D01*
X171999151Y-72941120D01*
X171450000Y-72831887D01*
X170900849Y-72941120D01*
X170435302Y-73252189D01*
X170180000Y-73634275D01*
X169924698Y-73252189D01*
X169459151Y-72941120D01*
X168910000Y-72831887D01*
X168360849Y-72941120D01*
X167895302Y-73252189D01*
X167640000Y-73634275D01*
X167384698Y-73252189D01*
X166919151Y-72941120D01*
X166370000Y-72831887D01*
X165820849Y-72941120D01*
X165355302Y-73252189D01*
X165085014Y-73656703D01*
X164982389Y-73439866D01*
X164567423Y-73063959D01*
X164179039Y-72903096D01*
X163957000Y-73025085D01*
X163703000Y-73025085D01*
X163480961Y-72903096D01*
X163092577Y-73063959D01*
X162677611Y-73439866D01*
X162574986Y-73656703D01*
X162304698Y-73252189D01*
X161839151Y-72941120D01*
X161290000Y-72831887D01*
X160740849Y-72941120D01*
X160275302Y-73252189D01*
X160020000Y-73634275D01*
X159764698Y-73252189D01*
X159299151Y-72941120D01*
X158750000Y-72831887D01*
X158200849Y-72941120D01*
X157735302Y-73252189D01*
X157638899Y-73396465D01*
X157613162Y-73259683D01*
X157474090Y-73043559D01*
X157261890Y-72898569D01*
X157010000Y-72847560D01*
X155410000Y-72847560D01*
X155174683Y-72891838D01*
X154958559Y-73030910D01*
X154813569Y-73243110D01*
X154762560Y-73495000D01*
X101725000Y-73495000D01*
X101725000Y-70670167D01*
X106379838Y-70670167D01*
X106521883Y-71013943D01*
X106784673Y-71277192D01*
X107128201Y-71419838D01*
X107500167Y-71420162D01*
X107843943Y-71278117D01*
X107877118Y-71245000D01*
X110324367Y-71245000D01*
X110190162Y-71568201D01*
X110189838Y-71940167D01*
X110331883Y-72283943D01*
X110594673Y-72547192D01*
X110938201Y-72689838D01*
X111310167Y-72690162D01*
X111653943Y-72548117D01*
X111687118Y-72515000D01*
X155012537Y-72515000D01*
X155044673Y-72547192D01*
X155388201Y-72689838D01*
X155760167Y-72690162D01*
X156103943Y-72548117D01*
X156367192Y-72285327D01*
X156509838Y-71941799D01*
X156509892Y-71880000D01*
X157552537Y-71880000D01*
X157584673Y-71912192D01*
X157928201Y-72054838D01*
X158300167Y-72055162D01*
X158643943Y-71913117D01*
X158907192Y-71650327D01*
X159049838Y-71306799D01*
X159049892Y-71245000D01*
X165172537Y-71245000D01*
X165204673Y-71277192D01*
X165548201Y-71419838D01*
X165920167Y-71420162D01*
X166263943Y-71278117D01*
X166297118Y-71245000D01*
X195017537Y-71245000D01*
X195049673Y-71277192D01*
X195393201Y-71419838D01*
X195765167Y-71420162D01*
X196108943Y-71278117D01*
X196372192Y-71015327D01*
X196514838Y-70671799D01*
X196515162Y-70299833D01*
X196373117Y-69956057D01*
X196110327Y-69692808D01*
X195846446Y-69583235D01*
X195738117Y-69321057D01*
X195475327Y-69057808D01*
X195131799Y-68915162D01*
X194759833Y-68914838D01*
X194416057Y-69056883D01*
X194382882Y-69090000D01*
X193340110Y-69090000D01*
X193340162Y-69029833D01*
X193198117Y-68686057D01*
X192935327Y-68422808D01*
X192591799Y-68280162D01*
X192219833Y-68279838D01*
X191876057Y-68421883D01*
X191842882Y-68455000D01*
X191435110Y-68455000D01*
X191435162Y-68394833D01*
X191293117Y-68051057D01*
X191030327Y-67787808D01*
X190686799Y-67645162D01*
X190314833Y-67644838D01*
X189971057Y-67786883D01*
X189937882Y-67820000D01*
X188895110Y-67820000D01*
X188895162Y-67759833D01*
X188753117Y-67416057D01*
X188490327Y-67152808D01*
X188146799Y-67010162D01*
X187774833Y-67009838D01*
X187431057Y-67151883D01*
X187397882Y-67185000D01*
X186355110Y-67185000D01*
X186355162Y-67124833D01*
X186213117Y-66781057D01*
X185950327Y-66517808D01*
X185606799Y-66375162D01*
X185234833Y-66374838D01*
X184891057Y-66516883D01*
X184857882Y-66550000D01*
X184315633Y-66550000D01*
X184449838Y-66226799D01*
X184449892Y-66165000D01*
X185492537Y-66165000D01*
X185524673Y-66197192D01*
X185868201Y-66339838D01*
X186240167Y-66340162D01*
X186583943Y-66198117D01*
X186847192Y-65935327D01*
X186989838Y-65591799D01*
X186989892Y-65530000D01*
X188032537Y-65530000D01*
X188064673Y-65562192D01*
X188408201Y-65704838D01*
X188780167Y-65705162D01*
X189123943Y-65563117D01*
X189387192Y-65300327D01*
X189529838Y-64956799D01*
X189529892Y-64895000D01*
X190572537Y-64895000D01*
X190604673Y-64927192D01*
X190948201Y-65069838D01*
X191320167Y-65070162D01*
X191663943Y-64928117D01*
X191927192Y-64665327D01*
X192069838Y-64321799D01*
X192070162Y-63949833D01*
X191979467Y-63730335D01*
X192307401Y-63402401D01*
X192472148Y-63155839D01*
X192530000Y-62865000D01*
X192530000Y-60267995D01*
X192784698Y-60097811D01*
X193095767Y-59632264D01*
X193205000Y-59083113D01*
X193205000Y-59026887D01*
X193095767Y-58477736D01*
X192784698Y-58012189D01*
X192319151Y-57701120D01*
X191770000Y-57591887D01*
X191220849Y-57701120D01*
X190755302Y-58012189D01*
X190500000Y-58394275D01*
X190244698Y-58012189D01*
X189779151Y-57701120D01*
X189230000Y-57591887D01*
X188680849Y-57701120D01*
X188215302Y-58012189D01*
X187960000Y-58394275D01*
X187704698Y-58012189D01*
X187239151Y-57701120D01*
X186690000Y-57591887D01*
X186140849Y-57701120D01*
X185675302Y-58012189D01*
X185420000Y-58394275D01*
X185164698Y-58012189D01*
X184699151Y-57701120D01*
X184150000Y-57591887D01*
X183600849Y-57701120D01*
X183135302Y-58012189D01*
X182880000Y-58394275D01*
X182624698Y-58012189D01*
X182159151Y-57701120D01*
X181610000Y-57591887D01*
X181060849Y-57701120D01*
X180595302Y-58012189D01*
X180340000Y-58394275D01*
X180084698Y-58012189D01*
X179619151Y-57701120D01*
X179070000Y-57591887D01*
X178520849Y-57701120D01*
X178055302Y-58012189D01*
X177800000Y-58394275D01*
X177544698Y-58012189D01*
X177079151Y-57701120D01*
X176530000Y-57591887D01*
X175980849Y-57701120D01*
X175515302Y-58012189D01*
X175260000Y-58394275D01*
X175004698Y-58012189D01*
X174539151Y-57701120D01*
X173990000Y-57591887D01*
X173440849Y-57701120D01*
X172975302Y-58012189D01*
X172720000Y-58394275D01*
X172464698Y-58012189D01*
X171999151Y-57701120D01*
X171450000Y-57591887D01*
X170900849Y-57701120D01*
X170435302Y-58012189D01*
X170180000Y-58394275D01*
X169924698Y-58012189D01*
X169459151Y-57701120D01*
X168910000Y-57591887D01*
X168360849Y-57701120D01*
X167895302Y-58012189D01*
X167640000Y-58394275D01*
X167384698Y-58012189D01*
X166919151Y-57701120D01*
X166370000Y-57591887D01*
X165820849Y-57701120D01*
X165355302Y-58012189D01*
X165100000Y-58394275D01*
X164844698Y-58012189D01*
X164379151Y-57701120D01*
X163830000Y-57591887D01*
X163280849Y-57701120D01*
X162815302Y-58012189D01*
X162560000Y-58394275D01*
X162304698Y-58012189D01*
X161839151Y-57701120D01*
X161290000Y-57591887D01*
X160740849Y-57701120D01*
X160275302Y-58012189D01*
X160005014Y-58416703D01*
X159902389Y-58199866D01*
X159487423Y-57823959D01*
X159099039Y-57663096D01*
X158877000Y-57785085D01*
X158877000Y-58928000D01*
X158897000Y-58928000D01*
X158897000Y-59182000D01*
X158877000Y-59182000D01*
X158877000Y-59202000D01*
X158623000Y-59202000D01*
X158623000Y-59182000D01*
X158603000Y-59182000D01*
X158603000Y-58928000D01*
X158623000Y-58928000D01*
X158623000Y-57785085D01*
X158400961Y-57663096D01*
X158012577Y-57823959D01*
X157597611Y-58199866D01*
X157494986Y-58416703D01*
X157224698Y-58012189D01*
X156759151Y-57701120D01*
X156210000Y-57591887D01*
X155660849Y-57701120D01*
X155195302Y-58012189D01*
X154884233Y-58477736D01*
X154775000Y-59026887D01*
X154775000Y-59083113D01*
X154836026Y-59389909D01*
X154754833Y-59389838D01*
X154411057Y-59531883D01*
X154147808Y-59794673D01*
X154005162Y-60138201D01*
X154005108Y-60200000D01*
X153597463Y-60200000D01*
X153565327Y-60167808D01*
X153221799Y-60025162D01*
X152849833Y-60024838D01*
X152506057Y-60166883D01*
X152400046Y-60272710D01*
X152295327Y-60167808D01*
X151951799Y-60025162D01*
X151579833Y-60024838D01*
X151236057Y-60166883D01*
X151202882Y-60200000D01*
X142167463Y-60200000D01*
X142135327Y-60167808D01*
X141791799Y-60025162D01*
X141419833Y-60024838D01*
X141076057Y-60166883D01*
X140812808Y-60429673D01*
X140670162Y-60773201D01*
X140669838Y-61145167D01*
X140811883Y-61488943D01*
X141074673Y-61752192D01*
X141418201Y-61894838D01*
X141790167Y-61895162D01*
X142133943Y-61753117D01*
X142167118Y-61720000D01*
X143209890Y-61720000D01*
X143209838Y-61780167D01*
X143351883Y-62123943D01*
X143614673Y-62387192D01*
X143958201Y-62529838D01*
X144330167Y-62530162D01*
X144585430Y-62424690D01*
X144480162Y-62678201D01*
X144480108Y-62740000D01*
X143437463Y-62740000D01*
X143405327Y-62707808D01*
X143061799Y-62565162D01*
X142689833Y-62564838D01*
X142346057Y-62706883D01*
X142082808Y-62969673D01*
X141940162Y-63313201D01*
X141940108Y-63375000D01*
X140897463Y-63375000D01*
X140865327Y-63342808D01*
X140521799Y-63200162D01*
X140149833Y-63199838D01*
X139806057Y-63341883D01*
X139542808Y-63604673D01*
X139400162Y-63948201D01*
X139400108Y-64010000D01*
X138357463Y-64010000D01*
X138325327Y-63977808D01*
X137981799Y-63835162D01*
X137609833Y-63834838D01*
X137266057Y-63976883D01*
X137002808Y-64239673D01*
X136860162Y-64583201D01*
X136860108Y-64645000D01*
X135817463Y-64645000D01*
X135785327Y-64612808D01*
X135441799Y-64470162D01*
X135069833Y-64469838D01*
X134726057Y-64611883D01*
X134462808Y-64874673D01*
X134320162Y-65218201D01*
X134320108Y-65280000D01*
X125657463Y-65280000D01*
X125625327Y-65247808D01*
X125281799Y-65105162D01*
X124909833Y-65104838D01*
X124566057Y-65246883D01*
X124302808Y-65509673D01*
X124160162Y-65853201D01*
X124160108Y-65915000D01*
X123117463Y-65915000D01*
X123085327Y-65882808D01*
X122741799Y-65740162D01*
X122369833Y-65739838D01*
X122026057Y-65881883D01*
X121762808Y-66144673D01*
X121620162Y-66488201D01*
X121620108Y-66550000D01*
X120577463Y-66550000D01*
X120545327Y-66517808D01*
X120201799Y-66375162D01*
X119829833Y-66374838D01*
X119486057Y-66516883D01*
X119222808Y-66779673D01*
X119080162Y-67123201D01*
X119080108Y-67185000D01*
X118037463Y-67185000D01*
X118005327Y-67152808D01*
X117661799Y-67010162D01*
X117289833Y-67009838D01*
X116946057Y-67151883D01*
X116682808Y-67414673D01*
X116540162Y-67758201D01*
X116540108Y-67820000D01*
X115497463Y-67820000D01*
X115465327Y-67787808D01*
X115121799Y-67645162D01*
X114749833Y-67644838D01*
X114406057Y-67786883D01*
X114142808Y-68049673D01*
X114000162Y-68393201D01*
X114000108Y-68455000D01*
X112957463Y-68455000D01*
X112925327Y-68422808D01*
X112581799Y-68280162D01*
X112209833Y-68279838D01*
X111866057Y-68421883D01*
X111602808Y-68684673D01*
X111460162Y-69028201D01*
X111460108Y-69090000D01*
X110417463Y-69090000D01*
X110385327Y-69057808D01*
X110041799Y-68915162D01*
X109669833Y-68914838D01*
X109326057Y-69056883D01*
X109062808Y-69319673D01*
X108920162Y-69663201D01*
X108920108Y-69725000D01*
X107877463Y-69725000D01*
X107845327Y-69692808D01*
X107501799Y-69550162D01*
X107129833Y-69549838D01*
X106786057Y-69691883D01*
X106522808Y-69954673D01*
X106380162Y-70298201D01*
X106379838Y-70670167D01*
X101725000Y-70670167D01*
X101725000Y-57898215D01*
X102361847Y-58536174D01*
X103513674Y-59014454D01*
X104760854Y-59015543D01*
X105913515Y-58539273D01*
X106796174Y-57658153D01*
X107274454Y-56506326D01*
X107275543Y-55259146D01*
X106799273Y-54106485D01*
X105918153Y-53223826D01*
X104766326Y-52745546D01*
X103519146Y-52744457D01*
X102404834Y-53204881D01*
X102534838Y-52891799D01*
X102535162Y-52519833D01*
X102393117Y-52176057D01*
X102318125Y-52100934D01*
X102650054Y-51879147D01*
X102870000Y-51549974D01*
X103089946Y-51879147D01*
X103571715Y-52201054D01*
X104140000Y-52314093D01*
X104708285Y-52201054D01*
X105190054Y-51879147D01*
X105410000Y-51549974D01*
X105629946Y-51879147D01*
X106111715Y-52201054D01*
X106680000Y-52314093D01*
X107248285Y-52201054D01*
X107730054Y-51879147D01*
X107950000Y-51549974D01*
X108169946Y-51879147D01*
X108651715Y-52201054D01*
X109220000Y-52314093D01*
X109788285Y-52201054D01*
X110270054Y-51879147D01*
X110490000Y-51549974D01*
X110709946Y-51879147D01*
X111191715Y-52201054D01*
X111760000Y-52314093D01*
X112328285Y-52201054D01*
X112810054Y-51879147D01*
X113030000Y-51549974D01*
X113249946Y-51879147D01*
X113731715Y-52201054D01*
X114300000Y-52314093D01*
X114868285Y-52201054D01*
X115350054Y-51879147D01*
X115570000Y-51549974D01*
X115789946Y-51879147D01*
X116271715Y-52201054D01*
X116840000Y-52314093D01*
X117408285Y-52201054D01*
X117890054Y-51879147D01*
X118110000Y-51549974D01*
X118329946Y-51879147D01*
X118811715Y-52201054D01*
X119380000Y-52314093D01*
X119948285Y-52201054D01*
X120430054Y-51879147D01*
X120650000Y-51549974D01*
X120869946Y-51879147D01*
X121351715Y-52201054D01*
X121920000Y-52314093D01*
X122488285Y-52201054D01*
X122970054Y-51879147D01*
X123190000Y-51549974D01*
X123409946Y-51879147D01*
X123891715Y-52201054D01*
X124460000Y-52314093D01*
X125028285Y-52201054D01*
X125510054Y-51879147D01*
X125730000Y-51549974D01*
X125949946Y-51879147D01*
X126431715Y-52201054D01*
X127000000Y-52314093D01*
X127568285Y-52201054D01*
X128050054Y-51879147D01*
X128270000Y-51549974D01*
X128489946Y-51879147D01*
X128971715Y-52201054D01*
X129540000Y-52314093D01*
X130108285Y-52201054D01*
X130590054Y-51879147D01*
X130810000Y-51549974D01*
X131029946Y-51879147D01*
X131511715Y-52201054D01*
X132080000Y-52314093D01*
X132648285Y-52201054D01*
X133130054Y-51879147D01*
X133350000Y-51549974D01*
X133569946Y-51879147D01*
X134051715Y-52201054D01*
X134620000Y-52314093D01*
X135188285Y-52201054D01*
X135670054Y-51879147D01*
X135890000Y-51549974D01*
X136109946Y-51879147D01*
X136591715Y-52201054D01*
X137160000Y-52314093D01*
X137617721Y-52223046D01*
X137495162Y-52518201D01*
X137495108Y-52580000D01*
X136452463Y-52580000D01*
X136420327Y-52547808D01*
X136076799Y-52405162D01*
X135704833Y-52404838D01*
X135361057Y-52546883D01*
X135097808Y-52809673D01*
X134955162Y-53153201D01*
X134955108Y-53215000D01*
X133912463Y-53215000D01*
X133880327Y-53182808D01*
X133536799Y-53040162D01*
X133164833Y-53039838D01*
X132821057Y-53181883D01*
X132557808Y-53444673D01*
X132415162Y-53788201D01*
X132415108Y-53850000D01*
X131372463Y-53850000D01*
X131340327Y-53817808D01*
X130996799Y-53675162D01*
X130624833Y-53674838D01*
X130281057Y-53816883D01*
X130017808Y-54079673D01*
X129875162Y-54423201D01*
X129874838Y-54795167D01*
X130016883Y-55138943D01*
X130279673Y-55402192D01*
X130623201Y-55544838D01*
X130995167Y-55545162D01*
X131338943Y-55403117D01*
X131372118Y-55370000D01*
X159719890Y-55370000D01*
X159719838Y-55430167D01*
X159861883Y-55773943D01*
X160124673Y-56037192D01*
X160468201Y-56179838D01*
X160840167Y-56180162D01*
X161183943Y-56038117D01*
X161217118Y-56005000D01*
X188032537Y-56005000D01*
X188064673Y-56037192D01*
X188408201Y-56179838D01*
X188780167Y-56180162D01*
X189123943Y-56038117D01*
X189387192Y-55775327D01*
X189529838Y-55431799D01*
X189530162Y-55059833D01*
X189388117Y-54716057D01*
X189125327Y-54452808D01*
X188781799Y-54310162D01*
X188409833Y-54309838D01*
X188066057Y-54451883D01*
X188032882Y-54485000D01*
X169075633Y-54485000D01*
X169209838Y-54161799D01*
X169209892Y-54100000D01*
X170252537Y-54100000D01*
X170284673Y-54132192D01*
X170628201Y-54274838D01*
X171000167Y-54275162D01*
X171343943Y-54133117D01*
X171607192Y-53870327D01*
X171749838Y-53526799D01*
X171749892Y-53465000D01*
X172792537Y-53465000D01*
X172824673Y-53497192D01*
X173168201Y-53639838D01*
X173540167Y-53640162D01*
X173883943Y-53498117D01*
X174147192Y-53235327D01*
X174289838Y-52891799D01*
X174289892Y-52830000D01*
X185740198Y-52830000D01*
X185754878Y-52844680D01*
X185754838Y-52890167D01*
X185896883Y-53233943D01*
X186159673Y-53497192D01*
X186503201Y-53639838D01*
X186875167Y-53640162D01*
X187218943Y-53498117D01*
X187482192Y-53235327D01*
X187624838Y-52891799D01*
X187625162Y-52519833D01*
X187502555Y-52223102D01*
X187960000Y-52314093D01*
X188528285Y-52201054D01*
X189010054Y-51879147D01*
X189230000Y-51549974D01*
X189449946Y-51879147D01*
X189931715Y-52201054D01*
X190500000Y-52314093D01*
X191068285Y-52201054D01*
X191550054Y-51879147D01*
X191770000Y-51549974D01*
X191989946Y-51879147D01*
X192471715Y-52201054D01*
X193040000Y-52314093D01*
X193608285Y-52201054D01*
X194090054Y-51879147D01*
X194310000Y-51549974D01*
X194529946Y-51879147D01*
G36*
X198328979Y-49025478D02*
X198506145Y-49143856D01*
X198612187Y-49302560D01*
X197270000Y-49302560D01*
X197034683Y-49346838D01*
X196818559Y-49485910D01*
X196673569Y-49698110D01*
X196659914Y-49765541D01*
X196630054Y-49720853D01*
X196148285Y-49398946D01*
X195580000Y-49285907D01*
X195011715Y-49398946D01*
X194529946Y-49720853D01*
X194310000Y-50050026D01*
X194090054Y-49720853D01*
X193608285Y-49398946D01*
X193040000Y-49285907D01*
X192471715Y-49398946D01*
X191989946Y-49720853D01*
X191770000Y-50050026D01*
X191550054Y-49720853D01*
X191068285Y-49398946D01*
X190500000Y-49285907D01*
X189931715Y-49398946D01*
X189449946Y-49720853D01*
X189230000Y-50050026D01*
X189010054Y-49720853D01*
X188528285Y-49398946D01*
X187960000Y-49285907D01*
X187391715Y-49398946D01*
X186909946Y-49720853D01*
X186690000Y-50050026D01*
X186470054Y-49720853D01*
X185988285Y-49398946D01*
X185420000Y-49285907D01*
X184851715Y-49398946D01*
X184369946Y-49720853D01*
X184150000Y-50050026D01*
X183930054Y-49720853D01*
X183448285Y-49398946D01*
X182880000Y-49285907D01*
X182311715Y-49398946D01*
X181829946Y-49720853D01*
X181610000Y-50050026D01*
X181390054Y-49720853D01*
X180908285Y-49398946D01*
X180340000Y-49285907D01*
X179771715Y-49398946D01*
X179289946Y-49720853D01*
X179070000Y-50050026D01*
X178850054Y-49720853D01*
X178368285Y-49398946D01*
X177800000Y-49285907D01*
X177231715Y-49398946D01*
X176749946Y-49720853D01*
X176530000Y-50050026D01*
X176310054Y-49720853D01*
X175828285Y-49398946D01*
X175260000Y-49285907D01*
X174691715Y-49398946D01*
X174209946Y-49720853D01*
X173990000Y-50050026D01*
X173770054Y-49720853D01*
X173288285Y-49398946D01*
X172720000Y-49285907D01*
X172151715Y-49398946D01*
X171669946Y-49720853D01*
X171450000Y-50050026D01*
X171230054Y-49720853D01*
X170748285Y-49398946D01*
X170180000Y-49285907D01*
X169611715Y-49398946D01*
X169129946Y-49720853D01*
X168910000Y-50050026D01*
X168690054Y-49720853D01*
X168208285Y-49398946D01*
X167640000Y-49285907D01*
X167071715Y-49398946D01*
X166589946Y-49720853D01*
X166370000Y-50050026D01*
X166150054Y-49720853D01*
X165668285Y-49398946D01*
X165100000Y-49285907D01*
X164531715Y-49398946D01*
X164049946Y-49720853D01*
X163830000Y-50050026D01*
X163610054Y-49720853D01*
X163128285Y-49398946D01*
X162560000Y-49285907D01*
X161991715Y-49398946D01*
X161509946Y-49720853D01*
X161290000Y-50050026D01*
X161070054Y-49720853D01*
X160588285Y-49398946D01*
X160020000Y-49285907D01*
X159451715Y-49398946D01*
X158969946Y-49720853D01*
X158742298Y-50061553D01*
X158675183Y-49918642D01*
X158246924Y-49528355D01*
X157836890Y-49358524D01*
X157607000Y-49479845D01*
X157607000Y-50673000D01*
X157627000Y-50673000D01*
X157627000Y-50927000D01*
X157607000Y-50927000D01*
X157607000Y-50947000D01*
X157353000Y-50947000D01*
X157353000Y-50927000D01*
X157333000Y-50927000D01*
X157333000Y-50673000D01*
X157353000Y-50673000D01*
X157353000Y-49479845D01*
X157123110Y-49358524D01*
X156713076Y-49528355D01*
X156284817Y-49918642D01*
X156217702Y-50061553D01*
X155990054Y-49720853D01*
X155508285Y-49398946D01*
X154940000Y-49285907D01*
X154371715Y-49398946D01*
X153889946Y-49720853D01*
X153670000Y-50050026D01*
X153450054Y-49720853D01*
X152968285Y-49398946D01*
X152400000Y-49285907D01*
X151831715Y-49398946D01*
X151349946Y-49720853D01*
X151130000Y-50050026D01*
X150910054Y-49720853D01*
X150428285Y-49398946D01*
X149860000Y-49285907D01*
X149291715Y-49398946D01*
X148809946Y-49720853D01*
X148590000Y-50050026D01*
X148370054Y-49720853D01*
X147888285Y-49398946D01*
X147320000Y-49285907D01*
X146751715Y-49398946D01*
X146269946Y-49720853D01*
X146050000Y-50050026D01*
X145830054Y-49720853D01*
X145348285Y-49398946D01*
X144780000Y-49285907D01*
X144211715Y-49398946D01*
X143729946Y-49720853D01*
X143510000Y-50050026D01*
X143290054Y-49720853D01*
X142808285Y-49398946D01*
X142240000Y-49285907D01*
X141671715Y-49398946D01*
X141189946Y-49720853D01*
X140970000Y-50050026D01*
X140750054Y-49720853D01*
X140268285Y-49398946D01*
X139700000Y-49285907D01*
X139131715Y-49398946D01*
X138649946Y-49720853D01*
X138430000Y-50050026D01*
X138210054Y-49720853D01*
X137728285Y-49398946D01*
X137160000Y-49285907D01*
X136591715Y-49398946D01*
X136109946Y-49720853D01*
X135890000Y-50050026D01*
X135670054Y-49720853D01*
X135188285Y-49398946D01*
X134620000Y-49285907D01*
X134051715Y-49398946D01*
X133569946Y-49720853D01*
X133350000Y-50050026D01*
X133130054Y-49720853D01*
X132648285Y-49398946D01*
X132080000Y-49285907D01*
X131511715Y-49398946D01*
X131029946Y-49720853D01*
X130810000Y-50050026D01*
X130590054Y-49720853D01*
X130108285Y-49398946D01*
X129540000Y-49285907D01*
X128971715Y-49398946D01*
X128489946Y-49720853D01*
X128270000Y-50050026D01*
X128050054Y-49720853D01*
X127568285Y-49398946D01*
X127000000Y-49285907D01*
X126431715Y-49398946D01*
X125949946Y-49720853D01*
X125730000Y-50050026D01*
X125510054Y-49720853D01*
X125028285Y-49398946D01*
X124460000Y-49285907D01*
X123891715Y-49398946D01*
X123409946Y-49720853D01*
X123190000Y-50050026D01*
X122970054Y-49720853D01*
X122488285Y-49398946D01*
X121920000Y-49285907D01*
X121351715Y-49398946D01*
X120869946Y-49720853D01*
X120650000Y-50050026D01*
X120430054Y-49720853D01*
X119948285Y-49398946D01*
X119380000Y-49285907D01*
X118811715Y-49398946D01*
X118329946Y-49720853D01*
X118110000Y-50050026D01*
X117890054Y-49720853D01*
X117408285Y-49398946D01*
X116840000Y-49285907D01*
X116271715Y-49398946D01*
X115789946Y-49720853D01*
X115570000Y-50050026D01*
X115350054Y-49720853D01*
X114868285Y-49398946D01*
X114300000Y-49285907D01*
X113731715Y-49398946D01*
X113249946Y-49720853D01*
X113030000Y-50050026D01*
X112810054Y-49720853D01*
X112328285Y-49398946D01*
X111760000Y-49285907D01*
X111191715Y-49398946D01*
X110709946Y-49720853D01*
X110490000Y-50050026D01*
X110270054Y-49720853D01*
X109788285Y-49398946D01*
X109220000Y-49285907D01*
X108651715Y-49398946D01*
X108169946Y-49720853D01*
X107950000Y-50050026D01*
X107730054Y-49720853D01*
X107248285Y-49398946D01*
X106680000Y-49285907D01*
X106111715Y-49398946D01*
X105629946Y-49720853D01*
X105410000Y-50050026D01*
X105190054Y-49720853D01*
X104708285Y-49398946D01*
X104140000Y-49285907D01*
X103571715Y-49398946D01*
X103089946Y-49720853D01*
X102870000Y-50050026D01*
X102650054Y-49720853D01*
X102168285Y-49398946D01*
X101600000Y-49285907D01*
X101081966Y-49388950D01*
X101095478Y-49321021D01*
X101213856Y-49143855D01*
X101391019Y-49025479D01*
X101669931Y-48970000D01*
X198050070Y-48970000D01*
X198328979Y-49025478D01*
X198328979Y-49025478D01*
G37*
X198328979Y-49025478D02*
X198506145Y-49143856D01*
X198612187Y-49302560D01*
X197270000Y-49302560D01*
X197034683Y-49346838D01*
X196818559Y-49485910D01*
X196673569Y-49698110D01*
X196659914Y-49765541D01*
X196630054Y-49720853D01*
X196148285Y-49398946D01*
X195580000Y-49285907D01*
X195011715Y-49398946D01*
X194529946Y-49720853D01*
X194310000Y-50050026D01*
X194090054Y-49720853D01*
X193608285Y-49398946D01*
X193040000Y-49285907D01*
X192471715Y-49398946D01*
X191989946Y-49720853D01*
X191770000Y-50050026D01*
X191550054Y-49720853D01*
X191068285Y-49398946D01*
X190500000Y-49285907D01*
X189931715Y-49398946D01*
X189449946Y-49720853D01*
X189230000Y-50050026D01*
X189010054Y-49720853D01*
X188528285Y-49398946D01*
X187960000Y-49285907D01*
X187391715Y-49398946D01*
X186909946Y-49720853D01*
X186690000Y-50050026D01*
X186470054Y-49720853D01*
X185988285Y-49398946D01*
X185420000Y-49285907D01*
X184851715Y-49398946D01*
X184369946Y-49720853D01*
X184150000Y-50050026D01*
X183930054Y-49720853D01*
X183448285Y-49398946D01*
X182880000Y-49285907D01*
X182311715Y-49398946D01*
X181829946Y-49720853D01*
X181610000Y-50050026D01*
X181390054Y-49720853D01*
X180908285Y-49398946D01*
X180340000Y-49285907D01*
X179771715Y-49398946D01*
X179289946Y-49720853D01*
X179070000Y-50050026D01*
X178850054Y-49720853D01*
X178368285Y-49398946D01*
X177800000Y-49285907D01*
X177231715Y-49398946D01*
X176749946Y-49720853D01*
X176530000Y-50050026D01*
X176310054Y-49720853D01*
X175828285Y-49398946D01*
X175260000Y-49285907D01*
X174691715Y-49398946D01*
X174209946Y-49720853D01*
X173990000Y-50050026D01*
X173770054Y-49720853D01*
X173288285Y-49398946D01*
X172720000Y-49285907D01*
X172151715Y-49398946D01*
X171669946Y-49720853D01*
X171450000Y-50050026D01*
X171230054Y-49720853D01*
X170748285Y-49398946D01*
X170180000Y-49285907D01*
X169611715Y-49398946D01*
X169129946Y-49720853D01*
X168910000Y-50050026D01*
X168690054Y-49720853D01*
X168208285Y-49398946D01*
X167640000Y-49285907D01*
X167071715Y-49398946D01*
X166589946Y-49720853D01*
X166370000Y-50050026D01*
X166150054Y-49720853D01*
X165668285Y-49398946D01*
X165100000Y-49285907D01*
X164531715Y-49398946D01*
X164049946Y-49720853D01*
X163830000Y-50050026D01*
X163610054Y-49720853D01*
X163128285Y-49398946D01*
X162560000Y-49285907D01*
X161991715Y-49398946D01*
X161509946Y-49720853D01*
X161290000Y-50050026D01*
X161070054Y-49720853D01*
X160588285Y-49398946D01*
X160020000Y-49285907D01*
X159451715Y-49398946D01*
X158969946Y-49720853D01*
X158742298Y-50061553D01*
X158675183Y-49918642D01*
X158246924Y-49528355D01*
X157836890Y-49358524D01*
X157607000Y-49479845D01*
X157607000Y-50673000D01*
X157627000Y-50673000D01*
X157627000Y-50927000D01*
X157607000Y-50927000D01*
X157607000Y-50947000D01*
X157353000Y-50947000D01*
X157353000Y-50927000D01*
X157333000Y-50927000D01*
X157333000Y-50673000D01*
X157353000Y-50673000D01*
X157353000Y-49479845D01*
X157123110Y-49358524D01*
X156713076Y-49528355D01*
X156284817Y-49918642D01*
X156217702Y-50061553D01*
X155990054Y-49720853D01*
X155508285Y-49398946D01*
X154940000Y-49285907D01*
X154371715Y-49398946D01*
X153889946Y-49720853D01*
X153670000Y-50050026D01*
X153450054Y-49720853D01*
X152968285Y-49398946D01*
X152400000Y-49285907D01*
X151831715Y-49398946D01*
X151349946Y-49720853D01*
X151130000Y-50050026D01*
X150910054Y-49720853D01*
X150428285Y-49398946D01*
X149860000Y-49285907D01*
X149291715Y-49398946D01*
X148809946Y-49720853D01*
X148590000Y-50050026D01*
X148370054Y-49720853D01*
X147888285Y-49398946D01*
X147320000Y-49285907D01*
X146751715Y-49398946D01*
X146269946Y-49720853D01*
X146050000Y-50050026D01*
X145830054Y-49720853D01*
X145348285Y-49398946D01*
X144780000Y-49285907D01*
X144211715Y-49398946D01*
X143729946Y-49720853D01*
X143510000Y-50050026D01*
X143290054Y-49720853D01*
X142808285Y-49398946D01*
X142240000Y-49285907D01*
X141671715Y-49398946D01*
X141189946Y-49720853D01*
X140970000Y-50050026D01*
X140750054Y-49720853D01*
X140268285Y-49398946D01*
X139700000Y-49285907D01*
X139131715Y-49398946D01*
X138649946Y-49720853D01*
X138430000Y-50050026D01*
X138210054Y-49720853D01*
X137728285Y-49398946D01*
X137160000Y-49285907D01*
X136591715Y-49398946D01*
X136109946Y-49720853D01*
X135890000Y-50050026D01*
X135670054Y-49720853D01*
X135188285Y-49398946D01*
X134620000Y-49285907D01*
X134051715Y-49398946D01*
X133569946Y-49720853D01*
X133350000Y-50050026D01*
X133130054Y-49720853D01*
X132648285Y-49398946D01*
X132080000Y-49285907D01*
X131511715Y-49398946D01*
X131029946Y-49720853D01*
X130810000Y-50050026D01*
X130590054Y-49720853D01*
X130108285Y-49398946D01*
X129540000Y-49285907D01*
X128971715Y-49398946D01*
X128489946Y-49720853D01*
X128270000Y-50050026D01*
X128050054Y-49720853D01*
X127568285Y-49398946D01*
X127000000Y-49285907D01*
X126431715Y-49398946D01*
X125949946Y-49720853D01*
X125730000Y-50050026D01*
X125510054Y-49720853D01*
X125028285Y-49398946D01*
X124460000Y-49285907D01*
X123891715Y-49398946D01*
X123409946Y-49720853D01*
X123190000Y-50050026D01*
X122970054Y-49720853D01*
X122488285Y-49398946D01*
X121920000Y-49285907D01*
X121351715Y-49398946D01*
X120869946Y-49720853D01*
X120650000Y-50050026D01*
X120430054Y-49720853D01*
X119948285Y-49398946D01*
X119380000Y-49285907D01*
X118811715Y-49398946D01*
X118329946Y-49720853D01*
X118110000Y-50050026D01*
X117890054Y-49720853D01*
X117408285Y-49398946D01*
X116840000Y-49285907D01*
X116271715Y-49398946D01*
X115789946Y-49720853D01*
X115570000Y-50050026D01*
X115350054Y-49720853D01*
X114868285Y-49398946D01*
X114300000Y-49285907D01*
X113731715Y-49398946D01*
X113249946Y-49720853D01*
X113030000Y-50050026D01*
X112810054Y-49720853D01*
X112328285Y-49398946D01*
X111760000Y-49285907D01*
X111191715Y-49398946D01*
X110709946Y-49720853D01*
X110490000Y-50050026D01*
X110270054Y-49720853D01*
X109788285Y-49398946D01*
X109220000Y-49285907D01*
X108651715Y-49398946D01*
X108169946Y-49720853D01*
X107950000Y-50050026D01*
X107730054Y-49720853D01*
X107248285Y-49398946D01*
X106680000Y-49285907D01*
X106111715Y-49398946D01*
X105629946Y-49720853D01*
X105410000Y-50050026D01*
X105190054Y-49720853D01*
X104708285Y-49398946D01*
X104140000Y-49285907D01*
X103571715Y-49398946D01*
X103089946Y-49720853D01*
X102870000Y-50050026D01*
X102650054Y-49720853D01*
X102168285Y-49398946D01*
X101600000Y-49285907D01*
X101081966Y-49388950D01*
X101095478Y-49321021D01*
X101213856Y-49143855D01*
X101391019Y-49025479D01*
X101669931Y-48970000D01*
X198050070Y-48970000D01*
X198328979Y-49025478D01*
M02*
