G04 #@! TF.GenerationSoftware,KiCad,Pcbnew,(5.1.5)-3*
G04 #@! TF.CreationDate,2020-03-10T22:42:51+01:00*
G04 #@! TF.ProjectId,PP Arduino,50502041-7264-4756-996e-6f2e6b696361,rev?*
G04 #@! TF.SameCoordinates,Original*
G04 #@! TF.FileFunction,Legend,Top*
G04 #@! TF.FilePolarity,Positive*
%FSLAX46Y46*%
G04 Gerber Fmt 4.6, Leading zero omitted, Abs format (unit mm)*
G04 Created by KiCad (PCBNEW (5.1.5)-3) date 2020-03-10 22:42:51*
%MOMM*%
%LPD*%
G04 APERTURE LIST*
%ADD10C,0.150000*%
%ADD11C,0.200000*%
%ADD12C,0.100000*%
%ADD13C,0.300000*%
%ADD14C,0.120000*%
G04 APERTURE END LIST*
D10*
X150312380Y-77769404D02*
X149312380Y-77769404D01*
X149312380Y-77531309D01*
X149360000Y-77388452D01*
X149455238Y-77293214D01*
X149550476Y-77245595D01*
X149740952Y-77197976D01*
X149883809Y-77197976D01*
X150074285Y-77245595D01*
X150169523Y-77293214D01*
X150264761Y-77388452D01*
X150312380Y-77531309D01*
X150312380Y-77769404D01*
X150312380Y-76245595D02*
X150312380Y-76817023D01*
X150312380Y-76531309D02*
X149312380Y-76531309D01*
X149455238Y-76626547D01*
X149550476Y-76721785D01*
X149598095Y-76817023D01*
X149312380Y-75912261D02*
X149312380Y-75245595D01*
X150312380Y-75674166D01*
X147772380Y-77769404D02*
X146772380Y-77769404D01*
X146772380Y-77531309D01*
X146820000Y-77388452D01*
X146915238Y-77293214D01*
X147010476Y-77245595D01*
X147200952Y-77197976D01*
X147343809Y-77197976D01*
X147534285Y-77245595D01*
X147629523Y-77293214D01*
X147724761Y-77388452D01*
X147772380Y-77531309D01*
X147772380Y-77769404D01*
X147772380Y-76245595D02*
X147772380Y-76817023D01*
X147772380Y-76531309D02*
X146772380Y-76531309D01*
X146915238Y-76626547D01*
X147010476Y-76721785D01*
X147058095Y-76817023D01*
X146772380Y-75388452D02*
X146772380Y-75578928D01*
X146820000Y-75674166D01*
X146867619Y-75721785D01*
X147010476Y-75817023D01*
X147200952Y-75864642D01*
X147581904Y-75864642D01*
X147677142Y-75817023D01*
X147724761Y-75769404D01*
X147772380Y-75674166D01*
X147772380Y-75483690D01*
X147724761Y-75388452D01*
X147677142Y-75340833D01*
X147581904Y-75293214D01*
X147343809Y-75293214D01*
X147248571Y-75340833D01*
X147200952Y-75388452D01*
X147153333Y-75483690D01*
X147153333Y-75674166D01*
X147200952Y-75769404D01*
X147248571Y-75817023D01*
X147343809Y-75864642D01*
X145232380Y-77769404D02*
X144232380Y-77769404D01*
X144232380Y-77531309D01*
X144280000Y-77388452D01*
X144375238Y-77293214D01*
X144470476Y-77245595D01*
X144660952Y-77197976D01*
X144803809Y-77197976D01*
X144994285Y-77245595D01*
X145089523Y-77293214D01*
X145184761Y-77388452D01*
X145232380Y-77531309D01*
X145232380Y-77769404D01*
X145232380Y-76245595D02*
X145232380Y-76817023D01*
X145232380Y-76531309D02*
X144232380Y-76531309D01*
X144375238Y-76626547D01*
X144470476Y-76721785D01*
X144518095Y-76817023D01*
X144232380Y-75340833D02*
X144232380Y-75817023D01*
X144708571Y-75864642D01*
X144660952Y-75817023D01*
X144613333Y-75721785D01*
X144613333Y-75483690D01*
X144660952Y-75388452D01*
X144708571Y-75340833D01*
X144803809Y-75293214D01*
X145041904Y-75293214D01*
X145137142Y-75340833D01*
X145184761Y-75388452D01*
X145232380Y-75483690D01*
X145232380Y-75721785D01*
X145184761Y-75817023D01*
X145137142Y-75864642D01*
X142692380Y-77769404D02*
X141692380Y-77769404D01*
X141692380Y-77531309D01*
X141740000Y-77388452D01*
X141835238Y-77293214D01*
X141930476Y-77245595D01*
X142120952Y-77197976D01*
X142263809Y-77197976D01*
X142454285Y-77245595D01*
X142549523Y-77293214D01*
X142644761Y-77388452D01*
X142692380Y-77531309D01*
X142692380Y-77769404D01*
X142692380Y-76245595D02*
X142692380Y-76817023D01*
X142692380Y-76531309D02*
X141692380Y-76531309D01*
X141835238Y-76626547D01*
X141930476Y-76721785D01*
X141978095Y-76817023D01*
X142025714Y-75388452D02*
X142692380Y-75388452D01*
X141644761Y-75626547D02*
X142359047Y-75864642D01*
X142359047Y-75245595D01*
X140152380Y-77769404D02*
X139152380Y-77769404D01*
X139152380Y-77531309D01*
X139200000Y-77388452D01*
X139295238Y-77293214D01*
X139390476Y-77245595D01*
X139580952Y-77197976D01*
X139723809Y-77197976D01*
X139914285Y-77245595D01*
X140009523Y-77293214D01*
X140104761Y-77388452D01*
X140152380Y-77531309D01*
X140152380Y-77769404D01*
X140152380Y-76245595D02*
X140152380Y-76817023D01*
X140152380Y-76531309D02*
X139152380Y-76531309D01*
X139295238Y-76626547D01*
X139390476Y-76721785D01*
X139438095Y-76817023D01*
X139152380Y-75912261D02*
X139152380Y-75293214D01*
X139533333Y-75626547D01*
X139533333Y-75483690D01*
X139580952Y-75388452D01*
X139628571Y-75340833D01*
X139723809Y-75293214D01*
X139961904Y-75293214D01*
X140057142Y-75340833D01*
X140104761Y-75388452D01*
X140152380Y-75483690D01*
X140152380Y-75769404D01*
X140104761Y-75864642D01*
X140057142Y-75912261D01*
X137612380Y-77769404D02*
X136612380Y-77769404D01*
X136612380Y-77531309D01*
X136660000Y-77388452D01*
X136755238Y-77293214D01*
X136850476Y-77245595D01*
X137040952Y-77197976D01*
X137183809Y-77197976D01*
X137374285Y-77245595D01*
X137469523Y-77293214D01*
X137564761Y-77388452D01*
X137612380Y-77531309D01*
X137612380Y-77769404D01*
X137612380Y-76245595D02*
X137612380Y-76817023D01*
X137612380Y-76531309D02*
X136612380Y-76531309D01*
X136755238Y-76626547D01*
X136850476Y-76721785D01*
X136898095Y-76817023D01*
X136707619Y-75864642D02*
X136660000Y-75817023D01*
X136612380Y-75721785D01*
X136612380Y-75483690D01*
X136660000Y-75388452D01*
X136707619Y-75340833D01*
X136802857Y-75293214D01*
X136898095Y-75293214D01*
X137040952Y-75340833D01*
X137612380Y-75912261D01*
X137612380Y-75293214D01*
X135072380Y-77769404D02*
X134072380Y-77769404D01*
X134072380Y-77531309D01*
X134120000Y-77388452D01*
X134215238Y-77293214D01*
X134310476Y-77245595D01*
X134500952Y-77197976D01*
X134643809Y-77197976D01*
X134834285Y-77245595D01*
X134929523Y-77293214D01*
X135024761Y-77388452D01*
X135072380Y-77531309D01*
X135072380Y-77769404D01*
X135072380Y-76245595D02*
X135072380Y-76817023D01*
X135072380Y-76531309D02*
X134072380Y-76531309D01*
X134215238Y-76626547D01*
X134310476Y-76721785D01*
X134358095Y-76817023D01*
X135072380Y-75293214D02*
X135072380Y-75864642D01*
X135072380Y-75578928D02*
X134072380Y-75578928D01*
X134215238Y-75674166D01*
X134310476Y-75769404D01*
X134358095Y-75864642D01*
X132532380Y-77769404D02*
X131532380Y-77769404D01*
X131532380Y-77531309D01*
X131580000Y-77388452D01*
X131675238Y-77293214D01*
X131770476Y-77245595D01*
X131960952Y-77197976D01*
X132103809Y-77197976D01*
X132294285Y-77245595D01*
X132389523Y-77293214D01*
X132484761Y-77388452D01*
X132532380Y-77531309D01*
X132532380Y-77769404D01*
X132532380Y-76245595D02*
X132532380Y-76817023D01*
X132532380Y-76531309D02*
X131532380Y-76531309D01*
X131675238Y-76626547D01*
X131770476Y-76721785D01*
X131818095Y-76817023D01*
X131532380Y-75626547D02*
X131532380Y-75531309D01*
X131580000Y-75436071D01*
X131627619Y-75388452D01*
X131722857Y-75340833D01*
X131913333Y-75293214D01*
X132151428Y-75293214D01*
X132341904Y-75340833D01*
X132437142Y-75388452D01*
X132484761Y-75436071D01*
X132532380Y-75531309D01*
X132532380Y-75626547D01*
X132484761Y-75721785D01*
X132437142Y-75769404D01*
X132341904Y-75817023D01*
X132151428Y-75864642D01*
X131913333Y-75864642D01*
X131722857Y-75817023D01*
X131627619Y-75769404D01*
X131580000Y-75721785D01*
X131532380Y-75626547D01*
X122372380Y-77769404D02*
X121372380Y-77769404D01*
X121372380Y-77531309D01*
X121420000Y-77388452D01*
X121515238Y-77293214D01*
X121610476Y-77245595D01*
X121800952Y-77197976D01*
X121943809Y-77197976D01*
X122134285Y-77245595D01*
X122229523Y-77293214D01*
X122324761Y-77388452D01*
X122372380Y-77531309D01*
X122372380Y-77769404D01*
X122372380Y-76721785D02*
X122372380Y-76531309D01*
X122324761Y-76436071D01*
X122277142Y-76388452D01*
X122134285Y-76293214D01*
X121943809Y-76245595D01*
X121562857Y-76245595D01*
X121467619Y-76293214D01*
X121420000Y-76340833D01*
X121372380Y-76436071D01*
X121372380Y-76626547D01*
X121420000Y-76721785D01*
X121467619Y-76769404D01*
X121562857Y-76817023D01*
X121800952Y-76817023D01*
X121896190Y-76769404D01*
X121943809Y-76721785D01*
X121991428Y-76626547D01*
X121991428Y-76436071D01*
X121943809Y-76340833D01*
X121896190Y-76293214D01*
X121800952Y-76245595D01*
X119832380Y-77769404D02*
X118832380Y-77769404D01*
X118832380Y-77531309D01*
X118880000Y-77388452D01*
X118975238Y-77293214D01*
X119070476Y-77245595D01*
X119260952Y-77197976D01*
X119403809Y-77197976D01*
X119594285Y-77245595D01*
X119689523Y-77293214D01*
X119784761Y-77388452D01*
X119832380Y-77531309D01*
X119832380Y-77769404D01*
X119260952Y-76626547D02*
X119213333Y-76721785D01*
X119165714Y-76769404D01*
X119070476Y-76817023D01*
X119022857Y-76817023D01*
X118927619Y-76769404D01*
X118880000Y-76721785D01*
X118832380Y-76626547D01*
X118832380Y-76436071D01*
X118880000Y-76340833D01*
X118927619Y-76293214D01*
X119022857Y-76245595D01*
X119070476Y-76245595D01*
X119165714Y-76293214D01*
X119213333Y-76340833D01*
X119260952Y-76436071D01*
X119260952Y-76626547D01*
X119308571Y-76721785D01*
X119356190Y-76769404D01*
X119451428Y-76817023D01*
X119641904Y-76817023D01*
X119737142Y-76769404D01*
X119784761Y-76721785D01*
X119832380Y-76626547D01*
X119832380Y-76436071D01*
X119784761Y-76340833D01*
X119737142Y-76293214D01*
X119641904Y-76245595D01*
X119451428Y-76245595D01*
X119356190Y-76293214D01*
X119308571Y-76340833D01*
X119260952Y-76436071D01*
X117292380Y-77769404D02*
X116292380Y-77769404D01*
X116292380Y-77531309D01*
X116340000Y-77388452D01*
X116435238Y-77293214D01*
X116530476Y-77245595D01*
X116720952Y-77197976D01*
X116863809Y-77197976D01*
X117054285Y-77245595D01*
X117149523Y-77293214D01*
X117244761Y-77388452D01*
X117292380Y-77531309D01*
X117292380Y-77769404D01*
X116292380Y-76864642D02*
X116292380Y-76197976D01*
X117292380Y-76626547D01*
X114752380Y-77769404D02*
X113752380Y-77769404D01*
X113752380Y-77531309D01*
X113800000Y-77388452D01*
X113895238Y-77293214D01*
X113990476Y-77245595D01*
X114180952Y-77197976D01*
X114323809Y-77197976D01*
X114514285Y-77245595D01*
X114609523Y-77293214D01*
X114704761Y-77388452D01*
X114752380Y-77531309D01*
X114752380Y-77769404D01*
X113752380Y-76340833D02*
X113752380Y-76531309D01*
X113800000Y-76626547D01*
X113847619Y-76674166D01*
X113990476Y-76769404D01*
X114180952Y-76817023D01*
X114561904Y-76817023D01*
X114657142Y-76769404D01*
X114704761Y-76721785D01*
X114752380Y-76626547D01*
X114752380Y-76436071D01*
X114704761Y-76340833D01*
X114657142Y-76293214D01*
X114561904Y-76245595D01*
X114323809Y-76245595D01*
X114228571Y-76293214D01*
X114180952Y-76340833D01*
X114133333Y-76436071D01*
X114133333Y-76626547D01*
X114180952Y-76721785D01*
X114228571Y-76769404D01*
X114323809Y-76817023D01*
X112212380Y-77769404D02*
X111212380Y-77769404D01*
X111212380Y-77531309D01*
X111260000Y-77388452D01*
X111355238Y-77293214D01*
X111450476Y-77245595D01*
X111640952Y-77197976D01*
X111783809Y-77197976D01*
X111974285Y-77245595D01*
X112069523Y-77293214D01*
X112164761Y-77388452D01*
X112212380Y-77531309D01*
X112212380Y-77769404D01*
X111212380Y-76293214D02*
X111212380Y-76769404D01*
X111688571Y-76817023D01*
X111640952Y-76769404D01*
X111593333Y-76674166D01*
X111593333Y-76436071D01*
X111640952Y-76340833D01*
X111688571Y-76293214D01*
X111783809Y-76245595D01*
X112021904Y-76245595D01*
X112117142Y-76293214D01*
X112164761Y-76340833D01*
X112212380Y-76436071D01*
X112212380Y-76674166D01*
X112164761Y-76769404D01*
X112117142Y-76817023D01*
X109672380Y-77769404D02*
X108672380Y-77769404D01*
X108672380Y-77531309D01*
X108720000Y-77388452D01*
X108815238Y-77293214D01*
X108910476Y-77245595D01*
X109100952Y-77197976D01*
X109243809Y-77197976D01*
X109434285Y-77245595D01*
X109529523Y-77293214D01*
X109624761Y-77388452D01*
X109672380Y-77531309D01*
X109672380Y-77769404D01*
X109005714Y-76340833D02*
X109672380Y-76340833D01*
X108624761Y-76578928D02*
X109339047Y-76817023D01*
X109339047Y-76197976D01*
X107132380Y-77769404D02*
X106132380Y-77769404D01*
X106132380Y-77531309D01*
X106180000Y-77388452D01*
X106275238Y-77293214D01*
X106370476Y-77245595D01*
X106560952Y-77197976D01*
X106703809Y-77197976D01*
X106894285Y-77245595D01*
X106989523Y-77293214D01*
X107084761Y-77388452D01*
X107132380Y-77531309D01*
X107132380Y-77769404D01*
X106132380Y-76864642D02*
X106132380Y-76245595D01*
X106513333Y-76578928D01*
X106513333Y-76436071D01*
X106560952Y-76340833D01*
X106608571Y-76293214D01*
X106703809Y-76245595D01*
X106941904Y-76245595D01*
X107037142Y-76293214D01*
X107084761Y-76340833D01*
X107132380Y-76436071D01*
X107132380Y-76721785D01*
X107084761Y-76817023D01*
X107037142Y-76864642D01*
X104592380Y-77769404D02*
X103592380Y-77769404D01*
X103592380Y-77531309D01*
X103640000Y-77388452D01*
X103735238Y-77293214D01*
X103830476Y-77245595D01*
X104020952Y-77197976D01*
X104163809Y-77197976D01*
X104354285Y-77245595D01*
X104449523Y-77293214D01*
X104544761Y-77388452D01*
X104592380Y-77531309D01*
X104592380Y-77769404D01*
X103687619Y-76817023D02*
X103640000Y-76769404D01*
X103592380Y-76674166D01*
X103592380Y-76436071D01*
X103640000Y-76340833D01*
X103687619Y-76293214D01*
X103782857Y-76245595D01*
X103878095Y-76245595D01*
X104020952Y-76293214D01*
X104592380Y-76864642D01*
X104592380Y-76245595D01*
X159472380Y-143269642D02*
X159472380Y-142650595D01*
X159853333Y-142983928D01*
X159853333Y-142841071D01*
X159900952Y-142745833D01*
X159948571Y-142698214D01*
X160043809Y-142650595D01*
X160281904Y-142650595D01*
X160377142Y-142698214D01*
X160424761Y-142745833D01*
X160472380Y-142841071D01*
X160472380Y-143126785D01*
X160424761Y-143222023D01*
X160377142Y-143269642D01*
X160377142Y-142222023D02*
X160424761Y-142174404D01*
X160472380Y-142222023D01*
X160424761Y-142269642D01*
X160377142Y-142222023D01*
X160472380Y-142222023D01*
X159472380Y-141841071D02*
X159472380Y-141222023D01*
X159853333Y-141555357D01*
X159853333Y-141412500D01*
X159900952Y-141317261D01*
X159948571Y-141269642D01*
X160043809Y-141222023D01*
X160281904Y-141222023D01*
X160377142Y-141269642D01*
X160424761Y-141317261D01*
X160472380Y-141412500D01*
X160472380Y-141698214D01*
X160424761Y-141793452D01*
X160377142Y-141841071D01*
X159472380Y-140936309D02*
X160472380Y-140602976D01*
X159472380Y-140269642D01*
X193492380Y-143174404D02*
X192492380Y-143174404D01*
X192492380Y-142936309D01*
X192540000Y-142793452D01*
X192635238Y-142698214D01*
X192730476Y-142650595D01*
X192920952Y-142602976D01*
X193063809Y-142602976D01*
X193254285Y-142650595D01*
X193349523Y-142698214D01*
X193444761Y-142793452D01*
X193492380Y-142936309D01*
X193492380Y-143174404D01*
X192825714Y-141745833D02*
X193492380Y-141745833D01*
X192444761Y-141983928D02*
X193159047Y-142222023D01*
X193159047Y-141602976D01*
X190952380Y-143174404D02*
X189952380Y-143174404D01*
X189952380Y-142936309D01*
X190000000Y-142793452D01*
X190095238Y-142698214D01*
X190190476Y-142650595D01*
X190380952Y-142602976D01*
X190523809Y-142602976D01*
X190714285Y-142650595D01*
X190809523Y-142698214D01*
X190904761Y-142793452D01*
X190952380Y-142936309D01*
X190952380Y-143174404D01*
X189952380Y-141698214D02*
X189952380Y-142174404D01*
X190428571Y-142222023D01*
X190380952Y-142174404D01*
X190333333Y-142079166D01*
X190333333Y-141841071D01*
X190380952Y-141745833D01*
X190428571Y-141698214D01*
X190523809Y-141650595D01*
X190761904Y-141650595D01*
X190857142Y-141698214D01*
X190904761Y-141745833D01*
X190952380Y-141841071D01*
X190952380Y-142079166D01*
X190904761Y-142174404D01*
X190857142Y-142222023D01*
X188412380Y-143174404D02*
X187412380Y-143174404D01*
X187412380Y-142936309D01*
X187460000Y-142793452D01*
X187555238Y-142698214D01*
X187650476Y-142650595D01*
X187840952Y-142602976D01*
X187983809Y-142602976D01*
X188174285Y-142650595D01*
X188269523Y-142698214D01*
X188364761Y-142793452D01*
X188412380Y-142936309D01*
X188412380Y-143174404D01*
X187412380Y-141745833D02*
X187412380Y-141936309D01*
X187460000Y-142031547D01*
X187507619Y-142079166D01*
X187650476Y-142174404D01*
X187840952Y-142222023D01*
X188221904Y-142222023D01*
X188317142Y-142174404D01*
X188364761Y-142126785D01*
X188412380Y-142031547D01*
X188412380Y-141841071D01*
X188364761Y-141745833D01*
X188317142Y-141698214D01*
X188221904Y-141650595D01*
X187983809Y-141650595D01*
X187888571Y-141698214D01*
X187840952Y-141745833D01*
X187793333Y-141841071D01*
X187793333Y-142031547D01*
X187840952Y-142126785D01*
X187888571Y-142174404D01*
X187983809Y-142222023D01*
X185872380Y-143174404D02*
X184872380Y-143174404D01*
X184872380Y-142936309D01*
X184920000Y-142793452D01*
X185015238Y-142698214D01*
X185110476Y-142650595D01*
X185300952Y-142602976D01*
X185443809Y-142602976D01*
X185634285Y-142650595D01*
X185729523Y-142698214D01*
X185824761Y-142793452D01*
X185872380Y-142936309D01*
X185872380Y-143174404D01*
X184872380Y-142269642D02*
X184872380Y-141602976D01*
X185872380Y-142031547D01*
X183332380Y-143174404D02*
X182332380Y-143174404D01*
X182332380Y-142936309D01*
X182380000Y-142793452D01*
X182475238Y-142698214D01*
X182570476Y-142650595D01*
X182760952Y-142602976D01*
X182903809Y-142602976D01*
X183094285Y-142650595D01*
X183189523Y-142698214D01*
X183284761Y-142793452D01*
X183332380Y-142936309D01*
X183332380Y-143174404D01*
X182760952Y-142031547D02*
X182713333Y-142126785D01*
X182665714Y-142174404D01*
X182570476Y-142222023D01*
X182522857Y-142222023D01*
X182427619Y-142174404D01*
X182380000Y-142126785D01*
X182332380Y-142031547D01*
X182332380Y-141841071D01*
X182380000Y-141745833D01*
X182427619Y-141698214D01*
X182522857Y-141650595D01*
X182570476Y-141650595D01*
X182665714Y-141698214D01*
X182713333Y-141745833D01*
X182760952Y-141841071D01*
X182760952Y-142031547D01*
X182808571Y-142126785D01*
X182856190Y-142174404D01*
X182951428Y-142222023D01*
X183141904Y-142222023D01*
X183237142Y-142174404D01*
X183284761Y-142126785D01*
X183332380Y-142031547D01*
X183332380Y-141841071D01*
X183284761Y-141745833D01*
X183237142Y-141698214D01*
X183141904Y-141650595D01*
X182951428Y-141650595D01*
X182856190Y-141698214D01*
X182808571Y-141745833D01*
X182760952Y-141841071D01*
X180792380Y-143174404D02*
X179792380Y-143174404D01*
X179792380Y-142936309D01*
X179840000Y-142793452D01*
X179935238Y-142698214D01*
X180030476Y-142650595D01*
X180220952Y-142602976D01*
X180363809Y-142602976D01*
X180554285Y-142650595D01*
X180649523Y-142698214D01*
X180744761Y-142793452D01*
X180792380Y-142936309D01*
X180792380Y-143174404D01*
X180792380Y-142126785D02*
X180792380Y-141936309D01*
X180744761Y-141841071D01*
X180697142Y-141793452D01*
X180554285Y-141698214D01*
X180363809Y-141650595D01*
X179982857Y-141650595D01*
X179887619Y-141698214D01*
X179840000Y-141745833D01*
X179792380Y-141841071D01*
X179792380Y-142031547D01*
X179840000Y-142126785D01*
X179887619Y-142174404D01*
X179982857Y-142222023D01*
X180220952Y-142222023D01*
X180316190Y-142174404D01*
X180363809Y-142126785D01*
X180411428Y-142031547D01*
X180411428Y-141841071D01*
X180363809Y-141745833D01*
X180316190Y-141698214D01*
X180220952Y-141650595D01*
X178252380Y-143174404D02*
X177252380Y-143174404D01*
X177252380Y-142936309D01*
X177300000Y-142793452D01*
X177395238Y-142698214D01*
X177490476Y-142650595D01*
X177680952Y-142602976D01*
X177823809Y-142602976D01*
X178014285Y-142650595D01*
X178109523Y-142698214D01*
X178204761Y-142793452D01*
X178252380Y-142936309D01*
X178252380Y-143174404D01*
X178252380Y-141650595D02*
X178252380Y-142222023D01*
X178252380Y-141936309D02*
X177252380Y-141936309D01*
X177395238Y-142031547D01*
X177490476Y-142126785D01*
X177538095Y-142222023D01*
X177252380Y-141031547D02*
X177252380Y-140936309D01*
X177300000Y-140841071D01*
X177347619Y-140793452D01*
X177442857Y-140745833D01*
X177633333Y-140698214D01*
X177871428Y-140698214D01*
X178061904Y-140745833D01*
X178157142Y-140793452D01*
X178204761Y-140841071D01*
X178252380Y-140936309D01*
X178252380Y-141031547D01*
X178204761Y-141126785D01*
X178157142Y-141174404D01*
X178061904Y-141222023D01*
X177871428Y-141269642D01*
X177633333Y-141269642D01*
X177442857Y-141222023D01*
X177347619Y-141174404D01*
X177300000Y-141126785D01*
X177252380Y-141031547D01*
X175712380Y-143174404D02*
X174712380Y-143174404D01*
X174712380Y-142936309D01*
X174760000Y-142793452D01*
X174855238Y-142698214D01*
X174950476Y-142650595D01*
X175140952Y-142602976D01*
X175283809Y-142602976D01*
X175474285Y-142650595D01*
X175569523Y-142698214D01*
X175664761Y-142793452D01*
X175712380Y-142936309D01*
X175712380Y-143174404D01*
X175712380Y-141650595D02*
X175712380Y-142222023D01*
X175712380Y-141936309D02*
X174712380Y-141936309D01*
X174855238Y-142031547D01*
X174950476Y-142126785D01*
X174998095Y-142222023D01*
X175712380Y-140698214D02*
X175712380Y-141269642D01*
X175712380Y-140983928D02*
X174712380Y-140983928D01*
X174855238Y-141079166D01*
X174950476Y-141174404D01*
X174998095Y-141269642D01*
X173172380Y-143174404D02*
X172172380Y-143174404D01*
X172172380Y-142936309D01*
X172220000Y-142793452D01*
X172315238Y-142698214D01*
X172410476Y-142650595D01*
X172600952Y-142602976D01*
X172743809Y-142602976D01*
X172934285Y-142650595D01*
X173029523Y-142698214D01*
X173124761Y-142793452D01*
X173172380Y-142936309D01*
X173172380Y-143174404D01*
X173172380Y-141650595D02*
X173172380Y-142222023D01*
X173172380Y-141936309D02*
X172172380Y-141936309D01*
X172315238Y-142031547D01*
X172410476Y-142126785D01*
X172458095Y-142222023D01*
X172267619Y-141269642D02*
X172220000Y-141222023D01*
X172172380Y-141126785D01*
X172172380Y-140888690D01*
X172220000Y-140793452D01*
X172267619Y-140745833D01*
X172362857Y-140698214D01*
X172458095Y-140698214D01*
X172600952Y-140745833D01*
X173172380Y-141317261D01*
X173172380Y-140698214D01*
X170632380Y-143174404D02*
X169632380Y-143174404D01*
X169632380Y-142936309D01*
X169680000Y-142793452D01*
X169775238Y-142698214D01*
X169870476Y-142650595D01*
X170060952Y-142602976D01*
X170203809Y-142602976D01*
X170394285Y-142650595D01*
X170489523Y-142698214D01*
X170584761Y-142793452D01*
X170632380Y-142936309D01*
X170632380Y-143174404D01*
X170632380Y-141650595D02*
X170632380Y-142222023D01*
X170632380Y-141936309D02*
X169632380Y-141936309D01*
X169775238Y-142031547D01*
X169870476Y-142126785D01*
X169918095Y-142222023D01*
X169632380Y-141317261D02*
X169632380Y-140698214D01*
X170013333Y-141031547D01*
X170013333Y-140888690D01*
X170060952Y-140793452D01*
X170108571Y-140745833D01*
X170203809Y-140698214D01*
X170441904Y-140698214D01*
X170537142Y-140745833D01*
X170584761Y-140793452D01*
X170632380Y-140888690D01*
X170632380Y-141174404D01*
X170584761Y-141269642D01*
X170537142Y-141317261D01*
X154392380Y-142698214D02*
X154392380Y-143174404D01*
X154868571Y-143222023D01*
X154820952Y-143174404D01*
X154773333Y-143079166D01*
X154773333Y-142841071D01*
X154820952Y-142745833D01*
X154868571Y-142698214D01*
X154963809Y-142650595D01*
X155201904Y-142650595D01*
X155297142Y-142698214D01*
X155344761Y-142745833D01*
X155392380Y-142841071D01*
X155392380Y-143079166D01*
X155344761Y-143174404D01*
X155297142Y-143222023D01*
X154392380Y-142364880D02*
X155392380Y-142031547D01*
X154392380Y-141698214D01*
X150026666Y-143222023D02*
X150026666Y-142745833D01*
X150312380Y-143317261D02*
X149312380Y-142983928D01*
X150312380Y-142650595D01*
X150312380Y-141745833D02*
X149836190Y-142079166D01*
X150312380Y-142317261D02*
X149312380Y-142317261D01*
X149312380Y-141936309D01*
X149360000Y-141841071D01*
X149407619Y-141793452D01*
X149502857Y-141745833D01*
X149645714Y-141745833D01*
X149740952Y-141793452D01*
X149788571Y-141841071D01*
X149836190Y-141936309D01*
X149836190Y-142317261D01*
X149788571Y-141317261D02*
X149788571Y-140983928D01*
X150312380Y-140841071D02*
X150312380Y-141317261D01*
X149312380Y-141317261D01*
X149312380Y-140841071D01*
X149788571Y-140079166D02*
X149788571Y-140412500D01*
X150312380Y-140412500D02*
X149312380Y-140412500D01*
X149312380Y-139936309D01*
X147486666Y-143222023D02*
X147486666Y-142745833D01*
X147772380Y-143317261D02*
X146772380Y-142983928D01*
X147772380Y-142650595D01*
X146772380Y-142126785D02*
X146772380Y-142031547D01*
X146820000Y-141936309D01*
X146867619Y-141888690D01*
X146962857Y-141841071D01*
X147153333Y-141793452D01*
X147391428Y-141793452D01*
X147581904Y-141841071D01*
X147677142Y-141888690D01*
X147724761Y-141936309D01*
X147772380Y-142031547D01*
X147772380Y-142126785D01*
X147724761Y-142222023D01*
X147677142Y-142269642D01*
X147581904Y-142317261D01*
X147391428Y-142364880D01*
X147153333Y-142364880D01*
X146962857Y-142317261D01*
X146867619Y-142269642D01*
X146820000Y-142222023D01*
X146772380Y-142126785D01*
X144946666Y-143222023D02*
X144946666Y-142745833D01*
X145232380Y-143317261D02*
X144232380Y-142983928D01*
X145232380Y-142650595D01*
X145232380Y-141793452D02*
X145232380Y-142364880D01*
X145232380Y-142079166D02*
X144232380Y-142079166D01*
X144375238Y-142174404D01*
X144470476Y-142269642D01*
X144518095Y-142364880D01*
X142406666Y-143222023D02*
X142406666Y-142745833D01*
X142692380Y-143317261D02*
X141692380Y-142983928D01*
X142692380Y-142650595D01*
X141787619Y-142364880D02*
X141740000Y-142317261D01*
X141692380Y-142222023D01*
X141692380Y-141983928D01*
X141740000Y-141888690D01*
X141787619Y-141841071D01*
X141882857Y-141793452D01*
X141978095Y-141793452D01*
X142120952Y-141841071D01*
X142692380Y-142412500D01*
X142692380Y-141793452D01*
X139866666Y-143222023D02*
X139866666Y-142745833D01*
X140152380Y-143317261D02*
X139152380Y-142983928D01*
X140152380Y-142650595D01*
X139152380Y-142412500D02*
X139152380Y-141793452D01*
X139533333Y-142126785D01*
X139533333Y-141983928D01*
X139580952Y-141888690D01*
X139628571Y-141841071D01*
X139723809Y-141793452D01*
X139961904Y-141793452D01*
X140057142Y-141841071D01*
X140104761Y-141888690D01*
X140152380Y-141983928D01*
X140152380Y-142269642D01*
X140104761Y-142364880D01*
X140057142Y-142412500D01*
X137326666Y-143222023D02*
X137326666Y-142745833D01*
X137612380Y-143317261D02*
X136612380Y-142983928D01*
X137612380Y-142650595D01*
X136945714Y-141888690D02*
X137612380Y-141888690D01*
X136564761Y-142126785D02*
X137279047Y-142364880D01*
X137279047Y-141745833D01*
X134786666Y-143222023D02*
X134786666Y-142745833D01*
X135072380Y-143317261D02*
X134072380Y-142983928D01*
X135072380Y-142650595D01*
X134072380Y-141841071D02*
X134072380Y-142317261D01*
X134548571Y-142364880D01*
X134500952Y-142317261D01*
X134453333Y-142222023D01*
X134453333Y-141983928D01*
X134500952Y-141888690D01*
X134548571Y-141841071D01*
X134643809Y-141793452D01*
X134881904Y-141793452D01*
X134977142Y-141841071D01*
X135024761Y-141888690D01*
X135072380Y-141983928D01*
X135072380Y-142222023D01*
X135024761Y-142317261D01*
X134977142Y-142364880D01*
X132246666Y-143222023D02*
X132246666Y-142745833D01*
X132532380Y-143317261D02*
X131532380Y-142983928D01*
X132532380Y-142650595D01*
X131532380Y-141888690D02*
X131532380Y-142079166D01*
X131580000Y-142174404D01*
X131627619Y-142222023D01*
X131770476Y-142317261D01*
X131960952Y-142364880D01*
X132341904Y-142364880D01*
X132437142Y-142317261D01*
X132484761Y-142269642D01*
X132532380Y-142174404D01*
X132532380Y-141983928D01*
X132484761Y-141888690D01*
X132437142Y-141841071D01*
X132341904Y-141793452D01*
X132103809Y-141793452D01*
X132008571Y-141841071D01*
X131960952Y-141888690D01*
X131913333Y-141983928D01*
X131913333Y-142174404D01*
X131960952Y-142269642D01*
X132008571Y-142317261D01*
X132103809Y-142364880D01*
X129706666Y-143222023D02*
X129706666Y-142745833D01*
X129992380Y-143317261D02*
X128992380Y-142983928D01*
X129992380Y-142650595D01*
X128992380Y-142412500D02*
X128992380Y-141745833D01*
X129992380Y-142174404D01*
X111212380Y-143317261D02*
X111212380Y-142745833D01*
X112212380Y-143031547D02*
X111212380Y-143031547D01*
X111212380Y-142507738D02*
X112212380Y-141841071D01*
X111212380Y-141841071D02*
X112212380Y-142507738D01*
X109672380Y-142602976D02*
X109196190Y-142936309D01*
X109672380Y-143174404D02*
X108672380Y-143174404D01*
X108672380Y-142793452D01*
X108720000Y-142698214D01*
X108767619Y-142650595D01*
X108862857Y-142602976D01*
X109005714Y-142602976D01*
X109100952Y-142650595D01*
X109148571Y-142698214D01*
X109196190Y-142793452D01*
X109196190Y-143174404D01*
X108672380Y-142269642D02*
X109672380Y-141602976D01*
X108672380Y-141602976D02*
X109672380Y-142269642D01*
X105765000Y-143412500D02*
X105765000Y-142412500D01*
X107132380Y-142602976D02*
X106656190Y-142936309D01*
X107132380Y-143174404D02*
X106132380Y-143174404D01*
X106132380Y-142793452D01*
X106180000Y-142698214D01*
X106227619Y-142650595D01*
X106322857Y-142602976D01*
X106465714Y-142602976D01*
X106560952Y-142650595D01*
X106608571Y-142698214D01*
X106656190Y-142793452D01*
X106656190Y-143174404D01*
X105765000Y-142412500D02*
X105765000Y-141507738D01*
X106608571Y-142174404D02*
X106608571Y-141841071D01*
X107132380Y-141698214D02*
X107132380Y-142174404D01*
X106132380Y-142174404D01*
X106132380Y-141698214D01*
X105765000Y-141507738D02*
X105765000Y-140555357D01*
X107084761Y-141317261D02*
X107132380Y-141174404D01*
X107132380Y-140936309D01*
X107084761Y-140841071D01*
X107037142Y-140793452D01*
X106941904Y-140745833D01*
X106846666Y-140745833D01*
X106751428Y-140793452D01*
X106703809Y-140841071D01*
X106656190Y-140936309D01*
X106608571Y-141126785D01*
X106560952Y-141222023D01*
X106513333Y-141269642D01*
X106418095Y-141317261D01*
X106322857Y-141317261D01*
X106227619Y-141269642D01*
X106180000Y-141222023D01*
X106132380Y-141126785D01*
X106132380Y-140888690D01*
X106180000Y-140745833D01*
X105765000Y-140555357D02*
X105765000Y-139650595D01*
X106608571Y-140317261D02*
X106608571Y-139983928D01*
X107132380Y-139841071D02*
X107132380Y-140317261D01*
X106132380Y-140317261D01*
X106132380Y-139841071D01*
X105765000Y-139650595D02*
X105765000Y-138888690D01*
X106132380Y-139555357D02*
X106132380Y-138983928D01*
X107132380Y-139269642D02*
X106132380Y-139269642D01*
X192587619Y-53040595D02*
X193587619Y-53040595D01*
X193587619Y-53278690D01*
X193540000Y-53421547D01*
X193444761Y-53516785D01*
X193349523Y-53564404D01*
X193159047Y-53612023D01*
X193016190Y-53612023D01*
X192825714Y-53564404D01*
X192730476Y-53516785D01*
X192635238Y-53421547D01*
X192587619Y-53278690D01*
X192587619Y-53040595D01*
X193254285Y-54469166D02*
X192587619Y-54469166D01*
X193635238Y-54231071D02*
X192920952Y-53992976D01*
X192920952Y-54612023D01*
X190047619Y-53040595D02*
X191047619Y-53040595D01*
X191047619Y-53278690D01*
X191000000Y-53421547D01*
X190904761Y-53516785D01*
X190809523Y-53564404D01*
X190619047Y-53612023D01*
X190476190Y-53612023D01*
X190285714Y-53564404D01*
X190190476Y-53516785D01*
X190095238Y-53421547D01*
X190047619Y-53278690D01*
X190047619Y-53040595D01*
X191047619Y-54516785D02*
X191047619Y-54040595D01*
X190571428Y-53992976D01*
X190619047Y-54040595D01*
X190666666Y-54135833D01*
X190666666Y-54373928D01*
X190619047Y-54469166D01*
X190571428Y-54516785D01*
X190476190Y-54564404D01*
X190238095Y-54564404D01*
X190142857Y-54516785D01*
X190095238Y-54469166D01*
X190047619Y-54373928D01*
X190047619Y-54135833D01*
X190095238Y-54040595D01*
X190142857Y-53992976D01*
X187507619Y-53040595D02*
X188507619Y-53040595D01*
X188507619Y-53278690D01*
X188460000Y-53421547D01*
X188364761Y-53516785D01*
X188269523Y-53564404D01*
X188079047Y-53612023D01*
X187936190Y-53612023D01*
X187745714Y-53564404D01*
X187650476Y-53516785D01*
X187555238Y-53421547D01*
X187507619Y-53278690D01*
X187507619Y-53040595D01*
X188507619Y-54469166D02*
X188507619Y-54278690D01*
X188460000Y-54183452D01*
X188412380Y-54135833D01*
X188269523Y-54040595D01*
X188079047Y-53992976D01*
X187698095Y-53992976D01*
X187602857Y-54040595D01*
X187555238Y-54088214D01*
X187507619Y-54183452D01*
X187507619Y-54373928D01*
X187555238Y-54469166D01*
X187602857Y-54516785D01*
X187698095Y-54564404D01*
X187936190Y-54564404D01*
X188031428Y-54516785D01*
X188079047Y-54469166D01*
X188126666Y-54373928D01*
X188126666Y-54183452D01*
X188079047Y-54088214D01*
X188031428Y-54040595D01*
X187936190Y-53992976D01*
X184967619Y-53040595D02*
X185967619Y-53040595D01*
X185967619Y-53278690D01*
X185920000Y-53421547D01*
X185824761Y-53516785D01*
X185729523Y-53564404D01*
X185539047Y-53612023D01*
X185396190Y-53612023D01*
X185205714Y-53564404D01*
X185110476Y-53516785D01*
X185015238Y-53421547D01*
X184967619Y-53278690D01*
X184967619Y-53040595D01*
X185967619Y-53945357D02*
X185967619Y-54612023D01*
X184967619Y-54183452D01*
X149693333Y-52992976D02*
X149693333Y-53469166D01*
X149407619Y-52897738D02*
X150407619Y-53231071D01*
X149407619Y-53564404D01*
X149407619Y-54469166D02*
X149883809Y-54135833D01*
X149407619Y-53897738D02*
X150407619Y-53897738D01*
X150407619Y-54278690D01*
X150360000Y-54373928D01*
X150312380Y-54421547D01*
X150217142Y-54469166D01*
X150074285Y-54469166D01*
X149979047Y-54421547D01*
X149931428Y-54373928D01*
X149883809Y-54278690D01*
X149883809Y-53897738D01*
X149931428Y-54897738D02*
X149931428Y-55231071D01*
X149407619Y-55373928D02*
X149407619Y-54897738D01*
X150407619Y-54897738D01*
X150407619Y-55373928D01*
X149931428Y-56135833D02*
X149931428Y-55802500D01*
X149407619Y-55802500D02*
X150407619Y-55802500D01*
X150407619Y-56278690D01*
X147153333Y-52992976D02*
X147153333Y-53469166D01*
X146867619Y-52897738D02*
X147867619Y-53231071D01*
X146867619Y-53564404D01*
X147867619Y-54088214D02*
X147867619Y-54183452D01*
X147820000Y-54278690D01*
X147772380Y-54326309D01*
X147677142Y-54373928D01*
X147486666Y-54421547D01*
X147248571Y-54421547D01*
X147058095Y-54373928D01*
X146962857Y-54326309D01*
X146915238Y-54278690D01*
X146867619Y-54183452D01*
X146867619Y-54088214D01*
X146915238Y-53992976D01*
X146962857Y-53945357D01*
X147058095Y-53897738D01*
X147248571Y-53850119D01*
X147486666Y-53850119D01*
X147677142Y-53897738D01*
X147772380Y-53945357D01*
X147820000Y-53992976D01*
X147867619Y-54088214D01*
X144613333Y-52992976D02*
X144613333Y-53469166D01*
X144327619Y-52897738D02*
X145327619Y-53231071D01*
X144327619Y-53564404D01*
X144327619Y-54421547D02*
X144327619Y-53850119D01*
X144327619Y-54135833D02*
X145327619Y-54135833D01*
X145184761Y-54040595D01*
X145089523Y-53945357D01*
X145041904Y-53850119D01*
X142073333Y-52992976D02*
X142073333Y-53469166D01*
X141787619Y-52897738D02*
X142787619Y-53231071D01*
X141787619Y-53564404D01*
X142692380Y-53850119D02*
X142740000Y-53897738D01*
X142787619Y-53992976D01*
X142787619Y-54231071D01*
X142740000Y-54326309D01*
X142692380Y-54373928D01*
X142597142Y-54421547D01*
X142501904Y-54421547D01*
X142359047Y-54373928D01*
X141787619Y-53802500D01*
X141787619Y-54421547D01*
X112307619Y-52897738D02*
X112307619Y-53469166D01*
X111307619Y-53183452D02*
X112307619Y-53183452D01*
X112307619Y-53707261D02*
X111307619Y-54373928D01*
X112307619Y-54373928D02*
X111307619Y-53707261D01*
X108767619Y-53612023D02*
X109243809Y-53278690D01*
X108767619Y-53040595D02*
X109767619Y-53040595D01*
X109767619Y-53421547D01*
X109720000Y-53516785D01*
X109672380Y-53564404D01*
X109577142Y-53612023D01*
X109434285Y-53612023D01*
X109339047Y-53564404D01*
X109291428Y-53516785D01*
X109243809Y-53421547D01*
X109243809Y-53040595D01*
X109767619Y-53945357D02*
X108767619Y-54612023D01*
X109767619Y-54612023D02*
X108767619Y-53945357D01*
D11*
X197485000Y-62230000D02*
X197485000Y-80010000D01*
X198120000Y-80010000D02*
X198120000Y-62230000D01*
X198120000Y-62230000D02*
X198120000Y-52070000D01*
X197485000Y-57785000D02*
X197485000Y-62230000D01*
D12*
X194970476Y-128505000D02*
X194894285Y-128466904D01*
X194780000Y-128466904D01*
X194665714Y-128505000D01*
X194589523Y-128581190D01*
X194551428Y-128657380D01*
X194513333Y-128809761D01*
X194513333Y-128924047D01*
X194551428Y-129076428D01*
X194589523Y-129152619D01*
X194665714Y-129228809D01*
X194780000Y-129266904D01*
X194856190Y-129266904D01*
X194970476Y-129228809D01*
X195008571Y-129190714D01*
X195008571Y-128924047D01*
X194856190Y-128924047D01*
X195351428Y-129266904D02*
X195351428Y-128466904D01*
X195808571Y-129266904D01*
X195808571Y-128466904D01*
X196189523Y-129266904D02*
X196189523Y-128466904D01*
X196380000Y-128466904D01*
X196494285Y-128505000D01*
X196570476Y-128581190D01*
X196608571Y-128657380D01*
X196646666Y-128809761D01*
X196646666Y-128924047D01*
X196608571Y-129076428D01*
X196570476Y-129152619D01*
X196494285Y-129228809D01*
X196380000Y-129266904D01*
X196189523Y-129266904D01*
X195427619Y-136086904D02*
X195046666Y-136086904D01*
X195008571Y-136467857D01*
X195046666Y-136429761D01*
X195122857Y-136391666D01*
X195313333Y-136391666D01*
X195389523Y-136429761D01*
X195427619Y-136467857D01*
X195465714Y-136544047D01*
X195465714Y-136734523D01*
X195427619Y-136810714D01*
X195389523Y-136848809D01*
X195313333Y-136886904D01*
X195122857Y-136886904D01*
X195046666Y-136848809D01*
X195008571Y-136810714D01*
X195694285Y-136086904D02*
X195960952Y-136886904D01*
X196227619Y-136086904D01*
X194970476Y-82785000D02*
X194894285Y-82746904D01*
X194780000Y-82746904D01*
X194665714Y-82785000D01*
X194589523Y-82861190D01*
X194551428Y-82937380D01*
X194513333Y-83089761D01*
X194513333Y-83204047D01*
X194551428Y-83356428D01*
X194589523Y-83432619D01*
X194665714Y-83508809D01*
X194780000Y-83546904D01*
X194856190Y-83546904D01*
X194970476Y-83508809D01*
X195008571Y-83470714D01*
X195008571Y-83204047D01*
X194856190Y-83204047D01*
X195351428Y-83546904D02*
X195351428Y-82746904D01*
X195808571Y-83546904D01*
X195808571Y-82746904D01*
X196189523Y-83546904D02*
X196189523Y-82746904D01*
X196380000Y-82746904D01*
X196494285Y-82785000D01*
X196570476Y-82861190D01*
X196608571Y-82937380D01*
X196646666Y-83089761D01*
X196646666Y-83204047D01*
X196608571Y-83356428D01*
X196570476Y-83432619D01*
X196494285Y-83508809D01*
X196380000Y-83546904D01*
X196189523Y-83546904D01*
X195427619Y-90366904D02*
X195046666Y-90366904D01*
X195008571Y-90747857D01*
X195046666Y-90709761D01*
X195122857Y-90671666D01*
X195313333Y-90671666D01*
X195389523Y-90709761D01*
X195427619Y-90747857D01*
X195465714Y-90824047D01*
X195465714Y-91014523D01*
X195427619Y-91090714D01*
X195389523Y-91128809D01*
X195313333Y-91166904D01*
X195122857Y-91166904D01*
X195046666Y-91128809D01*
X195008571Y-91090714D01*
X195694285Y-90366904D02*
X195960952Y-91166904D01*
X196227619Y-90366904D01*
D11*
X197485000Y-52070000D02*
X197485000Y-53975000D01*
X198755000Y-80010000D02*
X198755000Y-52070000D01*
X198755000Y-106680000D02*
X198755000Y-80010000D01*
X198120000Y-80010000D02*
X198120000Y-106680000D01*
X197485000Y-106680000D02*
X197485000Y-80010000D01*
D10*
X182427619Y-53040595D02*
X183427619Y-53040595D01*
X183427619Y-53278690D01*
X183380000Y-53421547D01*
X183284761Y-53516785D01*
X183189523Y-53564404D01*
X182999047Y-53612023D01*
X182856190Y-53612023D01*
X182665714Y-53564404D01*
X182570476Y-53516785D01*
X182475238Y-53421547D01*
X182427619Y-53278690D01*
X182427619Y-53040595D01*
X182999047Y-54183452D02*
X183046666Y-54088214D01*
X183094285Y-54040595D01*
X183189523Y-53992976D01*
X183237142Y-53992976D01*
X183332380Y-54040595D01*
X183380000Y-54088214D01*
X183427619Y-54183452D01*
X183427619Y-54373928D01*
X183380000Y-54469166D01*
X183332380Y-54516785D01*
X183237142Y-54564404D01*
X183189523Y-54564404D01*
X183094285Y-54516785D01*
X183046666Y-54469166D01*
X182999047Y-54373928D01*
X182999047Y-54183452D01*
X182951428Y-54088214D01*
X182903809Y-54040595D01*
X182808571Y-53992976D01*
X182618095Y-53992976D01*
X182522857Y-54040595D01*
X182475238Y-54088214D01*
X182427619Y-54183452D01*
X182427619Y-54373928D01*
X182475238Y-54469166D01*
X182522857Y-54516785D01*
X182618095Y-54564404D01*
X182808571Y-54564404D01*
X182903809Y-54516785D01*
X182951428Y-54469166D01*
X182999047Y-54373928D01*
X179887619Y-53040595D02*
X180887619Y-53040595D01*
X180887619Y-53278690D01*
X180840000Y-53421547D01*
X180744761Y-53516785D01*
X180649523Y-53564404D01*
X180459047Y-53612023D01*
X180316190Y-53612023D01*
X180125714Y-53564404D01*
X180030476Y-53516785D01*
X179935238Y-53421547D01*
X179887619Y-53278690D01*
X179887619Y-53040595D01*
X179887619Y-54088214D02*
X179887619Y-54278690D01*
X179935238Y-54373928D01*
X179982857Y-54421547D01*
X180125714Y-54516785D01*
X180316190Y-54564404D01*
X180697142Y-54564404D01*
X180792380Y-54516785D01*
X180840000Y-54469166D01*
X180887619Y-54373928D01*
X180887619Y-54183452D01*
X180840000Y-54088214D01*
X180792380Y-54040595D01*
X180697142Y-53992976D01*
X180459047Y-53992976D01*
X180363809Y-54040595D01*
X180316190Y-54088214D01*
X180268571Y-54183452D01*
X180268571Y-54373928D01*
X180316190Y-54469166D01*
X180363809Y-54516785D01*
X180459047Y-54564404D01*
X177347619Y-53040595D02*
X178347619Y-53040595D01*
X178347619Y-53278690D01*
X178300000Y-53421547D01*
X178204761Y-53516785D01*
X178109523Y-53564404D01*
X177919047Y-53612023D01*
X177776190Y-53612023D01*
X177585714Y-53564404D01*
X177490476Y-53516785D01*
X177395238Y-53421547D01*
X177347619Y-53278690D01*
X177347619Y-53040595D01*
X177347619Y-54564404D02*
X177347619Y-53992976D01*
X177347619Y-54278690D02*
X178347619Y-54278690D01*
X178204761Y-54183452D01*
X178109523Y-54088214D01*
X178061904Y-53992976D01*
X178347619Y-55183452D02*
X178347619Y-55278690D01*
X178300000Y-55373928D01*
X178252380Y-55421547D01*
X178157142Y-55469166D01*
X177966666Y-55516785D01*
X177728571Y-55516785D01*
X177538095Y-55469166D01*
X177442857Y-55421547D01*
X177395238Y-55373928D01*
X177347619Y-55278690D01*
X177347619Y-55183452D01*
X177395238Y-55088214D01*
X177442857Y-55040595D01*
X177538095Y-54992976D01*
X177728571Y-54945357D01*
X177966666Y-54945357D01*
X178157142Y-54992976D01*
X178252380Y-55040595D01*
X178300000Y-55088214D01*
X178347619Y-55183452D01*
X174807619Y-53040595D02*
X175807619Y-53040595D01*
X175807619Y-53278690D01*
X175760000Y-53421547D01*
X175664761Y-53516785D01*
X175569523Y-53564404D01*
X175379047Y-53612023D01*
X175236190Y-53612023D01*
X175045714Y-53564404D01*
X174950476Y-53516785D01*
X174855238Y-53421547D01*
X174807619Y-53278690D01*
X174807619Y-53040595D01*
X174807619Y-54564404D02*
X174807619Y-53992976D01*
X174807619Y-54278690D02*
X175807619Y-54278690D01*
X175664761Y-54183452D01*
X175569523Y-54088214D01*
X175521904Y-53992976D01*
X174807619Y-55516785D02*
X174807619Y-54945357D01*
X174807619Y-55231071D02*
X175807619Y-55231071D01*
X175664761Y-55135833D01*
X175569523Y-55040595D01*
X175521904Y-54945357D01*
X172267619Y-53040595D02*
X173267619Y-53040595D01*
X173267619Y-53278690D01*
X173220000Y-53421547D01*
X173124761Y-53516785D01*
X173029523Y-53564404D01*
X172839047Y-53612023D01*
X172696190Y-53612023D01*
X172505714Y-53564404D01*
X172410476Y-53516785D01*
X172315238Y-53421547D01*
X172267619Y-53278690D01*
X172267619Y-53040595D01*
X172267619Y-54564404D02*
X172267619Y-53992976D01*
X172267619Y-54278690D02*
X173267619Y-54278690D01*
X173124761Y-54183452D01*
X173029523Y-54088214D01*
X172981904Y-53992976D01*
X173172380Y-54945357D02*
X173220000Y-54992976D01*
X173267619Y-55088214D01*
X173267619Y-55326309D01*
X173220000Y-55421547D01*
X173172380Y-55469166D01*
X173077142Y-55516785D01*
X172981904Y-55516785D01*
X172839047Y-55469166D01*
X172267619Y-54897738D01*
X172267619Y-55516785D01*
X169727619Y-53040595D02*
X170727619Y-53040595D01*
X170727619Y-53278690D01*
X170680000Y-53421547D01*
X170584761Y-53516785D01*
X170489523Y-53564404D01*
X170299047Y-53612023D01*
X170156190Y-53612023D01*
X169965714Y-53564404D01*
X169870476Y-53516785D01*
X169775238Y-53421547D01*
X169727619Y-53278690D01*
X169727619Y-53040595D01*
X169727619Y-54564404D02*
X169727619Y-53992976D01*
X169727619Y-54278690D02*
X170727619Y-54278690D01*
X170584761Y-54183452D01*
X170489523Y-54088214D01*
X170441904Y-53992976D01*
X170727619Y-54897738D02*
X170727619Y-55516785D01*
X170346666Y-55183452D01*
X170346666Y-55326309D01*
X170299047Y-55421547D01*
X170251428Y-55469166D01*
X170156190Y-55516785D01*
X169918095Y-55516785D01*
X169822857Y-55469166D01*
X169775238Y-55421547D01*
X169727619Y-55326309D01*
X169727619Y-55040595D01*
X169775238Y-54945357D01*
X169822857Y-54897738D01*
X157980000Y-53564404D02*
X158027619Y-53469166D01*
X158027619Y-53326309D01*
X157980000Y-53183452D01*
X157884761Y-53088214D01*
X157789523Y-53040595D01*
X157599047Y-52992976D01*
X157456190Y-52992976D01*
X157265714Y-53040595D01*
X157170476Y-53088214D01*
X157075238Y-53183452D01*
X157027619Y-53326309D01*
X157027619Y-53421547D01*
X157075238Y-53564404D01*
X157122857Y-53612023D01*
X157456190Y-53612023D01*
X157456190Y-53421547D01*
X157027619Y-54040595D02*
X158027619Y-54040595D01*
X157027619Y-54612023D01*
X158027619Y-54612023D01*
X157027619Y-55088214D02*
X158027619Y-55088214D01*
X158027619Y-55326309D01*
X157980000Y-55469166D01*
X157884761Y-55564404D01*
X157789523Y-55612023D01*
X157599047Y-55659642D01*
X157456190Y-55659642D01*
X157265714Y-55612023D01*
X157170476Y-55564404D01*
X157075238Y-55469166D01*
X157027619Y-55326309D01*
X157027619Y-55088214D01*
X155487619Y-53516785D02*
X155487619Y-53040595D01*
X155011428Y-52992976D01*
X155059047Y-53040595D01*
X155106666Y-53135833D01*
X155106666Y-53373928D01*
X155059047Y-53469166D01*
X155011428Y-53516785D01*
X154916190Y-53564404D01*
X154678095Y-53564404D01*
X154582857Y-53516785D01*
X154535238Y-53469166D01*
X154487619Y-53373928D01*
X154487619Y-53135833D01*
X154535238Y-53040595D01*
X154582857Y-52992976D01*
X155487619Y-53850119D02*
X154487619Y-54183452D01*
X155487619Y-54516785D01*
X107595000Y-52802500D02*
X107595000Y-53802500D01*
X106227619Y-53612023D02*
X106703809Y-53278690D01*
X106227619Y-53040595D02*
X107227619Y-53040595D01*
X107227619Y-53421547D01*
X107180000Y-53516785D01*
X107132380Y-53564404D01*
X107037142Y-53612023D01*
X106894285Y-53612023D01*
X106799047Y-53564404D01*
X106751428Y-53516785D01*
X106703809Y-53421547D01*
X106703809Y-53040595D01*
X107595000Y-53802500D02*
X107595000Y-54707261D01*
X106751428Y-54040595D02*
X106751428Y-54373928D01*
X106227619Y-54516785D02*
X106227619Y-54040595D01*
X107227619Y-54040595D01*
X107227619Y-54516785D01*
X107595000Y-54707261D02*
X107595000Y-55659642D01*
X106275238Y-54897738D02*
X106227619Y-55040595D01*
X106227619Y-55278690D01*
X106275238Y-55373928D01*
X106322857Y-55421547D01*
X106418095Y-55469166D01*
X106513333Y-55469166D01*
X106608571Y-55421547D01*
X106656190Y-55373928D01*
X106703809Y-55278690D01*
X106751428Y-55088214D01*
X106799047Y-54992976D01*
X106846666Y-54945357D01*
X106941904Y-54897738D01*
X107037142Y-54897738D01*
X107132380Y-54945357D01*
X107180000Y-54992976D01*
X107227619Y-55088214D01*
X107227619Y-55326309D01*
X107180000Y-55469166D01*
X107595000Y-55659642D02*
X107595000Y-56564404D01*
X106751428Y-55897738D02*
X106751428Y-56231071D01*
X106227619Y-56373928D02*
X106227619Y-55897738D01*
X107227619Y-55897738D01*
X107227619Y-56373928D01*
X107595000Y-56564404D02*
X107595000Y-57326309D01*
X107227619Y-56659642D02*
X107227619Y-57231071D01*
X106227619Y-56945357D02*
X107227619Y-56945357D01*
X139533333Y-52992976D02*
X139533333Y-53469166D01*
X139247619Y-52897738D02*
X140247619Y-53231071D01*
X139247619Y-53564404D01*
X140247619Y-53802500D02*
X140247619Y-54421547D01*
X139866666Y-54088214D01*
X139866666Y-54231071D01*
X139819047Y-54326309D01*
X139771428Y-54373928D01*
X139676190Y-54421547D01*
X139438095Y-54421547D01*
X139342857Y-54373928D01*
X139295238Y-54326309D01*
X139247619Y-54231071D01*
X139247619Y-53945357D01*
X139295238Y-53850119D01*
X139342857Y-53802500D01*
X136993333Y-52992976D02*
X136993333Y-53469166D01*
X136707619Y-52897738D02*
X137707619Y-53231071D01*
X136707619Y-53564404D01*
X137374285Y-54326309D02*
X136707619Y-54326309D01*
X137755238Y-54088214D02*
X137040952Y-53850119D01*
X137040952Y-54469166D01*
X134453333Y-52992976D02*
X134453333Y-53469166D01*
X134167619Y-52897738D02*
X135167619Y-53231071D01*
X134167619Y-53564404D01*
X135167619Y-54373928D02*
X135167619Y-53897738D01*
X134691428Y-53850119D01*
X134739047Y-53897738D01*
X134786666Y-53992976D01*
X134786666Y-54231071D01*
X134739047Y-54326309D01*
X134691428Y-54373928D01*
X134596190Y-54421547D01*
X134358095Y-54421547D01*
X134262857Y-54373928D01*
X134215238Y-54326309D01*
X134167619Y-54231071D01*
X134167619Y-53992976D01*
X134215238Y-53897738D01*
X134262857Y-53850119D01*
X131913333Y-52992976D02*
X131913333Y-53469166D01*
X131627619Y-52897738D02*
X132627619Y-53231071D01*
X131627619Y-53564404D01*
X132627619Y-54326309D02*
X132627619Y-54135833D01*
X132580000Y-54040595D01*
X132532380Y-53992976D01*
X132389523Y-53897738D01*
X132199047Y-53850119D01*
X131818095Y-53850119D01*
X131722857Y-53897738D01*
X131675238Y-53945357D01*
X131627619Y-54040595D01*
X131627619Y-54231071D01*
X131675238Y-54326309D01*
X131722857Y-54373928D01*
X131818095Y-54421547D01*
X132056190Y-54421547D01*
X132151428Y-54373928D01*
X132199047Y-54326309D01*
X132246666Y-54231071D01*
X132246666Y-54040595D01*
X132199047Y-53945357D01*
X132151428Y-53897738D01*
X132056190Y-53850119D01*
X129373333Y-52992976D02*
X129373333Y-53469166D01*
X129087619Y-52897738D02*
X130087619Y-53231071D01*
X129087619Y-53564404D01*
X130087619Y-53802500D02*
X130087619Y-54469166D01*
X129087619Y-54040595D01*
X156980000Y-142650595D02*
X156932380Y-142745833D01*
X156932380Y-142888690D01*
X156980000Y-143031547D01*
X157075238Y-143126785D01*
X157170476Y-143174404D01*
X157360952Y-143222023D01*
X157503809Y-143222023D01*
X157694285Y-143174404D01*
X157789523Y-143126785D01*
X157884761Y-143031547D01*
X157932380Y-142888690D01*
X157932380Y-142793452D01*
X157884761Y-142650595D01*
X157837142Y-142602976D01*
X157503809Y-142602976D01*
X157503809Y-142793452D01*
X157932380Y-142174404D02*
X156932380Y-142174404D01*
X157932380Y-141602976D01*
X156932380Y-141602976D01*
X157932380Y-141126785D02*
X156932380Y-141126785D01*
X156932380Y-140888690D01*
X156980000Y-140745833D01*
X157075238Y-140650595D01*
X157170476Y-140602976D01*
X157360952Y-140555357D01*
X157503809Y-140555357D01*
X157694285Y-140602976D01*
X157789523Y-140650595D01*
X157884761Y-140745833D01*
X157932380Y-140888690D01*
X157932380Y-141126785D01*
X195365714Y-115259761D02*
X196175238Y-115259761D01*
X196270476Y-115307380D01*
X196318095Y-115355000D01*
X196365714Y-115450238D01*
X196365714Y-115593095D01*
X196318095Y-115688333D01*
X195984761Y-115259761D02*
X196032380Y-115355000D01*
X196032380Y-115545476D01*
X195984761Y-115640714D01*
X195937142Y-115688333D01*
X195841904Y-115735952D01*
X195556190Y-115735952D01*
X195460952Y-115688333D01*
X195413333Y-115640714D01*
X195365714Y-115545476D01*
X195365714Y-115355000D01*
X195413333Y-115259761D01*
X196032380Y-114783571D02*
X195365714Y-114783571D01*
X195032380Y-114783571D02*
X195080000Y-114831190D01*
X195127619Y-114783571D01*
X195080000Y-114735952D01*
X195032380Y-114783571D01*
X195127619Y-114783571D01*
X195365714Y-114450238D02*
X195365714Y-114069285D01*
X195032380Y-114307380D02*
X195889523Y-114307380D01*
X195984761Y-114259761D01*
X196032380Y-114164523D01*
X196032380Y-114069285D01*
X196032380Y-113735952D02*
X195032380Y-113735952D01*
X196032380Y-113307380D02*
X195508571Y-113307380D01*
X195413333Y-113355000D01*
X195365714Y-113450238D01*
X195365714Y-113593095D01*
X195413333Y-113688333D01*
X195460952Y-113735952D01*
X195365714Y-112402619D02*
X196032380Y-112402619D01*
X195365714Y-112831190D02*
X195889523Y-112831190D01*
X195984761Y-112783571D01*
X196032380Y-112688333D01*
X196032380Y-112545476D01*
X195984761Y-112450238D01*
X195937142Y-112402619D01*
X196032380Y-111926428D02*
X195032380Y-111926428D01*
X195413333Y-111926428D02*
X195365714Y-111831190D01*
X195365714Y-111640714D01*
X195413333Y-111545476D01*
X195460952Y-111497857D01*
X195556190Y-111450238D01*
X195841904Y-111450238D01*
X195937142Y-111497857D01*
X195984761Y-111545476D01*
X196032380Y-111640714D01*
X196032380Y-111831190D01*
X195984761Y-111926428D01*
X195937142Y-111021666D02*
X195984761Y-110974047D01*
X196032380Y-111021666D01*
X195984761Y-111069285D01*
X195937142Y-111021666D01*
X196032380Y-111021666D01*
X195984761Y-110116904D02*
X196032380Y-110212142D01*
X196032380Y-110402619D01*
X195984761Y-110497857D01*
X195937142Y-110545476D01*
X195841904Y-110593095D01*
X195556190Y-110593095D01*
X195460952Y-110545476D01*
X195413333Y-110497857D01*
X195365714Y-110402619D01*
X195365714Y-110212142D01*
X195413333Y-110116904D01*
X196032380Y-109545476D02*
X195984761Y-109640714D01*
X195937142Y-109688333D01*
X195841904Y-109735952D01*
X195556190Y-109735952D01*
X195460952Y-109688333D01*
X195413333Y-109640714D01*
X195365714Y-109545476D01*
X195365714Y-109402619D01*
X195413333Y-109307380D01*
X195460952Y-109259761D01*
X195556190Y-109212142D01*
X195841904Y-109212142D01*
X195937142Y-109259761D01*
X195984761Y-109307380D01*
X196032380Y-109402619D01*
X196032380Y-109545476D01*
X196032380Y-108783571D02*
X195365714Y-108783571D01*
X195460952Y-108783571D02*
X195413333Y-108735952D01*
X195365714Y-108640714D01*
X195365714Y-108497857D01*
X195413333Y-108402619D01*
X195508571Y-108355000D01*
X196032380Y-108355000D01*
X195508571Y-108355000D02*
X195413333Y-108307380D01*
X195365714Y-108212142D01*
X195365714Y-108069285D01*
X195413333Y-107974047D01*
X195508571Y-107926428D01*
X196032380Y-107926428D01*
X194984761Y-106735952D02*
X196270476Y-107593095D01*
X195365714Y-106545476D02*
X195365714Y-106164523D01*
X195032380Y-106402619D02*
X195889523Y-106402619D01*
X195984761Y-106355000D01*
X196032380Y-106259761D01*
X196032380Y-106164523D01*
X195984761Y-105450238D02*
X196032380Y-105545476D01*
X196032380Y-105735952D01*
X195984761Y-105831190D01*
X195889523Y-105878809D01*
X195508571Y-105878809D01*
X195413333Y-105831190D01*
X195365714Y-105735952D01*
X195365714Y-105545476D01*
X195413333Y-105450238D01*
X195508571Y-105402619D01*
X195603809Y-105402619D01*
X195699047Y-105878809D01*
X196032380Y-104974047D02*
X195032380Y-104974047D01*
X195413333Y-104974047D02*
X195365714Y-104878809D01*
X195365714Y-104688333D01*
X195413333Y-104593095D01*
X195460952Y-104545476D01*
X195556190Y-104497857D01*
X195841904Y-104497857D01*
X195937142Y-104545476D01*
X195984761Y-104593095D01*
X196032380Y-104688333D01*
X196032380Y-104878809D01*
X195984761Y-104974047D01*
X196032380Y-103926428D02*
X195984761Y-104021666D01*
X195889523Y-104069285D01*
X195032380Y-104069285D01*
X194127380Y-115855000D02*
X193127380Y-115855000D01*
X193127380Y-115474047D01*
X193175000Y-115378809D01*
X193222619Y-115331190D01*
X193317857Y-115283571D01*
X193460714Y-115283571D01*
X193555952Y-115331190D01*
X193603571Y-115378809D01*
X193651190Y-115474047D01*
X193651190Y-115855000D01*
X194127380Y-114855000D02*
X193460714Y-114855000D01*
X193651190Y-114855000D02*
X193555952Y-114807380D01*
X193508333Y-114759761D01*
X193460714Y-114664523D01*
X193460714Y-114569285D01*
X194127380Y-114093095D02*
X194079761Y-114188333D01*
X194032142Y-114235952D01*
X193936904Y-114283571D01*
X193651190Y-114283571D01*
X193555952Y-114235952D01*
X193508333Y-114188333D01*
X193460714Y-114093095D01*
X193460714Y-113950238D01*
X193508333Y-113855000D01*
X193555952Y-113807380D01*
X193651190Y-113759761D01*
X193936904Y-113759761D01*
X194032142Y-113807380D01*
X194079761Y-113855000D01*
X194127380Y-113950238D01*
X194127380Y-114093095D01*
X193460714Y-113331190D02*
X194317857Y-113331190D01*
X194413095Y-113378809D01*
X194460714Y-113474047D01*
X194460714Y-113521666D01*
X193127380Y-113331190D02*
X193175000Y-113378809D01*
X193222619Y-113331190D01*
X193175000Y-113283571D01*
X193127380Y-113331190D01*
X193222619Y-113331190D01*
X194079761Y-112474047D02*
X194127380Y-112569285D01*
X194127380Y-112759761D01*
X194079761Y-112855000D01*
X193984523Y-112902619D01*
X193603571Y-112902619D01*
X193508333Y-112855000D01*
X193460714Y-112759761D01*
X193460714Y-112569285D01*
X193508333Y-112474047D01*
X193603571Y-112426428D01*
X193698809Y-112426428D01*
X193794047Y-112902619D01*
X194079761Y-111569285D02*
X194127380Y-111664523D01*
X194127380Y-111855000D01*
X194079761Y-111950238D01*
X194032142Y-111997857D01*
X193936904Y-112045476D01*
X193651190Y-112045476D01*
X193555952Y-111997857D01*
X193508333Y-111950238D01*
X193460714Y-111855000D01*
X193460714Y-111664523D01*
X193508333Y-111569285D01*
X193460714Y-111283571D02*
X193460714Y-110902619D01*
X193127380Y-111140714D02*
X193984523Y-111140714D01*
X194079761Y-111093095D01*
X194127380Y-110997857D01*
X194127380Y-110902619D01*
X194127380Y-109807380D02*
X193127380Y-109807380D01*
X193127380Y-109426428D01*
X193175000Y-109331190D01*
X193222619Y-109283571D01*
X193317857Y-109235952D01*
X193460714Y-109235952D01*
X193555952Y-109283571D01*
X193603571Y-109331190D01*
X193651190Y-109426428D01*
X193651190Y-109807380D01*
X194127380Y-108664523D02*
X194079761Y-108759761D01*
X193984523Y-108807380D01*
X193127380Y-108807380D01*
X194127380Y-107855000D02*
X193603571Y-107855000D01*
X193508333Y-107902619D01*
X193460714Y-107997857D01*
X193460714Y-108188333D01*
X193508333Y-108283571D01*
X194079761Y-107855000D02*
X194127380Y-107950238D01*
X194127380Y-108188333D01*
X194079761Y-108283571D01*
X193984523Y-108331190D01*
X193889285Y-108331190D01*
X193794047Y-108283571D01*
X193746428Y-108188333D01*
X193746428Y-107950238D01*
X193698809Y-107855000D01*
X193460714Y-107521666D02*
X193460714Y-107140714D01*
X193127380Y-107378809D02*
X193984523Y-107378809D01*
X194079761Y-107331190D01*
X194127380Y-107235952D01*
X194127380Y-107140714D01*
X193460714Y-106950238D02*
X193460714Y-106569285D01*
X194127380Y-106807380D02*
X193270238Y-106807380D01*
X193175000Y-106759761D01*
X193127380Y-106664523D01*
X193127380Y-106569285D01*
X194127380Y-106093095D02*
X194079761Y-106188333D01*
X194032142Y-106235952D01*
X193936904Y-106283571D01*
X193651190Y-106283571D01*
X193555952Y-106235952D01*
X193508333Y-106188333D01*
X193460714Y-106093095D01*
X193460714Y-105950238D01*
X193508333Y-105855000D01*
X193555952Y-105807380D01*
X193651190Y-105759761D01*
X193936904Y-105759761D01*
X194032142Y-105807380D01*
X194079761Y-105855000D01*
X194127380Y-105950238D01*
X194127380Y-106093095D01*
X194127380Y-105331190D02*
X193460714Y-105331190D01*
X193651190Y-105331190D02*
X193555952Y-105283571D01*
X193508333Y-105235952D01*
X193460714Y-105140714D01*
X193460714Y-105045476D01*
X194127380Y-104712142D02*
X193460714Y-104712142D01*
X193555952Y-104712142D02*
X193508333Y-104664523D01*
X193460714Y-104569285D01*
X193460714Y-104426428D01*
X193508333Y-104331190D01*
X193603571Y-104283571D01*
X194127380Y-104283571D01*
X193603571Y-104283571D02*
X193508333Y-104235952D01*
X193460714Y-104140714D01*
X193460714Y-103997857D01*
X193508333Y-103902619D01*
X193603571Y-103855000D01*
X194127380Y-103855000D01*
D13*
X104390000Y-114426428D02*
X104390000Y-113712142D01*
X104818571Y-114569285D02*
X103318571Y-114069285D01*
X104818571Y-113569285D01*
X104818571Y-112212142D02*
X104104285Y-112712142D01*
X104818571Y-113069285D02*
X103318571Y-113069285D01*
X103318571Y-112497857D01*
X103390000Y-112355000D01*
X103461428Y-112283571D01*
X103604285Y-112212142D01*
X103818571Y-112212142D01*
X103961428Y-112283571D01*
X104032857Y-112355000D01*
X104104285Y-112497857D01*
X104104285Y-113069285D01*
X104818571Y-111569285D02*
X103318571Y-111569285D01*
X103318571Y-111212142D01*
X103390000Y-110997857D01*
X103532857Y-110855000D01*
X103675714Y-110783571D01*
X103961428Y-110712142D01*
X104175714Y-110712142D01*
X104461428Y-110783571D01*
X104604285Y-110855000D01*
X104747142Y-110997857D01*
X104818571Y-111212142D01*
X104818571Y-111569285D01*
X103318571Y-110069285D02*
X104532857Y-110069285D01*
X104675714Y-109997857D01*
X104747142Y-109926428D01*
X104818571Y-109783571D01*
X104818571Y-109497857D01*
X104747142Y-109355000D01*
X104675714Y-109283571D01*
X104532857Y-109212142D01*
X103318571Y-109212142D01*
X104818571Y-108497857D02*
X103318571Y-108497857D01*
X104818571Y-107783571D02*
X103318571Y-107783571D01*
X104818571Y-106926428D01*
X103318571Y-106926428D01*
X103318571Y-105926428D02*
X103318571Y-105640714D01*
X103390000Y-105497857D01*
X103532857Y-105355000D01*
X103818571Y-105283571D01*
X104318571Y-105283571D01*
X104604285Y-105355000D01*
X104747142Y-105497857D01*
X104818571Y-105640714D01*
X104818571Y-105926428D01*
X104747142Y-106069285D01*
X104604285Y-106212142D01*
X104318571Y-106283571D01*
X103818571Y-106283571D01*
X103532857Y-106212142D01*
X103390000Y-106069285D01*
X103318571Y-105926428D01*
D11*
X198755000Y-113030000D02*
X198755000Y-144145000D01*
X198120000Y-144145000D02*
X198120000Y-113030000D01*
X197485000Y-113030000D02*
X197485000Y-144145000D01*
X198755000Y-48260000D02*
X198755000Y-49530000D01*
X198120000Y-48260000D02*
X198120000Y-49530000D01*
X197485000Y-49530000D02*
X197485000Y-48260000D01*
D10*
X198572380Y-111735952D02*
X197572380Y-111735952D01*
X197572380Y-111355000D01*
X197620000Y-111259761D01*
X197667619Y-111212142D01*
X197762857Y-111164523D01*
X197905714Y-111164523D01*
X198000952Y-111212142D01*
X198048571Y-111259761D01*
X198096190Y-111355000D01*
X198096190Y-111735952D01*
X198572380Y-110735952D02*
X197572380Y-110735952D01*
X198572380Y-110259761D02*
X197572380Y-110259761D01*
X198572380Y-109688333D01*
X197572380Y-109688333D01*
X198572380Y-107926428D02*
X198572380Y-108497857D01*
X198572380Y-108212142D02*
X197572380Y-108212142D01*
X197715238Y-108307380D01*
X197810476Y-108402619D01*
X197858095Y-108497857D01*
D14*
X199450000Y-146855000D02*
X100270000Y-146855000D01*
X100270000Y-146855000D02*
X100270000Y-149515000D01*
X100270000Y-149515000D02*
X199450000Y-149515000D01*
X199450000Y-149515000D02*
X199450000Y-146855000D01*
X198500000Y-149515000D02*
X198500000Y-155515000D01*
X198500000Y-155515000D02*
X197740000Y-155515000D01*
X197740000Y-155515000D02*
X197740000Y-149515000D01*
X198440000Y-149515000D02*
X198440000Y-155515000D01*
X198320000Y-149515000D02*
X198320000Y-155515000D01*
X198200000Y-149515000D02*
X198200000Y-155515000D01*
X198080000Y-149515000D02*
X198080000Y-155515000D01*
X197960000Y-149515000D02*
X197960000Y-155515000D01*
X197840000Y-149515000D02*
X197840000Y-155515000D01*
X198500000Y-146525000D02*
X198500000Y-146855000D01*
X197740000Y-146525000D02*
X197740000Y-146855000D01*
X196850000Y-146855000D02*
X196850000Y-149515000D01*
X195960000Y-149515000D02*
X195960000Y-155515000D01*
X195960000Y-155515000D02*
X195200000Y-155515000D01*
X195200000Y-155515000D02*
X195200000Y-149515000D01*
X195960000Y-146457929D02*
X195960000Y-146855000D01*
X195200000Y-146457929D02*
X195200000Y-146855000D01*
X194310000Y-146855000D02*
X194310000Y-149515000D01*
X193420000Y-149515000D02*
X193420000Y-155515000D01*
X193420000Y-155515000D02*
X192660000Y-155515000D01*
X192660000Y-155515000D02*
X192660000Y-149515000D01*
X193420000Y-146457929D02*
X193420000Y-146855000D01*
X192660000Y-146457929D02*
X192660000Y-146855000D01*
X191770000Y-146855000D02*
X191770000Y-149515000D01*
X190880000Y-149515000D02*
X190880000Y-155515000D01*
X190880000Y-155515000D02*
X190120000Y-155515000D01*
X190120000Y-155515000D02*
X190120000Y-149515000D01*
X190880000Y-146457929D02*
X190880000Y-146855000D01*
X190120000Y-146457929D02*
X190120000Y-146855000D01*
X189230000Y-146855000D02*
X189230000Y-149515000D01*
X188340000Y-149515000D02*
X188340000Y-155515000D01*
X188340000Y-155515000D02*
X187580000Y-155515000D01*
X187580000Y-155515000D02*
X187580000Y-149515000D01*
X188340000Y-146457929D02*
X188340000Y-146855000D01*
X187580000Y-146457929D02*
X187580000Y-146855000D01*
X186690000Y-146855000D02*
X186690000Y-149515000D01*
X185800000Y-149515000D02*
X185800000Y-155515000D01*
X185800000Y-155515000D02*
X185040000Y-155515000D01*
X185040000Y-155515000D02*
X185040000Y-149515000D01*
X185800000Y-146457929D02*
X185800000Y-146855000D01*
X185040000Y-146457929D02*
X185040000Y-146855000D01*
X184150000Y-146855000D02*
X184150000Y-149515000D01*
X183260000Y-149515000D02*
X183260000Y-155515000D01*
X183260000Y-155515000D02*
X182500000Y-155515000D01*
X182500000Y-155515000D02*
X182500000Y-149515000D01*
X183260000Y-146457929D02*
X183260000Y-146855000D01*
X182500000Y-146457929D02*
X182500000Y-146855000D01*
X181610000Y-146855000D02*
X181610000Y-149515000D01*
X180720000Y-149515000D02*
X180720000Y-155515000D01*
X180720000Y-155515000D02*
X179960000Y-155515000D01*
X179960000Y-155515000D02*
X179960000Y-149515000D01*
X180720000Y-146457929D02*
X180720000Y-146855000D01*
X179960000Y-146457929D02*
X179960000Y-146855000D01*
X179070000Y-146855000D02*
X179070000Y-149515000D01*
X178180000Y-149515000D02*
X178180000Y-155515000D01*
X178180000Y-155515000D02*
X177420000Y-155515000D01*
X177420000Y-155515000D02*
X177420000Y-149515000D01*
X178180000Y-146457929D02*
X178180000Y-146855000D01*
X177420000Y-146457929D02*
X177420000Y-146855000D01*
X176530000Y-146855000D02*
X176530000Y-149515000D01*
X175640000Y-149515000D02*
X175640000Y-155515000D01*
X175640000Y-155515000D02*
X174880000Y-155515000D01*
X174880000Y-155515000D02*
X174880000Y-149515000D01*
X175640000Y-146457929D02*
X175640000Y-146855000D01*
X174880000Y-146457929D02*
X174880000Y-146855000D01*
X173990000Y-146855000D02*
X173990000Y-149515000D01*
X173100000Y-149515000D02*
X173100000Y-155515000D01*
X173100000Y-155515000D02*
X172340000Y-155515000D01*
X172340000Y-155515000D02*
X172340000Y-149515000D01*
X173100000Y-146457929D02*
X173100000Y-146855000D01*
X172340000Y-146457929D02*
X172340000Y-146855000D01*
X171450000Y-146855000D02*
X171450000Y-149515000D01*
X170560000Y-149515000D02*
X170560000Y-155515000D01*
X170560000Y-155515000D02*
X169800000Y-155515000D01*
X169800000Y-155515000D02*
X169800000Y-149515000D01*
X170560000Y-146457929D02*
X170560000Y-146855000D01*
X169800000Y-146457929D02*
X169800000Y-146855000D01*
X168910000Y-146855000D02*
X168910000Y-149515000D01*
X168020000Y-149515000D02*
X168020000Y-155515000D01*
X168020000Y-155515000D02*
X167260000Y-155515000D01*
X167260000Y-155515000D02*
X167260000Y-149515000D01*
X168020000Y-146457929D02*
X168020000Y-146855000D01*
X167260000Y-146457929D02*
X167260000Y-146855000D01*
X166370000Y-146855000D02*
X166370000Y-149515000D01*
X165480000Y-149515000D02*
X165480000Y-155515000D01*
X165480000Y-155515000D02*
X164720000Y-155515000D01*
X164720000Y-155515000D02*
X164720000Y-149515000D01*
X165480000Y-146457929D02*
X165480000Y-146855000D01*
X164720000Y-146457929D02*
X164720000Y-146855000D01*
X163830000Y-146855000D02*
X163830000Y-149515000D01*
X162940000Y-149515000D02*
X162940000Y-155515000D01*
X162940000Y-155515000D02*
X162180000Y-155515000D01*
X162180000Y-155515000D02*
X162180000Y-149515000D01*
X162940000Y-146457929D02*
X162940000Y-146855000D01*
X162180000Y-146457929D02*
X162180000Y-146855000D01*
X161290000Y-146855000D02*
X161290000Y-149515000D01*
X160400000Y-149515000D02*
X160400000Y-155515000D01*
X160400000Y-155515000D02*
X159640000Y-155515000D01*
X159640000Y-155515000D02*
X159640000Y-149515000D01*
X160400000Y-146457929D02*
X160400000Y-146855000D01*
X159640000Y-146457929D02*
X159640000Y-146855000D01*
X158750000Y-146855000D02*
X158750000Y-149515000D01*
X157860000Y-149515000D02*
X157860000Y-155515000D01*
X157860000Y-155515000D02*
X157100000Y-155515000D01*
X157100000Y-155515000D02*
X157100000Y-149515000D01*
X157860000Y-146457929D02*
X157860000Y-146855000D01*
X157100000Y-146457929D02*
X157100000Y-146855000D01*
X156210000Y-146855000D02*
X156210000Y-149515000D01*
X155320000Y-149515000D02*
X155320000Y-155515000D01*
X155320000Y-155515000D02*
X154560000Y-155515000D01*
X154560000Y-155515000D02*
X154560000Y-149515000D01*
X155320000Y-146457929D02*
X155320000Y-146855000D01*
X154560000Y-146457929D02*
X154560000Y-146855000D01*
X153670000Y-146855000D02*
X153670000Y-149515000D01*
X152780000Y-149515000D02*
X152780000Y-155515000D01*
X152780000Y-155515000D02*
X152020000Y-155515000D01*
X152020000Y-155515000D02*
X152020000Y-149515000D01*
X152780000Y-146457929D02*
X152780000Y-146855000D01*
X152020000Y-146457929D02*
X152020000Y-146855000D01*
X151130000Y-146855000D02*
X151130000Y-149515000D01*
X150240000Y-149515000D02*
X150240000Y-155515000D01*
X150240000Y-155515000D02*
X149480000Y-155515000D01*
X149480000Y-155515000D02*
X149480000Y-149515000D01*
X150240000Y-146457929D02*
X150240000Y-146855000D01*
X149480000Y-146457929D02*
X149480000Y-146855000D01*
X148590000Y-146855000D02*
X148590000Y-149515000D01*
X147700000Y-149515000D02*
X147700000Y-155515000D01*
X147700000Y-155515000D02*
X146940000Y-155515000D01*
X146940000Y-155515000D02*
X146940000Y-149515000D01*
X147700000Y-146457929D02*
X147700000Y-146855000D01*
X146940000Y-146457929D02*
X146940000Y-146855000D01*
X146050000Y-146855000D02*
X146050000Y-149515000D01*
X145160000Y-149515000D02*
X145160000Y-155515000D01*
X145160000Y-155515000D02*
X144400000Y-155515000D01*
X144400000Y-155515000D02*
X144400000Y-149515000D01*
X145160000Y-146457929D02*
X145160000Y-146855000D01*
X144400000Y-146457929D02*
X144400000Y-146855000D01*
X143510000Y-146855000D02*
X143510000Y-149515000D01*
X142620000Y-149515000D02*
X142620000Y-155515000D01*
X142620000Y-155515000D02*
X141860000Y-155515000D01*
X141860000Y-155515000D02*
X141860000Y-149515000D01*
X142620000Y-146457929D02*
X142620000Y-146855000D01*
X141860000Y-146457929D02*
X141860000Y-146855000D01*
X140970000Y-146855000D02*
X140970000Y-149515000D01*
X140080000Y-149515000D02*
X140080000Y-155515000D01*
X140080000Y-155515000D02*
X139320000Y-155515000D01*
X139320000Y-155515000D02*
X139320000Y-149515000D01*
X140080000Y-146457929D02*
X140080000Y-146855000D01*
X139320000Y-146457929D02*
X139320000Y-146855000D01*
X138430000Y-146855000D02*
X138430000Y-149515000D01*
X137540000Y-149515000D02*
X137540000Y-155515000D01*
X137540000Y-155515000D02*
X136780000Y-155515000D01*
X136780000Y-155515000D02*
X136780000Y-149515000D01*
X137540000Y-146457929D02*
X137540000Y-146855000D01*
X136780000Y-146457929D02*
X136780000Y-146855000D01*
X135890000Y-146855000D02*
X135890000Y-149515000D01*
X135000000Y-149515000D02*
X135000000Y-155515000D01*
X135000000Y-155515000D02*
X134240000Y-155515000D01*
X134240000Y-155515000D02*
X134240000Y-149515000D01*
X135000000Y-146457929D02*
X135000000Y-146855000D01*
X134240000Y-146457929D02*
X134240000Y-146855000D01*
X133350000Y-146855000D02*
X133350000Y-149515000D01*
X132460000Y-149515000D02*
X132460000Y-155515000D01*
X132460000Y-155515000D02*
X131700000Y-155515000D01*
X131700000Y-155515000D02*
X131700000Y-149515000D01*
X132460000Y-146457929D02*
X132460000Y-146855000D01*
X131700000Y-146457929D02*
X131700000Y-146855000D01*
X130810000Y-146855000D02*
X130810000Y-149515000D01*
X129920000Y-149515000D02*
X129920000Y-155515000D01*
X129920000Y-155515000D02*
X129160000Y-155515000D01*
X129160000Y-155515000D02*
X129160000Y-149515000D01*
X129920000Y-146457929D02*
X129920000Y-146855000D01*
X129160000Y-146457929D02*
X129160000Y-146855000D01*
X128270000Y-146855000D02*
X128270000Y-149515000D01*
X127380000Y-149515000D02*
X127380000Y-155515000D01*
X127380000Y-155515000D02*
X126620000Y-155515000D01*
X126620000Y-155515000D02*
X126620000Y-149515000D01*
X127380000Y-146457929D02*
X127380000Y-146855000D01*
X126620000Y-146457929D02*
X126620000Y-146855000D01*
X125730000Y-146855000D02*
X125730000Y-149515000D01*
X124840000Y-149515000D02*
X124840000Y-155515000D01*
X124840000Y-155515000D02*
X124080000Y-155515000D01*
X124080000Y-155515000D02*
X124080000Y-149515000D01*
X124840000Y-146457929D02*
X124840000Y-146855000D01*
X124080000Y-146457929D02*
X124080000Y-146855000D01*
X123190000Y-146855000D02*
X123190000Y-149515000D01*
X122300000Y-149515000D02*
X122300000Y-155515000D01*
X122300000Y-155515000D02*
X121540000Y-155515000D01*
X121540000Y-155515000D02*
X121540000Y-149515000D01*
X122300000Y-146457929D02*
X122300000Y-146855000D01*
X121540000Y-146457929D02*
X121540000Y-146855000D01*
X120650000Y-146855000D02*
X120650000Y-149515000D01*
X119760000Y-149515000D02*
X119760000Y-155515000D01*
X119760000Y-155515000D02*
X119000000Y-155515000D01*
X119000000Y-155515000D02*
X119000000Y-149515000D01*
X119760000Y-146457929D02*
X119760000Y-146855000D01*
X119000000Y-146457929D02*
X119000000Y-146855000D01*
X118110000Y-146855000D02*
X118110000Y-149515000D01*
X117220000Y-149515000D02*
X117220000Y-155515000D01*
X117220000Y-155515000D02*
X116460000Y-155515000D01*
X116460000Y-155515000D02*
X116460000Y-149515000D01*
X117220000Y-146457929D02*
X117220000Y-146855000D01*
X116460000Y-146457929D02*
X116460000Y-146855000D01*
X115570000Y-146855000D02*
X115570000Y-149515000D01*
X114680000Y-149515000D02*
X114680000Y-155515000D01*
X114680000Y-155515000D02*
X113920000Y-155515000D01*
X113920000Y-155515000D02*
X113920000Y-149515000D01*
X114680000Y-146457929D02*
X114680000Y-146855000D01*
X113920000Y-146457929D02*
X113920000Y-146855000D01*
X113030000Y-146855000D02*
X113030000Y-149515000D01*
X112140000Y-149515000D02*
X112140000Y-155515000D01*
X112140000Y-155515000D02*
X111380000Y-155515000D01*
X111380000Y-155515000D02*
X111380000Y-149515000D01*
X112140000Y-146457929D02*
X112140000Y-146855000D01*
X111380000Y-146457929D02*
X111380000Y-146855000D01*
X110490000Y-146855000D02*
X110490000Y-149515000D01*
X109600000Y-149515000D02*
X109600000Y-155515000D01*
X109600000Y-155515000D02*
X108840000Y-155515000D01*
X108840000Y-155515000D02*
X108840000Y-149515000D01*
X109600000Y-146457929D02*
X109600000Y-146855000D01*
X108840000Y-146457929D02*
X108840000Y-146855000D01*
X107950000Y-146855000D02*
X107950000Y-149515000D01*
X107060000Y-149515000D02*
X107060000Y-155515000D01*
X107060000Y-155515000D02*
X106300000Y-155515000D01*
X106300000Y-155515000D02*
X106300000Y-149515000D01*
X107060000Y-146457929D02*
X107060000Y-146855000D01*
X106300000Y-146457929D02*
X106300000Y-146855000D01*
X105410000Y-146855000D02*
X105410000Y-149515000D01*
X104520000Y-149515000D02*
X104520000Y-155515000D01*
X104520000Y-155515000D02*
X103760000Y-155515000D01*
X103760000Y-155515000D02*
X103760000Y-149515000D01*
X104520000Y-146457929D02*
X104520000Y-146855000D01*
X103760000Y-146457929D02*
X103760000Y-146855000D01*
X102870000Y-146855000D02*
X102870000Y-149515000D01*
X101980000Y-149515000D02*
X101980000Y-155515000D01*
X101980000Y-155515000D02*
X101220000Y-155515000D01*
X101220000Y-155515000D02*
X101220000Y-149515000D01*
X101980000Y-146457929D02*
X101980000Y-146855000D01*
X101220000Y-146457929D02*
X101220000Y-146855000D01*
X198120000Y-144145000D02*
X199390000Y-144145000D01*
X199390000Y-144145000D02*
X199390000Y-145415000D01*
X106426000Y-140335000D02*
G75*
G03X106426000Y-140335000I-2286000J0D01*
G01*
X197866000Y-140335000D02*
G75*
G03X197866000Y-140335000I-2286000J0D01*
G01*
X197866000Y-55880000D02*
G75*
G03X197866000Y-55880000I-2286000J0D01*
G01*
X106426000Y-55880000D02*
G75*
G03X106426000Y-55880000I-2286000J0D01*
G01*
X100270000Y-49470000D02*
X100270000Y-52130000D01*
X196850000Y-49470000D02*
X100270000Y-49470000D01*
X196850000Y-52130000D02*
X100270000Y-52130000D01*
X196850000Y-49470000D02*
X196850000Y-52130000D01*
X198120000Y-49470000D02*
X199450000Y-49470000D01*
X199450000Y-49470000D02*
X199450000Y-50800000D01*
D10*
X187860000Y-135855000D02*
X188360000Y-135855000D01*
X188360000Y-135855000D02*
X188360000Y-135355000D01*
X188360000Y-135355000D02*
X188860000Y-135355000D01*
X188860000Y-135355000D02*
X188860000Y-134855000D01*
X188860000Y-134855000D02*
X188360000Y-134855000D01*
X188360000Y-134855000D02*
X188360000Y-134355000D01*
X188360000Y-134355000D02*
X187860000Y-134355000D01*
X187860000Y-134355000D02*
X187860000Y-134855000D01*
X187860000Y-134855000D02*
X187360000Y-134855000D01*
X187360000Y-134855000D02*
X187360000Y-135355000D01*
X187360000Y-135355000D02*
X187860000Y-135355000D01*
X187860000Y-135355000D02*
X187860000Y-135855000D01*
X188360000Y-129855000D02*
X187860000Y-129855000D01*
X187860000Y-129855000D02*
X187860000Y-131355000D01*
X187860000Y-131355000D02*
X188360000Y-131355000D01*
X188360000Y-131355000D02*
X188360000Y-129855000D01*
X188360000Y-89855000D02*
X188860000Y-89855000D01*
X188860000Y-89855000D02*
X188860000Y-89355000D01*
X188860000Y-89355000D02*
X189360000Y-89355000D01*
X189360000Y-89355000D02*
X189360000Y-88855000D01*
X189360000Y-88855000D02*
X188860000Y-88855000D01*
X188860000Y-88855000D02*
X188860000Y-88355000D01*
X188860000Y-88355000D02*
X188360000Y-88355000D01*
X188360000Y-88355000D02*
X188360000Y-88855000D01*
X188360000Y-88855000D02*
X187860000Y-88855000D01*
X187860000Y-88855000D02*
X187860000Y-89355000D01*
X187860000Y-89355000D02*
X188360000Y-89355000D01*
X188360000Y-89355000D02*
X188360000Y-89855000D01*
X188860000Y-83855000D02*
X188360000Y-83855000D01*
X188360000Y-83855000D02*
X188360000Y-85355000D01*
X188360000Y-85355000D02*
X188860000Y-85355000D01*
X188860000Y-85355000D02*
X188860000Y-83855000D01*
X110860000Y-89855000D02*
X111360000Y-89855000D01*
X111360000Y-89855000D02*
X111360000Y-89355000D01*
X111360000Y-89355000D02*
X111860000Y-89355000D01*
X111860000Y-89355000D02*
X111860000Y-88855000D01*
X111860000Y-88855000D02*
X111360000Y-88855000D01*
X111360000Y-88855000D02*
X111360000Y-88355000D01*
X111360000Y-88355000D02*
X110860000Y-88355000D01*
X110860000Y-88355000D02*
X110860000Y-88855000D01*
X110860000Y-88855000D02*
X110360000Y-88855000D01*
X110360000Y-88855000D02*
X110360000Y-89355000D01*
X110360000Y-89355000D02*
X110860000Y-89355000D01*
X110860000Y-89355000D02*
X110860000Y-89855000D01*
X110860000Y-83855000D02*
X110860000Y-85355000D01*
X110860000Y-85355000D02*
X111360000Y-85355000D01*
X111360000Y-85355000D02*
X111360000Y-83855000D01*
X111360000Y-83855000D02*
X110860000Y-83855000D01*
X110860000Y-134355000D02*
X111360000Y-134355000D01*
X111360000Y-134355000D02*
X111360000Y-134855000D01*
X111360000Y-134855000D02*
X111860000Y-134855000D01*
X111860000Y-134855000D02*
X111860000Y-135355000D01*
X111860000Y-135355000D02*
X111360000Y-135355000D01*
X111360000Y-135355000D02*
X111360000Y-135855000D01*
X111360000Y-135855000D02*
X110860000Y-135855000D01*
X110860000Y-135855000D02*
X110860000Y-135355000D01*
X110860000Y-135355000D02*
X110360000Y-135355000D01*
X110360000Y-135355000D02*
X110360000Y-134855000D01*
X110360000Y-134855000D02*
X110860000Y-134855000D01*
X110860000Y-134855000D02*
X110860000Y-134355000D01*
X110860000Y-129855000D02*
X111360000Y-129855000D01*
X111360000Y-129855000D02*
X111360000Y-131355000D01*
X111360000Y-131355000D02*
X110860000Y-131355000D01*
X110860000Y-129855000D02*
X110860000Y-131355000D01*
X191860000Y-108855000D02*
X107860000Y-108855000D01*
X107860000Y-110855000D02*
X191860000Y-110855000D01*
X191860000Y-128355000D02*
X107860000Y-128355000D01*
X191860000Y-91355000D02*
X107860000Y-91355000D01*
X107860000Y-137355000D02*
X191860000Y-137355000D01*
X107860000Y-82355000D02*
X191860000Y-82355000D01*
X107860000Y-109855000D02*
X107860000Y-137355000D01*
X107860000Y-109855000D02*
X107860000Y-82355000D01*
X191860000Y-109855000D02*
X191860000Y-137355000D01*
X191860000Y-109855000D02*
X191860000Y-82355000D01*
D14*
X128330000Y-81340000D02*
X128330000Y-78680000D01*
X105410000Y-81340000D02*
X128330000Y-81340000D01*
X105410000Y-78680000D02*
X128330000Y-78680000D01*
X105410000Y-81340000D02*
X105410000Y-78680000D01*
X104140000Y-81340000D02*
X102810000Y-81340000D01*
X102810000Y-81340000D02*
X102810000Y-80010000D01*
X156270000Y-81340000D02*
X156270000Y-78680000D01*
X133350000Y-81340000D02*
X156270000Y-81340000D01*
X133350000Y-78680000D02*
X156270000Y-78680000D01*
X133350000Y-81340000D02*
X133350000Y-78680000D01*
X132080000Y-81340000D02*
X130750000Y-81340000D01*
X130750000Y-81340000D02*
X130750000Y-80010000D01*
X196910000Y-130115000D02*
X194250000Y-130115000D01*
X196910000Y-132715000D02*
X196910000Y-130115000D01*
X194250000Y-132715000D02*
X194250000Y-130115000D01*
X196910000Y-132715000D02*
X194250000Y-132715000D01*
X196910000Y-133985000D02*
X196910000Y-135315000D01*
X196910000Y-135315000D02*
X195580000Y-135315000D01*
X196910000Y-84395000D02*
X194250000Y-84395000D01*
X196910000Y-86995000D02*
X196910000Y-84395000D01*
X194250000Y-86995000D02*
X194250000Y-84395000D01*
X196910000Y-86995000D02*
X194250000Y-86995000D01*
X196910000Y-88265000D02*
X196910000Y-89595000D01*
X196910000Y-89595000D02*
X195580000Y-89595000D01*
X157480000Y-73025000D02*
X154940000Y-73025000D01*
X154940000Y-73025000D02*
X154940000Y-75695000D01*
X157480000Y-75695000D02*
X195710000Y-75695000D01*
X152270000Y-75695000D02*
X154940000Y-75695000D01*
X154940000Y-60325000D02*
X154940000Y-57655000D01*
X154940000Y-60325000D02*
X193040000Y-60325000D01*
X193040000Y-60325000D02*
X193040000Y-57655000D01*
X157480000Y-73025000D02*
X157480000Y-75695000D01*
X157480000Y-73025000D02*
X193040000Y-73025000D01*
X193040000Y-73025000D02*
X193040000Y-75695000D01*
X195710000Y-75695000D02*
X195710000Y-57655000D01*
X195710000Y-57655000D02*
X152270000Y-57655000D01*
X152270000Y-57655000D02*
X152270000Y-75695000D01*
D10*
X199842380Y-150133333D02*
X200556666Y-150133333D01*
X200699523Y-150180952D01*
X200794761Y-150276190D01*
X200842380Y-150419047D01*
X200842380Y-150514285D01*
X200842380Y-149133333D02*
X200842380Y-149704761D01*
X200842380Y-149419047D02*
X199842380Y-149419047D01*
X199985238Y-149514285D01*
X200080476Y-149609523D01*
X200128095Y-149704761D01*
X199902380Y-51133333D02*
X200616666Y-51133333D01*
X200759523Y-51180952D01*
X200854761Y-51276190D01*
X200902380Y-51419047D01*
X200902380Y-51514285D01*
X199902380Y-50752380D02*
X199902380Y-50133333D01*
X200283333Y-50466666D01*
X200283333Y-50323809D01*
X200330952Y-50228571D01*
X200378571Y-50180952D01*
X200473809Y-50133333D01*
X200711904Y-50133333D01*
X200807142Y-50180952D01*
X200854761Y-50228571D01*
X200902380Y-50323809D01*
X200902380Y-50609523D01*
X200854761Y-50704761D01*
X200807142Y-50752380D01*
X146169523Y-109783571D02*
X146312380Y-109831190D01*
X146360000Y-109878809D01*
X146407619Y-109974047D01*
X146407619Y-110116904D01*
X146360000Y-110212142D01*
X146312380Y-110259761D01*
X146217142Y-110307380D01*
X145836190Y-110307380D01*
X145836190Y-109307380D01*
X146169523Y-109307380D01*
X146264761Y-109355000D01*
X146312380Y-109402619D01*
X146360000Y-109497857D01*
X146360000Y-109593095D01*
X146312380Y-109688333D01*
X146264761Y-109735952D01*
X146169523Y-109783571D01*
X145836190Y-109783571D01*
X146836190Y-110307380D02*
X146836190Y-109640714D01*
X146836190Y-109831190D02*
X146883809Y-109735952D01*
X146931428Y-109688333D01*
X147026666Y-109640714D01*
X147121904Y-109640714D01*
X147836190Y-110259761D02*
X147740952Y-110307380D01*
X147550476Y-110307380D01*
X147455238Y-110259761D01*
X147407619Y-110164523D01*
X147407619Y-109783571D01*
X147455238Y-109688333D01*
X147550476Y-109640714D01*
X147740952Y-109640714D01*
X147836190Y-109688333D01*
X147883809Y-109783571D01*
X147883809Y-109878809D01*
X147407619Y-109974047D01*
X148740952Y-110307380D02*
X148740952Y-109783571D01*
X148693333Y-109688333D01*
X148598095Y-109640714D01*
X148407619Y-109640714D01*
X148312380Y-109688333D01*
X148740952Y-110259761D02*
X148645714Y-110307380D01*
X148407619Y-110307380D01*
X148312380Y-110259761D01*
X148264761Y-110164523D01*
X148264761Y-110069285D01*
X148312380Y-109974047D01*
X148407619Y-109926428D01*
X148645714Y-109926428D01*
X148740952Y-109878809D01*
X149645714Y-110307380D02*
X149645714Y-109307380D01*
X149645714Y-110259761D02*
X149550476Y-110307380D01*
X149360000Y-110307380D01*
X149264761Y-110259761D01*
X149217142Y-110212142D01*
X149169523Y-110116904D01*
X149169523Y-109831190D01*
X149217142Y-109735952D01*
X149264761Y-109688333D01*
X149360000Y-109640714D01*
X149550476Y-109640714D01*
X149645714Y-109688333D01*
X150121904Y-110307380D02*
X150121904Y-109307380D01*
X150121904Y-109688333D02*
X150217142Y-109640714D01*
X150407619Y-109640714D01*
X150502857Y-109688333D01*
X150550476Y-109735952D01*
X150598095Y-109831190D01*
X150598095Y-110116904D01*
X150550476Y-110212142D01*
X150502857Y-110259761D01*
X150407619Y-110307380D01*
X150217142Y-110307380D01*
X150121904Y-110259761D01*
X151169523Y-110307380D02*
X151074285Y-110259761D01*
X151026666Y-110212142D01*
X150979047Y-110116904D01*
X150979047Y-109831190D01*
X151026666Y-109735952D01*
X151074285Y-109688333D01*
X151169523Y-109640714D01*
X151312380Y-109640714D01*
X151407619Y-109688333D01*
X151455238Y-109735952D01*
X151502857Y-109831190D01*
X151502857Y-110116904D01*
X151455238Y-110212142D01*
X151407619Y-110259761D01*
X151312380Y-110307380D01*
X151169523Y-110307380D01*
X152360000Y-110307380D02*
X152360000Y-109783571D01*
X152312380Y-109688333D01*
X152217142Y-109640714D01*
X152026666Y-109640714D01*
X151931428Y-109688333D01*
X152360000Y-110259761D02*
X152264761Y-110307380D01*
X152026666Y-110307380D01*
X151931428Y-110259761D01*
X151883809Y-110164523D01*
X151883809Y-110069285D01*
X151931428Y-109974047D01*
X152026666Y-109926428D01*
X152264761Y-109926428D01*
X152360000Y-109878809D01*
X152836190Y-110307380D02*
X152836190Y-109640714D01*
X152836190Y-109831190D02*
X152883809Y-109735952D01*
X152931428Y-109688333D01*
X153026666Y-109640714D01*
X153121904Y-109640714D01*
X153883809Y-110307380D02*
X153883809Y-109307380D01*
X153883809Y-110259761D02*
X153788571Y-110307380D01*
X153598095Y-110307380D01*
X153502857Y-110259761D01*
X153455238Y-110212142D01*
X153407619Y-110116904D01*
X153407619Y-109831190D01*
X153455238Y-109735952D01*
X153502857Y-109688333D01*
X153598095Y-109640714D01*
X153788571Y-109640714D01*
X153883809Y-109688333D01*
D12*
X129901904Y-81705238D02*
X129101904Y-81705238D01*
X129101904Y-81400476D01*
X129140000Y-81324285D01*
X129178095Y-81286190D01*
X129254285Y-81248095D01*
X129368571Y-81248095D01*
X129444761Y-81286190D01*
X129482857Y-81324285D01*
X129520952Y-81400476D01*
X129520952Y-81705238D01*
X129901904Y-80790952D02*
X129863809Y-80867142D01*
X129825714Y-80905238D01*
X129749523Y-80943333D01*
X129520952Y-80943333D01*
X129444761Y-80905238D01*
X129406666Y-80867142D01*
X129368571Y-80790952D01*
X129368571Y-80676666D01*
X129406666Y-80600476D01*
X129444761Y-80562380D01*
X129520952Y-80524285D01*
X129749523Y-80524285D01*
X129825714Y-80562380D01*
X129863809Y-80600476D01*
X129901904Y-80676666D01*
X129901904Y-80790952D01*
X129901904Y-80181428D02*
X129368571Y-80181428D01*
X129520952Y-80181428D02*
X129444761Y-80143333D01*
X129406666Y-80105238D01*
X129368571Y-80029047D01*
X129368571Y-79952857D01*
X129368571Y-79800476D02*
X129368571Y-79495714D01*
X129101904Y-79686190D02*
X129787619Y-79686190D01*
X129863809Y-79648095D01*
X129901904Y-79571904D01*
X129901904Y-79495714D01*
X129673333Y-78657619D02*
X129673333Y-78276666D01*
X129901904Y-78733809D02*
X129101904Y-78467142D01*
X129901904Y-78200476D01*
X157841904Y-81762380D02*
X157041904Y-81762380D01*
X157041904Y-81457619D01*
X157080000Y-81381428D01*
X157118095Y-81343333D01*
X157194285Y-81305238D01*
X157308571Y-81305238D01*
X157384761Y-81343333D01*
X157422857Y-81381428D01*
X157460952Y-81457619D01*
X157460952Y-81762380D01*
X157841904Y-80848095D02*
X157803809Y-80924285D01*
X157765714Y-80962380D01*
X157689523Y-81000476D01*
X157460952Y-81000476D01*
X157384761Y-80962380D01*
X157346666Y-80924285D01*
X157308571Y-80848095D01*
X157308571Y-80733809D01*
X157346666Y-80657619D01*
X157384761Y-80619523D01*
X157460952Y-80581428D01*
X157689523Y-80581428D01*
X157765714Y-80619523D01*
X157803809Y-80657619D01*
X157841904Y-80733809D01*
X157841904Y-80848095D01*
X157841904Y-80238571D02*
X157308571Y-80238571D01*
X157460952Y-80238571D02*
X157384761Y-80200476D01*
X157346666Y-80162380D01*
X157308571Y-80086190D01*
X157308571Y-80010000D01*
X157308571Y-79857619D02*
X157308571Y-79552857D01*
X157041904Y-79743333D02*
X157727619Y-79743333D01*
X157803809Y-79705238D01*
X157841904Y-79629047D01*
X157841904Y-79552857D01*
X157422857Y-78410000D02*
X157460952Y-78295714D01*
X157499047Y-78257619D01*
X157575238Y-78219523D01*
X157689523Y-78219523D01*
X157765714Y-78257619D01*
X157803809Y-78295714D01*
X157841904Y-78371904D01*
X157841904Y-78676666D01*
X157041904Y-78676666D01*
X157041904Y-78410000D01*
X157080000Y-78333809D01*
X157118095Y-78295714D01*
X157194285Y-78257619D01*
X157270476Y-78257619D01*
X157346666Y-78295714D01*
X157384761Y-78333809D01*
X157422857Y-78410000D01*
X157422857Y-78676666D01*
D10*
X151296666Y-67389285D02*
X151296666Y-66913095D01*
X151582380Y-67484523D02*
X150582380Y-67151190D01*
X151582380Y-66817857D01*
X151582380Y-65960714D02*
X151582380Y-66532142D01*
X151582380Y-66246428D02*
X150582380Y-66246428D01*
X150725238Y-66341666D01*
X150820476Y-66436904D01*
X150868095Y-66532142D01*
X168521904Y-65571666D02*
X168998095Y-65571666D01*
X168426666Y-65857380D02*
X168760000Y-64857380D01*
X169093333Y-65857380D01*
X169426666Y-65857380D02*
X169426666Y-65190714D01*
X169426666Y-65381190D02*
X169474285Y-65285952D01*
X169521904Y-65238333D01*
X169617142Y-65190714D01*
X169712380Y-65190714D01*
X170474285Y-65857380D02*
X170474285Y-64857380D01*
X170474285Y-65809761D02*
X170379047Y-65857380D01*
X170188571Y-65857380D01*
X170093333Y-65809761D01*
X170045714Y-65762142D01*
X169998095Y-65666904D01*
X169998095Y-65381190D01*
X170045714Y-65285952D01*
X170093333Y-65238333D01*
X170188571Y-65190714D01*
X170379047Y-65190714D01*
X170474285Y-65238333D01*
X171379047Y-65190714D02*
X171379047Y-65857380D01*
X170950476Y-65190714D02*
X170950476Y-65714523D01*
X170998095Y-65809761D01*
X171093333Y-65857380D01*
X171236190Y-65857380D01*
X171331428Y-65809761D01*
X171379047Y-65762142D01*
X171855238Y-65857380D02*
X171855238Y-65190714D01*
X171855238Y-64857380D02*
X171807619Y-64905000D01*
X171855238Y-64952619D01*
X171902857Y-64905000D01*
X171855238Y-64857380D01*
X171855238Y-64952619D01*
X172331428Y-65190714D02*
X172331428Y-65857380D01*
X172331428Y-65285952D02*
X172379047Y-65238333D01*
X172474285Y-65190714D01*
X172617142Y-65190714D01*
X172712380Y-65238333D01*
X172760000Y-65333571D01*
X172760000Y-65857380D01*
X173379047Y-65857380D02*
X173283809Y-65809761D01*
X173236190Y-65762142D01*
X173188571Y-65666904D01*
X173188571Y-65381190D01*
X173236190Y-65285952D01*
X173283809Y-65238333D01*
X173379047Y-65190714D01*
X173521904Y-65190714D01*
X173617142Y-65238333D01*
X173664761Y-65285952D01*
X173712380Y-65381190D01*
X173712380Y-65666904D01*
X173664761Y-65762142D01*
X173617142Y-65809761D01*
X173521904Y-65857380D01*
X173379047Y-65857380D01*
X173902857Y-65952619D02*
X174664761Y-65952619D01*
X174902857Y-65857380D02*
X174902857Y-64857380D01*
X175474285Y-65857380D01*
X175474285Y-64857380D01*
X176379047Y-65857380D02*
X176379047Y-65333571D01*
X176331428Y-65238333D01*
X176236190Y-65190714D01*
X176045714Y-65190714D01*
X175950476Y-65238333D01*
X176379047Y-65809761D02*
X176283809Y-65857380D01*
X176045714Y-65857380D01*
X175950476Y-65809761D01*
X175902857Y-65714523D01*
X175902857Y-65619285D01*
X175950476Y-65524047D01*
X176045714Y-65476428D01*
X176283809Y-65476428D01*
X176379047Y-65428809D01*
X176855238Y-65190714D02*
X176855238Y-65857380D01*
X176855238Y-65285952D02*
X176902857Y-65238333D01*
X176998095Y-65190714D01*
X177140952Y-65190714D01*
X177236190Y-65238333D01*
X177283809Y-65333571D01*
X177283809Y-65857380D01*
X177902857Y-65857380D02*
X177807619Y-65809761D01*
X177760000Y-65762142D01*
X177712380Y-65666904D01*
X177712380Y-65381190D01*
X177760000Y-65285952D01*
X177807619Y-65238333D01*
X177902857Y-65190714D01*
X178045714Y-65190714D01*
X178140952Y-65238333D01*
X178188571Y-65285952D01*
X178236190Y-65381190D01*
X178236190Y-65666904D01*
X178188571Y-65762142D01*
X178140952Y-65809761D01*
X178045714Y-65857380D01*
X177902857Y-65857380D01*
X178426666Y-65952619D02*
X179188571Y-65952619D01*
X179331428Y-65190714D02*
X179569523Y-65857380D01*
X179807619Y-65190714D01*
X180093333Y-64857380D02*
X180712380Y-64857380D01*
X180379047Y-65238333D01*
X180521904Y-65238333D01*
X180617142Y-65285952D01*
X180664761Y-65333571D01*
X180712380Y-65428809D01*
X180712380Y-65666904D01*
X180664761Y-65762142D01*
X180617142Y-65809761D01*
X180521904Y-65857380D01*
X180236190Y-65857380D01*
X180140952Y-65809761D01*
X180093333Y-65762142D01*
X181140952Y-65762142D02*
X181188571Y-65809761D01*
X181140952Y-65857380D01*
X181093333Y-65809761D01*
X181140952Y-65762142D01*
X181140952Y-65857380D01*
X181521904Y-65857380D02*
X182045714Y-65190714D01*
X181521904Y-65190714D02*
X182045714Y-65857380D01*
X174545714Y-68111666D02*
X175021904Y-68111666D01*
X174450476Y-68397380D02*
X174783809Y-67397380D01*
X175117142Y-68397380D01*
X175974285Y-68397380D02*
X175402857Y-68397380D01*
X175688571Y-68397380D02*
X175688571Y-67397380D01*
X175593333Y-67540238D01*
X175498095Y-67635476D01*
X175402857Y-67683095D01*
M02*
