M48
;DRILL file {KiCad 4.0.7} date 01/10/20 21:54:55
;FORMAT={2:4/ absolute / inch / suppress leading zeros}
FMAT,2
INCH,TZ
T1C0.016
T2C0.031
T3C0.039
T4C0.120
%
G90
G05
M72
T1
X40000Y-20750
X40000Y-56500
X42250Y-27750
X43250Y-27500
X43750Y-28250
X44250Y-27250
X44750Y-28000
X45250Y-27000
X46250Y-26750
X47250Y-26500
X48250Y-26250
X49250Y-26000
X51500Y-21500
X52500Y-21250
X53250Y-25750
X53500Y-21000
X54250Y-25500
X54500Y-20750
X55250Y-25250
X55750Y-24000
X56250Y-25000
X56750Y-24250
X57250Y-24750
X57750Y-24500
X58500Y-24750
X58750Y-24250
X59250Y-24250
X59500Y-20500
X59750Y-24000
X60250Y-24000
X61000Y-23750
X61250Y-28250
X62250Y-28000
X62500Y-34750
X62500Y-52750
X63250Y-21750
X65250Y-21500
X65250Y-27750
X66250Y-21250
X66250Y-27500
X67000Y-25000
X67250Y-21000
X67250Y-27250
X68000Y-25250
X68250Y-20750
X68250Y-27000
X69000Y-25500
X69250Y-26750
X70000Y-25750
X70250Y-26500
X71000Y-26000
X71250Y-26250
X72000Y-26250
X72250Y-26000
X73000Y-26500
X73250Y-25750
X73500Y-20750
X74000Y-26750
X74250Y-21750
X74250Y-25500
X75000Y-27000
X75250Y-25250
X75750Y-27250
X76750Y-27500
X77000Y-27750
X78250Y-27750
T2
X61500Y-23250
X61500Y-29250
X62500Y-23250
X62500Y-29250
X63500Y-23250
X63500Y-29250
X64500Y-23250
X64500Y-29250
X65500Y-23250
X65500Y-29250
X66500Y-23250
X66500Y-29250
X67500Y-23250
X67500Y-29250
X68500Y-23250
X68500Y-29250
X69500Y-23250
X69500Y-29250
X70500Y-23250
X70500Y-29250
X71500Y-23250
X71500Y-29250
X72500Y-23250
X72500Y-29250
X73500Y-23250
X73500Y-29250
X74500Y-23250
X74500Y-29250
X75500Y-23250
X75500Y-29250
T3
X40000Y-20000
X40000Y-57250
X41000Y-20000
X41000Y-31500
X41000Y-57250
X42000Y-20000
X42000Y-31500
X42000Y-57250
X43000Y-20000
X43000Y-31500
X43000Y-57250
X44000Y-20000
X44000Y-31500
X44000Y-57250
X45000Y-20000
X45000Y-31500
X45000Y-57250
X46000Y-20000
X46000Y-31500
X46000Y-57250
X47000Y-20000
X47000Y-31500
X47000Y-57250
X48000Y-20000
X48000Y-31500
X48000Y-57250
X49000Y-20000
X49000Y-31500
X49000Y-57250
X50000Y-20000
X50000Y-31500
X50000Y-57250
X51000Y-20000
X51000Y-57250
X52000Y-20000
X52000Y-31500
X52000Y-57250
X53000Y-20000
X53000Y-31500
X53000Y-57250
X54000Y-20000
X54000Y-31500
X54000Y-57250
X55000Y-20000
X55000Y-31500
X55000Y-57250
X56000Y-20000
X56000Y-31500
X56000Y-57250
X57000Y-20000
X57000Y-31500
X57000Y-57250
X58000Y-20000
X58000Y-31500
X58000Y-57250
X59000Y-20000
X59000Y-31500
X59000Y-57250
X60000Y-20000
X60000Y-31500
X60000Y-57250
X61000Y-20000
X61000Y-31500
X61000Y-57250
X62000Y-20000
X62000Y-57250
X63000Y-20000
X63000Y-57250
X64000Y-20000
X64000Y-57250
X65000Y-20000
X65000Y-57250
X66000Y-20000
X66000Y-57250
X67000Y-20000
X67000Y-57250
X68000Y-20000
X68000Y-57250
X69000Y-20000
X69000Y-57250
X70000Y-20000
X70000Y-57250
X71000Y-20000
X71000Y-57250
X72000Y-20000
X72000Y-57250
X73000Y-20000
X73000Y-57250
X74000Y-20000
X74000Y-57250
X75000Y-20000
X75000Y-57250
X76000Y-20000
X76000Y-57250
X77000Y-20000
X77000Y-33750
X77000Y-34750
X77000Y-51750
X77000Y-52750
X77000Y-57250
X78000Y-20000
X78000Y-57250
T4
X41000Y-22000
X41000Y-55250
X77000Y-22000
X77000Y-55250
T0
M30
