G04 #@! TF.FileFunction,Legend,Top*
%FSLAX46Y46*%
G04 Gerber Fmt 4.6, Leading zero omitted, Abs format (unit mm)*
G04 Created by KiCad (PCBNEW 4.0.7) date 01/10/20 21:54:51*
%MOMM*%
%LPD*%
G01*
G04 APERTURE LIST*
%ADD10C,0.100000*%
%ADD11C,0.150000*%
%ADD12C,0.200000*%
%ADD13C,0.300000*%
%ADD14C,0.120000*%
G04 APERTURE END LIST*
D10*
D11*
X150312381Y-77866905D02*
X149312381Y-77866905D01*
X149312381Y-77628810D01*
X149360000Y-77485952D01*
X149455238Y-77390714D01*
X149550476Y-77343095D01*
X149740952Y-77295476D01*
X149883810Y-77295476D01*
X150074286Y-77343095D01*
X150169524Y-77390714D01*
X150264762Y-77485952D01*
X150312381Y-77628810D01*
X150312381Y-77866905D01*
X150312381Y-76343095D02*
X150312381Y-76914524D01*
X150312381Y-76628810D02*
X149312381Y-76628810D01*
X149455238Y-76724048D01*
X149550476Y-76819286D01*
X149598095Y-76914524D01*
X149312381Y-76009762D02*
X149312381Y-75343095D01*
X150312381Y-75771667D01*
X147772381Y-77866905D02*
X146772381Y-77866905D01*
X146772381Y-77628810D01*
X146820000Y-77485952D01*
X146915238Y-77390714D01*
X147010476Y-77343095D01*
X147200952Y-77295476D01*
X147343810Y-77295476D01*
X147534286Y-77343095D01*
X147629524Y-77390714D01*
X147724762Y-77485952D01*
X147772381Y-77628810D01*
X147772381Y-77866905D01*
X147772381Y-76343095D02*
X147772381Y-76914524D01*
X147772381Y-76628810D02*
X146772381Y-76628810D01*
X146915238Y-76724048D01*
X147010476Y-76819286D01*
X147058095Y-76914524D01*
X146772381Y-75485952D02*
X146772381Y-75676429D01*
X146820000Y-75771667D01*
X146867619Y-75819286D01*
X147010476Y-75914524D01*
X147200952Y-75962143D01*
X147581905Y-75962143D01*
X147677143Y-75914524D01*
X147724762Y-75866905D01*
X147772381Y-75771667D01*
X147772381Y-75581190D01*
X147724762Y-75485952D01*
X147677143Y-75438333D01*
X147581905Y-75390714D01*
X147343810Y-75390714D01*
X147248571Y-75438333D01*
X147200952Y-75485952D01*
X147153333Y-75581190D01*
X147153333Y-75771667D01*
X147200952Y-75866905D01*
X147248571Y-75914524D01*
X147343810Y-75962143D01*
X145232381Y-77866905D02*
X144232381Y-77866905D01*
X144232381Y-77628810D01*
X144280000Y-77485952D01*
X144375238Y-77390714D01*
X144470476Y-77343095D01*
X144660952Y-77295476D01*
X144803810Y-77295476D01*
X144994286Y-77343095D01*
X145089524Y-77390714D01*
X145184762Y-77485952D01*
X145232381Y-77628810D01*
X145232381Y-77866905D01*
X145232381Y-76343095D02*
X145232381Y-76914524D01*
X145232381Y-76628810D02*
X144232381Y-76628810D01*
X144375238Y-76724048D01*
X144470476Y-76819286D01*
X144518095Y-76914524D01*
X144232381Y-75438333D02*
X144232381Y-75914524D01*
X144708571Y-75962143D01*
X144660952Y-75914524D01*
X144613333Y-75819286D01*
X144613333Y-75581190D01*
X144660952Y-75485952D01*
X144708571Y-75438333D01*
X144803810Y-75390714D01*
X145041905Y-75390714D01*
X145137143Y-75438333D01*
X145184762Y-75485952D01*
X145232381Y-75581190D01*
X145232381Y-75819286D01*
X145184762Y-75914524D01*
X145137143Y-75962143D01*
X142692381Y-77866905D02*
X141692381Y-77866905D01*
X141692381Y-77628810D01*
X141740000Y-77485952D01*
X141835238Y-77390714D01*
X141930476Y-77343095D01*
X142120952Y-77295476D01*
X142263810Y-77295476D01*
X142454286Y-77343095D01*
X142549524Y-77390714D01*
X142644762Y-77485952D01*
X142692381Y-77628810D01*
X142692381Y-77866905D01*
X142692381Y-76343095D02*
X142692381Y-76914524D01*
X142692381Y-76628810D02*
X141692381Y-76628810D01*
X141835238Y-76724048D01*
X141930476Y-76819286D01*
X141978095Y-76914524D01*
X142025714Y-75485952D02*
X142692381Y-75485952D01*
X141644762Y-75724048D02*
X142359048Y-75962143D01*
X142359048Y-75343095D01*
X140152381Y-77866905D02*
X139152381Y-77866905D01*
X139152381Y-77628810D01*
X139200000Y-77485952D01*
X139295238Y-77390714D01*
X139390476Y-77343095D01*
X139580952Y-77295476D01*
X139723810Y-77295476D01*
X139914286Y-77343095D01*
X140009524Y-77390714D01*
X140104762Y-77485952D01*
X140152381Y-77628810D01*
X140152381Y-77866905D01*
X140152381Y-76343095D02*
X140152381Y-76914524D01*
X140152381Y-76628810D02*
X139152381Y-76628810D01*
X139295238Y-76724048D01*
X139390476Y-76819286D01*
X139438095Y-76914524D01*
X139152381Y-76009762D02*
X139152381Y-75390714D01*
X139533333Y-75724048D01*
X139533333Y-75581190D01*
X139580952Y-75485952D01*
X139628571Y-75438333D01*
X139723810Y-75390714D01*
X139961905Y-75390714D01*
X140057143Y-75438333D01*
X140104762Y-75485952D01*
X140152381Y-75581190D01*
X140152381Y-75866905D01*
X140104762Y-75962143D01*
X140057143Y-76009762D01*
X137612381Y-77866905D02*
X136612381Y-77866905D01*
X136612381Y-77628810D01*
X136660000Y-77485952D01*
X136755238Y-77390714D01*
X136850476Y-77343095D01*
X137040952Y-77295476D01*
X137183810Y-77295476D01*
X137374286Y-77343095D01*
X137469524Y-77390714D01*
X137564762Y-77485952D01*
X137612381Y-77628810D01*
X137612381Y-77866905D01*
X137612381Y-76343095D02*
X137612381Y-76914524D01*
X137612381Y-76628810D02*
X136612381Y-76628810D01*
X136755238Y-76724048D01*
X136850476Y-76819286D01*
X136898095Y-76914524D01*
X136707619Y-75962143D02*
X136660000Y-75914524D01*
X136612381Y-75819286D01*
X136612381Y-75581190D01*
X136660000Y-75485952D01*
X136707619Y-75438333D01*
X136802857Y-75390714D01*
X136898095Y-75390714D01*
X137040952Y-75438333D01*
X137612381Y-76009762D01*
X137612381Y-75390714D01*
X135072381Y-77866905D02*
X134072381Y-77866905D01*
X134072381Y-77628810D01*
X134120000Y-77485952D01*
X134215238Y-77390714D01*
X134310476Y-77343095D01*
X134500952Y-77295476D01*
X134643810Y-77295476D01*
X134834286Y-77343095D01*
X134929524Y-77390714D01*
X135024762Y-77485952D01*
X135072381Y-77628810D01*
X135072381Y-77866905D01*
X135072381Y-76343095D02*
X135072381Y-76914524D01*
X135072381Y-76628810D02*
X134072381Y-76628810D01*
X134215238Y-76724048D01*
X134310476Y-76819286D01*
X134358095Y-76914524D01*
X135072381Y-75390714D02*
X135072381Y-75962143D01*
X135072381Y-75676429D02*
X134072381Y-75676429D01*
X134215238Y-75771667D01*
X134310476Y-75866905D01*
X134358095Y-75962143D01*
X132532381Y-77866905D02*
X131532381Y-77866905D01*
X131532381Y-77628810D01*
X131580000Y-77485952D01*
X131675238Y-77390714D01*
X131770476Y-77343095D01*
X131960952Y-77295476D01*
X132103810Y-77295476D01*
X132294286Y-77343095D01*
X132389524Y-77390714D01*
X132484762Y-77485952D01*
X132532381Y-77628810D01*
X132532381Y-77866905D01*
X132532381Y-76343095D02*
X132532381Y-76914524D01*
X132532381Y-76628810D02*
X131532381Y-76628810D01*
X131675238Y-76724048D01*
X131770476Y-76819286D01*
X131818095Y-76914524D01*
X131532381Y-75724048D02*
X131532381Y-75628809D01*
X131580000Y-75533571D01*
X131627619Y-75485952D01*
X131722857Y-75438333D01*
X131913333Y-75390714D01*
X132151429Y-75390714D01*
X132341905Y-75438333D01*
X132437143Y-75485952D01*
X132484762Y-75533571D01*
X132532381Y-75628809D01*
X132532381Y-75724048D01*
X132484762Y-75819286D01*
X132437143Y-75866905D01*
X132341905Y-75914524D01*
X132151429Y-75962143D01*
X131913333Y-75962143D01*
X131722857Y-75914524D01*
X131627619Y-75866905D01*
X131580000Y-75819286D01*
X131532381Y-75724048D01*
X122372381Y-77866905D02*
X121372381Y-77866905D01*
X121372381Y-77628810D01*
X121420000Y-77485952D01*
X121515238Y-77390714D01*
X121610476Y-77343095D01*
X121800952Y-77295476D01*
X121943810Y-77295476D01*
X122134286Y-77343095D01*
X122229524Y-77390714D01*
X122324762Y-77485952D01*
X122372381Y-77628810D01*
X122372381Y-77866905D01*
X122372381Y-76819286D02*
X122372381Y-76628810D01*
X122324762Y-76533571D01*
X122277143Y-76485952D01*
X122134286Y-76390714D01*
X121943810Y-76343095D01*
X121562857Y-76343095D01*
X121467619Y-76390714D01*
X121420000Y-76438333D01*
X121372381Y-76533571D01*
X121372381Y-76724048D01*
X121420000Y-76819286D01*
X121467619Y-76866905D01*
X121562857Y-76914524D01*
X121800952Y-76914524D01*
X121896190Y-76866905D01*
X121943810Y-76819286D01*
X121991429Y-76724048D01*
X121991429Y-76533571D01*
X121943810Y-76438333D01*
X121896190Y-76390714D01*
X121800952Y-76343095D01*
X119832381Y-77866905D02*
X118832381Y-77866905D01*
X118832381Y-77628810D01*
X118880000Y-77485952D01*
X118975238Y-77390714D01*
X119070476Y-77343095D01*
X119260952Y-77295476D01*
X119403810Y-77295476D01*
X119594286Y-77343095D01*
X119689524Y-77390714D01*
X119784762Y-77485952D01*
X119832381Y-77628810D01*
X119832381Y-77866905D01*
X119260952Y-76724048D02*
X119213333Y-76819286D01*
X119165714Y-76866905D01*
X119070476Y-76914524D01*
X119022857Y-76914524D01*
X118927619Y-76866905D01*
X118880000Y-76819286D01*
X118832381Y-76724048D01*
X118832381Y-76533571D01*
X118880000Y-76438333D01*
X118927619Y-76390714D01*
X119022857Y-76343095D01*
X119070476Y-76343095D01*
X119165714Y-76390714D01*
X119213333Y-76438333D01*
X119260952Y-76533571D01*
X119260952Y-76724048D01*
X119308571Y-76819286D01*
X119356190Y-76866905D01*
X119451429Y-76914524D01*
X119641905Y-76914524D01*
X119737143Y-76866905D01*
X119784762Y-76819286D01*
X119832381Y-76724048D01*
X119832381Y-76533571D01*
X119784762Y-76438333D01*
X119737143Y-76390714D01*
X119641905Y-76343095D01*
X119451429Y-76343095D01*
X119356190Y-76390714D01*
X119308571Y-76438333D01*
X119260952Y-76533571D01*
X117292381Y-77866905D02*
X116292381Y-77866905D01*
X116292381Y-77628810D01*
X116340000Y-77485952D01*
X116435238Y-77390714D01*
X116530476Y-77343095D01*
X116720952Y-77295476D01*
X116863810Y-77295476D01*
X117054286Y-77343095D01*
X117149524Y-77390714D01*
X117244762Y-77485952D01*
X117292381Y-77628810D01*
X117292381Y-77866905D01*
X116292381Y-76962143D02*
X116292381Y-76295476D01*
X117292381Y-76724048D01*
X114752381Y-77866905D02*
X113752381Y-77866905D01*
X113752381Y-77628810D01*
X113800000Y-77485952D01*
X113895238Y-77390714D01*
X113990476Y-77343095D01*
X114180952Y-77295476D01*
X114323810Y-77295476D01*
X114514286Y-77343095D01*
X114609524Y-77390714D01*
X114704762Y-77485952D01*
X114752381Y-77628810D01*
X114752381Y-77866905D01*
X113752381Y-76438333D02*
X113752381Y-76628810D01*
X113800000Y-76724048D01*
X113847619Y-76771667D01*
X113990476Y-76866905D01*
X114180952Y-76914524D01*
X114561905Y-76914524D01*
X114657143Y-76866905D01*
X114704762Y-76819286D01*
X114752381Y-76724048D01*
X114752381Y-76533571D01*
X114704762Y-76438333D01*
X114657143Y-76390714D01*
X114561905Y-76343095D01*
X114323810Y-76343095D01*
X114228571Y-76390714D01*
X114180952Y-76438333D01*
X114133333Y-76533571D01*
X114133333Y-76724048D01*
X114180952Y-76819286D01*
X114228571Y-76866905D01*
X114323810Y-76914524D01*
X112212381Y-77866905D02*
X111212381Y-77866905D01*
X111212381Y-77628810D01*
X111260000Y-77485952D01*
X111355238Y-77390714D01*
X111450476Y-77343095D01*
X111640952Y-77295476D01*
X111783810Y-77295476D01*
X111974286Y-77343095D01*
X112069524Y-77390714D01*
X112164762Y-77485952D01*
X112212381Y-77628810D01*
X112212381Y-77866905D01*
X111212381Y-76390714D02*
X111212381Y-76866905D01*
X111688571Y-76914524D01*
X111640952Y-76866905D01*
X111593333Y-76771667D01*
X111593333Y-76533571D01*
X111640952Y-76438333D01*
X111688571Y-76390714D01*
X111783810Y-76343095D01*
X112021905Y-76343095D01*
X112117143Y-76390714D01*
X112164762Y-76438333D01*
X112212381Y-76533571D01*
X112212381Y-76771667D01*
X112164762Y-76866905D01*
X112117143Y-76914524D01*
X109672381Y-77866905D02*
X108672381Y-77866905D01*
X108672381Y-77628810D01*
X108720000Y-77485952D01*
X108815238Y-77390714D01*
X108910476Y-77343095D01*
X109100952Y-77295476D01*
X109243810Y-77295476D01*
X109434286Y-77343095D01*
X109529524Y-77390714D01*
X109624762Y-77485952D01*
X109672381Y-77628810D01*
X109672381Y-77866905D01*
X109005714Y-76438333D02*
X109672381Y-76438333D01*
X108624762Y-76676429D02*
X109339048Y-76914524D01*
X109339048Y-76295476D01*
X107132381Y-77866905D02*
X106132381Y-77866905D01*
X106132381Y-77628810D01*
X106180000Y-77485952D01*
X106275238Y-77390714D01*
X106370476Y-77343095D01*
X106560952Y-77295476D01*
X106703810Y-77295476D01*
X106894286Y-77343095D01*
X106989524Y-77390714D01*
X107084762Y-77485952D01*
X107132381Y-77628810D01*
X107132381Y-77866905D01*
X106132381Y-76962143D02*
X106132381Y-76343095D01*
X106513333Y-76676429D01*
X106513333Y-76533571D01*
X106560952Y-76438333D01*
X106608571Y-76390714D01*
X106703810Y-76343095D01*
X106941905Y-76343095D01*
X107037143Y-76390714D01*
X107084762Y-76438333D01*
X107132381Y-76533571D01*
X107132381Y-76819286D01*
X107084762Y-76914524D01*
X107037143Y-76962143D01*
X104592381Y-77866905D02*
X103592381Y-77866905D01*
X103592381Y-77628810D01*
X103640000Y-77485952D01*
X103735238Y-77390714D01*
X103830476Y-77343095D01*
X104020952Y-77295476D01*
X104163810Y-77295476D01*
X104354286Y-77343095D01*
X104449524Y-77390714D01*
X104544762Y-77485952D01*
X104592381Y-77628810D01*
X104592381Y-77866905D01*
X103687619Y-76914524D02*
X103640000Y-76866905D01*
X103592381Y-76771667D01*
X103592381Y-76533571D01*
X103640000Y-76438333D01*
X103687619Y-76390714D01*
X103782857Y-76343095D01*
X103878095Y-76343095D01*
X104020952Y-76390714D01*
X104592381Y-76962143D01*
X104592381Y-76343095D01*
X159472381Y-143367143D02*
X159472381Y-142748095D01*
X159853333Y-143081429D01*
X159853333Y-142938571D01*
X159900952Y-142843333D01*
X159948571Y-142795714D01*
X160043810Y-142748095D01*
X160281905Y-142748095D01*
X160377143Y-142795714D01*
X160424762Y-142843333D01*
X160472381Y-142938571D01*
X160472381Y-143224286D01*
X160424762Y-143319524D01*
X160377143Y-143367143D01*
X160377143Y-142319524D02*
X160424762Y-142271905D01*
X160472381Y-142319524D01*
X160424762Y-142367143D01*
X160377143Y-142319524D01*
X160472381Y-142319524D01*
X159472381Y-141938572D02*
X159472381Y-141319524D01*
X159853333Y-141652858D01*
X159853333Y-141510000D01*
X159900952Y-141414762D01*
X159948571Y-141367143D01*
X160043810Y-141319524D01*
X160281905Y-141319524D01*
X160377143Y-141367143D01*
X160424762Y-141414762D01*
X160472381Y-141510000D01*
X160472381Y-141795715D01*
X160424762Y-141890953D01*
X160377143Y-141938572D01*
X159472381Y-141033810D02*
X160472381Y-140700477D01*
X159472381Y-140367143D01*
X193492381Y-143271905D02*
X192492381Y-143271905D01*
X192492381Y-143033810D01*
X192540000Y-142890952D01*
X192635238Y-142795714D01*
X192730476Y-142748095D01*
X192920952Y-142700476D01*
X193063810Y-142700476D01*
X193254286Y-142748095D01*
X193349524Y-142795714D01*
X193444762Y-142890952D01*
X193492381Y-143033810D01*
X193492381Y-143271905D01*
X192825714Y-141843333D02*
X193492381Y-141843333D01*
X192444762Y-142081429D02*
X193159048Y-142319524D01*
X193159048Y-141700476D01*
X190952381Y-143271905D02*
X189952381Y-143271905D01*
X189952381Y-143033810D01*
X190000000Y-142890952D01*
X190095238Y-142795714D01*
X190190476Y-142748095D01*
X190380952Y-142700476D01*
X190523810Y-142700476D01*
X190714286Y-142748095D01*
X190809524Y-142795714D01*
X190904762Y-142890952D01*
X190952381Y-143033810D01*
X190952381Y-143271905D01*
X189952381Y-141795714D02*
X189952381Y-142271905D01*
X190428571Y-142319524D01*
X190380952Y-142271905D01*
X190333333Y-142176667D01*
X190333333Y-141938571D01*
X190380952Y-141843333D01*
X190428571Y-141795714D01*
X190523810Y-141748095D01*
X190761905Y-141748095D01*
X190857143Y-141795714D01*
X190904762Y-141843333D01*
X190952381Y-141938571D01*
X190952381Y-142176667D01*
X190904762Y-142271905D01*
X190857143Y-142319524D01*
X188412381Y-143271905D02*
X187412381Y-143271905D01*
X187412381Y-143033810D01*
X187460000Y-142890952D01*
X187555238Y-142795714D01*
X187650476Y-142748095D01*
X187840952Y-142700476D01*
X187983810Y-142700476D01*
X188174286Y-142748095D01*
X188269524Y-142795714D01*
X188364762Y-142890952D01*
X188412381Y-143033810D01*
X188412381Y-143271905D01*
X187412381Y-141843333D02*
X187412381Y-142033810D01*
X187460000Y-142129048D01*
X187507619Y-142176667D01*
X187650476Y-142271905D01*
X187840952Y-142319524D01*
X188221905Y-142319524D01*
X188317143Y-142271905D01*
X188364762Y-142224286D01*
X188412381Y-142129048D01*
X188412381Y-141938571D01*
X188364762Y-141843333D01*
X188317143Y-141795714D01*
X188221905Y-141748095D01*
X187983810Y-141748095D01*
X187888571Y-141795714D01*
X187840952Y-141843333D01*
X187793333Y-141938571D01*
X187793333Y-142129048D01*
X187840952Y-142224286D01*
X187888571Y-142271905D01*
X187983810Y-142319524D01*
X185872381Y-143271905D02*
X184872381Y-143271905D01*
X184872381Y-143033810D01*
X184920000Y-142890952D01*
X185015238Y-142795714D01*
X185110476Y-142748095D01*
X185300952Y-142700476D01*
X185443810Y-142700476D01*
X185634286Y-142748095D01*
X185729524Y-142795714D01*
X185824762Y-142890952D01*
X185872381Y-143033810D01*
X185872381Y-143271905D01*
X184872381Y-142367143D02*
X184872381Y-141700476D01*
X185872381Y-142129048D01*
X183332381Y-143271905D02*
X182332381Y-143271905D01*
X182332381Y-143033810D01*
X182380000Y-142890952D01*
X182475238Y-142795714D01*
X182570476Y-142748095D01*
X182760952Y-142700476D01*
X182903810Y-142700476D01*
X183094286Y-142748095D01*
X183189524Y-142795714D01*
X183284762Y-142890952D01*
X183332381Y-143033810D01*
X183332381Y-143271905D01*
X182760952Y-142129048D02*
X182713333Y-142224286D01*
X182665714Y-142271905D01*
X182570476Y-142319524D01*
X182522857Y-142319524D01*
X182427619Y-142271905D01*
X182380000Y-142224286D01*
X182332381Y-142129048D01*
X182332381Y-141938571D01*
X182380000Y-141843333D01*
X182427619Y-141795714D01*
X182522857Y-141748095D01*
X182570476Y-141748095D01*
X182665714Y-141795714D01*
X182713333Y-141843333D01*
X182760952Y-141938571D01*
X182760952Y-142129048D01*
X182808571Y-142224286D01*
X182856190Y-142271905D01*
X182951429Y-142319524D01*
X183141905Y-142319524D01*
X183237143Y-142271905D01*
X183284762Y-142224286D01*
X183332381Y-142129048D01*
X183332381Y-141938571D01*
X183284762Y-141843333D01*
X183237143Y-141795714D01*
X183141905Y-141748095D01*
X182951429Y-141748095D01*
X182856190Y-141795714D01*
X182808571Y-141843333D01*
X182760952Y-141938571D01*
X180792381Y-143271905D02*
X179792381Y-143271905D01*
X179792381Y-143033810D01*
X179840000Y-142890952D01*
X179935238Y-142795714D01*
X180030476Y-142748095D01*
X180220952Y-142700476D01*
X180363810Y-142700476D01*
X180554286Y-142748095D01*
X180649524Y-142795714D01*
X180744762Y-142890952D01*
X180792381Y-143033810D01*
X180792381Y-143271905D01*
X180792381Y-142224286D02*
X180792381Y-142033810D01*
X180744762Y-141938571D01*
X180697143Y-141890952D01*
X180554286Y-141795714D01*
X180363810Y-141748095D01*
X179982857Y-141748095D01*
X179887619Y-141795714D01*
X179840000Y-141843333D01*
X179792381Y-141938571D01*
X179792381Y-142129048D01*
X179840000Y-142224286D01*
X179887619Y-142271905D01*
X179982857Y-142319524D01*
X180220952Y-142319524D01*
X180316190Y-142271905D01*
X180363810Y-142224286D01*
X180411429Y-142129048D01*
X180411429Y-141938571D01*
X180363810Y-141843333D01*
X180316190Y-141795714D01*
X180220952Y-141748095D01*
X178252381Y-143271905D02*
X177252381Y-143271905D01*
X177252381Y-143033810D01*
X177300000Y-142890952D01*
X177395238Y-142795714D01*
X177490476Y-142748095D01*
X177680952Y-142700476D01*
X177823810Y-142700476D01*
X178014286Y-142748095D01*
X178109524Y-142795714D01*
X178204762Y-142890952D01*
X178252381Y-143033810D01*
X178252381Y-143271905D01*
X178252381Y-141748095D02*
X178252381Y-142319524D01*
X178252381Y-142033810D02*
X177252381Y-142033810D01*
X177395238Y-142129048D01*
X177490476Y-142224286D01*
X177538095Y-142319524D01*
X177252381Y-141129048D02*
X177252381Y-141033809D01*
X177300000Y-140938571D01*
X177347619Y-140890952D01*
X177442857Y-140843333D01*
X177633333Y-140795714D01*
X177871429Y-140795714D01*
X178061905Y-140843333D01*
X178157143Y-140890952D01*
X178204762Y-140938571D01*
X178252381Y-141033809D01*
X178252381Y-141129048D01*
X178204762Y-141224286D01*
X178157143Y-141271905D01*
X178061905Y-141319524D01*
X177871429Y-141367143D01*
X177633333Y-141367143D01*
X177442857Y-141319524D01*
X177347619Y-141271905D01*
X177300000Y-141224286D01*
X177252381Y-141129048D01*
X175712381Y-143271905D02*
X174712381Y-143271905D01*
X174712381Y-143033810D01*
X174760000Y-142890952D01*
X174855238Y-142795714D01*
X174950476Y-142748095D01*
X175140952Y-142700476D01*
X175283810Y-142700476D01*
X175474286Y-142748095D01*
X175569524Y-142795714D01*
X175664762Y-142890952D01*
X175712381Y-143033810D01*
X175712381Y-143271905D01*
X175712381Y-141748095D02*
X175712381Y-142319524D01*
X175712381Y-142033810D02*
X174712381Y-142033810D01*
X174855238Y-142129048D01*
X174950476Y-142224286D01*
X174998095Y-142319524D01*
X175712381Y-140795714D02*
X175712381Y-141367143D01*
X175712381Y-141081429D02*
X174712381Y-141081429D01*
X174855238Y-141176667D01*
X174950476Y-141271905D01*
X174998095Y-141367143D01*
X173172381Y-143271905D02*
X172172381Y-143271905D01*
X172172381Y-143033810D01*
X172220000Y-142890952D01*
X172315238Y-142795714D01*
X172410476Y-142748095D01*
X172600952Y-142700476D01*
X172743810Y-142700476D01*
X172934286Y-142748095D01*
X173029524Y-142795714D01*
X173124762Y-142890952D01*
X173172381Y-143033810D01*
X173172381Y-143271905D01*
X173172381Y-141748095D02*
X173172381Y-142319524D01*
X173172381Y-142033810D02*
X172172381Y-142033810D01*
X172315238Y-142129048D01*
X172410476Y-142224286D01*
X172458095Y-142319524D01*
X172267619Y-141367143D02*
X172220000Y-141319524D01*
X172172381Y-141224286D01*
X172172381Y-140986190D01*
X172220000Y-140890952D01*
X172267619Y-140843333D01*
X172362857Y-140795714D01*
X172458095Y-140795714D01*
X172600952Y-140843333D01*
X173172381Y-141414762D01*
X173172381Y-140795714D01*
X170632381Y-143271905D02*
X169632381Y-143271905D01*
X169632381Y-143033810D01*
X169680000Y-142890952D01*
X169775238Y-142795714D01*
X169870476Y-142748095D01*
X170060952Y-142700476D01*
X170203810Y-142700476D01*
X170394286Y-142748095D01*
X170489524Y-142795714D01*
X170584762Y-142890952D01*
X170632381Y-143033810D01*
X170632381Y-143271905D01*
X170632381Y-141748095D02*
X170632381Y-142319524D01*
X170632381Y-142033810D02*
X169632381Y-142033810D01*
X169775238Y-142129048D01*
X169870476Y-142224286D01*
X169918095Y-142319524D01*
X169632381Y-141414762D02*
X169632381Y-140795714D01*
X170013333Y-141129048D01*
X170013333Y-140986190D01*
X170060952Y-140890952D01*
X170108571Y-140843333D01*
X170203810Y-140795714D01*
X170441905Y-140795714D01*
X170537143Y-140843333D01*
X170584762Y-140890952D01*
X170632381Y-140986190D01*
X170632381Y-141271905D01*
X170584762Y-141367143D01*
X170537143Y-141414762D01*
X154392381Y-142795714D02*
X154392381Y-143271905D01*
X154868571Y-143319524D01*
X154820952Y-143271905D01*
X154773333Y-143176667D01*
X154773333Y-142938571D01*
X154820952Y-142843333D01*
X154868571Y-142795714D01*
X154963810Y-142748095D01*
X155201905Y-142748095D01*
X155297143Y-142795714D01*
X155344762Y-142843333D01*
X155392381Y-142938571D01*
X155392381Y-143176667D01*
X155344762Y-143271905D01*
X155297143Y-143319524D01*
X154392381Y-142462381D02*
X155392381Y-142129048D01*
X154392381Y-141795714D01*
X150026667Y-143319524D02*
X150026667Y-142843333D01*
X150312381Y-143414762D02*
X149312381Y-143081429D01*
X150312381Y-142748095D01*
X150312381Y-141843333D02*
X149836190Y-142176667D01*
X150312381Y-142414762D02*
X149312381Y-142414762D01*
X149312381Y-142033809D01*
X149360000Y-141938571D01*
X149407619Y-141890952D01*
X149502857Y-141843333D01*
X149645714Y-141843333D01*
X149740952Y-141890952D01*
X149788571Y-141938571D01*
X149836190Y-142033809D01*
X149836190Y-142414762D01*
X149788571Y-141414762D02*
X149788571Y-141081428D01*
X150312381Y-140938571D02*
X150312381Y-141414762D01*
X149312381Y-141414762D01*
X149312381Y-140938571D01*
X149788571Y-140176666D02*
X149788571Y-140510000D01*
X150312381Y-140510000D02*
X149312381Y-140510000D01*
X149312381Y-140033809D01*
X147486667Y-143319524D02*
X147486667Y-142843333D01*
X147772381Y-143414762D02*
X146772381Y-143081429D01*
X147772381Y-142748095D01*
X146772381Y-142224286D02*
X146772381Y-142129047D01*
X146820000Y-142033809D01*
X146867619Y-141986190D01*
X146962857Y-141938571D01*
X147153333Y-141890952D01*
X147391429Y-141890952D01*
X147581905Y-141938571D01*
X147677143Y-141986190D01*
X147724762Y-142033809D01*
X147772381Y-142129047D01*
X147772381Y-142224286D01*
X147724762Y-142319524D01*
X147677143Y-142367143D01*
X147581905Y-142414762D01*
X147391429Y-142462381D01*
X147153333Y-142462381D01*
X146962857Y-142414762D01*
X146867619Y-142367143D01*
X146820000Y-142319524D01*
X146772381Y-142224286D01*
X144946667Y-143319524D02*
X144946667Y-142843333D01*
X145232381Y-143414762D02*
X144232381Y-143081429D01*
X145232381Y-142748095D01*
X145232381Y-141890952D02*
X145232381Y-142462381D01*
X145232381Y-142176667D02*
X144232381Y-142176667D01*
X144375238Y-142271905D01*
X144470476Y-142367143D01*
X144518095Y-142462381D01*
X142406667Y-143319524D02*
X142406667Y-142843333D01*
X142692381Y-143414762D02*
X141692381Y-143081429D01*
X142692381Y-142748095D01*
X141787619Y-142462381D02*
X141740000Y-142414762D01*
X141692381Y-142319524D01*
X141692381Y-142081428D01*
X141740000Y-141986190D01*
X141787619Y-141938571D01*
X141882857Y-141890952D01*
X141978095Y-141890952D01*
X142120952Y-141938571D01*
X142692381Y-142510000D01*
X142692381Y-141890952D01*
X139866667Y-143319524D02*
X139866667Y-142843333D01*
X140152381Y-143414762D02*
X139152381Y-143081429D01*
X140152381Y-142748095D01*
X139152381Y-142510000D02*
X139152381Y-141890952D01*
X139533333Y-142224286D01*
X139533333Y-142081428D01*
X139580952Y-141986190D01*
X139628571Y-141938571D01*
X139723810Y-141890952D01*
X139961905Y-141890952D01*
X140057143Y-141938571D01*
X140104762Y-141986190D01*
X140152381Y-142081428D01*
X140152381Y-142367143D01*
X140104762Y-142462381D01*
X140057143Y-142510000D01*
X137326667Y-143319524D02*
X137326667Y-142843333D01*
X137612381Y-143414762D02*
X136612381Y-143081429D01*
X137612381Y-142748095D01*
X136945714Y-141986190D02*
X137612381Y-141986190D01*
X136564762Y-142224286D02*
X137279048Y-142462381D01*
X137279048Y-141843333D01*
X134786667Y-143319524D02*
X134786667Y-142843333D01*
X135072381Y-143414762D02*
X134072381Y-143081429D01*
X135072381Y-142748095D01*
X134072381Y-141938571D02*
X134072381Y-142414762D01*
X134548571Y-142462381D01*
X134500952Y-142414762D01*
X134453333Y-142319524D01*
X134453333Y-142081428D01*
X134500952Y-141986190D01*
X134548571Y-141938571D01*
X134643810Y-141890952D01*
X134881905Y-141890952D01*
X134977143Y-141938571D01*
X135024762Y-141986190D01*
X135072381Y-142081428D01*
X135072381Y-142319524D01*
X135024762Y-142414762D01*
X134977143Y-142462381D01*
X132246667Y-143319524D02*
X132246667Y-142843333D01*
X132532381Y-143414762D02*
X131532381Y-143081429D01*
X132532381Y-142748095D01*
X131532381Y-141986190D02*
X131532381Y-142176667D01*
X131580000Y-142271905D01*
X131627619Y-142319524D01*
X131770476Y-142414762D01*
X131960952Y-142462381D01*
X132341905Y-142462381D01*
X132437143Y-142414762D01*
X132484762Y-142367143D01*
X132532381Y-142271905D01*
X132532381Y-142081428D01*
X132484762Y-141986190D01*
X132437143Y-141938571D01*
X132341905Y-141890952D01*
X132103810Y-141890952D01*
X132008571Y-141938571D01*
X131960952Y-141986190D01*
X131913333Y-142081428D01*
X131913333Y-142271905D01*
X131960952Y-142367143D01*
X132008571Y-142414762D01*
X132103810Y-142462381D01*
X129706667Y-143319524D02*
X129706667Y-142843333D01*
X129992381Y-143414762D02*
X128992381Y-143081429D01*
X129992381Y-142748095D01*
X128992381Y-142510000D02*
X128992381Y-141843333D01*
X129992381Y-142271905D01*
X111212381Y-143414762D02*
X111212381Y-142843333D01*
X112212381Y-143129048D02*
X111212381Y-143129048D01*
X111212381Y-142605238D02*
X112212381Y-141938571D01*
X111212381Y-141938571D02*
X112212381Y-142605238D01*
X109672381Y-142700476D02*
X109196190Y-143033810D01*
X109672381Y-143271905D02*
X108672381Y-143271905D01*
X108672381Y-142890952D01*
X108720000Y-142795714D01*
X108767619Y-142748095D01*
X108862857Y-142700476D01*
X109005714Y-142700476D01*
X109100952Y-142748095D01*
X109148571Y-142795714D01*
X109196190Y-142890952D01*
X109196190Y-143271905D01*
X108672381Y-142367143D02*
X109672381Y-141700476D01*
X108672381Y-141700476D02*
X109672381Y-142367143D01*
X107132381Y-142700476D02*
X106656190Y-143033810D01*
X107132381Y-143271905D02*
X106132381Y-143271905D01*
X106132381Y-142890952D01*
X106180000Y-142795714D01*
X106227619Y-142748095D01*
X106322857Y-142700476D01*
X106465714Y-142700476D01*
X106560952Y-142748095D01*
X106608571Y-142795714D01*
X106656190Y-142890952D01*
X106656190Y-143271905D01*
X106608571Y-142271905D02*
X106608571Y-141938571D01*
X107132381Y-141795714D02*
X107132381Y-142271905D01*
X106132381Y-142271905D01*
X106132381Y-141795714D01*
X107084762Y-141414762D02*
X107132381Y-141271905D01*
X107132381Y-141033809D01*
X107084762Y-140938571D01*
X107037143Y-140890952D01*
X106941905Y-140843333D01*
X106846667Y-140843333D01*
X106751429Y-140890952D01*
X106703810Y-140938571D01*
X106656190Y-141033809D01*
X106608571Y-141224286D01*
X106560952Y-141319524D01*
X106513333Y-141367143D01*
X106418095Y-141414762D01*
X106322857Y-141414762D01*
X106227619Y-141367143D01*
X106180000Y-141319524D01*
X106132381Y-141224286D01*
X106132381Y-140986190D01*
X106180000Y-140843333D01*
X106608571Y-140414762D02*
X106608571Y-140081428D01*
X107132381Y-139938571D02*
X107132381Y-140414762D01*
X106132381Y-140414762D01*
X106132381Y-139938571D01*
X106132381Y-139652857D02*
X106132381Y-139081428D01*
X107132381Y-139367143D02*
X106132381Y-139367143D01*
X105960000Y-143510000D02*
X105960000Y-138986190D01*
X192587619Y-52943095D02*
X193587619Y-52943095D01*
X193587619Y-53181190D01*
X193540000Y-53324048D01*
X193444762Y-53419286D01*
X193349524Y-53466905D01*
X193159048Y-53514524D01*
X193016190Y-53514524D01*
X192825714Y-53466905D01*
X192730476Y-53419286D01*
X192635238Y-53324048D01*
X192587619Y-53181190D01*
X192587619Y-52943095D01*
X193254286Y-54371667D02*
X192587619Y-54371667D01*
X193635238Y-54133571D02*
X192920952Y-53895476D01*
X192920952Y-54514524D01*
X190047619Y-52943095D02*
X191047619Y-52943095D01*
X191047619Y-53181190D01*
X191000000Y-53324048D01*
X190904762Y-53419286D01*
X190809524Y-53466905D01*
X190619048Y-53514524D01*
X190476190Y-53514524D01*
X190285714Y-53466905D01*
X190190476Y-53419286D01*
X190095238Y-53324048D01*
X190047619Y-53181190D01*
X190047619Y-52943095D01*
X191047619Y-54419286D02*
X191047619Y-53943095D01*
X190571429Y-53895476D01*
X190619048Y-53943095D01*
X190666667Y-54038333D01*
X190666667Y-54276429D01*
X190619048Y-54371667D01*
X190571429Y-54419286D01*
X190476190Y-54466905D01*
X190238095Y-54466905D01*
X190142857Y-54419286D01*
X190095238Y-54371667D01*
X190047619Y-54276429D01*
X190047619Y-54038333D01*
X190095238Y-53943095D01*
X190142857Y-53895476D01*
X187507619Y-52943095D02*
X188507619Y-52943095D01*
X188507619Y-53181190D01*
X188460000Y-53324048D01*
X188364762Y-53419286D01*
X188269524Y-53466905D01*
X188079048Y-53514524D01*
X187936190Y-53514524D01*
X187745714Y-53466905D01*
X187650476Y-53419286D01*
X187555238Y-53324048D01*
X187507619Y-53181190D01*
X187507619Y-52943095D01*
X188507619Y-54371667D02*
X188507619Y-54181190D01*
X188460000Y-54085952D01*
X188412381Y-54038333D01*
X188269524Y-53943095D01*
X188079048Y-53895476D01*
X187698095Y-53895476D01*
X187602857Y-53943095D01*
X187555238Y-53990714D01*
X187507619Y-54085952D01*
X187507619Y-54276429D01*
X187555238Y-54371667D01*
X187602857Y-54419286D01*
X187698095Y-54466905D01*
X187936190Y-54466905D01*
X188031429Y-54419286D01*
X188079048Y-54371667D01*
X188126667Y-54276429D01*
X188126667Y-54085952D01*
X188079048Y-53990714D01*
X188031429Y-53943095D01*
X187936190Y-53895476D01*
X184967619Y-52943095D02*
X185967619Y-52943095D01*
X185967619Y-53181190D01*
X185920000Y-53324048D01*
X185824762Y-53419286D01*
X185729524Y-53466905D01*
X185539048Y-53514524D01*
X185396190Y-53514524D01*
X185205714Y-53466905D01*
X185110476Y-53419286D01*
X185015238Y-53324048D01*
X184967619Y-53181190D01*
X184967619Y-52943095D01*
X185967619Y-53847857D02*
X185967619Y-54514524D01*
X184967619Y-54085952D01*
X149693333Y-52895476D02*
X149693333Y-53371667D01*
X149407619Y-52800238D02*
X150407619Y-53133571D01*
X149407619Y-53466905D01*
X149407619Y-54371667D02*
X149883810Y-54038333D01*
X149407619Y-53800238D02*
X150407619Y-53800238D01*
X150407619Y-54181191D01*
X150360000Y-54276429D01*
X150312381Y-54324048D01*
X150217143Y-54371667D01*
X150074286Y-54371667D01*
X149979048Y-54324048D01*
X149931429Y-54276429D01*
X149883810Y-54181191D01*
X149883810Y-53800238D01*
X149931429Y-54800238D02*
X149931429Y-55133572D01*
X149407619Y-55276429D02*
X149407619Y-54800238D01*
X150407619Y-54800238D01*
X150407619Y-55276429D01*
X149931429Y-56038334D02*
X149931429Y-55705000D01*
X149407619Y-55705000D02*
X150407619Y-55705000D01*
X150407619Y-56181191D01*
X147153333Y-52895476D02*
X147153333Y-53371667D01*
X146867619Y-52800238D02*
X147867619Y-53133571D01*
X146867619Y-53466905D01*
X147867619Y-53990714D02*
X147867619Y-54085953D01*
X147820000Y-54181191D01*
X147772381Y-54228810D01*
X147677143Y-54276429D01*
X147486667Y-54324048D01*
X147248571Y-54324048D01*
X147058095Y-54276429D01*
X146962857Y-54228810D01*
X146915238Y-54181191D01*
X146867619Y-54085953D01*
X146867619Y-53990714D01*
X146915238Y-53895476D01*
X146962857Y-53847857D01*
X147058095Y-53800238D01*
X147248571Y-53752619D01*
X147486667Y-53752619D01*
X147677143Y-53800238D01*
X147772381Y-53847857D01*
X147820000Y-53895476D01*
X147867619Y-53990714D01*
X144613333Y-52895476D02*
X144613333Y-53371667D01*
X144327619Y-52800238D02*
X145327619Y-53133571D01*
X144327619Y-53466905D01*
X144327619Y-54324048D02*
X144327619Y-53752619D01*
X144327619Y-54038333D02*
X145327619Y-54038333D01*
X145184762Y-53943095D01*
X145089524Y-53847857D01*
X145041905Y-53752619D01*
X142073333Y-52895476D02*
X142073333Y-53371667D01*
X141787619Y-52800238D02*
X142787619Y-53133571D01*
X141787619Y-53466905D01*
X142692381Y-53752619D02*
X142740000Y-53800238D01*
X142787619Y-53895476D01*
X142787619Y-54133572D01*
X142740000Y-54228810D01*
X142692381Y-54276429D01*
X142597143Y-54324048D01*
X142501905Y-54324048D01*
X142359048Y-54276429D01*
X141787619Y-53705000D01*
X141787619Y-54324048D01*
X112307619Y-52800238D02*
X112307619Y-53371667D01*
X111307619Y-53085952D02*
X112307619Y-53085952D01*
X112307619Y-53609762D02*
X111307619Y-54276429D01*
X112307619Y-54276429D02*
X111307619Y-53609762D01*
X108767619Y-53514524D02*
X109243810Y-53181190D01*
X108767619Y-52943095D02*
X109767619Y-52943095D01*
X109767619Y-53324048D01*
X109720000Y-53419286D01*
X109672381Y-53466905D01*
X109577143Y-53514524D01*
X109434286Y-53514524D01*
X109339048Y-53466905D01*
X109291429Y-53419286D01*
X109243810Y-53324048D01*
X109243810Y-52943095D01*
X109767619Y-53847857D02*
X108767619Y-54514524D01*
X109767619Y-54514524D02*
X108767619Y-53847857D01*
D12*
X197485000Y-62230000D02*
X197485000Y-80010000D01*
X198120000Y-80010000D02*
X198120000Y-62230000D01*
X198120000Y-62230000D02*
X198120000Y-52070000D01*
X197485000Y-57785000D02*
X197485000Y-62230000D01*
D10*
X194970477Y-128505000D02*
X194894286Y-128466905D01*
X194780001Y-128466905D01*
X194665715Y-128505000D01*
X194589524Y-128581190D01*
X194551429Y-128657381D01*
X194513334Y-128809762D01*
X194513334Y-128924048D01*
X194551429Y-129076429D01*
X194589524Y-129152619D01*
X194665715Y-129228810D01*
X194780001Y-129266905D01*
X194856191Y-129266905D01*
X194970477Y-129228810D01*
X195008572Y-129190714D01*
X195008572Y-128924048D01*
X194856191Y-128924048D01*
X195351429Y-129266905D02*
X195351429Y-128466905D01*
X195808572Y-129266905D01*
X195808572Y-128466905D01*
X196189524Y-129266905D02*
X196189524Y-128466905D01*
X196380000Y-128466905D01*
X196494286Y-128505000D01*
X196570477Y-128581190D01*
X196608572Y-128657381D01*
X196646667Y-128809762D01*
X196646667Y-128924048D01*
X196608572Y-129076429D01*
X196570477Y-129152619D01*
X196494286Y-129228810D01*
X196380000Y-129266905D01*
X196189524Y-129266905D01*
X195427620Y-136086905D02*
X195046667Y-136086905D01*
X195008572Y-136467857D01*
X195046667Y-136429762D01*
X195122858Y-136391667D01*
X195313334Y-136391667D01*
X195389524Y-136429762D01*
X195427620Y-136467857D01*
X195465715Y-136544048D01*
X195465715Y-136734524D01*
X195427620Y-136810714D01*
X195389524Y-136848810D01*
X195313334Y-136886905D01*
X195122858Y-136886905D01*
X195046667Y-136848810D01*
X195008572Y-136810714D01*
X195694286Y-136086905D02*
X195960953Y-136886905D01*
X196227620Y-136086905D01*
X194970477Y-82785000D02*
X194894286Y-82746905D01*
X194780001Y-82746905D01*
X194665715Y-82785000D01*
X194589524Y-82861190D01*
X194551429Y-82937381D01*
X194513334Y-83089762D01*
X194513334Y-83204048D01*
X194551429Y-83356429D01*
X194589524Y-83432619D01*
X194665715Y-83508810D01*
X194780001Y-83546905D01*
X194856191Y-83546905D01*
X194970477Y-83508810D01*
X195008572Y-83470714D01*
X195008572Y-83204048D01*
X194856191Y-83204048D01*
X195351429Y-83546905D02*
X195351429Y-82746905D01*
X195808572Y-83546905D01*
X195808572Y-82746905D01*
X196189524Y-83546905D02*
X196189524Y-82746905D01*
X196380000Y-82746905D01*
X196494286Y-82785000D01*
X196570477Y-82861190D01*
X196608572Y-82937381D01*
X196646667Y-83089762D01*
X196646667Y-83204048D01*
X196608572Y-83356429D01*
X196570477Y-83432619D01*
X196494286Y-83508810D01*
X196380000Y-83546905D01*
X196189524Y-83546905D01*
X195427620Y-90366905D02*
X195046667Y-90366905D01*
X195008572Y-90747857D01*
X195046667Y-90709762D01*
X195122858Y-90671667D01*
X195313334Y-90671667D01*
X195389524Y-90709762D01*
X195427620Y-90747857D01*
X195465715Y-90824048D01*
X195465715Y-91014524D01*
X195427620Y-91090714D01*
X195389524Y-91128810D01*
X195313334Y-91166905D01*
X195122858Y-91166905D01*
X195046667Y-91128810D01*
X195008572Y-91090714D01*
X195694286Y-90366905D02*
X195960953Y-91166905D01*
X196227620Y-90366905D01*
D12*
X197485000Y-52070000D02*
X197485000Y-53975000D01*
X198755000Y-80010000D02*
X198755000Y-52070000D01*
X198755000Y-106680000D02*
X198755000Y-80010000D01*
X198120000Y-80010000D02*
X198120000Y-106680000D01*
X197485000Y-106680000D02*
X197485000Y-80010000D01*
D11*
X182427619Y-52943095D02*
X183427619Y-52943095D01*
X183427619Y-53181190D01*
X183380000Y-53324048D01*
X183284762Y-53419286D01*
X183189524Y-53466905D01*
X182999048Y-53514524D01*
X182856190Y-53514524D01*
X182665714Y-53466905D01*
X182570476Y-53419286D01*
X182475238Y-53324048D01*
X182427619Y-53181190D01*
X182427619Y-52943095D01*
X182999048Y-54085952D02*
X183046667Y-53990714D01*
X183094286Y-53943095D01*
X183189524Y-53895476D01*
X183237143Y-53895476D01*
X183332381Y-53943095D01*
X183380000Y-53990714D01*
X183427619Y-54085952D01*
X183427619Y-54276429D01*
X183380000Y-54371667D01*
X183332381Y-54419286D01*
X183237143Y-54466905D01*
X183189524Y-54466905D01*
X183094286Y-54419286D01*
X183046667Y-54371667D01*
X182999048Y-54276429D01*
X182999048Y-54085952D01*
X182951429Y-53990714D01*
X182903810Y-53943095D01*
X182808571Y-53895476D01*
X182618095Y-53895476D01*
X182522857Y-53943095D01*
X182475238Y-53990714D01*
X182427619Y-54085952D01*
X182427619Y-54276429D01*
X182475238Y-54371667D01*
X182522857Y-54419286D01*
X182618095Y-54466905D01*
X182808571Y-54466905D01*
X182903810Y-54419286D01*
X182951429Y-54371667D01*
X182999048Y-54276429D01*
X179887619Y-52943095D02*
X180887619Y-52943095D01*
X180887619Y-53181190D01*
X180840000Y-53324048D01*
X180744762Y-53419286D01*
X180649524Y-53466905D01*
X180459048Y-53514524D01*
X180316190Y-53514524D01*
X180125714Y-53466905D01*
X180030476Y-53419286D01*
X179935238Y-53324048D01*
X179887619Y-53181190D01*
X179887619Y-52943095D01*
X179887619Y-53990714D02*
X179887619Y-54181190D01*
X179935238Y-54276429D01*
X179982857Y-54324048D01*
X180125714Y-54419286D01*
X180316190Y-54466905D01*
X180697143Y-54466905D01*
X180792381Y-54419286D01*
X180840000Y-54371667D01*
X180887619Y-54276429D01*
X180887619Y-54085952D01*
X180840000Y-53990714D01*
X180792381Y-53943095D01*
X180697143Y-53895476D01*
X180459048Y-53895476D01*
X180363810Y-53943095D01*
X180316190Y-53990714D01*
X180268571Y-54085952D01*
X180268571Y-54276429D01*
X180316190Y-54371667D01*
X180363810Y-54419286D01*
X180459048Y-54466905D01*
X177347619Y-52943095D02*
X178347619Y-52943095D01*
X178347619Y-53181190D01*
X178300000Y-53324048D01*
X178204762Y-53419286D01*
X178109524Y-53466905D01*
X177919048Y-53514524D01*
X177776190Y-53514524D01*
X177585714Y-53466905D01*
X177490476Y-53419286D01*
X177395238Y-53324048D01*
X177347619Y-53181190D01*
X177347619Y-52943095D01*
X177347619Y-54466905D02*
X177347619Y-53895476D01*
X177347619Y-54181190D02*
X178347619Y-54181190D01*
X178204762Y-54085952D01*
X178109524Y-53990714D01*
X178061905Y-53895476D01*
X178347619Y-55085952D02*
X178347619Y-55181191D01*
X178300000Y-55276429D01*
X178252381Y-55324048D01*
X178157143Y-55371667D01*
X177966667Y-55419286D01*
X177728571Y-55419286D01*
X177538095Y-55371667D01*
X177442857Y-55324048D01*
X177395238Y-55276429D01*
X177347619Y-55181191D01*
X177347619Y-55085952D01*
X177395238Y-54990714D01*
X177442857Y-54943095D01*
X177538095Y-54895476D01*
X177728571Y-54847857D01*
X177966667Y-54847857D01*
X178157143Y-54895476D01*
X178252381Y-54943095D01*
X178300000Y-54990714D01*
X178347619Y-55085952D01*
X174807619Y-52943095D02*
X175807619Y-52943095D01*
X175807619Y-53181190D01*
X175760000Y-53324048D01*
X175664762Y-53419286D01*
X175569524Y-53466905D01*
X175379048Y-53514524D01*
X175236190Y-53514524D01*
X175045714Y-53466905D01*
X174950476Y-53419286D01*
X174855238Y-53324048D01*
X174807619Y-53181190D01*
X174807619Y-52943095D01*
X174807619Y-54466905D02*
X174807619Y-53895476D01*
X174807619Y-54181190D02*
X175807619Y-54181190D01*
X175664762Y-54085952D01*
X175569524Y-53990714D01*
X175521905Y-53895476D01*
X174807619Y-55419286D02*
X174807619Y-54847857D01*
X174807619Y-55133571D02*
X175807619Y-55133571D01*
X175664762Y-55038333D01*
X175569524Y-54943095D01*
X175521905Y-54847857D01*
X172267619Y-52943095D02*
X173267619Y-52943095D01*
X173267619Y-53181190D01*
X173220000Y-53324048D01*
X173124762Y-53419286D01*
X173029524Y-53466905D01*
X172839048Y-53514524D01*
X172696190Y-53514524D01*
X172505714Y-53466905D01*
X172410476Y-53419286D01*
X172315238Y-53324048D01*
X172267619Y-53181190D01*
X172267619Y-52943095D01*
X172267619Y-54466905D02*
X172267619Y-53895476D01*
X172267619Y-54181190D02*
X173267619Y-54181190D01*
X173124762Y-54085952D01*
X173029524Y-53990714D01*
X172981905Y-53895476D01*
X173172381Y-54847857D02*
X173220000Y-54895476D01*
X173267619Y-54990714D01*
X173267619Y-55228810D01*
X173220000Y-55324048D01*
X173172381Y-55371667D01*
X173077143Y-55419286D01*
X172981905Y-55419286D01*
X172839048Y-55371667D01*
X172267619Y-54800238D01*
X172267619Y-55419286D01*
X169727619Y-52943095D02*
X170727619Y-52943095D01*
X170727619Y-53181190D01*
X170680000Y-53324048D01*
X170584762Y-53419286D01*
X170489524Y-53466905D01*
X170299048Y-53514524D01*
X170156190Y-53514524D01*
X169965714Y-53466905D01*
X169870476Y-53419286D01*
X169775238Y-53324048D01*
X169727619Y-53181190D01*
X169727619Y-52943095D01*
X169727619Y-54466905D02*
X169727619Y-53895476D01*
X169727619Y-54181190D02*
X170727619Y-54181190D01*
X170584762Y-54085952D01*
X170489524Y-53990714D01*
X170441905Y-53895476D01*
X170727619Y-54800238D02*
X170727619Y-55419286D01*
X170346667Y-55085952D01*
X170346667Y-55228810D01*
X170299048Y-55324048D01*
X170251429Y-55371667D01*
X170156190Y-55419286D01*
X169918095Y-55419286D01*
X169822857Y-55371667D01*
X169775238Y-55324048D01*
X169727619Y-55228810D01*
X169727619Y-54943095D01*
X169775238Y-54847857D01*
X169822857Y-54800238D01*
X157980000Y-53466905D02*
X158027619Y-53371667D01*
X158027619Y-53228810D01*
X157980000Y-53085952D01*
X157884762Y-52990714D01*
X157789524Y-52943095D01*
X157599048Y-52895476D01*
X157456190Y-52895476D01*
X157265714Y-52943095D01*
X157170476Y-52990714D01*
X157075238Y-53085952D01*
X157027619Y-53228810D01*
X157027619Y-53324048D01*
X157075238Y-53466905D01*
X157122857Y-53514524D01*
X157456190Y-53514524D01*
X157456190Y-53324048D01*
X157027619Y-53943095D02*
X158027619Y-53943095D01*
X157027619Y-54514524D01*
X158027619Y-54514524D01*
X157027619Y-54990714D02*
X158027619Y-54990714D01*
X158027619Y-55228809D01*
X157980000Y-55371667D01*
X157884762Y-55466905D01*
X157789524Y-55514524D01*
X157599048Y-55562143D01*
X157456190Y-55562143D01*
X157265714Y-55514524D01*
X157170476Y-55466905D01*
X157075238Y-55371667D01*
X157027619Y-55228809D01*
X157027619Y-54990714D01*
X155487619Y-53419286D02*
X155487619Y-52943095D01*
X155011429Y-52895476D01*
X155059048Y-52943095D01*
X155106667Y-53038333D01*
X155106667Y-53276429D01*
X155059048Y-53371667D01*
X155011429Y-53419286D01*
X154916190Y-53466905D01*
X154678095Y-53466905D01*
X154582857Y-53419286D01*
X154535238Y-53371667D01*
X154487619Y-53276429D01*
X154487619Y-53038333D01*
X154535238Y-52943095D01*
X154582857Y-52895476D01*
X155487619Y-53752619D02*
X154487619Y-54085952D01*
X155487619Y-54419286D01*
X106227619Y-53514524D02*
X106703810Y-53181190D01*
X106227619Y-52943095D02*
X107227619Y-52943095D01*
X107227619Y-53324048D01*
X107180000Y-53419286D01*
X107132381Y-53466905D01*
X107037143Y-53514524D01*
X106894286Y-53514524D01*
X106799048Y-53466905D01*
X106751429Y-53419286D01*
X106703810Y-53324048D01*
X106703810Y-52943095D01*
X106751429Y-53943095D02*
X106751429Y-54276429D01*
X106227619Y-54419286D02*
X106227619Y-53943095D01*
X107227619Y-53943095D01*
X107227619Y-54419286D01*
X106275238Y-54800238D02*
X106227619Y-54943095D01*
X106227619Y-55181191D01*
X106275238Y-55276429D01*
X106322857Y-55324048D01*
X106418095Y-55371667D01*
X106513333Y-55371667D01*
X106608571Y-55324048D01*
X106656190Y-55276429D01*
X106703810Y-55181191D01*
X106751429Y-54990714D01*
X106799048Y-54895476D01*
X106846667Y-54847857D01*
X106941905Y-54800238D01*
X107037143Y-54800238D01*
X107132381Y-54847857D01*
X107180000Y-54895476D01*
X107227619Y-54990714D01*
X107227619Y-55228810D01*
X107180000Y-55371667D01*
X106751429Y-55800238D02*
X106751429Y-56133572D01*
X106227619Y-56276429D02*
X106227619Y-55800238D01*
X107227619Y-55800238D01*
X107227619Y-56276429D01*
X107227619Y-56562143D02*
X107227619Y-57133572D01*
X106227619Y-56847857D02*
X107227619Y-56847857D01*
X107400000Y-52705000D02*
X107400000Y-57228810D01*
X139533333Y-52895476D02*
X139533333Y-53371667D01*
X139247619Y-52800238D02*
X140247619Y-53133571D01*
X139247619Y-53466905D01*
X140247619Y-53705000D02*
X140247619Y-54324048D01*
X139866667Y-53990714D01*
X139866667Y-54133572D01*
X139819048Y-54228810D01*
X139771429Y-54276429D01*
X139676190Y-54324048D01*
X139438095Y-54324048D01*
X139342857Y-54276429D01*
X139295238Y-54228810D01*
X139247619Y-54133572D01*
X139247619Y-53847857D01*
X139295238Y-53752619D01*
X139342857Y-53705000D01*
X136993333Y-52895476D02*
X136993333Y-53371667D01*
X136707619Y-52800238D02*
X137707619Y-53133571D01*
X136707619Y-53466905D01*
X137374286Y-54228810D02*
X136707619Y-54228810D01*
X137755238Y-53990714D02*
X137040952Y-53752619D01*
X137040952Y-54371667D01*
X134453333Y-52895476D02*
X134453333Y-53371667D01*
X134167619Y-52800238D02*
X135167619Y-53133571D01*
X134167619Y-53466905D01*
X135167619Y-54276429D02*
X135167619Y-53800238D01*
X134691429Y-53752619D01*
X134739048Y-53800238D01*
X134786667Y-53895476D01*
X134786667Y-54133572D01*
X134739048Y-54228810D01*
X134691429Y-54276429D01*
X134596190Y-54324048D01*
X134358095Y-54324048D01*
X134262857Y-54276429D01*
X134215238Y-54228810D01*
X134167619Y-54133572D01*
X134167619Y-53895476D01*
X134215238Y-53800238D01*
X134262857Y-53752619D01*
X131913333Y-52895476D02*
X131913333Y-53371667D01*
X131627619Y-52800238D02*
X132627619Y-53133571D01*
X131627619Y-53466905D01*
X132627619Y-54228810D02*
X132627619Y-54038333D01*
X132580000Y-53943095D01*
X132532381Y-53895476D01*
X132389524Y-53800238D01*
X132199048Y-53752619D01*
X131818095Y-53752619D01*
X131722857Y-53800238D01*
X131675238Y-53847857D01*
X131627619Y-53943095D01*
X131627619Y-54133572D01*
X131675238Y-54228810D01*
X131722857Y-54276429D01*
X131818095Y-54324048D01*
X132056190Y-54324048D01*
X132151429Y-54276429D01*
X132199048Y-54228810D01*
X132246667Y-54133572D01*
X132246667Y-53943095D01*
X132199048Y-53847857D01*
X132151429Y-53800238D01*
X132056190Y-53752619D01*
X129373333Y-52895476D02*
X129373333Y-53371667D01*
X129087619Y-52800238D02*
X130087619Y-53133571D01*
X129087619Y-53466905D01*
X130087619Y-53705000D02*
X130087619Y-54371667D01*
X129087619Y-53943095D01*
X156980000Y-142748095D02*
X156932381Y-142843333D01*
X156932381Y-142986190D01*
X156980000Y-143129048D01*
X157075238Y-143224286D01*
X157170476Y-143271905D01*
X157360952Y-143319524D01*
X157503810Y-143319524D01*
X157694286Y-143271905D01*
X157789524Y-143224286D01*
X157884762Y-143129048D01*
X157932381Y-142986190D01*
X157932381Y-142890952D01*
X157884762Y-142748095D01*
X157837143Y-142700476D01*
X157503810Y-142700476D01*
X157503810Y-142890952D01*
X157932381Y-142271905D02*
X156932381Y-142271905D01*
X157932381Y-141700476D01*
X156932381Y-141700476D01*
X157932381Y-141224286D02*
X156932381Y-141224286D01*
X156932381Y-140986191D01*
X156980000Y-140843333D01*
X157075238Y-140748095D01*
X157170476Y-140700476D01*
X157360952Y-140652857D01*
X157503810Y-140652857D01*
X157694286Y-140700476D01*
X157789524Y-140748095D01*
X157884762Y-140843333D01*
X157932381Y-140986191D01*
X157932381Y-141224286D01*
X195365714Y-115259762D02*
X196175238Y-115259762D01*
X196270476Y-115307381D01*
X196318095Y-115355000D01*
X196365714Y-115450239D01*
X196365714Y-115593096D01*
X196318095Y-115688334D01*
X195984762Y-115259762D02*
X196032381Y-115355000D01*
X196032381Y-115545477D01*
X195984762Y-115640715D01*
X195937143Y-115688334D01*
X195841905Y-115735953D01*
X195556190Y-115735953D01*
X195460952Y-115688334D01*
X195413333Y-115640715D01*
X195365714Y-115545477D01*
X195365714Y-115355000D01*
X195413333Y-115259762D01*
X196032381Y-114783572D02*
X195365714Y-114783572D01*
X195032381Y-114783572D02*
X195080000Y-114831191D01*
X195127619Y-114783572D01*
X195080000Y-114735953D01*
X195032381Y-114783572D01*
X195127619Y-114783572D01*
X195365714Y-114450239D02*
X195365714Y-114069287D01*
X195032381Y-114307382D02*
X195889524Y-114307382D01*
X195984762Y-114259763D01*
X196032381Y-114164525D01*
X196032381Y-114069287D01*
X196032381Y-113735953D02*
X195032381Y-113735953D01*
X196032381Y-113307381D02*
X195508571Y-113307381D01*
X195413333Y-113355000D01*
X195365714Y-113450238D01*
X195365714Y-113593096D01*
X195413333Y-113688334D01*
X195460952Y-113735953D01*
X195365714Y-112402619D02*
X196032381Y-112402619D01*
X195365714Y-112831191D02*
X195889524Y-112831191D01*
X195984762Y-112783572D01*
X196032381Y-112688334D01*
X196032381Y-112545476D01*
X195984762Y-112450238D01*
X195937143Y-112402619D01*
X196032381Y-111926429D02*
X195032381Y-111926429D01*
X195413333Y-111926429D02*
X195365714Y-111831191D01*
X195365714Y-111640714D01*
X195413333Y-111545476D01*
X195460952Y-111497857D01*
X195556190Y-111450238D01*
X195841905Y-111450238D01*
X195937143Y-111497857D01*
X195984762Y-111545476D01*
X196032381Y-111640714D01*
X196032381Y-111831191D01*
X195984762Y-111926429D01*
X195937143Y-111021667D02*
X195984762Y-110974048D01*
X196032381Y-111021667D01*
X195984762Y-111069286D01*
X195937143Y-111021667D01*
X196032381Y-111021667D01*
X195984762Y-110116905D02*
X196032381Y-110212143D01*
X196032381Y-110402620D01*
X195984762Y-110497858D01*
X195937143Y-110545477D01*
X195841905Y-110593096D01*
X195556190Y-110593096D01*
X195460952Y-110545477D01*
X195413333Y-110497858D01*
X195365714Y-110402620D01*
X195365714Y-110212143D01*
X195413333Y-110116905D01*
X196032381Y-109545477D02*
X195984762Y-109640715D01*
X195937143Y-109688334D01*
X195841905Y-109735953D01*
X195556190Y-109735953D01*
X195460952Y-109688334D01*
X195413333Y-109640715D01*
X195365714Y-109545477D01*
X195365714Y-109402619D01*
X195413333Y-109307381D01*
X195460952Y-109259762D01*
X195556190Y-109212143D01*
X195841905Y-109212143D01*
X195937143Y-109259762D01*
X195984762Y-109307381D01*
X196032381Y-109402619D01*
X196032381Y-109545477D01*
X196032381Y-108783572D02*
X195365714Y-108783572D01*
X195460952Y-108783572D02*
X195413333Y-108735953D01*
X195365714Y-108640715D01*
X195365714Y-108497857D01*
X195413333Y-108402619D01*
X195508571Y-108355000D01*
X196032381Y-108355000D01*
X195508571Y-108355000D02*
X195413333Y-108307381D01*
X195365714Y-108212143D01*
X195365714Y-108069286D01*
X195413333Y-107974048D01*
X195508571Y-107926429D01*
X196032381Y-107926429D01*
X194984762Y-106735953D02*
X196270476Y-107593096D01*
X195365714Y-106545477D02*
X195365714Y-106164525D01*
X195032381Y-106402620D02*
X195889524Y-106402620D01*
X195984762Y-106355001D01*
X196032381Y-106259763D01*
X196032381Y-106164525D01*
X195984762Y-105450238D02*
X196032381Y-105545476D01*
X196032381Y-105735953D01*
X195984762Y-105831191D01*
X195889524Y-105878810D01*
X195508571Y-105878810D01*
X195413333Y-105831191D01*
X195365714Y-105735953D01*
X195365714Y-105545476D01*
X195413333Y-105450238D01*
X195508571Y-105402619D01*
X195603810Y-105402619D01*
X195699048Y-105878810D01*
X196032381Y-104974048D02*
X195032381Y-104974048D01*
X195413333Y-104974048D02*
X195365714Y-104878810D01*
X195365714Y-104688333D01*
X195413333Y-104593095D01*
X195460952Y-104545476D01*
X195556190Y-104497857D01*
X195841905Y-104497857D01*
X195937143Y-104545476D01*
X195984762Y-104593095D01*
X196032381Y-104688333D01*
X196032381Y-104878810D01*
X195984762Y-104974048D01*
X196032381Y-103926429D02*
X195984762Y-104021667D01*
X195889524Y-104069286D01*
X195032381Y-104069286D01*
X194127381Y-115855001D02*
X193127381Y-115855001D01*
X193127381Y-115474048D01*
X193175000Y-115378810D01*
X193222619Y-115331191D01*
X193317857Y-115283572D01*
X193460714Y-115283572D01*
X193555952Y-115331191D01*
X193603571Y-115378810D01*
X193651190Y-115474048D01*
X193651190Y-115855001D01*
X194127381Y-114855001D02*
X193460714Y-114855001D01*
X193651190Y-114855001D02*
X193555952Y-114807382D01*
X193508333Y-114759763D01*
X193460714Y-114664525D01*
X193460714Y-114569286D01*
X194127381Y-114093096D02*
X194079762Y-114188334D01*
X194032143Y-114235953D01*
X193936905Y-114283572D01*
X193651190Y-114283572D01*
X193555952Y-114235953D01*
X193508333Y-114188334D01*
X193460714Y-114093096D01*
X193460714Y-113950238D01*
X193508333Y-113855000D01*
X193555952Y-113807381D01*
X193651190Y-113759762D01*
X193936905Y-113759762D01*
X194032143Y-113807381D01*
X194079762Y-113855000D01*
X194127381Y-113950238D01*
X194127381Y-114093096D01*
X193460714Y-113331191D02*
X194317857Y-113331191D01*
X194413095Y-113378810D01*
X194460714Y-113474048D01*
X194460714Y-113521667D01*
X193127381Y-113331191D02*
X193175000Y-113378810D01*
X193222619Y-113331191D01*
X193175000Y-113283572D01*
X193127381Y-113331191D01*
X193222619Y-113331191D01*
X194079762Y-112474048D02*
X194127381Y-112569286D01*
X194127381Y-112759763D01*
X194079762Y-112855001D01*
X193984524Y-112902620D01*
X193603571Y-112902620D01*
X193508333Y-112855001D01*
X193460714Y-112759763D01*
X193460714Y-112569286D01*
X193508333Y-112474048D01*
X193603571Y-112426429D01*
X193698810Y-112426429D01*
X193794048Y-112902620D01*
X194079762Y-111569286D02*
X194127381Y-111664524D01*
X194127381Y-111855001D01*
X194079762Y-111950239D01*
X194032143Y-111997858D01*
X193936905Y-112045477D01*
X193651190Y-112045477D01*
X193555952Y-111997858D01*
X193508333Y-111950239D01*
X193460714Y-111855001D01*
X193460714Y-111664524D01*
X193508333Y-111569286D01*
X193460714Y-111283572D02*
X193460714Y-110902620D01*
X193127381Y-111140715D02*
X193984524Y-111140715D01*
X194079762Y-111093096D01*
X194127381Y-110997858D01*
X194127381Y-110902620D01*
X194127381Y-109807381D02*
X193127381Y-109807381D01*
X193127381Y-109426428D01*
X193175000Y-109331190D01*
X193222619Y-109283571D01*
X193317857Y-109235952D01*
X193460714Y-109235952D01*
X193555952Y-109283571D01*
X193603571Y-109331190D01*
X193651190Y-109426428D01*
X193651190Y-109807381D01*
X194127381Y-108664524D02*
X194079762Y-108759762D01*
X193984524Y-108807381D01*
X193127381Y-108807381D01*
X194127381Y-107854999D02*
X193603571Y-107854999D01*
X193508333Y-107902618D01*
X193460714Y-107997856D01*
X193460714Y-108188333D01*
X193508333Y-108283571D01*
X194079762Y-107854999D02*
X194127381Y-107950237D01*
X194127381Y-108188333D01*
X194079762Y-108283571D01*
X193984524Y-108331190D01*
X193889286Y-108331190D01*
X193794048Y-108283571D01*
X193746429Y-108188333D01*
X193746429Y-107950237D01*
X193698810Y-107854999D01*
X193460714Y-107521666D02*
X193460714Y-107140714D01*
X193127381Y-107378809D02*
X193984524Y-107378809D01*
X194079762Y-107331190D01*
X194127381Y-107235952D01*
X194127381Y-107140714D01*
X193460714Y-106950237D02*
X193460714Y-106569285D01*
X194127381Y-106807380D02*
X193270238Y-106807380D01*
X193175000Y-106759761D01*
X193127381Y-106664523D01*
X193127381Y-106569285D01*
X194127381Y-106093094D02*
X194079762Y-106188332D01*
X194032143Y-106235951D01*
X193936905Y-106283570D01*
X193651190Y-106283570D01*
X193555952Y-106235951D01*
X193508333Y-106188332D01*
X193460714Y-106093094D01*
X193460714Y-105950236D01*
X193508333Y-105854998D01*
X193555952Y-105807379D01*
X193651190Y-105759760D01*
X193936905Y-105759760D01*
X194032143Y-105807379D01*
X194079762Y-105854998D01*
X194127381Y-105950236D01*
X194127381Y-106093094D01*
X194127381Y-105331189D02*
X193460714Y-105331189D01*
X193651190Y-105331189D02*
X193555952Y-105283570D01*
X193508333Y-105235951D01*
X193460714Y-105140713D01*
X193460714Y-105045474D01*
X194127381Y-104712141D02*
X193460714Y-104712141D01*
X193555952Y-104712141D02*
X193508333Y-104664522D01*
X193460714Y-104569284D01*
X193460714Y-104426426D01*
X193508333Y-104331188D01*
X193603571Y-104283569D01*
X194127381Y-104283569D01*
X193603571Y-104283569D02*
X193508333Y-104235950D01*
X193460714Y-104140712D01*
X193460714Y-103997855D01*
X193508333Y-103902617D01*
X193603571Y-103854998D01*
X194127381Y-103854998D01*
D13*
X104390000Y-114426429D02*
X104390000Y-113712143D01*
X104818571Y-114569286D02*
X103318571Y-114069286D01*
X104818571Y-113569286D01*
X104818571Y-112212143D02*
X104104286Y-112712143D01*
X104818571Y-113069286D02*
X103318571Y-113069286D01*
X103318571Y-112497858D01*
X103390000Y-112355000D01*
X103461429Y-112283572D01*
X103604286Y-112212143D01*
X103818571Y-112212143D01*
X103961429Y-112283572D01*
X104032857Y-112355000D01*
X104104286Y-112497858D01*
X104104286Y-113069286D01*
X104818571Y-111569286D02*
X103318571Y-111569286D01*
X103318571Y-111212143D01*
X103390000Y-110997858D01*
X103532857Y-110855000D01*
X103675714Y-110783572D01*
X103961429Y-110712143D01*
X104175714Y-110712143D01*
X104461429Y-110783572D01*
X104604286Y-110855000D01*
X104747143Y-110997858D01*
X104818571Y-111212143D01*
X104818571Y-111569286D01*
X103318571Y-110069286D02*
X104532857Y-110069286D01*
X104675714Y-109997858D01*
X104747143Y-109926429D01*
X104818571Y-109783572D01*
X104818571Y-109497858D01*
X104747143Y-109355000D01*
X104675714Y-109283572D01*
X104532857Y-109212143D01*
X103318571Y-109212143D01*
X104818571Y-108497857D02*
X103318571Y-108497857D01*
X104818571Y-107783571D02*
X103318571Y-107783571D01*
X104818571Y-106926428D01*
X103318571Y-106926428D01*
X103318571Y-105926428D02*
X103318571Y-105640714D01*
X103390000Y-105497856D01*
X103532857Y-105354999D01*
X103818571Y-105283571D01*
X104318571Y-105283571D01*
X104604286Y-105354999D01*
X104747143Y-105497856D01*
X104818571Y-105640714D01*
X104818571Y-105926428D01*
X104747143Y-106069285D01*
X104604286Y-106212142D01*
X104318571Y-106283571D01*
X103818571Y-106283571D01*
X103532857Y-106212142D01*
X103390000Y-106069285D01*
X103318571Y-105926428D01*
D12*
X198755000Y-113030000D02*
X198755000Y-144145000D01*
X198120000Y-144145000D02*
X198120000Y-113030000D01*
X197485000Y-113030000D02*
X197485000Y-144145000D01*
X198755000Y-48260000D02*
X198755000Y-49530000D01*
X198120000Y-48260000D02*
X198120000Y-49530000D01*
X197485000Y-49530000D02*
X197485000Y-48260000D01*
D11*
X198572381Y-111735952D02*
X197572381Y-111735952D01*
X197572381Y-111354999D01*
X197620000Y-111259761D01*
X197667619Y-111212142D01*
X197762857Y-111164523D01*
X197905714Y-111164523D01*
X198000952Y-111212142D01*
X198048571Y-111259761D01*
X198096190Y-111354999D01*
X198096190Y-111735952D01*
X198572381Y-110735952D02*
X197572381Y-110735952D01*
X198572381Y-110259762D02*
X197572381Y-110259762D01*
X198572381Y-109688333D01*
X197572381Y-109688333D01*
X198572381Y-107926428D02*
X198572381Y-108497857D01*
X198572381Y-108212143D02*
X197572381Y-108212143D01*
X197715238Y-108307381D01*
X197810476Y-108402619D01*
X197858095Y-108497857D01*
D14*
X199450000Y-146855000D02*
X100270000Y-146855000D01*
X100270000Y-146855000D02*
X100270000Y-149515000D01*
X100270000Y-149515000D02*
X199450000Y-149515000D01*
X199450000Y-149515000D02*
X199450000Y-146855000D01*
X198500000Y-149515000D02*
X198500000Y-155515000D01*
X198500000Y-155515000D02*
X197740000Y-155515000D01*
X197740000Y-155515000D02*
X197740000Y-149515000D01*
X198440000Y-149515000D02*
X198440000Y-155515000D01*
X198320000Y-149515000D02*
X198320000Y-155515000D01*
X198200000Y-149515000D02*
X198200000Y-155515000D01*
X198080000Y-149515000D02*
X198080000Y-155515000D01*
X197960000Y-149515000D02*
X197960000Y-155515000D01*
X197840000Y-149515000D02*
X197840000Y-155515000D01*
X198500000Y-146525000D02*
X198500000Y-146855000D01*
X197740000Y-146525000D02*
X197740000Y-146855000D01*
X196850000Y-146855000D02*
X196850000Y-149515000D01*
X195960000Y-149515000D02*
X195960000Y-155515000D01*
X195960000Y-155515000D02*
X195200000Y-155515000D01*
X195200000Y-155515000D02*
X195200000Y-149515000D01*
X195960000Y-146457929D02*
X195960000Y-146855000D01*
X195200000Y-146457929D02*
X195200000Y-146855000D01*
X194310000Y-146855000D02*
X194310000Y-149515000D01*
X193420000Y-149515000D02*
X193420000Y-155515000D01*
X193420000Y-155515000D02*
X192660000Y-155515000D01*
X192660000Y-155515000D02*
X192660000Y-149515000D01*
X193420000Y-146457929D02*
X193420000Y-146855000D01*
X192660000Y-146457929D02*
X192660000Y-146855000D01*
X191770000Y-146855000D02*
X191770000Y-149515000D01*
X190880000Y-149515000D02*
X190880000Y-155515000D01*
X190880000Y-155515000D02*
X190120000Y-155515000D01*
X190120000Y-155515000D02*
X190120000Y-149515000D01*
X190880000Y-146457929D02*
X190880000Y-146855000D01*
X190120000Y-146457929D02*
X190120000Y-146855000D01*
X189230000Y-146855000D02*
X189230000Y-149515000D01*
X188340000Y-149515000D02*
X188340000Y-155515000D01*
X188340000Y-155515000D02*
X187580000Y-155515000D01*
X187580000Y-155515000D02*
X187580000Y-149515000D01*
X188340000Y-146457929D02*
X188340000Y-146855000D01*
X187580000Y-146457929D02*
X187580000Y-146855000D01*
X186690000Y-146855000D02*
X186690000Y-149515000D01*
X185800000Y-149515000D02*
X185800000Y-155515000D01*
X185800000Y-155515000D02*
X185040000Y-155515000D01*
X185040000Y-155515000D02*
X185040000Y-149515000D01*
X185800000Y-146457929D02*
X185800000Y-146855000D01*
X185040000Y-146457929D02*
X185040000Y-146855000D01*
X184150000Y-146855000D02*
X184150000Y-149515000D01*
X183260000Y-149515000D02*
X183260000Y-155515000D01*
X183260000Y-155515000D02*
X182500000Y-155515000D01*
X182500000Y-155515000D02*
X182500000Y-149515000D01*
X183260000Y-146457929D02*
X183260000Y-146855000D01*
X182500000Y-146457929D02*
X182500000Y-146855000D01*
X181610000Y-146855000D02*
X181610000Y-149515000D01*
X180720000Y-149515000D02*
X180720000Y-155515000D01*
X180720000Y-155515000D02*
X179960000Y-155515000D01*
X179960000Y-155515000D02*
X179960000Y-149515000D01*
X180720000Y-146457929D02*
X180720000Y-146855000D01*
X179960000Y-146457929D02*
X179960000Y-146855000D01*
X179070000Y-146855000D02*
X179070000Y-149515000D01*
X178180000Y-149515000D02*
X178180000Y-155515000D01*
X178180000Y-155515000D02*
X177420000Y-155515000D01*
X177420000Y-155515000D02*
X177420000Y-149515000D01*
X178180000Y-146457929D02*
X178180000Y-146855000D01*
X177420000Y-146457929D02*
X177420000Y-146855000D01*
X176530000Y-146855000D02*
X176530000Y-149515000D01*
X175640000Y-149515000D02*
X175640000Y-155515000D01*
X175640000Y-155515000D02*
X174880000Y-155515000D01*
X174880000Y-155515000D02*
X174880000Y-149515000D01*
X175640000Y-146457929D02*
X175640000Y-146855000D01*
X174880000Y-146457929D02*
X174880000Y-146855000D01*
X173990000Y-146855000D02*
X173990000Y-149515000D01*
X173100000Y-149515000D02*
X173100000Y-155515000D01*
X173100000Y-155515000D02*
X172340000Y-155515000D01*
X172340000Y-155515000D02*
X172340000Y-149515000D01*
X173100000Y-146457929D02*
X173100000Y-146855000D01*
X172340000Y-146457929D02*
X172340000Y-146855000D01*
X171450000Y-146855000D02*
X171450000Y-149515000D01*
X170560000Y-149515000D02*
X170560000Y-155515000D01*
X170560000Y-155515000D02*
X169800000Y-155515000D01*
X169800000Y-155515000D02*
X169800000Y-149515000D01*
X170560000Y-146457929D02*
X170560000Y-146855000D01*
X169800000Y-146457929D02*
X169800000Y-146855000D01*
X168910000Y-146855000D02*
X168910000Y-149515000D01*
X168020000Y-149515000D02*
X168020000Y-155515000D01*
X168020000Y-155515000D02*
X167260000Y-155515000D01*
X167260000Y-155515000D02*
X167260000Y-149515000D01*
X168020000Y-146457929D02*
X168020000Y-146855000D01*
X167260000Y-146457929D02*
X167260000Y-146855000D01*
X166370000Y-146855000D02*
X166370000Y-149515000D01*
X165480000Y-149515000D02*
X165480000Y-155515000D01*
X165480000Y-155515000D02*
X164720000Y-155515000D01*
X164720000Y-155515000D02*
X164720000Y-149515000D01*
X165480000Y-146457929D02*
X165480000Y-146855000D01*
X164720000Y-146457929D02*
X164720000Y-146855000D01*
X163830000Y-146855000D02*
X163830000Y-149515000D01*
X162940000Y-149515000D02*
X162940000Y-155515000D01*
X162940000Y-155515000D02*
X162180000Y-155515000D01*
X162180000Y-155515000D02*
X162180000Y-149515000D01*
X162940000Y-146457929D02*
X162940000Y-146855000D01*
X162180000Y-146457929D02*
X162180000Y-146855000D01*
X161290000Y-146855000D02*
X161290000Y-149515000D01*
X160400000Y-149515000D02*
X160400000Y-155515000D01*
X160400000Y-155515000D02*
X159640000Y-155515000D01*
X159640000Y-155515000D02*
X159640000Y-149515000D01*
X160400000Y-146457929D02*
X160400000Y-146855000D01*
X159640000Y-146457929D02*
X159640000Y-146855000D01*
X158750000Y-146855000D02*
X158750000Y-149515000D01*
X157860000Y-149515000D02*
X157860000Y-155515000D01*
X157860000Y-155515000D02*
X157100000Y-155515000D01*
X157100000Y-155515000D02*
X157100000Y-149515000D01*
X157860000Y-146457929D02*
X157860000Y-146855000D01*
X157100000Y-146457929D02*
X157100000Y-146855000D01*
X156210000Y-146855000D02*
X156210000Y-149515000D01*
X155320000Y-149515000D02*
X155320000Y-155515000D01*
X155320000Y-155515000D02*
X154560000Y-155515000D01*
X154560000Y-155515000D02*
X154560000Y-149515000D01*
X155320000Y-146457929D02*
X155320000Y-146855000D01*
X154560000Y-146457929D02*
X154560000Y-146855000D01*
X153670000Y-146855000D02*
X153670000Y-149515000D01*
X152780000Y-149515000D02*
X152780000Y-155515000D01*
X152780000Y-155515000D02*
X152020000Y-155515000D01*
X152020000Y-155515000D02*
X152020000Y-149515000D01*
X152780000Y-146457929D02*
X152780000Y-146855000D01*
X152020000Y-146457929D02*
X152020000Y-146855000D01*
X151130000Y-146855000D02*
X151130000Y-149515000D01*
X150240000Y-149515000D02*
X150240000Y-155515000D01*
X150240000Y-155515000D02*
X149480000Y-155515000D01*
X149480000Y-155515000D02*
X149480000Y-149515000D01*
X150240000Y-146457929D02*
X150240000Y-146855000D01*
X149480000Y-146457929D02*
X149480000Y-146855000D01*
X148590000Y-146855000D02*
X148590000Y-149515000D01*
X147700000Y-149515000D02*
X147700000Y-155515000D01*
X147700000Y-155515000D02*
X146940000Y-155515000D01*
X146940000Y-155515000D02*
X146940000Y-149515000D01*
X147700000Y-146457929D02*
X147700000Y-146855000D01*
X146940000Y-146457929D02*
X146940000Y-146855000D01*
X146050000Y-146855000D02*
X146050000Y-149515000D01*
X145160000Y-149515000D02*
X145160000Y-155515000D01*
X145160000Y-155515000D02*
X144400000Y-155515000D01*
X144400000Y-155515000D02*
X144400000Y-149515000D01*
X145160000Y-146457929D02*
X145160000Y-146855000D01*
X144400000Y-146457929D02*
X144400000Y-146855000D01*
X143510000Y-146855000D02*
X143510000Y-149515000D01*
X142620000Y-149515000D02*
X142620000Y-155515000D01*
X142620000Y-155515000D02*
X141860000Y-155515000D01*
X141860000Y-155515000D02*
X141860000Y-149515000D01*
X142620000Y-146457929D02*
X142620000Y-146855000D01*
X141860000Y-146457929D02*
X141860000Y-146855000D01*
X140970000Y-146855000D02*
X140970000Y-149515000D01*
X140080000Y-149515000D02*
X140080000Y-155515000D01*
X140080000Y-155515000D02*
X139320000Y-155515000D01*
X139320000Y-155515000D02*
X139320000Y-149515000D01*
X140080000Y-146457929D02*
X140080000Y-146855000D01*
X139320000Y-146457929D02*
X139320000Y-146855000D01*
X138430000Y-146855000D02*
X138430000Y-149515000D01*
X137540000Y-149515000D02*
X137540000Y-155515000D01*
X137540000Y-155515000D02*
X136780000Y-155515000D01*
X136780000Y-155515000D02*
X136780000Y-149515000D01*
X137540000Y-146457929D02*
X137540000Y-146855000D01*
X136780000Y-146457929D02*
X136780000Y-146855000D01*
X135890000Y-146855000D02*
X135890000Y-149515000D01*
X135000000Y-149515000D02*
X135000000Y-155515000D01*
X135000000Y-155515000D02*
X134240000Y-155515000D01*
X134240000Y-155515000D02*
X134240000Y-149515000D01*
X135000000Y-146457929D02*
X135000000Y-146855000D01*
X134240000Y-146457929D02*
X134240000Y-146855000D01*
X133350000Y-146855000D02*
X133350000Y-149515000D01*
X132460000Y-149515000D02*
X132460000Y-155515000D01*
X132460000Y-155515000D02*
X131700000Y-155515000D01*
X131700000Y-155515000D02*
X131700000Y-149515000D01*
X132460000Y-146457929D02*
X132460000Y-146855000D01*
X131700000Y-146457929D02*
X131700000Y-146855000D01*
X130810000Y-146855000D02*
X130810000Y-149515000D01*
X129920000Y-149515000D02*
X129920000Y-155515000D01*
X129920000Y-155515000D02*
X129160000Y-155515000D01*
X129160000Y-155515000D02*
X129160000Y-149515000D01*
X129920000Y-146457929D02*
X129920000Y-146855000D01*
X129160000Y-146457929D02*
X129160000Y-146855000D01*
X128270000Y-146855000D02*
X128270000Y-149515000D01*
X127380000Y-149515000D02*
X127380000Y-155515000D01*
X127380000Y-155515000D02*
X126620000Y-155515000D01*
X126620000Y-155515000D02*
X126620000Y-149515000D01*
X127380000Y-146457929D02*
X127380000Y-146855000D01*
X126620000Y-146457929D02*
X126620000Y-146855000D01*
X125730000Y-146855000D02*
X125730000Y-149515000D01*
X124840000Y-149515000D02*
X124840000Y-155515000D01*
X124840000Y-155515000D02*
X124080000Y-155515000D01*
X124080000Y-155515000D02*
X124080000Y-149515000D01*
X124840000Y-146457929D02*
X124840000Y-146855000D01*
X124080000Y-146457929D02*
X124080000Y-146855000D01*
X123190000Y-146855000D02*
X123190000Y-149515000D01*
X122300000Y-149515000D02*
X122300000Y-155515000D01*
X122300000Y-155515000D02*
X121540000Y-155515000D01*
X121540000Y-155515000D02*
X121540000Y-149515000D01*
X122300000Y-146457929D02*
X122300000Y-146855000D01*
X121540000Y-146457929D02*
X121540000Y-146855000D01*
X120650000Y-146855000D02*
X120650000Y-149515000D01*
X119760000Y-149515000D02*
X119760000Y-155515000D01*
X119760000Y-155515000D02*
X119000000Y-155515000D01*
X119000000Y-155515000D02*
X119000000Y-149515000D01*
X119760000Y-146457929D02*
X119760000Y-146855000D01*
X119000000Y-146457929D02*
X119000000Y-146855000D01*
X118110000Y-146855000D02*
X118110000Y-149515000D01*
X117220000Y-149515000D02*
X117220000Y-155515000D01*
X117220000Y-155515000D02*
X116460000Y-155515000D01*
X116460000Y-155515000D02*
X116460000Y-149515000D01*
X117220000Y-146457929D02*
X117220000Y-146855000D01*
X116460000Y-146457929D02*
X116460000Y-146855000D01*
X115570000Y-146855000D02*
X115570000Y-149515000D01*
X114680000Y-149515000D02*
X114680000Y-155515000D01*
X114680000Y-155515000D02*
X113920000Y-155515000D01*
X113920000Y-155515000D02*
X113920000Y-149515000D01*
X114680000Y-146457929D02*
X114680000Y-146855000D01*
X113920000Y-146457929D02*
X113920000Y-146855000D01*
X113030000Y-146855000D02*
X113030000Y-149515000D01*
X112140000Y-149515000D02*
X112140000Y-155515000D01*
X112140000Y-155515000D02*
X111380000Y-155515000D01*
X111380000Y-155515000D02*
X111380000Y-149515000D01*
X112140000Y-146457929D02*
X112140000Y-146855000D01*
X111380000Y-146457929D02*
X111380000Y-146855000D01*
X110490000Y-146855000D02*
X110490000Y-149515000D01*
X109600000Y-149515000D02*
X109600000Y-155515000D01*
X109600000Y-155515000D02*
X108840000Y-155515000D01*
X108840000Y-155515000D02*
X108840000Y-149515000D01*
X109600000Y-146457929D02*
X109600000Y-146855000D01*
X108840000Y-146457929D02*
X108840000Y-146855000D01*
X107950000Y-146855000D02*
X107950000Y-149515000D01*
X107060000Y-149515000D02*
X107060000Y-155515000D01*
X107060000Y-155515000D02*
X106300000Y-155515000D01*
X106300000Y-155515000D02*
X106300000Y-149515000D01*
X107060000Y-146457929D02*
X107060000Y-146855000D01*
X106300000Y-146457929D02*
X106300000Y-146855000D01*
X105410000Y-146855000D02*
X105410000Y-149515000D01*
X104520000Y-149515000D02*
X104520000Y-155515000D01*
X104520000Y-155515000D02*
X103760000Y-155515000D01*
X103760000Y-155515000D02*
X103760000Y-149515000D01*
X104520000Y-146457929D02*
X104520000Y-146855000D01*
X103760000Y-146457929D02*
X103760000Y-146855000D01*
X102870000Y-146855000D02*
X102870000Y-149515000D01*
X101980000Y-149515000D02*
X101980000Y-155515000D01*
X101980000Y-155515000D02*
X101220000Y-155515000D01*
X101220000Y-155515000D02*
X101220000Y-149515000D01*
X101980000Y-146457929D02*
X101980000Y-146855000D01*
X101220000Y-146457929D02*
X101220000Y-146855000D01*
X198120000Y-144145000D02*
X199390000Y-144145000D01*
X199390000Y-144145000D02*
X199390000Y-145415000D01*
X106426000Y-140335000D02*
G75*
G03X106426000Y-140335000I-2286000J0D01*
G01*
X197866000Y-140335000D02*
G75*
G03X197866000Y-140335000I-2286000J0D01*
G01*
X197866000Y-55880000D02*
G75*
G03X197866000Y-55880000I-2286000J0D01*
G01*
X106426000Y-55880000D02*
G75*
G03X106426000Y-55880000I-2286000J0D01*
G01*
X100270000Y-49470000D02*
X100270000Y-52130000D01*
X196850000Y-49470000D02*
X100270000Y-49470000D01*
X196850000Y-52130000D02*
X100270000Y-52130000D01*
X196850000Y-49470000D02*
X196850000Y-52130000D01*
X198120000Y-49470000D02*
X199450000Y-49470000D01*
X199450000Y-49470000D02*
X199450000Y-50800000D01*
D11*
X187860000Y-135855000D02*
X188360000Y-135855000D01*
X188360000Y-135855000D02*
X188360000Y-135355000D01*
X188360000Y-135355000D02*
X188860000Y-135355000D01*
X188860000Y-135355000D02*
X188860000Y-134855000D01*
X188860000Y-134855000D02*
X188360000Y-134855000D01*
X188360000Y-134855000D02*
X188360000Y-134355000D01*
X188360000Y-134355000D02*
X187860000Y-134355000D01*
X187860000Y-134355000D02*
X187860000Y-134855000D01*
X187860000Y-134855000D02*
X187360000Y-134855000D01*
X187360000Y-134855000D02*
X187360000Y-135355000D01*
X187360000Y-135355000D02*
X187860000Y-135355000D01*
X187860000Y-135355000D02*
X187860000Y-135855000D01*
X188360000Y-129855000D02*
X187860000Y-129855000D01*
X187860000Y-129855000D02*
X187860000Y-131355000D01*
X187860000Y-131355000D02*
X188360000Y-131355000D01*
X188360000Y-131355000D02*
X188360000Y-129855000D01*
X188360000Y-89855000D02*
X188860000Y-89855000D01*
X188860000Y-89855000D02*
X188860000Y-89355000D01*
X188860000Y-89355000D02*
X189360000Y-89355000D01*
X189360000Y-89355000D02*
X189360000Y-88855000D01*
X189360000Y-88855000D02*
X188860000Y-88855000D01*
X188860000Y-88855000D02*
X188860000Y-88355000D01*
X188860000Y-88355000D02*
X188360000Y-88355000D01*
X188360000Y-88355000D02*
X188360000Y-88855000D01*
X188360000Y-88855000D02*
X187860000Y-88855000D01*
X187860000Y-88855000D02*
X187860000Y-89355000D01*
X187860000Y-89355000D02*
X188360000Y-89355000D01*
X188360000Y-89355000D02*
X188360000Y-89855000D01*
X188860000Y-83855000D02*
X188360000Y-83855000D01*
X188360000Y-83855000D02*
X188360000Y-85355000D01*
X188360000Y-85355000D02*
X188860000Y-85355000D01*
X188860000Y-85355000D02*
X188860000Y-83855000D01*
X110860000Y-89855000D02*
X111360000Y-89855000D01*
X111360000Y-89855000D02*
X111360000Y-89355000D01*
X111360000Y-89355000D02*
X111860000Y-89355000D01*
X111860000Y-89355000D02*
X111860000Y-88855000D01*
X111860000Y-88855000D02*
X111360000Y-88855000D01*
X111360000Y-88855000D02*
X111360000Y-88355000D01*
X111360000Y-88355000D02*
X110860000Y-88355000D01*
X110860000Y-88355000D02*
X110860000Y-88855000D01*
X110860000Y-88855000D02*
X110360000Y-88855000D01*
X110360000Y-88855000D02*
X110360000Y-89355000D01*
X110360000Y-89355000D02*
X110860000Y-89355000D01*
X110860000Y-89355000D02*
X110860000Y-89855000D01*
X110860000Y-83855000D02*
X110860000Y-85355000D01*
X110860000Y-85355000D02*
X111360000Y-85355000D01*
X111360000Y-85355000D02*
X111360000Y-83855000D01*
X111360000Y-83855000D02*
X110860000Y-83855000D01*
X110860000Y-134355000D02*
X111360000Y-134355000D01*
X111360000Y-134355000D02*
X111360000Y-134855000D01*
X111360000Y-134855000D02*
X111860000Y-134855000D01*
X111860000Y-134855000D02*
X111860000Y-135355000D01*
X111860000Y-135355000D02*
X111360000Y-135355000D01*
X111360000Y-135355000D02*
X111360000Y-135855000D01*
X111360000Y-135855000D02*
X110860000Y-135855000D01*
X110860000Y-135855000D02*
X110860000Y-135355000D01*
X110860000Y-135355000D02*
X110360000Y-135355000D01*
X110360000Y-135355000D02*
X110360000Y-134855000D01*
X110360000Y-134855000D02*
X110860000Y-134855000D01*
X110860000Y-134855000D02*
X110860000Y-134355000D01*
X110860000Y-129855000D02*
X111360000Y-129855000D01*
X111360000Y-129855000D02*
X111360000Y-131355000D01*
X111360000Y-131355000D02*
X110860000Y-131355000D01*
X110860000Y-129855000D02*
X110860000Y-131355000D01*
X191860000Y-108855000D02*
X107860000Y-108855000D01*
X107860000Y-110855000D02*
X191860000Y-110855000D01*
X191860000Y-128355000D02*
X107860000Y-128355000D01*
X191860000Y-91355000D02*
X107860000Y-91355000D01*
X107860000Y-137355000D02*
X191860000Y-137355000D01*
X107860000Y-82355000D02*
X191860000Y-82355000D01*
X107860000Y-109855000D02*
X107860000Y-137355000D01*
X107860000Y-109855000D02*
X107860000Y-82355000D01*
X191860000Y-109855000D02*
X191860000Y-137355000D01*
X191860000Y-109855000D02*
X191860000Y-82355000D01*
D14*
X128330000Y-81340000D02*
X128330000Y-78680000D01*
X105410000Y-81340000D02*
X128330000Y-81340000D01*
X105410000Y-78680000D02*
X128330000Y-78680000D01*
X105410000Y-81340000D02*
X105410000Y-78680000D01*
X104140000Y-81340000D02*
X102810000Y-81340000D01*
X102810000Y-81340000D02*
X102810000Y-80010000D01*
X156270000Y-81340000D02*
X156270000Y-78680000D01*
X133350000Y-81340000D02*
X156270000Y-81340000D01*
X133350000Y-78680000D02*
X156270000Y-78680000D01*
X133350000Y-81340000D02*
X133350000Y-78680000D01*
X132080000Y-81340000D02*
X130750000Y-81340000D01*
X130750000Y-81340000D02*
X130750000Y-80010000D01*
X196910000Y-130115000D02*
X194250000Y-130115000D01*
X196910000Y-132715000D02*
X196910000Y-130115000D01*
X194250000Y-132715000D02*
X194250000Y-130115000D01*
X196910000Y-132715000D02*
X194250000Y-132715000D01*
X196910000Y-133985000D02*
X196910000Y-135315000D01*
X196910000Y-135315000D02*
X195580000Y-135315000D01*
X196910000Y-84395000D02*
X194250000Y-84395000D01*
X196910000Y-86995000D02*
X196910000Y-84395000D01*
X194250000Y-86995000D02*
X194250000Y-84395000D01*
X196910000Y-86995000D02*
X194250000Y-86995000D01*
X196910000Y-88265000D02*
X196910000Y-89595000D01*
X196910000Y-89595000D02*
X195580000Y-89595000D01*
X157480000Y-73025000D02*
X154940000Y-73025000D01*
X154940000Y-73025000D02*
X154940000Y-75695000D01*
X157480000Y-75695000D02*
X195710000Y-75695000D01*
X152270000Y-75695000D02*
X154940000Y-75695000D01*
X154940000Y-60325000D02*
X154940000Y-57655000D01*
X154940000Y-60325000D02*
X193040000Y-60325000D01*
X193040000Y-60325000D02*
X193040000Y-57655000D01*
X157480000Y-73025000D02*
X157480000Y-75695000D01*
X157480000Y-73025000D02*
X193040000Y-73025000D01*
X193040000Y-73025000D02*
X193040000Y-75695000D01*
X195710000Y-75695000D02*
X195710000Y-57655000D01*
X195710000Y-57655000D02*
X152270000Y-57655000D01*
X152270000Y-57655000D02*
X152270000Y-75695000D01*
D11*
X199842381Y-150133333D02*
X200556667Y-150133333D01*
X200699524Y-150180953D01*
X200794762Y-150276191D01*
X200842381Y-150419048D01*
X200842381Y-150514286D01*
X200842381Y-149133333D02*
X200842381Y-149704762D01*
X200842381Y-149419048D02*
X199842381Y-149419048D01*
X199985238Y-149514286D01*
X200080476Y-149609524D01*
X200128095Y-149704762D01*
X199902381Y-51133333D02*
X200616667Y-51133333D01*
X200759524Y-51180953D01*
X200854762Y-51276191D01*
X200902381Y-51419048D01*
X200902381Y-51514286D01*
X199902381Y-50752381D02*
X199902381Y-50133333D01*
X200283333Y-50466667D01*
X200283333Y-50323809D01*
X200330952Y-50228571D01*
X200378571Y-50180952D01*
X200473810Y-50133333D01*
X200711905Y-50133333D01*
X200807143Y-50180952D01*
X200854762Y-50228571D01*
X200902381Y-50323809D01*
X200902381Y-50609524D01*
X200854762Y-50704762D01*
X200807143Y-50752381D01*
X146169524Y-109783571D02*
X146312381Y-109831190D01*
X146360000Y-109878810D01*
X146407619Y-109974048D01*
X146407619Y-110116905D01*
X146360000Y-110212143D01*
X146312381Y-110259762D01*
X146217143Y-110307381D01*
X145836190Y-110307381D01*
X145836190Y-109307381D01*
X146169524Y-109307381D01*
X146264762Y-109355000D01*
X146312381Y-109402619D01*
X146360000Y-109497857D01*
X146360000Y-109593095D01*
X146312381Y-109688333D01*
X146264762Y-109735952D01*
X146169524Y-109783571D01*
X145836190Y-109783571D01*
X146836190Y-110307381D02*
X146836190Y-109640714D01*
X146836190Y-109831190D02*
X146883809Y-109735952D01*
X146931428Y-109688333D01*
X147026666Y-109640714D01*
X147121905Y-109640714D01*
X147836191Y-110259762D02*
X147740953Y-110307381D01*
X147550476Y-110307381D01*
X147455238Y-110259762D01*
X147407619Y-110164524D01*
X147407619Y-109783571D01*
X147455238Y-109688333D01*
X147550476Y-109640714D01*
X147740953Y-109640714D01*
X147836191Y-109688333D01*
X147883810Y-109783571D01*
X147883810Y-109878810D01*
X147407619Y-109974048D01*
X148740953Y-110307381D02*
X148740953Y-109783571D01*
X148693334Y-109688333D01*
X148598096Y-109640714D01*
X148407619Y-109640714D01*
X148312381Y-109688333D01*
X148740953Y-110259762D02*
X148645715Y-110307381D01*
X148407619Y-110307381D01*
X148312381Y-110259762D01*
X148264762Y-110164524D01*
X148264762Y-110069286D01*
X148312381Y-109974048D01*
X148407619Y-109926429D01*
X148645715Y-109926429D01*
X148740953Y-109878810D01*
X149645715Y-110307381D02*
X149645715Y-109307381D01*
X149645715Y-110259762D02*
X149550477Y-110307381D01*
X149360000Y-110307381D01*
X149264762Y-110259762D01*
X149217143Y-110212143D01*
X149169524Y-110116905D01*
X149169524Y-109831190D01*
X149217143Y-109735952D01*
X149264762Y-109688333D01*
X149360000Y-109640714D01*
X149550477Y-109640714D01*
X149645715Y-109688333D01*
X150121905Y-110307381D02*
X150121905Y-109307381D01*
X150121905Y-109688333D02*
X150217143Y-109640714D01*
X150407620Y-109640714D01*
X150502858Y-109688333D01*
X150550477Y-109735952D01*
X150598096Y-109831190D01*
X150598096Y-110116905D01*
X150550477Y-110212143D01*
X150502858Y-110259762D01*
X150407620Y-110307381D01*
X150217143Y-110307381D01*
X150121905Y-110259762D01*
X151169524Y-110307381D02*
X151074286Y-110259762D01*
X151026667Y-110212143D01*
X150979048Y-110116905D01*
X150979048Y-109831190D01*
X151026667Y-109735952D01*
X151074286Y-109688333D01*
X151169524Y-109640714D01*
X151312382Y-109640714D01*
X151407620Y-109688333D01*
X151455239Y-109735952D01*
X151502858Y-109831190D01*
X151502858Y-110116905D01*
X151455239Y-110212143D01*
X151407620Y-110259762D01*
X151312382Y-110307381D01*
X151169524Y-110307381D01*
X152360001Y-110307381D02*
X152360001Y-109783571D01*
X152312382Y-109688333D01*
X152217144Y-109640714D01*
X152026667Y-109640714D01*
X151931429Y-109688333D01*
X152360001Y-110259762D02*
X152264763Y-110307381D01*
X152026667Y-110307381D01*
X151931429Y-110259762D01*
X151883810Y-110164524D01*
X151883810Y-110069286D01*
X151931429Y-109974048D01*
X152026667Y-109926429D01*
X152264763Y-109926429D01*
X152360001Y-109878810D01*
X152836191Y-110307381D02*
X152836191Y-109640714D01*
X152836191Y-109831190D02*
X152883810Y-109735952D01*
X152931429Y-109688333D01*
X153026667Y-109640714D01*
X153121906Y-109640714D01*
X153883811Y-110307381D02*
X153883811Y-109307381D01*
X153883811Y-110259762D02*
X153788573Y-110307381D01*
X153598096Y-110307381D01*
X153502858Y-110259762D01*
X153455239Y-110212143D01*
X153407620Y-110116905D01*
X153407620Y-109831190D01*
X153455239Y-109735952D01*
X153502858Y-109688333D01*
X153598096Y-109640714D01*
X153788573Y-109640714D01*
X153883811Y-109688333D01*
D10*
X129901905Y-81705238D02*
X129101905Y-81705238D01*
X129101905Y-81400476D01*
X129140000Y-81324285D01*
X129178095Y-81286190D01*
X129254286Y-81248095D01*
X129368571Y-81248095D01*
X129444762Y-81286190D01*
X129482857Y-81324285D01*
X129520952Y-81400476D01*
X129520952Y-81705238D01*
X129901905Y-80790952D02*
X129863810Y-80867143D01*
X129825714Y-80905238D01*
X129749524Y-80943333D01*
X129520952Y-80943333D01*
X129444762Y-80905238D01*
X129406667Y-80867143D01*
X129368571Y-80790952D01*
X129368571Y-80676666D01*
X129406667Y-80600476D01*
X129444762Y-80562381D01*
X129520952Y-80524285D01*
X129749524Y-80524285D01*
X129825714Y-80562381D01*
X129863810Y-80600476D01*
X129901905Y-80676666D01*
X129901905Y-80790952D01*
X129901905Y-80181428D02*
X129368571Y-80181428D01*
X129520952Y-80181428D02*
X129444762Y-80143333D01*
X129406667Y-80105237D01*
X129368571Y-80029047D01*
X129368571Y-79952856D01*
X129368571Y-79800476D02*
X129368571Y-79495714D01*
X129101905Y-79686190D02*
X129787619Y-79686190D01*
X129863810Y-79648095D01*
X129901905Y-79571904D01*
X129901905Y-79495714D01*
X129673333Y-78657618D02*
X129673333Y-78276666D01*
X129901905Y-78733809D02*
X129101905Y-78467142D01*
X129901905Y-78200475D01*
X157841905Y-81762381D02*
X157041905Y-81762381D01*
X157041905Y-81457619D01*
X157080000Y-81381428D01*
X157118095Y-81343333D01*
X157194286Y-81305238D01*
X157308571Y-81305238D01*
X157384762Y-81343333D01*
X157422857Y-81381428D01*
X157460952Y-81457619D01*
X157460952Y-81762381D01*
X157841905Y-80848095D02*
X157803810Y-80924286D01*
X157765714Y-80962381D01*
X157689524Y-81000476D01*
X157460952Y-81000476D01*
X157384762Y-80962381D01*
X157346667Y-80924286D01*
X157308571Y-80848095D01*
X157308571Y-80733809D01*
X157346667Y-80657619D01*
X157384762Y-80619524D01*
X157460952Y-80581428D01*
X157689524Y-80581428D01*
X157765714Y-80619524D01*
X157803810Y-80657619D01*
X157841905Y-80733809D01*
X157841905Y-80848095D01*
X157841905Y-80238571D02*
X157308571Y-80238571D01*
X157460952Y-80238571D02*
X157384762Y-80200476D01*
X157346667Y-80162380D01*
X157308571Y-80086190D01*
X157308571Y-80009999D01*
X157308571Y-79857619D02*
X157308571Y-79552857D01*
X157041905Y-79743333D02*
X157727619Y-79743333D01*
X157803810Y-79705238D01*
X157841905Y-79629047D01*
X157841905Y-79552857D01*
X157422857Y-78409999D02*
X157460952Y-78295713D01*
X157499048Y-78257618D01*
X157575238Y-78219523D01*
X157689524Y-78219523D01*
X157765714Y-78257618D01*
X157803810Y-78295713D01*
X157841905Y-78371904D01*
X157841905Y-78676666D01*
X157041905Y-78676666D01*
X157041905Y-78409999D01*
X157080000Y-78333809D01*
X157118095Y-78295713D01*
X157194286Y-78257618D01*
X157270476Y-78257618D01*
X157346667Y-78295713D01*
X157384762Y-78333809D01*
X157422857Y-78409999D01*
X157422857Y-78676666D01*
D11*
X151296667Y-67389286D02*
X151296667Y-66913095D01*
X151582381Y-67484524D02*
X150582381Y-67151191D01*
X151582381Y-66817857D01*
X151582381Y-65960714D02*
X151582381Y-66532143D01*
X151582381Y-66246429D02*
X150582381Y-66246429D01*
X150725238Y-66341667D01*
X150820476Y-66436905D01*
X150868095Y-66532143D01*
X168521904Y-65571667D02*
X168998095Y-65571667D01*
X168426666Y-65857381D02*
X168759999Y-64857381D01*
X169093333Y-65857381D01*
X169426666Y-65857381D02*
X169426666Y-65190714D01*
X169426666Y-65381190D02*
X169474285Y-65285952D01*
X169521904Y-65238333D01*
X169617142Y-65190714D01*
X169712381Y-65190714D01*
X170474286Y-65857381D02*
X170474286Y-64857381D01*
X170474286Y-65809762D02*
X170379048Y-65857381D01*
X170188571Y-65857381D01*
X170093333Y-65809762D01*
X170045714Y-65762143D01*
X169998095Y-65666905D01*
X169998095Y-65381190D01*
X170045714Y-65285952D01*
X170093333Y-65238333D01*
X170188571Y-65190714D01*
X170379048Y-65190714D01*
X170474286Y-65238333D01*
X171379048Y-65190714D02*
X171379048Y-65857381D01*
X170950476Y-65190714D02*
X170950476Y-65714524D01*
X170998095Y-65809762D01*
X171093333Y-65857381D01*
X171236191Y-65857381D01*
X171331429Y-65809762D01*
X171379048Y-65762143D01*
X171855238Y-65857381D02*
X171855238Y-65190714D01*
X171855238Y-64857381D02*
X171807619Y-64905000D01*
X171855238Y-64952619D01*
X171902857Y-64905000D01*
X171855238Y-64857381D01*
X171855238Y-64952619D01*
X172331428Y-65190714D02*
X172331428Y-65857381D01*
X172331428Y-65285952D02*
X172379047Y-65238333D01*
X172474285Y-65190714D01*
X172617143Y-65190714D01*
X172712381Y-65238333D01*
X172760000Y-65333571D01*
X172760000Y-65857381D01*
X173379047Y-65857381D02*
X173283809Y-65809762D01*
X173236190Y-65762143D01*
X173188571Y-65666905D01*
X173188571Y-65381190D01*
X173236190Y-65285952D01*
X173283809Y-65238333D01*
X173379047Y-65190714D01*
X173521905Y-65190714D01*
X173617143Y-65238333D01*
X173664762Y-65285952D01*
X173712381Y-65381190D01*
X173712381Y-65666905D01*
X173664762Y-65762143D01*
X173617143Y-65809762D01*
X173521905Y-65857381D01*
X173379047Y-65857381D01*
X173902857Y-65952619D02*
X174664762Y-65952619D01*
X174902857Y-65857381D02*
X174902857Y-64857381D01*
X175474286Y-65857381D01*
X175474286Y-64857381D01*
X176379048Y-65857381D02*
X176379048Y-65333571D01*
X176331429Y-65238333D01*
X176236191Y-65190714D01*
X176045714Y-65190714D01*
X175950476Y-65238333D01*
X176379048Y-65809762D02*
X176283810Y-65857381D01*
X176045714Y-65857381D01*
X175950476Y-65809762D01*
X175902857Y-65714524D01*
X175902857Y-65619286D01*
X175950476Y-65524048D01*
X176045714Y-65476429D01*
X176283810Y-65476429D01*
X176379048Y-65428810D01*
X176855238Y-65190714D02*
X176855238Y-65857381D01*
X176855238Y-65285952D02*
X176902857Y-65238333D01*
X176998095Y-65190714D01*
X177140953Y-65190714D01*
X177236191Y-65238333D01*
X177283810Y-65333571D01*
X177283810Y-65857381D01*
X177902857Y-65857381D02*
X177807619Y-65809762D01*
X177760000Y-65762143D01*
X177712381Y-65666905D01*
X177712381Y-65381190D01*
X177760000Y-65285952D01*
X177807619Y-65238333D01*
X177902857Y-65190714D01*
X178045715Y-65190714D01*
X178140953Y-65238333D01*
X178188572Y-65285952D01*
X178236191Y-65381190D01*
X178236191Y-65666905D01*
X178188572Y-65762143D01*
X178140953Y-65809762D01*
X178045715Y-65857381D01*
X177902857Y-65857381D01*
X178426667Y-65952619D02*
X179188572Y-65952619D01*
X179331429Y-65190714D02*
X179569524Y-65857381D01*
X179807620Y-65190714D01*
X180093334Y-64857381D02*
X180712382Y-64857381D01*
X180379048Y-65238333D01*
X180521906Y-65238333D01*
X180617144Y-65285952D01*
X180664763Y-65333571D01*
X180712382Y-65428810D01*
X180712382Y-65666905D01*
X180664763Y-65762143D01*
X180617144Y-65809762D01*
X180521906Y-65857381D01*
X180236191Y-65857381D01*
X180140953Y-65809762D01*
X180093334Y-65762143D01*
X181140953Y-65762143D02*
X181188572Y-65809762D01*
X181140953Y-65857381D01*
X181093334Y-65809762D01*
X181140953Y-65762143D01*
X181140953Y-65857381D01*
X181521905Y-65857381D02*
X182045715Y-65190714D01*
X181521905Y-65190714D02*
X182045715Y-65857381D01*
X174545714Y-68111667D02*
X175021905Y-68111667D01*
X174450476Y-68397381D02*
X174783809Y-67397381D01*
X175117143Y-68397381D01*
X175974286Y-68397381D02*
X175402857Y-68397381D01*
X175688571Y-68397381D02*
X175688571Y-67397381D01*
X175593333Y-67540238D01*
X175498095Y-67635476D01*
X175402857Y-67683095D01*
M02*
