G04 #@! TF.FileFunction,Legend,Bot*
%FSLAX46Y46*%
G04 Gerber Fmt 4.6, Leading zero omitted, Abs format (unit mm)*
G04 Created by KiCad (PCBNEW 4.0.7) date 01/10/20 21:54:51*
%MOMM*%
%LPD*%
G01*
G04 APERTURE LIST*
%ADD10C,0.100000*%
%ADD11C,0.150000*%
G04 APERTURE END LIST*
D10*
X121558095Y-83286429D02*
X122358095Y-83286429D01*
X122358095Y-83095953D01*
X122320000Y-82981667D01*
X122243810Y-82905476D01*
X122167619Y-82867381D01*
X122015238Y-82829286D01*
X121900952Y-82829286D01*
X121748571Y-82867381D01*
X121672381Y-82905476D01*
X121596190Y-82981667D01*
X121558095Y-83095953D01*
X121558095Y-83286429D01*
X121558095Y-82448334D02*
X121558095Y-82295953D01*
X121596190Y-82219762D01*
X121634286Y-82181667D01*
X121748571Y-82105476D01*
X121900952Y-82067381D01*
X122205714Y-82067381D01*
X122281905Y-82105476D01*
X122320000Y-82143572D01*
X122358095Y-82219762D01*
X122358095Y-82372143D01*
X122320000Y-82448334D01*
X122281905Y-82486429D01*
X122205714Y-82524524D01*
X122015238Y-82524524D01*
X121939048Y-82486429D01*
X121900952Y-82448334D01*
X121862857Y-82372143D01*
X121862857Y-82219762D01*
X121900952Y-82143572D01*
X121939048Y-82105476D01*
X122015238Y-82067381D01*
X119018095Y-83286429D02*
X119818095Y-83286429D01*
X119818095Y-83095953D01*
X119780000Y-82981667D01*
X119703810Y-82905476D01*
X119627619Y-82867381D01*
X119475238Y-82829286D01*
X119360952Y-82829286D01*
X119208571Y-82867381D01*
X119132381Y-82905476D01*
X119056190Y-82981667D01*
X119018095Y-83095953D01*
X119018095Y-83286429D01*
X119475238Y-82372143D02*
X119513333Y-82448334D01*
X119551429Y-82486429D01*
X119627619Y-82524524D01*
X119665714Y-82524524D01*
X119741905Y-82486429D01*
X119780000Y-82448334D01*
X119818095Y-82372143D01*
X119818095Y-82219762D01*
X119780000Y-82143572D01*
X119741905Y-82105476D01*
X119665714Y-82067381D01*
X119627619Y-82067381D01*
X119551429Y-82105476D01*
X119513333Y-82143572D01*
X119475238Y-82219762D01*
X119475238Y-82372143D01*
X119437143Y-82448334D01*
X119399048Y-82486429D01*
X119322857Y-82524524D01*
X119170476Y-82524524D01*
X119094286Y-82486429D01*
X119056190Y-82448334D01*
X119018095Y-82372143D01*
X119018095Y-82219762D01*
X119056190Y-82143572D01*
X119094286Y-82105476D01*
X119170476Y-82067381D01*
X119322857Y-82067381D01*
X119399048Y-82105476D01*
X119437143Y-82143572D01*
X119475238Y-82219762D01*
X116478095Y-83286429D02*
X117278095Y-83286429D01*
X117278095Y-83095953D01*
X117240000Y-82981667D01*
X117163810Y-82905476D01*
X117087619Y-82867381D01*
X116935238Y-82829286D01*
X116820952Y-82829286D01*
X116668571Y-82867381D01*
X116592381Y-82905476D01*
X116516190Y-82981667D01*
X116478095Y-83095953D01*
X116478095Y-83286429D01*
X117278095Y-82562619D02*
X117278095Y-82029286D01*
X116478095Y-82372143D01*
X113938095Y-83286429D02*
X114738095Y-83286429D01*
X114738095Y-83095953D01*
X114700000Y-82981667D01*
X114623810Y-82905476D01*
X114547619Y-82867381D01*
X114395238Y-82829286D01*
X114280952Y-82829286D01*
X114128571Y-82867381D01*
X114052381Y-82905476D01*
X113976190Y-82981667D01*
X113938095Y-83095953D01*
X113938095Y-83286429D01*
X114738095Y-82143572D02*
X114738095Y-82295953D01*
X114700000Y-82372143D01*
X114661905Y-82410238D01*
X114547619Y-82486429D01*
X114395238Y-82524524D01*
X114090476Y-82524524D01*
X114014286Y-82486429D01*
X113976190Y-82448334D01*
X113938095Y-82372143D01*
X113938095Y-82219762D01*
X113976190Y-82143572D01*
X114014286Y-82105476D01*
X114090476Y-82067381D01*
X114280952Y-82067381D01*
X114357143Y-82105476D01*
X114395238Y-82143572D01*
X114433333Y-82219762D01*
X114433333Y-82372143D01*
X114395238Y-82448334D01*
X114357143Y-82486429D01*
X114280952Y-82524524D01*
X111398095Y-83286429D02*
X112198095Y-83286429D01*
X112198095Y-83095953D01*
X112160000Y-82981667D01*
X112083810Y-82905476D01*
X112007619Y-82867381D01*
X111855238Y-82829286D01*
X111740952Y-82829286D01*
X111588571Y-82867381D01*
X111512381Y-82905476D01*
X111436190Y-82981667D01*
X111398095Y-83095953D01*
X111398095Y-83286429D01*
X112198095Y-82105476D02*
X112198095Y-82486429D01*
X111817143Y-82524524D01*
X111855238Y-82486429D01*
X111893333Y-82410238D01*
X111893333Y-82219762D01*
X111855238Y-82143572D01*
X111817143Y-82105476D01*
X111740952Y-82067381D01*
X111550476Y-82067381D01*
X111474286Y-82105476D01*
X111436190Y-82143572D01*
X111398095Y-82219762D01*
X111398095Y-82410238D01*
X111436190Y-82486429D01*
X111474286Y-82524524D01*
X108858095Y-83286429D02*
X109658095Y-83286429D01*
X109658095Y-83095953D01*
X109620000Y-82981667D01*
X109543810Y-82905476D01*
X109467619Y-82867381D01*
X109315238Y-82829286D01*
X109200952Y-82829286D01*
X109048571Y-82867381D01*
X108972381Y-82905476D01*
X108896190Y-82981667D01*
X108858095Y-83095953D01*
X108858095Y-83286429D01*
X109391429Y-82143572D02*
X108858095Y-82143572D01*
X109696190Y-82334048D02*
X109124762Y-82524524D01*
X109124762Y-82029286D01*
X106318095Y-83286429D02*
X107118095Y-83286429D01*
X107118095Y-83095953D01*
X107080000Y-82981667D01*
X107003810Y-82905476D01*
X106927619Y-82867381D01*
X106775238Y-82829286D01*
X106660952Y-82829286D01*
X106508571Y-82867381D01*
X106432381Y-82905476D01*
X106356190Y-82981667D01*
X106318095Y-83095953D01*
X106318095Y-83286429D01*
X107118095Y-82562619D02*
X107118095Y-82067381D01*
X106813333Y-82334048D01*
X106813333Y-82219762D01*
X106775238Y-82143572D01*
X106737143Y-82105476D01*
X106660952Y-82067381D01*
X106470476Y-82067381D01*
X106394286Y-82105476D01*
X106356190Y-82143572D01*
X106318095Y-82219762D01*
X106318095Y-82448334D01*
X106356190Y-82524524D01*
X106394286Y-82562619D01*
X103778095Y-83286429D02*
X104578095Y-83286429D01*
X104578095Y-83095953D01*
X104540000Y-82981667D01*
X104463810Y-82905476D01*
X104387619Y-82867381D01*
X104235238Y-82829286D01*
X104120952Y-82829286D01*
X103968571Y-82867381D01*
X103892381Y-82905476D01*
X103816190Y-82981667D01*
X103778095Y-83095953D01*
X103778095Y-83286429D01*
X104501905Y-82524524D02*
X104540000Y-82486429D01*
X104578095Y-82410238D01*
X104578095Y-82219762D01*
X104540000Y-82143572D01*
X104501905Y-82105476D01*
X104425714Y-82067381D01*
X104349524Y-82067381D01*
X104235238Y-82105476D01*
X103778095Y-82562619D01*
X103778095Y-82067381D01*
X149726667Y-83210238D02*
X149726667Y-82829286D01*
X149498095Y-83286429D02*
X150298095Y-83019762D01*
X149498095Y-82753095D01*
X150298095Y-82562619D02*
X150298095Y-82067381D01*
X149993333Y-82334048D01*
X149993333Y-82219762D01*
X149955238Y-82143572D01*
X149917143Y-82105476D01*
X149840952Y-82067381D01*
X149650476Y-82067381D01*
X149574286Y-82105476D01*
X149536190Y-82143572D01*
X149498095Y-82219762D01*
X149498095Y-82448334D01*
X149536190Y-82524524D01*
X149574286Y-82562619D01*
X147186667Y-83210238D02*
X147186667Y-82829286D01*
X146958095Y-83286429D02*
X147758095Y-83019762D01*
X146958095Y-82753095D01*
X147681905Y-82524524D02*
X147720000Y-82486429D01*
X147758095Y-82410238D01*
X147758095Y-82219762D01*
X147720000Y-82143572D01*
X147681905Y-82105476D01*
X147605714Y-82067381D01*
X147529524Y-82067381D01*
X147415238Y-82105476D01*
X146958095Y-82562619D01*
X146958095Y-82067381D01*
X144646667Y-83210238D02*
X144646667Y-82829286D01*
X144418095Y-83286429D02*
X145218095Y-83019762D01*
X144418095Y-82753095D01*
X144418095Y-82067381D02*
X144418095Y-82524524D01*
X144418095Y-82295953D02*
X145218095Y-82295953D01*
X145103810Y-82372143D01*
X145027619Y-82448334D01*
X144989524Y-82524524D01*
X142106667Y-83210238D02*
X142106667Y-82829286D01*
X141878095Y-83286429D02*
X142678095Y-83019762D01*
X141878095Y-82753095D01*
X142678095Y-82334048D02*
X142678095Y-82257857D01*
X142640000Y-82181667D01*
X142601905Y-82143572D01*
X142525714Y-82105476D01*
X142373333Y-82067381D01*
X142182857Y-82067381D01*
X142030476Y-82105476D01*
X141954286Y-82143572D01*
X141916190Y-82181667D01*
X141878095Y-82257857D01*
X141878095Y-82334048D01*
X141916190Y-82410238D01*
X141954286Y-82448334D01*
X142030476Y-82486429D01*
X142182857Y-82524524D01*
X142373333Y-82524524D01*
X142525714Y-82486429D01*
X142601905Y-82448334D01*
X142640000Y-82410238D01*
X142678095Y-82334048D01*
X139338095Y-84048334D02*
X140138095Y-84048334D01*
X140138095Y-83857858D01*
X140100000Y-83743572D01*
X140023810Y-83667381D01*
X139947619Y-83629286D01*
X139795238Y-83591191D01*
X139680952Y-83591191D01*
X139528571Y-83629286D01*
X139452381Y-83667381D01*
X139376190Y-83743572D01*
X139338095Y-83857858D01*
X139338095Y-84048334D01*
X139338095Y-82829286D02*
X139338095Y-83286429D01*
X139338095Y-83057858D02*
X140138095Y-83057858D01*
X140023810Y-83134048D01*
X139947619Y-83210239D01*
X139909524Y-83286429D01*
X140138095Y-82562619D02*
X140138095Y-82067381D01*
X139833333Y-82334048D01*
X139833333Y-82219762D01*
X139795238Y-82143572D01*
X139757143Y-82105476D01*
X139680952Y-82067381D01*
X139490476Y-82067381D01*
X139414286Y-82105476D01*
X139376190Y-82143572D01*
X139338095Y-82219762D01*
X139338095Y-82448334D01*
X139376190Y-82524524D01*
X139414286Y-82562619D01*
X136798095Y-84048334D02*
X137598095Y-84048334D01*
X137598095Y-83857858D01*
X137560000Y-83743572D01*
X137483810Y-83667381D01*
X137407619Y-83629286D01*
X137255238Y-83591191D01*
X137140952Y-83591191D01*
X136988571Y-83629286D01*
X136912381Y-83667381D01*
X136836190Y-83743572D01*
X136798095Y-83857858D01*
X136798095Y-84048334D01*
X136798095Y-82829286D02*
X136798095Y-83286429D01*
X136798095Y-83057858D02*
X137598095Y-83057858D01*
X137483810Y-83134048D01*
X137407619Y-83210239D01*
X137369524Y-83286429D01*
X137521905Y-82524524D02*
X137560000Y-82486429D01*
X137598095Y-82410238D01*
X137598095Y-82219762D01*
X137560000Y-82143572D01*
X137521905Y-82105476D01*
X137445714Y-82067381D01*
X137369524Y-82067381D01*
X137255238Y-82105476D01*
X136798095Y-82562619D01*
X136798095Y-82067381D01*
X134258095Y-84048334D02*
X135058095Y-84048334D01*
X135058095Y-83857858D01*
X135020000Y-83743572D01*
X134943810Y-83667381D01*
X134867619Y-83629286D01*
X134715238Y-83591191D01*
X134600952Y-83591191D01*
X134448571Y-83629286D01*
X134372381Y-83667381D01*
X134296190Y-83743572D01*
X134258095Y-83857858D01*
X134258095Y-84048334D01*
X134258095Y-82829286D02*
X134258095Y-83286429D01*
X134258095Y-83057858D02*
X135058095Y-83057858D01*
X134943810Y-83134048D01*
X134867619Y-83210239D01*
X134829524Y-83286429D01*
X134258095Y-82067381D02*
X134258095Y-82524524D01*
X134258095Y-82295953D02*
X135058095Y-82295953D01*
X134943810Y-82372143D01*
X134867619Y-82448334D01*
X134829524Y-82524524D01*
X131718095Y-84048334D02*
X132518095Y-84048334D01*
X132518095Y-83857858D01*
X132480000Y-83743572D01*
X132403810Y-83667381D01*
X132327619Y-83629286D01*
X132175238Y-83591191D01*
X132060952Y-83591191D01*
X131908571Y-83629286D01*
X131832381Y-83667381D01*
X131756190Y-83743572D01*
X131718095Y-83857858D01*
X131718095Y-84048334D01*
X131718095Y-82829286D02*
X131718095Y-83286429D01*
X131718095Y-83057858D02*
X132518095Y-83057858D01*
X132403810Y-83134048D01*
X132327619Y-83210239D01*
X132289524Y-83286429D01*
X132518095Y-82334048D02*
X132518095Y-82257857D01*
X132480000Y-82181667D01*
X132441905Y-82143572D01*
X132365714Y-82105476D01*
X132213333Y-82067381D01*
X132022857Y-82067381D01*
X131870476Y-82105476D01*
X131794286Y-82143572D01*
X131756190Y-82181667D01*
X131718095Y-82257857D01*
X131718095Y-82334048D01*
X131756190Y-82410238D01*
X131794286Y-82448334D01*
X131870476Y-82486429D01*
X132022857Y-82524524D01*
X132213333Y-82524524D01*
X132365714Y-82486429D01*
X132441905Y-82448334D01*
X132480000Y-82410238D01*
X132518095Y-82334048D01*
X179145715Y-66808333D02*
X178764763Y-66808333D01*
X179221906Y-67036905D02*
X178955239Y-66236905D01*
X178688572Y-67036905D01*
X178421906Y-67036905D02*
X178421906Y-66503571D01*
X178421906Y-66655952D02*
X178383811Y-66579762D01*
X178345715Y-66541667D01*
X178269525Y-66503571D01*
X178193334Y-66503571D01*
X177583811Y-67036905D02*
X177583811Y-66236905D01*
X177583811Y-66998810D02*
X177660001Y-67036905D01*
X177812382Y-67036905D01*
X177888573Y-66998810D01*
X177926668Y-66960714D01*
X177964763Y-66884524D01*
X177964763Y-66655952D01*
X177926668Y-66579762D01*
X177888573Y-66541667D01*
X177812382Y-66503571D01*
X177660001Y-66503571D01*
X177583811Y-66541667D01*
X176860001Y-66503571D02*
X176860001Y-67036905D01*
X177202858Y-66503571D02*
X177202858Y-66922619D01*
X177164763Y-66998810D01*
X177088572Y-67036905D01*
X176974286Y-67036905D01*
X176898096Y-66998810D01*
X176860001Y-66960714D01*
X176479048Y-67036905D02*
X176479048Y-66503571D01*
X176479048Y-66236905D02*
X176517143Y-66275000D01*
X176479048Y-66313095D01*
X176440953Y-66275000D01*
X176479048Y-66236905D01*
X176479048Y-66313095D01*
X176098096Y-66503571D02*
X176098096Y-67036905D01*
X176098096Y-66579762D02*
X176060001Y-66541667D01*
X175983810Y-66503571D01*
X175869524Y-66503571D01*
X175793334Y-66541667D01*
X175755239Y-66617857D01*
X175755239Y-67036905D01*
X175260000Y-67036905D02*
X175336191Y-66998810D01*
X175374286Y-66960714D01*
X175412381Y-66884524D01*
X175412381Y-66655952D01*
X175374286Y-66579762D01*
X175336191Y-66541667D01*
X175260000Y-66503571D01*
X175145714Y-66503571D01*
X175069524Y-66541667D01*
X175031429Y-66579762D01*
X174993333Y-66655952D01*
X174993333Y-66884524D01*
X175031429Y-66960714D01*
X175069524Y-66998810D01*
X175145714Y-67036905D01*
X175260000Y-67036905D01*
X174040952Y-67036905D02*
X174040952Y-66236905D01*
X173583809Y-67036905D01*
X173583809Y-66236905D01*
X172860000Y-67036905D02*
X172860000Y-66617857D01*
X172898095Y-66541667D01*
X172974285Y-66503571D01*
X173126666Y-66503571D01*
X173202857Y-66541667D01*
X172860000Y-66998810D02*
X172936190Y-67036905D01*
X173126666Y-67036905D01*
X173202857Y-66998810D01*
X173240952Y-66922619D01*
X173240952Y-66846429D01*
X173202857Y-66770238D01*
X173126666Y-66732143D01*
X172936190Y-66732143D01*
X172860000Y-66694048D01*
X172479047Y-66503571D02*
X172479047Y-67036905D01*
X172479047Y-66579762D02*
X172440952Y-66541667D01*
X172364761Y-66503571D01*
X172250475Y-66503571D01*
X172174285Y-66541667D01*
X172136190Y-66617857D01*
X172136190Y-67036905D01*
X171640951Y-67036905D02*
X171717142Y-66998810D01*
X171755237Y-66960714D01*
X171793332Y-66884524D01*
X171793332Y-66655952D01*
X171755237Y-66579762D01*
X171717142Y-66541667D01*
X171640951Y-66503571D01*
X171526665Y-66503571D01*
X171450475Y-66541667D01*
X171412380Y-66579762D01*
X171374284Y-66655952D01*
X171374284Y-66884524D01*
X171412380Y-66960714D01*
X171450475Y-66998810D01*
X171526665Y-67036905D01*
X171640951Y-67036905D01*
D11*
X108505238Y-143962381D02*
X108838572Y-143486190D01*
X109076667Y-143962381D02*
X109076667Y-142962381D01*
X108695714Y-142962381D01*
X108600476Y-143010000D01*
X108552857Y-143057619D01*
X108505238Y-143152857D01*
X108505238Y-143295714D01*
X108552857Y-143390952D01*
X108600476Y-143438571D01*
X108695714Y-143486190D01*
X109076667Y-143486190D01*
X107695714Y-143914762D02*
X107790952Y-143962381D01*
X107981429Y-143962381D01*
X108076667Y-143914762D01*
X108124286Y-143819524D01*
X108124286Y-143438571D01*
X108076667Y-143343333D01*
X107981429Y-143295714D01*
X107790952Y-143295714D01*
X107695714Y-143343333D01*
X107648095Y-143438571D01*
X107648095Y-143533810D01*
X108124286Y-143629048D01*
X107314762Y-143295714D02*
X107076667Y-143962381D01*
X106838571Y-143295714D01*
X106457619Y-143962381D02*
X106457619Y-143295714D01*
X106457619Y-142962381D02*
X106505238Y-143010000D01*
X106457619Y-143057619D01*
X106410000Y-143010000D01*
X106457619Y-142962381D01*
X106457619Y-143057619D01*
X106029048Y-143914762D02*
X105933810Y-143962381D01*
X105743334Y-143962381D01*
X105648095Y-143914762D01*
X105600476Y-143819524D01*
X105600476Y-143771905D01*
X105648095Y-143676667D01*
X105743334Y-143629048D01*
X105886191Y-143629048D01*
X105981429Y-143581429D01*
X106029048Y-143486190D01*
X106029048Y-143438571D01*
X105981429Y-143343333D01*
X105886191Y-143295714D01*
X105743334Y-143295714D01*
X105648095Y-143343333D01*
X105171905Y-143962381D02*
X105171905Y-143295714D01*
X105171905Y-142962381D02*
X105219524Y-143010000D01*
X105171905Y-143057619D01*
X105124286Y-143010000D01*
X105171905Y-142962381D01*
X105171905Y-143057619D01*
X104552858Y-143962381D02*
X104648096Y-143914762D01*
X104695715Y-143867143D01*
X104743334Y-143771905D01*
X104743334Y-143486190D01*
X104695715Y-143390952D01*
X104648096Y-143343333D01*
X104552858Y-143295714D01*
X104410000Y-143295714D01*
X104314762Y-143343333D01*
X104267143Y-143390952D01*
X104219524Y-143486190D01*
X104219524Y-143771905D01*
X104267143Y-143867143D01*
X104314762Y-143914762D01*
X104410000Y-143962381D01*
X104552858Y-143962381D01*
X103790953Y-143295714D02*
X103790953Y-143962381D01*
X103790953Y-143390952D02*
X103743334Y-143343333D01*
X103648096Y-143295714D01*
X103505238Y-143295714D01*
X103410000Y-143343333D01*
X103362381Y-143438571D01*
X103362381Y-143962381D01*
X102171905Y-143676667D02*
X101695714Y-143676667D01*
X102267143Y-143962381D02*
X101933810Y-142962381D01*
X101600476Y-143962381D01*
M02*
