M48
;DRILL file {KiCad 4.0.7} date 12/29/19 23:23:23
;FORMAT={2:4/ absolute / inch / suppress leading zeros}
FMAT,2
INCH,TZ
T1C0.016
T2C0.030
T3C0.031
T4C0.039
T5C0.043
T6C0.047
%
G90
G05
M72
T1
X58750Y-34000
X63500Y-43500
X63750Y-43750
X63750Y-48250
X65000Y-43250
X65000Y-43750
T2
X56047Y-46250
X57031Y-46250
X58016Y-46250
X59984Y-46300
X60969Y-46300
X61953Y-46300
T3
X40000Y-46000
X41000Y-44500
X42000Y-43000
X43000Y-41500
X44000Y-40000
X44000Y-46000
X45000Y-38500
X45000Y-44500
X46000Y-37000
X46000Y-43000
X46250Y-44500
X47000Y-35500
X47000Y-41500
X47250Y-43000
X47500Y-48250
X47500Y-52250
X48000Y-34000
X48000Y-40000
X48250Y-41500
X49000Y-38500
X49000Y-48250
X49000Y-52250
X49250Y-40000
X50000Y-37000
X50250Y-38500
X50250Y-44500
X51000Y-35500
X51000Y-48250
X51000Y-52250
X51250Y-37000
X51250Y-43000
X52000Y-34000
X52250Y-35500
X52250Y-41500
X52500Y-48250
X52500Y-52250
X53250Y-34000
X53250Y-40000
X54250Y-38500
X55250Y-37000
X56250Y-35500
X57250Y-34000
X59500Y-34000
X59500Y-35969
X61500Y-34000
X61500Y-35969
X65500Y-48250
X65500Y-52250
X66500Y-45250
X67000Y-41750
X67000Y-42750
X67000Y-43750
X67000Y-48250
X67000Y-52250
X69000Y-48250
X69000Y-52250
X70500Y-45250
X70500Y-48250
X70500Y-52250
T4
X40000Y-57250
X41000Y-31500
X41000Y-57250
X42000Y-31500
X42000Y-57250
X43000Y-31500
X43000Y-57250
X44000Y-31500
X44000Y-57250
X45000Y-31500
X45000Y-57250
X46000Y-31500
X46000Y-57250
X47000Y-31500
X47000Y-57250
X48000Y-31500
X48000Y-57250
X49000Y-31500
X49000Y-57250
X50000Y-31500
X50000Y-57250
X51000Y-57250
X52000Y-31500
X52000Y-57250
X53000Y-31500
X53000Y-57250
X54000Y-31500
X54000Y-57250
X55000Y-31500
X55000Y-57250
X56000Y-31500
X56000Y-57250
X57000Y-31500
X57000Y-57250
X58000Y-31500
X58000Y-57250
X59000Y-31500
X59000Y-57250
X60000Y-31500
X60000Y-57250
X61000Y-31500
X61000Y-57250
X62000Y-57250
X63000Y-57250
X64000Y-57250
X65000Y-57250
X66000Y-57250
X67000Y-57250
X68000Y-57250
X69000Y-57250
X70000Y-57250
X70250Y-42250
X70250Y-43250
X71000Y-57250
X72000Y-57250
X73000Y-57250
X74000Y-57250
X75000Y-57250
X76000Y-57250
X77000Y-57250
X78000Y-57250
T5
X42000Y-53750
X42000Y-55522
X44559Y-53750
X44559Y-55522
X46500Y-53750
X46500Y-55522
X49059Y-53750
X49059Y-55522
X51000Y-53750
X51000Y-55522
X53559Y-53750
X53559Y-55522
X55500Y-53750
X55500Y-55522
X58059Y-53750
X58059Y-55522
X60000Y-53750
X60000Y-55522
X62559Y-53750
X62559Y-55522
X64500Y-53750
X64500Y-55522
X67059Y-53750
X67059Y-55522
X69000Y-53750
X69000Y-55522
X71559Y-53750
X71559Y-55522
X73500Y-53750
X73500Y-55522
X76059Y-53750
X76059Y-55522
T6
X74907Y-35781
X74907Y-36766
X74907Y-38734
X74907Y-39719
X76878Y-37750
T0
M30
